<svg width="500" height="500" viewBox="0 0 500 500" fill="none" xmlns="http://www.w3.org/2000/svg">
<g clip-path="url(#clip0_55_5532)">
<path d="M84.177 45.6758L84.22 92.5568L62.782 92.5828L62.751 45.6888L84.177 45.6758Z" fill="#EBEBEB"/>
<path d="M33.0581 45.7266H28.9771V92.6076H33.0581V45.7266Z" fill="#EBEBEB"/>
<path d="M215.13 113.607L215.117 92.6276L93.7089 92.5586L93.6519 45.6646L215.048 45.7456L215.035 24.7666L291.992 69.1326L215.13 113.607Z" fill="#EBEBEB"/>
<path d="M54.27 45.6982L54.314 92.5802L40.438 92.5962L40.394 45.7282L54.27 45.6982Z" fill="#EBEBEB"/>
<path d="M283.172 354.843L283.141 306.947L305.567 306.934L305.611 354.815L283.172 354.843ZM284.141 307.947L284.172 353.84L304.611 353.817L304.567 307.934L284.141 307.947Z" fill="#EBEBEB"/>
<path d="M249.389 354.87L249.345 306.988L254.427 306.981L254.471 354.863L249.389 354.87ZM250.345 307.986L250.388 353.868L253.47 353.865L253.426 307.983L250.345 307.986Z" fill="#EBEBEB"/>
<path d="M394.597 376.117L394.583 354.771L314.1 354.817L314.041 306.922L394.515 306.889L394.501 285.545L395.252 285.977L472.958 330.775L394.597 376.117ZM395.583 353.772L395.595 374.385L470.958 330.778L395.503 287.277L395.515 307.89L315.043 307.923L315.098 353.818L395.583 353.772Z" fill="#EBEBEB"/>
<path d="M260.828 354.856L260.784 306.988L275.66 306.957L275.704 354.838L260.828 354.856ZM261.784 307.986L261.828 353.854L274.704 353.839L274.66 307.958L261.784 307.986Z" fill="#EBEBEB"/>
<path d="M209.399 177.131L209.443 224.012L188.004 224.038L187.973 177.144L209.399 177.131Z" fill="#EBEBEB"/>
<path d="M158.28 177.182H154.199V224.063H158.28V177.182Z" fill="#EBEBEB"/>
<path d="M299.428 244.946L299.416 223.967L218.931 224.013L218.875 177.119L299.346 177.086L299.334 156.106L376.29 200.472L299.428 244.946Z" fill="#EBEBEB"/>
<path d="M179.492 177.153L179.536 224.035L165.66 224.051L165.617 177.183L179.492 177.153Z" fill="#EBEBEB"/>
<path d="M500 426.646H0V437.126H500V426.646Z" fill="#EBEBEB"/>
<path d="M500 489.52H0V500H500V489.52Z" fill="#EBEBEB"/>
<path d="M500 458.095H0V468.575H500V458.095Z" fill="#EBEBEB"/>
<path d="M456.348 500H399.831L318.165 426.647H374.682L456.348 500Z" fill="#28ED70"/>
<path d="M347.61 433.772C348.895 434.133 349.77 434.794 349.559 435.235C349.139 436.117 349.213 437.639 350.878 439.062C352.024 440.064 353.649 440.965 355.208 441.567C356.767 442.168 358.056 442.428 359.047 442.428C359.563 442.428 359.852 442.367 360.112 442.247C360.371 442.127 360.561 441.947 360.614 441.646C360.704 441.065 360.256 440.082 359.342 438.901L359.296 438.86C358.576 437.919 358.044 437.037 357.888 436.276C357.732 435.514 357.969 434.853 358.853 434.413C359.461 434.112 360.389 433.952 361.579 433.952C363.959 433.952 366.799 434.634 369.201 435.555C371.625 436.496 373.775 437.719 375.263 439.022C377.461 440.946 377.223 442.368 377.081 443.39C376.973 443.85 375.864 443.991 374.586 443.67C373.292 443.369 372.28 442.729 372.366 442.247C372.547 441.226 372.614 440.243 371.218 439.021C370.188 438.12 368.716 437.317 367.304 436.777C365.894 436.236 364.769 436.015 363.936 436.015C363.46 436.015 363.19 436.055 362.987 436.155C362.784 436.256 362.633 436.436 362.574 436.697C362.456 437.218 362.851 438.12 363.691 439.201L363.736 439.241C364.508 440.263 365.068 441.205 365.231 442.007C365.377 442.828 365.169 443.55 364.229 444.011C363.621 444.312 362.636 444.491 361.407 444.491C358.869 444.491 355.865 443.77 353.292 442.768C350.742 441.786 348.421 440.484 346.795 439.061C344.362 436.897 344.421 435.074 344.899 433.931C345.109 433.491 346.348 433.431 347.61 433.772Z" fill="white"/>
<path d="M389.299 455.851L385.658 452.665H364.481C363.251 452.665 361.751 452.185 361.042 451.563C360.354 450.961 360.733 450.46 361.963 450.46H383.14L379.522 447.294C378.813 446.674 379.294 446.192 380.484 446.192C381.714 446.192 383.215 446.673 383.924 447.294L393.701 455.851C394.387 456.452 394.009 456.953 392.78 456.953C391.59 456.952 389.985 456.451 389.299 455.851Z" fill="white"/>
<path d="M383.519 465.509L377.955 460.64L371.678 459.658C370.6 459.478 369.605 459.057 369.099 458.616C368.939 458.476 368.841 458.355 368.784 458.235C368.556 457.655 369.506 457.374 370.884 457.574L399.303 462.003C400.381 462.183 401.441 462.624 401.905 463.064C402.471 463.526 402.397 463.946 401.73 464.127L383.432 468.555C382.51 468.755 380.921 468.475 379.821 467.894C379.628 467.794 379.428 467.654 379.268 467.514C378.764 467.073 378.797 466.652 379.488 466.492L383.519 465.509ZM386.943 464.687L393.615 463.063L383.233 461.44L386.943 464.687Z" fill="white"/>
<path d="M397.484 480.574C396.562 480.774 394.967 480.454 393.906 479.873C393.774 479.793 393.512 479.633 393.284 479.433C393.284 479.433 393.284 479.433 393.261 479.412C393.032 479.212 392.767 478.911 392.803 478.631C392.823 478.37 393.086 478.151 393.458 477.989C394.287 477.709 395.555 477.568 397.736 477.568C398.466 477.548 398.89 477.468 399.167 477.328C399.466 477.208 399.588 476.968 399.631 476.727C399.704 476.306 399.426 475.785 399.3 475.605L396.598 473.24H387.993C386.803 473.24 385.239 472.74 384.53 472.119C383.819 471.498 384.261 471.016 385.451 471.016H408.848C410.078 471.016 411.58 471.498 412.289 472.119C412.289 472.119 412.289 472.119 412.312 472.139L416.387 475.706C419.112 478.09 417.48 479.993 412.76 479.993C410.143 479.993 407.156 479.391 404.471 478.43C404.372 478.691 404.171 478.931 403.804 479.131C403.113 479.531 401.942 479.792 400.277 479.792C399.064 479.772 398.381 479.832 398.03 479.872C398.199 480.194 398.02 480.454 397.484 480.574ZM410.22 477.77C412.52 477.77 413.291 476.848 411.986 475.707L409.17 473.241H401.001L403.817 475.707C405.123 476.848 408 477.77 410.22 477.77Z" fill="white"/>
<path d="M430.599 491.994L426.958 488.808H405.781C404.551 488.808 403.05 488.328 402.342 487.706C401.654 487.104 402.033 486.603 403.263 486.603H424.44L420.823 483.437C420.113 482.816 420.594 482.335 421.784 482.335C423.014 482.335 424.515 482.815 425.225 483.437L435.001 491.993C435.689 492.595 435.309 493.096 434.08 493.096C432.89 493.097 431.287 492.596 430.599 491.994Z" fill="white"/>
<path d="M420.87 437.127H403.6L391.931 426.65H409.21L420.87 437.127Z" fill="#28ED70"/>
<path d="M420.87 437.127H403.6L391.931 426.65H409.21L420.87 437.127Z" fill="#28ED70"/>
<path d="M444.196 458.082H426.926L415.256 447.605H432.536L444.196 458.082Z" fill="#28ED70"/>
<path d="M467.526 479.038H450.256L438.586 468.56H455.866L467.526 479.038Z" fill="#28ED70"/>
<path d="M490.854 499.992H473.584L461.914 489.515H479.194L490.854 499.992Z" fill="#28ED70"/>
<path d="M449.81 447.605H432.54L420.87 437.127H438.15L449.81 447.605Z" fill="#28ED70"/>
<path d="M473.135 468.559H455.865L444.196 458.082H461.475L473.135 468.559Z" fill="#28ED70"/>
<path d="M415.256 447.605H397.986L386.316 437.127H403.596L415.256 447.605Z" fill="#28ED70"/>
<path d="M438.586 468.559H421.316L409.646 458.082H426.926L438.586 468.559Z" fill="#28ED70"/>
<path d="M496.532 489.514H479.262L467.593 479.037H484.873L496.532 489.514Z" fill="#28ED70"/>
<path d="M461.914 489.514H444.644L432.974 479.037H450.254L461.914 489.514Z" fill="#28ED70"/>
<path d="M30.8232 426.647C171.242 426.129 328.759 426.126 469.178 426.647C328.758 427.169 171.241 427.165 30.8232 426.647Z" fill="black"/>
<path d="M359.39 426.647H339.914L344.449 66.8472C344.505 62.2982 346.716 58.6592 349.429 58.6592H349.874C352.587 58.6592 354.799 62.2982 354.854 66.8472L359.39 426.647Z" fill="#28ED70"/>
<path opacity="0.4" d="M359.39 426.647H339.914L344.449 66.8472C344.505 62.2982 346.716 58.6592 349.429 58.6592H349.874C352.587 58.6592 354.799 62.2982 354.854 66.8472L359.39 426.647Z" fill="black"/>
<g opacity="0.3">
<path d="M347.913 72.501C346.753 115.366 345.676 158.325 347.021 201.201C347.294 210.816 348.397 221.306 348.769 230.855C349.39 283.644 340.548 336.345 345.608 389.138C344.43 375.987 343.885 362.779 343.881 349.573C343.545 309.95 349.177 270.482 348.282 230.871C347.877 221.34 346.824 210.811 346.567 201.216C345.336 158.33 346.407 115.363 347.913 72.501Z" fill="black"/>
<path d="M348.691 64.8887C350.826 106.87 352.786 149.284 349.652 191.245L350.135 183.358C351.757 143.982 350.203 104.258 348.691 64.8887Z" fill="black"/>
<path d="M346.338 350.746C349.856 325.108 352.372 299.317 353.321 273.452C353.696 260.55 353.586 247.536 352.179 234.693L351.03 227.014C354.027 242.291 354.001 257.96 353.74 273.464C352.919 299.343 350.253 325.158 346.338 350.746Z" fill="black"/>
<path d="M353.312 174.26C352.173 186.444 351.004 198.66 350.861 210.898C351.097 232.212 354.971 219.369 354.398 207.778C354.298 204.724 353.974 201.669 353.312 198.678C354.759 204.636 355.044 210.86 354.399 216.968C354.289 217.995 353.462 224.771 351.659 222.355C350.205 218.734 350.479 214.706 350.36 210.897C350.541 198.63 351.774 186.417 353.312 174.26Z" fill="black"/>
<path d="M354.646 306.326C353.365 321.722 352.035 337.127 349.982 352.444C348.485 361.58 347.175 370.778 347.533 380.059C347.8 384.576 347.835 389.432 349.93 393.517C353.709 399.05 354.084 386.797 354.3 384.707C354.575 377.812 354.673 370.761 353.219 363.987C352.988 363.219 352.464 361.111 351.483 362.252C350.839 363.18 350.658 364.371 350.446 365.471C349.951 368.509 349.848 371.61 349.873 374.693C350.06 377.704 349.79 381.024 351.139 383.787C350.672 383.161 350.543 382.363 350.375 381.618C349.692 379.441 348.733 360.337 352.451 361.777C353.563 362.945 353.639 364.692 353.973 366.193C355.042 373.856 355.112 381.669 354.293 389.359C353.984 390.901 353.702 395.886 351.393 395.327C350.527 395.112 349.953 394.42 349.539 393.756C347.354 389.567 347.287 384.675 347.054 380.071C346.739 370.761 348.1 361.533 349.636 352.393C351.723 337.089 353.149 321.7 354.646 306.326Z" fill="black"/>
<path d="M345.167 426.648C343.888 409.489 342.839 390.588 342.22 373.392C343.503 390.555 344.546 409.449 345.167 426.648Z" fill="black"/>
<path d="M350.293 426.647C352 419.58 351.715 411.888 348.702 405.227C345.596 398.522 344.686 391.063 343.992 383.788C344.933 391.001 346.005 398.406 349.113 405.036C352.264 411.723 352.473 419.652 350.293 426.647Z" fill="black"/>
<path d="M354.646 318.572C354.006 332.098 353.721 345.726 355.295 359.193C356.613 368.137 357.643 377.166 357.693 386.222C357.682 390.746 357.523 395.306 356.557 399.76C355.385 404.132 354.723 408.601 354.351 413.104C353.981 417.604 353.795 422.127 353.892 426.648C353.709 422.13 353.748 417.598 354.083 413.083C354.419 408.574 355.055 404.057 356.193 399.679C357.114 395.273 357.241 390.73 357.216 386.226C357.104 377.188 356.268 368.182 354.966 359.236C353.411 345.741 353.825 332.099 354.646 318.572Z" fill="black"/>
<path d="M351.03 58.8955C351.883 69.7865 352.472 80.6955 352.948 91.6095C353.3 102.522 353.815 113.466 353.111 124.374C353.525 105.416 351.702 78.1055 351.03 58.8955Z" fill="black"/>
</g>
<path d="M446.374 99.9357L426.288 123.102L270.755 134.71L267.357 91.8287L422.891 80.2207L446.374 99.9357Z" fill="#28ED70"/>
<path d="M422.891 80.2207L429.344 82.9987L451.422 101.203L428.955 126.894L272.102 138.276L270.755 134.71L426.288 123.102L446.374 99.9357L422.891 80.2207Z" fill="#28ED70"/>
<path opacity="0.1" d="M422.891 80.2207L429.344 82.9987L451.422 101.203L428.955 126.894L272.102 138.276L270.755 134.71L426.288 123.102L446.374 99.9357L422.891 80.2207Z" fill="black"/>
<path d="M353.057 91.8709C353.196 93.1879 352.241 94.3679 350.924 94.5059C349.608 94.6449 348.428 93.6899 348.289 92.3729C348.15 91.0559 349.105 89.8769 350.422 89.7379C351.738 89.5999 352.918 90.5549 353.057 91.8709Z" fill="#C7C7C7"/>
<path d="M306.938 111.055C306.522 105.837 310.536 101.226 315.801 100.753C318.118 100.557 320.291 101.141 322.06 102.292C322.737 102.764 322.92 103.678 322.502 104.377C322.031 105.08 321.066 105.267 320.42 104.845C319.18 103.995 317.689 103.617 316.055 103.756C314.238 103.91 312.615 104.789 311.475 106.054C310.393 107.366 309.789 109.009 309.94 110.8C310.092 112.591 310.969 114.162 312.252 115.221C313.588 116.274 315.337 116.87 317.154 116.716C318.788 116.577 320.167 115.955 321.272 114.906C321.84 114.407 322.823 114.43 323.405 115.017C323.934 115.636 323.91 116.593 323.32 117.147C321.77 118.578 319.728 119.522 317.409 119.719C312.141 120.166 307.409 116.296 306.938 111.055Z" fill="white"/>
<path d="M339.165 111.268L339.603 116.431C339.668 117.196 339.089 117.882 338.325 117.946C337.64 118.004 337.071 117.547 336.859 116.929C335.919 117.725 334.768 118.248 333.453 118.359C331.662 118.511 330.044 117.905 328.812 116.816C327.576 115.699 326.779 114.122 326.627 112.331C326.472 110.514 326.993 108.825 328.025 107.544C329.055 106.236 330.544 105.34 332.336 105.188C333.653 105.076 334.877 105.424 335.937 106.049C336.04 105.379 336.525 104.833 337.21 104.775C337.974 104.71 338.66 105.289 338.727 106.08L339.165 111.268ZM336.372 111.505C336.278 110.4 335.803 109.485 335.114 108.879C334.421 108.221 333.494 107.929 332.573 108.008C331.624 108.089 330.76 108.532 330.214 109.295C329.638 110.007 329.35 110.987 329.444 112.093C329.536 113.173 329.984 114.091 330.675 114.722C331.336 115.329 332.263 115.622 333.212 115.542C334.134 115.464 334.998 115.018 335.575 114.307C336.149 113.567 336.464 112.585 336.372 111.505Z" fill="white"/>
<path d="M351.999 104.926C352.062 105.664 351.511 106.373 350.721 106.44C350.116 106.491 349.602 106.694 349.183 107.074C348.71 107.433 348.352 107.915 348.079 108.442C347.518 109.339 347.287 110.367 347.187 110.746L347.612 115.75C347.677 116.515 347.072 117.202 346.282 117.27C345.518 117.335 344.831 116.756 344.767 115.991L343.887 105.613C343.822 104.849 344.403 104.19 345.167 104.125C345.958 104.058 346.667 104.608 346.731 105.372L346.747 105.557C346.89 105.359 347.083 105.13 347.256 104.983C348.076 104.33 349.168 103.76 350.487 103.674C351.276 103.608 351.934 104.163 351.999 104.926Z" fill="white"/>
<path d="M353.649 110.013C353.372 106.428 355.91 103.189 359.519 102.883C362.944 102.592 365.873 104.917 366.385 108.455C366.387 108.482 366.391 108.535 366.396 108.588C366.401 108.64 366.412 108.772 366.391 108.827C366.365 109.466 365.849 109.934 365.111 109.997L356.734 110.707C356.918 111.301 357.266 111.962 357.778 112.37C358.385 112.955 359.478 113.34 360.408 113.342C361.362 113.339 362.475 113.007 363.092 112.451C363.596 111.825 364.682 111.812 365.06 112.205C365.434 112.544 365.764 113.312 365.205 113.916C364.015 115.21 362.508 115.896 360.638 116.055C357.025 116.334 353.98 113.594 353.649 110.013ZM356.412 108.479L363.867 107.847C363.514 106.815 362.039 105.374 359.731 105.385C357.501 105.681 356.531 107.381 356.412 108.479Z" fill="white"/>
<path d="M369.692 108.654C369.414 105.069 371.952 101.83 375.561 101.524C378.986 101.233 381.915 103.559 382.428 107.097C382.43 107.124 382.435 107.177 382.439 107.23C382.443 107.282 382.454 107.414 382.432 107.469C382.407 108.107 381.89 108.576 381.152 108.638L372.776 109.348C372.959 109.942 373.306 110.603 373.819 111.01C374.426 111.595 375.52 111.98 376.449 111.982C377.404 111.979 378.516 111.646 379.133 111.091C379.636 110.465 380.723 110.451 381.102 110.845C381.476 111.184 381.806 111.952 381.248 112.556C380.057 113.85 378.55 114.536 376.68 114.695C373.067 114.975 370.021 112.235 369.692 108.654ZM372.455 107.12L379.908 106.488C379.555 105.456 378.08 104.015 375.772 104.026C373.542 104.321 372.572 106.022 372.455 107.12Z" fill="white"/>
<path d="M393.776 101.384C393.839 102.122 393.289 102.831 392.498 102.898C391.893 102.949 391.379 103.152 390.961 103.532C390.487 103.891 390.13 104.373 389.857 104.9C389.295 105.796 389.064 106.825 388.964 107.204L389.389 112.208C389.454 112.973 388.849 113.661 388.059 113.728C387.295 113.793 386.609 113.214 386.544 112.449L385.665 102.071C385.6 101.307 386.181 100.647 386.944 100.583C387.735 100.516 388.445 101.066 388.508 101.83L388.524 102.015C388.667 101.817 388.86 101.588 389.033 101.441C389.853 100.788 390.945 100.217 392.265 100.132C393.054 100.066 393.711 100.621 393.776 101.384Z" fill="white"/>
<path d="M242.629 176.569C232.455 184.206 228.806 207.06 228.806 207.06C228.806 207.06 218.174 220.598 219.452 228.91C220.729 237.222 227.347 240.068 227.347 240.068L227.117 235.525C227.117 235.525 229.192 241.611 238.465 245.249C247.738 248.887 260.841 247.702 267.908 245.286C274.975 242.87 278.802 238.11 278.802 238.11L275.427 244.193C275.427 244.193 284.784 245.169 291.7 236.04C298.616 226.911 284.724 210.444 283.807 207.192C282.89 203.939 283.344 172.758 259.295 173.324C259.295 173.324 249.634 171.311 242.629 176.569Z" fill="black"/>
<path d="M224.026 239.014C221.84 236.84 219.718 234.379 218.725 231.635C217.673 228.726 217.503 225.578 218.474 222.622C219.633 219.095 221.986 216.174 224.277 213.32C226.643 210.372 229.233 207.588 231.544 204.601C231.671 204.437 231.423 204.251 231.276 204.375C228.806 206.455 226.572 208.902 224.363 211.254C222.26 213.494 220.177 215.823 218.642 218.501C217.249 220.932 216.252 223.741 216.409 226.58C216.538 228.921 217.285 231.164 218.482 233.173C219.91 235.57 221.921 237.263 223.875 239.193C223.998 239.314 224.147 239.135 224.026 239.014Z" fill="black"/>
<path d="M295.109 226.122C293.442 217.501 286.774 211.245 283.277 203.441C281.384 199.216 280.1 194.651 277.399 190.835C277.326 190.732 277.149 190.855 277.217 190.962C279.395 194.362 280.391 198.224 281.787 201.968C283.205 205.772 285.289 209.207 287.422 212.643C291.298 218.887 295.954 226.274 293.791 233.945C292.792 237.487 290.102 241.185 286.243 241.794C286.094 241.817 286.148 242.063 286.296 242.024C289.461 241.195 292.021 239.301 293.66 236.445C295.464 233.303 295.79 229.643 295.109 226.122Z" fill="black"/>
<path d="M295.142 228.387C295.777 225.311 295.596 222.071 294.334 219.172C293.079 216.292 290.8 214.022 288.487 211.966C285.821 209.595 282.982 207.306 281.547 203.945C281.487 203.804 281.281 203.916 281.338 204.055C283.586 209.582 288.887 212.756 292.097 217.592C295.767 223.12 294.768 230.288 290.984 235.493C288.656 238.697 285.444 241.152 281.935 242.937C281.874 242.968 281.923 243.06 281.985 243.031C288.051 240.155 293.727 235.239 295.142 228.387Z" fill="black"/>
<path d="M252.847 237.756C266.268 284.748 276.092 352.545 281.904 365.675C285.849 374.587 236.353 376.959 236.473 370.27C236.622 361.932 234.511 297.613 237.286 244.921C238.416 223.459 248.764 223.459 252.847 237.756Z" fill="#D3766A"/>
<path d="M245.835 383.214C239.577 376.983 236.621 361.932 236.621 361.932L278.548 353.965C278.548 353.965 282.106 363.511 285.666 370.212C288.613 375.759 296.353 395.183 296.34 395.188C295.863 395.245 274.659 404.973 269.231 403.372C263.696 401.741 246.535 384.663 245.835 383.214Z" fill="#D3766A"/>
<path d="M293.362 389.242C298.584 398.43 302.469 400.497 304.215 404.376C305.961 408.255 320.038 429.695 319.639 432.581C319.24 435.467 314.484 436.459 308.328 430.926C302.172 425.393 292.141 412.368 291.322 411.756C290.503 411.144 273.622 405.353 272.253 404.33C270.883 403.308 293.362 389.242 293.362 389.242Z" fill="#D3766A"/>
<path d="M291.616 387.9C291.616 387.9 299.209 403.272 300.323 407.402C301.437 411.532 311.687 439.603 310.835 442.389C309.983 445.174 304.846 443.924 299.628 437.41C294.41 430.896 287.22 412.553 286.506 411.81C285.792 411.066 272.567 398.278 271.373 397.035C270.179 395.791 291.616 387.9 291.616 387.9Z" fill="#D3766A"/>
<path d="M273.227 384.758C273.227 384.758 281.541 398.539 283.272 401.883C285.002 405.226 291.597 434.477 291.41 436.857C291.224 439.237 287.71 439.18 281.717 432.47C276.689 426.842 271.268 409.931 270.523 409.369C269.778 408.807 259.489 398.142 258.244 397.203C256.999 396.263 273.227 384.758 273.227 384.758Z" fill="#D3766A"/>
<path d="M236.621 361.933C234.112 382.553 238.356 391.027 237.896 394.131C236.845 401.22 228.65 415.066 230.54 418.323C232.43 421.58 243.387 416.379 247.437 406.568C252.311 394.761 264.435 403.291 264.435 403.291L236.621 361.933Z" fill="#D3766A"/>
<path d="M286.096 411.524C284.969 408.812 284.355 405.739 283.177 403.069C281.989 400.688 280.266 397.38 279.294 394.93C281.12 397.359 282.694 399.916 284.076 402.634C285.307 405.514 285.687 408.474 286.096 411.524Z" fill="black"/>
<path d="M307.782 429.93C304.852 422.802 302.603 415.385 299.896 408.195C297.17 402.852 293.339 398.138 290.784 392.695C291.641 394.185 292.654 395.568 293.66 396.961C295.424 399.473 297.916 402.896 299.491 405.484C300.407 406.961 301.249 408.542 301.742 410.225C303.896 416.75 305.979 423.296 307.782 429.93Z" fill="black"/>
<path d="M290.236 358.947L236.158 373.919C236.158 373.919 230.569 281.515 233.148 244.828C235.042 217.89 249.368 220.678 255.767 239.373C264.516 264.932 290.236 358.947 290.236 358.947Z" fill="#28ED70"/>
<path d="M239.148 358.319C246.408 356.839 275.897 349.702 282.164 347.728C282.599 347.591 282.617 347.283 282.147 347.367C260.284 351.276 246.146 356.215 239.1 358.031C238.923 358.076 238.963 358.356 239.148 358.319Z" fill="black"/>
<path opacity="0.1" d="M288.432 359.451L236.163 373.914C236.163 373.914 230.565 281.522 233.155 244.826C234.41 226.824 241.247 222.094 247.537 226.534L288.432 359.451Z" fill="black"/>
<path d="M353.396 450.182C349.992 451.255 253.173 449.323 249.537 446.905C249.019 446.574 249.245 432.421 249.769 420.986L260.124 364.685H317.556L309.866 415.875C309.866 415.875 346.594 433.19 350.316 436.27C354.007 439.337 356.802 449.125 353.396 450.182Z" fill="#D3766A"/>
<path d="M353.401 450.182C351.902 450.653 332.377 450.543 310.636 450.073C309.209 450.037 307.765 450.002 306.321 449.967C302.611 449.894 298.866 449.789 295.154 449.682C293.709 449.63 292.264 449.579 290.836 449.543L290.769 449.547C289.341 449.494 287.912 449.441 286.518 449.404C284.351 449.343 282.234 449.263 280.167 449.18C278.823 449.123 277.494 449.064 276.201 449.02L276.151 449.023C274.856 448.963 273.579 448.901 272.352 448.854L272.302 448.857C270.436 448.779 268.654 448.696 266.955 448.592C265.812 448.54 264.685 448.487 263.608 448.414C261.505 448.299 259.587 448.174 257.885 448.036C257.027 447.984 256.218 447.913 255.476 447.838C253.622 447.676 252.137 447.509 251.121 447.332C250.291 447.195 249.746 447.041 249.537 446.902C249.05 446.595 249.322 435.438 249.322 422.514C258.642 424.816 276.638 428.454 302.744 432.532C345.668 439.239 332.993 427.52 325.738 423.507C325.668 423.461 325.6 423.431 325.53 423.385C325.978 423.594 326.444 423.819 326.892 424.045C326.961 424.075 327.046 424.103 327.116 424.15C327.944 424.555 328.772 424.961 329.6 425.366C330.497 425.801 331.411 426.252 332.309 426.704C333.81 427.44 335.31 428.176 336.744 428.916C338.193 429.621 339.575 430.331 340.888 431.01C341.666 431.418 342.426 431.811 343.151 432.172C343.514 432.353 343.86 432.551 344.206 432.732C344.673 432.974 345.139 433.215 345.572 433.459C346.54 433.974 347.389 434.445 348.118 434.873C348.291 434.964 348.464 435.054 348.621 435.163C349.402 435.622 349.977 436.008 350.311 436.274C354.006 439.332 356.794 449.116 353.401 450.182Z" fill="black"/>
<path d="M190.008 291.344C190.008 291.344 181.867 345.466 203.748 356.694C216.669 363.324 244.886 366.618 259.44 354.257C269.735 345.513 263.845 336.804 263.845 336.804L249.8 404.522L314.089 405.33C314.089 405.33 324.521 353.474 328.318 289.847C329.629 267.867 300.738 261.907 287.861 267.353C263.132 277.813 246.585 298.054 241.28 302.708L238.243 291.345H190.008V291.344Z" fill="black"/>
<path d="M259.439 354.257C261.187 347.367 263.844 336.804 268.31 323.976C269.615 320.228 270.587 316.372 271.695 312.561C272.844 308.609 274.204 304.673 275.074 300.649C275.116 300.453 275.435 300.534 275.376 300.726C274.306 304.213 273.611 307.813 272.689 311.341C271.786 314.795 270.869 318.245 269.904 321.683C269.487 323.167 269.051 324.647 268.627 326.129C268.814 325.821 269.001 325.515 269.176 325.214C269.986 323.823 270.799 322.437 271.642 321.066C273.379 318.242 275.484 315.586 277.006 312.64C277.098 312.461 277.384 312.622 277.278 312.792C275.527 315.61 274.281 318.739 272.641 321.626C271.845 323.027 271.011 324.398 270.157 325.764C269.403 326.97 268.645 328.34 267.682 329.422C266.417 333.777 262.945 346.519 260.416 353.475C260.272 353.867 259.335 354.668 259.439 354.257Z" fill="#455A64"/>
<path d="M261.19 386.453C262.138 381.874 263.464 377.37 264.673 372.855C265.884 368.334 267.098 363.815 268.346 359.304C270.844 350.279 273.447 341.285 276.045 332.289C277.519 327.182 279.112 322.101 280.677 317.021C280.722 316.876 280.946 316.928 280.908 317.078C276.287 335.221 271.299 353.271 266.008 371.231C264.507 376.326 263.143 381.491 261.352 386.493C261.316 386.591 261.168 386.56 261.19 386.453Z" fill="#455A64"/>
<path d="M258.366 391.163C265.154 390.956 271.964 390.689 278.757 390.664C285.568 390.639 292.376 390.727 299.182 390.933C301.104 390.991 303.024 391.067 304.945 391.136C305.861 391.169 306.776 391.202 307.69 391.257C308.612 391.312 309.554 391.295 310.462 391.452C310.564 391.47 310.537 391.598 310.447 391.612C308.768 391.875 306.954 391.808 305.254 391.843C303.612 391.877 301.97 391.928 300.328 391.958C296.951 392.02 293.575 392.068 290.197 392.092C283.426 392.141 276.672 391.997 269.907 391.816C266.064 391.713 262.221 391.606 258.381 391.485C258.164 391.479 258.141 391.17 258.366 391.163Z" fill="#455A64"/>
<path opacity="0.2" d="M239.441 362.135C226.316 363.769 211.949 360.904 203.747 356.694C181.868 345.467 190.013 291.346 190.013 291.346H228.812L239.441 362.135Z" fill="black"/>
<path d="M25.1002 442.393C25.3972 440.564 28.6192 415.646 40.9522 392.708C52.5562 371.126 66.9602 347.749 68.8142 346.693C69.2922 346.409 75.9212 350.164 88.0912 357.416L144.88 379.21L126.354 428.499L71.2692 412.371C71.2692 412.371 61.4352 421.099 51.8722 429.06C50.1652 430.481 38.8712 447.244 36.9872 448.07C32.5522 450.003 24.5092 445.938 25.1002 442.393Z" fill="#D3766A"/>
<path d="M25.1024 442.402C25.4014 440.574 28.6174 415.657 40.9394 392.714C52.5544 371.121 66.9534 347.736 68.8234 346.7C69.2634 346.428 77.2544 350.987 88.0914 357.416C78.0124 370.348 49.3814 411.071 46.4164 417.511C42.9684 424.922 38.0994 436.229 41.3414 436.274C44.1644 436.328 50.1204 430.77 51.5514 429.371C49.1044 432.086 38.7754 447.299 36.9784 448.061C32.5644 449.998 24.5134 445.937 25.1024 442.402Z" fill="black"/>
<path d="M238.241 291.344C238.241 291.344 237.748 311.343 235.469 320.989C235.058 322.731 225.37 327.521 225.37 327.521C225.37 327.521 246.134 377.433 249.122 410.04C250.18 421.59 244.587 438.7 221.942 448.561C196.639 459.58 90.6143 419.663 90.6143 419.663L111.165 360.074L176.73 384.272C176.73 384.272 157.668 360.074 156.227 337.583C155.025 318.826 166.624 291.343 166.624 291.343H238.241V291.344Z" fill="black"/>
<path d="M105.982 418.505C107.917 411.996 109.803 405.446 111.913 398.989C114.029 392.514 116.25 386.079 118.584 379.682C119.243 377.876 119.918 376.077 120.586 374.274C120.905 373.414 121.224 372.557 121.563 371.705C121.905 370.847 122.184 369.947 122.619 369.135C122.668 369.044 122.781 369.11 122.766 369.2C122.488 370.877 121.855 372.578 121.354 374.203C120.87 375.773 120.403 377.347 119.916 378.915C118.914 382.141 117.899 385.361 116.862 388.575C114.782 395.019 112.524 401.386 110.228 407.751C108.923 411.367 107.614 414.982 106.294 418.59C106.219 418.796 105.918 418.721 105.982 418.505Z" fill="#455A64"/>
<path d="M231.233 292.265C231.258 292.129 231.484 292.155 231.476 292.294C231.342 294.536 229.897 307.213 229.444 312.005C229.282 313.714 228.661 316.698 231.116 317.129C233.059 317.47 234.4 315.522 234.906 313.914C235.522 311.954 237.016 297.205 237.623 292.315C237.64 292.175 237.865 292.209 237.866 292.344C237.903 297.356 236.908 313.104 236.012 315.178C235.309 316.805 234.152 318.262 232.324 318.529C232.287 318.534 232.202 320.847 231.232 324.237C231.187 324.393 230.688 324.348 230.674 324.214L230.662 324.216C230.947 323.097 231.121 318.591 231.141 318.57C229.868 318.342 228.921 317.882 228.268 316.593C226.963 314.02 230.203 297.843 231.233 292.265Z" fill="#455A64"/>
<path d="M219.513 330.286C221.297 329.056 223.143 327.936 225 326.837C226.853 325.728 228.748 324.696 230.651 323.678C232.565 322.682 234.484 321.693 236.452 320.8C238.415 319.898 240.393 319.023 242.437 318.304C241.51 318.867 240.559 319.373 239.631 319.926L236.806 321.497C234.927 322.552 233.025 323.562 231.125 324.576C229.214 325.569 227.31 326.577 225.371 327.521L222.465 328.942C221.478 329.387 220.51 329.863 219.513 330.286Z" fill="#455A64"/>
<path d="M181.141 318.202C184.615 318.188 195.44 318.822 200.601 314.462C204.776 310.935 206.612 298.893 207.332 295.588C207.367 295.425 207.605 295.48 207.61 295.633C207.721 299.338 207.191 303.113 206.209 306.685C205.371 309.735 204.241 313.14 201.776 315.277C199.183 317.526 195.662 318.316 192.344 318.726C188.598 319.189 184.862 319.078 181.13 318.571C180.901 318.541 180.898 318.203 181.141 318.202Z" fill="#455A64"/>
<path d="M175.055 294.882C172.875 301.834 170.948 308.867 169.343 315.966C167.812 323.015 166.232 330.252 166.519 337.482C167.074 344.701 169.968 351.547 173.066 358.03C178.653 369.435 185.905 380.048 192.954 390.601C193.573 391.671 194.441 392.623 194.75 393.877C194.772 393.906 194.706 394.21 194.613 394.265C194.024 394.777 193.015 394.407 192.345 394.363C185.139 392.974 178.17 390.904 171.124 388.939C158.902 385.514 141.538 380.154 129.234 376.406C141.718 379.85 159.027 384.865 171.331 388.197C177.963 389.877 187.678 392.825 193.918 393.665C193.865 393.701 193.823 393.896 193.831 393.898C193.433 392.968 192.747 392.015 192.174 391.113C182.424 376.423 167.186 355.245 165.753 337.526C165.558 330.161 167.22 322.969 168.869 315.855C170.636 308.776 172.72 301.785 175.055 294.882Z" fill="#455A64"/>
<path d="M70.3945 293.275L25.9717 346.95L118.393 423.441L162.816 369.765L70.3945 293.275Z" fill="#28ED70"/>
<path opacity="0.5" d="M70.3945 293.275L25.9717 346.95L118.393 423.441L162.816 369.765L70.3945 293.275Z" fill="black"/>
<path opacity="0.1" d="M70.3966 293.256L47.6851 320.666L140.059 397.204L162.77 369.794L70.3966 293.256Z" fill="black"/>
<path d="M172.048 363.026L75.3057 282.868L52.7958 310.035L149.538 390.193L172.048 363.026Z" fill="#28ED70"/>
<path opacity="0.5" d="M172.048 363.026L75.3057 282.868L52.7958 310.035L149.538 390.193L172.048 363.026Z" fill="black"/>
<path d="M145.337 324.272L137.164 334.136L132.704 330.44L137.353 324.829L120.344 310.737L115.695 316.348L111.235 312.652L119.407 302.789L145.337 324.272Z" fill="#28ED70"/>
<path opacity="0.1" d="M145.337 324.272L137.164 334.136L132.704 330.44L137.353 324.829L120.344 310.737L115.695 316.348L111.235 312.652L119.407 302.789L145.337 324.272Z" fill="black"/>
<path d="M79.5736 321.3L73.2681 316.075L62.5171 329.05L68.8227 334.275L79.5736 321.3Z" fill="#28ED70"/>
<path d="M139.816 371.178L133.511 365.953L122.76 378.928L129.065 384.153L139.816 371.178Z" fill="#28ED70"/>
<path d="M245.086 306.585L163.079 298.228C163.079 298.228 205.742 235.186 229.269 225.425C239.975 220.983 246.494 225.355 250.224 233.021C251.154 234.935 259.014 266.77 256.877 275.657C254.988 283.511 245.482 288.872 245.482 288.872L245.086 306.585Z" fill="#EBEBEB"/>
<path d="M243.16 247.739L248.183 243.458L250.825 249.66L248.479 254.017L243.797 252.484L243.16 247.739Z" fill="black"/>
<path d="M243.797 252.484L229.394 292.533L237.043 312.492L244.353 293.12L248.479 254.017L243.797 252.484Z" fill="black"/>
<path d="M250.167 232.679C250.167 232.679 252.572 257.869 250.606 263.911C248.495 270.397 241.28 289.113 241.28 289.113C241.28 289.113 234.628 261.887 234.883 253.554C235.28 240.61 240.871 224.145 240.871 224.145C240.871 224.145 234.875 218.894 221.723 229.11C202.005 244.427 175.474 278.249 160.475 298.89L234.221 321.86L238.269 309.245L241.177 318.515L249.938 308.64L245.484 288.872C245.484 288.872 255.837 285.064 257.497 273.9C259.302 261.757 250.167 232.679 250.167 232.679Z" fill="#28ED70"/>
<path d="M241.28 289.113L255.938 267.954L253.467 258.977L258.594 260.186C258.594 260.186 250.759 234.783 250.168 232.68C250.102 233.624 252.563 258.332 250.606 263.912C248.663 269.43 241.908 288.063 241.28 289.113Z" fill="#28ED70"/>
<path opacity="0.2" d="M241.28 289.113L255.938 267.954L253.467 258.977L258.594 260.186C258.594 260.186 250.759 234.783 250.168 232.68C250.102 233.624 252.563 258.332 250.606 263.912C248.663 269.43 241.908 288.063 241.28 289.113Z" fill="black"/>
<path d="M233.064 251.698L226.996 258.894L241.242 289.137C241.182 288.317 234.63 261.753 234.882 253.55C235.275 240.613 240.872 224.145 240.872 224.145L228.313 247.696L233.064 251.698Z" fill="#28ED70"/>
<path opacity="0.2" d="M233.064 251.698L226.996 258.894L241.242 289.137C241.182 288.317 234.63 261.753 234.882 253.55C235.275 240.613 240.872 224.145 240.872 224.145L228.313 247.696L233.064 251.698Z" fill="black"/>
<path d="M241.28 289.112C240.783 295.887 239.779 302.621 238.269 309.245C238.762 302.469 239.773 295.736 241.28 289.112Z" fill="black"/>
<path d="M233.839 296.063C233.441 297.906 236.061 298.466 236.513 296.742C236.951 295.026 234.348 294.258 233.839 296.063ZM233.839 296.063C234.425 293.867 237.749 294.605 237.239 296.927C236.577 299.207 233.305 298.271 233.839 296.063Z" fill="black"/>
<path d="M231.903 305.671C231.505 307.513 234.124 308.075 234.577 306.351C235.016 304.634 232.413 303.866 231.903 305.671ZM231.903 305.671C232.489 303.475 235.813 304.213 235.303 306.535C234.642 308.815 231.37 307.878 231.903 305.671Z" fill="black"/>
<path opacity="0.1" d="M213.344 291.298L195.826 279.202L194.106 281.391L211.765 293.589L213.344 291.298Z" fill="black"/>
<g opacity="0.1">
<path d="M243.708 287.53C240.966 287.356 238.188 287.308 235.398 287.688C234.01 287.877 232.628 288.151 231.24 288.465C230.548 288.621 229.86 288.747 229.168 288.867C228.458 288.991 227.703 289.087 227.013 288.976C226.95 288.966 226.925 289.093 226.986 289.108C227.646 289.271 228.279 289.425 228.963 289.465C229.614 289.504 230.281 289.447 230.942 289.365C232.35 289.191 233.759 288.93 235.168 288.736C238.009 288.346 240.849 287.957 243.676 287.841C243.807 287.836 243.837 287.538 243.708 287.53Z" fill="black"/>
<path d="M245.062 290.124C244.027 289.606 242.94 289.221 241.826 289.042C241.265 288.952 240.691 288.949 240.105 288.986C239.826 289.004 239.544 289.035 239.261 289.074C238.949 289.117 238.619 289.268 238.31 289.3C238.278 289.303 238.25 289.431 238.283 289.43C238.571 289.422 238.837 289.539 239.117 289.575C239.398 289.611 239.68 289.641 239.961 289.677C240.524 289.749 241.082 289.837 241.648 289.894C242.78 290.009 243.901 290.153 245.011 290.372C245.07 290.383 245.116 290.15 245.062 290.124Z" fill="black"/>
</g>
<path d="M240.034 226.863C239.652 228.38 241.58 240.493 247.913 243.394C249.978 244.335 255.617 233.296 255.617 233.296L256.22 232.576L264.647 222.495L255.692 207L254.344 204.865C254.344 204.865 252.22 207.775 249.612 211.425C249.49 211.594 249.368 211.762 249.24 211.945C249.087 212.148 248.94 212.337 248.807 212.533C248.41 213.073 248.008 213.627 247.618 214.187C247.32 214.611 247.028 215.023 246.731 215.48C246.421 215.931 246.131 216.375 245.82 216.826C242.863 221.34 240.205 226.224 240.034 226.863Z" fill="#D3766A"/>
<path d="M249.613 211.426C248.199 222.18 253.536 229.615 256.221 232.577L264.648 222.496L255.693 207.001L254.345 204.866C254.345 204.866 252.221 207.776 249.613 211.426Z" fill="black"/>
<path d="M282.457 196.859C289.488 218.821 277.128 225.513 272.39 227.024C268.09 228.396 253.272 232.519 244.008 211.401C234.745 190.283 242.733 180.071 252.403 176.413C262.075 172.756 275.426 174.897 282.457 196.859Z" fill="#D3766A"/>
<path d="M278.205 193.138C277.67 193.243 277.159 193.25 276.619 193.298C276.01 193.353 275.53 193.459 274.971 193.153C274.671 192.989 274.536 192.504 274.668 192.198C274.976 191.484 275.705 191.231 276.436 191.135C277.229 191.031 277.866 191.154 278.546 191.573C279.203 191.98 278.911 193 278.205 193.138Z" fill="black"/>
<path d="M264.243 200.174C264.774 200.048 265.242 199.844 265.754 199.666C266.332 199.465 266.812 199.364 267.196 198.854C267.402 198.581 267.324 198.084 267.078 197.859C266.504 197.335 265.735 197.405 265.03 197.619C264.265 197.851 263.734 198.226 263.288 198.888C262.856 199.529 263.543 200.339 264.243 200.174Z" fill="black"/>
<path d="M268.473 201.738C268.445 201.684 268.376 201.844 268.396 201.905C268.882 203.399 269.188 205.193 267.968 206.091C267.93 206.119 267.956 206.194 268.005 206.172C269.603 205.454 269.173 203.077 268.473 201.738Z" fill="black"/>
<path d="M266.668 200.555C264.188 201.076 265.413 205.998 267.711 205.515C269.971 205.04 268.747 200.117 266.668 200.555Z" fill="black"/>
<path d="M265.766 201.055C265.405 201.441 265.107 202.037 264.601 202.217C264.016 202.426 263.435 202.023 262.92 201.625C262.866 201.584 262.835 201.637 262.85 201.702C263.071 202.649 263.674 203.526 264.72 203.415C265.674 203.314 266.129 202.314 266.128 201.307C266.128 201.121 265.911 200.9 265.766 201.055Z" fill="black"/>
<path d="M276.895 199.241C276.89 199.18 277.034 199.278 277.05 199.34C277.444 200.861 278.152 202.538 279.662 202.639C279.709 202.642 279.727 202.719 279.674 202.727C277.942 202.981 277.025 200.746 276.895 199.241Z" fill="black"/>
<path d="M277.781 197.272C280.152 196.377 281.768 201.185 279.571 202.014C277.409 202.83 275.793 198.022 277.781 197.272Z" fill="black"/>
<path d="M278.89 197.251C279.355 197.378 279.887 197.715 280.351 197.592C280.888 197.45 281.103 196.799 281.271 196.188C281.289 196.124 281.34 196.152 281.363 196.216C281.697 197.126 281.715 198.185 280.891 198.658C280.14 199.09 279.283 198.5 278.757 197.658C278.659 197.502 278.702 197.2 278.89 197.251Z" fill="black"/>
<path d="M271.242 213.871C271.659 214.192 272.092 214.65 272.664 214.63C273.213 214.61 273.819 214.289 274.294 214.037C274.341 214.012 274.397 214.058 274.371 214.109C274.038 214.756 273.23 215.233 272.492 215.194C271.771 215.155 271.348 214.586 271.1 213.961C271.065 213.872 271.181 213.824 271.242 213.871Z" fill="black"/>
<path d="M276.714 207.126C276.714 207.126 277.444 209.379 277.639 210.47C277.657 210.572 277.402 210.667 277.036 210.755C277.019 210.764 277.011 210.773 276.994 210.764C275.123 211.407 273.067 211.088 271.617 209.725C271.523 209.632 271.641 209.495 271.752 209.545C273.377 210.344 275.013 210.333 276.724 210.058C276.747 209.743 275.343 206.241 275.514 206.197C276.1 206.04 277.346 206.236 278.088 206.317C276.702 201.579 274.567 197.101 273.258 192.362C273.214 192.192 273.452 192.097 273.53 192.241C276.099 196.776 277.814 202.193 279.372 207.05C279.572 207.653 277.183 207.234 276.714 207.126Z" fill="black"/>
<path d="M244.976 212.602C248.765 211.896 247.535 203.884 247.535 203.884C247.535 203.884 255.085 201.888 254.671 190.374C254.671 190.374 255.859 195.467 253.732 200.238C253.732 200.238 266.656 195.269 269.279 182.639C269.279 182.639 268.562 188.907 267.006 191.484C267.006 191.484 272.169 188.435 273.677 183.177C273.677 183.177 277.937 189.126 280.205 190.421C280.205 190.421 277.347 162.839 252.317 175.391C252.317 175.391 238.572 177.845 236.583 189.829C234.595 201.812 244.976 212.602 244.976 212.602Z" fill="black"/>
<path d="M249.65 208.828C249.65 208.828 243.439 202.618 240.536 204.955C237.633 207.292 243.179 216.906 247.203 217.643C251.228 218.38 251.983 214.668 251.983 214.668L249.65 208.828Z" fill="#D3766A"/>
<path d="M242.193 207.67C242.132 207.676 242.135 207.763 242.191 207.775C245.028 208.379 246.856 210.587 248.284 212.959C247.323 212.119 246.156 211.772 245.009 212.941C244.949 213.002 245.034 213.099 245.106 213.07C246.149 212.646 246.965 212.695 247.851 213.434C248.479 213.957 248.971 214.672 249.468 215.316C249.634 215.531 250.039 215.328 249.9 215.072C249.89 215.053 249.878 215.034 249.867 215.015C249.338 211.627 245.878 207.369 242.193 207.67Z" fill="black"/>
<path d="M250.939 217.874C251.07 218.935 250.316 219.9 249.255 220.031C248.195 220.162 247.229 219.408 247.098 218.347C246.967 217.286 247.721 216.321 248.782 216.19C249.843 216.06 250.809 216.813 250.939 217.874Z" fill="#28ED70"/>
<path d="M256.206 232.786L248.579 241.033L241.178 224.093L236.24 226.739C236.24 226.739 240.609 250.832 241.021 249.976L248.237 243.113L251.803 251.164L256.926 236.322L256.206 232.786Z" fill="#EBEBEB"/>
<path d="M254.751 243.971C255.515 241.493 256.353 239.017 257.001 236.506C257.024 236.417 256.905 236.327 256.845 236.42C255.47 238.57 252.599 248.065 251.743 250.277C251.738 250.266 251.732 250.253 251.727 250.242C251.581 249.897 248.317 243.054 248.237 243.113C246.858 244.114 241.58 249.103 241.166 249.582C240.481 245.758 237.618 231.716 236.524 227.93C236.493 227.821 236.335 227.841 236.347 227.959C236.748 231.873 240.435 250.719 240.598 250.732C240.668 250.847 247.201 244.714 248.181 243.458C248.643 244.854 251.716 252.342 251.87 251.989C252.916 249.61 253.986 246.452 254.751 243.971Z" fill="black"/>
<path d="M225.037 220.096C188.945 211.672 158.043 209.13 149.91 217.035C138.969 227.669 126.674 261.124 125.333 276.699C124.859 282.2 163.566 294.67 164.96 288.934C166.645 282.002 174.786 245.999 175.155 245.385C175.947 244.07 212.247 236.677 222.295 234.979C239.073 232.143 241.056 223.835 225.037 220.096Z" fill="#D3766A"/>
<path d="M145.489 327.51C141.099 327.418 139.825 323.053 139.825 323.053C139.825 323.053 136.866 324.935 133.569 324.247C129.793 323.459 129.372 317.192 129.372 317.192C129.372 317.192 125.983 318.476 122.573 317.399C119.034 316.282 117.708 310.018 117.708 310.018C117.708 310.018 113.894 309.479 111.614 306.434C107.716 301.228 111.304 291.966 113.524 286.055C115.744 280.144 127.58 265.457 129.551 262.431L167.612 276.357C167.612 276.357 165.196 305.697 161.598 312.276C158.566 317.818 150.417 327.614 145.489 327.51Z" fill="#D3766A"/>
<path d="M140.534 323.014C145.17 317.894 148.04 311.683 151.257 305.645C151.328 305.511 151.117 305.4 151.047 305.536C147.918 311.578 143.629 316.92 140.265 322.825C140.172 322.988 140.409 323.153 140.534 323.014Z" fill="black"/>
<path d="M129.915 317.253C130.928 316.063 131.547 314.542 132.207 313.14C132.918 311.63 133.6 310.109 134.261 308.576C135.583 305.507 136.835 302.409 137.994 299.276C138.045 299.137 137.846 299.024 137.784 299.167C136.461 302.223 135.093 305.258 133.643 308.256C132.917 309.756 132.179 311.25 131.43 312.739C130.734 314.124 129.884 315.527 129.509 317.042C129.455 317.264 129.762 317.432 129.915 317.253Z" fill="black"/>
<path d="M117.767 309.891C118.69 308.893 119.128 307.321 119.633 306.078C120.206 304.668 120.787 303.26 121.376 301.856C122.553 299.048 123.732 296.241 125.006 293.476C125.069 293.339 124.861 293.228 124.796 293.367C123.487 296.17 122.14 298.954 120.855 301.768C120.224 303.15 119.601 304.535 118.986 305.924C118.462 307.105 117.674 308.521 117.624 309.837C117.621 309.911 117.721 309.941 117.767 309.891Z" fill="black"/>
<path d="M171.57 263.677L129.583 247.817C129.583 247.817 143.018 219.424 152.233 214.966C161.448 210.508 195.758 212.501 220.85 218.492C242.607 223.687 241.759 232.194 216.39 237.193C190.67 242.261 176.675 245.686 176.411 246.353C176.148 247.02 171.57 263.677 171.57 263.677Z" fill="#28ED70"/>
<path d="M172.195 253.444C172.33 253.486 172.408 253.268 172.279 253.21C160.684 247.957 148.676 243.517 136.583 239.561C136.449 239.517 136.37 239.738 136.499 239.795C148.146 244.918 160.055 249.619 172.195 253.444Z" fill="black"/>
<path d="M171.569 263.677C172.704 259.335 175.022 250.623 176.207 246.296L176.239 246.178L176.36 246.148C190.058 242.742 203.823 239.597 217.689 236.954C207.397 239.304 186.728 244.117 176.461 246.558L176.614 246.41C175.387 250.718 172.848 259.384 171.569 263.677Z" fill="black"/>
</g>
<defs>
<clipPath id="clip0_55_5532">
<rect width="500" height="500" fill="white"/>
</clipPath>
</defs>
</svg>
