<svg width="612" height="412" viewBox="0 0 612 412" fill="none" xmlns="http://www.w3.org/2000/svg">
<path d="M112.546 408.222C140.395 389.633 147.194 354.463 146.599 322.749C146.499 317.453 147.174 311.884 144.696 307.204C142.217 302.523 136.317 299.262 131.482 301.42C127.473 303.209 125.665 307.755 123.379 311.502C120.338 316.487 115.858 320.584 110.622 323.167C107.18 324.865 102.94 325.87 99.5978 323.985C95.0118 321.397 94.5648 315.085 94.6808 309.82C94.8958 300.014 95.1098 290.207 95.3248 280.4C95.4398 275.138 95.5408 269.766 93.9588 264.745C92.3778 259.726 88.7878 255.031 83.7358 253.553C78.6848 252.076 72.3658 254.869 71.2158 260.003C70.7368 262.141 71.1448 264.372 70.9628 266.554C70.7808 268.735 69.7108 271.138 67.5988 271.717C65.4618 272.301 63.3518 270.776 61.7808 269.214C56.3598 263.817 52.7318 256.917 49.3478 250.057C45.9628 243.198 42.6838 236.18 37.7808 230.309C32.8778 224.439 26.0398 219.743 18.4118 219.202C10.7818 218.661 2.57277 223.192 0.527773 230.563C-1.52323 237.952 2.74678 245.545 7.42578 251.622C14.3658 260.639 22.6198 268.643 31.8438 275.306C33.5068 276.508 35.3088 277.809 35.9218 279.767C37.0238 283.291 33.6008 286.728 30.0748 287.829C26.0788 289.074 21.7728 288.603 17.6078 289.025C13.4418 289.447 8.90877 291.188 7.27477 295.042C5.00877 300.391 9.47878 306.095 13.9058 309.855C22.7718 317.383 32.9378 323.379 43.8158 327.497C47.7168 328.974 51.8238 330.277 54.9448 333.044C58.0658 335.813 59.9008 340.569 57.9338 344.247C55.9638 347.93 51.0398 349.043 46.9428 348.229C42.8458 347.417 39.2028 345.16 35.3098 343.643C28.0238 340.804 18.5538 341.162 13.7628 347.341C10.6138 351.403 10.2538 357.121 11.7378 362.041C13.2208 366.962 16.3188 371.227 19.6178 375.167C31.1508 388.942 46.0158 400.115 62.9238 406.186C79.8318 412.257 95.5578 414.066 112.546 408.222Z" fill="#EBEBEB"/>
<path d="M104.483 388.248C100.001 372.186 93.6098 354.981 86.3028 337.207C84.4588 332.772 82.6368 328.389 80.8408 324.068C79.0398 319.758 77.2548 315.489 75.2458 311.417C71.2648 303.256 66.8078 295.709 62.3498 288.673C57.8918 281.634 53.4018 275.114 49.1588 269.045C44.9028 262.985 40.8278 257.41 36.8938 252.484C29.0558 242.601 21.7958 235.382 16.6078 230.623C14.0168 228.234 11.9478 226.445 10.5298 225.248C9.8398 224.673 9.30179 224.225 8.91079 223.898C8.54279 223.597 8.3418 223.459 8.3418 223.459C8.3418 223.459 8.5078 223.639 8.8578 223.96C9.2368 224.3 9.7578 224.769 10.4268 225.369C11.8078 226.605 13.8438 228.429 16.3978 230.849C21.5138 235.673 28.6928 242.931 36.4538 252.833C40.3508 257.768 44.3908 263.353 48.6198 269.423C52.8348 275.504 57.2988 282.03 61.7308 289.066C66.1638 296.096 70.5938 303.629 74.5468 311.758C76.5408 315.814 78.3108 320.054 80.1128 324.374C81.9078 328.693 83.7268 333.074 85.5688 337.508C92.8708 355.27 99.2698 372.434 103.779 388.447" fill="#E0E0E0"/>
<path d="M75.0479 311.336C75.1019 311.346 75.2849 310.546 75.5689 309.093C75.8599 307.641 76.2179 305.528 76.6249 302.914C77.4449 297.683 78.3379 290.424 79.3039 282.416C80.2689 274.404 81.2869 267.177 82.2179 261.978C82.6749 259.376 83.0719 257.274 83.3669 255.827C83.6529 254.378 83.7879 253.569 83.7339 253.555C83.6809 253.542 83.4459 254.327 83.0659 255.758C82.6769 257.188 82.1959 259.278 81.6669 261.874C80.5899 267.062 79.4809 274.302 78.5149 282.321C77.5689 290.26 76.7129 297.444 76.0699 302.837C75.7449 305.347 75.4729 307.434 75.2639 309.046C75.0729 310.511 74.9939 311.327 75.0479 311.336Z" fill="#E0E0E0"/>
<path d="M6.68946 297.668C6.68846 297.696 6.93145 297.737 7.39345 297.793C7.95045 297.849 8.61746 297.917 9.42046 297.997C11.1795 298.165 13.7235 298.404 16.8585 298.803C23.1285 299.548 31.7565 300.892 41.2045 302.794C50.6535 304.715 59.1255 306.822 65.2075 308.531C68.2545 309.364 70.7005 310.107 72.3945 310.613C73.1675 310.84 73.8125 311.03 74.3485 311.187C74.7985 311.31 75.0385 311.362 75.0485 311.336C75.0565 311.31 74.8335 311.208 74.4005 311.035C73.8775 310.84 73.2485 310.602 72.4915 310.32C70.8265 309.723 68.3995 308.896 65.3655 307.991C59.3105 306.141 50.8335 303.941 41.3625 302.016C31.8925 300.108 23.2255 298.849 16.9205 298.245C13.7715 297.918 11.2125 297.763 9.44345 297.689C8.63545 297.667 7.96446 297.648 7.40446 297.633C6.93746 297.63 6.69046 297.64 6.68946 297.668Z" fill="#E0E0E0"/>
<path d="M103.741 386.968C103.766 386.98 103.925 386.695 104.206 386.143C104.517 385.509 104.913 384.702 105.403 383.706C106.434 381.587 107.852 378.484 109.555 374.629C112.968 366.922 117.353 356.134 122.041 344.167C126.732 332.197 131.03 321.388 134.306 313.632C135.93 309.83 137.258 306.721 138.223 304.461C138.657 303.44 139.007 302.613 139.282 301.965C139.517 301.39 139.628 301.082 139.603 301.071C139.578 301.06 139.418 301.344 139.137 301.898C138.827 302.531 138.431 303.338 137.942 304.334C136.91 306.453 135.495 309.556 133.792 313.411C130.378 321.118 125.992 331.906 121.303 343.878C116.614 355.844 112.315 366.652 109.039 374.409C107.415 378.209 106.087 381.32 105.122 383.58C104.688 384.601 104.338 385.428 104.063 386.078C103.827 386.649 103.716 386.957 103.741 386.968Z" fill="#E0E0E0"/>
<path d="M13.0929 356.63C13.0859 356.655 13.3969 356.781 13.9959 356.995C14.6789 357.227 15.5539 357.525 16.6339 357.892C19.0239 358.689 22.3199 359.787 26.3509 361.13C34.5499 363.873 45.8309 367.802 58.2829 372.173C70.7399 376.544 82.0579 380.393 90.3089 383.002C94.4349 384.309 97.7809 385.334 100.107 386C101.207 386.31 102.096 386.561 102.789 386.756C103.406 386.92 103.732 386.993 103.741 386.966C103.75 386.94 103.437 386.815 102.836 386.601C102.154 386.369 101.281 386.071 100.199 385.704C97.8099 384.907 94.5149 383.81 90.4829 382.467C82.2819 379.724 71.0009 375.792 58.5449 371.421C46.0929 367.051 34.7749 363.202 26.5249 360.594C22.3989 359.288 19.0519 358.262 16.7249 357.596C15.6259 357.286 14.7369 357.036 14.0429 356.84C13.4279 356.677 13.1019 356.604 13.0929 356.63Z" fill="#E0E0E0"/>
<path d="M540.931 204.433L508.528 286.844L630.794 334.917L663.197 252.506L540.931 204.433Z" fill="#EBEBEB"/>
<path d="M663.239 253.64C663.252 253.679 662.711 253.901 661.669 254.289C660.515 254.704 658.993 255.25 657.092 255.933C652.976 257.354 647.229 259.339 640.173 261.777C625.734 266.642 605.969 273.302 584.077 280.678L583.615 280.834L583.371 280.41C583.185 280.087 582.983 279.737 582.781 279.386C571.177 259.094 560.677 240.732 552.999 227.306C549.286 220.698 546.259 215.312 544.093 211.456C543.109 209.653 542.321 208.21 541.724 207.117C541.194 206.118 540.933 205.584 540.968 205.563C541.004 205.543 541.335 206.037 541.932 206.997C542.578 208.062 543.43 209.468 544.495 211.225C546.742 215.035 549.88 220.357 553.73 226.886C561.485 240.267 572.093 258.568 583.815 278.792C584.017 279.143 584.219 279.493 584.404 279.816L583.699 279.548C605.635 272.303 625.439 265.762 639.907 260.984C647.013 258.696 652.801 256.833 656.946 255.498C658.877 254.903 660.422 254.426 661.593 254.065C662.661 253.748 663.226 253.601 663.239 253.64Z" fill="#E0E0E0"/>
<path d="M508.562 287.977C508.405 287.687 522.042 280.006 539.017 270.821C555.998 261.634 569.886 254.424 570.042 254.713C570.199 255.002 556.565 262.683 539.584 271.87C522.61 281.054 508.719 288.266 508.562 287.977Z" fill="#E0E0E0"/>
<path d="M611.091 269.665C611.407 269.571 616.082 284.358 621.533 302.689C626.986 321.026 631.148 335.961 630.833 336.055C630.517 336.149 625.842 321.366 620.39 303.029C614.939 284.698 610.775 269.759 611.091 269.665Z" fill="#E0E0E0"/>
<path d="M631.886 97.7944L559.834 129.176L580.986 177.741L653.038 146.36L631.886 97.7944Z" fill="#EBEBEB"/>
<path d="M632.385 98.2776C632.407 98.2886 632.272 98.6116 631.996 99.2166C631.683 99.8806 631.271 100.755 630.755 101.849C629.615 104.191 628.024 107.462 626.07 111.477C622.02 119.642 616.477 130.819 610.338 143.199L610.209 143.46L609.926 143.384C609.711 143.326 609.477 143.263 609.243 143.2C595.752 139.525 583.544 136.2 574.617 133.768C570.252 132.543 566.693 131.545 564.146 130.831C562.967 130.485 562.023 130.208 561.308 129.998C560.661 129.8 560.325 129.684 560.331 129.661C560.337 129.637 560.686 129.706 561.345 129.86C562.069 130.037 563.024 130.271 564.217 130.564C566.779 131.225 570.357 132.149 574.748 133.282C583.688 135.661 595.916 138.916 609.428 142.512C609.662 142.575 609.895 142.638 610.11 142.696L609.698 142.881C615.912 130.538 621.522 119.395 625.62 111.254C627.658 107.281 629.318 104.044 630.507 101.727C631.072 100.659 631.524 99.8036 631.866 99.1546C632.186 98.5686 632.363 98.2666 632.385 98.2776Z" fill="#E0E0E0"/>
<path d="M581.484 178.227C581.295 178.171 583.814 169.153 587.109 158.089C590.406 147.021 593.23 138.097 593.419 138.153C593.608 138.209 591.089 147.224 587.793 158.293C584.498 169.358 581.672 178.284 581.484 178.227Z" fill="#E0E0E0"/>
<path d="M650.775 408.67C650.775 408.814 506.205 408.93 327.909 408.93C149.552 408.93 5.01172 408.813 5.01172 408.67C5.01172 408.527 149.551 408.41 327.909 408.41C506.205 408.409 650.775 408.526 650.775 408.67Z" fill="#263238"/>
<path d="M534.666 404.705H121.214C113.169 404.705 106.647 398.183 106.647 390.138V126.594C106.647 118.549 113.169 112.027 121.214 112.027H534.667C542.712 112.027 549.234 118.549 549.234 126.594V390.138C549.234 398.183 542.712 404.705 534.666 404.705Z" fill="#263238"/>
<path d="M549.851 408.668H105.937C96.1077 408.668 88.1387 400.7 88.1387 390.87V383.059H567.649V390.87C567.649 400.699 559.68 408.668 549.851 408.668Z" fill="#263238"/>
<path d="M536.116 123.656H118.527V370.819H536.116V123.656Z" fill="#455A64"/>
<path d="M284.311 383.059L290.261 392.523H373.99L379.515 383.059H284.311Z" fill="#455A64"/>
<path d="M525.102 370.026H130.402C128.594 370.026 127.129 368.56 127.129 366.753V135.294C127.129 133.486 128.594 132.021 130.402 132.021H525.103C526.91 132.021 528.376 133.486 528.376 135.293V366.752C528.375 368.56 526.91 370.026 525.102 370.026Z" fill="#EBEBEB"/>
<path d="M528.375 149.461H127.129V370.027H528.375V149.461Z" fill="#EBEBEB"/>
<path d="M160.037 141.214C160.037 142.984 158.602 144.419 156.832 144.419C155.062 144.419 153.628 142.984 153.628 141.214C153.628 139.444 155.062 138.01 156.832 138.01C158.602 138.01 160.037 139.444 160.037 141.214Z" fill="#455A64"/>
<path d="M140.616 141.214C140.616 142.984 139.182 144.419 137.411 144.419C135.642 144.419 134.207 142.984 134.207 141.214C134.207 139.444 135.642 138.01 137.411 138.01C139.181 138.01 140.616 139.444 140.616 141.214Z" fill="#455A64"/>
<path d="M149.938 141.214C149.938 142.984 148.504 144.419 146.733 144.419C144.963 144.419 143.528 142.984 143.528 141.214C143.528 139.444 144.963 138.01 146.733 138.01C148.504 138.01 149.938 139.444 149.938 141.214Z" fill="#455A64"/>
<path d="M545.432 383.058C545.432 383.217 447.198 383.345 326.049 383.345C204.858 383.345 106.646 383.217 106.646 383.058C106.646 382.9 204.858 382.771 326.049 382.771C447.198 382.771 545.432 382.899 545.432 383.058Z" fill="#455A64"/>
<path d="M106.554 386.283C106.549 386.291 106.435 386.222 106.215 386.079C105.99 385.929 105.665 385.713 105.237 385.429C104.805 385.136 104.271 384.774 103.636 384.343C103.002 383.907 102.249 383.423 101.469 382.775C100.673 382.146 99.7835 381.443 98.8025 380.668C97.8285 379.882 96.8484 378.924 95.7394 377.939C93.5614 375.927 91.2115 373.428 88.7705 370.444C83.9435 364.452 79.0135 356.219 75.6035 345.785C72.2605 335.363 70.4155 322.784 71.4545 309.012C71.9835 302.14 73.0915 294.958 75.1885 287.718C77.2515 280.481 80.1685 273.123 84.4245 266.183C85.4725 264.44 86.6555 262.759 87.8825 261.094C89.1785 259.487 90.4845 257.867 91.8015 256.235C93.1945 254.668 94.6455 253.13 96.0815 251.558C97.5515 250.019 99.1425 248.575 100.685 247.062C107.028 241.187 114.165 235.832 121.815 230.891C137.13 220.983 154.445 212.784 172.268 204.244C190.035 195.541 208.76 187.193 227.959 178.751C304.852 145.076 375.225 116.387 426.488 96.4683C452.103 86.4643 473.013 78.8393 487.474 73.6113C494.718 71.0343 500.372 69.1143 504.197 67.7893C506.108 67.1393 507.567 66.6433 508.556 66.3063C509.044 66.1463 509.414 66.0253 509.671 65.9413C509.921 65.8623 510.05 65.8263 510.053 65.8353C510.056 65.8433 509.934 65.8963 509.689 65.9923C509.436 66.0883 509.071 66.2263 508.591 66.4073C507.609 66.7663 506.162 67.2953 504.266 67.9873C500.451 69.3633 494.838 71.3873 487.612 73.9923C473.196 79.3363 452.332 87.0643 426.756 97.1543C375.573 117.244 305.254 146.037 228.378 179.704C209.176 188.147 190.478 196.474 172.709 205.163C154.874 213.692 137.592 221.857 122.335 231.696C114.714 236.602 107.614 241.914 101.307 247.733C99.7745 249.232 98.1925 250.661 96.7305 252.185C95.3035 253.741 93.8604 255.264 92.4764 256.815C91.1674 258.431 89.8695 260.034 88.5815 261.624C87.3665 263.264 86.1985 264.916 85.1585 266.636C80.9395 273.479 78.0265 280.766 75.9595 287.939C73.8585 295.116 72.7365 302.245 72.1875 309.067C71.1085 322.741 72.8895 335.24 76.1565 345.608C79.4915 355.987 84.3344 364.194 89.0864 370.192C91.4894 373.179 93.8055 375.687 95.9515 377.715C97.0445 378.707 98.0105 379.674 98.9695 380.47C99.9365 381.257 100.812 381.971 101.596 382.609C102.364 383.269 103.104 383.765 103.727 384.214C104.349 384.661 104.872 385.037 105.296 385.341C105.71 385.644 106.025 385.875 106.243 386.035C106.454 386.192 106.558 386.276 106.554 386.283Z" fill="#263238"/>
<path d="M493.246 32.9041L511.761 48.2551L510.052 65.8361L525.221 57.4021L541.379 68.8801L601.606 30.2031L493.246 32.9041Z" fill="#00C5FF"/>
<g opacity="0.5">
<path d="M511.761 48.2542L599.973 30.2422L520.743 54.2212L510.052 65.8352L511.761 48.2542Z" fill="black"/>
</g>
<g opacity="0.8">
<path d="M520.743 54.2227L525.221 57.4027L510.052 65.8367L520.743 54.2227Z" fill="black"/>
</g>
<path d="M243.301 264.058L147.103 273.18L153.251 338.021L249.449 328.898L243.301 264.058Z" fill="white"/>
<path d="M249.473 328.898C249.473 328.898 249.407 328.479 249.32 327.698C249.233 326.882 249.111 325.737 248.953 324.259C248.643 321.218 248.194 316.817 247.622 311.199C246.507 299.919 244.909 283.764 242.964 264.09L243.355 264.413C216.799 266.957 183.38 270.159 147.171 273.628C147.075 273.733 147.928 272.705 147.568 273.149L147.57 273.166L147.573 273.2L147.579 273.268L147.592 273.403L147.618 273.674L147.669 274.215L147.771 275.296L147.976 277.453C148.112 278.889 148.247 280.32 148.383 281.745C148.653 284.597 148.921 287.429 149.187 290.239C149.718 295.859 150.24 301.391 150.752 306.818C151.772 317.671 152.752 328.105 153.681 337.986L153.234 337.616C181.515 335.016 205.513 332.81 222.485 331.25C230.959 330.493 237.677 329.894 242.32 329.479C244.602 329.284 246.373 329.133 247.615 329.027C248.195 328.982 248.646 328.947 248.991 328.921C249.301 328.898 249.464 328.891 249.473 328.898C249.482 328.905 249.336 328.927 249.042 328.963C248.71 329.001 248.275 329.05 247.717 329.113C246.497 329.241 244.756 329.422 242.513 329.657C237.896 330.121 231.217 330.792 222.791 331.639C205.763 333.304 181.685 335.659 153.311 338.434L152.902 338.474L152.863 338.064C151.917 328.185 150.918 317.753 149.879 306.902C149.362 301.475 148.835 295.944 148.299 290.324C148.032 287.514 147.762 284.682 147.491 281.831C147.356 280.405 147.22 278.974 147.083 277.539L146.878 275.382L146.775 274.301L146.724 273.76L146.698 273.489L146.685 273.354L146.678 273.286L146.675 273.252L146.674 273.235C146.311 273.665 147.165 272.628 147.085 272.736C183.301 269.334 216.726 266.195 243.286 263.7L243.645 263.666L243.678 264.023C245.476 283.805 246.952 300.048 247.982 311.39C248.473 316.981 248.857 321.361 249.123 324.387C249.244 325.839 249.337 326.965 249.403 327.767C249.464 328.525 249.473 328.898 249.473 328.898Z" fill="#455A64"/>
<path d="M243.323 264.056C243.345 264.076 243.088 264.405 242.578 265.015C242.004 265.683 241.251 266.561 240.311 267.656C238.247 270 235.368 273.27 231.828 277.29C224.53 285.451 214.521 296.644 203.368 309.116L203.115 309.399L202.794 309.194C201.982 308.677 201.11 308.121 200.232 307.562C185.561 298.151 172.285 289.635 162.576 283.407C157.843 280.32 153.984 277.803 151.22 276C149.948 275.148 148.93 274.466 148.157 273.948C147.462 273.471 147.105 273.207 147.122 273.181C147.139 273.155 147.528 273.367 148.254 273.795C149.049 274.277 150.098 274.912 151.408 275.705C154.209 277.449 158.12 279.884 162.917 282.871C172.662 289.042 185.988 297.48 200.714 306.804C201.591 307.363 202.464 307.92 203.275 308.437L202.701 308.515C213.935 296.115 224.016 284.988 231.366 276.874C234.993 272.931 237.943 269.725 240.057 267.427C241.047 266.377 241.841 265.537 242.445 264.896C243 264.326 243.3 264.036 243.323 264.056Z" fill="#455A64"/>
<path d="M446.701 170.397L433.701 216.389L501.934 235.675L514.934 189.684L446.701 170.397Z" fill="white"/>
<path d="M501.925 235.67C501.925 235.67 501.991 235.366 502.139 234.809C502.296 234.228 502.516 233.412 502.801 232.359C503.396 230.197 504.257 227.066 505.356 223.071C507.586 215.058 510.78 203.583 514.67 189.607L514.852 189.932C496.01 184.625 472.299 177.947 446.607 170.712C446.514 170.758 447.37 170.282 447.006 170.49L447.003 170.502L446.996 170.526L446.982 170.574L446.955 170.67L446.901 170.862L446.792 171.246L446.575 172.013L446.143 173.543C445.855 174.561 445.568 175.576 445.282 176.587C444.71 178.61 444.142 180.618 443.578 182.611C442.45 186.596 441.339 190.519 440.249 194.368C438.067 202.063 435.968 209.461 433.982 216.467L433.774 216.095C453.811 221.821 470.813 226.68 482.838 230.117C488.836 231.848 493.591 233.221 496.877 234.169C498.49 234.641 499.742 235.008 500.619 235.265C501.028 235.388 501.346 235.484 501.588 235.557C501.807 235.624 501.921 235.662 501.925 235.67C501.929 235.677 501.824 235.654 501.613 235.6C501.376 235.538 501.066 235.456 500.667 235.351C499.798 235.114 498.56 234.777 496.963 234.342C493.682 233.434 488.934 232.121 482.946 230.464C470.855 227.084 453.759 222.306 433.611 216.675L433.321 216.594L433.403 216.303C435.377 209.294 437.462 201.892 439.631 194.193C440.717 190.343 441.825 186.419 442.949 182.433C443.512 180.44 444.079 178.431 444.65 176.408C444.936 175.397 445.223 174.382 445.51 173.363L445.942 171.833L446.159 171.066L446.267 170.682L446.321 170.49L446.348 170.394L446.361 170.346L446.368 170.322L446.371 170.31C446.009 170.508 446.868 170.025 446.785 170.078C472.463 177.361 496.162 184.083 514.994 189.425L515.249 189.497L515.176 189.75C511.156 203.76 507.856 215.264 505.551 223.296C504.403 227.251 503.504 230.35 502.882 232.49C502.579 233.516 502.344 234.31 502.177 234.877C502.017 235.412 501.925 235.67 501.925 235.67Z" fill="#455A64"/>
<path d="M514.925 189.678C514.935 189.698 514.672 189.855 514.161 190.136C513.591 190.441 512.843 190.841 511.909 191.341C509.875 192.397 507.038 193.87 503.549 195.681C496.391 199.328 486.574 204.328 475.634 209.901L475.386 210.027L475.22 209.802C474.802 209.233 474.353 208.621 473.901 208.006C466.362 197.675 459.539 188.326 454.55 181.489C452.131 178.121 450.159 175.375 448.747 173.409C448.103 172.488 447.587 171.752 447.196 171.192C446.847 170.681 446.673 170.406 446.691 170.393C446.709 170.379 446.919 170.628 447.303 171.114C447.719 171.655 448.268 172.367 448.953 173.258C450.407 175.194 452.436 177.898 454.925 181.214C459.954 188.021 466.831 197.33 474.431 207.617C474.883 208.232 475.332 208.844 475.75 209.414L475.337 209.315C486.313 203.813 496.162 198.876 503.344 195.276C506.871 193.541 509.74 192.131 511.797 191.12C512.753 190.665 513.519 190.3 514.103 190.022C514.632 189.777 514.915 189.659 514.925 189.678Z" fill="#455A64"/>
<path d="M155.058 159.418C155.058 159.418 159.763 155.608 167.054 167.038C174.345 178.468 177.338 185.178 177.338 185.178C177.338 185.178 179.201 187.54 180.772 185.726C182.343 183.912 184.261 179.011 187.284 179.568C190.419 180.145 191.753 183.452 191.656 188.511C191.558 193.57 191.752 204.662 191.773 205.664C191.794 206.649 192.493 208.034 193.761 206.97C195.029 205.906 202.003 196.445 206.293 200.023C210.584 203.601 207.996 217.649 207.743 219.191C207.49 220.732 207.846 221.346 208.595 221.648C209.345 221.951 211.389 218.55 213.482 215.941C215.576 213.332 218.46 210.673 220.763 212.944C223.066 215.215 224.719 225.409 216.569 243.014L212.259 250.924L203.218 251.295C183.822 250.91 175.382 244.96 174.349 241.895C173.315 238.83 176.969 237.401 180.232 236.662C183.495 235.923 187.447 235.575 187.503 234.768C187.559 233.961 187.164 233.373 185.667 232.926C184.17 232.479 170.408 228.652 169.071 223.227C167.734 217.803 179.293 215.677 180.805 215.003C182.317 214.329 181.378 213.094 180.502 212.644C179.61 212.186 169.723 207.154 165.133 205.026C160.542 202.898 158.153 200.25 159.008 197.179C159.832 194.218 165.077 194.64 167.396 194.022C169.715 193.404 168.407 190.694 168.407 190.694C168.407 190.694 163.686 185.065 156.604 173.504C149.522 161.943 155.158 159.345 155.158 159.345" fill="#00C5FF"/>
<path d="M161.604 169.645C161.604 169.645 161.645 169.733 161.739 169.895C161.841 170.068 161.981 170.307 162.162 170.614C162.547 171.255 163.102 172.178 163.814 173.362C165.251 175.747 167.357 179.182 169.975 183.417C175.208 191.888 182.537 203.529 190.673 216.358C198.812 229.191 206.168 240.814 211.447 249.255C214.077 253.47 216.208 256.884 217.689 259.257C218.422 260.428 218.993 261.341 219.389 261.975C219.581 262.275 219.731 262.509 219.839 262.678C219.942 262.835 220 262.912 220 262.912C220 262.912 219.959 262.825 219.865 262.662C219.763 262.489 219.624 262.251 219.443 261.944C219.058 261.304 218.503 260.38 217.792 259.196C216.355 256.811 214.25 253.376 211.632 249.142C206.399 240.671 199.069 229.029 190.931 216.196C182.795 203.367 175.44 191.746 170.16 183.305C167.53 179.09 165.398 175.676 163.916 173.302C163.183 172.131 162.612 171.217 162.215 170.584C162.023 170.284 161.874 170.05 161.766 169.881C161.663 169.722 161.604 169.645 161.604 169.645Z" fill="#263238"/>
<path d="M184.877 186.531C184.856 186.527 184.796 186.751 184.705 187.16C184.612 187.568 184.496 188.163 184.359 188.899C184.089 190.372 183.77 192.415 183.461 194.677C183.166 196.903 182.9 198.915 182.693 200.469C182.599 201.158 182.518 201.743 182.452 202.223C182.394 202.637 182.371 202.868 182.392 202.872C182.413 202.876 182.474 202.653 182.569 202.244C182.661 201.835 182.777 201.24 182.906 200.502C183.161 199.026 183.453 196.979 183.763 194.718C184.074 192.496 184.355 190.486 184.572 188.933C184.67 188.245 184.754 187.659 184.822 187.18C184.877 186.766 184.898 186.535 184.877 186.531Z" fill="#263238"/>
<path d="M181.585 203.111C181.6 203.028 177.417 202.182 172.242 201.222C167.065 200.262 162.858 199.551 162.842 199.633C162.827 199.716 167.009 200.561 172.186 201.522C177.361 202.483 181.569 203.194 181.585 203.111Z" fill="#263238"/>
<path d="M194.97 222.253C194.967 222.232 194.73 222.243 194.305 222.282C193.815 222.33 193.214 222.389 192.506 222.458C190.987 222.606 188.889 222.803 186.567 222.937C184.244 223.076 182.137 223.131 180.611 223.159C179.899 223.173 179.296 223.186 178.804 223.196C178.377 223.208 178.14 223.224 178.14 223.245C178.139 223.266 178.375 223.29 178.802 223.315C179.229 223.34 179.847 223.364 180.611 223.375C182.139 223.402 184.254 223.382 186.584 223.242C188.914 223.108 191.015 222.876 192.531 222.673C193.288 222.568 193.9 222.476 194.321 222.4C194.741 222.325 194.973 222.274 194.97 222.253Z" fill="#263238"/>
<path d="M201.248 207.912C201.229 207.903 201.12 208.094 200.941 208.446C200.762 208.798 200.511 209.311 200.207 209.948C199.6 211.222 198.779 212.99 197.891 214.951C197.002 216.913 196.213 218.695 195.656 219.992C195.377 220.64 195.157 221.167 195.011 221.534C194.865 221.901 194.793 222.108 194.812 222.117C194.831 222.126 194.939 221.935 195.119 221.583C195.298 221.231 195.549 220.718 195.853 220.081C196.46 218.807 197.281 217.039 198.169 215.077C199.058 213.116 199.846 211.334 200.404 210.037C200.683 209.389 200.903 208.862 201.049 208.495C201.196 208.128 201.268 207.92 201.248 207.912Z" fill="#263238"/>
<path d="M215.211 223.309C215.192 223.3 215.056 223.545 214.826 223.996C214.576 224.504 214.258 225.148 213.879 225.918C213.092 227.546 212.024 229.805 210.861 232.307C209.698 234.81 208.66 237.083 207.923 238.735C207.579 239.521 207.291 240.179 207.064 240.698C206.867 241.164 206.768 241.426 206.787 241.435C206.806 241.444 206.942 241.199 207.172 240.748C207.422 240.24 207.739 239.596 208.119 238.826C208.906 237.198 209.975 234.939 211.138 232.436C212.301 229.934 213.338 227.661 214.075 226.009C214.419 225.223 214.707 224.565 214.934 224.046C215.131 223.58 215.23 223.318 215.211 223.309Z" fill="#263238"/>
<path d="M206.868 240.944C206.866 240.923 206.566 240.93 206.025 240.96C205.427 240.997 204.658 241.045 203.736 241.102C201.803 241.221 199.134 241.377 196.182 241.468C193.23 241.563 190.555 241.58 188.619 241.58C187.695 241.581 186.925 241.583 186.325 241.583C185.783 241.587 185.483 241.599 185.483 241.619C185.482 241.64 185.781 241.668 186.322 241.701C186.863 241.734 187.647 241.769 188.616 241.795C190.554 241.85 193.234 241.867 196.192 241.772C199.149 241.681 201.822 241.491 203.753 241.316C204.718 241.226 205.498 241.145 206.036 241.077C206.573 241.012 206.87 240.965 206.868 240.944Z" fill="#263238"/>
<path d="M504.768 249.618C501.406 248.073 497.404 248.308 493.975 249.698C490.546 251.088 487.638 253.542 485.179 256.306C480.42 261.653 477.769 269.455 476.44 276.489C484.33 277.461 492.041 272.402 495.792 269.59C501.72 265.145 509.734 253.512 504.768 249.618Z" fill="#00C5FF"/>
<path d="M462.171 279.252C465.938 277.551 468.402 273.529 468.689 269.406C468.976 265.283 467.258 261.161 464.488 258.094C463.207 256.676 461.508 255.387 459.599 255.484C457.815 255.575 456.266 256.918 455.52 258.541C454.774 260.164 454.714 262.022 454.889 263.8C455.487 269.897 457.187 275.688 462.171 279.252Z" fill="#00C5FF"/>
<path d="M451.807 299.15C451.852 299.182 452.205 298.779 452.802 298.021C453.399 297.263 454.241 296.149 455.24 294.74C457.215 291.923 459.912 287.9 461.725 282.881C463.535 277.853 463.691 272.854 462.93 269.445C462.566 267.735 462.063 266.404 461.626 265.536C461.193 264.664 460.884 264.222 460.844 264.245C460.694 264.31 461.81 266.183 462.373 269.55C462.971 272.889 462.732 277.714 460.971 282.613C459.204 287.513 456.621 291.537 454.772 294.424C452.892 297.303 451.709 299.081 451.807 299.15Z" fill="#263238"/>
<path d="M497.652 257.793C497.617 257.751 496.907 258.277 495.655 259.264C494.401 260.25 492.611 261.708 490.419 263.532C486.034 267.179 480.059 272.317 473.602 278.152C467.144 283.991 461.43 289.419 457.36 293.414C455.324 295.411 453.695 297.045 452.587 298.193C451.478 299.34 450.884 299.992 450.922 300.032C450.961 300.072 451.629 299.495 452.805 298.417C454.076 297.237 455.742 295.69 457.752 293.824C461.919 289.936 467.689 284.58 474.14 278.747C480.591 272.918 486.5 267.718 490.788 263.963C492.847 262.151 494.553 260.649 495.856 259.503C497.045 258.442 497.687 257.835 497.652 257.793Z" fill="#263238"/>
<path d="M466.713 290.037C473.929 285.154 483.574 284.075 491.691 287.243C493.758 288.05 496.001 289.531 496.037 291.749C496.074 293.971 493.867 295.53 491.803 296.356C483.217 299.793 472.619 297.368 466.382 290.54" fill="#00C5FF"/>
<path d="M486.328 291.278C486.349 291.227 485.891 291.002 485.037 290.638C484.613 290.448 484.085 290.236 483.451 290.056C482.819 289.867 482.109 289.61 481.29 289.458C479.674 289.061 477.698 288.806 475.495 288.73C473.293 288.7 470.864 288.878 468.368 289.388C465.878 289.93 463.584 290.749 461.581 291.667C459.597 292.627 457.893 293.658 456.575 294.675C455.887 295.144 455.341 295.667 454.84 296.095C454.332 296.517 453.935 296.923 453.624 297.268C452.99 297.946 452.661 298.336 452.701 298.375C452.812 298.486 454.216 296.991 456.904 295.137C458.239 294.198 459.935 293.241 461.889 292.34C463.862 291.481 466.104 290.704 468.532 290.175C470.966 289.678 473.332 289.484 475.484 289.472C477.635 289.507 479.573 289.697 481.173 290.017C484.382 290.624 486.271 291.424 486.328 291.278Z" fill="#263238"/>
<path d="M460.062 72.2969H207.326V349.423H460.062V72.2969Z" fill="#FAFAFA"/>
<path d="M460.062 349.424C460.06 347.453 459.97 237.908 459.833 72.2981L460.061 72.5261C385.951 72.5351 299.389 72.5461 207.351 72.5581H207.326L207.586 72.2981C207.572 174.271 207.559 269.506 207.547 349.424L207.325 349.203C359.309 349.335 458.188 349.422 460.062 349.424C458.189 349.426 359.309 349.512 207.326 349.646H207.104V349.424C207.093 269.506 207.08 174.271 207.065 72.2981V72.0371H207.325H207.35C299.388 72.0491 385.95 72.0591 460.06 72.0691H460.289V72.2981C460.154 237.908 460.063 347.454 460.062 349.424Z" fill="#263238"/>
<path d="M391.721 324.065H295.128C287.117 324.065 280.623 317.571 280.623 309.56V306.609C280.623 298.598 287.117 292.104 295.128 292.104H391.721C399.732 292.104 406.226 298.598 406.226 306.609V309.56C406.226 317.571 399.732 324.065 391.721 324.065Z" fill="#00C5FF"/>
<g opacity="0.5">
<path d="M391.721 324.065H295.128C287.117 324.065 280.623 317.571 280.623 309.56V306.609C280.623 298.598 287.117 292.104 295.128 292.104H391.721C399.732 292.104 406.226 298.598 406.226 306.609V309.56C406.226 317.571 399.732 324.065 391.721 324.065Z" fill="black"/>
</g>
<path d="M381.174 324.065H284.581C276.57 324.065 270.076 317.571 270.076 309.56V306.609C270.076 298.598 276.57 292.104 284.581 292.104H381.174C389.185 292.104 395.679 298.598 395.679 306.609V309.56C395.679 317.571 389.185 324.065 381.174 324.065Z" fill="#00C5FF"/>
<path d="M304.735 310.155L305.161 309.2C305.691 309.626 306.533 309.929 307.347 309.929C308.378 309.929 308.813 309.56 308.813 309.068C308.813 307.639 304.877 308.576 304.877 306.117C304.877 305.048 305.728 304.139 307.544 304.139C308.339 304.139 309.171 304.347 309.749 304.725L309.361 305.681C308.765 305.331 308.112 305.16 307.535 305.16C306.514 305.16 306.097 305.558 306.097 306.058C306.097 307.468 310.023 306.55 310.023 308.982C310.023 310.042 309.162 310.95 307.346 310.95C306.315 310.95 305.284 310.629 304.735 310.155Z" fill="#FAFAFA"/>
<path d="M311.19 307.968V304.232H312.42V307.921C312.42 309.283 313.035 309.869 314.104 309.869C315.173 309.869 315.779 309.283 315.779 307.921V304.232H316.99V307.968C316.99 309.899 315.902 310.948 314.095 310.948C312.278 310.948 311.19 309.899 311.19 307.968Z" fill="#FAFAFA"/>
<path d="M324.602 309.056C324.602 310.192 323.712 310.854 322.01 310.854H318.717V304.232H321.82C323.409 304.232 324.261 304.904 324.261 305.954C324.261 306.635 323.92 307.137 323.409 307.411C324.119 307.637 324.602 308.195 324.602 309.056ZM319.947 305.196V307.022H321.688C322.54 307.022 323.022 306.719 323.022 306.114C323.022 305.499 322.54 305.196 321.688 305.196H319.947ZM323.362 308.933C323.362 308.271 322.861 307.978 321.934 307.978H319.947V309.889H321.934C322.861 309.889 323.362 309.596 323.362 308.933Z" fill="#FAFAFA"/>
<path d="M325.362 310.155L325.788 309.2C326.318 309.626 327.16 309.929 327.974 309.929C329.005 309.929 329.44 309.56 329.44 309.068C329.44 307.639 325.505 308.576 325.505 306.117C325.505 305.048 326.356 304.139 328.173 304.139C328.968 304.139 329.8 304.347 330.377 304.725L329.988 305.681C329.392 305.331 328.74 305.16 328.163 305.16C327.141 305.16 326.725 305.558 326.725 306.058C326.725 307.468 330.651 306.55 330.651 308.982C330.651 310.042 329.79 310.95 327.974 310.95C326.942 310.95 325.911 310.629 325.362 310.155Z" fill="#FAFAFA"/>
<path d="M331.401 307.542C331.401 305.565 332.915 304.137 334.949 304.137C336.028 304.137 336.955 304.525 337.57 305.244L336.775 305.992C336.293 305.471 335.697 305.216 335.005 305.216C333.634 305.216 332.641 306.181 332.641 307.543C332.641 308.905 333.634 309.87 335.005 309.87C335.696 309.87 336.292 309.615 336.775 309.085L337.57 309.842C336.955 310.562 336.028 310.949 334.94 310.949C332.914 310.948 331.401 309.52 331.401 307.542Z" fill="#FAFAFA"/>
<path d="M343.09 310.855L341.737 308.916C341.652 308.926 341.567 308.926 341.482 308.926H339.987V310.856H338.757V304.234H341.482C343.222 304.234 344.301 305.123 344.301 306.589C344.301 307.592 343.789 308.329 342.891 308.68L344.414 310.856H343.09V310.855ZM341.424 305.273H339.986V307.913H341.424C342.503 307.913 343.061 307.421 343.061 306.589C343.061 305.755 342.503 305.273 341.424 305.273Z" fill="#FAFAFA"/>
<path d="M345.677 304.232H346.906V310.854H345.677V304.232Z" fill="#FAFAFA"/>
<path d="M354.579 309.056C354.579 310.192 353.69 310.854 351.987 310.854H348.695V304.232H351.797C353.387 304.232 354.238 304.904 354.238 305.954C354.238 306.635 353.897 307.137 353.386 307.411C354.097 307.637 354.579 308.195 354.579 309.056ZM349.925 305.196V307.022H351.665C352.517 307.022 352.999 306.719 352.999 306.114C352.999 305.499 352.517 305.196 351.665 305.196H349.925ZM353.34 308.933C353.34 308.271 352.839 307.978 351.911 307.978H349.925V309.889H351.911C352.839 309.889 353.34 309.596 353.34 308.933Z" fill="#FAFAFA"/>
<path d="M360.866 309.823V310.854H355.899V304.232H360.733V305.263H357.129V306.985H360.326V307.997H357.129V309.823H360.866Z" fill="#FAFAFA"/>
<path d="M407.242 270.789C407.242 270.933 375.101 271.049 335.462 271.049C295.809 271.049 263.675 270.933 263.675 270.789C263.675 270.645 295.809 270.529 335.462 270.529C375.1 270.528 407.242 270.645 407.242 270.789Z" fill="#263238"/>
<path d="M429.702 279.473C429.702 279.617 387.504 279.733 335.463 279.733C283.403 279.733 241.214 279.616 241.214 279.473C241.214 279.329 283.403 279.213 335.463 279.213C387.504 279.213 429.702 279.329 429.702 279.473Z" fill="#263238"/>
<path d="M219.208 83.0775C219.208 84.2595 218.25 85.2175 217.068 85.2175C215.886 85.2175 214.929 84.2595 214.929 83.0775C214.929 81.8955 215.887 80.9375 217.068 80.9375C218.25 80.9375 219.208 81.8955 219.208 83.0775Z" fill="#E0E0E0"/>
<path d="M224.202 85.2175C225.383 85.2175 226.342 84.2594 226.342 83.0775C226.342 81.8956 225.383 80.9375 224.202 80.9375C223.02 80.9375 222.062 81.8956 222.062 83.0775C222.062 84.2594 223.02 85.2175 224.202 85.2175Z" fill="#E0E0E0"/>
<path d="M233.475 83.0775C233.475 84.2595 232.517 85.2175 231.335 85.2175C230.153 85.2175 229.196 84.2595 229.196 83.0775C229.196 81.8955 230.154 80.9375 231.335 80.9375C232.517 80.9375 233.475 81.8955 233.475 83.0775Z" fill="#E0E0E0"/>
<path d="M441.255 127.892L445.41 112.905C445.41 112.905 446.909 106.816 447.266 105.393C447.738 103.511 446.418 102.919 445.64 104.199C445.344 104.685 442.055 110.885 442.055 110.885C442.055 110.885 444.676 100.735 444.771 100.366C445.62 97.0524 443.568 97.3954 442.967 98.5804C442.346 99.8044 438.634 109.793 438.634 109.793C442.12 96.7404 441.03 95.5914 440.049 95.3854C439.069 95.1804 435.995 107.114 435.995 107.114C435.995 107.114 434.89 105.074 432.844 103.668C429.691 101.5 424.438 103.665 424.185 105.149C423.932 106.633 425.808 107.049 425.808 107.049C429.757 104.504 433.807 107.587 433.393 111.355C432.979 115.124 428.206 114.6 427.612 111.918C426.307 106.033 424.282 107.945 424.282 107.945L426.311 120.927L424.162 127.455" fill="#FFBE9D"/>
<path d="M291.556 188.981L381.406 188.381L383.875 249.469L290.839 248.552L291.556 188.981Z" fill="#455A64"/>
<path d="M291.557 188.982L337.194 152.098L381.407 188.382" fill="#263238"/>
<path d="M290.839 248.553C290.727 248.448 297.925 240.598 306.913 231.023C315.905 221.444 323.283 213.767 323.395 213.872C323.507 213.977 316.311 221.825 307.319 231.404C298.331 240.979 290.951 248.658 290.839 248.553Z" fill="#263238"/>
<path d="M383.875 249.469C383.76 249.571 376.759 241.872 368.241 232.275C359.719 222.674 352.907 214.812 353.022 214.71C353.137 214.608 360.136 222.306 368.658 231.906C377.176 241.503 383.99 249.367 383.875 249.469Z" fill="#263238"/>
<path d="M381.407 188.381L336.268 224.397L291.557 188.981" fill="#263238"/>
<path d="M231.518 120.136L231.817 120.127L230.612 116.107L226.764 100.745C226.399 99.3507 227.175 97.9147 228.571 97.3977L231.341 97.3037L240.829 92.8657C242.622 92.2027 244.604 93.3287 244.828 95.1607C245.174 97.9847 247.094 105.57 249.138 102.913C249.186 102.851 249.237 102.8 249.285 102.739C252.157 98.7847 255.734 96.6516 257.206 96.7116C258.642 96.7696 259.172 98.5097 258.211 99.5487C258.069 99.7267 257.9 99.8926 257.669 100.018C257.573 100.07 257.46 100.163 257.358 100.228C256.243 101.123 254.918 102.714 253.943 103.975C253.014 105.178 252.308 106.542 251.852 107.974C251.345 109.567 250.969 110.964 250.685 112.148L251.422 119.989" fill="#FFBE9D"/>
<path d="M256.832 50.5536C256.832 50.5536 245.744 48.4286 229.815 33.9586C213.887 19.4876 206.039 -0.106399 204.144 0.044601C202.249 0.194601 193.852 -3.4174 179.063 31.3156C164.274 66.0486 170.709 73.8346 173.843 73.6816C176.978 73.5276 198.106 66.9896 211.451 68.1236C224.796 69.2586 242.091 75.7056 242.091 75.7056L256.832 50.5536Z" fill="#455A64"/>
<path d="M280.771 68.578L277.215 75.832L275.621 79.082C273.436 83.539 268.145 85.506 263.579 83.558L239.729 75.999L252.592 44.209L276.544 56.114C281.141 58.398 283.031 63.967 280.771 68.578Z" fill="#263238"/>
<path d="M267.478 80.4076L260.369 95.3716L256.576 94.4326L232.565 115.123L225.315 101.871C225.315 101.871 239.662 95.2016 242.202 89.9466C244.741 84.6916 241.604 83.6046 241.604 83.6046L248.22 75.6426L267.478 80.4076Z" fill="#263238"/>
<path d="M180.355 31.9027C172.494 50.7137 169.471 67.3637 173.604 69.0907C177.737 70.8187 187.461 56.9687 195.322 38.1577C203.183 19.3467 206.206 2.69769 202.073 0.969692C197.94 -0.757308 188.216 13.0917 180.355 31.9027Z" fill="#263238"/>
<path d="M283.09 78.848L276.631 77.019L280.379 69.375L285.264 72.223L283.09 78.848Z" fill="#455A64"/>
<path d="M245.951 78.3711L263.465 88.8541L265.492 84.5881L245.951 78.3711Z" fill="#455A64"/>
<path d="M280.379 69.375L276.631 77.019L277.958 77.396L280.964 69.716L280.379 69.375Z" fill="#455A64"/>
<path d="M276.018 71.238C275.93 71.448 272.7 70.297 268.804 68.667C264.905 67.037 261.819 65.546 261.907 65.337C261.994 65.128 265.223 66.279 269.121 67.908C273.017 69.538 276.105 71.028 276.018 71.238Z" fill="#455A64"/>
<path d="M277.859 66.6948C277.764 66.9018 274.839 65.7658 271.325 64.1568C267.809 62.5478 265.038 61.0768 265.133 60.8698C265.227 60.6638 268.152 61.7998 271.667 63.4088C275.181 65.0178 277.953 66.4888 277.859 66.6948Z" fill="#455A64"/>
<path d="M273.668 76.0128C273.637 76.1228 272.872 75.9688 271.648 75.6288C271.037 75.4588 270.312 75.2428 269.51 74.9898C268.713 74.7258 267.882 74.3348 266.993 73.9618C263.445 72.4358 260.726 70.9198 260.808 70.7288C260.905 70.5028 263.8 71.6938 267.315 73.2048C268.196 73.5738 269.016 73.9858 269.786 74.2818C270.559 74.5688 271.252 74.8378 271.832 75.0758C272.99 75.5528 273.698 75.9038 273.668 76.0128Z" fill="#455A64"/>
<path d="M197.339 27.287C197.339 27.287 187.594 21.62 182.721 34.708C177.849 47.796 187.985 49.637 187.985 49.637C191.927 43.126 195.069 35.703 197.339 27.287Z" fill="#455A64"/>
<path d="M207.088 11.5782C207.144 11.5862 207.033 12.4682 206.783 14.0612C206.525 15.6512 206.162 17.9582 205.627 20.7932C205.262 22.1922 204.862 23.7202 204.434 25.3592C204.217 26.1802 203.992 27.0282 203.761 27.9022C203.645 28.3392 203.527 28.7832 203.407 29.2322C203.277 29.6782 203.102 30.1172 202.948 30.5682C202.309 32.3682 201.638 34.2562 200.943 36.2122C200.768 36.7012 200.592 37.1942 200.414 37.6922C200.242 38.1922 199.992 38.6642 199.782 39.1572C199.341 40.1352 198.894 41.1282 198.442 42.1322C197.988 43.1362 197.54 44.1282 197.097 45.1072C196.866 45.5912 196.677 46.0912 196.417 46.5522C196.161 47.0142 195.908 47.4742 195.657 47.9292C194.65 49.7452 193.678 51.4982 192.751 53.1682C192.514 53.5822 192.3 54.0032 192.052 54.3962C191.794 54.7842 191.539 55.1662 191.288 55.5432C190.785 56.2962 190.297 57.0272 189.824 57.7342C188.878 59.1402 187.995 60.4532 187.187 61.6542C185.419 63.9252 183.933 65.7192 182.912 66.9642C181.885 68.2042 181.296 68.8732 181.251 68.8372C181.206 68.8022 181.71 68.0672 182.659 66.7672C183.644 65.4422 185.027 63.5822 186.726 61.2982C187.502 60.0882 188.35 58.7672 189.259 57.3512C189.716 56.6432 190.189 55.9112 190.675 55.1582C190.919 54.7822 191.166 54.4002 191.417 54.0132C191.658 53.6202 191.866 53.1982 192.096 52.7842C193.003 51.1172 193.954 49.3692 194.94 47.5562C195.187 47.1032 195.437 46.6462 195.688 46.1862C195.945 45.7282 196.131 45.2312 196.359 44.7492C196.797 43.7772 197.241 42.7912 197.69 41.7942C198.141 40.7972 198.586 39.8122 199.025 38.8412C199.235 38.3522 199.485 37.8832 199.658 37.3882C199.836 36.8952 200.014 36.4062 200.189 35.9212C200.895 33.9832 201.576 32.1142 202.225 30.3312C202.383 29.8842 202.561 29.4502 202.697 29.0092C202.821 28.5642 202.944 28.1262 203.065 27.6932C203.308 26.8292 203.544 25.9892 203.773 25.1772C204.234 23.5572 204.663 22.0452 205.057 20.6622C205.644 17.8832 206.122 15.6202 206.463 14.0082C206.814 12.4362 207.032 11.5702 207.088 11.5782Z" fill="#263238"/>
<path d="M264.671 154.515L254.756 116.842L229.978 117.498L237.685 170.068C238.67 181.508 245.401 188.997 256.738 190.814C263.535 191.903 270.9 185.424 276.359 181.231C279.923 178.493 280.557 179.036 284.234 175.693L300.195 164.155L300.586 166.049L300.484 166.053L303.196 198.175L336.253 224.132L375.684 192.54L374.784 178.875C374.881 178.864 374.978 178.674 374.771 178.678L373.75 163.193L393.949 186.364C398.599 193.153 406.514 196.95 414.719 196.328C423.59 195.656 431.283 189.94 434.488 181.641L444.896 128.684L422.057 123.769L411.36 161.93L385.84 132.602C371.125 113.428 353.943 115.049 353.943 115.049L322.268 114.487C322.244 114.486 322.221 114.487 322.197 114.488C321.257 114.538 303.555 115.073 291.557 127.894L264.671 154.515Z" fill="#00C5FF"/>
<path d="M387.128 134.69C387.113 134.721 386.785 134.529 386.109 134.317C385.438 134.1 384.395 133.897 383.053 134.001C381.715 134.11 380.104 134.539 378.367 135.345C376.615 136.122 374.804 137.36 372.693 138.574C370.601 139.751 368.087 141.042 365.124 140.974C363.66 140.925 362.19 140.52 360.767 139.96C359.34 139.402 357.935 138.708 356.457 138.123C353.528 136.926 350.099 136.525 346.721 137.199C343.32 137.848 340.203 139.756 337.011 141.608C335.403 142.53 333.782 143.416 332.079 144.075C330.379 144.739 328.613 145.161 326.857 145.345C323.344 145.721 319.87 145.2 316.872 143.96C313.859 142.734 311.333 140.946 309.021 139.285C306.71 137.612 304.584 136.02 302.497 134.812C300.408 133.611 298.364 132.803 296.509 132.344C294.649 131.901 292.986 131.806 291.649 131.94C288.954 132.233 287.668 133.167 287.641 133.077C287.637 133.069 287.717 133.02 287.877 132.932C288.039 132.846 288.277 132.71 288.601 132.556C289.261 132.282 290.264 131.901 291.627 131.739C292.984 131.572 294.68 131.638 296.576 132.062C298.468 132.502 300.551 133.297 302.68 134.494C304.807 135.698 306.955 137.281 309.273 138.936C311.591 140.579 314.102 142.332 317.052 143.517C319.984 144.716 323.375 145.214 326.802 144.84C328.515 144.657 330.235 144.243 331.891 143.595C333.552 142.95 335.151 142.077 336.752 141.159C339.928 139.319 343.104 137.368 346.622 136.701C350.1 136.012 353.637 136.44 356.634 137.679C359.607 138.893 362.308 140.456 365.138 140.545C367.957 140.632 370.424 139.407 372.512 138.256C374.615 137.075 376.458 135.847 378.248 135.082C380.02 134.291 381.67 133.881 383.039 133.802C384.412 133.726 385.473 133.967 386.143 134.22C386.819 134.465 387.128 134.69 387.128 134.69Z" fill="#FAFAFA"/>
<path d="M405.497 153.455C405.497 153.455 405.404 153.97 404.956 154.849C404.506 155.717 403.633 156.939 402.087 158.016C400.565 159.101 398.373 160.018 395.719 160.271C393.067 160.57 390.04 160.252 386.748 159.876C383.48 159.544 379.759 159.14 376.071 160.355C374.245 160.972 372.515 162.011 370.776 163.139C369.033 164.26 367.251 165.499 365.203 166.378C361.146 168.164 356.333 168.836 351.573 167.972C349.192 167.568 346.842 166.725 344.65 165.545C342.454 164.366 340.407 162.903 338.286 161.532C336.166 160.173 334.003 158.895 331.666 158.207C329.339 157.509 326.897 157.43 324.559 157.764C319.86 158.447 315.595 160.337 311.342 161.488C309.222 162.09 307.083 162.511 304.974 162.555C302.876 162.59 300.798 162.299 298.962 161.54C295.271 160.019 292.557 157.426 290.14 155.181C287.733 152.897 285.513 150.866 283.259 149.516C281.029 148.132 278.796 147.519 276.966 147.37C275.124 147.22 273.695 147.55 272.785 147.874C271.873 148.213 271.441 148.502 271.424 148.471C271.424 148.471 271.836 148.151 272.748 147.776C273.657 147.416 275.104 147.046 276.98 147.168C278.842 147.288 281.128 147.885 283.408 149.267C285.709 150.613 287.97 152.648 290.391 154.913C292.819 157.14 295.527 159.683 299.122 161.14C300.907 161.868 302.917 162.14 304.962 162.099C307.016 162.049 309.116 161.63 311.214 161.027C313.318 160.435 315.44 159.692 317.632 158.983C319.822 158.279 322.092 157.59 324.49 157.26C326.876 156.914 329.409 156.99 331.817 157.712C334.233 158.422 336.436 159.728 338.571 161.096C340.704 162.476 342.741 163.931 344.897 165.09C347.047 166.248 349.333 167.071 351.665 167.471C356.321 168.324 361.038 167.676 365.012 165.94C368.99 164.203 372.117 161.188 375.935 159.947C377.822 159.318 379.749 159.138 381.571 159.138C383.399 159.141 385.139 159.322 386.79 159.512C390.084 159.912 393.076 160.251 395.69 159.983C398.306 159.76 400.457 158.891 401.972 157.851C403.507 156.82 404.39 155.641 404.864 154.801C405.336 153.948 405.464 153.442 405.497 153.455Z" fill="#FAFAFA"/>
<path d="M434.39 178.911C434.346 178.952 433.998 178.37 433.006 177.777C432.034 177.19 430.334 176.713 428.309 177.076C426.277 177.43 424.132 178.751 421.983 180.455C420.895 181.298 419.766 182.225 418.488 183.055C417.217 183.879 415.771 184.625 414.15 184.925C412.534 185.245 410.914 185.097 409.425 184.796C407.931 184.487 406.542 184.023 405.233 183.575C403.923 183.127 402.692 182.681 401.516 182.373C400.338 182.068 399.217 181.879 398.187 181.809C396.126 181.663 394.451 182.045 393.427 182.571C392.391 183.081 391.931 183.558 391.893 183.511C391.881 183.498 391.993 183.381 392.221 183.17C392.331 183.059 392.48 182.938 392.669 182.81C392.851 182.671 393.07 182.526 393.335 182.391C394.36 181.793 396.089 181.338 398.207 181.442C399.265 181.49 400.415 181.661 401.621 181.955C402.829 182.252 404.077 182.687 405.386 183.121C407.977 183.964 410.957 184.989 414.05 184.415C415.578 184.134 416.964 183.428 418.209 182.628C419.46 181.824 420.585 180.915 421.688 180.076C423.866 178.382 426.104 177.038 428.245 176.714C430.371 176.382 432.132 176.942 433.111 177.606C433.616 177.928 433.924 178.283 434.13 178.513C434.316 178.765 434.404 178.901 434.39 178.911Z" fill="#FAFAFA"/>
<path d="M439.412 150.173C439.425 150.193 439.146 150.43 438.552 150.712C437.962 150.996 437.04 151.289 435.866 151.391C434.693 151.491 433.282 151.382 431.776 151.023C430.266 150.668 428.684 150.061 427.038 149.445C425.392 148.83 423.811 148.287 422.33 148.039C420.85 147.788 419.481 147.813 418.37 148.024C416.113 148.446 415.071 149.57 415.015 149.471C414.999 149.455 415.223 149.164 415.753 148.774C416.28 148.384 417.143 147.932 418.294 147.663C419.443 147.395 420.868 147.33 422.405 147.564C423.947 147.796 425.565 148.338 427.218 148.956C428.871 149.574 430.428 150.186 431.889 150.556C433.349 150.93 434.707 151.072 435.841 151.022C438.135 150.93 439.374 150.071 439.412 150.173Z" fill="#FAFAFA"/>
<path d="M373.105 187.97C373.074 188.025 372.228 187.408 370.488 186.771C368.754 186.154 366.064 185.619 362.767 185.973C359.463 186.262 355.688 187.561 351.741 189.474C347.774 191.342 343.572 193.844 338.685 195.427C336.249 196.212 333.756 196.695 331.324 196.698C328.89 196.69 326.572 196.2 324.466 195.517C322.352 194.839 320.426 193.991 318.635 193.198C316.842 192.407 315.186 191.645 313.641 191.038C310.567 189.777 307.924 189.204 306.079 189.064C305.617 189.038 305.206 188.998 304.85 188.989C304.507 189 304.207 189.01 303.947 189.018C303.458 189.03 303.199 189.028 303.197 189.011C303.195 188.993 303.45 188.96 303.94 188.914C304.202 188.891 304.503 188.865 304.848 188.835C305.208 188.827 305.623 188.851 306.092 188.862C307.962 188.941 310.661 189.469 313.774 190.695C315.339 191.284 317.008 192.03 318.807 192.802C320.603 193.577 322.524 194.404 324.611 195.059C326.693 195.72 328.956 196.186 331.322 196.187C333.689 196.178 336.127 195.703 338.526 194.93C343.338 193.373 347.534 190.896 351.536 189.039C355.515 187.14 359.369 185.852 362.733 185.605C366.09 185.291 368.822 185.894 370.559 186.579C372.304 187.288 373.105 187.97 373.105 187.97Z" fill="#FAFAFA"/>
<path d="M236.531 162.414C236.531 162.414 236.671 162.288 237.007 162.187C237.338 162.087 237.881 162.044 238.519 162.248C239.153 162.448 239.878 162.883 240.49 163.613C241.097 164.341 241.561 165.31 242.075 166.336C242.579 167.369 243.285 168.401 244.287 169.28C245.281 170.165 246.567 170.84 247.987 171.325C250.859 172.285 254.257 172.343 257.725 171.791C261.202 171.283 264.532 170.576 267.638 170.599C270.75 170.55 273.522 171.486 275.479 172.774C277.475 174.045 278.598 175.707 279.053 176.928C279.514 178.163 279.471 178.904 279.471 178.904C279.405 178.916 279.372 178.181 278.866 177.006C278.365 175.842 277.241 174.278 275.281 173.085C273.352 171.875 270.673 171.007 267.639 171.08C264.601 171.082 261.306 171.794 257.798 172.308C254.303 172.865 250.787 172.8 247.833 171.781C246.367 171.266 245.032 170.548 244.001 169.605C242.964 168.673 242.232 167.556 241.745 166.501C241.246 165.451 240.818 164.504 240.262 163.796C239.711 163.096 239.039 162.657 238.453 162.441C237.235 161.996 236.531 162.488 236.531 162.414Z" fill="#FAFAFA"/>
<path d="M258.224 131.864C258.161 131.962 257.114 130.701 254.737 130.053C253.565 129.735 252.099 129.589 250.501 129.775C248.902 129.956 247.189 130.492 245.467 131.226C243.742 131.966 242.153 132.81 240.679 133.535C239.208 134.265 237.846 134.868 236.665 135.277C235.484 135.686 234.493 135.911 233.801 136.01C233.109 136.111 232.722 136.106 232.718 136.077C232.704 135.987 234.244 135.837 236.537 134.931C237.683 134.484 239.009 133.855 240.462 133.106C241.917 132.361 243.507 131.499 245.261 130.746C247.014 129.999 248.781 129.46 250.448 129.297C252.112 129.131 253.633 129.321 254.838 129.699C256.046 130.081 256.931 130.628 257.47 131.077C258.015 131.528 258.241 131.849 258.224 131.864Z" fill="#FAFAFA"/>
<g opacity="0.3">
<path d="M330.632 219.716C343.467 212.272 358.328 203.544 365.738 190.689C370.477 182.468 372.831 172.636 373.751 163.191L375.685 192.538L336.254 224.13L330.632 219.716Z" fill="black"/>
</g>
<g opacity="0.2">
<path d="M297.358 122.625C294.33 133.885 288.525 143.588 279.729 151.242C277.606 153.09 275.3 154.813 272.637 155.724C269.974 156.635 266.887 156.642 264.479 155.186L264.672 154.514L284.654 134.726L297.358 122.625Z" fill="black"/>
</g>
<path d="M267.215 170.255C267.13 170.223 267.456 169.346 267.725 167.882C267.998 166.421 268.138 164.35 267.774 162.112C267.4 159.875 266.602 157.958 265.874 156.663C265.149 155.363 264.558 154.637 264.628 154.58C264.666 154.544 265.364 155.19 266.191 156.475C267.019 157.752 267.902 159.716 268.288 162.027C268.665 164.339 268.459 166.482 268.086 167.958C267.715 169.441 267.263 170.277 267.215 170.255Z" fill="#263238"/>
<path d="M261.489 165.213C261.356 165.113 263.095 163.29 263.872 160.395C264.695 157.511 264.141 155.054 264.306 155.037C264.365 155.022 264.588 155.61 264.705 156.615C264.824 157.615 264.786 159.038 264.374 160.534C263.958 162.028 263.259 163.268 262.643 164.065C262.025 164.867 261.532 165.256 261.489 165.213Z" fill="#263238"/>
<path d="M298.689 144.539C298.832 144.526 299.653 152.498 300.522 162.342C301.391 172.189 301.98 180.18 301.837 180.193C301.694 180.206 300.873 172.236 300.004 162.388C299.134 152.544 298.546 144.551 298.689 144.539Z" fill="#263238"/>
<path d="M352.078 113.901C352.095 113.895 352.168 114.08 352.293 114.44C352.433 114.795 352.576 115.338 352.729 116.047C353.02 117.461 353.168 119.601 352.634 122.155C352.073 124.677 350.772 127.643 348.273 130.061C345.81 132.504 342.069 134.072 338.08 134.17C334.089 134.248 330.282 132.844 327.714 130.51C325.11 128.203 323.681 125.297 323.011 122.802C322.365 120.274 322.42 118.13 322.649 116.705C322.77 115.99 322.889 115.442 323.014 115.081C323.123 114.716 323.188 114.528 323.205 114.534C323.268 114.55 323.01 115.31 322.85 116.731C322.685 118.145 322.69 120.247 323.366 122.705C324.066 125.132 325.496 127.94 328.03 130.15C330.525 132.383 334.202 133.723 338.068 133.65C341.933 133.554 345.547 132.055 347.941 129.715C350.376 127.397 351.682 124.53 352.275 122.074C352.843 119.589 352.756 117.488 352.53 116.083C352.307 114.669 352.016 113.92 352.078 113.901Z" fill="#263238"/>
<path d="M410.172 174.145C410.035 174.152 409.806 171.338 410.007 167.869C410.2 164.398 410.746 161.629 410.882 161.652C411.031 161.674 410.719 164.457 410.527 167.899C410.328 171.339 410.323 174.14 410.172 174.145Z" fill="#263238"/>
<path d="M414.187 175.963C414.123 175.986 413.776 175.214 413.333 173.922C412.889 172.631 412.364 170.815 411.941 168.773C411.52 166.73 411.281 164.854 411.177 163.493C411.072 162.131 411.084 161.285 411.152 161.281C411.308 161.269 411.606 164.62 412.451 168.668C413.279 172.717 414.334 175.912 414.187 175.963Z" fill="#263238"/>
<path d="M373.75 176.537C373.606 176.542 373.278 170.908 373.017 163.955C372.756 156.999 372.661 151.357 372.805 151.352C372.949 151.347 373.277 156.979 373.538 163.936C373.798 170.889 373.893 176.531 373.75 176.537Z" fill="#263238"/>
<path d="M337.905 132.6C330.409 132.46 324.319 126.506 324.005 119.015C323.775 113.535 323.587 108.503 323.587 108.503C323.587 108.503 312.117 107.285 311.425 95.9103C310.733 84.5353 311.438 58.3033 311.438 58.3033C324.339 52.0023 339.64 53.1763 351.429 61.3723L353.179 62.5893L352.347 118.635C352.23 126.486 345.755 132.747 337.905 132.6Z" fill="#FFBE9D"/>
<path d="M323.562 108.34C323.562 108.34 330.784 108.576 338.196 103.404C338.196 103.404 335.086 111.765 323.678 111.291L323.562 108.34Z" fill="#EB996E"/>
<path d="M352.349 74.4464C352.539 74.3534 360.057 71.7544 360.186 79.5474C360.315 87.3404 352.464 85.8624 352.446 85.6394C352.429 85.4164 352.349 74.4464 352.349 74.4464Z" fill="#FFBE9D"/>
<path d="M354.778 82.6488C354.812 82.6228 354.916 82.7418 355.146 82.8428C355.371 82.9418 355.757 83.0058 356.161 82.8468C356.979 82.5308 357.651 81.2128 357.666 79.8068C357.674 79.0968 357.514 78.4238 357.254 77.8688C357.007 77.3028 356.631 76.9108 356.216 76.8438C355.802 76.7548 355.513 77.0078 355.421 77.2288C355.32 77.4488 355.372 77.6028 355.331 77.6168C355.31 77.6368 355.162 77.4888 355.219 77.1658C355.249 77.0108 355.337 76.8248 355.517 76.6728C355.702 76.5178 355.975 76.4358 356.265 76.4618C356.867 76.4938 357.417 77.0378 357.703 77.6468C358.022 78.2588 358.219 79.0148 358.21 79.8118C358.186 81.3828 357.406 82.8658 356.285 83.2098C355.739 83.3618 355.279 83.2038 355.04 83.0238C354.796 82.8368 354.752 82.6628 354.778 82.6488Z" fill="#EB996E"/>
<path d="M316.882 75.5155C316.852 76.3745 317.554 77.1095 318.451 77.1575C319.346 77.2055 320.098 76.5495 320.129 75.6905C320.159 74.8315 319.457 74.0955 318.561 74.0475C317.664 73.9985 316.912 74.6555 316.882 75.5155Z" fill="#263238"/>
<path d="M314.902 73.8858C315.104 74.0978 316.337 73.1858 318.088 73.1898C319.837 73.1698 321.123 74.0698 321.313 73.8558C321.406 73.7608 321.201 73.3778 320.641 72.9708C320.09 72.5648 319.151 72.1708 318.06 72.1758C316.969 72.1818 316.052 72.5828 315.524 72.9938C314.985 73.4068 314.803 73.7908 314.902 73.8858Z" fill="#263238"/>
<path d="M333.696 75.7147C333.666 76.5737 334.368 77.3077 335.265 77.3567C336.16 77.4047 336.912 76.7487 336.943 75.8897C336.973 75.0307 336.27 74.2947 335.375 74.2467C334.478 74.1977 333.726 74.8547 333.696 75.7147Z" fill="#263238"/>
<path d="M332.115 74.212C332.317 74.424 333.552 73.512 335.301 73.517C337.05 73.497 338.335 74.398 338.525 74.183C338.618 74.088 338.415 73.705 337.853 73.298C337.302 72.892 336.363 72.498 335.272 72.502C334.181 72.508 333.264 72.91 332.736 73.321C332.2 73.733 332.017 74.117 332.115 74.212Z" fill="#263238"/>
<path d="M325.76 87.1994C325.768 87.0994 324.68 86.9124 322.916 86.6864C322.469 86.6404 322.046 86.5514 321.97 86.2464C321.865 85.9234 322.052 85.4414 322.269 84.9214C322.689 83.8394 323.129 82.7054 323.591 81.5164C325.427 76.6684 326.757 72.6824 326.561 72.6104C326.365 72.5384 324.718 76.4094 322.881 81.2574C322.439 82.4534 322.016 83.5924 321.614 84.6824C321.445 85.1904 321.154 85.7664 321.382 86.4374C321.502 86.7714 321.831 87.0144 322.117 87.0914C322.404 87.1794 322.655 87.1834 322.876 87.1974C324.652 87.2914 325.754 87.2994 325.76 87.1994Z" fill="#263238"/>
<path d="M330.914 88.4103C330.629 88.3943 330.625 90.2943 328.999 91.6433C327.375 92.9973 325.349 92.7834 325.334 93.0494C325.308 93.1684 325.785 93.4184 326.64 93.4414C327.479 93.4704 328.704 93.2003 329.7 92.3753C330.692 91.5483 331.119 90.4443 331.184 89.6643C331.256 88.8703 331.044 88.3993 330.914 88.4103Z" fill="#263238"/>
<path d="M331.664 67.3495C331.837 67.8255 333.585 67.5995 335.64 67.8475C337.7 68.0535 339.356 68.6555 339.629 68.2285C339.751 68.0245 339.462 67.5765 338.792 67.1155C338.128 66.6555 337.069 66.2175 335.835 66.0805C334.602 65.9455 333.472 66.1415 332.724 66.4455C331.969 66.7495 331.589 67.1235 331.664 67.3495Z" fill="#263238"/>
<path d="M315.546 68.8179C315.854 69.2159 317.06 68.8029 318.511 68.7839C319.961 68.7139 321.19 69.0509 321.473 68.6349C321.597 68.4329 321.404 68.0349 320.867 67.6579C320.338 67.2829 319.454 66.9759 318.457 67.0059C317.46 67.0379 316.596 67.3979 316.092 67.8049C315.579 68.2139 315.41 68.6239 315.546 68.8179Z" fill="#263238"/>
<path d="M305.626 50.7852C305.504 49.3732 306.03 47.8572 307.179 47.0272C308.329 46.1972 310.111 46.2502 311.045 47.3162C310.51 45.4132 312.066 43.2192 314.038 43.0932C315.896 42.9752 317.481 44.3792 319.277 44.8712C321.03 45.3522 322.911 44.9362 324.598 44.2572C326.284 43.5782 327.86 42.6412 329.568 42.0172C333.129 40.7162 337.201 40.8802 340.647 42.4622C344.093 44.0442 346.871 47.0252 348.206 50.5742C350.698 49.7952 353.53 51.0602 355.067 53.1712C356.604 55.2822 356.998 58.0542 356.692 60.6472C356.485 62.3992 355.979 64.0922 355.389 65.7602C355.39 65.9062 355.404 66.0502 355.401 66.1972C355.283 72.4632 354.575 79.8222 351.901 79.8632C347.242 79.9342 348.352 71.1562 348.352 71.1562C342.634 68.9472 344.764 60.3792 343.334 59.0802C341.904 57.7802 338.913 54.7602 326.941 60.8792C322.292 63.2552 316.111 63.1812 312.737 62.4152C312.638 62.3942 312.538 62.3792 312.439 62.3542C312.418 62.3492 312.391 62.3452 312.37 62.3402C312.333 62.3312 312.307 62.3102 312.271 62.3002C311.195 62.0202 310.158 61.6032 309.201 60.9972C308.117 60.3112 307.13 59.3822 306.671 58.1842C306.211 56.9862 306.384 55.4902 307.324 54.6172C306.44 53.5092 305.748 52.1972 305.626 50.7852Z" fill="#263238"/>
</svg>
