<svg width="477" height="413" viewBox="0 0 477 413" fill="none" xmlns="http://www.w3.org/2000/svg">
<path d="M420.921 274.998H240.174C236.942 274.998 234.312 272.368 234.312 269.136V5.862C234.312 2.63 236.942 0 240.174 0H420.921C424.153 0 426.783 2.629 426.783 5.862V269.135C426.784 272.368 424.154 274.998 420.921 274.998ZM240.174 0.25C237.079 0.25 234.562 2.768 234.562 5.862V269.135C234.562 272.23 237.08 274.747 240.174 274.747H420.921C424.016 274.747 426.533 272.229 426.533 269.135V5.862C426.533 2.768 424.015 0.25 420.921 0.25H240.174Z" fill="#E0E0E0"/>
<path d="M212.494 274.998H31.7468C28.5148 274.998 25.8848 272.368 25.8848 269.136V5.862C25.8848 2.63 28.5138 0 31.7468 0H212.494C215.726 0 218.356 2.629 218.356 5.862V269.135C218.356 272.368 215.726 274.998 212.494 274.998ZM31.7468 0.25C28.6528 0.25 26.1348 2.768 26.1348 5.862V269.135C26.1348 272.23 28.6528 274.747 31.7468 274.747H212.494C215.589 274.747 218.106 272.229 218.106 269.135V5.862C218.106 2.768 215.588 0.25 212.494 0.25H31.7468Z" fill="#E0E0E0"/>
<path d="M477 336.066H-23V336.316H477V336.066Z" fill="#E0E0E0"/>
<path d="M200.882 347.621H147.352V347.871H200.882V347.621Z" fill="#E0E0E0"/>
<path d="M81.9824 359.621H45.7324V359.871H81.9824V359.621Z" fill="#E0E0E0"/>
<path d="M398.542 347.49H355.352V347.74H398.542V347.49Z" fill="#E0E0E0"/>
<path d="M413.781 347.49H407.451V347.74H413.781V347.49Z" fill="#E0E0E0"/>
<path d="M347.103 353.721H293.213V353.971H347.103V353.721Z" fill="#E0E0E0"/>
<path d="M166.44 300.392C165.819 297.397 164.632 294.612 163.009 292.138L165.964 288.568L159.646 282.249L156.076 285.204C153.603 283.582 150.818 282.394 147.823 281.773L147.39 277.172H138.455L138.021 281.773C135.026 282.394 132.241 283.581 129.768 285.204L126.198 282.249L119.88 288.568L122.835 292.138C121.212 294.611 120.025 297.396 119.404 300.391L114.803 300.825V309.76L119.404 310.194C120.025 313.189 121.212 315.973 122.835 318.447L119.88 322.017L126.198 328.335L129.768 325.379C132.241 327.003 135.026 328.189 138.021 328.81L138.455 333.411H147.39L147.823 328.81C150.818 328.189 153.603 327.002 156.076 325.378L159.646 328.334L165.964 322.016L163.009 318.447C164.632 315.973 165.819 313.189 166.44 310.194L171.041 309.76V300.825L166.44 300.392ZM155.019 305.293C155.019 311.973 149.603 317.389 142.923 317.389C136.242 317.389 130.827 311.973 130.827 305.293C130.827 298.612 136.243 293.197 142.923 293.197C149.603 293.196 155.019 298.612 155.019 305.293Z" fill="#E0E0E0"/>
<path d="M98.2668 199.713C97.8368 197.639 97.0148 195.711 95.8908 193.998L97.9368 191.526L93.5618 187.151L91.0898 189.197C89.3768 188.074 87.4488 187.251 85.3748 186.821L85.0748 183.635H78.8878L78.5878 186.821C76.5138 187.251 74.5858 188.073 72.8728 189.197L70.4008 187.151L66.0258 191.526L68.0718 193.998C66.9478 195.71 66.1258 197.639 65.6958 199.713L62.5098 200.013V206.2L65.6958 206.5C66.1258 208.574 66.9478 210.502 68.0718 212.215L66.0258 214.687L70.4008 219.062L72.8728 217.015C74.5848 218.139 76.5138 218.961 78.5878 219.391L78.8878 222.577H85.0748L85.3748 219.391C87.4488 218.961 89.3768 218.139 91.0898 217.015L93.5618 219.062L97.9368 214.687L95.8908 212.215C97.0148 210.502 97.8368 208.574 98.2668 206.5L101.453 206.2V200.013L98.2668 199.713ZM90.3578 203.106C90.3578 207.732 86.6078 211.482 81.9818 211.482C77.3558 211.482 73.6058 207.732 73.6058 203.106C73.6058 198.48 77.3558 194.73 81.9818 194.73C86.6078 194.73 90.3578 198.48 90.3578 203.106Z" fill="#E0E0E0"/>
<path d="M260.087 37.1818C259.338 33.5688 257.906 30.2097 255.948 27.2267L259.513 22.9208L251.892 15.2998L247.586 18.8638C244.603 16.9068 241.244 15.4748 237.631 14.7258L237.108 9.17578H226.331L225.808 14.7258C222.195 15.4748 218.836 16.9068 215.853 18.8638L211.547 15.2998L203.926 22.9208L207.49 27.2267C205.532 30.2097 204.101 33.5688 203.351 37.1818L197.801 37.7048V48.4818L203.351 49.0048C204.1 52.6178 205.532 55.9758 207.49 58.9588L203.926 63.2648L211.547 70.8858L215.853 67.3208C218.836 69.2798 222.195 70.7108 225.808 71.4598L226.331 77.0098H237.109L237.632 71.4608C241.245 70.7118 244.604 69.2798 247.587 67.3218L251.893 70.8868L259.514 63.2658L255.949 58.9608C257.907 55.9768 259.339 52.6188 260.088 49.0058L265.637 48.4828V37.7058L260.087 37.1818ZM246.31 43.0938C246.31 51.1518 239.778 57.6838 231.72 57.6838C223.662 57.6838 217.13 51.1508 217.13 43.0938C217.13 35.0358 223.662 28.5037 231.72 28.5037C239.778 28.5037 246.31 35.0358 246.31 43.0938Z" fill="#F0F0F0"/>
<path d="M361.408 131.558C360.336 126.385 358.286 121.575 355.482 117.304L360.586 111.139L349.674 100.227L343.509 105.33C339.237 102.528 334.428 100.477 329.255 99.405L328.506 91.459H313.074L312.325 99.405C307.153 100.478 302.343 102.528 298.072 105.33L291.907 100.227L280.995 111.139L286.099 117.304C283.296 121.575 281.246 126.384 280.173 131.558L272.227 132.307V147.738L280.173 148.487C281.246 153.66 283.296 158.468 286.099 162.74L280.995 168.905L291.907 179.817L298.072 174.712C302.343 177.516 307.153 179.565 312.325 180.638L313.074 188.584H328.506L329.255 180.639C334.427 179.567 339.237 177.516 343.509 174.712L349.674 179.817L360.586 168.905L355.482 162.741C358.285 158.469 360.335 153.66 361.408 148.488L369.354 147.739V132.308L361.408 131.558ZM341.682 140.022C341.682 151.559 332.329 160.912 320.791 160.912C309.253 160.912 299.9 151.559 299.9 140.022C299.9 128.484 309.253 119.131 320.791 119.131C332.329 119.132 341.682 128.485 341.682 140.022Z" fill="black"/>
<path opacity="0.7" d="M361.408 131.558C360.336 126.385 358.286 121.575 355.482 117.304L360.586 111.139L349.674 100.227L343.509 105.33C339.237 102.528 334.428 100.477 329.255 99.405L328.506 91.459H313.074L312.325 99.405C307.153 100.478 302.343 102.528 298.072 105.33L291.907 100.227L280.995 111.139L286.099 117.304C283.296 121.575 281.246 126.384 280.173 131.558L272.227 132.307V147.738L280.173 148.487C281.246 153.66 283.296 158.468 286.099 162.74L280.995 168.905L291.907 179.817L298.072 174.712C302.343 177.516 307.153 179.565 312.325 180.638L313.074 188.584H328.506L329.255 180.639C334.427 179.567 339.237 177.516 343.509 174.712L349.674 179.817L360.586 168.905L355.482 162.741C358.285 158.469 360.335 153.66 361.408 148.488L369.354 147.739V132.308L361.408 131.558ZM341.682 140.022C341.682 151.559 332.329 160.912 320.791 160.912C309.253 160.912 299.9 151.559 299.9 140.022C299.9 128.484 309.253 119.131 320.791 119.131C332.329 119.132 341.682 128.485 341.682 140.022Z" fill="white"/>
<path d="M429.421 148.176C428.893 145.627 427.883 143.258 426.501 141.153L429.016 138.116L423.64 132.74L420.602 135.254C418.497 133.873 416.128 132.863 413.579 132.335L413.21 128.42H405.607L405.238 132.335C402.69 132.864 400.32 133.874 398.215 135.254L395.177 132.74L389.801 138.116L392.315 141.154C390.934 143.258 389.924 145.628 389.395 148.177L385.48 148.546V156.149L389.395 156.518C389.924 159.066 390.934 161.436 392.315 163.54L389.801 166.578L395.177 171.954L398.215 169.439C400.319 170.821 402.689 171.83 405.238 172.359L405.607 176.274H413.21L413.579 172.359C416.127 171.831 418.497 170.821 420.602 169.439L423.64 171.954L429.016 166.578L426.501 163.541C427.882 161.436 428.892 159.067 429.421 156.518L433.336 156.149V148.546L429.421 148.176ZM419.702 152.346C419.702 158.03 415.094 162.639 409.409 162.639C403.724 162.639 399.116 158.031 399.116 152.346C399.116 146.661 403.724 142.053 409.409 142.053C415.094 142.053 419.702 146.661 419.702 152.346Z" fill="black"/>
<path opacity="0.8" d="M429.421 148.176C428.893 145.627 427.883 143.258 426.501 141.153L429.016 138.116L423.64 132.74L420.602 135.254C418.497 133.873 416.128 132.863 413.579 132.335L413.21 128.42H405.607L405.238 132.335C402.69 132.864 400.32 133.874 398.215 135.254L395.177 132.74L389.801 138.116L392.315 141.154C390.934 143.258 389.924 145.628 389.395 148.177L385.48 148.546V156.149L389.395 156.518C389.924 159.066 390.934 161.436 392.315 163.54L389.801 166.578L395.177 171.954L398.215 169.439C400.319 170.821 402.689 171.83 405.238 172.359L405.607 176.274H413.21L413.579 172.359C416.127 171.831 418.497 170.821 420.602 169.439L423.64 171.954L429.016 166.578L426.501 163.541C427.882 161.436 428.892 159.067 429.421 156.518L433.336 156.149V148.546L429.421 148.176ZM419.702 152.346C419.702 158.03 415.094 162.639 409.409 162.639C403.724 162.639 399.116 158.031 399.116 152.346C399.116 146.661 403.724 142.053 409.409 142.053C415.094 142.053 419.702 146.661 419.702 152.346Z" fill="white"/>
<path d="M164.921 70.5839C164.315 67.6599 163.157 64.9419 161.572 62.5289L164.456 59.0449L158.289 52.8779L154.805 55.7619C152.391 54.1779 149.673 53.0199 146.75 52.4129L146.327 47.9219H137.606L137.183 52.4129C134.26 53.0189 131.542 54.1779 129.128 55.7619L125.644 52.8779L119.477 59.0449L122.361 62.5289C120.777 64.9429 119.619 67.6609 119.012 70.5839L114.521 71.0069V79.7269L119.012 80.1499C119.618 83.0729 120.777 85.7909 122.361 88.2049L119.477 91.6889L125.644 97.8559L129.128 94.9709C131.542 96.5559 134.26 97.7139 137.183 98.3199L137.606 102.811H146.327L146.75 98.3209C149.673 97.7149 152.391 96.5559 154.805 94.9709L158.289 97.8559L164.456 91.6889L161.572 88.2049C163.156 85.7899 164.315 83.0729 164.921 80.1499L169.411 79.7269V71.0069L164.921 70.5839ZM153.773 75.3669C153.773 81.8869 148.487 87.1729 141.967 87.1729C135.447 87.1729 130.161 81.8869 130.161 75.3669C130.161 68.8469 135.447 63.5609 141.967 63.5609C148.487 63.5609 153.773 68.8469 153.773 75.3669Z" fill="black"/>
<path opacity="0.8" d="M164.921 70.5839C164.315 67.6599 163.157 64.9419 161.572 62.5289L164.456 59.0449L158.289 52.8779L154.805 55.7619C152.391 54.1779 149.673 53.0199 146.75 52.4129L146.327 47.9219H137.606L137.183 52.4129C134.26 53.0189 131.542 54.1779 129.128 55.7619L125.644 52.8779L119.477 59.0449L122.361 62.5289C120.777 64.9429 119.619 67.6609 119.012 70.5839L114.521 71.0069V79.7269L119.012 80.1499C119.618 83.0729 120.777 85.7909 122.361 88.2049L119.477 91.6889L125.644 97.8559L129.128 94.9709C131.542 96.5559 134.26 97.7139 137.183 98.3199L137.606 102.811H146.327L146.75 98.3209C149.673 97.7149 152.391 96.5559 154.805 94.9709L158.289 97.8559L164.456 91.6889L161.572 88.2049C163.156 85.7899 164.315 83.0729 164.921 80.1499L169.411 79.7269V71.0069L164.921 70.5839ZM153.773 75.3669C153.773 81.8869 148.487 87.1729 141.967 87.1729C135.447 87.1729 130.161 81.8869 130.161 75.3669C130.161 68.8469 135.447 63.5609 141.967 63.5609C148.487 63.5609 153.773 68.8469 153.773 75.3669Z" fill="white"/>
<path d="M346.408 60.8707C346.031 59.0507 345.309 57.3587 344.323 55.8557L346.119 53.6867L342.28 49.8467L340.111 51.6427C338.608 50.6567 336.916 49.9357 335.096 49.5577L334.833 46.7617H329.403L329.14 49.5577C327.32 49.9347 325.628 50.6567 324.125 51.6427L321.956 49.8467L318.116 53.6867L319.912 55.8557C318.926 57.3587 318.204 59.0507 317.827 60.8707L315.031 61.1347V66.5637L317.827 66.8277C318.205 68.6477 318.926 70.3397 319.912 71.8427L318.116 74.0117L321.956 77.8517L324.125 76.0557C325.628 77.0427 327.32 77.7637 329.14 78.1407L329.403 80.9367H334.833L335.096 78.1407C336.916 77.7637 338.608 77.0417 340.111 76.0557L342.28 77.8517L346.119 74.0117L344.323 71.8427C345.31 70.3397 346.031 68.6477 346.408 66.8277L349.204 66.5637V61.1347L346.408 60.8707ZM339.467 63.8487C339.467 67.9077 336.176 71.1987 332.117 71.1987C328.058 71.1987 324.766 67.9077 324.766 63.8487C324.766 59.7887 328.057 56.4977 332.117 56.4977C336.177 56.4977 339.467 59.7897 339.467 63.8487Z" fill="black"/>
<path opacity="0.8" d="M346.408 60.8707C346.031 59.0507 345.309 57.3587 344.323 55.8557L346.119 53.6867L342.28 49.8467L340.111 51.6427C338.608 50.6567 336.916 49.9357 335.096 49.5577L334.833 46.7617H329.403L329.14 49.5577C327.32 49.9347 325.628 50.6567 324.125 51.6427L321.956 49.8467L318.116 53.6867L319.912 55.8557C318.926 57.3587 318.204 59.0507 317.827 60.8707L315.031 61.1347V66.5637L317.827 66.8277C318.205 68.6477 318.926 70.3397 319.912 71.8427L318.116 74.0117L321.956 77.8517L324.125 76.0557C325.628 77.0427 327.32 77.7637 329.14 78.1407L329.403 80.9367H334.833L335.096 78.1407C336.916 77.7637 338.608 77.0417 340.111 76.0557L342.28 77.8517L346.119 74.0117L344.323 71.8427C345.31 70.3397 346.031 68.6477 346.408 66.8277L349.204 66.5637V61.1347L346.408 60.8707ZM339.467 63.8487C339.467 67.9077 336.176 71.1987 332.117 71.1987C328.058 71.1987 324.766 67.9077 324.766 63.8487C324.766 59.7887 328.057 56.4977 332.117 56.4977C336.177 56.4977 339.467 59.7897 339.467 63.8487Z" fill="white"/>
<path d="M445.598 395.762C445.598 403.625 352.081 409.999 236.723 409.999C121.365 409.999 27.8477 403.625 27.8477 395.762C27.8477 387.899 121.364 381.525 236.723 381.525C352.082 381.525 445.598 387.898 445.598 395.762Z" fill="#F5F5F5"/>
<path d="M418.011 269.141H397.27C392.418 269.141 388.486 265.208 388.486 260.357V239.616C388.486 234.764 392.419 230.832 397.27 230.832H418.011C422.863 230.832 426.795 234.765 426.795 239.616V260.357C426.796 265.208 422.863 269.141 418.011 269.141Z" fill="#00C5FF"/>
<path opacity="0.5" d="M418.011 269.141H397.27C392.418 269.141 388.486 265.208 388.486 260.357V239.616C388.486 234.764 392.419 230.832 397.27 230.832H418.011C422.863 230.832 426.795 234.765 426.795 239.616V260.357C426.796 265.208 422.863 269.141 418.011 269.141Z" fill="white"/>
<path d="M404.258 253.148H398.758L397.786 255.67H392.824L399.15 241.197H403.947L410.274 255.67H405.229L404.258 253.148ZM402.914 249.633L401.508 245.994L400.102 249.633H402.914Z" fill="#00C5FF"/>
<path d="M422.105 249.591V255.67H417.762V254.182C417.225 255.319 416.15 255.877 414.558 255.877C411.788 255.877 410.361 254.306 410.361 252.361C410.361 250.17 412.015 248.95 415.53 248.95H417.412C417.266 248.082 416.605 247.627 415.282 247.627C414.268 247.627 413.132 247.958 412.387 248.517L410.898 245.436C412.221 244.609 414.227 244.154 415.985 244.154C419.871 244.154 422.105 245.829 422.105 249.591ZM417.432 251.99V251.205H416.274C415.282 251.205 414.847 251.536 414.847 252.156C414.847 252.673 415.261 253.065 415.964 253.065C416.605 253.065 417.184 252.735 417.432 251.99Z" fill="#00C5FF"/>
<path d="M391.756 226.869H356.888C354.099 226.869 351.838 224.608 351.838 221.819V192.706C351.838 189.917 354.099 187.656 356.888 187.656H391.756C394.545 187.656 396.806 189.917 396.806 192.706V221.819C396.806 224.608 394.545 226.869 391.756 226.869Z" fill="#00C5FF"/>
<path opacity="0.6" d="M391.756 226.869H356.888C354.099 226.869 351.838 224.608 351.838 221.819V192.706C351.838 189.917 354.099 187.656 356.888 187.656H391.756C394.545 187.656 396.806 189.917 396.806 192.706V221.819C396.806 224.608 394.545 226.869 391.756 226.869Z" fill="white"/>
<path d="M386.271 205.953L375.686 214.24L369.135 210.353C367.92 209.632 366.385 209.743 365.287 210.632L351.886 221.473C351.833 224.439 354.22 226.874 357.187 226.878L391.483 226.93C394.432 226.897 396.806 224.496 396.806 221.547V209.448L390.112 205.666C388.891 204.975 387.375 205.089 386.271 205.953Z" fill="#00C5FF"/>
<path d="M381.236 199.663C381.236 202.347 379.11 204.523 376.489 204.523C373.867 204.523 371.742 202.347 371.742 199.663C371.742 196.979 373.868 194.803 376.489 194.803C379.111 194.803 381.236 196.979 381.236 199.663Z" fill="#00C5FF"/>
<path d="M379.129 234.383H367.092V246.42H379.129V234.383Z" fill="#00C5FF"/>
<path d="M379.129 249.211H367.092V261.248H379.129V249.211Z" fill="black"/>
<path d="M415.43 197.088H403.393V209.125H415.43V197.088Z" fill="#00C5FF"/>
<path opacity="0.8" d="M415.43 197.088H403.393V209.125H415.43V197.088Z" fill="white"/>
<path d="M88.0365 40.5741C95.4145 32.3731 108.043 31.7061 116.243 39.0841C124.444 46.4621 125.111 59.0911 117.733 67.2911C112.037 73.6221 103.218 75.4421 95.7165 72.5571L90.3815 75.3001L89.7835 68.9901C89.6995 68.9171 89.6095 68.8561 89.5265 68.7811C81.3265 61.4041 80.6595 48.7751 88.0365 40.5741Z" fill="#00C5FF"/>
<g opacity="0.3">
<path d="M88.0365 40.5741C95.4145 32.3731 108.043 31.7061 116.243 39.0841C124.444 46.4621 125.111 59.0911 117.733 67.2911C112.037 73.6221 103.218 75.4421 95.7165 72.5571L90.3815 75.3001L89.7835 68.9901C89.6995 68.9171 89.6095 68.8561 89.5265 68.7811C81.3265 61.4041 80.6595 48.7751 88.0365 40.5741Z" fill="white"/>
</g>
<path d="M90.0198 35.2578C84.3488 38.4228 80.4758 44.5938 80.0918 51.0758" stroke="#00C5FF" stroke-width="0.5" stroke-miterlimit="10" stroke-linecap="round" stroke-linejoin="round"/>
<path d="M80.0207 54.0547C79.8887 55.0367 79.9627 56.0447 80.2357 56.9977" stroke="#00C5FF" stroke-width="0.5" stroke-miterlimit="10" stroke-linecap="round" stroke-linejoin="round"/>
<path d="M102.142 61.9547L93.7109 54.2607L96.3959 51.3187L102.05 56.4777L111.443 47.3047L114.226 50.1537L102.142 61.9547Z" fill="white"/>
<path d="M155.441 142.861C155.441 142.861 154.184 140.379 154.925 138.201C155.666 136.023 155.679 134.087 156.342 132.506C157.005 130.925 157.723 133.125 157.868 134.372C158.013 135.619 158.19 137.032 159.109 136.771C160.028 136.511 165.774 130.634 167.089 130.418C168.405 130.202 167.773 131.443 167.773 131.443C167.773 131.443 169.207 130.053 169.912 130.471C170.095 130.579 170.345 131.129 169.791 131.865C168.544 133.52 165.749 136.859 165.749 136.859C165.905 136.664 169.65 132.789 170.287 132.282C171.119 131.619 171.849 131.731 172.218 132.226C172.742 132.93 168.264 137.893 168.221 138.234C168.221 138.234 170.704 135.291 171.815 135.516C172.925 135.741 171.463 137.679 169.85 139.143C168.371 140.485 165.82 143.505 164.184 144.723C162.168 146.224 160.477 146.78 158.413 145.64C156.348 144.503 155.441 142.861 155.441 142.861Z" fill="#E9B376"/>
<path opacity="0.3" d="M167.549 131.59C166.428 132.733 165.359 133.926 164.346 135.166" stroke="black" stroke-width="0.25" stroke-miterlimit="10" stroke-linecap="round" stroke-linejoin="round"/>
<path opacity="0.3" d="M167.294 139.412C166.25 137.627 164.671 136.161 162.812 135.252" stroke="black" stroke-width="0.25" stroke-miterlimit="10" stroke-linecap="round" stroke-linejoin="round"/>
<path opacity="0.3" d="M159.276 137.789C159.783 138.462 160.047 139.314 160.008 140.156C159.969 140.998 159.628 141.822 159.061 142.446" stroke="black" stroke-width="0.25" stroke-miterlimit="10" stroke-linecap="round" stroke-linejoin="round"/>
<path d="M109.729 130.093C109.729 130.093 114.018 129.353 121.19 137.186C130.255 147.087 137.584 154.505 137.584 154.505L156.818 140.921L161.584 145.629C161.584 145.629 143.638 167.92 139.143 169.11C134.648 170.3 132.692 168.783 129.783 166.403C126.874 164.023 108.762 145.779 109.159 145.911C109.556 146.044 109.729 130.093 109.729 130.093Z" fill="#EBB373"/>
<path d="M115.649 375.811C115.584 375.226 113.483 362.996 113.483 362.996L101.766 365.663L105.073 378.178L113.092 379.532L115.649 375.811Z" fill="#EBB373"/>
<path d="M20.79 141.803C21.38 142.164 42.208 160.223 42.449 160.103C42.69 159.983 64.24 143.007 65.565 142.405C66.889 141.803 73.789 153.842 73.168 153.842C72.548 153.842 51.967 171.959 43.383 172.441C34.799 172.923 16.582 144.933 16.582 144.933L20.79 141.803Z" fill="#EBB373"/>
<path d="M201.364 351.702L194.242 357.901L177.949 343.738L185.071 337.529L201.364 351.702Z" fill="#EBB373"/>
<path d="M187.805 355.471L190.447 352.808C191.045 352.205 191.903 351.95 192.742 352.077C196.363 352.622 196.715 350.681 196.401 347.054C197.331 345.869 198.833 346.792 199.247 347.031L208.465 352.225C209.241 352.652 209.525 353.628 209.097 354.404C209.021 354.542 208.925 354.668 208.812 354.778C205.603 358.012 204.085 359.543 200.091 363.568L187.877 375.879C184.548 379.235 180.475 376.575 181.534 374.882C186.328 367.303 188.865 361.086 188.963 357.37C189.001 356.701 188.402 356.831 187.805 355.471Z" fill="black"/>
<path d="M185.231 360.489C186.401 360.307 187.55 360.004 188.657 359.584C188.759 359.532 188.8 359.406 188.747 359.304C188.719 359.249 188.667 359.209 188.606 359.196C188.05 359.009 183.115 357.445 182.057 358.423C181.857 358.594 181.772 358.864 181.839 359.118C181.908 359.599 182.201 360.019 182.629 360.25C183.45 360.604 184.361 360.688 185.231 360.489ZM187.893 359.4C186.554 359.835 184.048 360.508 182.889 359.857C182.587 359.677 182.377 359.376 182.311 359.031C182.275 358.924 182.309 358.807 182.396 358.736C182.98 358.202 185.851 358.802 187.893 359.4Z" fill="#00C5FF"/>
<path d="M188.609 359.601C188.658 359.609 188.709 359.602 188.755 359.582C188.81 359.52 188.823 359.431 188.787 359.355C188.762 359.161 187.069 354.726 184.557 355.351C183.937 355.519 183.794 355.846 183.803 356.104C183.804 357.339 187.031 359.251 188.504 359.651L188.609 359.601ZM184.86 355.682C186.475 355.471 187.76 358.02 188.215 359.047C186.592 358.444 184.217 356.816 184.254 356.058C184.246 355.997 184.224 355.827 184.691 355.717L184.86 355.682Z" fill="#00C5FF"/>
<path d="M188.025 359.359C189.06 358.566 190.453 358.259 191.726 358.543" stroke="#00C5FF" stroke-width="0.5" stroke-miterlimit="10" stroke-linecap="round" stroke-linejoin="round"/>
<path d="M187.631 362.252C188.666 361.459 190.059 361.152 191.332 361.436" stroke="#00C5FF" stroke-width="0.5" stroke-miterlimit="10" stroke-linecap="round" stroke-linejoin="round"/>
<path d="M186.635 365.35C187.67 364.557 189.063 364.25 190.336 364.534" stroke="#00C5FF" stroke-width="0.5" stroke-miterlimit="10" stroke-linecap="round" stroke-linejoin="round"/>
<path d="M64.5831 387.31C72.4206 386.308 77.8307 378.115 76.6668 369.011C75.5029 359.906 68.2058 353.337 60.3682 354.339C52.5307 355.341 47.1206 363.534 48.2845 372.639C49.4484 381.743 56.7455 388.312 64.5831 387.31Z" fill="#00C5FF"/>
<path opacity="0.4" d="M64.5831 387.31C72.4206 386.308 77.8307 378.115 76.6668 369.011C75.5029 359.906 68.2058 353.337 60.3682 354.339C52.5307 355.341 47.1206 363.534 48.2845 372.639C49.4484 381.743 56.7455 388.312 64.5831 387.31Z" fill="black"/>
<path d="M16.3555 123.131L25.8625 92.2969L44.7195 119.507L76.4565 367.872L48.0935 371.496L16.3555 123.131Z" fill="#00C5FF"/>
<path opacity="0.3" d="M31.6055 121.65L64.9515 369.686L71.5545 368.842C72.5655 368.4 38.6615 120.748 38.6615 120.748C35.6735 125.893 31.6055 121.65 31.6055 121.65Z" fill="white"/>
<path opacity="0.3" d="M23.4493 122.748C21.3543 126.356 19.4243 126.125 18.1133 125.193L51.2263 371.495L57.8293 370.651C58.7923 370.23 28.1023 145.701 25.1623 124.209C24.1203 123.585 23.4493 122.748 23.4493 122.748Z" fill="white"/>
<path d="M47.7408 374.708L77.7814 370.868L77.1618 366.021L47.1211 369.861L47.7408 374.708Z" fill="black"/>
<path d="M103.616 374.766H107.368C108.217 374.766 109.002 375.196 109.504 375.88C111.667 378.835 113.294 377.718 115.647 374.94C117.143 374.766 117.546 376.483 117.668 376.944L120.473 387.146C120.717 387.998 120.224 388.886 119.372 389.13C119.22 389.173 119.063 389.194 118.906 389.192C114.35 389.192 112.194 389.192 106.524 389.192H89.1818C84.4538 389.192 83.4748 384.428 85.4218 383.987C94.1788 382.052 100.38 379.475 103.086 376.928C103.586 376.481 103.07 376.147 103.616 374.766Z" fill="black"/>
<path d="M98.2395 376.471C99.1925 377.174 100.218 377.775 101.296 378.266C101.405 378.302 101.523 378.242 101.558 378.132C101.577 378.073 101.569 378.008 101.536 377.956C101.277 377.43 98.9115 372.824 97.4725 372.762C97.2105 372.74 96.9585 372.871 96.8255 373.097C96.5325 373.485 96.4405 373.989 96.5785 374.455C96.9035 375.287 97.4855 375.994 98.2395 376.471ZM100.888 377.593C99.6365 376.949 97.3925 375.644 97.0385 374.363C96.9535 374.022 97.0185 373.661 97.2185 373.371C97.2685 373.27 97.3765 373.212 97.4885 373.223C98.2775 373.263 99.8735 375.723 100.888 377.593Z" fill="#00C5FF"/>
<path d="M101.249 378.246C101.278 378.287 101.319 378.318 101.365 378.336C101.448 378.331 101.52 378.277 101.548 378.199C101.668 378.044 103.625 373.719 101.412 372.376C100.856 372.054 100.523 372.183 100.346 372.372C99.4701 373.243 100.385 376.88 101.139 378.208L101.249 378.246ZM101.391 372.824C102.679 373.822 101.774 376.529 101.365 377.576C100.65 375.999 100.133 373.167 100.697 372.659C100.735 372.611 100.84 372.475 101.247 372.729L101.391 372.824Z" fill="#00C5FF"/>
<path d="M101.01 377.66C102.302 377.836 103.501 378.608 104.196 379.712" stroke="#00C5FF" stroke-width="0.5" stroke-miterlimit="10" stroke-linecap="round" stroke-linejoin="round"/>
<path d="M98.6797 379.416C99.9717 379.592 101.171 380.365 101.866 381.468" stroke="#00C5FF" stroke-width="0.5" stroke-miterlimit="10" stroke-linecap="round" stroke-linejoin="round"/>
<path d="M95.7773 380.893C97.0693 381.069 98.2683 381.842 98.9633 382.945" stroke="#00C5FF" stroke-width="0.5" stroke-miterlimit="10" stroke-linecap="round" stroke-linejoin="round"/>
<path d="M75.3485 137.366C75.3485 137.366 68.7165 152.175 69.5395 157.982C70.6395 165.739 77.3145 175.441 83.7885 190.19L120.13 184.558C115.717 169.857 112.372 161.643 109.757 129.049C104.377 129.045 101.892 129.293 96.5735 130.432C90.9045 131.574 85.3245 133.117 79.8745 135.048C72.8635 137.636 75.3485 137.366 75.3485 137.366Z" fill="black"/>
<path d="M107.59 129.555C107.59 129.555 109.933 128.155 113.627 129.992C117.321 131.83 128.127 142.509 128.127 142.509C128.127 142.509 115.236 158.56 115.046 158.56C114.856 158.56 107.969 149.208 107.969 149.208L107.59 129.555Z" fill="black"/>
<path d="M70.1361 154.911L61.3281 144.608C61.3281 144.608 72.1301 137.379 75.2041 136.216C78.2791 135.053 79.8731 135.051 79.8731 135.051L70.1361 154.911Z" fill="black"/>
<path d="M83.787 190.19C77.54 211.558 79.164 260.812 84.823 296.34C88.883 328.437 98.616 368.983 98.616 368.983L118.171 365.917C118.171 365.917 111.627 313.354 110.055 290.943C107.925 260.061 107.798 186.47 107.798 186.47L81.871 185.807L83.787 190.19Z" fill="#00C5FF"/>
<path opacity="0.4" d="M83.787 190.19C77.54 211.558 79.164 260.812 84.823 296.34C88.883 328.437 98.616 368.983 98.616 368.983L118.171 365.917C118.171 365.917 111.627 313.354 110.055 290.943C107.925 260.061 107.798 186.47 107.798 186.47L81.871 185.807L83.787 190.19Z" fill="black"/>
<path opacity="0.2" d="M108.208 213.822C105.641 206.984 103.9 203.357 103.443 210.165C102.489 224.571 104.63 241.037 108.364 249.204C108.394 236.959 108.015 224.393 108.208 213.822Z" fill="black"/>
<path d="M82.0586 185.807C82.0586 185.807 94.9866 199.782 104.516 219.967C114.44 240.989 121.121 268.579 128.439 285.565C140.025 312.46 182.402 350.039 182.402 350.039L192.415 341.73C192.415 341.73 162.141 298.896 154.126 280.655C128.458 222.258 136.078 197.524 120.129 184.477L118.624 179.441L82.0586 185.807Z" fill="#00C5FF"/>
<path opacity="0.4" d="M82.0586 185.807C82.0586 185.807 94.9866 199.782 104.516 219.967C114.44 240.989 121.121 268.579 128.439 285.565C140.025 312.46 182.402 350.039 182.402 350.039L192.415 341.73C192.415 341.73 162.141 298.896 154.126 280.655C128.458 222.258 136.078 197.524 120.129 184.477L118.624 179.441L82.0586 185.807Z" fill="black"/>
<path d="M69.2278 99.4918C69.2888 99.4718 69.3428 99.4318 69.3798 99.3798C69.4518 99.2478 69.4038 99.0828 69.2738 99.0078C66.4758 96.9848 65.6328 93.1888 67.3118 90.1718C70.1178 84.7178 77.1838 86.6498 77.2568 86.6638C77.3958 86.7278 77.5598 86.6668 77.6228 86.5288C77.6868 86.3898 77.6258 86.2258 77.4878 86.1628C77.4618 86.1508 77.4338 86.1428 77.4058 86.1398C77.3418 86.1578 69.8288 84.0658 66.8168 89.9238C65.0588 93.1908 65.9698 97.2528 68.9548 99.4558C69.0338 99.5098 69.1348 99.5238 69.2278 99.4918Z" fill="black"/>
<path d="M69.7536 99.6851C69.8426 99.6591 69.9126 99.5921 69.9436 99.5051C69.9856 99.3621 69.9066 99.2121 69.7666 99.1651C69.7666 99.1651 66.4546 98.0672 65.4276 95.6382C64.9386 94.3682 65.0466 92.9452 65.7216 91.7632C65.7986 91.6312 65.7536 91.4622 65.6216 91.3862C65.6186 91.3842 65.6156 91.3831 65.6126 91.3811C65.4766 91.3091 65.3076 91.3571 65.2306 91.4901C64.4816 92.8171 64.3676 94.4091 64.9196 95.8291C66.0486 98.4931 69.4466 99.6121 69.5986 99.6611C69.6456 99.6851 69.7006 99.6941 69.7536 99.6851Z" fill="black"/>
<path d="M101.175 118.607C103.23 118.204 104.974 116.854 105.878 114.966C105.95 114.834 105.902 114.669 105.772 114.594C105.646 114.519 105.484 114.56 105.408 114.686C105.405 114.691 105.402 114.696 105.4 114.701C103.527 119.441 94.1287 118.554 94.0347 118.546C93.8837 118.528 93.7457 118.636 93.7277 118.787C93.7277 118.79 93.7267 118.792 93.7267 118.795C93.7087 118.94 93.8117 119.073 93.9567 119.091C93.9617 119.092 93.9667 119.092 93.9727 119.092C96.3837 119.333 98.8177 119.169 101.175 118.607Z" fill="black"/>
<path d="M138.972 102.916C137.119 103.865 135.013 104.311 132.935 104.195C135.728 101.724 136.809 97.4939 135.543 93.9859C130.726 97.6049 123.693 97.9629 118.534 94.8529C114.72 92.5539 111.916 88.5949 107.707 87.1419C104.055 85.8809 96.4705 86.1339 95.4805 91.5339L97.1175 95.5179C99.9195 94.2789 104.277 98.5569 105.815 101.207C107.353 103.857 107.556 107.041 107.865 110.09C108.173 113.138 108.703 116.355 110.704 118.676C112.44 120.689 115.099 121.745 117.747 121.979C120.395 122.213 123.054 121.7 125.62 121.003C126.676 120.716 127.775 120.368 128.529 119.574C129.283 118.78 129.534 117.404 128.781 116.61C126.936 116.899 124.997 116.544 123.375 115.619C127.259 115.935 131.35 115.277 134.531 113.026C137.708 110.774 139.768 106.73 138.972 102.916Z" fill="black"/>
<path d="M68.8585 101.596C66.7435 96.4866 68.7555 90.6036 73.5555 87.8586C76.7295 85.8166 80.9745 85.5456 85.0365 86.0036C93.8955 87.0016 100.766 94.3016 101.345 103.199C101.821 110.514 99.7635 118.437 89.4695 120.506C69.1505 124.59 68.8585 101.596 68.8585 101.596Z" fill="black"/>
<path d="M98.0156 130.224C98.0156 130.224 94.8456 133.291 90.8116 137.656C89.9716 138.565 89.0246 139.377 88.0036 140.078C85.2496 141.969 82.6786 143.164 81.7946 141.834C81.5986 141.542 81.4356 141.219 81.3046 140.877C80.4206 138.58 80.2936 135.225 82.0326 133.484C83.9936 131.521 84.8666 129.934 84.2126 127.654C83.8586 126.36 83.2266 125.054 82.5186 123.797L84.8386 122.018L92.6946 112.047C92.3056 117.655 92.9696 127.51 98.0156 130.224Z" fill="#EBB373"/>
<path opacity="0.2" d="M84.3425 128.157C86.6185 126.429 89.0115 123.61 88.3625 120.775C88.0815 119.582 87.6905 118.466 87.3165 117.764L83.1055 124.895C83.6335 125.906 83.8625 126.589 84.3425 128.157Z" fill="black"/>
<path d="M93.2649 101.749C93.4689 110.965 93.7478 114.852 89.5868 120.171C83.3268 128.172 72.1588 126.993 69.2538 118.166C66.6388 110.221 66.7449 96.4844 75.2619 91.6314C83.6529 86.8484 93.0609 92.5334 93.2649 101.749Z" fill="#EBB373"/>
<path d="M81.3121 106.142C81.3771 107.112 80.9451 107.964 80.3461 108.045C79.7481 108.126 79.2101 107.405 79.1451 106.435C79.0801 105.465 79.5121 104.613 80.1101 104.532C80.7091 104.451 81.2471 105.172 81.3121 106.142Z" fill="black"/>
<path d="M72.0407 107.148C72.1017 108.088 71.6677 108.916 71.0717 108.997C70.4747 109.077 69.9417 108.381 69.8807 107.44C69.8197 106.5 70.2537 105.672 70.8507 105.592C71.4467 105.51 71.9797 106.207 72.0407 107.148Z" fill="black"/>
<path d="M83.3089 102.487C83.1939 102.513 83.0729 102.493 82.9729 102.42C81.4199 101.279 79.8899 101.916 79.8719 101.924C79.6449 102.019 79.3929 101.913 79.3119 101.68C79.2319 101.447 79.3519 101.179 79.5809 101.08C79.6609 101.046 81.5809 100.245 83.5089 101.661C83.7009 101.802 83.7369 102.087 83.5889 102.296C83.5179 102.398 83.4169 102.463 83.3089 102.487Z" fill="black"/>
<path d="M69.243 102.831C69.148 102.811 69.063 102.751 69.012 102.656C68.906 102.459 68.977 102.185 69.172 102.044C71.123 100.634 72.77 101.349 72.84 101.381C73.036 101.469 73.11 101.723 73.004 101.949C72.9 102.174 72.656 102.285 72.46 102.198C72.396 102.169 71.109 101.636 69.558 102.757C69.458 102.83 69.344 102.853 69.243 102.831Z" fill="black"/>
<path d="M75.1872 106.34C75.1872 106.34 74.1492 109.917 72.7822 112.229C72.5432 112.633 72.7792 113.156 73.2352 113.267C74.4092 113.553 75.6842 113.028 75.6842 113.028L75.1872 106.34Z" fill="#E4873E"/>
<path d="M80.4586 104.531L78.3086 104.275C78.3086 104.275 79.6316 105.706 80.4586 104.531Z" fill="black"/>
<path d="M71.1695 105.59L69.0195 105.334C69.0195 105.334 70.3425 106.765 71.1695 105.59Z" fill="black"/>
<path d="M87.2708 103.743C87.2708 103.743 83.0298 97.776 85.6328 92.671C85.6328 92.671 68.3118 89.823 67.8018 106.455C67.8018 106.455 64.3268 91.256 79.6318 88.026C94.9368 84.795 99.0778 107.288 92.3888 115.46C92.3848 115.484 90.6728 107.877 87.2708 103.743Z" fill="black"/>
<path d="M96.87 108.869C96.006 110.862 94.389 112.237 92.83 112.822C90.485 113.703 88.796 109.963 89.344 107.45C89.838 105.188 92.046 103.476 94.45 103.683C96.818 103.888 97.859 106.59 96.87 108.869Z" fill="#EBB373"/>
<path opacity="0.2" d="M91.7125 108.965C91.6715 108.095 91.9885 107.213 92.5745 106.568C93.1605 105.923 94.0075 105.522 94.8775 105.479" stroke="black" stroke-width="0.5" stroke-miterlimit="10" stroke-linecap="round" stroke-linejoin="round"/>
<path d="M75.3887 116.029C76.0727 116.917 76.6937 117.853 77.2457 118.829L77.8197 118.665C80.3367 117.705 81.1787 116.43 81.3757 115.351C81.4537 114.802 81.3967 114.243 81.2087 113.721C81.1137 113.421 80.9777 113.135 80.8047 112.871C79.5167 114.155 77.9647 115.143 76.2567 115.767C75.7217 115.91 75.3887 116.029 75.3887 116.029Z" fill="black"/>
<path d="M76.2324 115.685L76.8084 116.497C79.1694 115.593 80.7214 114.632 81.1834 113.639C81.0874 113.339 80.9524 113.053 80.7794 112.789C79.4924 114.072 77.9404 115.061 76.2324 115.685Z" fill="white"/>
<path d="M77.8066 118.625C80.3236 117.665 81.1656 116.39 81.3626 115.311C80.4116 115.692 79.5376 116.242 78.7816 116.933C78.2896 117.383 77.9496 117.974 77.8066 118.625Z" fill="#C15854"/>
<path opacity="0.2" d="M69.6141 154.91L71.8361 146.887C71.8361 146.887 66.5251 152.457 68.0391 157.802L69.4671 156.673L69.6141 154.91Z" fill="black"/>
<path opacity="0.2" d="M112.796 155.699C112.796 155.699 108.404 149.83 108.404 149.799L114.045 162.451L112.796 155.699Z" fill="black"/>
<path d="M289.585 383.155H161.235C151.121 383.155 142.922 374.956 142.922 364.842V70.1485C142.922 54.5685 155.552 41.9375 171.133 41.9375H282.869C298.45 41.9375 311.08 54.5685 311.08 70.1485V361.66C311.08 373.531 301.456 383.155 289.585 383.155Z" fill="#00C5FF"/>
<path d="M283.612 375.13H170.39C158.971 375.13 149.713 365.873 149.713 354.453V70.6399C149.713 59.2209 158.97 49.9629 170.39 49.9629H283.613C295.032 49.9629 304.29 59.2199 304.29 70.6399V354.454C304.289 365.873 295.032 375.13 283.612 375.13Z" fill="white"/>
<path d="M256.371 65.127H192.775V69.103H256.371V65.127Z" stroke="#00C5FF" stroke-miterlimit="10"/>
<path d="M280.374 62.7714C280.374 63.6204 279.693 64.3094 278.852 64.3094C278.011 64.3094 277.33 63.6214 277.33 62.7714C277.33 61.9224 278.011 61.2344 278.852 61.2344C279.692 61.2344 280.374 61.9224 280.374 62.7714Z" fill="#00C5FF"/>
<path d="M280.374 66.6845C280.374 67.5335 279.693 68.2215 278.852 68.2215C278.011 68.2215 277.33 67.5335 277.33 66.6845C277.33 65.8355 278.011 65.1465 278.852 65.1465C279.692 65.1465 280.374 65.8355 280.374 66.6845Z" fill="#00C5FF"/>
<path d="M280.374 70.5956C280.374 71.4446 279.693 72.1336 278.852 72.1336C278.011 72.1336 277.33 71.4456 277.33 70.5956C277.33 69.7456 278.011 69.0586 278.852 69.0586C279.692 69.0576 280.374 69.7466 280.374 70.5956Z" fill="#00C5FF"/>
<path d="M175.155 63.8496L172.24 66.6496L175.155 69.5196" stroke="#00C5FF" stroke-miterlimit="10" stroke-linecap="round" stroke-linejoin="round"/>
<path d="M291.837 93.7383H162.637V116.571H291.837V93.7383Z" stroke="#00C5FF" stroke-miterlimit="10"/>
<path d="M149.664 82.2207C201.437 82.2207 253.21 82.2207 304.983 82.2207" stroke="#00C5FF" stroke-miterlimit="10"/>
<path d="M291.837 127.531H162.637V192.844H291.837V127.531Z" stroke="#00C5FF" stroke-miterlimit="10"/>
<path d="M162.637 192.846L203.319 160.039C204.771 158.868 206.793 158.739 208.379 159.716L229.557 172.758L257.227 151.38C258.843 150.132 261.056 150.028 262.779 151.121L291.837 169.547" stroke="#00C5FF" stroke-miterlimit="10"/>
<path d="M228.748 154.909C233.217 154.909 236.84 151.249 236.84 146.734C236.84 142.219 233.217 138.559 228.748 138.559C224.279 138.559 220.656 142.219 220.656 146.734C220.656 151.249 224.279 154.909 228.748 154.909Z" stroke="#00C5FF" stroke-miterlimit="10"/>
<path d="M191.36 202.691H162.637V209.332H191.36V202.691Z" stroke="#00C5FF" stroke-miterlimit="10"/>
<path d="M291.837 217.08H162.637V221.507H291.837V217.08Z" stroke="#00C5FF" stroke-miterlimit="10"/>
<path d="M291.837 227.041H162.637V231.468H291.837V227.041Z" stroke="#00C5FF" stroke-miterlimit="10"/>
<path d="M220.231 237.002H162.637V241.429H220.231V237.002Z" stroke="#00C5FF" stroke-miterlimit="10"/>
<path d="M291.837 318.076H162.637V322.503H291.837V318.076Z" stroke="#00C5FF" stroke-miterlimit="10"/>
<path d="M291.837 328.037H162.637V332.464H291.837V328.037Z" stroke="#00C5FF" stroke-miterlimit="10"/>
<path d="M220.231 337.998H162.637V342.425H220.231V337.998Z" stroke="#00C5FF" stroke-miterlimit="10"/>
<path d="M217.178 251.51H162.609V306.639H217.178V251.51Z" stroke="#00C5FF" stroke-miterlimit="10"/>
<path d="M162.609 306.639L217.179 251.51" stroke="#00C5FF" stroke-miterlimit="10"/>
<path d="M217 306.639L162.43 251.51" stroke="#00C5FF" stroke-miterlimit="10"/>
<path d="M289.239 252.012H234.67V307.141H289.239V252.012Z" stroke="#00C5FF" stroke-miterlimit="10"/>
<path d="M234.67 307.141L289.239 252.012" stroke="#00C5FF" stroke-miterlimit="10"/>
<path d="M289.059 307.141L234.49 252.012" stroke="#00C5FF" stroke-miterlimit="10"/>
<path d="M324.55 346.1C324.55 346.1 414.311 327.843 418.003 346.536C423.274 373.219 358.43 389.153 324.204 387.051C289.978 384.949 324.55 346.1 324.55 346.1Z" fill="black"/>
<path opacity="0.2" d="M324.55 346.1C324.55 346.1 414.311 327.843 418.003 346.536C423.274 373.219 358.43 389.153 324.204 387.051C289.978 384.949 324.55 346.1 324.55 346.1Z" fill="black"/>
<path opacity="0.2" d="M388.585 351.403L345.936 376.774L351.289 384.879C351.289 384.879 348.218 389.153 343.01 375.591L369.416 359.233C369.416 359.233 361.333 358.18 361.574 356.919C361.98 354.847 379.906 351.413 388.081 349.869C388.505 349.73 388.961 349.961 389.1 350.385C389.239 350.808 389.008 351.264 388.585 351.403Z" fill="black"/>
<path opacity="0.2" d="M344.506 373.731L351.421 385.713C342.419 387.013 333.303 387.461 324.205 387.051C321.213 386.944 318.265 386.32 315.503 385.208L313.09 380.468L318.909 369.58L344.506 373.731Z" fill="black"/>
<path d="M358.504 369.461L339.535 380.721L342.605 389.857L364.757 380.676L358.504 369.461Z" fill="#895555"/>
<path d="M329.195 383.444L330.831 389.997C330.831 389.997 332.195 390.327 332.582 391.707C332.799 392.482 332.172 394.584 332.172 394.584L336.538 412.639C336.564 412.633 337.776 412.343 338.263 412.013C338.857 411.61 339.341 411.195 339.732 410.77C341.099 409.281 341.31 407.072 341.408 405.433C341.572 402.687 343.387 394.705 343.387 394.705C343.387 394.705 344.051 392.631 346.314 390.854C347.576 389.863 348.184 388.582 348.092 387.776C347.908 386.131 346.75 385.481 345.212 385.621L343.426 385.785C342.182 384.8 341.839 383.188 342.69 381.668C342.69 381.668 343.857 377.797 342.202 378.405C341.258 378.752 337.092 380.465 333.762 381.72C332.986 382.013 332.251 382.289 331.607 382.531V382.533C330.178 383.073 329.195 383.444 329.195 383.444Z" fill="black"/>
<path d="M342.575 398.968C342.628 398.869 342.605 398.742 342.524 398.663C342.15 398.298 341.683 398.031 341.15 397.903C340.869 397.835 340.727 398.286 341.01 398.354C341.484 398.468 341.896 398.701 342.223 399.019C342.332 399.125 342.501 399.105 342.573 398.972C342.573 398.972 342.574 398.97 342.575 398.968Z" fill="#00C5FF"/>
<path d="M342.988 397.394C343.041 397.295 343.018 397.168 342.936 397.089C342.562 396.725 342.095 396.457 341.562 396.329C341.281 396.262 341.139 396.712 341.422 396.78C341.896 396.894 342.308 397.127 342.635 397.445C342.744 397.551 342.913 397.531 342.984 397.398C342.986 397.396 342.988 397.394 342.988 397.394Z" fill="#00C5FF"/>
<path d="M343.34 395.789C343.393 395.69 343.37 395.563 343.288 395.484C342.914 395.119 342.447 394.852 341.914 394.724C341.633 394.657 341.49 395.107 341.774 395.175C342.248 395.289 342.659 395.522 342.987 395.84C343.097 395.946 343.265 395.926 343.337 395.793C343.337 395.793 343.339 395.791 343.34 395.789Z" fill="#00C5FF"/>
<path opacity="0.2" d="M331.608 382.532V382.534C330.177 383.072 329.195 383.444 329.195 383.444L330.831 389.997C330.831 389.997 332.195 390.327 332.582 391.707C332.799 392.482 332.172 394.584 332.172 394.584L336.538 412.639C336.564 412.632 337.776 412.343 338.263 412.013C338.536 411.828 338.779 411.64 339.008 411.45L331.968 382.396C331.849 382.441 331.721 382.489 331.608 382.532Z" fill="white"/>
<path d="M343.09 395.672C343.703 395.466 344.32 395.259 344.96 395.163C345.6 395.067 346.27 395.088 346.871 395.327C347.151 395.438 347.438 395.632 347.491 395.928C347.546 396.239 347.316 396.533 347.053 396.709C346.548 397.048 345.894 397.115 345.3 396.984C344.705 396.853 343.573 396.041 343.09 395.672Z" stroke="#00C5FF" stroke-width="0.25" stroke-miterlimit="10"/>
<path d="M343.071 395.594C343.589 395.207 344.111 394.818 344.554 394.347C344.997 393.876 345.361 393.313 345.507 392.683C345.575 392.39 345.579 392.044 345.366 391.832C345.142 391.609 344.769 391.632 344.474 391.747C343.908 391.969 343.48 392.469 343.25 393.032C343.02 393.594 343.044 394.987 343.071 395.594Z" stroke="#00C5FF" stroke-width="0.25" stroke-miterlimit="10"/>
<path d="M363.053 290.466C363.053 290.466 365.454 319.545 366.278 321.126C369.065 326.471 388.29 336.062 388.29 336.062L398.289 334.273L405.235 340.43L400.431 343.969L394.983 341.725C391.961 342.173 388.905 342.35 385.851 342.255C380.718 342.104 355.137 335.706 351.209 328.682C347.281 321.659 347.336 289.037 347.336 289.037L363.053 290.466Z" fill="#895555"/>
<path d="M346.55 301.381C346.55 301.381 339.663 275.702 349.387 268.917C359.111 262.131 365.646 297.35 365.646 297.35L346.55 301.381Z" fill="#00C5FF"/>
<path opacity="0.5" d="M346.55 301.381C346.55 301.381 339.663 275.702 349.387 268.917C359.111 262.131 365.646 297.35 365.646 297.35L346.55 301.381Z" fill="white"/>
<path d="M351.206 348.116L352.127 314.377L352.764 268.162L332.958 263.25L319.087 263.119L295.627 270.424L294.832 281.745C294.832 281.745 295.555 333.859 295.382 335.424C295.17 337.343 289.215 349.251 289.215 349.251C313.986 355.669 351.547 349.847 351.206 348.116Z" fill="#00C5FF"/>
<path opacity="0.2" d="M352.264 300.177L352.598 280.051L356.138 299.359L352.264 300.177Z" fill="black"/>
<path opacity="0.2" d="M309.971 302.102C310.589 302 313.108 301.255 313.108 301.255L307.385 281.646L316.244 303.191L310.474 305.293L309.971 302.102Z" fill="black"/>
<path d="M307.769 286.08C307.769 286.08 311.656 318.4 314.361 321.49C318.931 326.712 341.914 340.888 341.914 340.888L353.704 337.14C354.53 336.895 355.43 337.069 356.083 337.599L363.882 343.924L363.101 344.544C362.764 344.812 362.286 344.854 361.903 344.65L360.681 343.996L362.028 345.396L361.578 345.753C361.13 346.108 360.52 346.223 359.964 346.056L356.424 344.994L359.652 347.282C358.899 347.88 357.869 348.065 356.938 347.77L351.762 346.128C348.178 346.838 344.537 347.25 340.879 347.361C334.722 347.558 305.998 336.562 300.807 328.978C295.616 321.394 290.947 290.4 290.947 290.4L307.769 286.08Z" fill="#895555"/>
<path d="M291.695 307.032C291.695 307.032 285.322 277.656 295.046 270.871C304.77 264.085 313.107 301.257 313.107 301.257L291.695 307.032Z" fill="#00C5FF"/>
<path opacity="0.5" d="M291.695 307.032C291.695 307.032 285.322 277.656 295.046 270.871C304.77 264.085 313.107 301.257 313.107 301.257L291.695 307.032Z" fill="white"/>
<path d="M368.488 346.395L350.539 345.866L331.493 345.305C331.493 345.309 331.493 345.313 331.493 345.317C331.461 346.73 333.004 347.916 334.941 347.966L353.97 348.527L364.856 348.848C364.873 348.849 364.889 348.849 364.906 348.85H364.909L395.203 349.743C397.124 349.786 398.703 348.689 398.735 347.287L368.488 346.395Z" fill="black"/>
<path d="M395.761 349.615L361.964 348.619C361.381 348.598 360.923 348.202 360.942 347.733C360.945 347.645 360.966 347.558 361.003 347.476L377.054 313.451C377.463 312.478 378.614 311.838 379.899 311.872L413.717 312.869C414.289 312.886 414.742 313.272 414.728 313.731C414.725 313.827 414.701 313.922 414.658 314.011L398.607 348.036C398.191 349.005 397.043 349.643 395.761 349.615Z" fill="black"/>
<path opacity="0.7" d="M413.716 312.867L379.899 311.87C378.615 311.837 377.463 312.476 377.054 313.449L361.609 346.191L350.539 345.865L331.493 345.304C331.493 345.308 331.493 345.312 331.493 345.316C331.461 346.729 333.004 347.915 334.941 347.965L353.97 348.526L364.856 348.847C364.873 348.848 364.889 348.848 364.906 348.849H364.909L395.203 349.742C395.812 349.756 396.379 349.644 396.881 349.455C397.675 349.213 398.319 348.707 398.607 348.034L414.658 314.009C414.701 313.92 414.725 313.825 414.728 313.729C414.74 313.27 414.288 312.884 413.716 312.867Z" fill="white"/>
<path d="M392.865 330.619C392.086 332.252 390.572 333.344 389.475 333.08C388.378 332.816 388.128 331.3 388.886 329.662C389.644 328.024 391.174 326.958 392.271 327.222C393.368 327.487 393.655 328.943 392.865 330.619Z" fill="white"/>
<g opacity="0.3">
<path d="M377.054 313.45L361.609 346.192L363.176 346.238L379.9 311.87C378.614 311.838 377.462 312.477 377.054 313.45Z" fill="black"/>
</g>
<path d="M376.693 384.9L398.36 389.046L402.117 380.17L379.447 372.357L376.693 384.9Z" fill="#895555"/>
<path d="M407.907 393.862L411.027 387.871C411.027 387.871 410.225 386.72 410.85 385.43C411.201 384.705 413.065 383.548 413.065 383.548L421.767 367.136C421.743 367.123 420.644 366.536 420.061 366.461C419.35 366.369 418.712 366.359 418.137 366.418C416.126 366.626 414.504 368.141 413.344 369.302C411.401 371.249 404.75 376.021 404.75 376.021C404.75 376.021 402.878 377.133 400.006 376.963C398.404 376.869 397.1 377.424 396.634 378.088C395.681 379.442 396.117 380.696 397.361 381.611L398.807 382.672C399.085 384.234 398.273 385.669 396.629 386.243C396.629 386.243 393.189 388.367 394.831 389.009C395.769 389.375 400.022 390.854 403.347 392.123C404.122 392.418 404.855 392.699 405.499 392.945L405.5 392.944C406.925 393.489 407.907 393.862 407.907 393.862Z" fill="black"/>
<path d="M408.182 373.369C408.077 373.408 408.01 373.518 408.018 373.632C408.056 374.153 408.228 374.663 408.543 375.112C408.709 375.349 409.114 375.106 408.947 374.867C408.668 374.468 408.514 374.02 408.48 373.565C408.468 373.413 408.329 373.316 408.187 373.368C408.185 373.368 408.184 373.369 408.182 373.369Z" fill="#00C5FF"/>
<path d="M406.829 374.275C406.723 374.314 406.657 374.424 406.665 374.537C406.703 375.058 406.875 375.568 407.19 376.017C407.356 376.254 407.761 376.011 407.594 375.772C407.315 375.373 407.161 374.925 407.127 374.469C407.116 374.317 406.976 374.22 406.834 374.272C406.832 374.274 406.831 374.274 406.829 374.275Z" fill="#00C5FF"/>
<path d="M405.503 375.245C405.397 375.284 405.331 375.394 405.339 375.507C405.377 376.028 405.549 376.538 405.864 376.987C406.03 377.224 406.435 376.981 406.268 376.742C405.989 376.343 405.835 375.895 405.801 375.44C405.789 375.288 405.65 375.191 405.508 375.243C405.506 375.244 405.503 375.245 405.503 375.245Z" fill="#00C5FF"/>
<path opacity="0.2" d="M410.85 385.43C411.201 384.705 413.065 383.548 413.065 383.548L421.767 367.136C421.743 367.123 420.644 366.536 420.061 366.461C419.734 366.419 419.427 366.398 419.13 366.389L405.139 392.807C405.257 392.852 405.385 392.901 405.497 392.944L405.498 392.943C406.926 393.489 407.908 393.862 407.908 393.862L411.028 387.871C411.028 387.871 410.225 386.72 410.85 385.43Z" fill="white"/>
<path d="M405.611 375.496C405.015 375.244 404.416 374.99 403.874 374.638C403.332 374.286 402.844 373.826 402.552 373.249C402.417 372.98 402.329 372.645 402.486 372.389C402.651 372.119 403.018 372.052 403.332 372.094C403.934 372.175 404.469 372.559 404.826 373.051C405.185 373.541 405.493 374.9 405.611 375.496Z" stroke="#00C5FF" stroke-width="0.25" stroke-miterlimit="10"/>
<path d="M405.573 375.567C404.928 375.513 404.28 375.459 403.636 375.518C402.992 375.577 402.346 375.757 401.819 376.132C401.574 376.307 401.341 376.563 401.36 376.863C401.38 377.178 401.674 377.409 401.971 377.518C402.542 377.727 403.194 377.636 403.739 377.367C404.286 377.098 405.191 376.04 405.573 375.567Z" stroke="#00C5FF" stroke-width="0.25" stroke-miterlimit="10"/>
<path d="M295.184 372.563C290.709 364.948 280.695 344.372 302.346 341.059C323.997 337.746 394.938 374.059 394.938 374.059L389.974 387.656L323.318 375.125C323.318 375.125 332.121 387.628 321.024 386.743C304.904 384.667 301.137 380.685 295.184 372.563Z" fill="black"/>
<path opacity="0.2" d="M324.895 375.541L306.693 369.219C306.693 369.219 321.828 379.103 327.448 380.391L324.895 375.541Z" fill="black"/>
<path d="M315.176 266.42C320.074 261.73 319.094 249.003 317.788 242.43L333.203 254.31C332.892 255.08 332.634 255.87 332.432 256.675C332.016 258.116 331.978 259.64 332.322 261.1C332.656 262.302 334.21 265.615 334.21 265.615C334.21 265.615 335.165 269.365 325.167 269.761C320.799 270.406 315.176 266.42 315.176 266.42Z" fill="#895555"/>
<path opacity="0.2" d="M320.806 249.02C320.373 256.804 328.339 260.103 332.328 261.112C331.984 259.652 332.022 258.128 332.438 256.687L320.806 249.02Z" fill="black"/>
<path d="M314.938 236.798C317.278 245.83 318.409 250.971 324.067 254.728C332.578 260.378 343.154 254.164 343.642 244.591C344.081 235.974 340.181 222.651 330.267 220.83C320.499 219.036 312.599 227.766 314.938 236.798Z" fill="#895555"/>
<path d="M310.993 224.504C311.336 218.863 325.211 216.201 329.62 218.224C330.279 218.526 322.828 224.082 323.292 223.811L319.67 225.838C319.049 225.821 318.008 226.718 317.748 228.632C317.748 228.632 321.074 243.522 317.541 248.676C313.71 247.671 312.361 241.775 310.574 238.449C307.909 233.493 304.437 226.154 310.993 224.504Z" fill="black"/>
<path d="M312.69 245.113C313.896 247.326 316.046 248.773 318.086 249.324C321.155 250.152 321.628 246.974 320.807 244.144C320.068 241.597 318.681 238.585 315.585 239.004C312.534 239.417 311.311 242.583 312.69 245.113Z" fill="#895555"/>
<path d="M327.72 236.522C327.9 237.457 328.556 238.115 329.186 237.991C329.815 237.867 330.179 237.008 329.999 236.072C329.819 235.137 329.163 234.479 328.533 234.603C327.904 234.727 327.54 235.586 327.72 236.522Z" fill="black"/>
<path d="M337.228 235.424C337.408 236.36 338.064 237.017 338.693 236.893C339.322 236.769 339.686 235.91 339.506 234.974C339.326 234.039 338.67 233.381 338.041 233.505C337.412 233.629 337.048 234.488 337.228 235.424Z" fill="black"/>
<path d="M335.223 235.381C335.223 235.381 339.167 239.457 340.509 241.166C339.395 242.593 336.982 242.484 336.982 242.484L335.223 235.381Z" fill="#6D3939"/>
<path d="M325.713 232.943C325.869 232.973 326.039 232.923 326.153 232.797C327.512 231.293 329.188 231.491 329.205 231.493C329.456 231.525 329.69 231.354 329.727 231.111C329.764 230.868 329.59 230.644 329.341 230.611C329.253 230.599 327.153 230.35 325.467 232.217C325.299 232.403 325.316 232.684 325.505 232.844C325.566 232.896 325.638 232.929 325.713 232.943Z" fill="black"/>
<path opacity="0.2" d="M314.352 242.183C314.626 241.566 315.361 241.221 316.049 241.254C316.737 241.288 317.372 241.643 317.876 242.097C318.48 242.643 318.934 243.346 319.177 244.114" stroke="black" stroke-width="0.5" stroke-miterlimit="10" stroke-linecap="round" stroke-linejoin="round"/>
<path d="M341.803 230.594C341.883 230.561 341.955 230.505 342.007 230.428C342.148 230.222 342.093 229.944 341.884 229.808C339.786 228.446 337.848 229.262 337.756 229.288C337.524 229.387 337.415 229.651 337.513 229.877C337.611 230.103 337.877 230.206 338.108 230.11C338.187 230.073 339.689 229.462 341.372 230.556C341.505 230.642 341.666 230.651 341.803 230.594Z" fill="black"/>
<path d="M336.813 245.63C336.084 246.691 335.434 247.802 334.866 248.957C334.65 248.892 334.428 248.831 334.216 248.755C331.28 247.826 330.22 246.43 329.951 245.156C329.83 244.53 329.858 243.885 330.032 243.272C330.122 242.924 330.26 242.591 330.442 242.281C331.705 243.704 334.367 244.78 335.819 245.294C336.454 245.486 336.813 245.63 336.813 245.63Z" fill="black"/>
<path d="M335.852 245.277L335.25 246.243C332.494 245.364 330.671 244.383 330.066 243.255C330.156 242.907 330.294 242.574 330.476 242.264C331.747 243.701 334.401 244.763 335.852 245.277Z" fill="white"/>
<path d="M334.249 248.738C331.313 247.809 330.253 246.413 329.984 245.139C331.093 245.512 332.127 246.078 333.039 246.812C333.633 247.312 334.056 247.985 334.249 248.738Z" fill="#C15854"/>
<path d="M315.465 222.944C315.465 222.944 319.72 209.01 332.48 209.338C331.329 209.816 330.281 210.51 329.391 211.382C329.391 211.382 339.938 208.47 344.666 215.385L342.388 214.569C342.388 214.569 346.261 220.293 343.82 224.997L342.847 223.041C342.847 223.041 339.461 229.286 332.619 228.952L334.671 227.376C334.671 227.376 323.327 229.109 320.058 226.761C318.389 225.666 316.848 224.385 315.465 222.944Z" fill="black"/>
</svg>
