<svg width="477" height="413" viewBox="0 0 477 413" fill="none" xmlns="http://www.w3.org/2000/svg">
<path d="M420.92 274.998H240.174C236.942 274.998 234.312 272.368 234.312 269.136V5.862C234.312 2.63 236.942 0 240.174 0H420.92C424.152 0 426.782 2.629 426.782 5.862V269.135C426.783 272.368 424.153 274.998 420.92 274.998ZM240.174 0.25C237.079 0.25 234.562 2.768 234.562 5.862V269.135C234.562 272.23 237.08 274.747 240.174 274.747H420.92C424.015 274.747 426.532 272.229 426.532 269.135V5.862C426.532 2.768 424.014 0.25 420.92 0.25H240.174Z" fill="#E0E0E0"/>
<path d="M212.493 274.998H31.746C28.514 274.998 25.884 272.368 25.884 269.136V5.862C25.884 2.63 28.513 0 31.746 0H212.493C215.725 0 218.355 2.629 218.355 5.862V269.135C218.355 272.368 215.725 274.998 212.493 274.998ZM31.746 0.25C28.652 0.25 26.134 2.768 26.134 5.862V269.135C26.134 272.23 28.652 274.747 31.746 274.747H212.493C215.588 274.747 218.105 272.229 218.105 269.135V5.862C218.105 2.768 215.587 0.25 212.493 0.25H31.746Z" fill="#E0E0E0"/>
<path d="M477 336.067H-23V336.317H477V336.067Z" fill="#E0E0E0"/>
<path d="M44.732 350.331H28.672V350.581H44.732V350.331Z" fill="#E0E0E0"/>
<path d="M200.882 347.621H147.352V347.871H200.882V347.621Z" fill="#E0E0E0"/>
<path d="M81.9821 359.621H45.7321V359.871H81.9821V359.621Z" fill="#E0E0E0"/>
<path d="M398.542 347.491H355.352V347.741H398.542V347.491Z" fill="#E0E0E0"/>
<path d="M413.782 347.491H407.452V347.741H413.782V347.491Z" fill="#E0E0E0"/>
<path d="M347.102 353.721H293.212V353.971H347.102V353.721Z" fill="#E0E0E0"/>
<path d="M166.439 300.392C165.818 297.397 164.631 294.612 163.008 292.138L165.963 288.568L159.645 282.249L156.075 285.204C153.602 283.582 150.817 282.394 147.822 281.773L147.389 277.172H138.454L138.02 281.773C135.025 282.394 132.24 283.581 129.767 285.204L126.197 282.249L119.879 288.568L122.834 292.138C121.211 294.611 120.024 297.396 119.403 300.391L114.802 300.825V309.76L119.403 310.194C120.024 313.189 121.211 315.973 122.834 318.447L119.879 322.017L126.197 328.335L129.767 325.379C132.24 327.003 135.025 328.189 138.02 328.81L138.454 333.411H147.389L147.822 328.81C150.817 328.189 153.602 327.002 156.075 325.378L159.645 328.334L165.963 322.016L163.008 318.447C164.631 315.973 165.818 313.189 166.439 310.194L171.04 309.76V300.825L166.439 300.392ZM155.018 305.293C155.018 311.973 149.602 317.389 142.922 317.389C136.241 317.389 130.826 311.973 130.826 305.293C130.826 298.612 136.242 293.197 142.922 293.197C149.602 293.196 155.018 298.612 155.018 305.293Z" fill="#E0E0E0"/>
<path d="M98.267 199.713C97.837 197.639 97.015 195.711 95.891 193.998L97.937 191.526L93.562 187.151L91.09 189.197C89.377 188.074 87.449 187.251 85.375 186.821L85.075 183.635H78.888L78.588 186.821C76.514 187.251 74.586 188.073 72.873 189.197L70.401 187.151L66.026 191.526L68.072 193.998C66.948 195.71 66.126 197.639 65.696 199.713L62.51 200.013V206.2L65.696 206.5C66.126 208.574 66.948 210.502 68.072 212.215L66.026 214.687L70.401 219.062L72.873 217.015C74.585 218.139 76.514 218.961 78.588 219.391L78.888 222.577H85.075L85.375 219.391C87.449 218.961 89.377 218.139 91.09 217.015L93.562 219.062L97.937 214.687L95.891 212.215C97.015 210.502 97.837 208.574 98.267 206.5L101.453 206.2V200.013L98.267 199.713ZM90.358 203.106C90.358 207.732 86.608 211.482 81.982 211.482C77.356 211.482 73.606 207.732 73.606 203.106C73.606 198.48 77.356 194.73 81.982 194.73C86.608 194.73 90.358 198.48 90.358 203.106Z" fill="#E0E0E0"/>
<path d="M260.086 37.182C259.337 33.569 257.905 30.21 255.947 27.227L259.512 22.921L251.891 15.3L247.585 18.864C244.602 16.907 241.243 15.475 237.63 14.726L237.107 9.17603H226.33L225.807 14.726C222.194 15.475 218.835 16.907 215.852 18.864L211.546 15.3L203.925 22.921L207.489 27.227C205.531 30.21 204.1 33.569 203.35 37.182L197.8 37.705V48.482L203.35 49.005C204.099 52.618 205.531 55.976 207.489 58.959L203.925 63.265L211.546 70.886L215.852 67.321C218.835 69.28 222.194 70.711 225.807 71.46L226.33 77.01H237.108L237.631 71.461C241.244 70.712 244.603 69.28 247.586 67.322L251.892 70.887L259.513 63.266L255.948 58.961C257.906 55.977 259.338 52.619 260.087 49.006L265.636 48.483V37.706L260.086 37.182ZM246.309 43.094C246.309 51.152 239.777 57.684 231.719 57.684C223.661 57.684 217.129 51.151 217.129 43.094C217.129 35.036 223.661 28.504 231.719 28.504C239.777 28.504 246.309 35.036 246.309 43.094Z" fill="#F0F0F0"/>
<path d="M293.406 13.5249C293.062 11.8649 292.404 10.3219 291.505 8.95193L293.143 6.97393L289.642 3.47293L287.664 5.10994C286.294 4.21094 284.75 3.55293 283.091 3.20893L282.851 0.658936H277.9L277.66 3.20893C276 3.55293 274.457 4.21094 273.087 5.10994L271.109 3.47293L267.608 6.97393L269.245 8.95193C268.346 10.3219 267.688 11.8649 267.344 13.5249L264.795 13.7649V18.7159L267.344 18.9559C267.688 20.6159 268.346 22.1579 269.245 23.5289L267.608 25.5069L271.109 29.0079L273.087 27.3699C274.457 28.2699 276 28.9269 277.66 29.2709L277.9 31.8199H282.851L283.091 29.2709C284.751 28.9269 286.294 28.2689 287.664 27.3689L289.642 29.0069L293.143 25.5059L291.505 23.5279C292.405 22.1569 293.062 20.6139 293.406 18.9549L295.955 18.7149V13.7639L293.406 13.5249ZM287.077 16.2399C287.077 19.9419 284.076 22.9429 280.374 22.9429C276.672 22.9429 273.671 19.9419 273.671 16.2399C273.671 12.5379 276.672 9.53693 280.374 9.53693C284.077 9.53793 287.077 12.5379 287.077 16.2399Z" fill="#F0F0F0"/>
<path d="M361.407 131.558C360.335 126.385 358.285 121.575 355.481 117.304L360.585 111.139L349.673 100.227L343.508 105.33C339.236 102.528 334.427 100.477 329.254 99.405L328.505 91.459H313.073L312.324 99.405C307.152 100.478 302.342 102.528 298.071 105.33L291.906 100.227L280.994 111.139L286.098 117.304C283.295 121.575 281.245 126.384 280.172 131.558L272.226 132.307V147.738L280.172 148.487C281.245 153.66 283.295 158.468 286.098 162.74L280.994 168.905L291.906 179.817L298.071 174.712C302.342 177.516 307.152 179.565 312.324 180.638L313.073 188.584H328.505L329.254 180.639C334.426 179.567 339.236 177.516 343.508 174.712L349.673 179.817L360.585 168.905L355.481 162.741C358.284 158.469 360.334 153.66 361.407 148.488L369.353 147.739V132.308L361.407 131.558ZM341.681 140.022C341.681 151.559 332.328 160.912 320.79 160.912C309.252 160.912 299.899 151.559 299.899 140.022C299.899 128.484 309.252 119.131 320.79 119.131C332.328 119.132 341.681 128.485 341.681 140.022Z" fill="black"/>
<path opacity="0.7" d="M361.407 131.558C360.335 126.385 358.285 121.575 355.481 117.304L360.585 111.139L349.673 100.227L343.508 105.33C339.236 102.528 334.427 100.477 329.254 99.405L328.505 91.459H313.073L312.324 99.405C307.152 100.478 302.342 102.528 298.071 105.33L291.906 100.227L280.994 111.139L286.098 117.304C283.295 121.575 281.245 126.384 280.172 131.558L272.226 132.307V147.738L280.172 148.487C281.245 153.66 283.295 158.468 286.098 162.74L280.994 168.905L291.906 179.817L298.071 174.712C302.342 177.516 307.152 179.565 312.324 180.638L313.073 188.584H328.505L329.254 180.639C334.426 179.567 339.236 177.516 343.508 174.712L349.673 179.817L360.585 168.905L355.481 162.741C358.284 158.469 360.334 153.66 361.407 148.488L369.353 147.739V132.308L361.407 131.558ZM341.681 140.022C341.681 151.559 332.328 160.912 320.79 160.912C309.252 160.912 299.899 151.559 299.899 140.022C299.899 128.484 309.252 119.131 320.79 119.131C332.328 119.132 341.681 128.485 341.681 140.022Z" fill="white"/>
<path d="M429.422 148.175C428.894 145.626 427.884 143.257 426.502 141.152L429.017 138.115L423.641 132.739L420.603 135.253C418.498 133.872 416.129 132.862 413.58 132.334L413.211 128.419H405.608L405.239 132.334C402.691 132.863 400.321 133.873 398.216 135.253L395.178 132.739L389.802 138.115L392.316 141.153C390.935 143.257 389.925 145.627 389.396 148.176L385.481 148.545V156.148L389.396 156.517C389.925 159.065 390.935 161.435 392.316 163.539L389.802 166.577L395.178 171.953L398.216 169.438C400.32 170.82 402.69 171.829 405.239 172.358L405.608 176.273H413.211L413.58 172.358C416.128 171.83 418.498 170.82 420.603 169.438L423.641 171.953L429.017 166.577L426.502 163.54C427.883 161.435 428.893 159.066 429.422 156.517L433.337 156.148V148.545L429.422 148.175ZM419.703 152.345C419.703 158.029 415.095 162.638 409.41 162.638C403.725 162.638 399.117 158.03 399.117 152.345C399.117 146.66 403.725 142.052 409.41 142.052C415.095 142.052 419.703 146.66 419.703 152.345Z" fill="black"/>
<path opacity="0.8" d="M429.422 148.175C428.894 145.626 427.884 143.257 426.502 141.152L429.017 138.115L423.641 132.739L420.603 135.253C418.498 133.872 416.129 132.862 413.58 132.334L413.211 128.419H405.608L405.239 132.334C402.691 132.863 400.321 133.873 398.216 135.253L395.178 132.739L389.802 138.115L392.316 141.153C390.935 143.257 389.925 145.627 389.396 148.176L385.481 148.545V156.148L389.396 156.517C389.925 159.065 390.935 161.435 392.316 163.539L389.802 166.577L395.178 171.953L398.216 169.438C400.32 170.82 402.69 171.829 405.239 172.358L405.608 176.273H413.211L413.58 172.358C416.128 171.83 418.498 170.82 420.603 169.438L423.641 171.953L429.017 166.577L426.502 163.54C427.883 161.435 428.893 159.066 429.422 156.517L433.337 156.148V148.545L429.422 148.175ZM419.703 152.345C419.703 158.029 415.095 162.638 409.41 162.638C403.725 162.638 399.117 158.03 399.117 152.345C399.117 146.66 403.725 142.052 409.41 142.052C415.095 142.052 419.703 146.66 419.703 152.345Z" fill="white"/>
<path d="M164.922 70.5841C164.316 67.6601 163.158 64.9421 161.573 62.5291L164.457 59.0451L158.29 52.8781L154.806 55.7621C152.392 54.1781 149.674 53.0201 146.751 52.4131L146.328 47.9221H137.607L137.184 52.4131C134.261 53.0191 131.543 54.1781 129.129 55.7621L125.645 52.8781L119.478 59.0451L122.362 62.5291C120.778 64.9431 119.62 67.6611 119.013 70.5841L114.522 71.0071V79.7271L119.013 80.1501C119.619 83.0731 120.778 85.7911 122.362 88.2051L119.478 91.6891L125.645 97.8561L129.129 94.9711C131.543 96.5561 134.261 97.7141 137.184 98.3201L137.607 102.811H146.328L146.751 98.3211C149.674 97.7151 152.392 96.5561 154.806 94.9711L158.29 97.8561L164.457 91.6891L161.573 88.2051C163.157 85.7901 164.316 83.0731 164.922 80.1501L169.412 79.7271V71.0071L164.922 70.5841ZM153.774 75.3671C153.774 81.8871 148.488 87.1731 141.968 87.1731C135.448 87.1731 130.162 81.8871 130.162 75.3671C130.162 68.8471 135.448 63.5611 141.968 63.5611C148.488 63.5611 153.774 68.8471 153.774 75.3671Z" fill="black"/>
<path opacity="0.8" d="M164.922 70.5841C164.316 67.6601 163.158 64.9421 161.573 62.5291L164.457 59.0451L158.29 52.8781L154.806 55.7621C152.392 54.1781 149.674 53.0201 146.751 52.4131L146.328 47.9221H137.607L137.184 52.4131C134.261 53.0191 131.543 54.1781 129.129 55.7621L125.645 52.8781L119.478 59.0451L122.362 62.5291C120.778 64.9431 119.62 67.6611 119.013 70.5841L114.522 71.0071V79.7271L119.013 80.1501C119.619 83.0731 120.778 85.7911 122.362 88.2051L119.478 91.6891L125.645 97.8561L129.129 94.9711C131.543 96.5561 134.261 97.7141 137.184 98.3201L137.607 102.811H146.328L146.751 98.3211C149.674 97.7151 152.392 96.5561 154.806 94.9711L158.29 97.8561L164.457 91.6891L161.573 88.2051C163.157 85.7901 164.316 83.0731 164.922 80.1501L169.412 79.7271V71.0071L164.922 70.5841ZM153.774 75.3671C153.774 81.8871 148.488 87.1731 141.968 87.1731C135.448 87.1731 130.162 81.8871 130.162 75.3671C130.162 68.8471 135.448 63.5611 141.968 63.5611C148.488 63.5611 153.774 68.8471 153.774 75.3671Z" fill="white"/>
<path d="M346.409 60.871C346.032 59.051 345.31 57.359 344.324 55.856L346.12 53.687L342.281 49.847L340.112 51.643C338.609 50.657 336.917 49.936 335.097 49.558L334.834 46.762H329.404L329.141 49.558C327.321 49.935 325.629 50.657 324.126 51.643L321.957 49.847L318.117 53.687L319.913 55.856C318.927 57.359 318.205 59.051 317.828 60.871L315.032 61.135V66.564L317.828 66.828C318.206 68.648 318.927 70.34 319.913 71.843L318.117 74.012L321.957 77.852L324.126 76.056C325.629 77.043 327.321 77.764 329.141 78.141L329.404 80.937H334.834L335.097 78.141C336.917 77.764 338.609 77.042 340.112 76.056L342.281 77.852L346.12 74.012L344.324 71.843C345.311 70.34 346.032 68.648 346.409 66.828L349.205 66.564V61.135L346.409 60.871ZM339.468 63.849C339.468 67.908 336.177 71.199 332.118 71.199C328.059 71.199 324.767 67.908 324.767 63.849C324.767 59.789 328.058 56.498 332.118 56.498C336.178 56.498 339.468 59.79 339.468 63.849Z" fill="black"/>
<path opacity="0.8" d="M346.409 60.871C346.032 59.051 345.31 57.359 344.324 55.856L346.12 53.687L342.281 49.847L340.112 51.643C338.609 50.657 336.917 49.936 335.097 49.558L334.834 46.762H329.404L329.141 49.558C327.321 49.935 325.629 50.657 324.126 51.643L321.957 49.847L318.117 53.687L319.913 55.856C318.927 57.359 318.205 59.051 317.828 60.871L315.032 61.135V66.564L317.828 66.828C318.206 68.648 318.927 70.34 319.913 71.843L318.117 74.012L321.957 77.852L324.126 76.056C325.629 77.043 327.321 77.764 329.141 78.141L329.404 80.937H334.834L335.097 78.141C336.917 77.764 338.609 77.042 340.112 76.056L342.281 77.852L346.12 74.012L344.324 71.843C345.311 70.34 346.032 68.648 346.409 66.828L349.205 66.564V61.135L346.409 60.871ZM339.468 63.849C339.468 67.908 336.177 71.199 332.118 71.199C328.059 71.199 324.767 67.908 324.767 63.849C324.767 59.789 328.058 56.498 332.118 56.498C336.178 56.498 339.468 59.79 339.468 63.849Z" fill="white"/>
<path d="M445.598 395.762C445.598 403.625 352.081 409.999 236.723 409.999C121.365 409.999 27.848 403.625 27.848 395.762C27.848 387.899 121.364 381.525 236.723 381.525C352.082 381.525 445.598 387.898 445.598 395.762Z" fill="#F5F5F5"/>
<path d="M418.012 269.141H397.271C392.419 269.141 388.487 265.208 388.487 260.357V239.616C388.487 234.764 392.42 230.832 397.271 230.832H418.012C422.864 230.832 426.796 234.765 426.796 239.616V260.357C426.797 265.208 422.864 269.141 418.012 269.141Z" fill="#28ED70"/>
<path opacity="0.5" d="M418.012 269.141H397.271C392.419 269.141 388.487 265.208 388.487 260.357V239.616C388.487 234.764 392.42 230.832 397.271 230.832H418.012C422.864 230.832 426.796 234.765 426.796 239.616V260.357C426.797 265.208 422.864 269.141 418.012 269.141Z" fill="white"/>
<path d="M404.259 253.149H398.759L397.787 255.671H392.825L399.151 241.198H403.948L410.275 255.671H405.23L404.259 253.149ZM402.915 249.634L401.509 245.995L400.103 249.634H402.915Z" fill="#28ED70"/>
<path d="M422.105 249.592V255.671H417.762V254.183C417.225 255.32 416.15 255.878 414.558 255.878C411.788 255.878 410.361 254.307 410.361 252.362C410.361 250.171 412.015 248.951 415.53 248.951H417.412C417.266 248.083 416.605 247.628 415.282 247.628C414.268 247.628 413.132 247.959 412.387 248.518L410.898 245.437C412.221 244.61 414.227 244.155 415.985 244.155C419.871 244.155 422.105 245.83 422.105 249.592ZM417.432 251.991V251.206H416.274C415.282 251.206 414.847 251.537 414.847 252.157C414.847 252.674 415.261 253.066 415.964 253.066C416.605 253.066 417.184 252.736 417.432 251.991Z" fill="#28ED70"/>
<path d="M391.755 226.87H356.887C354.098 226.87 351.837 224.609 351.837 221.82V192.707C351.837 189.918 354.098 187.657 356.887 187.657H391.755C394.544 187.657 396.805 189.918 396.805 192.707V221.82C396.805 224.609 394.544 226.87 391.755 226.87Z" fill="#28ED70"/>
<path opacity="0.6" d="M391.755 226.87H356.887C354.098 226.87 351.837 224.609 351.837 221.82V192.707C351.837 189.918 354.098 187.657 356.887 187.657H391.755C394.544 187.657 396.805 189.918 396.805 192.707V221.82C396.805 224.609 394.544 226.87 391.755 226.87Z" fill="white"/>
<path d="M386.27 205.953L375.685 214.24L369.134 210.353C367.919 209.632 366.384 209.743 365.286 210.632L351.885 221.473C351.832 224.439 354.219 226.874 357.186 226.878L391.482 226.93C394.431 226.897 396.805 224.496 396.805 221.547V209.448L390.111 205.666C388.89 204.975 387.374 205.089 386.27 205.953Z" fill="#28ED70"/>
<path d="M381.237 199.663C381.237 202.347 379.111 204.523 376.49 204.523C373.868 204.523 371.743 202.347 371.743 199.663C371.743 196.979 373.869 194.803 376.49 194.803C379.112 194.803 381.237 196.979 381.237 199.663Z" fill="#28ED70"/>
<path d="M379.128 234.382H367.091V246.419H379.128V234.382Z" fill="#28ED70"/>
<path d="M379.128 249.21H367.091V261.247H379.128V249.21Z" fill="black"/>
<path d="M415.429 197.088H403.392V209.125H415.429V197.088Z" fill="#28ED70"/>
<path opacity="0.8" d="M415.429 197.088H403.392V209.125H415.429V197.088Z" fill="white"/>
<path d="M88.036 40.5741C95.414 32.3731 108.043 31.7061 116.243 39.0841C124.444 46.4621 125.111 59.0911 117.733 67.2911C112.037 73.6221 103.218 75.4421 95.716 72.5571L90.381 75.3001L89.783 68.9901C89.699 68.9171 89.609 68.8561 89.526 68.7811C81.326 61.4041 80.659 48.7751 88.036 40.5741Z" fill="#28ED70"/>
<g opacity="0.3">
<path d="M88.036 40.5741C95.414 32.3731 108.043 31.7061 116.243 39.0841C124.444 46.4621 125.111 59.0911 117.733 67.2911C112.037 73.6221 103.218 75.4421 95.716 72.5571L90.381 75.3001L89.783 68.9901C89.699 68.9171 89.609 68.8561 89.526 68.7811C81.326 61.4041 80.659 48.7751 88.036 40.5741Z" fill="white"/>
</g>
<path d="M90.0189 35.2581C84.3479 38.4231 80.4749 44.5941 80.0909 51.0761" stroke="#28ED70" stroke-width="0.5" stroke-miterlimit="10" stroke-linecap="round" stroke-linejoin="round"/>
<path d="M80.02 54.0552C79.888 55.0372 79.962 56.0452 80.235 56.9982" stroke="#28ED70" stroke-width="0.5" stroke-miterlimit="10" stroke-linecap="round" stroke-linejoin="round"/>
<path d="M102.141 61.9552L93.71 54.2612L96.395 51.3192L102.049 56.4782L111.442 47.3052L114.225 50.1542L102.141 61.9552Z" fill="white"/>
<path d="M155.441 142.86C155.441 142.86 154.184 140.378 154.925 138.2C155.666 136.022 155.679 134.086 156.342 132.505C157.005 130.924 157.723 133.124 157.868 134.371C158.013 135.618 158.19 137.031 159.109 136.77C160.028 136.51 165.774 130.633 167.089 130.417C168.405 130.201 167.773 131.442 167.773 131.442C167.773 131.442 169.207 130.052 169.912 130.47C170.095 130.578 170.345 131.128 169.791 131.864C168.544 133.519 165.749 136.858 165.749 136.858C165.905 136.663 169.65 132.788 170.287 132.281C171.119 131.618 171.849 131.73 172.218 132.225C172.742 132.929 168.264 137.892 168.221 138.233C168.221 138.233 170.704 135.29 171.815 135.515C172.925 135.74 171.463 137.678 169.85 139.142C168.371 140.484 165.82 143.504 164.184 144.722C162.168 146.223 160.477 146.779 158.413 145.639C156.348 144.502 155.441 142.86 155.441 142.86Z" fill="#E9B376"/>
<path opacity="0.3" d="M167.549 131.589C166.428 132.732 165.359 133.925 164.346 135.165" stroke="black" stroke-width="0.25" stroke-miterlimit="10" stroke-linecap="round" stroke-linejoin="round"/>
<path opacity="0.3" d="M167.295 139.411C166.251 137.626 164.671 136.16 162.813 135.251" stroke="black" stroke-width="0.25" stroke-miterlimit="10" stroke-linecap="round" stroke-linejoin="round"/>
<path opacity="0.3" d="M159.276 137.789C159.783 138.462 160.047 139.314 160.008 140.156C159.969 140.998 159.628 141.822 159.061 142.446" stroke="black" stroke-width="0.25" stroke-miterlimit="10" stroke-linecap="round" stroke-linejoin="round"/>
<path d="M109.729 130.092C109.729 130.092 114.018 129.352 121.19 137.185C130.255 147.086 137.584 154.504 137.584 154.504L156.818 140.92L161.584 145.628C161.584 145.628 143.638 167.919 139.143 169.109C134.648 170.299 132.692 168.782 129.783 166.402C126.874 164.022 108.762 145.778 109.159 145.91C109.556 146.043 109.729 130.092 109.729 130.092Z" fill="#EBB373"/>
<path d="M115.649 375.811C115.584 375.226 113.483 362.996 113.483 362.996L101.766 365.663L105.073 378.178L113.092 379.532L115.649 375.811Z" fill="#EBB373"/>
<path d="M20.7891 141.803C21.3791 142.164 42.2071 160.223 42.4481 160.103C42.6891 159.983 64.2391 143.007 65.5641 142.405C66.8881 141.803 73.7881 153.842 73.1671 153.842C72.5471 153.842 51.9661 171.959 43.3821 172.441C34.7981 172.923 16.5811 144.933 16.5811 144.933L20.7891 141.803Z" fill="#EBB373"/>
<path d="M201.364 351.703L194.242 357.902L177.949 343.739L185.071 337.53L201.364 351.703Z" fill="#EBB373"/>
<path d="M187.805 355.471L190.447 352.808C191.045 352.205 191.903 351.95 192.742 352.077C196.363 352.622 196.715 350.681 196.401 347.054C197.331 345.869 198.833 346.792 199.247 347.031L208.465 352.225C209.241 352.652 209.525 353.628 209.097 354.404C209.021 354.542 208.925 354.668 208.812 354.778C205.603 358.012 204.085 359.543 200.091 363.568L187.877 375.879C184.548 379.235 180.475 376.575 181.534 374.882C186.328 367.303 188.865 361.086 188.963 357.37C189.001 356.701 188.402 356.831 187.805 355.471Z" fill="black"/>
<path d="M185.23 360.489C186.4 360.307 187.549 360.004 188.656 359.584C188.758 359.532 188.799 359.406 188.746 359.304C188.718 359.249 188.666 359.209 188.605 359.196C188.049 359.009 183.114 357.445 182.056 358.423C181.856 358.594 181.771 358.864 181.838 359.118C181.907 359.599 182.2 360.019 182.628 360.25C183.449 360.604 184.36 360.688 185.23 360.489ZM187.892 359.4C186.553 359.835 184.047 360.508 182.888 359.857C182.586 359.677 182.376 359.376 182.31 359.031C182.274 358.924 182.308 358.807 182.395 358.736C182.979 358.202 185.85 358.802 187.892 359.4Z" fill="#28ED70"/>
<path d="M188.61 359.602C188.659 359.61 188.71 359.603 188.756 359.583C188.811 359.521 188.824 359.432 188.788 359.356C188.763 359.162 187.07 354.727 184.558 355.352C183.938 355.52 183.795 355.847 183.804 356.105C183.805 357.34 187.032 359.252 188.505 359.652L188.61 359.602ZM184.861 355.683C186.476 355.472 187.761 358.021 188.216 359.048C186.593 358.445 184.218 356.817 184.255 356.059C184.247 355.998 184.225 355.828 184.692 355.718L184.861 355.683Z" fill="#28ED70"/>
<path d="M188.026 359.359C189.061 358.566 190.454 358.259 191.727 358.543" stroke="#28ED70" stroke-width="0.5" stroke-miterlimit="10" stroke-linecap="round" stroke-linejoin="round"/>
<path d="M187.63 362.251C188.665 361.458 190.058 361.151 191.331 361.435" stroke="#28ED70" stroke-width="0.5" stroke-miterlimit="10" stroke-linecap="round" stroke-linejoin="round"/>
<path d="M186.634 365.349C187.669 364.556 189.062 364.249 190.335 364.533" stroke="#28ED70" stroke-width="0.5" stroke-miterlimit="10" stroke-linecap="round" stroke-linejoin="round"/>
<path d="M64.5831 387.31C72.4206 386.308 77.8307 378.115 76.6668 369.011C75.5029 359.906 68.2058 353.337 60.3682 354.339C52.5307 355.341 47.1206 363.534 48.2845 372.639C49.4484 381.743 56.7455 388.312 64.5831 387.31Z" fill="#28ED70"/>
<path opacity="0.4" d="M64.5831 387.31C72.4206 386.308 77.8307 378.115 76.6668 369.011C75.5029 359.906 68.2058 353.337 60.3682 354.339C52.5307 355.341 47.1206 363.534 48.2845 372.639C49.4484 381.743 56.7455 388.312 64.5831 387.31Z" fill="black"/>
<path d="M16.355 123.131L25.862 92.297L44.719 119.507L76.456 367.872L48.093 371.496L16.355 123.131Z" fill="#28ED70"/>
<path d="M30.851 99.474C28.593 101.73 26.096 102.069 23.343 100.454L16.356 123.131C16.356 123.131 19.619 129.207 23.417 122.665C23.417 122.665 27.754 128.092 31.505 121.632C31.505 121.632 35.574 125.875 38.56 120.73C38.56 120.73 42.068 124.072 44.719 119.507L30.851 99.474Z" fill="#B97964"/>
<path opacity="0.3" d="M31.606 121.651L64.952 369.687L71.555 368.843C72.566 368.401 38.662 120.749 38.662 120.749C35.674 125.894 31.606 121.651 31.606 121.651Z" fill="white"/>
<path opacity="0.3" d="M23.45 122.748C21.355 126.356 19.425 126.125 18.114 125.193L51.227 371.495L57.83 370.651C58.793 370.23 28.103 145.701 25.163 124.209C24.121 123.585 23.45 122.748 23.45 122.748Z" fill="white"/>
<path d="M47.74 374.709L77.7806 370.869L77.161 366.022L47.1203 369.862L47.74 374.709Z" fill="black"/>
<path d="M20.068 144.9C20.068 144.9 25.614 142.035 26.059 140.373C26.505 138.711 24.109 139.253 24.109 139.253C24.109 139.253 26.708 138.495 26.535 137.348C26.328 135.971 23.821 136.55 23.821 136.55C23.821 136.55 25.918 135.844 25.696 134.835C25.466 133.787 22.59 134.239 22.59 134.239C22.59 134.239 23.972 133.463 23.421 132.848C22.869 132.233 16.747 133.075 15.156 134.527C13.565 135.98 14.887 143.815 15.578 145.442C15.777 145.909 16.254 146.645 18.561 146.972C19.045 147.041 19.509 146.727 19.617 146.251L19.904 144.987L20.068 144.9Z" fill="#EBB373"/>
<path opacity="0.2" d="M24.082 139.126C24.078 139.127 24.075 139.128 24.071 139.129L19.604 140.667C19.544 140.688 19.513 140.76 19.535 140.828C19.557 140.896 19.626 140.936 19.683 140.915L24.15 139.377C24.21 139.356 24.241 139.284 24.219 139.216C24.198 139.151 24.138 139.113 24.082 139.126Z" fill="black"/>
<path opacity="0.2" d="M23.6629 136.453L23.6599 136.454L19.2519 137.59C19.1909 137.606 19.1549 137.675 19.1719 137.744C19.1899 137.814 19.2419 137.848 19.3149 137.842L23.7229 136.706C23.7839 136.69 23.8199 136.621 23.8029 136.551C23.7859 136.482 23.7229 136.439 23.6629 136.453Z" fill="black"/>
<path opacity="0.2" d="M22.41 134.146L19.11 134.896C19.048 134.91 19.011 134.979 19.027 135.049C19.043 135.119 19.106 135.165 19.168 135.151L22.468 134.4C22.53 134.386 22.567 134.318 22.551 134.248C22.535 134.178 22.472 134.132 22.41 134.146Z" fill="black"/>
<path d="M103.615 374.766H107.367C108.216 374.766 109.001 375.196 109.503 375.88C111.666 378.835 113.293 377.718 115.646 374.94C117.142 374.766 117.545 376.483 117.667 376.944L120.472 387.146C120.716 387.998 120.223 388.886 119.371 389.13C119.219 389.173 119.062 389.194 118.905 389.192C114.349 389.192 112.193 389.192 106.523 389.192H89.181C84.453 389.192 83.474 384.428 85.421 383.987C94.178 382.052 100.379 379.475 103.085 376.928C103.585 376.481 103.069 376.147 103.615 374.766Z" fill="black"/>
<path d="M98.2389 376.472C99.1919 377.175 100.217 377.776 101.295 378.267C101.404 378.303 101.522 378.243 101.557 378.133C101.576 378.074 101.568 378.009 101.535 377.957C101.276 377.431 98.9109 372.825 97.4719 372.763C97.2099 372.741 96.9579 372.872 96.8249 373.098C96.5319 373.486 96.4399 373.99 96.5779 374.456C96.9029 375.288 97.4849 375.995 98.2389 376.472ZM100.887 377.594C99.6359 376.95 97.3919 375.645 97.0379 374.364C96.9529 374.023 97.0179 373.662 97.2179 373.372C97.2679 373.271 97.3759 373.213 97.4879 373.224C98.2769 373.264 99.8729 375.724 100.887 377.594Z" fill="#28ED70"/>
<path d="M101.249 378.247C101.278 378.288 101.319 378.319 101.365 378.337C101.448 378.332 101.52 378.278 101.548 378.2C101.668 378.045 103.625 373.72 101.412 372.377C100.856 372.055 100.523 372.184 100.346 372.373C99.47 373.244 100.385 376.881 101.139 378.209L101.249 378.247ZM101.391 372.825C102.679 373.823 101.774 376.53 101.365 377.577C100.65 376 100.133 373.168 100.697 372.66C100.735 372.612 100.84 372.476 101.247 372.73L101.391 372.825Z" fill="#28ED70"/>
<path d="M101.01 377.661C102.302 377.837 103.501 378.609 104.196 379.713" stroke="#28ED70" stroke-width="0.5" stroke-miterlimit="10" stroke-linecap="round" stroke-linejoin="round"/>
<path d="M98.679 379.416C99.971 379.592 101.17 380.365 101.865 381.468" stroke="#28ED70" stroke-width="0.5" stroke-miterlimit="10" stroke-linecap="round" stroke-linejoin="round"/>
<path d="M95.778 380.892C97.07 381.068 98.269 381.841 98.964 382.944" stroke="#28ED70" stroke-width="0.5" stroke-miterlimit="10" stroke-linecap="round" stroke-linejoin="round"/>
<path d="M75.348 137.366C75.348 137.366 68.716 152.175 69.539 157.982C70.639 165.739 77.314 175.441 83.788 190.19L120.13 184.558C115.717 169.857 112.372 161.643 109.757 129.049C104.377 129.045 101.892 129.293 96.573 130.432C90.904 131.574 85.324 133.117 79.874 135.048C72.863 137.636 75.348 137.366 75.348 137.366Z" fill="black"/>
<path d="M107.589 129.556C107.589 129.556 109.932 128.156 113.626 129.993C117.32 131.831 128.126 142.51 128.126 142.51C128.126 142.51 115.235 158.561 115.045 158.561C114.855 158.561 107.968 149.209 107.968 149.209L107.589 129.556Z" fill="black"/>
<path d="M70.136 154.91L61.328 144.607C61.328 144.607 72.13 137.378 75.204 136.215C78.279 135.052 79.873 135.05 79.873 135.05L70.136 154.91Z" fill="black"/>
<path d="M83.7879 190.19C77.5409 211.558 79.1649 260.812 84.8239 296.34C88.8839 328.437 98.6169 368.983 98.6169 368.983L118.172 365.917C118.172 365.917 111.628 313.354 110.056 290.943C107.926 260.061 107.799 186.47 107.799 186.47L81.8719 185.807L83.7879 190.19Z" fill="#28ED70"/>
<path opacity="0.4" d="M83.7879 190.19C77.5409 211.558 79.1649 260.812 84.8239 296.34C88.8839 328.437 98.6169 368.983 98.6169 368.983L118.172 365.917C118.172 365.917 111.628 313.354 110.056 290.943C107.926 260.061 107.799 186.47 107.799 186.47L81.8719 185.807L83.7879 190.19Z" fill="black"/>
<path opacity="0.2" d="M108.208 213.823C105.641 206.985 103.9 203.358 103.443 210.166C102.489 224.572 104.63 241.038 108.364 249.205C108.394 236.96 108.015 224.394 108.208 213.823Z" fill="black"/>
<path d="M82.059 185.807C82.059 185.807 94.987 199.782 104.516 219.967C114.44 240.989 121.121 268.579 128.439 285.565C140.025 312.46 182.402 350.039 182.402 350.039L192.415 341.73C192.415 341.73 162.141 298.896 154.126 280.655C128.458 222.258 136.078 197.524 120.129 184.477L118.624 179.441L82.059 185.807Z" fill="#28ED70"/>
<path opacity="0.4" d="M82.059 185.807C82.059 185.807 94.987 199.782 104.516 219.967C114.44 240.989 121.121 268.579 128.439 285.565C140.025 312.46 182.402 350.039 182.402 350.039L192.415 341.73C192.415 341.73 162.141 298.896 154.126 280.655C128.458 222.258 136.078 197.524 120.129 184.477L118.624 179.441L82.059 185.807Z" fill="black"/>
<path d="M69.227 99.492C69.288 99.472 69.342 99.432 69.379 99.38C69.451 99.248 69.403 99.083 69.273 99.008C66.475 96.985 65.632 93.189 67.311 90.172C70.117 84.718 77.183 86.65 77.256 86.664C77.395 86.728 77.559 86.667 77.622 86.529C77.686 86.39 77.625 86.226 77.487 86.163C77.461 86.151 77.433 86.143 77.405 86.14C77.341 86.158 69.828 84.066 66.816 89.924C65.058 93.191 65.969 97.253 68.954 99.456C69.033 99.51 69.134 99.524 69.227 99.492Z" fill="black"/>
<path d="M69.753 99.686C69.842 99.66 69.912 99.593 69.943 99.506C69.985 99.363 69.906 99.213 69.766 99.166C69.766 99.166 66.454 98.0681 65.427 95.6391C64.938 94.3691 65.046 92.9461 65.721 91.7641C65.798 91.6321 65.753 91.4631 65.621 91.3871C65.618 91.3851 65.615 91.384 65.612 91.382C65.476 91.31 65.307 91.358 65.23 91.491C64.481 92.818 64.367 94.41 64.919 95.83C66.048 98.494 69.446 99.613 69.598 99.662C69.645 99.686 69.7 99.695 69.753 99.686Z" fill="black"/>
<path d="M101.175 118.608C103.23 118.205 104.974 116.855 105.878 114.967C105.95 114.835 105.902 114.67 105.772 114.595C105.646 114.52 105.484 114.561 105.408 114.687C105.405 114.692 105.402 114.697 105.4 114.702C103.527 119.442 94.129 118.555 94.035 118.547C93.884 118.529 93.746 118.637 93.728 118.788C93.728 118.791 93.727 118.793 93.727 118.796C93.709 118.941 93.812 119.074 93.957 119.092C93.962 119.093 93.967 119.093 93.973 119.093C96.384 119.334 98.818 119.17 101.175 118.608Z" fill="black"/>
<path d="M138.972 102.916C137.119 103.865 135.013 104.311 132.935 104.195C135.728 101.724 136.809 97.494 135.543 93.986C130.726 97.605 123.693 97.963 118.534 94.853C114.72 92.554 111.916 88.595 107.707 87.142C104.055 85.881 96.47 86.134 95.48 91.534L97.117 95.518C99.919 94.279 104.277 98.557 105.815 101.207C107.353 103.857 107.556 107.041 107.865 110.09C108.173 113.138 108.703 116.355 110.704 118.676C112.44 120.689 115.099 121.745 117.747 121.979C120.395 122.213 123.054 121.7 125.62 121.003C126.676 120.716 127.775 120.368 128.529 119.574C129.283 118.78 129.534 117.404 128.781 116.61C126.936 116.899 124.997 116.544 123.375 115.619C127.259 115.935 131.35 115.277 134.531 113.026C137.708 110.774 139.768 106.73 138.972 102.916Z" fill="black"/>
<path d="M68.858 101.596C66.743 96.487 68.755 90.604 73.555 87.859C76.729 85.817 80.974 85.546 85.036 86.004C93.895 87.002 100.766 94.302 101.345 103.199C101.821 110.514 99.763 118.437 89.469 120.506C69.15 124.59 68.858 101.596 68.858 101.596Z" fill="black"/>
<path d="M98.016 130.224C98.016 130.224 94.846 133.291 90.812 137.656C89.972 138.565 89.025 139.377 88.004 140.078C85.25 141.969 82.679 143.164 81.795 141.834C81.599 141.542 81.436 141.219 81.305 140.877C80.421 138.58 80.294 135.225 82.033 133.484C83.994 131.521 84.867 129.934 84.213 127.654C83.859 126.36 83.227 125.054 82.519 123.797L84.839 122.018L92.695 112.047C92.306 117.655 92.97 127.51 98.016 130.224Z" fill="#EBB373"/>
<path opacity="0.2" d="M84.343 128.156C86.619 126.428 89.012 123.609 88.363 120.774C88.082 119.581 87.691 118.465 87.317 117.763L83.106 124.894C83.634 125.905 83.863 126.588 84.343 128.156Z" fill="black"/>
<path d="M93.264 101.75C93.468 110.966 93.7469 114.853 89.5859 120.172C83.3259 128.173 72.1579 126.994 69.2529 118.167C66.6379 110.222 66.744 96.4851 75.261 91.6321C83.652 86.8491 93.06 92.5341 93.264 101.75Z" fill="#EBB373"/>
<path d="M81.312 106.141C81.377 107.111 80.945 107.963 80.346 108.044C79.748 108.125 79.21 107.404 79.145 106.434C79.08 105.464 79.512 104.612 80.11 104.531C80.709 104.45 81.247 105.171 81.312 106.141Z" fill="black"/>
<path d="M72.041 107.149C72.102 108.089 71.668 108.917 71.072 108.998C70.475 109.078 69.942 108.382 69.881 107.441C69.82 106.501 70.254 105.673 70.851 105.593C71.447 105.511 71.98 106.208 72.041 107.149Z" fill="black"/>
<path d="M83.308 102.487C83.193 102.513 83.072 102.493 82.972 102.42C81.419 101.279 79.889 101.916 79.871 101.924C79.644 102.019 79.392 101.913 79.311 101.68C79.231 101.447 79.351 101.179 79.58 101.08C79.66 101.046 81.58 100.245 83.508 101.661C83.7 101.802 83.736 102.087 83.588 102.296C83.517 102.398 83.416 102.463 83.308 102.487Z" fill="black"/>
<path d="M69.243 102.831C69.148 102.811 69.063 102.751 69.012 102.656C68.906 102.459 68.977 102.185 69.172 102.044C71.123 100.634 72.77 101.349 72.84 101.381C73.036 101.469 73.11 101.723 73.004 101.949C72.9 102.174 72.656 102.285 72.46 102.198C72.396 102.169 71.109 101.636 69.558 102.757C69.458 102.83 69.344 102.853 69.243 102.831Z" fill="black"/>
<path d="M75.187 106.34C75.187 106.34 74.149 109.917 72.782 112.229C72.543 112.633 72.779 113.156 73.235 113.267C74.409 113.553 75.684 113.028 75.684 113.028L75.187 106.34Z" fill="#E4873E"/>
<path d="M80.459 104.531L78.309 104.275C78.309 104.275 79.632 105.706 80.459 104.531Z" fill="black"/>
<path d="M71.169 105.59L69.019 105.334C69.019 105.334 70.342 106.765 71.169 105.59Z" fill="black"/>
<path d="M87.271 103.743C87.271 103.743 83.03 97.776 85.633 92.671C85.633 92.671 68.312 89.823 67.802 106.455C67.802 106.455 64.327 91.256 79.632 88.026C94.937 84.795 99.078 107.288 92.389 115.46C92.385 115.484 90.673 107.877 87.271 103.743Z" fill="black"/>
<path d="M96.87 108.869C96.006 110.862 94.389 112.237 92.83 112.822C90.485 113.703 88.796 109.963 89.344 107.45C89.838 105.188 92.046 103.476 94.45 103.683C96.818 103.888 97.859 106.59 96.87 108.869Z" fill="#EBB373"/>
<path opacity="0.2" d="M91.713 108.965C91.672 108.095 91.989 107.213 92.575 106.568C93.161 105.923 94.008 105.522 94.878 105.479" stroke="black" stroke-width="0.5" stroke-miterlimit="10" stroke-linecap="round" stroke-linejoin="round"/>
<path d="M75.389 116.03C76.073 116.918 76.694 117.854 77.246 118.83L77.82 118.666C80.337 117.706 81.179 116.431 81.376 115.352C81.454 114.803 81.397 114.244 81.209 113.722C81.114 113.422 80.978 113.136 80.805 112.872C79.517 114.156 77.965 115.144 76.257 115.768C75.722 115.911 75.389 116.03 75.389 116.03Z" fill="black"/>
<path d="M76.2319 115.685L76.8079 116.497C79.1689 115.593 80.7209 114.632 81.1829 113.639C81.0869 113.339 80.9519 113.053 80.7789 112.789C79.4919 114.072 77.9399 115.061 76.2319 115.685Z" fill="white"/>
<path d="M77.807 118.624C80.324 117.664 81.166 116.389 81.363 115.31C80.412 115.691 79.538 116.241 78.782 116.932C78.29 117.382 77.95 117.973 77.807 118.624Z" fill="#C15854"/>
<path opacity="0.2" d="M69.615 154.91L71.837 146.887C71.837 146.887 66.526 152.457 68.04 157.802L69.468 156.673L69.615 154.91Z" fill="black"/>
<path opacity="0.2" d="M112.796 155.699C112.796 155.699 108.404 149.83 108.404 149.799L114.045 162.451L112.796 155.699Z" fill="black"/>
<path d="M289.584 383.155H161.234C151.12 383.155 142.921 374.956 142.921 364.842V70.149C142.921 54.569 155.551 41.938 171.132 41.938H282.868C298.449 41.938 311.079 54.569 311.079 70.149V361.66C311.079 373.531 301.455 383.155 289.584 383.155Z" fill="#28ED70"/>
<path d="M283.611 375.13H170.389C158.97 375.13 149.712 365.873 149.712 354.453V70.6399C149.712 59.2209 158.969 49.9629 170.389 49.9629H283.612C295.031 49.9629 304.289 59.2199 304.289 70.6399V354.454C304.288 365.873 295.031 375.13 283.611 375.13Z" fill="white"/>
<path d="M256.372 65.126H192.776V69.102H256.372V65.126Z" stroke="#28ED70" stroke-miterlimit="10"/>
<path d="M280.375 62.772C280.375 63.621 279.694 64.31 278.853 64.31C278.012 64.31 277.331 63.622 277.331 62.772C277.331 61.923 278.012 61.235 278.853 61.235C279.693 61.235 280.375 61.923 280.375 62.772Z" fill="#28ED70"/>
<path d="M280.375 66.684C280.375 67.533 279.694 68.221 278.853 68.221C278.012 68.221 277.331 67.533 277.331 66.684C277.331 65.835 278.012 65.146 278.853 65.146C279.693 65.146 280.375 65.835 280.375 66.684Z" fill="#28ED70"/>
<path d="M280.375 70.596C280.375 71.445 279.694 72.134 278.853 72.134C278.012 72.134 277.331 71.446 277.331 70.596C277.331 69.746 278.012 69.059 278.853 69.059C279.693 69.058 280.375 69.747 280.375 70.596Z" fill="#28ED70"/>
<path d="M175.155 63.849L172.24 66.649L175.155 69.519" stroke="#28ED70" stroke-miterlimit="10" stroke-linecap="round" stroke-linejoin="round"/>
<path d="M291.837 93.739H162.637V116.572H291.837V93.739Z" stroke="#28ED70" stroke-miterlimit="10"/>
<path d="M149.664 82.22C201.437 82.22 253.21 82.22 304.983 82.22" stroke="#28ED70" stroke-miterlimit="10"/>
<path d="M291.837 127.532H162.637V192.845H291.837V127.532Z" stroke="#28ED70" stroke-miterlimit="10"/>
<path d="M162.637 192.846L203.319 160.039C204.771 158.868 206.793 158.739 208.379 159.716L229.557 172.758L257.227 151.38C258.843 150.132 261.056 150.028 262.779 151.121L291.837 169.547" stroke="#28ED70" stroke-miterlimit="10"/>
<path d="M228.749 154.908C233.218 154.908 236.841 151.248 236.841 146.733C236.841 142.218 233.218 138.558 228.749 138.558C224.28 138.558 220.657 142.218 220.657 146.733C220.657 151.248 224.28 154.908 228.749 154.908Z" stroke="#28ED70" stroke-miterlimit="10"/>
<path d="M191.36 202.691H162.637V209.332H191.36V202.691Z" stroke="#28ED70" stroke-miterlimit="10"/>
<path d="M291.837 217.08H162.637V221.507H291.837V217.08Z" stroke="#28ED70" stroke-miterlimit="10"/>
<path d="M291.837 227.041H162.637V231.468H291.837V227.041Z" stroke="#28ED70" stroke-miterlimit="10"/>
<path d="M220.231 237.002H162.637V241.429H220.231V237.002Z" stroke="#28ED70" stroke-miterlimit="10"/>
<path d="M291.837 318.076H162.637V322.503H291.837V318.076Z" stroke="#28ED70" stroke-miterlimit="10"/>
<path d="M291.837 328.037H162.637V332.464H291.837V328.037Z" stroke="#28ED70" stroke-miterlimit="10"/>
<path d="M220.231 337.999H162.637V342.426H220.231V337.999Z" stroke="#28ED70" stroke-miterlimit="10"/>
<path d="M217.178 251.51H162.609V306.639H217.178V251.51Z" stroke="#28ED70" stroke-miterlimit="10"/>
<path d="M162.609 306.639L217.179 251.51" stroke="#28ED70" stroke-miterlimit="10"/>
<path d="M217 306.639L162.43 251.51" stroke="#28ED70" stroke-miterlimit="10"/>
<path d="M289.238 252.011H234.669V307.14H289.238V252.011Z" stroke="#28ED70" stroke-miterlimit="10"/>
<path d="M234.669 307.14L289.238 252.011" stroke="#28ED70" stroke-miterlimit="10"/>
<path d="M289.059 307.14L234.49 252.011" stroke="#28ED70" stroke-miterlimit="10"/>
<path d="M324.55 346.1C324.55 346.1 414.311 327.843 418.003 346.536C423.274 373.219 358.43 389.153 324.204 387.051C289.978 384.949 324.55 346.1 324.55 346.1Z" fill="black"/>
<path opacity="0.2" d="M324.55 346.1C324.55 346.1 414.311 327.843 418.003 346.536C423.274 373.219 358.43 389.153 324.204 387.051C289.978 384.949 324.55 346.1 324.55 346.1Z" fill="black"/>
<path opacity="0.2" d="M388.584 351.402L345.935 376.773L351.288 384.878C351.288 384.878 348.217 389.152 343.009 375.59L369.415 359.232C369.415 359.232 361.332 358.179 361.573 356.918C361.979 354.846 379.905 351.412 388.08 349.868C388.504 349.729 388.96 349.96 389.099 350.384C389.238 350.807 389.007 351.263 388.584 351.402Z" fill="black"/>
<path opacity="0.2" d="M344.505 373.731L351.42 385.713C342.418 387.013 333.302 387.461 324.204 387.051C321.212 386.944 318.264 386.32 315.502 385.208L313.089 380.468L318.908 369.58L344.505 373.731Z" fill="black"/>
<path d="M358.504 369.46L339.535 380.72L342.605 389.856L364.757 380.675L358.504 369.46Z" fill="#895555"/>
<path d="M329.196 383.444L330.832 389.997C330.832 389.997 332.196 390.327 332.583 391.707C332.8 392.482 332.173 394.584 332.173 394.584L336.539 412.639C336.565 412.633 337.777 412.343 338.264 412.013C338.858 411.61 339.342 411.195 339.733 410.77C341.1 409.281 341.311 407.072 341.409 405.433C341.573 402.687 343.388 394.705 343.388 394.705C343.388 394.705 344.052 392.631 346.315 390.854C347.577 389.863 348.185 388.582 348.093 387.776C347.909 386.131 346.751 385.481 345.213 385.621L343.427 385.785C342.183 384.8 341.84 383.188 342.691 381.668C342.691 381.668 343.858 377.797 342.203 378.405C341.259 378.752 337.093 380.465 333.763 381.72C332.987 382.013 332.252 382.289 331.608 382.531V382.533C330.179 383.073 329.196 383.444 329.196 383.444Z" fill="black"/>
<path d="M342.575 398.968C342.628 398.869 342.605 398.742 342.524 398.663C342.15 398.298 341.683 398.031 341.15 397.903C340.869 397.835 340.727 398.286 341.01 398.354C341.484 398.468 341.896 398.701 342.223 399.019C342.332 399.125 342.501 399.105 342.573 398.972C342.573 398.972 342.574 398.97 342.575 398.968Z" fill="#28ED70"/>
<path d="M342.988 397.394C343.041 397.295 343.018 397.168 342.936 397.089C342.562 396.725 342.095 396.457 341.562 396.329C341.281 396.262 341.139 396.712 341.422 396.78C341.896 396.894 342.308 397.127 342.635 397.445C342.744 397.551 342.913 397.531 342.984 397.398C342.986 397.396 342.988 397.394 342.988 397.394Z" fill="#28ED70"/>
<path d="M343.339 395.788C343.392 395.689 343.369 395.562 343.287 395.483C342.913 395.118 342.446 394.851 341.913 394.723C341.632 394.656 341.489 395.106 341.773 395.174C342.247 395.288 342.658 395.521 342.986 395.839C343.096 395.945 343.264 395.925 343.336 395.792C343.336 395.792 343.338 395.79 343.339 395.788Z" fill="#28ED70"/>
<path opacity="0.2" d="M331.609 382.533V382.535C330.178 383.073 329.196 383.445 329.196 383.445L330.832 389.998C330.832 389.998 332.196 390.328 332.583 391.708C332.8 392.483 332.173 394.585 332.173 394.585L336.539 412.64C336.565 412.633 337.777 412.344 338.264 412.014C338.537 411.829 338.78 411.641 339.009 411.451L331.969 382.397C331.85 382.442 331.722 382.49 331.609 382.533Z" fill="white"/>
<path d="M343.09 395.671C343.703 395.465 344.32 395.258 344.96 395.162C345.6 395.066 346.27 395.087 346.871 395.326C347.151 395.437 347.438 395.631 347.491 395.927C347.546 396.238 347.316 396.532 347.053 396.708C346.548 397.047 345.894 397.114 345.3 396.983C344.705 396.852 343.573 396.04 343.09 395.671Z" stroke="#28ED70" stroke-width="0.25" stroke-miterlimit="10"/>
<path d="M343.071 395.595C343.589 395.208 344.111 394.819 344.554 394.348C344.997 393.877 345.361 393.314 345.507 392.684C345.575 392.391 345.579 392.045 345.366 391.833C345.142 391.61 344.769 391.633 344.474 391.748C343.908 391.97 343.48 392.47 343.25 393.033C343.02 393.595 343.044 394.988 343.071 395.595Z" stroke="#28ED70" stroke-width="0.25" stroke-miterlimit="10"/>
<path d="M363.053 290.466C363.053 290.466 365.454 319.545 366.278 321.126C369.065 326.471 388.29 336.062 388.29 336.062L398.289 334.273L405.235 340.43L400.431 343.969L394.983 341.725C391.961 342.173 388.905 342.35 385.851 342.255C380.718 342.104 355.137 335.706 351.209 328.682C347.281 321.659 347.336 289.037 347.336 289.037L363.053 290.466Z" fill="#895555"/>
<path d="M346.55 301.382C346.55 301.382 339.663 275.703 349.387 268.918C359.111 262.132 365.646 297.351 365.646 297.351L346.55 301.382Z" fill="#28ED70"/>
<path opacity="0.5" d="M346.55 301.382C346.55 301.382 339.663 275.703 349.387 268.918C359.111 262.132 365.646 297.351 365.646 297.351L346.55 301.382Z" fill="white"/>
<path d="M351.205 348.117L352.126 314.378L352.763 268.163L332.957 263.251L319.086 263.12L295.626 270.425L294.831 281.746C294.831 281.746 295.554 333.86 295.381 335.425C295.169 337.344 289.214 349.252 289.214 349.252C313.985 355.67 351.546 349.848 351.205 348.117Z" fill="#28ED70"/>
<path opacity="0.2" d="M352.264 300.176L352.598 280.05L356.138 299.358L352.264 300.176Z" fill="black"/>
<path opacity="0.2" d="M309.97 302.101C310.588 301.999 313.107 301.255 313.107 301.255L307.384 281.646L316.243 303.191L310.473 305.293L309.97 302.101Z" fill="black"/>
<path d="M307.77 286.08C307.77 286.08 311.657 318.4 314.362 321.49C318.932 326.712 341.915 340.888 341.915 340.888L353.705 337.14C354.531 336.895 355.431 337.069 356.084 337.599L363.883 343.924L363.102 344.544C362.765 344.812 362.287 344.854 361.904 344.65L360.682 343.996L362.029 345.396L361.579 345.753C361.131 346.108 360.521 346.223 359.965 346.056L356.425 344.994L359.653 347.282C358.9 347.88 357.87 348.065 356.939 347.77L351.763 346.128C348.179 346.838 344.538 347.25 340.88 347.361C334.723 347.558 305.999 336.562 300.808 328.978C295.617 321.394 290.948 290.4 290.948 290.4L307.77 286.08Z" fill="#895555"/>
<path d="M291.695 307.031C291.695 307.031 285.322 277.655 295.046 270.87C304.77 264.084 313.107 301.256 313.107 301.256L291.695 307.031Z" fill="#28ED70"/>
<path opacity="0.5" d="M291.695 307.031C291.695 307.031 285.322 277.655 295.046 270.87C304.77 264.084 313.107 301.256 313.107 301.256L291.695 307.031Z" fill="white"/>
<path d="M368.487 346.395L350.538 345.866L331.492 345.305C331.492 345.309 331.492 345.313 331.492 345.317C331.46 346.73 333.003 347.916 334.94 347.966L353.969 348.527L364.855 348.848C364.872 348.849 364.888 348.849 364.905 348.85H364.908L395.202 349.743C397.123 349.786 398.702 348.689 398.734 347.287L368.487 346.395Z" fill="black"/>
<path d="M395.761 349.615L361.964 348.619C361.381 348.598 360.923 348.202 360.942 347.733C360.945 347.645 360.966 347.558 361.003 347.476L377.054 313.451C377.463 312.478 378.614 311.838 379.899 311.872L413.717 312.869C414.289 312.886 414.742 313.272 414.728 313.731C414.725 313.827 414.701 313.922 414.658 314.011L398.607 348.036C398.191 349.005 397.043 349.643 395.761 349.615Z" fill="black"/>
<path opacity="0.7" d="M413.716 312.868L379.899 311.871C378.615 311.838 377.463 312.477 377.054 313.45L361.609 346.192L350.539 345.866L331.493 345.305C331.493 345.309 331.493 345.313 331.493 345.317C331.461 346.73 333.004 347.916 334.941 347.966L353.97 348.527L364.856 348.848C364.873 348.849 364.889 348.849 364.906 348.85H364.909L395.203 349.743C395.812 349.757 396.379 349.645 396.881 349.456C397.675 349.214 398.319 348.708 398.607 348.035L414.658 314.01C414.701 313.921 414.725 313.826 414.728 313.73C414.74 313.271 414.288 312.885 413.716 312.868Z" fill="white"/>
<path d="M392.865 330.619C392.086 332.252 390.572 333.344 389.475 333.08C388.378 332.816 388.128 331.3 388.886 329.662C389.644 328.024 391.174 326.958 392.271 327.222C393.368 327.487 393.655 328.943 392.865 330.619Z" fill="white"/>
<g opacity="0.3">
<path d="M377.054 313.45L361.609 346.192L363.176 346.238L379.9 311.87C378.614 311.838 377.462 312.477 377.054 313.45Z" fill="black"/>
</g>
<path d="M376.694 384.901L398.361 389.047L402.118 380.171L379.448 372.358L376.694 384.901Z" fill="#895555"/>
<path d="M407.907 393.861L411.027 387.87C411.027 387.87 410.225 386.719 410.85 385.429C411.201 384.704 413.065 383.547 413.065 383.547L421.767 367.135C421.743 367.122 420.644 366.535 420.061 366.46C419.35 366.368 418.712 366.358 418.137 366.417C416.126 366.625 414.504 368.14 413.344 369.301C411.401 371.248 404.75 376.02 404.75 376.02C404.75 376.02 402.878 377.132 400.006 376.962C398.404 376.868 397.1 377.423 396.634 378.087C395.681 379.441 396.117 380.695 397.361 381.61L398.807 382.671C399.085 384.233 398.273 385.668 396.629 386.242C396.629 386.242 393.189 388.366 394.831 389.008C395.769 389.374 400.022 390.853 403.347 392.122C404.122 392.417 404.855 392.698 405.499 392.944L405.5 392.943C406.925 393.488 407.907 393.861 407.907 393.861Z" fill="black"/>
<path d="M408.182 373.369C408.077 373.408 408.01 373.518 408.018 373.632C408.056 374.153 408.228 374.663 408.543 375.112C408.709 375.349 409.114 375.106 408.947 374.867C408.668 374.468 408.514 374.02 408.48 373.565C408.468 373.413 408.329 373.316 408.187 373.368C408.185 373.368 408.184 373.369 408.182 373.369Z" fill="#28ED70"/>
<path d="M406.829 374.275C406.723 374.314 406.657 374.424 406.665 374.537C406.703 375.058 406.875 375.568 407.19 376.017C407.356 376.254 407.761 376.011 407.594 375.772C407.315 375.373 407.161 374.925 407.127 374.469C407.116 374.317 406.976 374.22 406.834 374.272C406.832 374.274 406.831 374.274 406.829 374.275Z" fill="#28ED70"/>
<path d="M405.502 375.244C405.396 375.283 405.33 375.393 405.338 375.506C405.376 376.027 405.548 376.537 405.863 376.986C406.029 377.223 406.434 376.98 406.267 376.741C405.988 376.342 405.834 375.894 405.8 375.439C405.788 375.287 405.649 375.19 405.507 375.242C405.505 375.243 405.502 375.244 405.502 375.244Z" fill="#28ED70"/>
<path opacity="0.2" d="M410.849 385.429C411.2 384.704 413.064 383.547 413.064 383.547L421.766 367.135C421.742 367.122 420.643 366.535 420.06 366.46C419.733 366.418 419.426 366.397 419.129 366.388L405.138 392.806C405.256 392.851 405.384 392.9 405.496 392.943L405.497 392.942C406.925 393.488 407.907 393.861 407.907 393.861L411.027 387.87C411.027 387.87 410.224 386.719 410.849 385.429Z" fill="white"/>
<path d="M405.611 375.496C405.015 375.244 404.416 374.99 403.874 374.638C403.332 374.286 402.844 373.826 402.552 373.249C402.417 372.98 402.329 372.645 402.486 372.389C402.651 372.119 403.018 372.052 403.332 372.094C403.934 372.175 404.469 372.559 404.826 373.051C405.185 373.541 405.493 374.9 405.611 375.496Z" stroke="#28ED70" stroke-width="0.25" stroke-miterlimit="10"/>
<path d="M405.574 375.566C404.929 375.512 404.281 375.458 403.637 375.517C402.993 375.576 402.347 375.756 401.82 376.131C401.575 376.306 401.342 376.562 401.361 376.862C401.381 377.177 401.675 377.408 401.972 377.517C402.543 377.726 403.195 377.635 403.74 377.366C404.287 377.097 405.192 376.039 405.574 375.566Z" stroke="#28ED70" stroke-width="0.25" stroke-miterlimit="10"/>
<path d="M295.184 372.563C290.709 364.948 280.695 344.372 302.346 341.059C323.997 337.746 394.938 374.059 394.938 374.059L389.974 387.656L323.318 375.125C323.318 375.125 332.121 387.628 321.024 386.743C304.904 384.667 301.137 380.685 295.184 372.563Z" fill="black"/>
<path opacity="0.2" d="M324.896 375.541L306.694 369.219C306.694 369.219 321.829 379.103 327.449 380.391L324.896 375.541Z" fill="black"/>
<path d="M315.176 266.419C320.074 261.729 319.094 249.002 317.788 242.429L333.203 254.309C332.892 255.079 332.634 255.869 332.432 256.674C332.016 258.115 331.978 259.639 332.322 261.099C332.656 262.301 334.21 265.614 334.21 265.614C334.21 265.614 335.165 269.364 325.167 269.76C320.799 270.405 315.176 266.419 315.176 266.419Z" fill="#895555"/>
<path opacity="0.2" d="M320.807 249.019C320.374 256.803 328.34 260.102 332.329 261.111C331.985 259.651 332.023 258.127 332.439 256.686L320.807 249.019Z" fill="black"/>
<path d="M314.938 236.797C317.278 245.829 318.409 250.97 324.067 254.727C332.578 260.377 343.154 254.163 343.642 244.59C344.081 235.973 340.181 222.65 330.267 220.829C320.499 219.035 312.599 227.765 314.938 236.797Z" fill="#895555"/>
<path d="M310.993 224.504C311.336 218.863 325.211 216.201 329.62 218.224C330.279 218.526 322.828 224.082 323.292 223.811L319.67 225.838C319.049 225.821 318.008 226.718 317.748 228.632C317.748 228.632 321.074 243.522 317.541 248.676C313.71 247.671 312.361 241.775 310.574 238.449C307.909 233.493 304.437 226.154 310.993 224.504Z" fill="black"/>
<path d="M312.69 245.114C313.896 247.327 316.046 248.774 318.086 249.325C321.155 250.153 321.628 246.975 320.807 244.145C320.068 241.598 318.681 238.586 315.585 239.005C312.534 239.418 311.311 242.584 312.69 245.114Z" fill="#895555"/>
<path d="M327.719 236.522C327.899 237.457 328.555 238.115 329.185 237.991C329.814 237.867 330.178 237.008 329.998 236.072C329.818 235.137 329.162 234.479 328.532 234.603C327.903 234.727 327.539 235.586 327.719 236.522Z" fill="black"/>
<path d="M337.227 235.424C337.407 236.36 338.063 237.017 338.692 236.893C339.321 236.769 339.685 235.91 339.505 234.974C339.325 234.039 338.669 233.381 338.04 233.505C337.411 233.629 337.047 234.488 337.227 235.424Z" fill="black"/>
<path d="M335.223 235.38C335.223 235.38 339.167 239.456 340.509 241.165C339.395 242.592 336.982 242.483 336.982 242.483L335.223 235.38Z" fill="#6D3939"/>
<path d="M325.713 232.943C325.869 232.973 326.039 232.923 326.153 232.797C327.512 231.293 329.188 231.491 329.205 231.493C329.456 231.525 329.69 231.354 329.727 231.111C329.764 230.868 329.59 230.644 329.341 230.611C329.253 230.599 327.153 230.35 325.467 232.217C325.299 232.403 325.316 232.684 325.505 232.844C325.566 232.896 325.638 232.929 325.713 232.943Z" fill="black"/>
<path opacity="0.2" d="M314.352 242.184C314.626 241.567 315.361 241.222 316.049 241.255C316.737 241.289 317.372 241.644 317.876 242.098C318.48 242.644 318.934 243.347 319.177 244.115" stroke="black" stroke-width="0.5" stroke-miterlimit="10" stroke-linecap="round" stroke-linejoin="round"/>
<path d="M341.803 230.593C341.883 230.56 341.955 230.504 342.007 230.427C342.148 230.221 342.093 229.943 341.884 229.807C339.786 228.445 337.848 229.261 337.756 229.287C337.524 229.386 337.415 229.65 337.513 229.876C337.611 230.102 337.877 230.205 338.108 230.109C338.187 230.072 339.689 229.461 341.372 230.555C341.505 230.641 341.666 230.65 341.803 230.593Z" fill="black"/>
<path d="M336.813 245.631C336.084 246.692 335.434 247.803 334.866 248.958C334.65 248.893 334.428 248.832 334.216 248.756C331.28 247.827 330.22 246.431 329.951 245.157C329.83 244.531 329.858 243.886 330.032 243.273C330.122 242.925 330.26 242.592 330.442 242.282C331.705 243.705 334.367 244.781 335.819 245.295C336.454 245.487 336.813 245.631 336.813 245.631Z" fill="black"/>
<path d="M335.852 245.276L335.25 246.242C332.494 245.363 330.671 244.382 330.066 243.254C330.156 242.906 330.294 242.573 330.476 242.263C331.747 243.7 334.401 244.762 335.852 245.276Z" fill="white"/>
<path d="M334.25 248.737C331.314 247.808 330.254 246.412 329.985 245.138C331.094 245.511 332.128 246.077 333.04 246.811C333.634 247.311 334.057 247.984 334.25 248.737Z" fill="#C15854"/>
<path d="M315.465 222.943C315.465 222.943 319.72 209.009 332.48 209.337C331.329 209.815 330.281 210.509 329.391 211.381C329.391 211.381 339.938 208.469 344.666 215.384L342.388 214.568C342.388 214.568 346.261 220.292 343.82 224.996L342.847 223.04C342.847 223.04 339.461 229.285 332.619 228.951L334.671 227.375C334.671 227.375 323.327 229.108 320.058 226.76C318.389 225.665 316.848 224.384 315.465 222.943Z" fill="black"/>
</svg>
