<svg width="415" height="443" viewBox="0 0 415 443" fill="none" xmlns="http://www.w3.org/2000/svg">
<path d="M237.658 430.25C237.658 432.987 220.215 435.206 198.698 435.206C177.181 435.206 159.738 432.987 159.738 430.25C159.738 427.513 177.181 425.295 198.698 425.295C220.215 425.295 237.658 427.513 237.658 430.25Z" fill="#E0E0E0"/>
<path d="M122.011 109.178C125.271 107.208 128.742 105.714 132.322 104.697L134.446 94.4915L151.69 94.1895L154.172 104.313C157.786 105.203 161.307 106.574 164.635 108.429L173.35 102.716L185.757 114.696L180.355 123.604C182.326 126.865 183.82 130.337 184.836 133.917L195.041 136.041L195.344 153.284L185.22 155.766C184.33 159.379 182.958 162.9 181.104 166.228L186.816 174.944L174.838 187.351L165.928 181.949C162.667 183.919 159.196 185.413 155.615 186.429L153.491 196.635L136.248 196.938L133.766 186.813C130.153 185.922 126.632 184.551 123.304 182.697L114.589 188.41L102.182 176.431L107.584 167.522C105.614 164.261 104.119 160.79 103.103 157.209L92.8967 155.085L92.5938 137.842L102.719 135.359C103.609 131.746 104.981 128.225 106.835 124.897L101.123 116.182L113.101 103.775L122.011 109.178ZM131.203 132.149C124.106 139.5 124.311 151.212 131.663 158.309C139.014 165.406 150.726 165.2 157.823 157.849C164.92 150.498 164.715 138.786 157.363 131.689C150.012 124.593 138.3 124.799 131.203 132.149Z" fill="#F5F5F5"/>
<path d="M223.431 139.265C226.175 138.315 229 137.753 231.831 137.564L235.038 130.293L247.942 132.811L248.182 140.754C250.734 141.993 253.142 143.575 255.328 145.487L262.734 142.614L270.078 153.519L264.634 159.301C265.585 162.046 266.146 164.872 266.334 167.703L273.604 170.91L271.087 183.814L263.144 184.054C261.906 186.606 260.323 189.013 258.411 191.199L261.282 198.605L250.378 205.95L244.595 200.505C241.85 201.455 239.025 202.016 236.194 202.205L232.986 209.476L220.083 206.958L219.843 199.014C217.291 197.775 214.884 196.193 212.698 194.281L205.292 197.153L197.948 186.248L203.393 180.465C202.443 177.72 201.881 174.895 201.693 172.064L194.422 168.857L196.94 155.953L204.883 155.713C206.122 153.161 207.705 150.754 209.616 148.568L206.744 141.162L217.648 133.817L223.431 139.265ZM226.629 157.854C220.168 162.206 218.458 170.97 222.81 177.431C227.161 183.892 235.926 185.601 242.386 181.25C248.846 176.899 250.557 168.134 246.205 161.673C241.854 155.212 233.09 153.502 226.629 157.854Z" fill="#EBEBEB"/>
<path d="M268.645 0.066695C268.649 0.061695 268.729 0.121694 268.881 0.241694C269.035 0.358694 269.252 0.548695 269.555 0.774695C270.153 1.2347 271.057 1.8897 272.297 2.6067C273.534 3.3247 275.126 4.0817 277.069 4.6777C279.011 5.2667 281.318 5.6557 283.874 5.5727C286.434 5.5147 289.205 5.0187 292.192 4.5697C295.173 4.1017 298.442 3.85069 301.835 4.26169C305.22 4.66169 308.723 5.61469 312.068 7.23569C315.406 8.85869 318.576 11.1657 321.192 14.1177C323.813 17.0637 325.765 20.4627 326.993 23.9677C328.235 27.4717 328.712 31.0957 328.557 34.5007C328.432 37.9077 327.955 41.1057 327.871 44.1157C327.754 47.1227 328.12 49.9327 328.943 52.3537C329.741 54.7827 330.887 56.8217 332.081 58.4617C333.273 60.1075 334.515 61.3595 335.6 62.2895C336.129 62.7735 336.657 63.1315 337.089 63.4735C337.547 63.7795 337.926 64.0545 338.247 64.2515C338.56 64.4405 338.804 64.5875 338.982 64.6955C339.147 64.7975 339.23 64.8525 339.227 64.8575C339.224 64.8625 339.136 64.8185 338.965 64.7265C338.782 64.6255 338.532 64.4875 338.211 64.3105C337.882 64.1225 337.497 63.8555 337.03 63.5565C336.589 63.2225 336.052 62.8695 335.513 62.3915C334.408 61.4715 333.143 60.2245 331.926 58.5747C330.708 56.9317 329.535 54.8817 328.713 52.4297C327.866 49.9887 327.481 47.1357 327.587 44.1077C327.66 41.0767 328.127 37.8717 328.242 34.4907C328.386 31.1137 327.909 27.5447 326.677 24.0787C325.459 20.6157 323.527 17.2567 320.937 14.3447C318.352 11.4277 315.222 9.1457 311.922 7.5357C308.615 5.9277 305.15 4.9777 301.799 4.5737C298.438 4.1597 295.211 4.3957 292.234 4.8497C289.253 5.2847 286.465 5.7707 283.881 5.8137C281.298 5.8817 278.966 5.47169 277.014 4.85969C275.059 4.24169 273.465 3.46069 272.231 2.72169C270.994 1.98269 270.099 1.3087 269.514 0.828696C269.217 0.593696 269.007 0.394695 268.86 0.268695C268.713 0.138695 268.641 0.070695 268.645 0.066695Z" fill="#E0E0E0"/>
<path d="M361.995 336.095C361.995 336.095 362.058 335.956 362.188 335.689C362.221 335.622 362.257 335.548 362.297 335.465C362.332 335.38 362.359 335.282 362.395 335.179C362.464 334.971 362.555 334.732 362.596 334.445C362.622 334.303 362.657 334.154 362.68 333.994C362.692 333.833 362.704 333.663 362.717 333.486C362.738 333.309 362.731 333.122 362.722 332.927C362.709 332.733 362.722 332.528 362.687 332.32C362.612 331.478 362.367 330.526 361.991 329.496C361.239 327.43 359.837 325.098 357.912 322.644C355.988 320.184 353.502 317.619 350.557 315.017C347.61 312.414 344.171 309.804 340.308 307.264C336.442 304.729 332.146 302.264 327.441 300.054C325.087 298.952 322.63 297.917 320.072 296.991C317.516 296.061 314.854 295.25 312.095 294.636C309.338 294.036 306.47 293.606 303.556 293.711C302.106 293.773 300.633 293.956 299.248 294.456C298.558 294.707 297.896 295.04 297.296 295.467C296.71 295.912 296.197 296.452 295.81 297.083C295.446 297.727 295.219 298.437 295.113 299.165C295.031 299.897 295.057 300.637 295.173 301.363C295.405 302.817 295.959 304.195 296.607 305.495C297.927 308.097 299.693 310.398 301.553 312.52C303.427 314.637 305.427 316.573 307.479 318.359C309.529 320.148 311.624 321.797 313.729 323.323C317.943 326.37 322.181 328.934 326.271 331.088C330.364 333.237 334.314 334.983 338.019 336.299C341.722 337.615 345.169 338.548 348.254 339.039C351.333 339.534 354.052 339.631 356.224 339.288C357.307 339.118 358.258 338.871 359.031 338.529C359.231 338.459 359.403 338.348 359.579 338.265C359.754 338.179 359.92 338.095 360.066 337.99C360.215 337.893 360.357 337.8 360.492 337.711C360.62 337.613 360.734 337.511 360.846 337.419C361.077 337.243 361.242 337.049 361.391 336.887C361.464 336.805 361.537 336.734 361.594 336.662C361.646 336.587 361.694 336.519 361.737 336.458C361.904 336.217 361.995 336.095 361.995 336.095C361.995 336.095 361.914 336.223 361.748 336.47C361.706 336.532 361.66 336.601 361.608 336.678C361.552 336.751 361.48 336.823 361.408 336.906C361.261 337.07 361.097 337.268 360.866 337.447C360.755 337.54 360.641 337.645 360.513 337.744C360.378 337.834 360.236 337.929 360.086 338.028C359.941 338.134 359.774 338.22 359.599 338.308C359.422 338.393 359.249 338.505 359.049 338.577C358.273 338.927 357.318 339.18 356.231 339.356C354.051 339.711 351.324 339.623 348.236 339.135C345.143 338.652 341.687 337.726 337.976 336.415C334.263 335.103 330.305 333.362 326.203 331.215C322.104 329.064 317.857 326.5 313.634 323.452C311.525 321.926 309.424 320.276 307.369 318.484C305.312 316.695 303.306 314.756 301.425 312.633C299.558 310.505 297.783 308.195 296.452 305.574C295.799 304.264 295.238 302.873 295.002 301.393C294.884 300.654 294.857 299.898 294.941 299.146C295.05 298.397 295.284 297.664 295.661 296.998C296.061 296.346 296.591 295.788 297.194 295.331C297.811 294.893 298.487 294.553 299.19 294.297C300.6 293.789 302.087 293.605 303.55 293.543C306.488 293.438 309.367 293.872 312.132 294.475C314.9 295.092 317.568 295.907 320.128 296.84C322.691 297.77 325.151 298.808 327.508 299.914C332.22 302.132 336.519 304.605 340.386 307.148C344.251 309.696 347.691 312.316 350.638 314.929C353.583 317.541 356.067 320.116 357.988 322.587C359.911 325.053 361.309 327.396 362.055 329.475C362.427 330.511 362.669 331.469 362.739 332.317C362.773 332.527 362.759 332.733 362.77 332.928C362.778 333.124 362.784 333.312 362.761 333.49C362.747 333.669 362.733 333.839 362.719 334.001C362.694 334.161 362.658 334.311 362.63 334.454C362.585 334.742 362.491 334.982 362.419 335.19C362.382 335.294 362.353 335.391 362.316 335.476C362.274 335.558 362.236 335.632 362.202 335.699C362.068 335.962 361.995 336.095 361.995 336.095Z" fill="#E0E0E0"/>
<path d="M367.416 308.924C367.416 308.924 367.37 308.778 367.29 308.493C367.27 308.421 367.247 308.342 367.223 308.253C367.193 308.166 367.148 308.075 367.106 307.974C367.019 307.773 366.928 307.534 366.768 307.292C366.693 307.169 366.62 307.034 366.531 306.9C366.433 306.772 366.329 306.637 366.22 306.496C366.118 306.35 365.988 306.215 365.852 306.076C365.713 305.94 365.587 305.779 365.421 305.646C364.804 305.067 363.988 304.52 363.022 304.002C361.085 302.961 358.487 302.154 355.417 301.604C352.343 301.049 348.782 300.79 344.851 300.809C340.919 300.828 336.615 301.17 332.042 301.846C327.47 302.527 322.623 303.548 317.64 305.031C315.15 305.775 312.628 306.639 310.102 307.65C307.576 308.658 305.049 309.824 302.581 311.202C300.125 312.589 297.698 314.178 295.593 316.196C294.552 317.208 293.575 318.325 292.874 319.619C292.526 320.266 292.254 320.955 292.09 321.673C291.949 322.395 291.926 323.14 292.057 323.868C292.214 324.591 292.517 325.272 292.923 325.886C293.349 326.487 293.861 327.022 294.431 327.486C295.572 328.417 296.902 329.076 298.251 329.615C300.968 330.678 303.818 331.22 306.618 331.565C309.425 331.897 312.207 332.011 314.927 331.978C317.648 331.949 320.309 331.784 322.895 331.522C328.067 330.991 332.937 330.084 337.424 328.968C341.91 327.847 346.019 326.52 349.66 325.037C353.3 323.554 356.493 321.956 359.122 320.269C361.75 318.589 363.843 316.852 365.235 315.15C365.93 314.302 366.476 313.485 366.825 312.714C366.927 312.529 366.982 312.331 367.059 312.153C367.132 311.972 367.2 311.799 367.239 311.624C367.285 311.452 367.33 311.288 367.372 311.132C367.403 310.974 367.419 310.821 367.441 310.679C367.497 310.394 367.49 310.139 367.493 309.92C367.493 309.81 367.5 309.709 367.495 309.617C367.484 309.526 367.474 309.444 367.466 309.37C367.429 309.076 367.416 308.924 367.416 308.924C367.416 308.924 367.441 309.074 367.481 309.368C367.491 309.442 367.502 309.525 367.515 309.616C367.522 309.708 367.516 309.81 367.518 309.92C367.517 310.14 367.527 310.397 367.474 310.684C367.453 310.827 367.438 310.981 367.408 311.141C367.367 311.298 367.324 311.464 367.279 311.637C367.241 311.813 367.174 311.988 367.102 312.17C367.026 312.35 366.972 312.549 366.87 312.736C366.524 313.513 365.98 314.338 365.286 315.193C363.895 316.909 361.802 318.659 359.173 320.351C356.543 322.049 353.348 323.658 349.705 325.151C346.061 326.644 341.948 327.979 337.458 329.108C332.967 330.231 328.092 331.145 322.911 331.681C320.321 331.946 317.655 332.113 314.928 332.144C312.202 332.179 309.414 332.066 306.597 331.734C303.787 331.389 300.925 330.847 298.187 329.776C296.827 329.233 295.483 328.568 294.321 327.621C293.741 327.148 293.217 326.602 292.779 325.984C292.362 325.353 292.048 324.65 291.886 323.902C291.75 323.149 291.775 322.38 291.92 321.638C292.088 320.9 292.367 320.196 292.721 319.538C293.435 318.221 294.423 317.093 295.472 316.073C297.595 314.039 300.032 312.447 302.497 311.055C304.973 309.673 307.507 308.505 310.039 307.497C312.57 306.485 315.098 305.622 317.592 304.878C322.584 303.397 327.439 302.38 332.018 301.704C336.599 301.033 340.91 300.697 344.847 300.686C348.784 300.675 352.351 300.943 355.43 301.508C358.506 302.068 361.109 302.886 363.05 303.941C364.018 304.466 364.836 305.02 365.452 305.607C365.617 305.741 365.744 305.904 365.882 306.042C366.018 306.183 366.148 306.319 366.25 306.467C366.358 306.61 366.461 306.746 366.559 306.876C366.647 307.012 366.72 307.148 366.794 307.273C366.952 307.518 367.042 307.759 367.126 307.962C367.167 308.064 367.211 308.156 367.24 308.244C367.263 308.333 367.285 308.414 367.304 308.486C367.382 308.776 367.416 308.924 367.416 308.924Z" fill="#E0E0E0"/>
<path d="M347.437 280.404C347.437 280.404 347.294 280.351 347.019 280.24C346.95 280.212 346.873 280.181 346.788 280.146C346.701 280.117 346.602 280.096 346.496 280.068C346.283 280.013 346.039 279.939 345.75 279.918C345.607 279.902 345.455 279.877 345.295 279.865C345.134 279.864 344.964 279.864 344.786 279.863C344.607 279.854 344.422 279.875 344.228 279.897C344.035 279.923 343.83 279.924 343.624 279.974C342.789 280.106 341.856 280.417 340.854 280.863C338.844 281.756 336.615 283.315 334.299 285.405C331.977 287.494 329.59 290.15 327.197 293.268C324.803 296.387 322.437 299.998 320.169 304.027C317.906 308.058 315.743 312.514 313.862 317.36C312.925 319.784 312.062 322.306 311.314 324.922C310.563 327.536 309.936 330.247 309.514 333.042C309.106 335.833 308.874 338.724 309.179 341.625C309.341 343.068 309.625 344.524 310.219 345.871C310.517 346.543 310.895 347.179 311.362 347.749C311.846 348.303 312.421 348.777 313.077 349.12C313.745 349.439 314.469 349.616 315.202 349.672C315.938 349.703 316.675 349.626 317.391 349.461C318.826 349.129 320.162 348.482 321.414 347.746C323.918 346.25 326.093 344.33 328.081 342.328C330.064 340.313 331.858 338.184 333.498 336.014C335.142 333.846 336.642 331.642 338.019 329.437C340.768 325.024 343.035 320.619 344.902 316.39C346.764 312.158 348.233 308.098 349.292 304.311C350.35 300.526 351.043 297.023 351.321 293.912C351.603 290.806 351.513 288.087 351.021 285.944C350.777 284.875 350.465 283.943 350.07 283.195C349.986 283.001 349.864 282.836 349.769 282.666C349.671 282.498 349.575 282.337 349.462 282.2C349.354 282.058 349.252 281.923 349.155 281.794C349.049 281.673 348.939 281.567 348.84 281.461C348.649 281.243 348.443 281.092 348.272 280.954C348.185 280.887 348.11 280.819 348.034 280.767C347.955 280.72 347.884 280.677 347.82 280.638C347.566 280.487 347.437 280.404 347.437 280.404C347.437 280.404 347.571 280.476 347.828 280.624C347.893 280.661 347.965 280.703 348.045 280.749C348.122 280.8 348.199 280.867 348.287 280.933C348.461 281.069 348.67 281.218 348.864 281.436C348.964 281.541 349.077 281.647 349.184 281.768C349.283 281.897 349.387 282.032 349.497 282.174C349.613 282.312 349.71 282.472 349.81 282.641C349.906 282.811 350.03 282.977 350.116 283.171C350.518 283.921 350.836 284.856 351.087 285.928C351.591 288.078 351.691 290.805 351.418 293.919C351.149 297.038 350.463 300.549 349.411 304.342C348.358 308.137 346.894 312.205 345.035 316.445C343.171 320.683 340.906 325.096 338.156 329.519C336.779 331.728 335.277 333.938 333.631 336.111C331.989 338.287 330.191 340.421 328.203 342.444C326.208 344.454 324.027 346.383 321.503 347.891C320.241 348.633 318.892 349.288 317.431 349.626C316.702 349.795 315.949 349.874 315.193 349.842C314.439 349.785 313.691 349.602 313.001 349.272C312.323 348.918 311.73 348.427 311.232 347.858C310.752 347.273 310.366 346.622 310.063 345.938C309.459 344.567 309.173 343.095 309.01 341.641C308.703 338.718 308.937 335.816 309.348 333.015C309.773 330.211 310.402 327.494 311.157 324.875C311.908 322.254 312.774 319.728 313.715 317.301C315.603 312.448 317.774 307.988 320.045 303.955C322.321 299.924 324.697 296.311 327.101 293.192C329.504 290.074 331.901 287.418 334.235 285.331C336.562 283.243 338.804 281.687 340.827 280.8C341.835 280.357 342.774 280.05 343.616 279.922C343.823 279.874 344.03 279.874 344.224 279.849C344.419 279.828 344.606 279.809 344.785 279.819C344.964 279.821 345.135 279.823 345.298 279.825C345.46 279.838 345.612 279.865 345.756 279.882C346.047 279.907 346.292 279.984 346.505 280.042C346.611 280.072 346.71 280.094 346.797 280.125C346.882 280.161 346.959 280.194 347.027 280.223C347.3 280.341 347.437 280.404 347.437 280.404Z" fill="#E0E0E0"/>
<path d="M294.65 339.54C295.306 339.979 295.482 340.866 295.043 341.521C294.604 342.177 293.717 342.353 293.062 341.914C292.406 341.475 292.23 340.588 292.669 339.933C293.107 339.277 293.994 339.101 294.65 339.54Z" fill="#E0E0E0"/>
<path d="M365.081 280.449C365.235 281.223 364.732 281.974 363.958 282.128C363.184 282.281 362.433 281.779 362.279 281.005C362.126 280.231 362.628 279.48 363.402 279.326C364.176 279.173 364.928 279.676 365.081 280.449Z" fill="#E0E0E0"/>
<path d="M304.412 342.392C304.451 342.589 304.323 342.78 304.127 342.819C303.93 342.858 303.739 342.73 303.7 342.534C303.661 342.337 303.789 342.146 303.985 342.107C304.182 342.067 304.373 342.195 304.412 342.392Z" fill="#E0E0E0"/>
<path d="M304.225 301.628C304.264 301.825 304.136 302.016 303.94 302.055C303.743 302.094 303.552 301.966 303.513 301.77C303.474 301.573 303.602 301.382 303.798 301.343C303.994 301.303 304.186 301.431 304.225 301.628Z" fill="#E0E0E0"/>
<path d="M363.568 309.688C363.607 309.885 363.479 310.076 363.282 310.115C363.085 310.154 362.894 310.026 362.855 309.83C362.816 309.633 362.944 309.443 363.14 309.404C363.338 309.365 363.529 309.491 363.568 309.688Z" fill="#E0E0E0"/>
<path d="M365.223 292.108C365.262 292.305 365.134 292.496 364.938 292.535C364.741 292.574 364.55 292.446 364.511 292.25C364.472 292.054 364.6 291.862 364.796 291.823C364.993 291.784 365.184 291.912 365.223 292.108Z" fill="#E0E0E0"/>
<path d="M336.467 315.03C337.214 318.797 334.766 322.456 330.999 323.203C327.232 323.95 323.573 321.502 322.826 317.735C322.079 313.968 324.527 310.309 328.294 309.562C332.06 308.816 335.72 311.264 336.467 315.03Z" fill="#E0E0E0"/>
<path d="M284.643 93.8086C281.606 85.8546 277.001 78.6565 271.01 72.5445C260.688 62.0125 248.945 52.6875 235.649 46.1515C222.354 39.6155 200.667 33.8116 184.876 33.8966C176.722 33.5856 172.603 34.0935 165.183 36.9585C160.547 38.7485 156.658 42.8766 156.336 47.7736C156.039 52.3036 158.835 57.8725 162.581 60.5125C178.662 71.8465 190.841 72.4375 206.436 77.4305C222.031 82.4225 238.08 89.8155 246.491 103.687C251.056 111.215 253.657 120.85 261.578 124.845C269.254 128.716 279.383 124.957 284.09 117.836C288.799 110.715 287.68 101.762 284.643 93.8086Z" fill="#F5F5F5"/>
<path d="M70.8385 236.095C70.8385 236.095 70.4485 236.323 69.6755 236.744C68.9065 237.173 67.7375 237.764 66.2595 238.639C63.2785 240.338 58.9295 242.955 53.6805 246.826C48.4375 250.691 42.2665 255.803 35.9346 262.565C32.7686 265.941 29.5606 269.721 26.4336 273.937C23.2806 278.13 20.3226 282.85 17.8056 288.097C16.5946 290.741 15.4736 293.505 14.5926 296.418C13.7426 299.338 13.1036 302.389 12.8126 305.546C12.5456 308.703 12.6966 311.958 13.3256 315.183C13.6036 316.806 14.1256 318.386 14.6486 319.974C15.2496 321.535 15.9386 323.082 16.7976 324.554C20.1796 330.487 25.5226 335.469 31.8316 339.062C38.1526 342.685 45.4485 344.869 53.0235 346.132C56.8185 346.764 60.6965 347.189 64.6285 347.492C66.5935 347.66 68.5775 347.727 70.5705 347.813C72.5635 347.899 74.5675 347.985 76.5825 348.072C78.5965 348.198 80.6245 348.156 82.6625 348.155C84.6995 348.15 86.7475 348.145 88.8055 348.139C90.8645 348.177 92.9285 348.006 95.0035 347.931C97.0785 347.835 99.1635 347.738 101.257 347.641C118 346.627 135.222 343.959 152.547 339.944C187.243 331.88 218.956 319.324 246.874 306.291C260.858 299.824 273.942 293.065 284.964 284.9C290.475 280.837 295.406 276.38 299.628 271.634C300.152 271.037 300.672 270.444 301.191 269.853C301.705 269.259 302.166 268.625 302.652 268.018C303.132 267.406 303.609 266.797 304.083 266.191C304.522 265.559 304.958 264.93 305.393 264.305C307.193 261.845 308.659 259.244 309.859 256.598C312.229 251.31 313.582 245.795 313.36 240.563C313.144 235.354 311.154 230.501 307.818 227.298C304.52 224.053 300.337 222.419 296.482 221.695C292.586 220.978 288.919 221.154 285.719 221.703C282.507 222.238 279.729 223.087 277.36 223.907C274.99 224.732 273.027 225.547 271.443 226.209C269.872 226.885 268.672 227.401 267.855 227.753C267.048 228.104 266.628 228.272 266.628 228.272C266.628 228.272 267.033 228.071 267.833 227.704C268.634 227.339 269.824 226.794 271.402 226.113C272.98 225.435 274.94 224.604 277.309 223.762C279.677 222.926 282.459 222.058 285.685 221.505C288.898 220.938 292.594 220.744 296.527 221.453C300.419 222.169 304.659 223.804 308.022 227.093C311.422 230.337 313.462 235.275 313.69 240.55C313.928 245.85 312.572 251.416 310.194 256.752C308.991 259.419 307.512 262.053 305.71 264.526C305.275 265.155 304.837 265.788 304.397 266.424C303.921 267.034 303.443 267.647 302.962 268.263C302.474 268.874 302.012 269.511 301.496 270.109C300.976 270.704 300.453 271.301 299.927 271.902C295.692 276.678 290.746 281.162 285.221 285.247C274.17 293.456 261.063 300.243 247.077 306.726C219.15 319.792 187.409 332.376 152.663 340.452C117.994 348.561 83.5705 350.83 52.9435 346.605C45.3315 345.33 37.9846 343.126 31.6036 339.459C25.2386 335.824 19.8426 330.785 16.4216 324.767C15.5536 323.274 14.8566 321.704 14.2496 320.121C13.7206 318.51 13.1946 316.909 12.9156 315.264C12.2836 311.996 12.1366 308.702 12.4116 305.513C12.7106 302.325 13.3616 299.249 14.2236 296.309C15.1166 293.376 16.2506 290.598 17.4736 287.941C20.0136 282.671 22.9966 277.939 26.1686 273.741C29.3146 269.522 32.5406 265.742 35.7236 262.367C42.0895 255.609 48.2925 250.51 53.5625 246.664C58.8375 242.812 63.2095 240.22 66.2095 238.549C69.2075 236.873 70.8385 236.095 70.8385 236.095Z" fill="#E0E0E0"/>
<path d="M361.242 147.57L348.726 193.605L310.718 204.112C309.492 204.451 308.733 205.796 308.986 207.181L350.571 196.485L352.037 196.029L401.332 182.83L406.803 160.996L413.914 135.399C414.436 133.841 413.149 132.246 411.693 132.646L362.561 146.139C361.918 146.317 361.415 146.862 361.242 147.57Z" fill="#EBEBEB"/>
<path d="M363.804 149.054L352.418 190.976L397.078 178.722L407.075 137.4L363.804 149.054Z" fill="#FAFAFA"/>
<path d="M411.694 132.648C411.702 132.65 411.689 132.733 411.657 132.892C411.616 133.078 411.564 133.31 411.5 133.598C411.343 134.252 411.126 135.158 410.85 136.31C410.254 138.703 409.405 142.112 408.352 146.342C406.18 154.879 403.167 166.719 399.764 180.096L399.727 180.242L399.581 180.281C397.291 180.898 394.88 181.547 392.43 182.206C377.413 186.213 363.822 189.841 353.941 192.477C349.037 193.76 345.057 194.801 342.262 195.532C340.909 195.874 339.844 196.144 339.08 196.337C338.739 196.418 338.465 196.483 338.249 196.534C338.061 196.576 337.964 196.593 337.961 196.584C337.959 196.575 338.052 196.541 338.235 196.483C338.447 196.419 338.716 196.338 339.053 196.236C339.811 196.02 340.867 195.719 342.21 195.336C344.995 194.567 348.96 193.471 353.846 192.121C363.717 189.446 377.294 185.767 392.295 181.702C394.745 181.044 397.157 180.396 399.447 179.781L399.264 179.966C402.734 166.606 405.804 154.782 408.019 146.255C409.136 142.042 410.037 138.646 410.669 136.262C410.983 135.12 411.229 134.222 411.407 133.573C411.49 133.29 411.557 133.062 411.61 132.879C411.657 132.725 411.686 132.646 411.694 132.648Z" fill="#E0E0E0"/>
<path d="M339.792 370.936L340.567 372.224C341.437 373.67 342.704 374.837 344.216 375.585L345.564 376.251L344.276 377.026C342.83 377.896 341.663 379.163 340.915 380.676L340.248 382.024L339.473 380.736C338.603 379.29 337.336 378.124 335.823 377.375L334.475 376.708L335.763 375.933C337.209 375.063 338.375 373.796 339.124 372.284L339.792 370.936Z" fill="#EBEBEB"/>
<path d="M383.714 237.623L384.488 238.911C385.358 240.357 386.625 241.524 388.137 242.272L389.485 242.938L388.197 243.713C386.751 244.583 385.584 245.85 384.836 247.363L384.169 248.711L383.395 247.423C382.525 245.977 381.257 244.811 379.744 244.063L378.396 243.396L379.684 242.621C381.13 241.751 382.297 240.484 383.046 238.972L383.714 237.623Z" fill="#EBEBEB"/>
<path d="M396.881 421.969C396.881 422.113 308.145 422.229 198.708 422.229C89.2325 422.229 0.515625 422.112 0.515625 421.969C0.515625 421.825 89.2325 421.709 198.708 421.709C308.145 421.708 396.881 421.825 396.881 421.969Z" fill="#263238"/>
<path d="M308.346 243.283L309.067 244.482C309.877 245.827 311.055 246.913 312.462 247.609L313.716 248.229L312.517 248.95C311.171 249.76 310.086 250.938 309.39 252.345L308.77 253.599L308.049 252.4C307.239 251.055 306.061 249.97 304.654 249.274L303.4 248.654L304.599 247.933C305.944 247.124 307.029 245.945 307.725 244.538L308.346 243.283Z" fill="#00C5FF"/>
<path d="M336.14 108.973L336.861 110.172C337.67 111.517 338.849 112.603 340.256 113.299L341.51 113.919L340.312 114.64C338.966 115.45 337.881 116.628 337.185 118.035L336.565 119.289L335.844 118.09C335.034 116.745 333.856 115.66 332.449 114.964L331.195 114.344L332.394 113.623C333.739 112.814 334.824 111.635 335.52 110.228L336.14 108.973Z" fill="#00C5FF"/>
<path d="M328.297 75.0371L328.823 75.9121C329.414 76.8941 330.274 77.6861 331.301 78.1941L332.216 78.6471L331.341 79.1731C330.359 79.7641 329.567 80.6241 329.059 81.6511L328.606 82.5661L328.08 81.6911C327.489 80.7091 326.629 79.9171 325.602 79.4091L324.688 78.9561L325.562 78.4301C326.544 77.8391 327.336 76.9791 327.844 75.9521L328.297 75.0371Z" fill="#00C5FF"/>
<path d="M353.583 80.4141L353.884 80.9151C354.222 81.4771 354.715 81.9311 355.303 82.2221L355.827 82.4811L355.326 82.7821C354.764 83.1201 354.31 83.6131 354.019 84.2011L353.76 84.7251L353.459 84.2241C353.121 83.6621 352.628 83.2081 352.04 82.9171L351.516 82.6581L352.017 82.3571C352.579 82.0191 353.033 81.5261 353.324 80.9381L353.583 80.4141Z" fill="#00C5FF"/>
<path d="M334.886 224.385L335.188 224.886C335.526 225.448 336.019 225.902 336.607 226.193L337.131 226.452L336.63 226.753C336.068 227.091 335.614 227.584 335.323 228.172L335.064 228.696L334.763 228.195C334.425 227.633 333.932 227.179 333.344 226.888L332.82 226.629L333.321 226.327C333.883 225.989 334.337 225.496 334.628 224.908L334.886 224.385Z" fill="#00C5FF"/>
<path d="M253.58 356.826L129.6 356.54C124.462 356.528 120.304 352.912 120.314 348.465C120.324 344.016 124.498 340.42 129.637 340.432L253.616 340.717C258.755 340.73 262.913 344.345 262.902 348.793C262.892 353.242 258.719 356.838 253.58 356.826Z" fill="#455A64"/>
<path d="M253.58 337.271L129.6 336.985C124.462 336.973 120.304 333.357 120.314 328.91C120.324 324.461 124.498 320.865 129.637 320.877L253.616 321.162C258.755 321.175 262.913 324.79 262.902 329.238C262.892 333.687 258.719 337.284 253.58 337.271Z" fill="#455A64"/>
<path d="M248.596 359.75L135.078 359.488C130.372 359.477 126.549 363.283 126.539 367.987C126.528 372.692 130.333 376.516 135.038 376.526L147.498 376.555L163.957 408.059C165.84 411.662 169.566 413.924 173.631 413.934L214.194 414.028C218.301 414.037 222.066 411.747 223.947 408.096L240.084 376.769L248.556 376.788C253.261 376.799 257.085 372.994 257.095 368.289C257.107 363.584 253.301 359.761 248.596 359.75Z" fill="#455A64"/>
<path d="M287.585 227.674C287.585 227.674 287.585 227.674 287.596 227.674C287.596 227.674 287.29 228.146 286.683 229.043C286.071 229.943 285.166 231.274 283.979 233.022C283.382 233.897 282.715 234.876 281.978 235.957C281.254 237.047 280.547 238.295 279.732 239.618C278.927 240.948 278.06 242.381 277.131 243.915C276.182 245.438 275.356 247.168 274.378 248.943C273.9 249.837 273.409 250.757 272.904 251.702C272.652 252.175 272.396 252.654 272.137 253.139C271.904 253.637 271.667 254.142 271.428 254.653C270.47 256.697 269.464 258.843 268.411 261.089C267.473 263.385 266.493 265.784 265.473 268.282C264.541 270.814 263.618 273.466 262.668 276.217C260.953 281.78 259.242 287.794 258.026 294.328C256.821 300.848 255.885 307.877 256.007 315.28L256.01 315.448H255.847C219.859 315.466 174.901 315.488 123.495 315.514H123.287L123.27 315.305C122.054 300.539 118.009 285.28 111.325 270.556C107.997 263.189 104.042 255.945 99.5581 248.889C97.3201 245.358 94.94 241.879 92.408 238.476C89.926 235.043 87.121 231.818 84.371 228.486L84.039 228.083H84.57H84.572L84.3751 228.487C72.4641 213.193 63.585 194.466 59.686 174.073C59.148 171.535 58.817 168.953 58.422 166.373C58.261 165.078 58.139 163.776 57.995 162.475L57.794 160.52L57.669 158.556C57.596 157.245 57.477 155.934 57.442 154.617C57.414 153.3 57.386 151.981 57.358 150.661C57.3 149.34 57.398 148.018 57.411 146.693C57.452 145.369 57.461 144.041 57.528 142.715C58.139 132.107 60.008 121.448 63.228 111.102C72.519 81.4914 92.555 56.4316 117.317 40.9786C123.492 37.0856 129.938 33.7496 136.548 30.9796C143.152 28.1896 149.965 26.1026 156.799 24.5086C170.48 21.2966 184.386 20.5636 197.737 21.7536C204.409 22.4136 210.963 23.4826 217.301 25.0876C223.628 26.7276 229.756 28.7696 235.625 31.2096C241.464 33.7216 247.045 36.5796 252.337 39.7426C257.576 42.9906 262.544 46.4876 267.169 50.2556C276.353 57.8636 284.256 66.3794 290.614 75.4454C297.063 84.4524 301.969 93.9704 305.626 103.421C306.609 105.76 307.317 108.168 308.134 110.502C308.905 112.852 309.501 115.225 310.18 117.538C310.707 119.891 311.292 122.2 311.746 124.504C311.952 125.66 312.156 126.808 312.359 127.948C312.561 129.088 312.781 130.218 312.9 131.354C314.165 140.4 314.44 149.051 313.961 157.087C313.026 173.194 309.216 186.729 305.024 197.231C302.942 202.506 300.646 206.996 298.607 210.848C296.487 214.661 294.551 217.805 292.893 220.285C292.053 221.516 291.313 222.602 290.675 223.538C290.003 224.44 289.438 225.197 288.982 225.808C288.091 227 287.689 227.535 287.585 227.674C287.685 227.535 288.072 227 288.929 225.813C289.381 225.19 289.943 224.417 290.61 223.498C291.242 222.558 291.975 221.469 292.806 220.233C294.448 217.746 296.368 214.596 298.471 210.78C300.494 206.924 302.772 202.434 304.836 197.162C308.992 186.665 312.766 173.148 313.67 157.077C314.134 149.058 313.846 140.428 312.572 131.407C312.452 130.274 312.231 129.148 312.028 128.011C311.824 126.874 311.619 125.729 311.412 124.577C310.956 122.281 310.369 119.978 309.841 117.632C309.161 115.325 308.563 112.961 307.792 110.618C306.975 108.291 306.266 105.891 305.283 103.56C301.625 94.1414 296.725 84.6564 290.286 75.6844C283.939 66.6534 276.054 58.1726 266.895 50.5966C262.283 46.8436 257.329 43.3636 252.106 40.1296C246.83 36.9806 241.266 34.1366 235.447 31.6376C229.597 29.2106 223.49 27.1796 217.186 25.5486C210.87 23.9526 204.34 22.8916 197.692 22.2366C184.39 21.0576 170.536 21.7926 156.91 24.9976C150.103 26.5876 143.318 28.6686 136.741 31.4496C130.158 34.2096 123.739 37.5356 117.589 41.4136C92.929 56.8116 72.978 81.7734 63.725 111.262C60.518 121.565 58.657 132.181 58.047 142.746C57.981 144.067 57.971 145.389 57.93 146.708C57.916 148.027 57.818 149.344 57.877 150.66C57.905 151.975 57.933 153.289 57.96 154.601C57.995 155.912 58.113 157.218 58.185 158.524L58.309 160.48L58.509 162.427C58.652 163.723 58.773 165.02 58.933 166.309C59.326 168.878 59.655 171.45 60.191 173.978C64.071 194.289 72.909 212.943 84.769 228.182L85.083 228.586H84.5711H84.5691L84.767 228.183C87.495 231.49 90.308 234.726 92.805 238.182C95.343 241.595 97.728 245.085 99.971 248.626C104.464 255.703 108.426 262.968 111.761 270.359C118.457 285.129 122.51 300.445 123.72 315.271L123.495 315.062C174.901 315.088 219.859 315.11 255.847 315.128L255.687 315.296C255.574 307.836 256.526 300.812 257.744 294.274C258.974 287.729 260.7 281.707 262.43 276.14C263.387 273.386 264.318 270.733 265.257 268.2C266.285 265.701 267.272 263.301 268.217 261.004C269.277 258.758 270.29 256.612 271.255 254.569C271.496 254.058 271.734 253.554 271.97 253.056C272.231 252.571 272.488 252.092 272.742 251.62C273.251 250.675 273.746 249.756 274.227 248.862C275.213 247.088 276.045 245.36 277.001 243.839C277.937 242.307 278.811 240.876 279.621 239.549C280.442 238.229 281.157 236.984 281.887 235.897C282.631 234.82 283.305 233.844 283.907 232.972C285.111 231.234 286.028 229.911 286.648 229.016C287.267 228.127 287.597 227.673 287.597 227.673C287.585 227.674 287.585 227.674 287.585 227.674Z" fill="#263238"/>
<path d="M288.954 207.109C288.946 207.105 288.975 207.027 289.04 206.88C289.12 206.706 289.218 206.494 289.338 206.234C289.629 205.633 290.027 204.811 290.53 203.773C290.794 203.237 291.085 202.646 291.402 202.001C291.708 201.347 292.009 200.623 292.351 199.853C293.015 198.304 293.842 196.571 294.567 194.577C294.949 193.587 295.35 192.551 295.766 191.473C296.178 190.392 296.527 189.238 296.933 188.06C297.774 185.712 298.463 183.138 299.235 180.444C300.643 175.02 301.89 168.977 302.694 162.558C303.444 156.13 303.675 149.963 303.602 144.359C303.494 141.559 303.439 138.894 303.183 136.413C303.07 135.172 303.007 133.968 302.864 132.82C302.717 131.673 302.575 130.572 302.44 129.519C302.212 127.409 301.822 125.529 301.547 123.867C301.399 123.038 301.279 122.262 301.138 121.554C300.984 120.853 300.842 120.209 300.714 119.626C300.473 118.498 300.283 117.606 300.144 116.952C300.089 116.671 300.045 116.441 300.008 116.253C299.98 116.095 299.97 116.013 299.979 116.01C299.988 116.007 300.015 116.086 300.06 116.24C300.11 116.424 300.171 116.65 300.246 116.927C300.409 117.576 300.631 118.462 300.912 119.581C301.054 120.163 301.211 120.804 301.381 121.503C301.537 122.209 301.671 122.984 301.833 123.812C302.136 125.473 302.553 127.354 302.805 129.467C302.951 130.521 303.104 131.625 303.263 132.774C303.416 133.925 303.49 135.131 303.613 136.376C303.889 138.864 303.961 141.537 304.082 144.348C304.182 149.972 303.965 156.166 303.212 162.62C302.405 169.065 301.138 175.131 299.699 180.568C298.911 183.268 298.204 185.847 297.342 188.197C296.926 189.376 296.566 190.53 296.143 191.611C295.714 192.689 295.302 193.724 294.909 194.713C294.16 196.705 293.307 198.432 292.617 199.973C292.262 200.739 291.947 201.459 291.627 202.108C291.295 202.746 290.989 203.332 290.713 203.863C290.173 204.883 289.746 205.691 289.433 206.282C289.294 206.533 289.181 206.737 289.089 206.905C289.007 207.044 288.962 207.113 288.954 207.109Z" fill="#263238"/>
<path d="M247.5 84.6874C240.66 80.7724 233.51 77.2014 225.815 75.4974C224.736 75.2584 223.624 75.0564 222.531 75.2234C221.439 75.3904 220.356 75.9894 219.877 76.9844C219.218 78.3514 219.855 79.9884 220.693 81.2534C222.542 84.0454 225.314 86.0814 228.105 87.9314C235.746 92.9994 243.962 97.1284 252.155 101.244C251.117 95.4144 249.074 90.3974 247.5 84.6874Z" fill="#00C5FF"/>
<path d="M299.941 99.7601C302.176 107.318 304.873 114.841 309.254 121.392C309.868 122.311 310.532 123.226 311.437 123.861C312.342 124.496 313.538 124.811 314.572 124.424C315.993 123.892 316.665 122.269 316.934 120.776C317.528 117.48 316.933 114.093 316.197 110.827C314.18 101.883 311.099 93.2191 308.026 84.5801C304.745 89.5101 302.753 94.5471 299.941 99.7601Z" fill="#00C5FF"/>
<path d="M247.396 84.5342C247.396 84.5342 247.934 136.885 277.313 137.909C306.692 138.933 307.924 84.9082 307.924 84.5342C307.924 84.5342 304.454 76.7262 277.66 77.0322C250.866 77.3372 247.396 84.5342 247.396 84.5342Z" fill="#00C5FF"/>
<path d="M286.422 105.324C286.014 110.903 281.161 115.096 275.581 114.688C270.001 114.28 265.809 109.426 266.217 103.847C266.625 98.2665 271.479 94.0745 277.058 94.4825C282.638 94.8905 286.83 99.7445 286.422 105.324Z" fill="#263238"/>
<path d="M283.681 105.123C283.384 109.189 279.847 112.244 275.781 111.947C271.715 111.65 268.66 108.113 268.957 104.047C269.254 99.9811 272.791 96.9261 276.857 97.2231C280.923 97.5201 283.978 101.057 283.681 105.123Z" fill="white"/>
<path d="M280.122 106.465C280.094 106.448 280.072 106.011 280.053 105.248C280.035 104.484 280.02 103.397 280.018 102.067L280.1 102.213C278.995 101.568 277.707 100.817 276.302 99.9983L276.514 100.001C275.322 100.671 274.03 101.397 272.682 102.154C272.578 102.327 272.822 101.919 272.797 101.962V101.963V101.965V101.969V101.978V101.996V102.032L272.796 102.104L272.794 102.248L272.79 102.535L272.781 103.105C272.775 103.483 272.768 103.855 272.762 104.223C272.748 104.956 272.734 105.668 272.721 106.355L272.618 106.17C274.006 107.018 275.271 107.791 276.37 108.462L276.203 108.459C277.374 107.829 278.339 107.327 279.019 106.98C279.699 106.636 280.094 106.448 280.122 106.465C280.15 106.482 279.81 106.704 279.163 107.099C278.516 107.493 277.561 108.062 276.364 108.754L276.282 108.801L276.196 108.751C275.084 108.102 273.804 107.356 272.398 106.536L272.293 106.475L272.294 106.351C272.301 105.664 272.308 104.952 272.316 104.219C272.321 103.851 272.325 103.478 272.33 103.101L272.338 102.531L272.342 102.244L272.344 102.1L272.345 102.028V101.992V101.974V101.965V101.96V101.958V101.957C272.32 101.999 272.564 101.59 272.461 101.763C273.814 101.013 275.11 100.295 276.306 99.6323L276.415 99.5723L276.518 99.6353C277.906 100.483 279.178 101.26 280.27 101.927L280.354 101.978L280.351 102.073C280.31 103.455 280.263 104.565 280.223 105.321C280.184 106.077 280.15 106.482 280.122 106.465Z" fill="#00C5FF"/>
<path d="M247.273 84.4867C247.274 84.4837 247.326 84.4987 247.427 84.5317C247.537 84.5687 247.684 84.6187 247.872 84.6827C248.272 84.8237 248.844 85.0257 249.575 85.2827C249.945 85.4147 250.355 85.5607 250.803 85.7207C251.255 85.8717 251.754 86.0137 252.285 86.1797C253.352 86.4967 254.552 86.9067 255.917 87.2277C256.596 87.4017 257.306 87.5837 258.046 87.7737C258.787 87.9607 259.571 88.0997 260.376 88.2737C261.982 88.6427 263.725 88.8937 265.552 89.1887C269.22 89.6867 273.283 90.0287 277.558 90.0477C281.834 90.0297 285.898 89.6887 289.567 89.1907C291.395 88.8947 293.138 88.6447 294.744 88.2757C295.549 88.1017 296.333 87.9627 297.074 87.7757C297.814 87.5857 298.525 87.4037 299.204 87.2297C300.569 86.9087 301.769 86.4987 302.836 86.1827C303.367 86.0177 303.866 85.8747 304.318 85.7237C304.766 85.5637 305.176 85.4177 305.546 85.2857C306.277 85.0287 306.848 84.8267 307.248 84.6857C307.436 84.6217 307.583 84.5717 307.693 84.5347C307.794 84.5017 307.846 84.4867 307.847 84.4897C307.848 84.4927 307.799 84.5147 307.701 84.5547C307.593 84.5967 307.448 84.6527 307.263 84.7247C306.866 84.8747 306.298 85.0887 305.573 85.3617C305.204 85.4987 304.796 85.6507 304.35 85.8177C303.899 85.9747 303.402 86.1227 302.872 86.2937C301.807 86.6217 300.608 87.0417 299.243 87.3727C298.564 87.5507 297.853 87.7377 297.113 87.9327C296.371 88.1237 295.587 88.2667 294.781 88.4447C293.173 88.8217 291.428 89.0787 289.596 89.3807C285.92 89.8907 281.846 90.2377 277.56 90.2557C273.275 90.2377 269.202 89.8887 265.527 89.3787C263.696 89.0767 261.951 88.8197 260.343 88.4427C259.538 88.2637 258.753 88.1207 258.011 87.9297C257.271 87.7347 256.56 87.5477 255.881 87.3697C254.516 87.0387 253.317 86.6187 252.252 86.2907C251.722 86.1197 251.224 85.9717 250.774 85.8147C250.327 85.6487 249.919 85.4957 249.55 85.3587C248.824 85.0847 248.257 84.8707 247.86 84.7217C247.675 84.6497 247.53 84.5927 247.422 84.5507C247.321 84.5117 247.272 84.4897 247.273 84.4867Z" fill="#263238"/>
<g opacity="0.3">
<path d="M247.396 84.5342C247.396 84.5342 250.866 77.3372 277.66 77.0322C304.454 76.7262 307.924 84.5342 307.924 84.5342C307.924 84.5342 280.897 97.8632 247.396 84.5342Z" fill="black"/>
</g>
<path d="M256.61 121.79C256.607 121.792 256.59 121.766 256.559 121.713C256.524 121.649 256.481 121.572 256.428 121.478C256.309 121.253 256.147 120.948 255.943 120.562C255.839 120.361 255.724 120.139 255.599 119.897C255.483 119.648 255.358 119.378 255.224 119.089C254.952 118.51 254.646 117.85 254.349 117.101C254.196 116.728 254.036 116.338 253.869 115.932C253.717 115.52 253.558 115.091 253.394 114.648C253.051 113.765 252.76 112.796 252.418 111.789C251.792 109.755 251.178 107.496 250.639 105.101C250.112 102.702 249.708 100.397 249.39 98.2934C249.096 96.1864 248.863 94.2844 248.736 92.6804C248.658 91.8794 248.611 91.1534 248.571 90.5164C248.526 89.8794 248.496 89.3294 248.483 88.8804C248.469 88.4454 248.457 88.0994 248.449 87.8454C248.448 87.7374 248.446 87.6494 248.445 87.5764C248.445 87.5154 248.447 87.4844 248.451 87.4844C248.455 87.4844 248.46 87.5154 248.466 87.5754C248.473 87.6484 248.481 87.7364 248.49 87.8434C248.508 88.0974 248.532 88.4414 248.563 88.8754C248.589 89.3244 248.63 89.8724 248.686 90.5074C248.737 91.1434 248.794 91.8674 248.881 92.6664C249.027 94.2664 249.275 96.1634 249.578 98.2644C249.906 100.362 250.315 102.661 250.841 105.055C251.379 107.445 251.985 109.7 252.6 111.731C252.937 112.737 253.22 113.706 253.555 114.589C253.715 115.033 253.869 115.462 254.018 115.874C254.18 116.281 254.335 116.671 254.484 117.045C254.771 117.795 255.067 118.458 255.328 119.04C255.456 119.331 255.576 119.602 255.687 119.853C255.806 120.097 255.915 120.321 256.014 120.525C256.203 120.917 256.353 121.228 256.463 121.457C256.508 121.555 256.545 121.635 256.575 121.702C256.602 121.759 256.613 121.789 256.61 121.79Z" fill="white"/>
<path d="M270.765 134.378C270.762 134.392 270.597 134.371 270.297 134.321C269.997 134.275 269.569 134.175 269.049 134.02C268.527 133.868 267.921 133.638 267.268 133.336C266.62 133.025 265.929 132.636 265.247 132.162C264.57 131.681 263.97 131.162 263.458 130.657C262.953 130.145 262.531 129.652 262.212 129.213C261.89 128.776 261.65 128.407 261.506 128.14C261.358 127.875 261.282 127.726 261.294 127.719C261.328 127.699 261.662 128.28 262.329 129.123C262.66 129.546 263.088 130.023 263.593 130.52C264.106 131.01 264.7 131.517 265.368 131.991C266.04 132.458 266.718 132.846 267.352 133.163C267.991 133.47 268.584 133.712 269.094 133.88C270.112 134.222 270.772 134.339 270.765 134.378Z" fill="white"/>
<path d="M276.89 115.909C276.89 115.916 276.794 115.926 276.61 115.938C276.426 115.942 276.154 115.982 275.803 115.961C275.102 115.959 274.081 115.847 272.876 115.486C272.272 115.309 271.634 115.045 270.97 114.719C270.319 114.368 269.634 113.965 268.987 113.439C267.68 112.411 266.468 110.968 265.685 109.203C264.929 107.425 264.703 105.554 264.844 103.897C264.901 103.065 265.074 102.289 265.262 101.574C265.477 100.866 265.72 100.219 266.003 99.6568C266.562 98.5298 267.177 97.7068 267.654 97.1938C267.878 96.9238 268.093 96.7528 268.222 96.6208C268.356 96.4948 268.429 96.4308 268.434 96.4358C268.45 96.4518 268.168 96.7188 267.716 97.2468C267.261 97.7718 266.671 98.5998 266.136 99.7198C265.865 100.279 265.633 100.92 265.428 101.62C265.25 102.327 265.085 103.092 265.035 103.911C264.907 105.542 265.136 107.378 265.876 109.119C266.643 110.848 267.828 112.268 269.107 113.288C269.74 113.81 270.412 114.212 271.049 114.565C271.7 114.893 272.327 115.162 272.92 115.345C274.104 115.719 275.111 115.853 275.806 115.879C276.502 115.91 276.889 115.887 276.89 115.909Z" fill="white"/>
<path d="M275.622 30.0997C275.622 30.0997 250.008 29.7917 245.953 51.9767C241.898 74.1615 263.56 74.5755 269.789 74.9955C272.614 75.1855 278.658 75.2055 283.992 75.1135C295.799 74.9085 304.143 72.6235 306.982 61.6685C307.313 60.3915 307.536 59.0795 307.62 57.7457C308.37 45.7397 300.243 29.5087 275.622 30.0997Z" fill="#00C5FF"/>
<path d="M294.204 63.8875L256.992 64.4685C253.091 64.5295 249.88 61.4165 249.819 57.5166C249.758 53.6166 252.871 50.4046 256.771 50.3436L293.983 49.7626C297.883 49.7016 301.095 52.8146 301.156 56.7146C301.217 60.6155 298.105 63.8265 294.204 63.8875Z" fill="#263238"/>
<path d="M269.373 73.4243C269.373 73.4313 269.31 73.4413 269.188 73.4543C269.041 73.4673 268.865 73.4823 268.654 73.5003C268.422 73.5203 268.138 73.5383 267.807 73.5443C267.476 73.5513 267.1 73.5703 266.683 73.5573C265.85 73.5553 264.858 73.4983 263.762 73.3823C262.668 73.2543 261.47 73.0603 260.23 72.7733C258.992 72.4773 257.833 72.1163 256.797 71.7423C255.764 71.3573 254.851 70.9653 254.105 70.5953C253.727 70.4213 253.398 70.2363 253.105 70.0823C252.811 69.9303 252.565 69.7863 252.367 69.6653C252.186 69.5543 252.035 69.4623 251.91 69.3863C251.807 69.3203 251.754 69.2833 251.758 69.2763C251.762 69.2703 251.821 69.2953 251.931 69.3493C252.061 69.4163 252.218 69.4973 252.407 69.5943C252.611 69.7043 252.862 69.8373 253.16 69.9783C253.457 70.1223 253.788 70.2963 254.169 70.4613C254.92 70.8123 255.834 71.1873 256.863 71.5603C257.897 71.9223 259.049 72.2753 260.279 72.5693C261.51 72.8543 262.699 73.0533 263.785 73.1903C264.873 73.3163 265.858 73.3883 266.686 73.4093C267.1 73.4313 267.475 73.4233 267.805 73.4273C268.135 73.4333 268.418 73.4263 268.65 73.4193C268.862 73.4163 269.038 73.4143 269.185 73.4123C269.308 73.4133 269.373 73.4173 269.373 73.4243Z" fill="white"/>
<path d="M300.694 87.7311C300.695 87.7341 300.663 87.7491 300.599 87.7741C300.523 87.8031 300.429 87.8381 300.312 87.8821C300.043 87.9781 299.672 88.1101 299.201 88.2771C298.719 88.4511 298.127 88.6541 297.429 88.8581C296.732 89.0671 295.945 89.3271 295.056 89.5481C294.613 89.6651 294.149 89.7881 293.666 89.9151C293.182 90.0411 292.672 90.1441 292.148 90.2661C291.101 90.5201 289.967 90.7191 288.777 90.9441C286.389 91.3471 283.744 91.6841 280.954 91.8651C278.162 92.0281 275.495 92.0171 273.075 91.9091C271.866 91.8321 270.717 91.7721 269.646 91.6491C269.11 91.5921 268.592 91.5521 268.096 91.4861C267.601 91.4181 267.126 91.3531 266.672 91.2911C265.763 91.1801 264.95 91.0181 264.233 90.8961C263.515 90.7781 262.902 90.6491 262.403 90.5361C261.916 90.4281 261.531 90.3421 261.252 90.2801C261.131 90.2511 261.033 90.2271 260.954 90.2081C260.887 90.1911 260.853 90.1801 260.854 90.1771C260.855 90.1731 260.89 90.1771 260.959 90.1881C261.039 90.2021 261.138 90.2191 261.261 90.2391C261.542 90.2921 261.928 90.3651 262.419 90.4571C262.92 90.5581 263.535 90.6751 264.253 90.7821C264.971 90.8931 265.784 91.0441 266.692 91.1461C267.146 91.2041 267.62 91.2641 268.115 91.3271C268.61 91.3881 269.128 91.4251 269.662 91.4781C270.731 91.5941 271.878 91.6471 273.084 91.7181C275.498 91.8151 278.157 91.8201 280.941 91.6581C283.723 91.4781 286.361 91.1481 288.744 90.7561C289.932 90.5371 291.064 90.3451 292.11 90.0991C292.634 89.9811 293.144 89.8821 293.627 89.7601C294.11 89.6371 294.574 89.5191 295.017 89.4061C295.906 89.1941 296.695 88.9441 297.394 88.7461C298.094 88.5521 298.69 88.3611 299.175 88.1991C299.65 88.0471 300.025 87.9281 300.297 87.8411C300.416 87.8051 300.513 87.7761 300.591 87.7531C300.658 87.7361 300.693 87.7281 300.694 87.7311Z" fill="white"/>
<path d="M219.886 186.424L223.971 224.191L248.294 232.298L249.28 244.062L214.949 241.765C214.949 241.765 204.373 242.024 202.066 228.081L201.506 191.44L219.886 186.424Z" fill="#FFBE9D"/>
<path d="M270.366 243.863C269.913 244.374 269.192 244.596 268.549 244.364C268.421 244.318 268.291 244.256 268.161 244.173C267.305 243.626 267.896 241.744 267.896 241.744L263.606 239.828C263.606 239.828 256.783 242.047 254.051 243.991C251.319 245.935 246.561 242.519 246.561 242.519L247.251 232.48L257.474 227.198C257.474 227.198 256.85 227.509 257.788 226.263C258.726 225.018 261.179 226.231 261.179 226.231C261.765 225.647 263.524 225.847 263.524 225.847L270.541 228.593C271.987 229.159 273.099 230.349 273.565 231.83L275.346 237.483C275.346 237.483 276.041 241.398 275.567 242.14C274.851 243.26 273.629 242.646 273.629 242.646C273.629 242.646 272.667 244.845 272.044 244.766C271.42 244.687 270.366 243.863 270.366 243.863Z" fill="#FFBE9D"/>
<path d="M256.042 242.867C256.049 242.88 256.226 242.806 256.559 242.652C256.935 242.485 257.422 242.268 258.028 241.999C259.316 241.455 261.215 240.698 263.65 239.979L263.542 239.972C264.819 240.553 266.259 241.208 267.818 241.917L267.714 241.687C267.608 242.05 267.534 242.414 267.508 242.804C267.487 243.188 267.499 243.613 267.732 244.016C267.855 244.215 268.067 244.37 268.254 244.446C268.44 244.549 268.651 244.627 268.875 244.65C269.319 244.702 269.78 244.583 270.153 244.327C270.248 244.265 270.334 244.191 270.418 244.113L270.478 244.052L270.508 244.021L270.523 244.005L270.525 244.003C270.589 243.996 269.977 244.053 270.237 244.03L270.241 244.033L270.249 244.04L270.376 244.135C270.545 244.26 270.72 244.379 270.901 244.493C271.083 244.606 271.271 244.714 271.474 244.808C271.576 244.854 271.681 244.899 271.797 244.932C271.905 244.965 272.035 245.004 272.233 244.961C272.533 244.848 272.68 244.659 272.829 244.484C272.972 244.304 273.1 244.118 273.214 243.927C273.448 243.544 273.648 243.15 273.837 242.735L273.527 242.847C274.081 243.103 274.803 243.144 275.347 242.719C275.594 242.52 275.823 242.254 275.893 241.898C275.961 241.581 275.964 241.287 275.963 240.989C275.94 239.807 275.775 238.635 275.579 237.439L275.577 237.425L275.572 237.409C275.27 236.447 274.948 235.426 274.623 234.393C274.421 233.751 274.22 233.114 274.02 232.482C273.814 231.866 273.662 231.195 273.304 230.596C272.963 230.003 272.502 229.488 271.965 229.088C271.436 228.673 270.789 228.433 270.22 228.217C267.893 227.314 265.674 226.453 263.6 225.648L263.572 225.637L263.547 225.635C263.109 225.595 262.691 225.59 262.267 225.634C261.852 225.686 261.409 225.752 261.036 226.086L261.308 226.074C260.625 225.557 259.738 225.319 258.949 225.59C258.158 225.856 257.658 226.489 257.315 227.119L257.395 227.039C254.462 228.544 252.069 229.772 250.357 230.65C249.564 231.069 248.931 231.404 248.452 231.657C248.019 231.892 247.795 232.023 247.803 232.039C247.811 232.055 248.05 231.954 248.498 231.748C248.987 231.516 249.635 231.21 250.445 230.826C252.174 229.982 254.591 228.802 257.553 227.355L257.601 227.332L257.633 227.275C257.942 226.722 258.42 226.149 259.067 225.952C259.704 225.73 260.478 225.947 261.049 226.385L261.19 226.493L261.321 226.373C261.54 226.173 261.931 226.082 262.309 226.047C262.692 226.01 263.102 226.018 263.499 226.057L263.446 226.044C265.516 226.86 267.729 227.734 270.052 228.65C270.646 228.879 271.201 229.086 271.685 229.465C272.17 229.829 272.587 230.296 272.894 230.833C273.212 231.358 273.356 231.989 273.567 232.627C273.766 233.259 273.966 233.897 274.168 234.539C274.494 235.572 274.816 236.593 275.119 237.554L275.112 237.524C275.307 238.694 275.472 239.869 275.497 240.994C275.5 241.272 275.493 241.557 275.441 241.797C275.411 242.009 275.248 242.204 275.066 242.355C274.709 242.654 274.153 242.631 273.731 242.442L273.515 242.346L273.421 242.554C273.245 242.946 273.049 243.337 272.832 243.696C272.627 244.037 272.346 244.443 272.108 244.541C272.096 244.544 272.013 244.547 271.92 244.513C271.833 244.489 271.742 244.452 271.653 244.412C271.474 244.331 271.299 244.232 271.127 244.127C270.956 244.021 270.788 243.909 270.627 243.791L270.508 243.702L270.501 243.697L270.498 243.694C270.757 243.67 270.144 243.725 270.206 243.72L270.205 243.721L270.193 243.733L270.17 243.758L270.123 243.806C270.057 243.867 269.99 243.927 269.915 243.976C269.622 244.181 269.261 244.274 268.922 244.238C268.751 244.222 268.591 244.165 268.437 244.079C268.265 244.007 268.159 243.925 268.073 243.799C267.764 243.242 267.912 242.431 268.077 241.798L268.12 241.632L267.973 241.568C266.404 240.88 264.955 240.245 263.67 239.681L263.615 239.657L263.562 239.674C261.114 240.441 259.231 241.244 257.957 241.84C257.322 242.142 256.839 242.392 256.518 242.571C256.198 242.754 256.035 242.854 256.042 242.867Z" fill="#EB996E"/>
<path d="M261.733 229.103C261.704 229.149 262.475 229.707 263.872 230.41C265.265 231.113 267.31 231.924 269.727 232.42L269.531 232.195C269.559 232.584 269.59 232.994 269.643 233.408C269.979 236.153 270.933 238.507 271.814 240.07C272.254 240.855 272.671 241.453 272.974 241.853C273.284 242.248 273.474 242.451 273.5 242.431C273.566 242.383 272.914 241.489 272.122 239.907C271.334 238.33 270.459 236.02 270.132 233.347C270.08 232.944 270.048 232.544 270.019 232.166L270.004 231.977L269.823 231.941C267.45 231.469 265.423 230.729 264.009 230.113C262.595 229.498 261.769 229.041 261.733 229.103Z" fill="#EB996E"/>
<path d="M267.488 235.137C267.366 235.129 267.311 237.25 268.205 239.668C269.081 242.094 270.491 243.68 270.579 243.594C270.702 243.507 269.512 241.84 268.669 239.498C267.804 237.166 267.639 235.125 267.488 235.137Z" fill="#EB996E"/>
<path d="M245.901 239.232C245.892 239.243 245.959 239.309 246.096 239.426C246.232 239.545 246.446 239.705 246.738 239.891C247.321 240.258 248.242 240.729 249.501 240.972C250.747 241.212 252.356 241.214 253.996 240.571C255.622 239.942 257.262 238.683 258.298 236.837L257.988 236.937C259.522 237.674 261.283 238.26 263.16 238.568C263.833 238.679 264.504 238.752 265.167 238.789C265.823 238.82 266.501 238.862 267.173 238.67C267.486 238.583 267.874 238.405 268.078 238.064C268.287 237.737 268.327 237.339 268.236 236.986C268.143 236.631 267.905 236.319 267.591 236.141C267.328 235.996 267.068 235.854 266.811 235.712C264.753 234.599 262.851 233.689 261.232 232.977C259.613 232.266 258.279 231.747 257.349 231.411C256.419 231.076 255.895 230.919 255.884 230.949C255.871 230.983 256.372 231.2 257.279 231.59C258.185 231.98 259.494 232.547 261.088 233.295C262.682 234.044 264.558 234.982 266.593 236.111C266.846 236.253 267.102 236.397 267.361 236.543C267.567 236.664 267.72 236.866 267.781 237.105C267.84 237.343 267.808 237.607 267.676 237.807C267.551 238.012 267.327 238.122 267.038 238.206C266.48 238.366 265.843 238.334 265.195 238.299C264.549 238.261 263.895 238.189 263.239 238.081C261.41 237.781 259.692 237.216 258.191 236.509L257.988 236.414L257.881 236.609C256.92 238.353 255.38 239.57 253.844 240.194C252.297 240.832 250.763 240.87 249.552 240.678C248.33 240.484 247.416 240.069 246.819 239.753C246.222 239.428 245.923 239.204 245.901 239.232Z" fill="#EB996E"/>
<path d="M275.241 380.371C275.275 380.369 275.308 380.032 275.213 379.429C275.114 378.832 274.869 377.959 274.262 377.034C274.106 376.808 273.951 376.564 273.695 376.342C273.453 376.122 273.033 375.952 272.63 376.102C272.43 376.167 272.229 376.35 272.159 376.575C272.083 376.804 272.122 377.029 272.181 377.214C272.313 377.593 272.511 377.864 272.677 378.175C273.046 378.797 273.351 379.416 273.823 380.116C274.062 380.474 274.598 380.77 275.087 380.685C275.569 380.624 275.958 380.391 276.309 380.144C276.989 379.65 277.589 379.089 278.104 378.49C278.361 378.191 278.596 377.882 278.811 377.569C279.014 377.259 279.252 376.944 279.343 376.511C279.434 376.094 279.277 375.547 278.804 375.358C278.324 375.185 277.934 375.425 277.667 375.615C277.125 376.065 276.799 376.527 276.468 376.973C275.838 377.865 275.489 378.683 275.293 379.254C275.101 379.829 275.055 380.161 275.088 380.171C275.185 380.211 275.508 378.885 276.788 377.21C277.106 376.813 277.5 376.33 277.94 375.993C278.165 375.833 278.445 375.729 278.616 375.815C278.795 375.88 278.895 376.148 278.836 376.408C278.781 376.676 278.578 376.964 278.371 377.262C278.163 377.556 277.936 377.846 277.689 378.128C277.195 378.69 276.622 379.222 275.982 379.687C275.674 379.909 275.338 380.092 275.025 380.129C274.711 380.168 274.465 380.044 274.258 379.775C273.865 379.204 273.489 378.5 273.126 377.913C272.952 377.607 272.742 377.31 272.651 377.055C272.556 376.786 272.608 376.612 272.796 376.537C273.227 376.359 273.646 376.846 273.938 377.259C275.147 378.978 275.131 380.406 275.241 380.371Z" fill="#263238"/>
<path d="M250.828 381.206L238.706 407.477L219.146 398.44L231.684 365.926L250.828 381.206Z" fill="#FFBE9D"/>
<path d="M240.998 405.725L233.916 419.23C233.916 419.23 252.045 437.975 250.342 442.165L207.725 421.732L219.433 394.643L240.998 405.725Z" fill="#00C5FF"/>
<path d="M221.622 411.064C220.689 410.894 219.675 411.548 219.466 412.473C219.258 413.398 219.914 414.436 220.844 414.622C221.774 414.808 223.016 414.061 223.119 413.118C223.222 412.175 222.385 410.999 221.438 411.042" fill="#E0E0E0"/>
<g opacity="0.6">
<path d="M207.725 421.731L209.498 418.334L249.696 439.196C249.696 439.196 251.198 440.931 250.342 442.165L207.725 421.731Z" fill="white"/>
</g>
<path d="M234.709 419.344C234.603 419.549 233.517 419.144 232.172 419.323C230.823 419.466 229.862 420.114 229.71 419.94C229.538 419.808 230.444 418.712 232.076 418.525C233.707 418.324 234.846 419.175 234.709 419.344Z" fill="#263238"/>
<path d="M238.293 423.335C238.244 423.559 237.173 423.481 236.044 424.023C234.899 424.531 234.265 425.397 234.062 425.289C233.851 425.228 234.291 423.94 235.707 423.294C237.118 422.635 238.384 423.135 238.293 423.335Z" fill="#263238"/>
<path d="M238.266 429.902C238.056 429.856 238.265 428.677 239.345 427.794C240.42 426.903 241.617 426.924 241.621 427.139C241.657 427.367 240.732 427.675 239.855 428.414C238.963 429.132 238.482 429.981 238.266 429.902Z" fill="#263238"/>
<path d="M236.743 414.141C236.565 414.289 235.748 413.544 234.533 413.06C233.328 412.551 232.224 412.507 232.201 412.276C232.153 412.068 233.416 411.726 234.838 412.316C236.265 412.896 236.924 414.026 236.743 414.141Z" fill="#263238"/>
<path d="M244.991 402.217L276.943 322.252C276.943 322.252 276.225 308.608 273.712 304.3C271.199 299.992 195.083 274.859 195.083 274.859C195.083 274.859 175.695 270.192 162.769 274.859C149.844 279.527 140.15 295.683 141.945 304.659C143.74 313.635 151.991 320.91 151.991 320.91L207.291 321.893L237.799 333.023L217.254 391.905L244.991 402.217Z" fill="#263238"/>
<path d="M273.41 347.575L274.13 376.499L252.589 377.025L249.486 342.316L273.41 347.575Z" fill="#FFBE9D"/>
<path d="M275.412 373.914L275.019 389.159C275.019 389.159 299.56 397.975 299.883 402.487L252.623 402.966L251.17 373.49L275.412 373.914Z" fill="#00C5FF"/>
<path d="M260.384 387.26C259.472 387.519 258.85 388.554 259.072 389.476C259.294 390.398 260.341 391.039 261.257 390.796C262.173 390.553 262.958 389.334 262.634 388.442C262.31 387.551 261.04 386.865 260.209 387.321" fill="#E0E0E0"/>
<g opacity="0.6">
<path d="M252.623 402.966L252.714 399.135L297.992 400.108C297.992 400.108 300.105 401.002 299.883 402.486L252.623 402.966Z" fill="white"/>
</g>
<path d="M275.782 388.912C275.777 389.143 274.624 389.259 273.496 390.013C272.348 390.737 271.773 391.743 271.559 391.653C271.346 391.61 271.676 390.227 273.058 389.339C274.431 388.438 275.83 388.699 275.782 388.912Z" fill="#263238"/>
<path d="M280.76 390.911C280.815 391.134 279.82 391.536 279.046 392.52C278.243 393.481 278.056 394.539 277.826 394.531C277.609 394.569 277.436 393.22 278.422 392.014C279.396 390.801 280.753 390.691 280.76 390.911Z" fill="#263238"/>
<path d="M283.636 396.816C283.427 396.867 283.094 395.717 283.674 394.448C284.245 393.174 285.328 392.664 285.427 392.856C285.559 393.044 284.866 393.73 284.406 394.779C283.921 395.817 283.865 396.791 283.636 396.816Z" fill="#263238"/>
<path d="M275.311 383.346C275.216 383.557 274.155 383.25 272.851 383.352C271.545 383.427 270.535 383.875 270.413 383.679C270.278 383.514 271.26 382.649 272.797 382.551C274.332 382.44 275.422 383.164 275.311 383.346Z" fill="#263238"/>
<path d="M260.831 267.273C260.831 267.273 273.737 266.241 275.173 280.244C276.609 294.247 278.019 359.593 278.019 359.593L247.86 362.106L243.193 295.325L195.082 274.86C195.082 274.86 252.214 265.478 260.831 267.273Z" fill="#263238"/>
<path d="M207.637 248.379C207.637 248.379 215.47 270.339 213.978 272.787C212.486 275.235 192.345 285.305 192.345 285.305L141.946 304.661C141.946 304.661 136.77 296.427 136.77 283.779C136.77 271.131 154.301 248.379 154.301 248.379H207.637Z" fill="#263238"/>
<path d="M192.697 273.74C192.694 273.748 192.774 273.79 192.934 273.867C193.118 273.952 193.354 274.061 193.65 274.198C194.315 274.494 195.247 274.908 196.441 275.44C198.915 276.518 202.469 278.066 206.917 280.004C215.906 283.874 228.506 289.298 243.086 295.574L242.923 295.344C243.38 301.94 243.875 309.065 244.386 316.436C245.612 333.666 246.742 349.553 247.636 362.122L247.652 362.35L247.878 362.33C257.051 361.525 264.578 360.864 269.849 360.402C272.441 360.16 274.476 359.97 275.899 359.837C276.568 359.767 277.093 359.713 277.48 359.673C277.837 359.632 278.019 359.605 278.018 359.594C278.017 359.583 277.832 359.587 277.474 359.605C277.086 359.63 276.559 359.662 275.888 359.705C274.463 359.809 272.424 359.959 269.828 360.149C264.553 360.565 257.02 361.16 247.84 361.884L248.082 362.092C247.219 349.52 246.129 333.631 244.946 316.398C244.427 309.028 243.925 301.903 243.461 295.308L243.449 295.143L243.297 295.079C228.685 288.877 216.058 283.517 207.049 279.693C202.574 277.817 199 276.318 196.511 275.274C195.302 274.778 194.358 274.39 193.685 274.114C193.382 273.995 193.14 273.9 192.951 273.825C192.786 273.761 192.7 273.732 192.697 273.74Z" fill="#455A64"/>
<path d="M152.614 275.936C152.627 275.973 153.13 275.832 154.029 275.549C155.03 275.226 156.303 274.816 157.824 274.326C161.026 273.31 165.468 271.895 170.524 271.117C175.58 270.337 180.258 270.578 183.525 271.284C186.807 271.962 188.693 272.9 188.735 272.793C188.749 272.764 188.292 272.506 187.424 272.13C186.557 271.751 185.26 271.291 183.61 270.896C180.319 270.079 175.558 269.77 170.44 270.561C165.323 271.349 160.873 272.836 157.697 273.949C156.108 274.513 154.833 274.997 153.956 275.343C153.079 275.69 152.601 275.9 152.614 275.936Z" fill="#455A64"/>
<path d="M159.738 264.36C159.752 264.449 161.425 264.123 164.144 264.335C165.501 264.43 167.116 264.638 168.914 264.846C170.71 265.06 172.681 265.301 174.721 265.688C178.816 266.417 182.339 267.844 184.597 269.351C186.876 270.834 187.944 272.186 188.021 272.11C188.043 272.092 187.813 271.73 187.289 271.162C186.767 270.596 185.957 269.812 184.819 269.021C182.574 267.395 178.972 265.871 174.826 265.135C172.76 264.744 170.773 264.516 168.971 264.33C167.17 264.15 165.544 263.982 164.164 263.937C162.786 263.887 161.665 263.966 160.903 264.082C160.14 264.198 159.731 264.327 159.738 264.36Z" fill="#455A64"/>
<path d="M181.999 87.8854C176.2 86.8994 171.102 89.1324 166.211 92.4014C161.32 95.6704 157.637 100.604 155.511 106.088C153.271 111.865 152.726 118.365 154.448 124.317C156.169 130.269 160.245 135.597 165.77 138.402C173.314 142.233 182.961 140.897 189.71 135.794C196.459 130.691 200.317 122.254 200.641 113.799C200.864 107.974 199.472 102.015 196.217 97.1804C192.961 92.3454 187.766 88.7324 181.999 87.8854Z" fill="#263238"/>
<path d="M165.507 107.606C166.355 105.387 166.026 102.91 166.362 100.559C167.101 95.3815 171.273 91.2295 176.098 89.2105C180.587 87.3325 186.069 87.7425 191.476 89.4905C195.183 90.6885 198.671 92.7785 201.142 95.7895C204.422 99.7855 205.577 105.431 204.132 110.394L177.64 106.536C175.16 108.588 172.62 110.675 169.612 111.819C168.729 112.155 167.779 112.407 166.847 112.26C165.914 112.112 165.008 111.478 164.786 110.56C164.545 109.556 165.139 108.57 165.507 107.606Z" fill="#263238"/>
<path d="M192.043 96.804L168.914 101.704C166.677 101.853 164.925 103.69 164.883 105.932L165.161 155.986C165.18 159.405 166.326 162.723 168.421 165.425L170.627 168.27C175.656 174.756 185.844 174.103 189.685 166.85C189.954 166.343 190.139 165.899 190.217 165.54C190.295 165.09 190.414 164.793 190.435 164.41L190.876 159.53C191.101 155.073 191.132 150.545 191.134 150.587C191.134 150.587 200.599 149.39 203.024 137.196C204.23 131.131 204.312 121.114 204.114 112.915C203.935 105.534 199.408 96.313 192.043 96.804Z" fill="#FFBE9D"/>
<path d="M200.218 123.137C200.215 123.969 199.508 124.653 198.639 124.666C197.772 124.679 197.069 124.017 197.072 123.184C197.075 122.352 197.782 121.667 198.65 121.654C199.519 121.641 200.222 122.305 200.218 123.137Z" fill="#263238"/>
<path d="M201.74 118.035C201.537 118.233 200.379 117.304 198.685 117.243C196.994 117.158 195.718 117.981 195.542 117.766C195.455 117.671 195.669 117.308 196.225 116.935C196.773 116.564 197.697 116.217 198.751 116.262C199.806 116.309 200.678 116.732 201.173 117.149C201.677 117.569 201.839 117.947 201.74 118.035Z" fill="#263238"/>
<path d="M184.574 122.329C184.572 123.161 183.864 123.845 182.995 123.858C182.128 123.871 181.425 123.209 181.428 122.376C181.431 121.544 182.138 120.859 183.006 120.846C183.875 120.833 184.577 121.497 184.574 122.329Z" fill="#263238"/>
<path d="M185.661 117.623C185.457 117.821 184.298 116.892 182.605 116.831C180.915 116.745 179.638 117.568 179.462 117.354C179.376 117.258 179.587 116.896 180.145 116.523C180.693 116.151 181.616 115.805 182.671 115.85C183.726 115.897 184.597 116.32 185.093 116.737C185.597 117.157 185.76 117.535 185.661 117.623Z" fill="#263238"/>
<path d="M190.74 130.5C190.736 130.404 191.795 130.263 193.51 130.111C193.944 130.083 194.357 130.013 194.441 129.721C194.555 129.412 194.392 128.939 194.202 128.428C193.836 127.366 193.453 126.252 193.051 125.086C191.457 120.329 190.321 116.424 190.513 116.362C190.705 116.299 192.153 120.104 193.747 124.861C194.129 126.034 194.496 127.152 194.843 128.221C194.988 128.719 195.247 129.287 195.001 129.927C194.872 130.246 194.545 130.468 194.265 130.532C193.984 130.606 193.741 130.601 193.527 130.605C191.808 130.631 190.743 130.597 190.74 130.5Z" fill="#263238"/>
<path d="M191.132 150.585C191.132 150.585 182.856 150.797 174.869 145.564C174.869 145.564 178.671 154.219 190.997 153.547L191.132 150.585Z" fill="#EB996E"/>
<path d="M189.865 134.556C189.287 133.727 188.237 133.243 187.174 133.316C186.436 133.367 185.68 133.692 185.21 134.273C184.74 134.854 184.614 135.7 184.998 136.286C185.43 136.946 186.379 137.132 187.196 136.934C188.013 136.735 188.729 136.23 189.411 135.726C189.599 135.586 189.792 135.441 189.914 135.244C190.036 135.048 190.07 134.786 189.936 134.614" fill="#EB996E"/>
<path d="M185.711 131.479C185.987 131.474 185.919 133.312 187.442 134.678C188.961 136.048 190.929 135.918 190.933 136.175C190.954 136.291 190.483 136.515 189.655 136.505C188.843 136.501 187.668 136.195 186.737 135.359C185.808 134.522 185.437 133.438 185.403 132.682C185.363 131.911 185.585 131.464 185.711 131.479Z" fill="#263238"/>
<path d="M185.564 112.596C185.379 113.05 183.697 112.766 181.701 112.928C179.701 113.05 178.077 113.57 177.829 113.146C177.719 112.944 178.015 112.522 178.681 112.101C179.34 111.681 180.381 111.298 181.579 111.211C182.777 111.127 183.862 111.358 184.574 111.681C185.291 112.004 185.644 112.38 185.564 112.596Z" fill="#263238"/>
<path d="M201.536 110.61C201.223 110.983 200.072 110.538 198.67 110.465C197.271 110.343 196.069 110.623 195.811 110.21C195.699 110.01 195.901 109.632 196.434 109.288C196.96 108.945 197.827 108.682 198.79 108.748C199.753 108.816 200.574 109.197 201.047 109.61C201.527 110.025 201.674 110.427 201.536 110.61Z" fill="#263238"/>
<path d="M161.268 104.033C163.666 96.9902 174.135 87.3942 181.545 88.0602L193.253 95.4032C192.455 99.4272 189.268 102.88 185.32 103.997C183.212 104.593 180.686 104.718 179.404 106.495C178.095 108.309 178.785 111.003 177.563 112.877C175.87 115.474 171.386 115.26 170.098 118.08C169.535 119.312 169.787 120.803 169.202 122.025C168.423 123.653 164.223 125.653 162.514 125.074C160.805 124.494 160.858 121.565 160.326 120.02C159.417 117.379 159.84 116.027 160.186 114.569C161.005 111.113 160.124 107.393 161.268 104.033Z" fill="#263238"/>
<path d="M167.561 126.625C167.594 125.711 166.622 123.516 165.725 123.34C163.33 122.871 158.978 122.896 158.7 129.014C158.32 137.378 166.796 136.034 166.822 135.795C166.842 135.608 167.446 129.78 167.561 126.625Z" fill="#FFBE9D"/>
<path d="M164.412 132.511C164.377 132.483 164.262 132.606 164.011 132.708C163.766 132.807 163.349 132.864 162.921 132.681C162.052 132.317 161.372 130.88 161.4 129.37C161.413 128.608 161.606 127.89 161.903 127.302C162.186 126.702 162.601 126.292 163.05 126.234C163.497 126.151 163.8 126.432 163.892 126.672C163.993 126.912 163.933 127.076 163.976 127.092C163.998 127.114 164.162 126.96 164.11 126.612C164.083 126.444 163.994 126.242 163.805 126.073C163.612 125.901 163.321 125.804 163.009 125.823C162.362 125.839 161.755 126.406 161.428 127.051C161.066 127.698 160.832 128.504 160.817 129.36C160.794 131.048 161.585 132.664 162.779 133.069C163.36 133.249 163.859 133.094 164.122 132.908C164.388 132.713 164.44 132.528 164.412 132.511Z" fill="#EB996E"/>
<path d="M159.476 101.864C159.503 99.247 156.235 97.536 153.686 96.943C151.137 96.35 148.442 97.126 146.147 98.383C144.804 99.119 143.452 100.165 143.152 101.666C142.851 103.167 144.296 104.956 145.73 104.419C142.984 105.359 141.591 109.028 143.021 111.553C144.451 114.079 148.314 114.771 150.532 112.9C149.816 115.297 148.253 117.431 146.183 118.837C150.486 119.45 155.054 117.613 157.734 114.191C160.414 110.77 161.103 105.894 159.476 101.864Z" fill="#263238"/>
<path d="M153.67 115.167C153.61 115.176 153.387 114.227 153.357 112.657C153.324 111.091 153.556 108.902 154.32 106.621C155.092 104.341 156.232 102.458 157.206 101.231C158.18 99.9991 158.932 99.3781 158.974 99.4221C159.128 99.5311 156.322 102.309 154.845 106.798C153.306 111.263 153.859 115.174 153.67 115.167Z" fill="#00C5FF"/>
<path d="M190.822 92.8737C191.592 96.2797 196.768 100.646 199.04 103.298C203.375 108.357 204.23 110.037 204.187 121.346C206.234 117.44 207.801 113.613 207.644 109.206C207.487 104.799 205.864 100.385 202.8 97.2127C199.736 94.0417 195.186 92.2417 190.822 92.8737Z" fill="#263238"/>
<path d="M226.298 185.94C226.298 185.94 217.283 170.908 214.781 167.868C212.435 165.017 209.413 163.336 207.396 162.453C206.274 161.962 205.093 161.625 203.887 161.415L190.922 158.544C190.922 158.544 190.899 167.393 181.627 167.941C172.355 168.489 164.548 155.572 164.548 155.572C164.548 155.572 149.569 157.889 145.985 159.732C142.401 161.576 136.768 163.917 133.669 179.437L131.494 194.62L157.322 197.007L159.794 235.386L172.603 244.306C172.603 244.306 208.113 253.538 210.382 254.148C212.651 254.758 213.403 197.006 213.403 197.006C213.403 197.006 222.523 191.111 226.298 185.94Z" fill="#00C5FF"/>
<path d="M209.299 179.487C209.332 179.475 209.508 179.869 209.798 180.594C210.093 181.317 210.47 182.383 210.889 183.716C211.73 186.379 212.653 190.145 213.176 194.383C213.691 198.623 213.704 202.501 213.529 205.288C213.444 206.682 213.336 207.808 213.224 208.58C213.118 209.354 213.043 209.779 213.007 209.775C212.972 209.771 212.979 209.339 213.024 208.562C213.074 207.786 213.127 206.661 213.165 205.273C213.245 202.497 213.174 198.653 212.664 194.446C212.145 190.242 211.287 186.495 210.539 183.82C210.167 182.482 209.845 181.403 209.609 180.661C209.377 179.917 209.265 179.5 209.299 179.487Z" fill="#263238"/>
<path d="M208.197 242.353L159.568 231.768L157.321 197.009L135.695 195.01C135.695 195.01 136.495 218.772 137.327 225.836C138.523 235.996 144.529 249.86 148.042 252.63C151.555 255.4 210.38 254.151 210.38 254.151L208.197 242.353Z" fill="#FFBE9D"/>
<path d="M235.801 248.653C235.459 249.331 234.748 249.774 233.991 249.708C233.84 249.695 233.682 249.665 233.52 249.613C232.444 249.268 232.545 247.078 232.545 247.078L227.391 246.237C227.391 246.237 220.689 250.559 218.305 253.423C215.921 256.287 209.838 253.967 209.838 253.967L207.73 242.982L217.216 234.404C217.216 234.404 216.633 234.915 217.288 233.31C217.942 231.705 220.923 232.312 220.923 232.312C221.387 231.519 223.334 231.234 223.334 231.234L231.654 232.193C233.369 232.391 234.901 233.354 235.823 234.813L239.342 240.383C239.342 240.383 241.201 244.393 240.902 245.325C240.451 246.732 238.963 246.419 238.963 246.419C238.963 246.419 238.554 249.055 237.862 249.147C237.17 249.239 235.801 248.653 235.801 248.653Z" fill="#FFBE9D"/>
<path d="M218.092 240.763C218.101 240.85 219.207 240.748 220.985 240.825C222.758 240.912 225.211 241.223 227.775 242.096C229.056 242.527 230.239 243.047 231.276 243.593C232.281 244.159 233.33 244.624 233.652 245.357C233.813 245.716 233.741 246.08 233.561 246.348C233.385 246.616 233.146 246.792 232.933 246.879C232.496 247.059 232.213 246.936 232.204 246.986C232.183 246.998 232.462 247.215 233.001 247.074C233.261 247.004 233.562 246.83 233.804 246.519C234.051 246.225 234.194 245.699 234 245.217C233.82 244.732 233.407 244.357 232.965 244.048C232.512 243.751 232.038 243.448 231.508 243.163C230.461 242.582 229.255 242.035 227.944 241.594C225.319 240.7 222.796 240.441 220.992 240.451C219.182 240.469 218.083 240.705 218.092 240.763Z" fill="#EB996E"/>
<path d="M217.51 246.068C217.52 246.226 220.906 246.084 225.065 246.328C229.227 246.557 232.575 247.08 232.602 246.925C232.614 246.856 231.791 246.637 230.436 246.399C229.082 246.16 227.193 245.918 225.095 245.798C222.998 245.68 221.094 245.707 219.722 245.79C218.349 245.874 217.505 245.999 217.51 246.068Z" fill="#EB996E"/>
<path d="M235.753 248.442C235.78 248.437 235.818 248.131 235.857 247.555C235.892 246.982 235.927 246.151 235.862 245.119C235.827 244.603 235.772 244.036 235.63 243.432C235.498 242.824 235.208 242.184 234.812 241.619C234.062 240.484 233.02 239.308 231.694 238.426C230.373 237.554 229.052 236.818 227.714 236.414C226.387 236.012 225.146 235.913 224.12 235.867C223.091 235.831 222.262 235.853 221.69 235.875C221.118 235.898 220.802 235.928 220.801 235.965C220.797 236.05 222.07 236.093 224.097 236.241C225.106 236.334 226.31 236.471 227.568 236.88C228.816 237.28 230.116 238.019 231.392 238.862C232.671 239.718 233.645 240.794 234.408 241.895C235.212 242.945 235.362 244.148 235.487 245.152C235.689 247.166 235.638 248.445 235.753 248.442Z" fill="#EB996E"/>
<path d="M223.734 233.35C223.733 233.429 224.979 233.462 226.967 233.691C228.882 233.984 231.945 234.125 233.69 236.763C235.58 239.163 237.186 241.43 237.889 243.29C238.634 245.137 238.568 246.415 238.677 246.405C238.705 246.406 238.754 246.092 238.726 245.523C238.702 244.954 238.58 244.126 238.242 243.16C237.603 241.198 236.006 238.846 234.105 236.432C233.62 235.826 233.095 235.251 232.488 234.797C231.882 234.334 231.178 234.065 230.53 233.877C229.218 233.507 228.011 233.398 227.003 233.317C224.983 233.182 223.733 233.282 223.734 233.35Z" fill="#EB996E"/>
<path d="M220.125 251.648C220.136 251.66 220.306 251.531 220.619 251.271C220.976 250.985 221.437 250.614 222.012 250.152C223.241 249.202 225.067 247.849 227.481 246.385L227.363 246.408C228.9 246.67 230.634 246.965 232.511 247.284L232.335 247.067C232.324 247.488 232.348 247.899 232.431 248.326C232.518 248.745 232.651 249.198 233.015 249.565C233.204 249.744 233.475 249.85 233.698 249.879C233.927 249.937 234.176 249.961 234.423 249.922C234.914 249.852 235.376 249.593 235.705 249.213C235.789 249.119 235.861 249.015 235.929 248.908L235.976 248.826L235.999 248.784L236.01 248.763L236.011 248.76C236.077 248.735 235.436 248.969 235.709 248.871L235.714 248.873L235.725 248.877L235.888 248.943C236.105 249.029 236.326 249.107 236.553 249.179C236.78 249.249 237.013 249.312 237.258 249.355C237.381 249.376 237.506 249.394 237.641 249.397C237.766 249.402 237.918 249.406 238.118 249.305C238.409 249.098 238.512 248.854 238.623 248.624C238.726 248.39 238.81 248.154 238.879 247.916C239.021 247.438 239.125 246.958 239.21 246.458L238.909 246.666C239.577 246.784 240.365 246.623 240.829 246.011C241.038 245.727 241.209 245.376 241.183 244.974C241.166 244.614 241.085 244.297 241.001 243.977C240.64 242.713 240.131 241.501 239.58 240.271L239.573 240.257L239.563 240.241C238.965 239.293 238.33 238.287 237.687 237.269C237.287 236.637 236.89 236.009 236.497 235.386C236.102 234.783 235.747 234.105 235.192 233.562C234.657 233.021 234.016 232.599 233.324 232.321C232.638 232.025 231.875 231.951 231.202 231.88C228.445 231.57 225.816 231.274 223.359 230.998L223.325 230.994L223.297 230.999C222.815 231.081 222.364 231.194 221.921 231.361C221.49 231.535 221.033 231.731 220.726 232.197L221.015 232.107C220.134 231.745 219.114 231.742 218.342 232.256C217.567 232.766 217.21 233.589 217.02 234.363L217.083 234.254C214.359 236.704 212.136 238.703 210.546 240.133C209.813 240.808 209.227 241.348 208.785 241.755C208.386 242.131 208.183 242.335 208.196 242.35C208.209 242.365 208.438 242.189 208.861 241.84C209.321 241.452 209.93 240.939 210.692 240.296C212.31 238.898 214.572 236.943 217.345 234.548L217.39 234.509L217.408 234.439C217.583 233.757 217.935 233.005 218.574 232.61C219.195 232.191 220.089 232.204 220.827 232.512L221.009 232.588L221.116 232.421C221.294 232.143 221.689 231.935 222.085 231.79C222.486 231.641 222.929 231.534 223.367 231.463L223.306 231.464C225.762 231.754 228.389 232.064 231.144 232.389C231.847 232.466 232.503 232.531 233.13 232.802C233.755 233.055 234.335 233.439 234.818 233.929C235.309 234.403 235.642 235.04 236.051 235.666C236.444 236.289 236.841 236.917 237.24 237.55C237.883 238.567 238.519 239.573 239.118 240.52L239.102 240.49C239.644 241.692 240.154 242.907 240.501 244.11C240.583 244.408 240.657 244.716 240.669 244.989C240.697 245.225 240.577 245.481 240.424 245.695C240.125 246.117 239.522 246.251 239.015 246.168L238.756 246.126L238.714 246.377C238.636 246.848 238.536 247.324 238.405 247.772C238.281 248.196 238.095 248.713 237.867 248.885C237.855 248.891 237.767 248.919 237.657 248.908C237.557 248.907 237.449 248.893 237.342 248.875C237.127 248.839 236.91 248.783 236.696 248.718C236.482 248.653 236.27 248.58 236.063 248.499L235.91 248.438L235.901 248.434L235.897 248.432C236.168 248.333 235.525 248.566 235.591 248.543L235.59 248.545L235.581 248.561L235.563 248.594L235.527 248.659C235.474 248.743 235.418 248.826 235.352 248.9C235.095 249.203 234.734 249.406 234.359 249.463C234.171 249.495 233.982 249.478 233.793 249.43C233.587 249.402 233.451 249.343 233.322 249.233C232.831 248.722 232.761 247.809 232.758 247.081L232.757 246.891L232.581 246.864C230.699 246.57 228.962 246.299 227.422 246.058L227.356 246.048L227.304 246.081C224.891 247.6 223.095 248.998 221.895 250C221.298 250.505 220.85 250.91 220.557 251.194C220.261 251.482 220.113 251.636 220.125 251.648Z" fill="#EB996E"/>
<path d="M289.063 216.699L225.01 217.219C222.932 217.219 220.947 218.217 220.635 220.272L213.635 266.957H180.642C179.58 266.957 178.719 267.818 178.719 268.88C178.719 269.942 179.58 270.803 180.642 270.803H213.058H219.211H286.016L293.218 221.531C293.604 218.989 291.635 216.699 289.063 216.699Z" fill="#E0E0E0"/>
<path d="M289.063 216.699C289.063 216.699 289.412 216.655 290.072 216.794C290.713 216.943 291.723 217.339 292.519 218.416C292.916 218.943 293.217 219.647 293.311 220.46C293.416 221.285 293.179 222.155 293.076 223.095C292.808 224.982 292.499 227.155 292.152 229.597C290.742 239.385 288.711 253.491 286.213 270.832L286.189 271.001H286.018C258.751 271.017 222.918 271.039 183.789 271.062C182.87 271.062 181.953 271.062 181.038 271.062C180.614 271.08 180.023 271.055 179.582 270.785C179.127 270.535 178.774 270.114 178.597 269.629C178.213 268.652 178.672 267.455 179.592 266.969C180.031 266.704 180.616 266.681 181.035 266.698H182.39C185.999 266.699 189.571 266.699 193.097 266.7C200.149 266.702 207.018 266.705 213.637 266.707L213.391 266.919C215.911 250.2 218.261 234.603 220.37 220.611C220.443 219.725 220.843 218.766 221.555 218.172C222.25 217.555 223.131 217.227 224.004 217.091C224.895 216.956 225.743 217.028 226.587 217C227.432 216.994 228.27 216.988 229.102 216.983C232.428 216.961 235.645 216.939 238.745 216.918C244.944 216.879 250.677 216.842 255.883 216.809C266.283 216.756 274.573 216.713 280.281 216.684C283.118 216.679 285.309 216.675 286.808 216.672C287.54 216.675 288.1 216.678 288.493 216.68C288.87 216.686 289.063 216.699 289.063 216.699C289.063 216.699 288.87 216.715 288.491 216.726C288.098 216.734 287.538 216.746 286.806 216.761C285.307 216.783 283.115 216.814 280.279 216.855C274.571 216.918 266.281 217.011 255.882 217.126C250.676 217.177 244.944 217.234 238.744 217.296C235.644 217.326 232.427 217.356 229.101 217.388C228.27 217.396 227.431 217.404 226.586 217.412C225.743 217.441 224.876 217.376 224.067 217.504C223.253 217.632 222.446 217.941 221.833 218.489C221.203 219.037 220.871 219.802 220.791 220.676C218.703 234.671 216.376 250.271 213.881 266.994L213.849 267.206H213.634C207.015 267.208 200.146 267.211 193.094 267.213C189.568 267.214 185.996 267.214 182.387 267.215H181.032C180.554 267.202 180.197 267.221 179.839 267.422C179.137 267.794 178.787 268.706 179.08 269.452C179.215 269.821 179.485 270.144 179.832 270.334C180.193 270.539 180.552 270.559 181.035 270.545C181.95 270.545 182.867 270.545 183.786 270.545C222.915 270.568 258.748 270.59 286.015 270.606L285.819 270.775C288.389 253.444 290.48 239.346 291.93 229.565C292.296 227.126 292.622 224.956 292.905 223.071C293.019 222.128 293.26 221.262 293.166 220.476C293.084 219.69 292.802 219.003 292.423 218.484C291.663 217.424 290.684 217.016 290.056 216.851C289.412 216.695 289.061 216.725 289.063 216.699Z" fill="#263238"/>
<path d="M250.311 243.158C250.311 245.373 252.107 247.168 254.321 247.168C256.536 247.168 258.331 245.373 258.331 243.158C258.331 240.943 256.535 239.148 254.321 239.148C252.106 239.148 250.311 240.943 250.311 243.158Z" fill="white"/>
<path d="M216.232 270.374C216.323 270.389 218.362 258.501 220.785 243.826C223.21 229.145 225.101 217.236 225.011 217.221C224.92 217.206 222.882 229.091 220.457 243.772C218.034 258.447 216.142 270.359 216.232 270.374Z" fill="#263238"/>
</svg>
