<svg width="786" height="559" viewBox="0 0 786 559" fill="none" xmlns="http://www.w3.org/2000/svg">
<path d="M567.737 111.664H559.808C559.107 111.664 558.504 111.164 558.376 110.476C557.619 106.436 555.208 102.489 554.206 100.979C554.01 100.721 553.81 100.433 553.624 100.138L553.201 99.4682L553.232 99.4702C552.282 97.7212 551.782 95.7612 551.782 93.7572C551.782 90.5032 553.064 87.4582 555.393 85.1842C557.722 82.9112 560.814 81.6982 564.056 81.7792C570.406 81.9302 575.538 87.0212 575.74 93.3692C575.808 95.5002 575.316 97.5852 574.31 99.4432L574.437 99.4272L573.928 100.132C573.925 100.135 573.859 100.224 573.744 100.388L573.562 100.649C572.496 102.211 569.96 106.253 569.168 110.478C569.043 111.165 568.44 111.664 567.737 111.664ZM554.35 99.8812C554.513 100.127 554.663 100.339 554.819 100.544C556.108 102.486 558.361 106.313 559.114 110.337C559.177 110.67 559.469 110.913 559.809 110.913H567.738C568.08 110.913 568.373 110.671 568.435 110.338C569.252 105.974 571.852 101.825 572.932 100.244L573.127 99.9632C573.136 99.9502 573.145 99.9372 573.153 99.9252L573.289 99.7092C574.474 97.8162 575.063 95.6322 574.991 93.3922C574.803 87.4422 569.992 82.6702 564.04 82.5282C560.961 82.4502 558.102 83.5892 555.919 85.7202C553.735 87.8522 552.533 90.7062 552.533 93.7572C552.533 95.8662 553.124 97.9242 554.24 99.7072L554.35 99.8812Z" fill="black"/>
<path d="M566.916 111.664H560.615V103.831C560.615 102.643 561.581 101.677 562.768 101.677H564.761C565.949 101.677 566.915 102.643 566.915 103.831V111.664H566.916ZM561.365 110.914H566.166V103.831C566.166 103.057 565.536 102.427 564.762 102.427H562.769C561.996 102.427 561.366 103.057 561.366 103.831V110.914H561.365Z" fill="black"/>
<path d="M567.072 113.228H560.461C559.823 113.228 559.304 112.709 559.304 112.071C559.304 111.433 559.824 110.914 560.461 110.914H567.072C567.71 110.914 568.229 111.433 568.229 112.071C568.229 112.709 567.709 113.228 567.072 113.228ZM560.46 111.664C560.235 111.664 560.053 111.847 560.053 112.071C560.053 112.296 560.236 112.478 560.46 112.478H567.071C567.296 112.478 567.478 112.295 567.478 112.071C567.478 111.846 567.295 111.664 567.071 111.664H560.46Z" fill="black"/>
<path d="M567.072 114.792H560.461C559.823 114.792 559.304 114.273 559.304 113.635C559.304 112.997 559.824 112.478 560.461 112.478H567.072C567.71 112.478 568.229 112.997 568.229 113.635C568.229 114.273 567.709 114.792 567.072 114.792ZM560.46 113.228C560.235 113.228 560.053 113.411 560.053 113.635C560.053 113.86 560.236 114.042 560.46 114.042H567.071C567.296 114.042 567.478 113.859 567.478 113.635C567.478 113.41 567.295 113.228 567.071 113.228H560.46Z" fill="black"/>
<path d="M567.072 116.357H560.461C559.823 116.357 559.304 115.838 559.304 115.2C559.304 114.562 559.824 114.043 560.461 114.043H567.072C567.71 114.043 568.229 114.562 568.229 115.2C568.229 115.838 567.709 116.357 567.072 116.357ZM560.46 114.792C560.235 114.792 560.053 114.975 560.053 115.199C560.053 115.424 560.236 115.606 560.46 115.606H567.071C567.296 115.606 567.478 115.423 567.478 115.199C567.478 114.974 567.295 114.792 567.071 114.792H560.46Z" fill="black"/>
<path d="M564.529 118.789H563.004C562.135 118.789 561.428 118.081 561.428 117.212V115.607H566.106V117.212C566.105 118.081 565.398 118.789 564.529 118.789ZM562.177 116.357V117.212C562.177 117.668 562.548 118.039 563.003 118.039H564.528C564.983 118.039 565.354 117.668 565.354 117.212V116.357H562.177Z" fill="black"/>
<path d="M564.141 91.3813H563.391V102.052H564.141V91.3813Z" fill="black"/>
<path d="M562.172 102.265C559.957 99.0531 556.588 94.1851 556.385 93.9371L555.523 93.1131L556.724 93.3191C560.786 93.9501 563.465 91.1531 563.493 91.1251L563.791 90.8071L564.062 91.1501C564.158 91.2721 566.45 94.1181 570.663 93.3211L571.905 93.0881L570.991 93.9611C570.81 94.1851 567.442 99.0541 565.227 102.266L564.61 101.84C567.306 97.9291 569.083 95.3661 569.921 94.1801C566.568 94.4701 564.466 92.6691 563.746 91.9221C562.968 92.6221 560.714 94.3341 557.459 94.1511C558.288 95.3241 560.071 97.8971 562.791 101.841L562.172 102.265Z" fill="black"/>
<path d="M265.793 350.876H258.822L257.433 343.034C256.762 342.927 256.079 342.793 255.358 342.626L251.121 349.373L244.662 346.752L246.325 338.96C245.595 338.518 244.879 338.043 244.191 337.545L237.661 342.111L232.732 337.182L237.297 330.652C236.883 330.082 236.486 329.494 236.114 328.899L228.349 330.674L225.634 324.253L232.314 319.923C232.112 319.099 231.942 318.255 231.808 317.409L223.966 316.021V309.05L231.808 307.662C231.915 306.989 232.05 306.306 232.216 305.587L225.468 301.35L228.089 294.89L235.882 296.553C236.327 295.817 236.802 295.101 237.296 294.42L232.731 287.89L237.66 282.961L244.19 287.526C244.762 287.111 245.35 286.714 245.943 286.343L244.169 278.578L250.589 275.864L254.92 282.544C255.743 282.342 256.586 282.172 257.433 282.038L258.822 274.196H265.793L267.182 282.038C267.853 282.145 268.537 282.279 269.257 282.446L273.493 275.698L279.953 278.319L278.29 286.111C279.025 286.557 279.741 287.031 280.423 287.526L286.953 282.961L291.883 287.89L287.317 294.42C287.73 294.989 288.128 295.577 288.501 296.173L296.266 294.399L298.981 300.82L292.3 305.15C292.502 305.973 292.672 306.816 292.807 307.663L300.649 309.051V316.022L292.807 317.41C292.699 318.08 292.566 318.763 292.399 319.486L299.146 323.722L296.525 330.182L288.733 328.519C288.29 329.25 287.815 329.966 287.318 330.652L291.884 337.182L286.953 342.11L280.423 337.544C279.85 337.96 279.262 338.358 278.67 338.728L280.445 346.493L274.025 349.207L269.694 342.527C268.87 342.729 268.027 342.899 267.181 343.034L265.793 350.876ZM259.451 350.126H265.164L266.537 342.373L266.804 342.333C267.804 342.184 268.802 341.982 269.771 341.735L270.032 341.669L274.313 348.272L279.575 346.048L277.82 338.372L278.05 338.231C278.777 337.786 279.498 337.298 280.196 336.782L280.413 336.622L286.868 341.136L290.909 337.096L286.394 330.641L286.554 330.424C287.147 329.621 287.709 328.774 288.226 327.904L288.364 327.673L296.065 329.316L298.213 324.022L291.543 319.834L291.606 319.572C291.82 318.676 291.983 317.844 292.104 317.03L292.144 316.763L299.897 315.391V309.678L292.144 308.305L292.104 308.038C291.955 307.036 291.753 306.038 291.506 305.071L291.44 304.81L298.043 300.529L295.818 295.267L288.142 297.021L288.001 296.792C287.551 296.059 287.063 295.337 286.552 294.646L286.392 294.429L290.907 287.973L286.866 283.933L280.411 288.447L280.194 288.287C279.397 287.698 278.549 287.136 277.674 286.616L277.442 286.479L279.086 278.777L273.792 276.629L269.604 283.299L269.342 283.236C268.447 283.022 267.617 282.859 266.801 282.737L266.534 282.697L265.161 274.944H259.448L258.075 282.697L257.808 282.737C256.807 282.886 255.809 283.088 254.841 283.334L254.58 283.4L250.299 276.798L245.037 279.023L246.791 286.698L246.561 286.839C245.834 287.285 245.111 287.773 244.415 288.287L244.198 288.447L237.743 283.933L233.703 287.973L238.217 294.428L238.057 294.645C237.468 295.442 236.907 296.29 236.386 297.165L236.248 297.396L228.546 295.752L226.398 301.046L233.069 305.234L233.005 305.496C232.792 306.387 232.629 307.218 232.506 308.036L232.466 308.303L224.714 309.676V315.389L232.466 316.761L232.506 317.028C232.656 318.028 232.857 319.027 233.104 319.996L233.17 320.257L226.568 324.537L228.793 329.8L236.469 328.045L236.61 328.274C237.058 329.004 237.546 329.726 238.058 330.42L238.218 330.637L233.704 337.092L237.744 341.132L244.199 336.618L244.416 336.778C245.221 337.372 246.068 337.934 246.937 338.45L247.168 338.588L245.524 346.289L250.817 348.437L255.006 341.767L255.268 341.83C256.162 342.044 256.994 342.207 257.809 342.328L258.076 342.368L259.451 350.126ZM262.308 335.572C249.606 335.572 239.272 325.238 239.272 312.536C239.272 299.833 249.606 289.499 262.308 289.499C275.01 289.499 285.344 299.833 285.344 312.536C285.344 325.238 275.01 335.572 262.308 335.572ZM262.308 290.249C250.019 290.249 240.022 300.247 240.022 312.536C240.022 324.825 250.019 334.822 262.308 334.822C274.597 334.822 284.594 324.825 284.594 312.536C284.594 300.247 274.597 290.249 262.308 290.249Z" fill="black"/>
<path d="M127.384 270.437H114.65L112.007 255.511C110.585 255.29 109.136 255.006 107.594 254.643L99.53 267.487L87.729 262.699L90.895 247.868C89.356 246.944 87.861 245.953 86.443 244.915L74.014 253.605L65.009 244.601L73.699 232.172C72.81 230.959 71.966 229.707 71.183 228.444L56.404 231.822L51.445 220.093L64.159 211.851C63.73 210.135 63.376 208.373 63.103 206.606L48.176 203.964V191.23L63.103 188.587C63.322 187.173 63.607 185.725 63.971 184.174L51.127 176.109L55.914 164.309L70.746 167.474C71.668 165.938 72.66 164.442 73.698 163.022L65.008 150.593L74.013 141.589L86.442 150.279C87.656 149.39 88.908 148.545 90.17 147.762L86.792 132.983L98.521 128.025L106.763 140.739C108.484 140.309 110.245 139.955 112.006 139.683L114.649 124.757H127.383L130.026 139.684C131.447 139.904 132.895 140.189 134.439 140.552L142.503 127.708L154.304 132.496L151.138 147.328C152.683 148.255 154.178 149.247 155.59 150.28L168.02 141.59L177.024 150.594L168.334 163.023C169.223 164.236 170.067 165.488 170.85 166.751L185.63 163.373L190.588 175.102L177.874 183.344C178.303 185.06 178.657 186.821 178.93 188.588L193.857 191.231V203.965L178.93 206.607C178.71 208.03 178.425 209.479 178.062 211.021L190.907 219.086L186.119 230.886L171.288 227.721C170.368 229.254 169.376 230.749 168.335 232.173L177.025 244.602L168.021 253.606L155.591 244.916C154.377 245.805 153.125 246.65 151.864 247.433L155.243 262.212L143.514 267.17L135.272 254.456C133.553 254.885 131.792 255.24 130.028 255.512L127.384 270.437ZM115.279 269.687H126.756L129.383 254.85L129.65 254.81C131.568 254.523 133.485 254.137 135.348 253.662L135.609 253.596L143.801 266.233L154.372 261.764L151.013 247.074L151.243 246.933C152.639 246.076 154.026 245.14 155.364 244.151L155.581 243.991L167.936 252.63L176.051 244.514L167.412 232.16L167.572 231.943C168.709 230.403 169.789 228.775 170.781 227.105L170.919 226.873L185.66 230.019L189.975 219.385L177.207 211.368L177.271 211.106C177.682 209.391 177.996 207.794 178.229 206.228L178.269 205.961L193.107 203.335V191.858L178.269 189.231L178.229 188.964C177.942 187.043 177.555 185.126 177.082 183.266L177.016 183.005L189.654 174.813L185.186 164.242L170.495 167.6L170.354 167.371C169.497 165.974 168.56 164.587 167.573 163.25L167.413 163.033L176.052 150.679L167.937 142.563L155.582 151.202L155.365 151.042C153.84 149.914 152.213 148.834 150.527 147.833L150.296 147.696L153.442 132.954L142.807 128.639L134.791 141.405L134.529 141.342C132.81 140.931 131.215 140.618 129.65 140.384L129.383 140.344L126.756 125.506H115.279L112.652 140.344L112.385 140.384C110.47 140.67 108.554 141.056 106.688 141.531L106.427 141.597L98.235 128.96L87.663 133.43L91.021 148.12L90.792 148.261C89.396 149.118 88.009 150.054 86.671 151.043L86.454 151.203L74.1 142.564L65.984 150.68L74.623 163.034L74.463 163.251C73.329 164.786 72.25 166.414 71.255 168.089L71.117 168.32L56.375 165.174L52.061 175.808L64.828 183.825L64.765 184.087C64.353 185.814 64.039 187.41 63.807 188.965L63.767 189.232L48.929 191.859V203.336L63.767 205.962L63.807 206.229C64.094 208.15 64.481 210.068 64.954 211.927L65.021 212.188L52.383 220.38L56.852 230.951L71.542 227.593L71.683 227.822C72.54 229.219 73.477 230.606 74.464 231.943L74.624 232.16L65.985 244.514L74.101 252.63L86.455 243.991L86.672 244.151C88.204 245.283 89.832 246.363 91.51 247.36L91.741 247.497L88.595 262.239L99.23 266.554L107.246 253.788L107.508 253.851C109.225 254.262 110.821 254.575 112.387 254.809L112.654 254.849L115.279 269.687ZM121.017 241.227C96.959 241.227 77.387 221.655 77.387 197.597C77.387 173.539 96.959 153.967 121.017 153.967C145.075 153.967 164.647 173.539 164.647 197.597C164.647 221.655 145.074 241.227 121.017 241.227ZM121.017 154.717C97.373 154.717 78.137 173.953 78.137 197.597C78.137 221.241 97.373 240.477 121.017 240.477C144.661 240.477 163.897 221.241 163.897 197.597C163.897 173.953 144.66 154.717 121.017 154.717Z" fill="black"/>
<path d="M121.017 226.051C105.328 226.051 92.564 213.287 92.564 197.597C92.564 181.908 105.328 169.143 121.017 169.143C136.706 169.143 149.47 181.907 149.47 197.597C149.47 213.287 136.706 226.051 121.017 226.051ZM121.017 169.894C105.742 169.894 93.314 182.322 93.314 197.598C93.314 212.874 105.742 225.302 121.017 225.302C136.292 225.302 148.72 212.874 148.72 197.598C148.72 182.321 136.292 169.894 121.017 169.894Z" fill="black"/>
<path d="M626.93 266.47C628.836 312.994 596.83 355.376 549.738 365.043C497.419 375.783 446.3 342.077 435.56 289.758C430.916 267.137 434.587 244.743 444.473 225.738L405.001 205.508C390.665 233.185 385.355 265.766 392.11 298.677C407.776 374.992 482.342 424.158 558.657 408.492C627.245 394.412 673.892 332.755 671.265 265.012L626.93 266.47Z" fill="#9B5670"/>
<path d="M498.013 179.146L483.168 137.346C448.576 149.557 421.097 174.437 405.002 205.507L444.474 225.737C455.522 204.497 474.34 187.495 498.013 179.146Z" fill="#FFB74D"/>
<path d="M533.466 173.641L534.994 129.305C524.126 128.952 513.046 129.848 501.927 132.131C495.47 133.456 489.213 135.213 483.168 137.347L498.013 179.147C502.149 177.688 506.429 176.488 510.846 175.581C518.451 174.019 526.031 173.403 533.466 173.641Z" fill="#EA5770"/>
<path d="M534.994 129.305L533.466 173.641C577.173 175.04 615.846 206.152 625.025 250.865C626.098 256.092 626.72 261.306 626.931 266.47L671.267 265.012C670.971 257.38 670.061 249.673 668.475 241.946C655.09 176.75 598.718 131.377 534.994 129.305Z" fill="#28ED70"/>
<path d="M610.84 143.44L610.309 142.91L640.673 112.546H703.51V113.296H640.984L610.84 143.44Z" fill="black"/>
<path d="M501.23 119.626L473.584 91.98H376.884V91.23H473.895L474.005 91.34L501.761 119.096L501.23 119.626Z" fill="black"/>
<path d="M427.511 87.3802H381.225C378.624 87.3802 376.509 85.2652 376.509 82.6652C376.509 80.0652 378.624 77.9492 381.225 77.9492H427.511C430.111 77.9492 432.226 80.0652 432.226 82.6652C432.226 85.2652 430.111 87.3802 427.511 87.3802ZM381.225 78.6992C379.039 78.6992 377.259 80.4782 377.259 82.6652C377.259 84.8522 379.038 86.6302 381.225 86.6302H427.511C429.698 86.6302 431.476 84.8512 431.476 82.6652C431.476 80.4782 429.698 78.6992 427.511 78.6992H381.225Z" fill="black"/>
<path d="M699.17 109.337H667.498C664.897 109.337 662.782 107.222 662.782 104.622C662.782 102.022 664.897 99.9072 667.498 99.9072H699.17C701.77 99.9072 703.885 102.022 703.885 104.622C703.885 107.222 701.77 109.337 699.17 109.337ZM667.498 100.657C665.311 100.657 663.532 102.436 663.532 104.622C663.532 106.809 665.311 108.587 667.498 108.587H699.17C701.357 108.587 703.135 106.808 703.135 104.622C703.135 102.435 701.357 100.657 699.17 100.657H667.498Z" fill="black"/>
<path d="M680.601 235.337H540.329L533.028 243.233L532.818 235.337H527.705C523.84 235.337 520.706 232.204 520.706 228.338V194.015C520.706 190.15 523.839 187.016 527.705 187.016H680.601C684.466 187.016 687.6 190.149 687.6 194.015V228.338C687.599 232.204 684.466 235.337 680.601 235.337Z" fill="white"/>
<path d="M673.185 197.222H645.556V197.972H673.185V197.222Z" fill="black"/>
<path d="M626.646 197.222H590.717V197.972H626.646V197.222Z" fill="black"/>
<path d="M584.308 197.222H566.187V197.972H584.308V197.222Z" fill="black"/>
<path d="M673.185 206.064H607.42V206.814H673.185V206.064Z" fill="black"/>
<path d="M597.651 206.064H566.187V206.814H597.651V206.064Z" fill="black"/>
<path d="M673.185 214.906H647.447V215.656H673.185V214.906Z" fill="black"/>
<path d="M635.47 214.906H566.187V215.656H635.47V214.906Z" fill="black"/>
<path d="M633.159 223.748H609.837V224.498H633.159V223.748Z" fill="black"/>
<path d="M602.378 223.748H566.187V224.498H602.378V223.748Z" fill="black"/>
<path d="M543.517 224.498C535.998 224.498 529.879 218.38 529.879 210.86C529.879 203.34 535.997 197.222 543.517 197.222C551.038 197.222 557.156 203.34 557.156 210.86C557.156 218.38 551.037 224.498 543.517 224.498ZM543.517 197.972C536.411 197.972 530.629 203.753 530.629 210.86C530.629 217.966 536.41 223.748 543.517 223.748C550.623 223.748 556.406 217.966 556.406 210.86C556.406 203.753 550.623 197.972 543.517 197.972Z" fill="black"/>
<path d="M553.046 220.085H552.296C552.296 215.687 548.719 212.11 544.321 212.11H542.713C538.316 212.11 534.737 215.688 534.737 220.085H533.987C533.987 215.274 537.901 211.36 542.713 211.36H544.321C549.132 211.36 553.046 215.274 553.046 220.085Z" fill="black"/>
<path d="M543.517 209.846C540.936 209.846 538.835 207.745 538.835 205.164C538.835 202.582 540.936 200.481 543.517 200.481C546.099 200.481 548.2 202.582 548.2 205.164C548.199 207.746 546.099 209.846 543.517 209.846ZM543.517 201.231C541.349 201.231 539.585 202.995 539.585 205.164C539.585 207.332 541.349 209.096 543.517 209.096C545.685 209.096 547.45 207.332 547.45 205.164C547.449 202.996 545.685 201.231 543.517 201.231Z" fill="black"/>
<path d="M399.483 153.804H259.211L251.91 161.7L251.7 153.804H246.587C242.722 153.804 239.588 150.671 239.588 146.805V112.482C239.588 108.617 242.721 105.483 246.587 105.483H399.483C403.348 105.483 406.482 108.616 406.482 112.482V146.805C406.481 150.67 403.348 153.804 399.483 153.804Z" fill="white"/>
<path d="M393.391 115.904H365.762V116.654H393.391V115.904Z" fill="black"/>
<path d="M346.852 115.904H310.923V116.654H346.852V115.904Z" fill="black"/>
<path d="M304.515 115.904H286.393V116.654H304.515V115.904Z" fill="black"/>
<path d="M393.391 124.746H327.627V125.496H393.391V124.746Z" fill="black"/>
<path d="M317.857 124.746H286.393V125.496H317.857V124.746Z" fill="black"/>
<path d="M393.39 133.588H367.652V134.338H393.39V133.588Z" fill="black"/>
<path d="M355.677 133.588H286.393V134.338H355.677V133.588Z" fill="black"/>
<path d="M353.365 142.43H330.043V143.18H353.365V142.43Z" fill="black"/>
<path d="M322.584 142.43H286.393V143.18H322.584V142.43Z" fill="black"/>
<path d="M264.196 142.333C256.676 142.333 250.558 136.215 250.558 128.695C250.558 121.175 256.676 115.057 264.196 115.057C271.716 115.057 277.834 121.175 277.834 128.695C277.834 136.215 271.716 142.333 264.196 142.333ZM264.196 115.807C257.089 115.807 251.308 121.589 251.308 128.695C251.308 135.802 257.089 141.583 264.196 141.583C271.302 141.583 277.084 135.802 277.084 128.695C277.084 121.589 271.303 115.807 264.196 115.807Z" fill="black"/>
<path d="M273.726 137.92H272.976C272.976 133.523 269.398 129.945 265 129.945H263.392C258.994 129.945 255.417 133.523 255.417 137.92H254.667C254.667 133.109 258.581 129.195 263.392 129.195H265C269.812 129.195 273.726 133.109 273.726 137.92Z" fill="black"/>
<path d="M264.196 127.681C261.614 127.681 259.513 125.58 259.513 122.999C259.513 120.417 261.614 118.317 264.196 118.317C266.777 118.317 268.878 120.418 268.878 122.999C268.878 125.581 266.777 127.681 264.196 127.681ZM264.196 119.067C262.028 119.067 260.263 120.831 260.263 122.999C260.263 125.167 262.028 126.931 264.196 126.931C266.364 126.931 268.128 125.167 268.128 122.999C268.128 120.831 266.364 119.067 264.196 119.067Z" fill="black"/>
<path d="M648.163 376.426C642.145 372.087 634.035 372.056 627.983 376.346C627.983 376.346 581.892 409.6 581.16 410.762C580.331 412.077 579.85 413.63 579.85 415.292V475.223C579.85 479.934 583.704 483.788 588.415 483.788H687.772C692.483 483.788 696.337 479.934 696.337 475.223V415.292C696.337 413.172 695.556 411.228 694.268 409.73C693.433 408.758 648.163 376.426 648.163 376.426Z" fill="#FFB74D"/>
<path d="M613.894 434.375L585.802 477.425L586.64 477.972L614.732 434.922L613.894 434.375Z" fill="#F49D2A"/>
<path d="M661.352 434.398L660.514 434.946L688.631 477.975L689.469 477.428L661.352 434.398Z" fill="#F49D2A"/>
<path d="M638.01 447.603C634.465 447.603 630.92 446.574 627.887 444.514L584.203 414.848L584.766 414.02L628.45 443.686C634.217 447.604 641.945 447.575 647.679 443.614L690.532 414.023L691.1 414.845L648.247 444.436C645.191 446.546 641.601 447.603 638.01 447.603Z" fill="#F49D2A"/>
<path d="M687.599 340.34C691.86 340.34 695.315 343.783 695.34 348.038V380.476H679.859V348.038C679.883 343.782 683.338 340.34 687.599 340.34Z" fill="#E0BDAF"/>
<path d="M687.599 340.34H604.104C601.002 340.34 596.819 342.46 596.365 347.692L596.363 359.413V373.633V414.434V422.501L628.168 444.1C634.104 448.131 642.059 448.101 647.962 444.025L679.823 422.024V414.434V373.633H679.857L679.859 348.038C679.859 343.21 684.09 340.34 687.599 340.34Z" fill="white"/>
<path d="M668.816 350.889H660.954V351.639H668.816V350.889Z" fill="black"/>
<path d="M652.765 350.889H607.369V351.639H652.765V350.889Z" fill="black"/>
<path d="M668.817 360.609H638.093V361.359H668.817V360.609Z" fill="black"/>
<path d="M625.042 360.609H607.369V361.359H625.042V360.609Z" fill="black"/>
<path d="M668.816 370.33H607.369V371.08H668.816V370.33Z" fill="black"/>
<path d="M668.816 380.052H650.574V380.802H668.816V380.052Z" fill="black"/>
<path d="M640.531 380.052H607.369V380.802H640.531V380.052Z" fill="black"/>
<path d="M668.817 389.771H664.192V390.521H668.817V389.771Z" fill="black"/>
<path d="M658.914 389.771H607.369V390.521H658.914V389.771Z" fill="black"/>
<path d="M668.817 399.493H651.595V400.243H668.817V399.493Z" fill="black"/>
<path d="M643.935 399.493H607.369V400.243H643.935V399.493Z" fill="black"/>
<path d="M668.817 409.215H661.979V409.965H668.817V409.215Z" fill="black"/>
<path d="M654.829 409.215H607.369V409.965H654.829V409.215Z" fill="black"/>
<path d="M668.816 418.935H639.17V419.685H668.816V418.935Z" fill="black"/>
<path d="M658.403 428.656H610.207V429.406H658.403V428.656Z" fill="black"/>
<path d="M640.531 438.377H623.42V439.127H640.531V438.377Z" fill="black"/>
<path d="M704.376 483.772H662.795C660.824 483.772 659.211 482.159 659.211 480.188V455.107C659.211 453.136 660.824 451.523 662.795 451.523H704.376C706.347 451.523 707.96 453.136 707.96 455.107V480.188C707.961 482.159 706.348 483.772 704.376 483.772Z" fill="white"/>
<path d="M683.55 468.229C682.032 468.229 680.514 467.768 679.215 466.847L660.934 453.885L661.368 453.274L679.649 466.236C682.003 467.906 685.157 467.891 687.497 466.205L705.431 453.276L705.87 453.883L687.936 466.812C686.626 467.757 685.088 468.229 683.55 468.229Z" fill="black"/>
<path d="M673.277 462.228L661.513 481.03L662.149 481.429L673.914 462.627L673.277 462.228Z" fill="black"/>
<path d="M693.482 462.24L692.845 462.638L704.612 481.44L705.248 481.042L693.482 462.24Z" fill="black"/>
<path d="M705.375 459.811C708.525 459.811 711.078 457.257 711.078 454.108C711.078 450.958 708.525 448.405 705.375 448.405C702.225 448.405 699.672 450.958 699.672 454.108C699.672 457.257 702.225 459.811 705.375 459.811Z" fill="#EA5770"/>
<path d="M706.351 457.538H705.601V455.06H702.103L706.351 449.971V454.31H707.143V455.06H706.351V457.538ZM703.706 454.31H705.601V452.039L703.706 454.31Z" fill="white"/>
<path d="M475.86 483.772H280.828C277.331 483.772 274.496 480.937 274.496 477.44V200.584C274.496 197.087 277.331 194.252 280.828 194.252H475.859C479.356 194.252 482.191 197.087 482.191 200.584V477.44C482.191 480.937 479.357 483.772 475.86 483.772Z" fill="#9B5670"/>
<path d="M422.649 215.125H333.303C331.957 215.125 330.856 214.024 330.856 212.678V204.245C330.856 202.899 331.957 201.798 333.303 201.798H422.65C423.996 201.798 425.097 202.899 425.097 204.245V212.678C425.096 214.024 423.995 215.125 422.649 215.125Z" fill="#E2CFC7"/>
<path d="M472.854 210.211H283.833V467.813H472.854V210.211Z" fill="white"/>
<path d="M454.915 226.907H301.136V248.103H454.915V226.907Z" fill="#F7E6DF"/>
<path d="M353.314 257.551H301.357V316.938H353.314V257.551Z" fill="#FFB74D"/>
<path d="M334.806 289.612H319.187V316.938H334.806V289.612Z" fill="#FFB9A9"/>
<path d="M334.806 296.28C328.194 297.564 322.712 296.923 319.187 292.946V289.612H334.806V296.28Z" fill="#F28E81"/>
<path d="M303.942 316.938H351.022L352.002 306.097C352.269 302.873 350.405 301.094 347.064 300.414L334.931 298.619C330.986 301.414 323.478 301.541 319.062 298.619L307.901 300.414C304.56 301.094 302.696 302.873 302.963 306.097L303.942 316.938Z" fill="white"/>
<path d="M301.357 316.938H309.825L308.39 300.306C305.402 300.963 303.074 301.864 301.357 303.371V316.938Z" fill="white"/>
<path d="M353.296 303.206C351.534 301.683 349.208 300.774 346.433 300.306L344.998 316.938H353.296V303.206Z" fill="white"/>
<path d="M324.719 316.938H329.273L328.763 304.69L330.957 302.225L329.059 300.678L326.996 300.76L324.933 300.678L323.035 302.225L325.23 304.69L324.719 316.938Z" fill="#EA5770"/>
<path d="M319.187 295.021L316.553 299.022L322.607 304.441L325.35 300.678L319.187 295.021Z" fill="white"/>
<path d="M334.745 295.021L337.378 299.022L331.325 304.441L328.582 300.678L334.745 295.021Z" fill="white"/>
<path d="M322.665 304.998L316.303 299.301L316.803 298.742L322.548 303.885L323.282 302.878L323.888 303.32L322.665 304.998Z" fill="#EDCBC3"/>
<path d="M331.263 304.994L329.968 303.217L330.573 302.775L331.386 303.889L337.268 298.739L337.762 299.304L331.263 304.994Z" fill="#EDCBC3"/>
<path d="M317.318 281.158C317.318 281.158 315.956 277.752 313.775 279.306C311.594 280.86 313.783 286.248 316.732 286.775C319.681 287.301 317.318 281.158 317.318 281.158Z" fill="#FFB9A9"/>
<path d="M336.675 281.158C336.675 281.158 338.037 277.752 340.218 279.306C342.399 280.86 340.21 286.248 337.261 286.775C334.311 287.301 336.675 281.158 336.675 281.158Z" fill="#FFB9A9"/>
<path d="M314.586 284.019C314.016 283.184 313.448 281.533 314.04 280.641C314.268 280.299 314.745 279.933 315.752 280.139L315.602 280.873C315.126 280.775 314.81 280.838 314.665 281.057C314.334 281.556 314.684 282.832 315.205 283.596L314.586 284.019Z" fill="#E07C68"/>
<path d="M339.627 284.019L339.008 283.596C339.53 282.831 339.879 281.556 339.548 281.057C339.403 280.839 339.088 280.775 338.611 280.873L338.461 280.139C339.463 279.933 339.944 280.3 340.173 280.641C340.765 281.532 340.198 283.183 339.627 284.019Z" fill="#E07C68"/>
<path d="M327.446 295.414H326.545C320.88 295.414 316.246 290.779 316.246 285.115V275.629C316.246 269.964 320.881 265.33 326.545 265.33H327.446C333.11 265.33 337.745 269.965 337.745 275.629V285.115C337.746 290.779 333.111 295.414 327.446 295.414Z" fill="#FFB9A9"/>
<path d="M337.461 284.324C337.292 282.176 337.067 279.241 338.938 278.899L339.473 275.274C339.874 273.626 339.241 272.563 338.579 272.286C340.931 269.923 340.433 266.32 338.157 261.944C330.314 263.432 322.352 264.912 318.793 266.694C316.381 268.117 315.771 269.988 315.397 272.287C314.259 272.492 314.169 274.156 314.27 274.933L314.713 278.901C316.88 278.758 316.971 281.172 316.844 284.326C318.297 284.326 318.056 279.842 318.056 279.842L318.047 273.186H335.689L335.947 279.863C335.947 279.863 335.86 284.324 337.461 284.324Z" fill="black"/>
<path d="M322.107 282.736C322.495 282.736 322.81 282.421 322.81 282.033C322.81 281.644 322.495 281.33 322.107 281.33C321.719 281.33 321.404 281.644 321.404 282.033C321.404 282.421 321.719 282.736 322.107 282.736Z" fill="black"/>
<path d="M332.235 282.736C332.623 282.736 332.938 282.421 332.938 282.033C332.938 281.644 332.623 281.33 332.235 281.33C331.847 281.33 331.532 281.644 331.532 282.033C331.532 282.421 331.847 282.736 332.235 282.736Z" fill="black"/>
<path d="M323.764 279.929C323.764 280.295 320.479 280.295 320.479 279.929C320.479 279.563 321.214 279.267 322.121 279.267C323.029 279.267 323.764 279.564 323.764 279.929Z" fill="black"/>
<path d="M333.854 279.928C333.854 280.291 330.593 280.291 330.593 279.928C330.593 279.565 331.323 279.27 332.224 279.27C333.124 279.27 333.854 279.565 333.854 279.928Z" fill="black"/>
<path d="M326.849 286.238C326.39 286.144 326.128 285.741 326.024 285.54C325.895 285.461 325.664 285.378 325.451 285.624L324.883 285.135C325.44 284.49 326.19 284.7 326.558 285L326.669 285.15C326.711 285.251 326.849 285.472 327 285.504L326.849 286.238Z" fill="black"/>
<path d="M327.508 286.238L327.358 285.504C327.509 285.473 327.647 285.251 327.69 285.149L327.8 285.001C328.169 284.701 328.918 284.491 329.475 285.136L328.907 285.625C328.698 285.382 328.466 285.46 328.334 285.541C328.229 285.742 327.967 286.144 327.508 286.238Z" fill="black"/>
<path d="M327.554 291.045H326.804V292.298H327.554V291.045Z" fill="black"/>
<path d="M324.784 287.185C324.893 288.413 325.922 289.375 327.178 289.375C328.434 289.375 329.464 288.412 329.572 287.185H324.784Z" fill="white"/>
<path d="M333.242 276.613C330.982 276.613 329.092 278.149 328.51 280.226C327.63 279.749 326.663 279.746 325.841 280.21C325.253 278.142 323.368 276.613 321.114 276.613C318.392 276.613 316.178 278.827 316.178 281.548C316.178 284.27 318.392 286.484 321.114 286.484C323.835 286.484 326.049 284.27 326.049 281.548C326.049 281.362 326.014 281.186 325.994 281.005C326.696 280.486 327.574 280.49 328.361 281.017C328.342 281.194 328.307 281.366 328.307 281.548C328.307 284.27 330.521 286.484 333.242 286.484C335.964 286.484 338.178 284.27 338.178 281.548C338.178 278.827 335.964 276.613 333.242 276.613ZM321.114 285.733C318.806 285.733 316.928 283.856 316.928 281.547C316.928 279.239 318.806 277.362 321.114 277.362C323.422 277.362 325.299 279.239 325.299 281.547C325.299 283.856 323.422 285.733 321.114 285.733ZM333.242 285.733C330.934 285.733 329.057 283.856 329.057 281.547C329.057 279.239 330.934 277.362 333.242 277.362C335.55 277.362 337.428 279.239 337.428 281.547C337.428 283.856 335.55 285.733 333.242 285.733Z" fill="white"/>
<path d="M353.689 317.313H300.983V257.177H353.689V317.313ZM301.733 316.563H352.939V257.927H301.733V316.563Z" fill="#F7E6DF"/>
<path d="M452.97 262.993H372.829C371.321 262.993 370.094 261.765 370.094 260.257C370.094 258.748 371.322 257.521 372.829 257.521H452.97C454.478 257.521 455.705 258.748 455.705 260.257C455.705 261.766 454.478 262.993 452.97 262.993ZM372.829 258.271C371.734 258.271 370.844 259.162 370.844 260.257C370.844 261.352 371.735 262.243 372.829 262.243H452.97C454.065 262.243 454.955 261.352 454.955 260.257C454.955 259.162 454.064 258.271 452.97 258.271H372.829Z" fill="#8B5991"/>
<path d="M408.772 273.048H372.83C371.322 273.048 370.095 271.821 370.095 270.312C370.095 268.803 371.323 267.576 372.83 267.576H408.772C410.281 267.576 411.508 268.804 411.508 270.312C411.508 271.821 410.281 273.048 408.772 273.048ZM372.829 268.326C371.734 268.326 370.844 269.217 370.844 270.312C370.844 271.407 371.735 272.298 372.829 272.298H408.771C409.867 272.298 410.757 271.407 410.757 270.312C410.757 269.217 409.866 268.326 408.771 268.326H372.829Z" fill="#8B5991"/>
<path d="M316.487 341.747H302.967C301.931 341.747 301.087 340.903 301.087 339.867V338.155C301.087 337.119 301.931 336.275 302.967 336.275H316.487C317.524 336.275 318.368 337.119 318.368 338.155V339.867C318.368 340.903 317.525 341.747 316.487 341.747ZM302.967 337.025C302.344 337.025 301.837 337.532 301.837 338.155V339.867C301.837 340.49 302.344 340.997 302.967 340.997H316.487C317.111 340.997 317.618 340.49 317.618 339.867V338.155C317.618 337.532 317.111 337.025 316.487 337.025H302.967Z" fill="#EA5770"/>
<path d="M316.487 355.02H302.967C301.931 355.02 301.087 354.176 301.087 353.14V351.428C301.087 350.392 301.931 349.548 302.967 349.548H316.487C317.524 349.548 318.368 350.392 318.368 351.428V353.14C318.368 354.176 317.525 355.02 316.487 355.02ZM302.967 350.298C302.344 350.298 301.837 350.805 301.837 351.428V353.14C301.837 353.763 302.344 354.27 302.967 354.27H316.487C317.111 354.27 317.618 353.763 317.618 353.14V351.428C317.618 350.805 317.111 350.298 316.487 350.298H302.967Z" fill="#EA5770"/>
<path d="M316.487 368.292H302.967C301.931 368.292 301.087 367.448 301.087 366.412V364.701C301.087 363.664 301.931 362.82 302.967 362.82H316.487C317.524 362.82 318.368 363.664 318.368 364.701V366.412C318.368 367.448 317.525 368.292 316.487 368.292ZM302.967 363.57C302.344 363.57 301.837 364.077 301.837 364.701V366.412C301.837 367.035 302.344 367.542 302.967 367.542H316.487C317.111 367.542 317.618 367.035 317.618 366.412V364.701C317.618 364.077 317.111 363.57 316.487 363.57H302.967Z" fill="#EA5770"/>
<path d="M454.915 286.869H394.342V287.619H454.915V286.869Z" fill="black"/>
<path d="M386.716 286.869H370.69V287.619H386.716V286.869Z" fill="black"/>
<path d="M454.916 296.833H439.19V297.583H454.916V296.833Z" fill="black"/>
<path d="M429.238 296.833H370.69V297.583H429.238V296.833Z" fill="black"/>
<path d="M454.915 306.798H416.701V307.548H454.915V306.798Z" fill="black"/>
<path d="M411.354 306.798H396.797V307.548H411.354V306.798Z" fill="black"/>
<path d="M391.022 306.798H370.69V307.548H391.022V306.798Z" fill="black"/>
<path d="M454.915 316.764H425.877V317.514H454.915V316.764Z" fill="black"/>
<path d="M414.117 316.764H370.69V317.514H414.117V316.764Z" fill="black"/>
<path d="M452.826 340.998H427.299V341.748H452.826V340.998Z" fill="black"/>
<path d="M416.701 340.998H378.344V341.748H416.701V340.998Z" fill="black"/>
<path d="M361.966 340.998H325.128V341.748H361.966V340.998Z" fill="black"/>
<path d="M452.827 354.271H408.107V355.021H452.827V354.271Z" fill="black"/>
<path d="M401.903 354.271H351.806V355.021H401.903V354.271Z" fill="black"/>
<path d="M343.547 354.271H325.128V355.021H343.547V354.271Z" fill="black"/>
<path d="M452.827 367.542H439.19V368.292H452.827V367.542Z" fill="black"/>
<path d="M429.238 367.542H393.567V368.292H429.238V367.542Z" fill="black"/>
<path d="M385.424 367.542H325.128V368.292H385.424V367.542Z" fill="black"/>
<path d="M413.922 433.29H300.589V434.04H413.922V433.29Z" fill="black"/>
<path d="M340.962 389.803H304.047C302.415 389.803 301.087 388.475 301.087 386.843C301.087 385.211 302.415 383.883 304.047 383.883H340.962C342.594 383.883 343.922 385.211 343.922 386.843C343.922 388.475 342.594 389.803 340.962 389.803ZM304.047 384.633C302.828 384.633 301.837 385.624 301.837 386.843C301.837 388.062 302.828 389.053 304.047 389.053H340.962C342.181 389.053 343.172 388.062 343.172 386.843C343.172 385.624 342.181 384.633 340.962 384.633H304.047Z" fill="#8B5991"/>
<path d="M420.357 389.803H354.391C352.759 389.803 351.431 388.475 351.431 386.843C351.431 385.211 352.759 383.883 354.391 383.883H420.357C421.989 383.883 423.317 385.211 423.317 386.843C423.317 388.475 421.988 389.803 420.357 389.803ZM354.391 384.633C353.172 384.633 352.181 385.624 352.181 386.843C352.181 388.062 353.172 389.053 354.391 389.053H420.357C421.576 389.053 422.567 388.062 422.567 386.843C422.567 385.624 421.576 384.633 420.357 384.633H354.391Z" fill="#8B5991"/>
<path d="M455.552 420.917H301.136V421.667H455.552V420.917Z" fill="black"/>
<path d="M412.751 218.634H342.985C341.269 218.634 339.874 217.238 339.874 215.523V206.907C339.874 205.191 341.27 203.796 342.985 203.796H412.751C414.467 203.796 415.862 205.191 415.862 206.907V215.523C415.862 217.238 414.467 218.634 412.751 218.634ZM342.986 204.545C341.684 204.545 340.625 205.604 340.625 206.906V215.522C340.625 216.824 341.685 217.883 342.986 217.883H412.752C414.054 217.883 415.113 216.824 415.113 215.522V206.906C415.113 205.604 414.053 204.545 412.752 204.545H342.986Z" fill="#E2CFC7"/>
<path d="M630.292 474.107H360.297C356.644 474.107 353.682 471.146 353.682 467.493V297.546C353.682 293.893 356.643 290.932 360.297 290.932H630.292C633.945 290.932 636.906 293.893 636.906 297.546V467.492C636.907 471.146 633.945 474.107 630.292 474.107Z" fill="black"/>
<path d="M625.333 300.887H365.255V464.151H625.333V300.887Z" fill="white"/>
<path d="M625.333 300.887H365.255V464.151H625.333V300.887Z" fill="#EFE1DC"/>
<path d="M625.333 300.887H365.255V306.46H625.333V300.887Z" fill="white"/>
<path d="M321.871 474.248C322.059 479.517 326.415 483.771 331.728 483.771H658.861C664.174 483.771 668.53 479.516 668.718 474.248H321.871Z" fill="black"/>
<path d="M630.292 473.731H360.297V474.481H630.292V473.731Z" fill="#8B5991"/>
<path d="M495.294 298.02C493.897 298.02 492.759 296.882 492.759 295.484C492.759 294.086 493.897 292.948 495.294 292.948C496.692 292.948 497.83 294.086 497.83 295.484C497.83 296.882 496.693 298.02 495.294 298.02ZM495.294 293.698C494.31 293.698 493.509 294.499 493.509 295.484C493.509 296.469 494.31 297.27 495.294 297.27C496.279 297.27 497.08 296.469 497.08 295.484C497.08 294.499 496.28 293.698 495.294 293.698Z" fill="#8B5991"/>
<path d="M370.182 303.516C370.182 304.173 369.65 304.705 368.993 304.705C368.336 304.705 367.804 304.173 367.804 303.516C367.804 302.859 368.336 302.327 368.993 302.327C369.649 302.327 370.182 302.859 370.182 303.516Z" fill="#FFB43B"/>
<path d="M373.668 304.705C374.325 304.705 374.857 304.172 374.857 303.516C374.857 302.859 374.325 302.327 373.668 302.327C373.011 302.327 372.479 302.859 372.479 303.516C372.479 304.172 373.011 304.705 373.668 304.705Z" fill="#FFB43B"/>
<path d="M378.344 304.705C379.001 304.705 379.533 304.172 379.533 303.516C379.533 302.859 379.001 302.327 378.344 302.327C377.687 302.327 377.155 302.859 377.155 303.516C377.155 304.172 377.687 304.705 378.344 304.705Z" fill="#FFB43B"/>
<path d="M472.51 399.093H522.43V328.894H472.51V399.093Z" fill="#FFB9A9"/>
<path d="M522.429 360.284C488.089 373.358 472.509 361.974 472.509 361.974V328.895H522.429V360.284Z" fill="#F28E81"/>
<path d="M625.334 421.854C622.733 414.713 621.064 410.213 620.814 409.691C615.322 398.241 603.563 390.842 590.858 390.842C572.545 390.842 557.647 405.72 557.647 424.008C557.647 426.388 557.899 428.74 558.399 431.041L558.102 431.115L559.772 435.697L569.649 464.151H625.334V421.854Z" fill="#FFB9A9"/>
<path d="M437.209 424.009C437.209 405.721 422.312 390.843 403.999 390.843C391.294 390.843 379.534 398.242 374.043 409.692C373.675 410.46 370.232 419.848 365.256 433.623V464.152H425.208L435.084 435.698L436.755 431.116L436.458 431.042C436.957 428.741 437.209 426.389 437.209 424.009Z" fill="#FFB9A9"/>
<path d="M625.334 420.257C622.558 413.464 620.735 409.028 620.547 408.637C615.055 397.187 601.483 387.199 587.873 384.972C569.561 384.972 557.647 405.722 557.647 424.009C557.647 426.389 557.899 428.741 558.399 431.042L558.102 431.116L559.771 435.698L569.648 464.152H625.333L625.334 420.257Z" fill="white"/>
<path d="M437.209 424.009C437.209 405.721 425.295 384.972 406.983 384.972C393.373 387.199 379.801 397.187 374.31 408.637C374.037 409.204 370.331 418.262 365.255 430.715V464.152H425.208L435.084 435.698L436.753 431.116L436.457 431.042C436.957 428.741 437.209 426.389 437.209 424.009Z" fill="white"/>
<path d="M619.118 464.152H375.941L374.062 421.603C374.062 421.603 369.96 394.767 404.893 385.481L406.469 385.121V385.109L472.349 372.491C484.906 383.847 509.646 383.475 522.429 372.491L588.589 385.109V385.121L590.165 385.481C625.099 394.767 620.996 421.603 620.996 421.603L619.118 464.152Z" fill="white"/>
<path d="M491.803 357.294L493.973 357.377C517.723 360.058 538.876 347.01 541.626 322.643L544.501 297.175C547.251 272.809 530.069 250.679 506.319 247.999L504.167 247.756C480.417 245.075 458.735 262.818 455.984 287.184L453.109 312.652C450.36 337.018 468.053 354.613 491.803 357.294Z" fill="black"/>
<path d="M473.616 312.586C472.851 319.361 467.565 324.327 461.704 323.665C450.71 327.502 442.651 292.992 458.712 293.94C464.573 294.602 474.381 305.811 473.616 312.586Z" fill="#ED968A"/>
<path d="M486.937 363.679C507.795 366.033 531.846 351.489 534.197 330.659L538.183 295.341C539.829 280.758 529.228 267.478 514.625 265.829L494.967 263.61C478.667 261.77 465.894 255.265 464.057 271.544L458.351 322.098C456.001 342.928 468.089 361.552 486.937 363.679Z" fill="#FFB9A9"/>
<path d="M520.43 317.87C519.665 324.645 524.447 330.747 531.232 331.513C542.737 337.889 560.146 306.254 541.762 303.314C534.977 302.549 521.195 311.095 520.43 317.87Z" fill="#FFB9A9"/>
<path d="M534.484 324.998C534.357 324.998 534.228 324.996 534.098 324.991L534.137 323.991C541.182 324.275 544.064 316.023 544.305 312.99C544.411 311.638 543.856 310.445 542.78 309.716C541.415 308.79 539.457 308.801 537.549 309.744L537.106 308.848C539.341 307.743 541.672 307.758 543.341 308.889C544.703 309.812 545.437 311.375 545.302 313.069C545.045 316.304 542.004 324.998 534.484 324.998Z" fill="#EA8C73"/>
<path d="M541.166 321.183C541.075 321.067 538.928 318.37 535.267 319.852L534.892 318.924C539.277 317.154 541.933 320.539 541.958 320.573L541.166 321.183Z" fill="#EA8C73"/>
<path d="M461.538 293.874C461.538 293.874 459.608 292.461 455.37 293.597L454.852 280.684C454.04 274.747 456.768 271.287 459.298 270.59C459.298 270.59 456.369 269.211 453.854 261.264C451.34 253.317 458.883 232.3 458.883 232.3C490.622 240.216 522.713 248.078 533.723 259.161C541.963 265.137 543.45 271.938 543.908 280.141C547.982 281.328 551.015 285.887 549.839 290.192L545.271 304.415C536.954 302.773 532.342 307.584 531.061 321.379C524.062 320.589 527.288 305.054 527.288 305.054L529.951 281.754L464.292 274.343L461.538 293.874Z" fill="black"/>
<path d="M508.117 312.239C507.956 313.669 508.985 314.959 510.417 315.12C511.849 315.282 513.14 314.253 513.302 312.824C513.463 311.394 512.434 310.104 511.002 309.943C509.57 309.782 508.279 310.809 508.117 312.239Z" fill="black"/>
<path d="M470.752 308.021C470.591 309.451 471.62 310.741 473.052 310.902C474.484 311.064 475.775 310.036 475.937 308.606C476.098 307.176 475.069 305.886 473.637 305.725C472.204 305.564 470.913 306.592 470.752 308.021Z" fill="black"/>
<path d="M505.468 304.093C505.316 305.441 517.435 306.809 517.587 305.461C517.739 304.113 515.149 302.714 511.803 302.337C508.457 301.959 505.621 302.745 505.468 304.093Z" fill="black"/>
<path d="M468.248 299.887C468.097 301.225 480.127 302.583 480.278 301.245C480.429 299.907 477.858 298.519 474.536 298.144C471.215 297.768 468.399 298.549 468.248 299.887Z" fill="black"/>
<path d="M491.386 325.164L491.296 324.168C492.515 324.058 493.362 322.557 493.37 322.542L493.431 322.429L493.539 322.36C494.562 321.704 496.905 321.058 498.443 323.306L497.617 323.87C496.388 322.072 494.609 322.901 494.175 323.144C493.905 323.587 492.911 325.025 491.386 325.164Z" fill="#EA8C73"/>
<path d="M489.309 324.93C487.853 324.455 487.205 322.83 487.039 322.339C486.642 321.979 485.118 320.802 483.522 322.279L482.842 321.545C484.843 319.694 486.981 320.848 487.833 321.715L487.923 321.806L487.958 321.93C487.963 321.947 488.443 323.597 489.618 323.979L489.309 324.93Z" fill="#EA8C73"/>
<path d="M487.777 343.577L487.26 348.192L488.253 348.304L488.77 343.688L487.777 343.577Z" fill="#EA8C73"/>
<path d="M498.689 330.398C497.777 334.875 493.578 337.994 488.945 337.471C484.312 336.948 480.914 332.972 481.023 328.404L498.689 330.398Z" fill="black"/>
<path d="M516.51 293.986C508.182 293.046 500.553 298.203 498.092 305.886C495.125 303.075 490.929 302.616 487.07 304.685C486.402 296.628 480.108 289.877 471.767 288.935C467.18 288.416 462.654 289.716 459.039 292.592C455.425 295.469 453.149 299.58 452.632 304.167C452.115 308.754 453.416 313.269 456.298 316.879C459.18 320.488 463.297 322.763 467.89 323.281C468.551 323.355 469.211 323.392 469.868 323.392C473.766 323.392 477.524 322.085 480.617 319.622C484.231 316.745 486.508 312.635 487.025 308.047C487.121 307.195 487.132 306.355 487.104 305.522C490.938 303.302 495.013 303.755 497.867 306.719C497.651 307.53 497.473 308.358 497.376 309.216C496.308 318.685 503.153 327.261 512.635 328.331C513.292 328.405 513.945 328.441 514.591 328.441C523.27 328.441 530.774 321.911 531.77 313.097C532.837 303.631 525.991 295.057 516.51 293.986ZM486.279 307.966C485.784 312.354 483.607 316.286 480.15 319.039C476.693 321.791 472.377 323.039 467.974 322.537C463.579 322.041 459.642 319.866 456.884 316.412C454.127 312.959 452.882 308.64 453.378 304.252C453.873 299.864 456.049 295.932 459.507 293.18C462.466 290.824 466.061 289.574 469.791 289.574C470.418 289.574 471.05 289.61 471.683 289.681C480.753 290.705 487.301 298.908 486.279 307.966ZM531.023 313.017C530 322.077 521.786 328.617 512.718 327.588C503.647 326.565 497.099 318.361 498.121 309.303C499.142 300.245 507.354 293.707 516.426 294.731C525.497 295.755 532.045 303.958 531.023 313.017Z" fill="black"/>
<path d="M593.294 418.27L588.258 464.103L589.005 464.185L594.04 418.352L593.294 418.27Z" fill="#F7E5DC"/>
<path d="M401.485 418.256L400.739 418.339L405.815 464.168L406.562 464.085L401.485 418.256Z" fill="#F7E5DC"/>
<path d="M496.879 387.709C483.665 387.709 471.025 383.071 461.784 374.744L462.286 374.187C472.136 383.062 485.928 387.694 500.096 386.866C512.386 386.156 523.289 381.373 530.011 373.741L530.574 374.237C523.721 382.017 512.629 386.893 500.139 387.615C499.05 387.678 497.962 387.709 496.879 387.709Z" fill="#F7E5DC"/>
<path d="M502.506 451.726C509.22 448.945 512.408 441.249 509.627 434.536C506.846 427.823 499.15 424.636 492.437 427.416C485.723 430.197 482.535 437.894 485.316 444.606C488.096 451.319 495.793 454.507 502.506 451.726Z" fill="#28ED70"/>
<path d="M499.481 434.572H490.701C489.986 434.572 489.401 435.266 489.401 436.114V443.03C489.401 443.878 489.986 444.572 490.701 444.572H499.481C500.196 444.572 500.78 443.878 500.78 443.03V436.114C500.78 435.266 500.195 434.572 499.481 434.572Z" fill="white"/>
<path d="M504.136 436.083L502.505 437.714C502.313 437.906 502.205 438.167 502.205 438.439V440.706C502.205 440.978 502.313 441.239 502.506 441.432L504.136 443.062C504.781 443.707 505.883 443.25 505.883 442.338V436.807C505.884 435.895 504.781 435.438 504.136 436.083Z" fill="white"/>
<path d="M454.781 451.727C461.495 448.946 464.683 441.25 461.902 434.537C459.122 427.824 451.425 424.636 444.712 427.417C437.998 430.198 434.81 437.894 437.591 444.607C440.371 451.32 448.068 454.507 454.781 451.727Z" fill="#28ED70"/>
<path d="M454.715 439.958H453.685C453.685 442.139 451.911 443.913 449.73 443.913C447.55 443.913 445.776 442.139 445.776 439.958H444.746C444.746 442.53 446.711 444.629 449.215 444.89V446.282H447.167V447.312H452.294V446.282H450.246V444.89C452.749 444.628 454.715 442.53 454.715 439.958Z" fill="white"/>
<path d="M449.762 442.989C448.009 442.989 446.574 441.555 446.574 439.801V434.238C446.574 432.485 448.008 431.05 449.762 431.05C451.515 431.05 452.95 432.484 452.95 434.238V439.801C452.95 441.555 451.515 442.989 449.762 442.989Z" fill="white"/>
<path d="M554.475 448.876C559.613 443.738 559.613 435.408 554.475 430.271C549.337 425.133 541.008 425.133 535.87 430.271C530.732 435.408 530.732 443.738 535.87 448.876C541.008 454.014 549.337 454.014 554.475 448.876Z" fill="#EA5770"/>
<path d="M542.87 432.417L543.399 437.283L541.516 437.939C542.308 440.403 543.965 442.189 546.466 443.313L547.376 441.451L552.263 442.318C552.263 442.318 552.096 446.166 549.365 446.803C545.726 447.29 542.68 444.92 541.114 442.953C539.549 440.986 537.01 436.712 538.47 434.131C539.7 432.374 542.87 432.417 542.87 432.417Z" fill="white"/>
<path d="M259.262 344.62C259.262 344.62 254.763 345.928 254.658 349.538C254.553 353.148 258.215 354.769 260.151 355.449C262.087 356.129 264.284 345.457 259.262 344.62Z" fill="#FFB9A9"/>
<path d="M307.705 358.012C307.705 358.012 303.415 346.137 307.129 341.219C310.843 336.301 314.401 337.138 315.499 338.132L316.598 345.456C316.598 345.456 320.208 351.891 320.312 352.832C320.417 353.774 323.198 369.632 323.198 369.632C323.198 369.632 324.664 400.243 325.083 403.852C325.502 407.462 325.083 443.267 325.083 443.267L286.957 451.757L292.01 419.811C292.01 419.811 276.386 407.395 274.99 398.049L259.924 393.655C255.442 392.173 254.919 386.104 259.924 384.238C252.879 384.325 253.35 375.85 259.296 373.427C252.775 372.764 252.408 363.714 260.412 361.499L307.705 358.012Z" fill="#FFB9A9"/>
<path d="M304.385 393.267H261.995L257.66 325.959H308.72L304.385 393.267Z" fill="white"/>
<path d="M306.481 371.016L308.333 341.395H258.047L259.899 371.016H306.481Z" fill="#28ED70"/>
<path d="M257.107 320.535L256.11 325.959H310.27L309.273 320.535H257.107Z" fill="black"/>
<path d="M304.031 314.069H301.501H271.192H262.201L260.821 321.578H271.176H301.488H305.411L304.031 314.069Z" fill="black"/>
<path d="M305.22 320.16H261.013V320.91H305.22V320.16Z" fill="#8B5991"/>
<path d="M289.565 367.115C283.549 367.115 278.655 362.222 278.655 356.206C278.655 350.19 283.55 345.297 289.565 345.297C295.581 345.297 300.474 350.19 300.474 356.206C300.474 362.222 295.58 367.115 289.565 367.115ZM289.565 346.047C283.962 346.047 279.405 350.605 279.405 356.206C279.405 361.808 283.963 366.365 289.565 366.365C295.167 366.365 299.724 361.807 299.724 356.206C299.724 350.604 295.166 346.047 289.565 346.047Z" fill="#62A851"/>
<path d="M308.357 325.928L307.35 341.363L308.099 341.412L309.105 325.977L308.357 325.928Z" fill="black"/>
<path d="M315.407 358.171C317.242 358.059 319.065 357.854 320.88 357.582C320.583 355.117 320.348 353.148 320.313 352.833C320.209 351.891 316.599 345.457 316.599 345.457L315.501 338.133C314.402 337.139 310.845 336.302 307.131 341.22C303.62 345.867 307.254 356.715 307.665 357.894C310.158 358.559 312.852 358.327 315.407 358.171Z" fill="#FFB9A9"/>
<path d="M311.437 359.16C309.235 359.16 307.593 358.507 307.518 358.476L307.893 357.548C307.912 357.555 309.759 358.286 312.067 358.14L312.132 359.138C311.895 359.153 311.662 359.16 311.437 359.16Z" fill="#EA8C73"/>
<path d="M307.283 375.91L306.502 376.534L310.408 381.42L311.189 380.795L307.283 375.91Z" fill="#EA8C73"/>
<path d="M313.849 348.749C311.975 348.749 311.091 345.806 310.53 343.227C309.858 340.145 315.073 337.776 315.296 337.677L315.704 338.589C314.396 339.175 311.093 341.111 311.507 343.014C312.418 347.197 313.412 347.749 313.889 347.748C314.708 347.707 315.707 346.192 316.145 345.247L317.053 345.667C316.911 345.973 315.622 348.664 313.938 348.746C313.907 348.748 313.878 348.749 313.849 348.749Z" fill="#EA8C73"/>
<path d="M302.664 405.959C297.05 403.097 298.669 395.276 298.741 394.945L299.719 395.156C299.702 395.229 298.193 402.556 303.119 405.068L302.664 405.959Z" fill="#EA8C73"/>
<path d="M275.372 398.374L274.61 397.726C274.674 397.651 276.215 395.857 278.124 395.352L278.38 396.319C276.772 396.744 275.386 398.357 275.372 398.374Z" fill="#EA8C73"/>
<path d="M277.063 402.924L276.18 402.453C276.29 402.246 278.926 397.367 282.491 395.746L282.905 396.656C279.646 398.139 277.088 402.876 277.063 402.924Z" fill="#EA8C73"/>
<path d="M260.652 372.74L259.243 372.92L259.37 373.912L260.779 373.731L260.652 372.74Z" fill="#EA8C73"/>
<path d="M261.273 383.39L259.808 383.74L260.04 384.713L261.506 384.363L261.273 383.39Z" fill="#EA8C73"/>
<path d="M183.667 275.021L186.533 354.796C161.295 371.666 114.822 372.178 90.51 354.796L98.336 268.277L183.667 275.021Z" fill="#FFB9A9"/>
<path d="M202.988 264.549C202.775 264.549 202.561 264.543 202.347 264.529C194.343 264.039 188.391 254.501 189.077 243.268C189.765 232.035 196.838 223.292 204.839 223.784C208.75 224.023 212.284 226.39 214.789 230.448C217.261 234.451 218.439 239.635 218.108 245.046C217.44 255.977 210.725 264.549 202.988 264.549ZM190.075 243.33C189.422 254.013 194.954 263.076 202.407 263.532C209.845 263.98 216.456 255.668 217.11 244.984C217.428 239.778 216.302 234.802 213.938 230.973C211.608 227.2 208.355 225.001 204.778 224.782C197.335 224.337 190.729 232.646 190.075 243.33Z" fill="white"/>
<path d="M104.389 189.557L212.322 200.048C212.322 200.048 206.302 261.656 202.899 290.601C199.496 319.546 181.841 322.314 181.841 322.314C159.994 330.784 101.235 324.798 96.184 289.992L104.389 189.557Z" fill="#FFB9A9"/>
<path d="M170.652 257.304C167.757 250.19 167.935 244.219 171.127 241.332C173.117 239.532 176.023 239.367 178.901 240.89L178.434 241.774C175.903 240.437 173.485 240.547 171.797 242.074C169.584 244.076 168.364 249.029 171.577 256.928L170.652 257.304Z" fill="#EA8C73"/>
<path d="M176.484 259.213L175.588 258.77C176.636 256.652 176.769 254.907 175.983 253.581C174.345 250.818 169.254 250.577 169.202 250.575L169.242 249.576C169.474 249.585 174.926 249.84 176.843 253.069C177.812 254.704 177.692 256.771 176.484 259.213Z" fill="#EA8C73"/>
<path d="M100.936 188.135C97.913 167.478 109.861 158.297 123.462 158.22C123.462 158.22 197.424 149.848 206.85 151.124C220.823 153.016 230.616 165.879 228.724 179.853C227.588 188.242 222.497 195.121 215.587 198.873C213.752 200.004 212.458 200.468 212.458 200.468C210.904 200.966 209.357 201.328 207.809 201.585C207.497 201.639 207.183 201.684 206.868 201.726C206.735 201.744 206.601 201.766 206.468 201.783C206.427 201.788 206.386 201.792 206.344 201.796C204.433 202.032 202.514 202.119 200.567 202.097L193.069 257.475C192.186 263.998 191.551 269.227 184.46 268.267L184.362 249.396C184.689 245.74 184.701 239.712 181.635 237.158C177.625 233.818 169.692 234.521 166.902 238.981C160.614 248.29 170.319 267.616 170.319 267.616C170.319 267.616 159.313 290.569 147.918 297.598C130.218 305.938 104.894 303.555 96.247 291.357C91.214 245.293 80.749 201.419 100.936 188.135Z" fill="black"/>
<path d="M184.493 241.066L184.425 242.063L218.207 244.359L218.275 243.361L184.493 241.066Z" fill="white"/>
<path d="M200.56 202.474C200.411 202.471 185.44 202.157 170.741 200.667L170.817 199.921C185.484 201.407 200.426 201.721 200.576 201.724L200.56 202.474Z" fill="#8B5991"/>
<path d="M195.232 196.022C193.185 196.022 191.033 195.91 188.772 195.685L188.846 194.939C200.765 196.123 209.653 194.148 215.253 189.064C221.088 183.768 221.139 176.866 221.139 176.796L221.889 176.794C221.89 177.089 221.848 184.082 215.77 189.608C211.077 193.874 204.186 196.022 195.232 196.022Z" fill="#8B5991"/>
<path d="M193.327 255.572C193.238 258.641 194.373 263.12 198.562 263.631C202.078 264.209 203.592 261.417 206.154 262.351C210.381 282.402 205.16 322.601 185.047 321.256L184.459 268.27L193.327 255.572Z" fill="black"/>
<path d="M324.289 439.27L325.338 417.521L270.286 415.323L269.944 436.258L324.289 439.27Z" fill="white"/>
<path d="M324.958 559L326.128 436.668L263.848 430.328L251.365 559H324.958Z" fill="black"/>
<path d="M273.583 559L282.891 425.625C282.891 425.625 286.857 382.626 249.077 371.869L186.533 354.797C146.863 355.499 102.849 353.859 87.932 354.797L27.557 375.673C11.746 381.623 3.19398 392.146 0.000976562 408.21V449.503L8.49198 559H273.583Z" fill="black"/>
<path d="M273.583 559L282.891 425.625C282.891 425.625 286.857 382.626 249.077 371.869L186.533 354.797C146.863 355.499 102.849 353.859 87.932 354.797L27.557 375.673C11.746 381.623 3.19398 392.146 0.000976562 408.21V449.503L8.49198 559H273.583Z" fill="black"/>
<path d="M91.915 333.688H186.818L192.313 356.266H82.374L91.915 333.688Z" fill="white"/>
<path d="M192.807 438.019L235.387 559H322.796C313.656 521.942 285.275 406.886 284.766 405.022C284.321 403.391 283.783 401.788 283.159 400.22L283.135 400.124L283.123 400.13C277.956 387.235 266.823 376.747 251.845 372.544C225.973 365.283 198.465 379.506 190.404 404.312C186.614 415.975 187.8 427.9 192.807 438.018V438.019Z" fill="black"/>
<path d="M241.668 557.685L195.644 447.231C190.133 426.874 191.484 410.009 199.642 397.062C210.903 379.192 231.505 375.215 231.711 375.177L231.848 375.915C231.644 375.952 211.352 379.878 200.272 397.469C192.235 410.232 190.916 426.892 196.352 446.989L242.36 557.396L241.668 557.685Z" fill="#8B5991"/>
<path d="M285.799 407.569L285.071 407.749L316.146 533.551L316.874 533.371L285.799 407.569Z" fill="#8B5991"/>
<path d="M238.129 559L218.273 430.929C218.273 419.02 208.531 409.277 196.624 409.277H5.128C3.362 409.277 1.646 409.496 0 409.9V537.489L0.043 559H238.129Z" fill="#9B5670"/>
<path d="M213.82 558.124C210.978 541.877 208.599 525.338 206.299 509.343C202.209 480.912 197.981 451.515 190.954 422.127C189.217 415.18 182.43 410.515 172.798 409.65L172.864 408.904C182.829 409.797 189.863 414.674 191.682 421.949C198.717 451.374 202.949 480.789 207.04 509.235C209.34 525.225 211.719 541.759 214.558 557.995L213.82 558.124Z" fill="#843A5C"/>
</svg>
