<svg width="712" height="430" viewBox="0 0 712 430" fill="none" xmlns="http://www.w3.org/2000/svg">
<path d="M265.794 221.571H258.823L257.434 213.729C256.763 213.622 256.08 213.488 255.359 213.321L251.122 220.068L244.663 217.447L246.326 209.655C245.596 209.213 244.88 208.738 244.192 208.24L237.662 212.806L232.733 207.877L237.298 201.347C236.884 200.777 236.487 200.189 236.115 199.594L228.35 201.369L225.635 194.948L232.315 190.618C232.113 189.794 231.943 188.95 231.809 188.104L223.967 186.716V179.745L231.809 178.357C231.916 177.684 232.051 177.001 232.217 176.282L225.469 172.045L228.09 165.585L235.883 167.248C236.328 166.512 236.803 165.796 237.297 165.115L232.732 158.585L237.661 153.656L244.191 158.221C244.763 157.806 245.351 157.409 245.944 157.038L244.17 149.273L250.59 146.559L254.921 153.239C255.744 153.037 256.587 152.867 257.434 152.733L258.823 144.891H265.794L267.183 152.733C267.854 152.84 268.538 152.974 269.258 153.141L273.494 146.393L279.954 149.014L278.291 156.806C279.026 157.252 279.742 157.726 280.424 158.221L286.954 153.656L291.884 158.585L287.318 165.115C287.731 165.684 288.129 166.272 288.502 166.868L296.267 165.094L298.982 171.515L292.301 175.845C292.503 176.668 292.673 177.511 292.808 178.358L300.65 179.746V186.717L292.808 188.105C292.7 188.775 292.567 189.458 292.4 190.181L299.147 194.417L296.526 200.877L288.734 199.214C288.291 199.945 287.816 200.661 287.319 201.347L291.885 207.877L286.954 212.805L280.424 208.239C279.851 208.655 279.263 209.053 278.671 209.423L280.446 217.188L274.026 219.902L269.695 213.222C268.871 213.424 268.028 213.594 267.182 213.729L265.794 221.571ZM259.452 220.821H265.165L266.538 213.068L266.805 213.028C267.805 212.879 268.803 212.677 269.772 212.43L270.033 212.364L274.314 218.967L279.576 216.743L277.821 209.067L278.051 208.926C278.778 208.481 279.499 207.993 280.197 207.477L280.414 207.317L286.869 211.831L290.91 207.791L286.395 201.336L286.555 201.119C287.148 200.316 287.71 199.469 288.227 198.599L288.365 198.368L296.066 200.011L298.214 194.717L291.544 190.529L291.607 190.267C291.821 189.371 291.984 188.539 292.105 187.725L292.145 187.458L299.898 186.086V180.373L292.145 179L292.105 178.733C291.956 177.731 291.754 176.733 291.507 175.766L291.441 175.505L298.044 171.224L295.819 165.962L288.143 167.716L288.002 167.487C287.552 166.754 287.064 166.032 286.553 165.341L286.393 165.124L290.908 158.668L286.867 154.628L280.412 159.142L280.195 158.982C279.398 158.393 278.55 157.831 277.675 157.311L277.443 157.174L279.087 149.472L273.793 147.324L269.605 153.994L269.343 153.931C268.448 153.717 267.618 153.554 266.802 153.432L266.535 153.392L265.162 145.639H259.449L258.076 153.392L257.809 153.432C256.808 153.581 255.81 153.783 254.842 154.029L254.581 154.095L250.3 147.493L245.038 149.718L246.792 157.393L246.562 157.534C245.835 157.98 245.112 158.468 244.416 158.982L244.199 159.142L237.744 154.628L233.704 158.668L238.218 165.123L238.058 165.34C237.469 166.137 236.908 166.985 236.387 167.86L236.249 168.091L228.547 166.447L226.399 171.741L233.07 175.929L233.006 176.191C232.793 177.082 232.63 177.913 232.507 178.731L232.467 178.998L224.715 180.371V186.084L232.467 187.456L232.507 187.723C232.657 188.723 232.858 189.722 233.105 190.691L233.171 190.952L226.569 195.232L228.794 200.495L236.47 198.74L236.611 198.969C237.059 199.699 237.547 200.421 238.059 201.115L238.219 201.332L233.705 207.787L237.745 211.827L244.2 207.313L244.417 207.473C245.222 208.067 246.069 208.629 246.938 209.145L247.169 209.283L245.525 216.984L250.818 219.132L255.007 212.462L255.269 212.525C256.163 212.739 256.995 212.902 257.81 213.023L258.077 213.063L259.452 220.821ZM262.309 206.267C249.607 206.267 239.273 195.933 239.273 183.231C239.273 170.528 249.607 160.194 262.309 160.194C275.011 160.194 285.345 170.528 285.345 183.231C285.345 195.933 275.011 206.267 262.309 206.267ZM262.309 160.944C250.02 160.944 240.023 170.942 240.023 183.231C240.023 195.52 250.02 205.517 262.309 205.517C274.598 205.517 284.595 195.52 284.595 183.231C284.595 170.942 274.598 160.944 262.309 160.944Z" fill="black"/>
<path d="M121.017 96.7459C105.328 96.7459 92.5645 83.9819 92.5645 68.2919C92.5645 52.6029 105.328 39.8379 121.017 39.8379C136.706 39.8379 149.47 52.6019 149.47 68.2919C149.47 83.9819 136.706 96.7459 121.017 96.7459ZM121.017 40.5889C105.742 40.5889 93.3145 53.0169 93.3145 68.2929C93.3145 83.5689 105.742 95.9969 121.017 95.9969C136.292 95.9969 148.72 83.5689 148.72 68.2929C148.72 53.0159 136.292 40.5889 121.017 40.5889Z" fill="black"/>
<path d="M626.93 137.165C628.836 183.689 596.83 226.071 549.738 235.738C497.419 246.478 446.3 212.772 435.56 160.453C430.916 137.832 434.587 115.438 444.473 96.4331L405.001 76.2031C390.665 103.88 385.355 136.461 392.11 169.372C407.776 245.687 482.342 294.853 558.657 279.187C627.245 265.107 673.892 203.45 671.265 135.707L626.93 137.165Z" fill="#9B5670"/>
<path d="M498.013 49.841L483.168 8.04102C448.576 20.252 421.097 45.132 405.002 76.202L444.474 96.432C455.522 75.192 474.34 58.19 498.013 49.841Z" fill="#FFB74D"/>
<path d="M534.995 0L533.467 44.336C577.174 45.735 615.847 76.847 625.026 121.56C626.099 126.787 626.721 132.001 626.932 137.165L671.268 135.707C670.972 128.075 670.062 120.368 668.476 112.641C655.091 47.445 598.719 2.072 534.995 0Z" fill="#00C5FF"/>
<path d="M680.6 106.032H540.328L533.027 113.928L532.817 106.032H527.704C523.839 106.032 520.705 102.899 520.705 99.0329V64.7099C520.705 60.8449 523.838 57.7109 527.704 57.7109H680.6C684.465 57.7109 687.599 60.8439 687.599 64.7099V99.0329C687.598 102.899 684.465 106.032 680.6 106.032Z" fill="white"/>
<path d="M673.186 67.918H645.557V68.668H673.186V67.918Z" fill="black"/>
<path d="M626.646 67.918H590.717V68.668H626.646V67.918Z" fill="black"/>
<path d="M584.308 67.918H566.188V68.668H584.308V67.918Z" fill="black"/>
<path d="M673.185 76.7598H607.42V77.5098H673.185V76.7598Z" fill="black"/>
<path d="M597.651 76.7598H566.188V77.5098H597.651V76.7598Z" fill="black"/>
<path d="M673.185 85.6016H647.447V86.3516H673.185V85.6016Z" fill="black"/>
<path d="M635.47 85.6016H566.188V86.3516H635.47V85.6016Z" fill="black"/>
<path d="M633.16 94.4434H609.838V95.1934H633.16V94.4434Z" fill="black"/>
<path d="M602.378 94.4434H566.188V95.1934H602.378V94.4434Z" fill="black"/>
<path d="M543.517 95.194C535.998 95.194 529.879 89.076 529.879 81.556C529.879 74.036 535.997 67.918 543.517 67.918C551.038 67.918 557.156 74.036 557.156 81.556C557.156 89.076 551.037 95.194 543.517 95.194ZM543.517 68.668C536.411 68.668 530.629 74.449 530.629 81.556C530.629 88.662 536.41 94.444 543.517 94.444C550.623 94.444 556.406 88.662 556.406 81.556C556.406 74.449 550.623 68.668 543.517 68.668Z" fill="black"/>
<path d="M553.045 90.7797H552.295C552.295 86.3817 548.718 82.8047 544.32 82.8047H542.712C538.315 82.8047 534.736 86.3827 534.736 90.7797H533.986C533.986 85.9687 537.9 82.0547 542.712 82.0547H544.32C549.131 82.0547 553.045 85.9687 553.045 90.7797Z" fill="black"/>
<path d="M543.518 80.5408C540.937 80.5408 538.836 78.4398 538.836 75.8588C538.836 73.2768 540.937 71.1758 543.518 71.1758C546.1 71.1758 548.201 73.2768 548.201 75.8588C548.2 78.4408 546.1 80.5408 543.518 80.5408ZM543.518 71.9258C541.35 71.9258 539.586 73.6898 539.586 75.8588C539.586 78.0268 541.35 79.7908 543.518 79.7908C545.686 79.7908 547.451 78.0268 547.451 75.8588C547.45 73.6908 545.686 71.9258 543.518 71.9258Z" fill="black"/>
<path d="M648.163 247.122C642.145 242.783 634.035 242.752 627.983 247.042C627.983 247.042 581.892 280.296 581.16 281.458C580.331 282.773 579.85 284.326 579.85 285.988V345.919C579.85 350.63 583.704 354.484 588.415 354.484H687.772C692.483 354.484 696.337 350.63 696.337 345.919V285.988C696.337 283.868 695.556 281.924 694.268 280.426C693.433 279.454 648.163 247.122 648.163 247.122Z" fill="#FFB74D"/>
<path d="M613.895 305.07L585.803 348.12L586.641 348.667L614.733 305.617L613.895 305.07Z" fill="#F49D2A"/>
<path d="M661.352 305.094L660.514 305.642L688.631 348.671L689.469 348.124L661.352 305.094Z" fill="#F49D2A"/>
<path d="M638.01 318.298C634.465 318.298 630.92 317.269 627.887 315.209L584.203 285.543L584.766 284.715L628.45 314.381C634.217 318.299 641.945 318.27 647.679 314.309L690.532 284.718L691.1 285.54L648.247 315.131C645.191 317.241 641.601 318.298 638.01 318.298Z" fill="#F49D2A"/>
<path d="M687.599 211.035C691.86 211.035 695.315 214.478 695.34 218.733V251.171H679.859V218.733C679.883 214.477 683.338 211.035 687.599 211.035Z" fill="#E0BDAF"/>
<path d="M687.599 211.035H604.104C601.002 211.035 596.819 213.155 596.365 218.387L596.363 230.108V244.328V285.129V293.196L628.168 314.795C634.104 318.826 642.059 318.796 647.962 314.72L679.823 292.719V285.129V244.328H679.857L679.859 218.733C679.859 213.905 684.09 211.035 687.599 211.035Z" fill="white"/>
<path d="M668.815 221.584H660.953V222.334H668.815V221.584Z" fill="black"/>
<path d="M652.765 221.584H607.369V222.334H652.765V221.584Z" fill="black"/>
<path d="M668.818 231.305H638.094V232.055H668.818V231.305Z" fill="black"/>
<path d="M625.042 231.305H607.369V232.055H625.042V231.305Z" fill="black"/>
<path d="M668.816 241.025H607.369V241.775H668.816V241.025Z" fill="black"/>
<path d="M668.816 250.748H650.574V251.498H668.816V250.748Z" fill="black"/>
<path d="M640.531 250.748H607.369V251.498H640.531V250.748Z" fill="black"/>
<path d="M668.816 260.467H664.191V261.217H668.816V260.467Z" fill="black"/>
<path d="M658.914 260.467H607.369V261.217H658.914V260.467Z" fill="black"/>
<path d="M668.818 270.188H651.596V270.938H668.818V270.188Z" fill="black"/>
<path d="M643.935 270.188H607.369V270.938H643.935V270.188Z" fill="black"/>
<path d="M668.817 279.91H661.979V280.66H668.817V279.91Z" fill="black"/>
<path d="M654.829 279.91H607.369V280.66H654.829V279.91Z" fill="black"/>
<path d="M668.816 289.631H639.17V290.381H668.816V289.631Z" fill="black"/>
<path d="M658.403 299.352H610.207V300.102H658.403V299.352Z" fill="black"/>
<path d="M640.531 309.072H623.42V309.822H640.531V309.072Z" fill="black"/>
<path d="M704.376 354.468H662.795C660.824 354.468 659.211 352.855 659.211 350.884V325.803C659.211 323.832 660.824 322.219 662.795 322.219H704.376C706.347 322.219 707.96 323.832 707.96 325.803V350.884C707.961 352.855 706.348 354.468 704.376 354.468Z" fill="white"/>
<path d="M683.55 338.924C682.032 338.924 680.514 338.463 679.215 337.542L660.934 324.58L661.368 323.969L679.649 336.931C682.003 338.601 685.157 338.586 687.497 336.9L705.431 323.971L705.87 324.578L687.936 337.507C686.626 338.452 685.088 338.924 683.55 338.924Z" fill="black"/>
<path d="M673.278 332.924L661.514 351.726L662.15 352.125L673.915 333.323L673.278 332.924Z" fill="black"/>
<path d="M693.483 332.936L692.846 333.334L704.613 352.136L705.249 351.738L693.483 332.936Z" fill="black"/>
<path d="M705.375 330.506C708.525 330.506 711.078 327.952 711.078 324.803C711.078 321.653 708.525 319.1 705.375 319.1C702.225 319.1 699.672 321.653 699.672 324.803C699.672 327.952 702.225 330.506 705.375 330.506Z" fill="#EA5770"/>
<path d="M706.352 328.233H705.602V325.755H702.104L706.352 320.666V325.005H707.143V325.755H706.352V328.233ZM703.706 325.005H705.602V322.734L703.706 325.005Z" fill="white"/>
<path d="M475.86 354.467H280.828C277.331 354.467 274.496 351.632 274.496 348.135V71.2793C274.496 67.7823 277.331 64.9473 280.828 64.9473H475.859C479.356 64.9473 482.191 67.7823 482.191 71.2793V348.135C482.191 351.632 479.357 354.467 475.86 354.467Z" fill="#9B5670"/>
<path d="M422.648 85.8211H333.302C331.956 85.8211 330.855 84.7201 330.855 83.3741V74.9411C330.855 73.5951 331.956 72.4941 333.302 72.4941H422.649C423.995 72.4941 425.096 73.5951 425.096 74.9411V83.3741C425.095 84.7201 423.994 85.8211 422.648 85.8211Z" fill="#E2CFC7"/>
<path d="M472.853 80.9062H283.832V338.508H472.853V80.9062Z" fill="white"/>
<path d="M454.916 97.6016H301.137V118.798H454.916V97.6016Z" fill="#F7E6DF"/>
<path d="M353.314 128.246H301.357V187.633H353.314V128.246Z" fill="#FFB74D"/>
<path d="M334.806 160.307H319.188V187.633H334.806V160.307Z" fill="#FFB9A9"/>
<path d="M334.806 166.975C328.194 168.259 322.713 167.618 319.188 163.641V160.307H334.806V166.975Z" fill="#F28E81"/>
<path d="M303.942 187.633H351.022L352.002 176.792C352.269 173.568 350.405 171.789 347.064 171.109L334.931 169.314C330.986 172.109 323.478 172.236 319.062 169.314L307.901 171.109C304.56 171.789 302.696 173.568 302.963 176.792L303.942 187.633Z" fill="white"/>
<path d="M301.357 187.634H309.825L308.39 171.002C305.402 171.659 303.074 172.56 301.357 174.067V187.634Z" fill="white"/>
<path d="M353.296 173.902C351.534 172.379 349.208 171.47 346.433 171.002L344.998 187.634H353.296V173.902Z" fill="white"/>
<path d="M324.719 187.633H329.273L328.763 175.385L330.957 172.92L329.059 171.373L326.996 171.455L324.933 171.373L323.035 172.92L325.23 175.385L324.719 187.633Z" fill="#EA5770"/>
<path d="M319.187 165.717L316.553 169.718L322.607 175.137L325.35 171.374L319.187 165.717Z" fill="white"/>
<path d="M334.745 165.717L337.378 169.718L331.325 175.137L328.582 171.374L334.745 165.717Z" fill="white"/>
<path d="M322.665 175.693L316.303 169.996L316.803 169.438L322.548 174.581L323.282 173.573L323.888 174.016L322.665 175.693Z" fill="#EDCBC3"/>
<path d="M331.264 175.689L329.969 173.912L330.574 173.47L331.387 174.584L337.269 169.434L337.763 169.999L331.264 175.689Z" fill="#EDCBC3"/>
<path d="M317.317 151.854C317.317 151.854 315.955 148.448 313.774 150.002C311.593 151.556 313.782 156.944 316.731 157.471C319.68 157.997 317.317 151.854 317.317 151.854Z" fill="#FFB9A9"/>
<path d="M336.676 151.854C336.676 151.854 338.038 148.448 340.219 150.002C342.4 151.556 340.211 156.944 337.262 157.471C334.312 157.997 336.676 151.854 336.676 151.854Z" fill="#FFB9A9"/>
<path d="M314.586 154.715C314.016 153.88 313.448 152.229 314.04 151.337C314.268 150.995 314.745 150.629 315.752 150.835L315.602 151.569C315.126 151.471 314.81 151.534 314.665 151.753C314.334 152.252 314.684 153.528 315.205 154.292L314.586 154.715Z" fill="#E07C68"/>
<path d="M339.627 154.715L339.008 154.292C339.53 153.527 339.879 152.252 339.548 151.753C339.403 151.535 339.088 151.471 338.611 151.569L338.461 150.835C339.463 150.629 339.944 150.996 340.173 151.337C340.765 152.228 340.198 153.879 339.627 154.715Z" fill="#E07C68"/>
<path d="M327.446 166.109H326.545C320.88 166.109 316.246 161.474 316.246 155.81V146.324C316.246 140.659 320.881 136.025 326.545 136.025H327.446C333.11 136.025 337.745 140.66 337.745 146.324V155.81C337.746 161.474 333.111 166.109 327.446 166.109Z" fill="#FFB9A9"/>
<path d="M337.46 155.019C337.291 152.871 337.066 149.936 338.937 149.594L339.472 145.969C339.873 144.321 339.24 143.258 338.578 142.981C340.93 140.618 340.432 137.015 338.156 132.639C330.313 134.127 322.351 135.607 318.792 137.389C316.38 138.812 315.77 140.683 315.396 142.982C314.258 143.187 314.168 144.851 314.269 145.628L314.712 149.596C316.879 149.453 316.97 151.867 316.843 155.021C318.296 155.021 318.055 150.537 318.055 150.537L318.046 143.881H335.688L335.946 150.558C335.946 150.558 335.859 155.019 337.46 155.019Z" fill="black"/>
<path d="M322.107 153.431C322.495 153.431 322.81 153.116 322.81 152.728C322.81 152.339 322.495 152.025 322.107 152.025C321.719 152.025 321.404 152.339 321.404 152.728C321.404 153.116 321.719 153.431 322.107 153.431Z" fill="black"/>
<path d="M332.234 153.431C332.622 153.431 332.937 153.116 332.937 152.728C332.937 152.339 332.622 152.025 332.234 152.025C331.846 152.025 331.531 152.339 331.531 152.728C331.531 153.116 331.846 153.431 332.234 153.431Z" fill="black"/>
<path d="M323.764 150.625C323.764 150.991 320.479 150.991 320.479 150.625C320.479 150.259 321.214 149.963 322.121 149.963C323.029 149.963 323.764 150.26 323.764 150.625Z" fill="black"/>
<path d="M333.855 150.623C333.855 150.986 330.594 150.986 330.594 150.623C330.594 150.26 331.324 149.965 332.225 149.965C333.125 149.965 333.855 150.26 333.855 150.623Z" fill="black"/>
<path d="M326.849 156.934C326.39 156.84 326.128 156.437 326.024 156.236C325.895 156.157 325.664 156.074 325.451 156.32L324.883 155.831C325.44 155.186 326.19 155.396 326.558 155.696L326.669 155.846C326.711 155.947 326.849 156.168 327 156.2L326.849 156.934Z" fill="black"/>
<path d="M327.507 156.933L327.357 156.199C327.508 156.168 327.646 155.946 327.689 155.844L327.799 155.696C328.168 155.396 328.917 155.186 329.474 155.831L328.906 156.32C328.697 156.077 328.465 156.155 328.333 156.236C328.228 156.437 327.966 156.839 327.507 156.933Z" fill="black"/>
<path d="M327.555 161.74H326.805V162.993H327.555V161.74Z" fill="black"/>
<path d="M324.783 157.881C324.892 159.109 325.921 160.071 327.177 160.071C328.433 160.071 329.463 159.108 329.571 157.881H324.783Z" fill="white"/>
<path d="M333.242 147.309C330.982 147.309 329.092 148.845 328.51 150.922C327.63 150.445 326.663 150.442 325.841 150.906C325.253 148.838 323.368 147.309 321.114 147.309C318.392 147.309 316.178 149.523 316.178 152.244C316.178 154.966 318.392 157.18 321.114 157.18C323.835 157.18 326.049 154.966 326.049 152.244C326.049 152.058 326.014 151.882 325.994 151.701C326.696 151.182 327.574 151.186 328.361 151.713C328.342 151.89 328.307 152.062 328.307 152.244C328.307 154.966 330.521 157.18 333.242 157.18C335.964 157.18 338.178 154.966 338.178 152.244C338.178 149.523 335.964 147.309 333.242 147.309ZM321.114 156.429C318.806 156.429 316.928 154.552 316.928 152.243C316.928 149.935 318.806 148.058 321.114 148.058C323.422 148.058 325.299 149.935 325.299 152.243C325.299 154.552 323.422 156.429 321.114 156.429ZM333.242 156.429C330.934 156.429 329.057 154.552 329.057 152.243C329.057 149.935 330.934 148.058 333.242 148.058C335.55 148.058 337.428 149.935 337.428 152.243C337.428 154.552 335.55 156.429 333.242 156.429Z" fill="white"/>
<path d="M353.688 188.009H300.982V127.873H353.688V188.009ZM301.732 187.259H352.938V128.623H301.732V187.259Z" fill="#F7E6DF"/>
<path d="M452.97 133.689H372.829C371.321 133.689 370.094 132.461 370.094 130.953C370.094 129.444 371.322 128.217 372.829 128.217H452.97C454.478 128.217 455.705 129.444 455.705 130.953C455.705 132.462 454.478 133.689 452.97 133.689ZM372.829 128.967C371.734 128.967 370.844 129.858 370.844 130.953C370.844 132.048 371.735 132.939 372.829 132.939H452.97C454.065 132.939 454.955 132.048 454.955 130.953C454.955 129.858 454.064 128.967 452.97 128.967H372.829Z" fill="#8B5991"/>
<path d="M408.773 143.743H372.831C371.323 143.743 370.096 142.517 370.096 141.008C370.096 139.499 371.324 138.271 372.831 138.271H408.773C410.282 138.271 411.509 139.5 411.509 141.008C411.509 142.517 410.282 143.743 408.773 143.743ZM372.83 139.021C371.735 139.021 370.845 139.913 370.845 141.008C370.845 142.103 371.736 142.993 372.83 142.993H408.772C409.868 142.993 410.758 142.103 410.758 141.008C410.758 139.913 409.867 139.021 408.772 139.021H372.83Z" fill="#8B5991"/>
<path d="M316.488 212.443H302.968C301.932 212.443 301.088 211.599 301.088 210.563V208.851C301.088 207.815 301.932 206.971 302.968 206.971H316.488C317.525 206.971 318.369 207.815 318.369 208.851V210.563C318.369 211.599 317.526 212.443 316.488 212.443ZM302.968 207.721C302.345 207.721 301.838 208.228 301.838 208.851V210.563C301.838 211.186 302.345 211.693 302.968 211.693H316.488C317.112 211.693 317.619 211.186 317.619 210.563V208.851C317.619 208.228 317.112 207.721 316.488 207.721H302.968Z" fill="#EA5770"/>
<path d="M316.488 225.716H302.968C301.932 225.716 301.088 224.872 301.088 223.836V222.124C301.088 221.088 301.932 220.244 302.968 220.244H316.488C317.525 220.244 318.369 221.088 318.369 222.124V223.836C318.369 224.872 317.526 225.716 316.488 225.716ZM302.968 220.994C302.345 220.994 301.838 221.501 301.838 222.124V223.836C301.838 224.459 302.345 224.966 302.968 224.966H316.488C317.112 224.966 317.619 224.459 317.619 223.836V222.124C317.619 221.501 317.112 220.994 316.488 220.994H302.968Z" fill="#EA5770"/>
<path d="M316.488 238.988H302.968C301.932 238.988 301.088 238.144 301.088 237.108V235.397C301.088 234.36 301.932 233.516 302.968 233.516H316.488C317.525 233.516 318.369 234.36 318.369 235.397V237.108C318.369 238.144 317.526 238.988 316.488 238.988ZM302.968 234.266C302.345 234.266 301.838 234.773 301.838 235.397V237.108C301.838 237.731 302.345 238.238 302.968 238.238H316.488C317.112 238.238 317.619 237.731 317.619 237.108V235.397C317.619 234.773 317.112 234.266 316.488 234.266H302.968Z" fill="#EA5770"/>
<path d="M454.915 157.564H394.342V158.314H454.915V157.564Z" fill="black"/>
<path d="M386.715 157.564H370.689V158.314H386.715V157.564Z" fill="black"/>
<path d="M454.915 167.527H439.189V168.277H454.915V167.527Z" fill="black"/>
<path d="M429.237 167.527H370.689V168.277H429.237V167.527Z" fill="black"/>
<path d="M454.915 177.494H416.701V178.244H454.915V177.494Z" fill="black"/>
<path d="M411.354 177.494H396.797V178.244H411.354V177.494Z" fill="black"/>
<path d="M391.021 177.494H370.689V178.244H391.021V177.494Z" fill="black"/>
<path d="M454.915 187.459H425.877V188.209H454.915V187.459Z" fill="black"/>
<path d="M414.116 187.459H370.689V188.209H414.116V187.459Z" fill="black"/>
<path d="M452.826 211.693H427.299V212.443H452.826V211.693Z" fill="black"/>
<path d="M416.701 211.693H378.344V212.443H416.701V211.693Z" fill="black"/>
<path d="M361.967 211.693H325.129V212.443H361.967V211.693Z" fill="black"/>
<path d="M452.827 224.967H408.107V225.717H452.827V224.967Z" fill="black"/>
<path d="M401.904 224.967H351.807V225.717H401.904V224.967Z" fill="black"/>
<path d="M343.548 224.967H325.129V225.717H343.548V224.967Z" fill="black"/>
<path d="M452.826 238.238H439.189V238.988H452.826V238.238Z" fill="black"/>
<path d="M429.237 238.238H393.566V238.988H429.237V238.238Z" fill="black"/>
<path d="M385.425 238.238H325.129V238.988H385.425V238.238Z" fill="black"/>
<path d="M413.923 303.984H300.59V304.734H413.923V303.984Z" fill="black"/>
<path d="M340.963 260.498H304.048C302.416 260.498 301.088 259.17 301.088 257.538C301.088 255.906 302.416 254.578 304.048 254.578H340.963C342.595 254.578 343.923 255.906 343.923 257.538C343.923 259.17 342.595 260.498 340.963 260.498ZM304.048 255.328C302.829 255.328 301.838 256.319 301.838 257.538C301.838 258.757 302.829 259.748 304.048 259.748H340.963C342.182 259.748 343.173 258.757 343.173 257.538C343.173 256.319 342.182 255.328 340.963 255.328H304.048Z" fill="#8B5991"/>
<path d="M420.358 260.498H354.392C352.76 260.498 351.432 259.17 351.432 257.538C351.432 255.906 352.76 254.578 354.392 254.578H420.358C421.99 254.578 423.318 255.906 423.318 257.538C423.318 259.17 421.989 260.498 420.358 260.498ZM354.392 255.328C353.173 255.328 352.182 256.319 352.182 257.538C352.182 258.757 353.173 259.748 354.392 259.748H420.358C421.577 259.748 422.568 258.757 422.568 257.538C422.568 256.319 421.577 255.328 420.358 255.328H354.392Z" fill="#8B5991"/>
<path d="M455.553 291.613H301.137V292.363H455.553V291.613Z" fill="black"/>
<path d="M412.75 89.3302H342.984C341.268 89.3302 339.873 87.9342 339.873 86.2192V77.6032C339.873 75.8872 341.269 74.4922 342.984 74.4922H412.75C414.466 74.4922 415.861 75.8872 415.861 77.6032V86.2192C415.861 87.9342 414.466 89.3302 412.75 89.3302ZM342.985 75.2412C341.683 75.2412 340.624 76.3002 340.624 77.6022V86.2182C340.624 87.5202 341.684 88.5792 342.985 88.5792H412.751C414.053 88.5792 415.112 87.5202 415.112 86.2182V77.6022C415.112 76.3002 414.052 75.2412 412.751 75.2412H342.985Z" fill="#E2CFC7"/>
<path d="M630.292 344.802H360.297C356.644 344.802 353.682 341.841 353.682 338.188V168.241C353.682 164.588 356.643 161.627 360.297 161.627H630.292C633.945 161.627 636.906 164.588 636.906 168.241V338.187C636.907 341.841 633.945 344.802 630.292 344.802Z" fill="black"/>
<path d="M625.334 171.582H365.256V334.846H625.334V171.582Z" fill="white"/>
<path d="M625.334 171.582H365.256V334.846H625.334V171.582Z" fill="#EFE1DC"/>
<path d="M625.334 171.582H365.256V177.155H625.334V171.582Z" fill="white"/>
<path d="M321.871 344.943C322.059 350.212 326.415 354.466 331.728 354.466H658.861C664.174 354.466 668.53 350.211 668.718 344.943H321.871Z" fill="black"/>
<path d="M630.292 344.426H360.297V345.176H630.292V344.426Z" fill="#8B5991"/>
<path d="M495.295 168.715C493.898 168.715 492.76 167.577 492.76 166.179C492.76 164.781 493.898 163.643 495.295 163.643C496.693 163.643 497.831 164.781 497.831 166.179C497.831 167.577 496.694 168.715 495.295 168.715ZM495.295 164.393C494.311 164.393 493.51 165.194 493.51 166.179C493.51 167.164 494.311 167.965 495.295 167.965C496.28 167.965 497.081 167.164 497.081 166.179C497.081 165.194 496.281 164.393 495.295 164.393Z" fill="#8B5991"/>
<path d="M370.183 174.21C370.183 174.867 369.651 175.399 368.994 175.399C368.337 175.399 367.805 174.867 367.805 174.21C367.805 173.553 368.337 173.021 368.994 173.021C369.65 173.021 370.183 173.553 370.183 174.21Z" fill="#FFB43B"/>
<path d="M373.668 175.399C374.325 175.399 374.857 174.866 374.857 174.21C374.857 173.553 374.325 173.021 373.668 173.021C373.011 173.021 372.479 173.553 372.479 174.21C372.479 174.866 373.011 175.399 373.668 175.399Z" fill="#FFB43B"/>
<path d="M378.343 175.399C379 175.399 379.532 174.866 379.532 174.21C379.532 173.553 379 173.021 378.343 173.021C377.686 173.021 377.154 173.553 377.154 174.21C377.154 174.866 377.686 175.399 378.343 175.399Z" fill="#FFB43B"/>
<path d="M472.51 269.789H522.43V199.59H472.51V269.789Z" fill="#FFB9A9"/>
<path d="M522.43 230.979C488.09 244.053 472.51 232.669 472.51 232.669V199.59H522.43V230.979Z" fill="#F28E81"/>
<path d="M625.333 292.549C622.732 285.408 621.064 280.908 620.814 280.386C615.322 268.936 603.562 261.537 590.857 261.537C572.544 261.537 557.646 276.415 557.646 294.703C557.646 297.083 557.898 299.435 558.398 301.736L558.102 301.81L559.771 306.392L569.648 334.846H625.333V292.549Z" fill="#FFB9A9"/>
<path d="M437.209 294.705C437.209 276.417 422.312 261.539 403.999 261.539C391.294 261.539 379.534 268.938 374.043 280.388C373.675 281.156 370.232 290.544 365.256 304.319V334.848H425.208L435.084 306.394L436.755 301.812L436.458 301.738C436.957 299.437 437.209 297.085 437.209 294.705Z" fill="#FFB9A9"/>
<path d="M625.333 290.953C622.557 284.16 620.735 279.724 620.547 279.333C615.055 267.883 601.482 257.895 587.872 255.668C569.56 255.668 557.646 276.418 557.646 294.705C557.646 297.085 557.898 299.437 558.398 301.738L558.102 301.812L559.771 306.394L569.648 334.848H625.333L625.333 290.953Z" fill="white"/>
<path d="M437.21 294.705C437.21 276.417 425.296 255.668 406.984 255.668C393.374 257.895 379.802 267.883 374.311 279.333C374.038 279.9 370.332 288.958 365.256 301.411V334.848H425.209L435.085 306.394L436.754 301.812L436.458 301.738C436.958 299.437 437.21 297.085 437.21 294.705Z" fill="white"/>
<path d="M619.118 334.847H375.941L374.062 292.298C374.062 292.298 369.96 265.462 404.893 256.176L406.469 255.816V255.804L472.349 243.186C484.906 254.542 509.646 254.17 522.429 243.186L588.589 255.804V255.816L590.165 256.176C625.099 265.462 620.996 292.298 620.996 292.298L619.118 334.847Z" fill="white"/>
<path d="M491.804 227.99L493.974 228.073C517.724 230.754 538.877 217.706 541.627 193.339L544.502 167.871C547.252 143.505 530.07 121.375 506.32 118.695L504.168 118.452C480.418 115.771 458.736 133.514 455.985 157.88L453.11 183.348C450.361 207.714 468.054 225.309 491.804 227.99Z" fill="black"/>
<path d="M473.617 183.28C472.852 190.055 467.566 195.021 461.705 194.359C450.711 198.196 442.652 163.686 458.713 164.634C464.574 165.296 474.382 176.505 473.617 183.28Z" fill="#ED968A"/>
<path d="M486.938 234.374C507.796 236.728 531.847 222.184 534.198 201.354L538.184 166.036C539.83 151.453 529.229 138.173 514.626 136.524L494.968 134.305C478.668 132.465 465.895 125.96 464.058 142.239L458.352 192.793C456.002 213.623 468.09 232.247 486.938 234.374Z" fill="#FFB9A9"/>
<path d="M520.43 188.565C519.665 195.34 524.447 201.442 531.232 202.208C542.737 208.584 560.146 176.949 541.762 174.009C534.977 173.244 521.195 181.79 520.43 188.565Z" fill="#FFB9A9"/>
<path d="M534.484 195.693C534.357 195.693 534.228 195.691 534.098 195.686L534.137 194.686C541.182 194.97 544.064 186.718 544.305 183.685C544.411 182.333 543.856 181.14 542.78 180.411C541.415 179.485 539.457 179.496 537.549 180.439L537.106 179.543C539.341 178.438 541.672 178.453 543.341 179.584C544.703 180.507 545.437 182.07 545.302 183.764C545.045 186.999 542.004 195.693 534.484 195.693Z" fill="#EA8C73"/>
<path d="M541.167 191.878C541.076 191.762 538.929 189.065 535.268 190.547L534.893 189.619C539.278 187.849 541.934 191.234 541.959 191.268L541.167 191.878Z" fill="#EA8C73"/>
<path d="M461.539 164.57C461.539 164.57 459.609 163.157 455.371 164.293L454.853 151.38C454.041 145.443 456.769 141.983 459.299 141.286C459.299 141.286 456.37 139.907 453.855 131.96C451.341 124.013 458.884 102.996 458.884 102.996C490.623 110.912 522.714 118.774 533.724 129.857C541.964 135.833 543.451 142.634 543.909 150.837C547.983 152.024 551.016 156.583 549.84 160.888L545.272 175.111C536.955 173.469 532.343 178.28 531.062 192.075C524.063 191.285 527.289 175.75 527.289 175.75L529.952 152.45L464.293 145.039L461.539 164.57Z" fill="black"/>
<path d="M508.116 182.934C507.955 184.364 508.984 185.654 510.416 185.815C511.848 185.977 513.139 184.948 513.301 183.519C513.462 182.089 512.433 180.799 511.001 180.638C509.569 180.477 508.278 181.504 508.116 182.934Z" fill="black"/>
<path d="M470.753 178.717C470.592 180.147 471.621 181.437 473.053 181.598C474.485 181.76 475.776 180.732 475.938 179.302C476.099 177.872 475.07 176.582 473.638 176.421C472.205 176.26 470.914 177.288 470.753 178.717Z" fill="black"/>
<path d="M505.468 174.788C505.316 176.136 517.435 177.504 517.587 176.156C517.739 174.808 515.149 173.409 511.803 173.032C508.457 172.654 505.621 173.44 505.468 174.788Z" fill="black"/>
<path d="M468.248 170.582C468.097 171.92 480.127 173.278 480.278 171.94C480.429 170.602 477.858 169.214 474.536 168.839C471.215 168.463 468.399 169.244 468.248 170.582Z" fill="black"/>
<path d="M491.387 195.859L491.297 194.863C492.516 194.753 493.363 193.252 493.371 193.237L493.432 193.123L493.54 193.054C494.563 192.398 496.906 191.753 498.444 194.001L497.618 194.565C496.389 192.767 494.61 193.596 494.176 193.839C493.906 194.282 492.912 195.72 491.387 195.859Z" fill="#EA8C73"/>
<path d="M489.309 195.625C487.853 195.15 487.205 193.525 487.039 193.034C486.642 192.674 485.118 191.497 483.522 192.974L482.842 192.24C484.843 190.389 486.981 191.543 487.833 192.41L487.923 192.501L487.958 192.625C487.963 192.642 488.443 194.292 489.618 194.674L489.309 195.625Z" fill="#EA8C73"/>
<path d="M487.777 214.271L487.26 218.886L488.253 218.998L488.77 214.382L487.777 214.271Z" fill="#EA8C73"/>
<path d="M498.688 201.094C497.776 205.571 493.577 208.69 488.944 208.167C484.311 207.644 480.913 203.668 481.022 199.1L498.688 201.094Z" fill="black"/>
<path d="M516.51 164.68C508.182 163.74 500.553 168.897 498.092 176.58C495.125 173.769 490.929 173.31 487.07 175.379C486.402 167.322 480.108 160.571 471.767 159.629C467.18 159.11 462.654 160.41 459.039 163.286C455.425 166.163 453.149 170.274 452.632 174.861C452.115 179.448 453.416 183.963 456.298 187.573C459.18 191.182 463.297 193.457 467.89 193.975C468.551 194.049 469.211 194.086 469.868 194.086C473.766 194.086 477.524 192.779 480.617 190.316C484.231 187.439 486.508 183.329 487.025 178.741C487.121 177.889 487.132 177.049 487.104 176.216C490.938 173.996 495.013 174.449 497.867 177.413C497.651 178.224 497.473 179.052 497.376 179.91C496.308 189.379 503.153 197.955 512.635 199.025C513.292 199.099 513.945 199.135 514.591 199.135C523.27 199.135 530.774 192.605 531.77 183.791C532.837 174.325 525.991 165.751 516.51 164.68ZM486.279 178.66C485.784 183.048 483.607 186.98 480.15 189.733C476.693 192.485 472.377 193.733 467.974 193.231C463.579 192.735 459.642 190.56 456.884 187.106C454.127 183.653 452.882 179.334 453.378 174.946C453.873 170.558 456.049 166.626 459.507 163.874C462.466 161.518 466.061 160.268 469.791 160.268C470.418 160.268 471.05 160.304 471.683 160.375C480.753 161.399 487.301 169.602 486.279 178.66ZM531.023 183.711C530 192.771 521.786 199.311 512.718 198.282C503.647 197.259 497.099 189.055 498.121 179.997C499.142 170.939 507.354 164.401 516.426 165.425C525.497 166.449 532.045 174.652 531.023 183.711Z" fill="black"/>
<path d="M593.294 288.965L588.258 334.798L589.005 334.88L594.04 289.047L593.294 288.965Z" fill="#F7E5DC"/>
<path d="M401.484 288.951L400.738 289.034L405.814 334.863L406.561 334.78L401.484 288.951Z" fill="#F7E5DC"/>
<path d="M496.878 258.404C483.664 258.404 471.024 253.766 461.783 245.439L462.285 244.882C472.135 253.757 485.927 258.389 500.095 257.561C512.385 256.851 523.288 252.068 530.01 244.436L530.573 244.932C523.72 252.712 512.628 257.588 500.138 258.31C499.049 258.373 497.961 258.404 496.878 258.404Z" fill="#F7E5DC"/>
<path d="M502.506 322.422C509.22 319.641 512.408 311.945 509.627 305.232C506.846 298.519 499.15 295.332 492.437 298.112C485.723 300.893 482.535 308.59 485.316 315.302C488.096 322.015 495.793 325.203 502.506 322.422Z" fill="#00C5FF"/>
<path d="M499.48 305.268H490.7C489.985 305.268 489.4 305.962 489.4 306.81V313.726C489.4 314.574 489.985 315.268 490.7 315.268H499.48C500.195 315.268 500.779 314.574 500.779 313.726V306.81C500.779 305.962 500.194 305.268 499.48 305.268Z" fill="white"/>
<path d="M504.136 306.778L502.505 308.409C502.313 308.601 502.205 308.862 502.205 309.134V311.401C502.205 311.673 502.313 311.934 502.506 312.127L504.136 313.757C504.781 314.402 505.883 313.945 505.883 313.033V307.502C505.884 306.59 504.781 306.133 504.136 306.778Z" fill="white"/>
<path d="M454.781 322.423C461.495 319.642 464.683 311.946 461.902 305.233C459.122 298.52 451.425 295.332 444.712 298.113C437.998 300.894 434.81 308.59 437.591 315.303C440.371 322.016 448.068 325.203 454.781 322.423Z" fill="#00C5FF"/>
<path d="M454.715 310.652H453.685C453.685 312.833 451.911 314.607 449.73 314.607C447.55 314.607 445.776 312.833 445.776 310.652H444.746C444.746 313.224 446.711 315.323 449.215 315.584V316.976H447.167V318.006H452.294V316.976H450.246V315.584C452.749 315.322 454.715 313.224 454.715 310.652Z" fill="white"/>
<path d="M449.762 313.685C448.009 313.685 446.574 312.251 446.574 310.497V304.934C446.574 303.181 448.008 301.746 449.762 301.746C451.515 301.746 452.95 303.18 452.95 304.934V310.497C452.95 312.251 451.515 313.685 449.762 313.685Z" fill="white"/>
<path d="M554.474 319.572C559.612 314.434 559.612 306.104 554.474 300.967C549.336 295.829 541.007 295.829 535.869 300.967C530.731 306.104 530.731 314.434 535.869 319.572C541.007 324.71 549.336 324.71 554.474 319.572Z" fill="#EA5770"/>
<path d="M542.87 303.111L543.399 307.977L541.516 308.633C542.308 311.097 543.965 312.883 546.466 314.007L547.376 312.145L552.263 313.012C552.263 313.012 552.096 316.86 549.365 317.497C545.726 317.984 542.68 315.614 541.114 313.647C539.549 311.68 537.01 307.406 538.47 304.825C539.7 303.068 542.87 303.111 542.87 303.111Z" fill="white"/>
<path d="M259.262 215.314C259.262 215.314 254.763 216.622 254.658 220.232C254.553 223.842 258.215 225.463 260.151 226.143C262.087 226.823 264.284 216.151 259.262 215.314Z" fill="#FFB9A9"/>
<path d="M307.706 228.708C307.706 228.708 303.416 216.833 307.13 211.915C310.844 206.997 314.402 207.834 315.5 208.828L316.599 216.152C316.599 216.152 320.209 222.587 320.313 223.528C320.418 224.47 323.199 240.328 323.199 240.328C323.199 240.328 324.665 270.939 325.084 274.548C325.503 278.158 325.084 313.963 325.084 313.963L286.958 322.453L292.011 290.507C292.011 290.507 276.387 278.091 274.991 268.745L259.925 264.351C255.443 262.869 254.92 256.8 259.925 254.934C252.88 255.021 253.351 246.546 259.297 244.123C252.776 243.46 252.409 234.41 260.413 232.195L307.706 228.708Z" fill="#FFB9A9"/>
<path d="M304.385 263.962H261.995L257.66 196.654H308.72L304.385 263.962Z" fill="white"/>
<path d="M306.481 241.711L308.333 212.09H258.047L259.899 241.711H306.481Z" fill="#00C5FF"/>
<path d="M257.106 191.23L256.109 196.654H310.269L309.272 191.23H257.106Z" fill="black"/>
<path d="M304.03 184.764H301.5H271.191H262.2L260.82 192.273H271.175H301.487H305.41L304.03 184.764Z" fill="black"/>
<path d="M305.221 190.855H261.014V191.605H305.221V190.855Z" fill="#8B5991"/>
<path d="M289.564 237.81C283.548 237.81 278.654 232.917 278.654 226.901C278.654 220.885 283.549 215.992 289.564 215.992C295.58 215.992 300.473 220.885 300.473 226.901C300.473 232.917 295.579 237.81 289.564 237.81ZM289.564 216.742C283.961 216.742 279.404 221.3 279.404 226.901C279.404 232.503 283.962 237.06 289.564 237.06C295.166 237.06 299.723 232.502 299.723 226.901C299.723 221.299 295.165 216.742 289.564 216.742Z" fill="#62A851"/>
<path d="M308.357 196.623L307.35 212.058L308.099 212.107L309.105 196.672L308.357 196.623Z" fill="black"/>
<path d="M315.407 228.866C317.242 228.754 319.065 228.549 320.88 228.277C320.583 225.812 320.348 223.843 320.313 223.528C320.209 222.586 316.599 216.152 316.599 216.152L315.501 208.828C314.402 207.834 310.845 206.997 307.131 211.915C303.62 216.562 307.254 227.41 307.665 228.589C310.158 229.254 312.852 229.022 315.407 228.866Z" fill="#FFB9A9"/>
<path d="M311.437 229.856C309.235 229.856 307.593 229.203 307.518 229.172L307.893 228.244C307.912 228.251 309.759 228.982 312.067 228.836L312.132 229.834C311.895 229.849 311.662 229.856 311.437 229.856Z" fill="#EA8C73"/>
<path d="M307.283 246.605L306.502 247.229L310.408 252.115L311.189 251.49L307.283 246.605Z" fill="#EA8C73"/>
<path d="M313.849 219.445C311.975 219.445 311.091 216.502 310.53 213.923C309.858 210.841 315.073 208.472 315.296 208.373L315.704 209.285C314.396 209.871 311.093 211.807 311.507 213.71C312.418 217.893 313.412 218.445 313.889 218.444C314.708 218.403 315.707 216.888 316.145 215.943L317.053 216.363C316.911 216.669 315.622 219.36 313.938 219.442C313.907 219.444 313.878 219.445 313.849 219.445Z" fill="#EA8C73"/>
<path d="M302.664 276.655C297.05 273.793 298.669 265.972 298.741 265.641L299.719 265.852C299.702 265.925 298.193 273.252 303.119 275.764L302.664 276.655Z" fill="#EA8C73"/>
<path d="M275.371 269.069L274.609 268.421C274.673 268.346 276.214 266.552 278.123 266.047L278.379 267.014C276.771 267.439 275.385 269.052 275.371 269.069Z" fill="#EA8C73"/>
<path d="M277.063 273.619L276.18 273.148C276.29 272.941 278.926 268.062 282.491 266.441L282.905 267.351C279.646 268.834 277.088 273.571 277.063 273.619Z" fill="#EA8C73"/>
<path d="M260.651 243.436L259.242 243.616L259.369 244.608L260.778 244.427L260.651 243.436Z" fill="#EA8C73"/>
<path d="M261.274 254.086L259.809 254.436L260.041 255.409L261.507 255.059L261.274 254.086Z" fill="#EA8C73"/>
<path d="M183.667 145.717L186.533 225.492C161.295 242.362 114.822 242.874 90.5098 225.492L98.3358 138.973L183.667 145.717Z" fill="#FFB9A9"/>
<path d="M202.988 135.244C202.775 135.244 202.561 135.238 202.347 135.224C194.343 134.734 188.391 125.196 189.077 113.963C189.765 102.73 196.838 93.9868 204.839 94.4788C208.75 94.7178 212.284 97.0848 214.789 101.143C217.261 105.146 218.439 110.33 218.108 115.741C217.44 126.672 210.725 135.244 202.988 135.244ZM190.075 114.025C189.422 124.708 194.954 133.771 202.407 134.227C209.845 134.675 216.456 126.363 217.11 115.679C217.428 110.473 216.302 105.497 213.938 101.668C211.608 97.8948 208.355 95.6958 204.778 95.4768C197.335 95.0318 190.729 103.341 190.075 114.025Z" fill="black"/>
<path d="M104.389 60.252L212.322 70.743C212.322 70.743 206.302 132.351 202.899 161.296C199.496 190.241 181.841 193.009 181.841 193.009C159.994 201.479 101.235 195.493 96.1836 160.687L104.389 60.252Z" fill="#FFB9A9"/>
<path d="M170.651 128C167.756 120.886 167.934 114.915 171.126 112.028C173.116 110.228 176.022 110.063 178.9 111.586L178.433 112.47C175.902 111.133 173.484 111.243 171.796 112.77C169.583 114.772 168.363 119.725 171.576 127.624L170.651 128Z" fill="#EA8C73"/>
<path d="M176.483 129.908L175.587 129.465C176.635 127.347 176.768 125.602 175.982 124.276C174.344 121.513 169.253 121.272 169.201 121.27L169.241 120.271C169.473 120.28 174.925 120.535 176.842 123.764C177.811 125.399 177.691 127.466 176.483 129.908Z" fill="#EA8C73"/>
<path d="M100.936 58.8308C97.9126 38.1738 109.861 28.9928 123.462 28.9158C123.462 28.9158 197.424 20.5438 206.85 21.8198C220.823 23.7118 230.616 36.5748 228.724 50.5488C227.588 58.9378 222.497 65.8168 215.587 69.5688C213.752 70.6998 212.458 71.1638 212.458 71.1638C210.904 71.6618 209.357 72.0238 207.809 72.2808C207.497 72.3348 207.183 72.3798 206.868 72.4218C206.735 72.4398 206.601 72.4618 206.468 72.4788C206.427 72.4838 206.386 72.4878 206.344 72.4918C204.433 72.7278 202.514 72.8148 200.567 72.7928L193.069 128.171C192.186 134.694 191.551 139.923 184.46 138.963L184.362 120.092C184.689 116.436 184.701 110.408 181.635 107.854C177.625 104.514 169.692 105.217 166.902 109.677C160.614 118.986 170.319 138.312 170.319 138.312C170.319 138.312 159.313 161.265 147.918 168.294C130.218 176.634 104.894 174.251 96.2466 162.053C91.2136 115.989 80.7486 72.1148 100.936 58.8308Z" fill="black"/>
<path d="M184.494 111.762L184.426 112.759L218.208 115.055L218.276 114.057L184.494 111.762Z" fill="black"/>
<path d="M200.559 73.1702C200.41 73.1672 185.439 72.8532 170.74 71.3632L170.816 70.6172C185.483 72.1032 200.425 72.4172 200.575 72.4202L200.559 73.1702Z" fill="#8B5991"/>
<path d="M195.231 66.7182C193.184 66.7182 191.032 66.6062 188.771 66.3812L188.845 65.6352C200.764 66.8192 209.652 64.8442 215.252 59.7602C221.087 54.4642 221.138 47.5622 221.138 47.4922L221.888 47.4902C221.889 47.7852 221.847 54.7782 215.769 60.3042C211.076 64.5702 204.185 66.7182 195.231 66.7182Z" fill="#8B5991"/>
<path d="M193.327 126.268C193.238 129.337 194.373 133.816 198.562 134.327C202.078 134.905 203.592 132.113 206.154 133.047C210.381 153.098 205.16 193.297 185.047 191.952L184.459 138.966L193.327 126.268Z" fill="black"/>
<path d="M324.288 309.965L325.337 288.216L270.285 286.018L269.943 306.953L324.288 309.965Z" fill="white"/>
<path d="M324.958 429.695L326.128 307.363L263.848 301.023L251.365 429.695H324.958Z" fill="#00C5FF"/>
<path d="M273.582 429.694L282.89 296.319C282.89 296.319 286.856 253.32 249.076 242.563L186.532 225.491C146.862 226.193 102.848 224.553 87.931 225.491L27.556 246.367C11.745 252.317 3.193 262.84 0 278.904V320.197L8.491 429.694H273.582Z" fill="black"/>
<path d="M273.582 429.694L282.89 296.319C282.89 296.319 286.856 253.32 249.076 242.563L186.532 225.491C146.862 226.193 102.848 224.553 87.931 225.491L27.556 246.367C11.745 252.317 3.193 262.84 0 278.904V320.197L8.491 429.694H273.582Z" fill="#00C5FF"/>
<path d="M91.914 204.383H186.817L192.312 226.961H82.373L91.914 204.383Z" fill="white"/>
<path d="M192.806 308.714L235.386 429.695H322.795C313.655 392.637 285.274 277.581 284.765 275.717C284.32 274.086 283.782 272.483 283.158 270.915L283.134 270.819L283.122 270.825C277.955 257.93 266.822 247.442 251.844 243.239C225.972 235.978 198.464 250.201 190.403 275.007C186.613 286.67 187.799 298.595 192.806 308.713V308.714Z" fill="#00C5FF"/>
<path d="M241.667 428.381L195.643 317.927C190.132 297.57 191.483 280.705 199.641 267.758C210.902 249.888 231.504 245.911 231.71 245.873L231.847 246.611C231.643 246.648 211.351 250.574 200.271 268.165C192.234 280.928 190.915 297.588 196.351 317.685L242.359 428.092L241.667 428.381Z" fill="#8B5991"/>
<path d="M285.798 278.264L285.07 278.444L316.145 404.246L316.873 404.066L285.798 278.264Z" fill="#8B5991"/>
<path d="M238.129 429.696L218.273 301.625C218.273 289.716 208.531 279.973 196.624 279.973H5.128C3.362 279.973 1.646 280.192 0 280.596V408.185L0.043 429.696H238.129Z" fill="#9B5670"/>
<path d="M213.821 428.82C210.979 412.573 208.6 396.034 206.3 380.039C202.21 351.608 197.982 322.211 190.955 292.823C189.218 285.876 182.431 281.211 172.799 280.346L172.865 279.6C182.83 280.493 189.864 285.37 191.683 292.645C198.718 322.07 202.95 351.485 207.041 379.931C209.341 395.921 211.72 412.455 214.559 428.691L213.821 428.82Z" fill="#843A5C"/>
</svg>
