<svg width="150" height="20" viewBox="0 0 150 20" fill="none" xmlns="http://www.w3.org/2000/svg">
<path fill-rule="evenodd" clip-rule="evenodd" d="M32.6869 3.11754C27.8079 3.11754 24.7386 6.74004 24.7386 11.8043C24.7386 16.6865 28.1288 19.971 32.6869 19.971C36.72 19.971 39.8739 17.5163 40.3121 13.2485H35.4932C35.2579 14.9382 34.3809 15.9802 32.6574 15.9802C30.553 15.9802 29.7066 13.8635 29.7066 11.8043C29.7066 9.59632 30.1448 7.10774 32.9205 7.10774C34.1757 7.10774 35.3158 8.06326 35.3469 9.41248H40.1647C39.8166 5.20577 36.457 3.11754 32.6869 3.11754ZM85.9216 3.11693C83.7713 3.11693 82.2593 4.1553 81.355 5.82625H81.2938V3.57836H76.4754V19.5114H81.4412V11.2382C81.4412 8.91234 82.3953 7.41193 84.1284 7.41254C86.7057 7.41254 86.6133 9.62475 86.6133 11.8031V19.5114H91.5807V9.28669C91.5807 6.98376 90.9769 3.11693 85.9216 3.11693ZM100.42 3.11693C98.6951 3.11693 96.9427 3.42536 95.598 4.22485C94.2543 5.05095 93.3189 6.40319 93.2322 8.49022H97.8782C98.1123 7.13979 98.9882 6.49693 100.361 6.49693C101.385 6.49693 102.757 6.95292 102.757 8.15034C102.757 9.1361 102.289 9.44029 101.442 9.62596C97.995 10.3607 92.6188 9.96341 92.6188 15.1492C92.6188 18.4361 94.8978 19.9698 97.788 19.9698C99.6022 19.9698 101.503 19.4176 102.787 18.0067C102.846 18.5286 102.903 19.0179 103.078 19.5114H108.076C107.492 18.2529 107.492 16.7778 107.492 15.4262V8.45696C107.492 3.94727 104.012 3.11693 100.42 3.11693H100.42ZM102.699 12.0504C102.816 15.3367 102.025 16.7464 99.66 16.7464C98.5494 16.7464 97.5862 16.2233 97.5862 14.9376C97.5862 13.6766 98.5222 13.185 99.6317 12.9098C100.715 12.6032 101.999 12.5131 102.699 12.051L102.699 12.0504ZM109.114 0.0272142V19.5126H114.08V0.0266094L109.114 0.0272142ZM125.903 0.0272142V5.2989H125.841C124.82 3.85595 123.388 3.11874 121.518 3.11874C117.222 3.11874 115.12 7.04787 115.12 11.1917C115.12 15.6736 117.136 19.971 121.898 19.971C123.651 19.971 125.112 19.1733 126.077 17.6687H126.133V19.512H130.869V0.0272142H125.903ZM123.125 7.10895C125.287 7.10895 126.077 9.22863 126.077 11.5297C126.077 13.5545 125.551 15.9802 123.125 15.9802C120.846 15.9802 120.088 13.5551 120.088 11.3761C120.088 9.3514 120.846 7.10895 123.125 7.10895ZM131.905 0.0272142V5.29769H134.23L136.551 0.0272142H131.905ZM41.3507 0.0272142V19.5126H49.3252C54.9604 19.5126 58.4147 16.0733 58.4147 9.69006C58.4147 3.65638 55.0115 0.0272142 49.3252 0.0272142H41.3507ZM46.6436 4.54477H48.875C51.7613 4.54477 53.055 6.57192 53.055 9.67494C53.055 13.0882 52.0118 14.9968 48.875 14.9968H46.6436V4.54477ZM3.83131 0L0 19.512H5.47031L6.88026 11.7632C7.0311 10.907 7.15946 10.0465 7.26521 9.18267H7.3202C7.40637 9.72211 7.62917 10.7901 7.85311 11.7015L9.84077 19.512H15.2776L17.2619 11.7015C17.4881 10.7901 17.7098 9.72211 17.7948 9.18267H17.8532C17.9014 9.59693 18.0539 10.7653 18.237 11.7632L19.647 19.512H25.1161L21.2854 0H15.488L13.1652 9.80013C12.9708 10.5597 12.731 11.7898 12.5858 12.4314H12.5314C12.384 11.7898 12.1459 10.5597 11.952 9.80013L9.62817 0L3.83131 0ZM67.4306 3.11754C62.5346 3.11754 59.4505 6.7721 59.4505 11.5588C59.4505 16.3466 62.5335 20 67.4295 20C72.3261 20 75.4073 16.3473 75.4073 11.5588C75.4073 6.7721 72.3266 3.11754 67.4306 3.11754ZM67.4295 7.10774C69.5765 7.10774 70.4382 9.0085 70.4382 11.5588C70.4382 14.1115 69.577 16.0098 67.4301 16.0098C65.2814 16.0098 64.4197 14.1115 64.4197 11.5588C64.4197 9.00789 65.2808 7.10774 67.4295 7.10774ZM142.459 3.11572C139.519 3.11572 135.496 4.15893 135.496 7.99734C135.496 12.2954 139.49 12.3855 142.575 13.2152C143.439 13.4317 144.969 13.6754 144.968 14.9043C144.968 16.1646 143.612 16.594 142.661 16.594C141.968 16.594 141.371 16.4095 140.91 16.0406C140.42 15.6403 140.104 15.0555 140.104 14.2596H135.365C135.51 18.7131 139.143 19.9698 142.691 19.9698C146.065 19.9698 150 18.557 150 14.2911C150 12.9709 149.223 10.6371 146.195 9.99063C143.945 9.47174 140.529 9.19597 140.529 7.69133C140.529 6.58462 141.827 6.4927 142.633 6.4927C143.239 6.4927 143.721 6.61607 144.125 6.89184C144.529 7.16882 144.76 7.59759 144.76 8.27311H149.352C149.18 4.1293 145.747 3.11572 142.459 3.11572Z" fill="black"/>
</svg>
