<?xml version="1.0" encoding="UTF-8"?>
<svg version="1.1" xmlns="http://www.w3.org/2000/svg" width="224" height="224">
<path d="M0 0 C73.92 0 147.84 0 224 0 C224 73.92 224 147.84 224 224 C150.08 224 76.16 224 0 224 C0 150.08 0 76.16 0 0 Z " fill="#FEFEFE" transform="translate(0,0)"/>
<path d="M0 0 C23.43 0 46.86 0 71 0 C71 0.33 71 0.66 71 1 C72.57587891 1.03867188 72.57587891 1.03867188 74.18359375 1.078125 C90.34783309 1.65748152 90.34783309 1.65748152 96 6 C97.85554068 9.03682654 98.25542763 11.33956835 98.2746582 14.87280273 C98.28419022 15.837379 98.29372223 16.80195526 98.30354309 17.79576111 C98.30263168 18.83124588 98.30172028 19.86673065 98.30078125 20.93359375 C98.30506638 22.00368179 98.3093515 23.07376984 98.31376648 24.17628479 C98.31950671 26.4382354 98.32001231 28.70020447 98.31567383 30.9621582 C98.31251502 34.42105636 98.33597366 37.87909828 98.36132812 41.33789062 C98.36360126 43.53645725 98.36430455 45.73502618 98.36328125 47.93359375 C98.372491 48.96705429 98.38170074 50.00051483 98.39118958 51.06529236 C98.33318192 60.07758143 98.33318192 60.07758143 95 64 C88.30503093 68.80664446 81.99808287 68.08693568 74 68 C74 72.29 74 76.58 74 81 C61.23377189 81.73315622 51.23571741 81.97834623 39.99609375 75.43359375 C37.16944535 73.79604876 37.16944535 73.79604876 34.44921875 74.09375 C31.57613706 75.15683605 29.05010894 76.56966216 26.375 78.0625 C19 81 19 81 0 81 C0 54.27 0 27.54 0 0 Z " fill="#FCFAF6" transform="translate(40,71)"/>
<path d="M0 0 C1.08539063 -0.020625 2.17078125 -0.04125 3.2890625 -0.0625 C13.67471958 -0.11328561 13.67471958 -0.11328561 18.25 3.25 C20.139594 6.26562111 20.5054551 8.594616 20.5246582 12.12280273 C20.53895622 13.56966713 20.53895622 13.56966713 20.55354309 15.04576111 C20.55263168 16.08124588 20.55172028 17.11673065 20.55078125 18.18359375 C20.55506638 19.25368179 20.5593515 20.32376984 20.56376648 21.42628479 C20.56950671 23.6882354 20.57001231 25.95020447 20.56567383 28.2121582 C20.56251502 31.67105636 20.58597366 35.12909828 20.61132812 38.58789062 C20.61360126 40.78645725 20.61430455 42.98502618 20.61328125 45.18359375 C20.622491 46.21705429 20.63170074 47.25051483 20.64118958 48.31529236 C20.58364511 57.25561871 20.58364511 57.25561871 17.25 61.25 C12.65055862 65.35632388 7.1372151 64.69393154 1.3125 64.625 C0.33603516 64.63660156 -0.64042969 64.64820313 -1.64648438 64.66015625 C-7.05904505 64.63813905 -11.13703905 64.4042879 -15.75 61.25 C-17.92877042 57.98184436 -18.00849767 57.00511562 -18.04052734 53.21533203 C-18.0596669 51.67826096 -18.0596669 51.67826096 -18.07919312 50.11013794 C-18.08141876 49.00387054 -18.08364441 47.89760315 -18.0859375 46.7578125 C-18.0925943 45.61972137 -18.0992511 44.48163025 -18.10610962 43.30905151 C-18.11624139 40.89989846 -18.12092648 38.49071731 -18.12060547 36.08154297 C-18.1249747 32.39633877 -18.16127994 28.71233565 -18.19921875 25.02734375 C-18.20508753 22.6875041 -18.20905651 20.34765875 -18.2109375 18.0078125 C-18.22530853 16.90559357 -18.23967957 15.80337463 -18.25448608 14.66775513 C-18.20881057 7.01452738 -18.20881057 7.01452738 -15.84619141 3.07763672 C-11.19028746 -0.98177359 -5.91338843 0.02769737 0 0 Z " fill="#C2972C" transform="translate(117.75,73.75)"/>
<path d="M0 0 C22.11 0 44.22 0 67 0 C66.01 0.66 65.02 1.32 64 2 C60.46321928 4.54045287 60.46321928 4.54045287 58 8 C41.5 8 25 8 8 8 C8 30.11 8 52.22 8 75 C10.31 75 12.62 75 15 75 C15 76.98 15 78.96 15 81 C10.05 81 5.1 81 0 81 C0 54.27 0 27.54 0 0 Z " fill="#C3992E" transform="translate(40,71)"/>
<path d="M0 0 C0.87785156 -0.00515625 1.75570312 -0.0103125 2.66015625 -0.015625 C4.9375 0.25 4.9375 0.25 6.9375 2.25 C7.18473816 4.2301178 7.18473816 4.2301178 7.18041992 6.68383789 C7.18349655 7.60141373 7.18657318 8.51898956 7.18974304 9.46437073 C7.18255753 10.45710495 7.17537201 11.44983917 7.16796875 12.47265625 C7.16728142 13.996381 7.16728142 13.996381 7.1665802 15.55088806 C7.16355596 17.70035977 7.15566456 19.84982925 7.14331055 21.99926758 C7.12505624 25.30232442 7.1228008 28.60510112 7.12304688 31.90820312 C7.11813179 33.99218994 7.11230351 36.07617485 7.10546875 38.16015625 C7.10435593 39.1549147 7.1032431 40.14967316 7.10209656 41.17457581 C7.09571671 42.08899948 7.08933685 43.00342316 7.08276367 43.94555664 C7.07895187 44.75448868 7.07514008 45.56342072 7.07121277 46.39686584 C6.9375 48.25 6.9375 48.25 5.9375 49.25 C3.96130553 49.37514928 1.98011827 49.4257276 0 49.4375 C-1.08152344 49.45167969 -2.16304688 49.46585938 -3.27734375 49.48046875 C-6.0625 49.25 -6.0625 49.25 -8.0625 47.25 C-8.32319641 45.3145752 -8.32319641 45.3145752 -8.3371582 42.92382812 C-8.34669022 42.02950073 -8.35622223 41.13517334 -8.36604309 40.21374512 C-8.36513168 39.24602173 -8.36422028 38.27829834 -8.36328125 37.28125 C-8.36756638 36.29000122 -8.3718515 35.29875244 -8.37626648 34.27746582 C-8.38201584 32.17928838 -8.3825056 30.081091 -8.37817383 27.98291016 C-8.37501277 24.7630027 -8.3984696 21.54401257 -8.42382812 18.32421875 C-8.42610084 16.28906366 -8.42680474 14.2539061 -8.42578125 12.21875 C-8.434991 11.25102661 -8.44420074 10.28330322 -8.45368958 9.28625488 C-8.44434639 7.94476379 -8.44434639 7.94476379 -8.43481445 6.57617188 C-8.43544388 5.78722534 -8.4360733 4.99827881 -8.4367218 4.1854248 C-8.31322861 3.54673462 -8.18973541 2.90804443 -8.0625 2.25 C-4.81167327 0.08278218 -3.77017847 -0.02221018 0 0 Z " fill="#FEFEFC" transform="translate(119.0625,80.75)"/>
<path d="M0 0 C3.63 0 7.26 0 11 0 C11 21.12 11 42.24 11 64 C7.37 64 3.74 64 0 64 C0 42.88 0 21.76 0 0 Z " fill="#C19525" transform="translate(148,74)"/>
<path d="M0 0 C3.3 0 6.6 0 10 0 C9.42052974 4.15952197 8.46128576 7.76635343 6.8984375 11.66015625 C6.49109375 12.70107422 6.08375 13.74199219 5.6640625 14.81445312 C4.80228241 16.98587781 3.93505944 19.15515 3.0625 21.32226562 C2.65773437 22.36189453 2.25296875 23.40152344 1.8359375 24.47265625 C1.46001465 25.41375244 1.0840918 26.35484863 0.69677734 27.32446289 C-0.69276745 32.66013962 1.5869857 36.556649 3.94140625 41.32421875 C4.22853989 41.91169388 4.51567352 42.49916901 4.81150818 43.10444641 C5.72304602 44.96820399 6.64208115 46.82811422 7.5625 48.6875 C8.48581083 50.55790719 9.40737391 52.42909536 10.32420349 54.3026886 C11.15270038 55.99515003 11.98745401 57.68454436 12.82250977 59.3737793 C14 62 14 62 14 64 C10.37 64 6.74 64 3 64 C0.95820196 60.01849381 -1.04369522 56.02364042 -3 52 C-3.53729736 50.90002686 -3.53729736 50.90002686 -4.08544922 49.77783203 C-5.22345141 47.42359922 -6.33314059 45.05767772 -7.4375 42.6875 C-7.80359375 41.93549316 -8.1696875 41.18348633 -8.546875 40.40869141 C-8.88074219 39.67956543 -9.21460938 38.95043945 -9.55859375 38.19921875 C-9.86079834 37.55815186 -10.16300293 36.91708496 -10.47436523 36.2565918 C-11.74580409 30.79820379 -9.63355682 25.48624527 -7.71484375 20.41015625 C-7.26689453 19.21455078 -6.81894531 18.01894531 -6.35742188 16.78710938 C-5.88884766 15.55798828 -5.42027344 14.32886719 -4.9375 13.0625 C-4.45963505 11.79386497 -3.98241559 10.5249866 -3.50585938 9.25585938 C-2.34355589 6.16812385 -1.17476771 3.08301014 0 0 Z " fill="#C2972A" transform="translate(171,74)"/>
<path d="M0 0 C1.35031995 0.63893188 2.69793741 1.28360253 4.04296875 1.93359375 C4.73583984 2.26294922 5.42871094 2.59230469 6.14257812 2.93164062 C7.84091823 3.73981626 9.53602644 4.55477752 11.23046875 5.37109375 C11.23046875 7.35109375 11.23046875 9.33109375 11.23046875 11.37109375 C6.5921239 9.95382171 2.24072647 8.46260945 -2.01953125 6.12109375 C-4.51365425 4.83459948 -5.5341869 4.36549031 -8.39453125 4.43359375 C-11.28174615 5.57328384 -14.00678987 6.95902593 -16.76953125 8.37109375 C-17.42953125 8.37109375 -18.08953125 8.37109375 -18.76953125 8.37109375 C-18.43953125 11.01109375 -18.10953125 13.65109375 -17.76953125 16.37109375 C-17.17785156 16.07074219 -16.58617188 15.77039063 -15.9765625 15.4609375 C-15.18636719 15.08066406 -14.39617187 14.70039063 -13.58203125 14.30859375 C-12.80472656 13.92574219 -12.02742188 13.54289062 -11.2265625 13.1484375 C-7.1902298 11.87144194 -4.65730371 12.94125069 -0.9296875 14.74609375 C0.09253906 15.28234375 1.11476563 15.81859375 2.16796875 16.37109375 C9.29666341 19.78046946 15.3684833 20.34751958 23.23046875 20.37109375 C23.23046875 18.39109375 23.23046875 16.41109375 23.23046875 14.37109375 C25.54046875 14.37109375 27.85046875 14.37109375 30.23046875 14.37109375 C30.23046875 18.33109375 30.23046875 22.29109375 30.23046875 26.37109375 C18.84662577 27.06002949 9.0587387 27.62257669 -1.06079102 21.77319336 C-3.59397596 20.31064866 -5.28680956 19.35287784 -8.25390625 19.46484375 C-11.44067566 20.61287248 -14.46380349 21.97140728 -17.51953125 23.43359375 C-23.68482537 26.37109375 -23.68482537 26.37109375 -24.76953125 26.37109375 C-24.76953125 19.44109375 -24.76953125 12.51109375 -24.76953125 5.37109375 C-22.23265625 4.03046875 -19.69578125 2.68984375 -17.08203125 1.30859375 C-16.29223877 0.8818335 -15.50244629 0.45507324 -14.6887207 0.01538086 C-8.7926177 -3.01355662 -5.98315325 -2.63912816 0 0 Z " fill="#C29628" transform="translate(82.76953125,125.62890625)"/>
<path d="M0 0 C0.69867188 0.28101562 1.39734375 0.56203125 2.1171875 0.8515625 C3.74479167 1.56770833 5.37239583 2.28385417 7 3 C7 5.31 7 7.62 7 10 C2 8 2 8 -0.375 6.8125 C-4.39527921 5.56812786 -8.24188991 6.12094495 -12 8 C-12.65555119 10.52733235 -12.65555119 10.52733235 -13 13 C-12.113125 12.484375 -11.22625 11.96875 -10.3125 11.4375 C-6.57658755 9.81625497 -5.75255902 9.69096779 -2 11 C1.03106675 12.26977121 4.02411963 13.60606911 7 15 C7 16.98 7 18.96 7 21 C3.88746417 20.54227414 1.74650195 19.86549083 -1.0625 18.375 C-4.34813214 16.83704453 -4.74531152 16.8949759 -8 18 C-10.35304212 18.99984213 -12.6600097 20.07884174 -14.9765625 21.16015625 C-17 22 -17 22 -19 22 C-19 16.06 -19 10.12 -19 4 C-15.968125 2.453125 -15.968125 2.453125 -12.875 0.875 C-11.73804687 0.29492188 -10.60109375 -0.28515625 -9.4296875 -0.8828125 C-5.33720953 -2.21589758 -3.84933614 -1.75358647 0 0 Z " fill="#C3992F" transform="translate(81,104)"/>
<path d="M0 0 C0.845625 0.556875 1.69125 1.11375 2.5625 1.6875 C2.5625 3.0075 2.5625 4.3275 2.5625 5.6875 C0.5825 5.0275 -1.3975 4.3675 -3.4375 3.6875 C-3.4375 5.0075 -3.4375 6.3275 -3.4375 7.6875 C-1.7875 8.0175 -0.1375 8.3475 1.5625 8.6875 C1.8925 10.3375 2.2225 11.9875 2.5625 13.6875 C1.53125 13.48125 0.5 13.275 -0.5625 13.0625 C-4.87113742 12.38078085 -4.87113742 12.38078085 -10.4375 14.6875 C-10.4375 10.3975 -10.4375 6.1075 -10.4375 1.6875 C-4.28365385 -1.63557692 -4.28365385 -1.63557692 0 0 Z " fill="#C3992F" transform="translate(78.4375,88.3125)"/>
<path d="M0 0 C2.97 0 5.94 0 9 0 C9 3.3 9 6.6 9 10 C6.03 10 3.06 10 0 10 C0 6.7 0 3.4 0 0 Z " fill="#D3B770" transform="translate(152,142)"/>
<path d="M0 0 C2.31 0 4.62 0 7 0 C6.814375 0.639375 6.62875 1.27875 6.4375 1.9375 C6.293125 2.618125 6.14875 3.29875 6 4 C6.33 4.33 6.66 4.66 7 5 C7.04063832 6.66617115 7.042721 8.33388095 7 10 C4.69 10 2.38 10 0 10 C0 6.7 0 3.4 0 0 Z " fill="#D9C07D" transform="translate(117,142)"/>
<path d="M0 0 C2.64 0 5.28 0 8 0 C8 3.3 8 6.6 8 10 C5.69 10 3.38 10 1 10 C0.67 6.7 0.34 3.4 0 0 Z " fill="#CFB162" transform="translate(125,142)"/>
<path d="M0 0 C2.02237052 0.95394836 4.0282696 1.94535351 6 3 C6 3.99 6 4.98 6 6 C5.113125 5.690625 4.22625 5.38125 3.3125 5.0625 C2.219375 4.711875 1.12625 4.36125 0 4 C-0.825 3.731875 -1.65 3.46375 -2.5 3.1875 C-5.19921335 2.76725003 -5.19921335 2.76725003 -8.0625 4.5625 C-9.5165625 5.2740625 -9.5165625 5.2740625 -11 6 C-13.18359375 5.08984375 -13.18359375 5.08984375 -15 4 C-13.4470724 3.12855131 -11.88214564 2.27846343 -10.3125 1.4375 C-9.44238281 0.96183594 -8.57226562 0.48617187 -7.67578125 -0.00390625 C-4.55357127 -1.1661888 -3.13930632 -0.99135989 0 0 Z " fill="#F3EEDD" transform="translate(79,121)"/>
<path d="M0 0 C2.31 0 4.62 0 7 0 C7 3.3 7 6.6 7 10 C5.02 10 3.04 10 1 10 C0.67 6.7 0.34 3.4 0 0 Z " fill="#CEB064" transform="translate(134,142)"/>
<path d="M0 0 C1.32 0 2.64 0 4 0 C4.33 3.3 4.66 6.6 5 10 C3.35 10 1.7 10 0 10 C0 6.7 0 3.4 0 0 Z " fill="#D3B86E" transform="translate(162,142)"/>
<path d="M0 0 C1.32 0 2.64 0 4 0 C4 3.3 4 6.6 4 10 C2.68 10 1.36 10 0 10 C0 6.7 0 3.4 0 0 Z " fill="#D0B365" transform="translate(168,142)"/>
<path d="M0 0 C1.32 0 2.64 0 4 0 C4 3.3 4 6.6 4 10 C2.68 10 1.36 10 0 10 C0 6.7 0 3.4 0 0 Z " fill="#D0B265" transform="translate(177,142)"/>
<path d="M0 0 C2.75317974 0.22390317 5.49305329 0.41393662 8.25 0.5625 C8.99507812 0.60568359 9.74015625 0.64886719 10.5078125 0.69335938 C12.338349 0.79896725 14.16915176 0.89994201 16 1 C16 1.33 16 1.66 16 2 C15.37955811 2.02505615 14.75911621 2.0501123 14.11987305 2.07592773 C11.30887603 2.19196721 8.49820759 2.31465759 5.6875 2.4375 C4.71103516 2.47681641 3.73457031 2.51613281 2.72851562 2.55664062 C1.79072266 2.59853516 0.85292969 2.64042969 -0.11328125 2.68359375 C-0.97735596 2.72025146 -1.84143066 2.75690918 -2.73168945 2.79467773 C-5.1647826 2.92747354 -5.1647826 2.92747354 -8 4 C-7.6875 2.0625 -7.6875 2.0625 -7 0 C-3.76155746 -1.07948085 -3.11445674 -0.88218282 0 0 Z " fill="#ECE4CC" transform="translate(111,72)"/>
<path d="M0 0 C0.99 0 1.98 0 3 0 C2 3 2 3 1 5 C1.66 5 2.32 5 3 5 C3 6.65 3 8.3 3 10 C1.68 10 0.36 10 -1 10 C-1 9.34 -1 8.68 -1 8 C-0.34 8 0.32 8 1 8 C0.34 7.01 -0.32 6.02 -1 5 C-0.625 2.3125 -0.625 2.3125 0 0 Z " fill="#CDAD5A" transform="translate(183,142)"/>
<path d="M0 0 C0.99 0.33 1.98 0.66 3 1 C3 3.97 3 6.94 3 10 C2.01 10 1.02 10 0 10 C0 6.7 0 3.4 0 0 Z " fill="#CAA955" transform="translate(173,142)"/>
<path d="M0 0 C0.33 0 0.66 0 1 0 C1 1.65 1 3.3 1 5 C-2.24629847 6.08209949 -2.87436498 5.78140875 -6 5 C-6.99 5.33 -7.98 5.66 -9 6 C-9 5.01 -9 4.02 -9 3 C-6.08517222 2.19032562 -4.53886783 1.78154007 -1.6875 2.9375 C-1.130625 3.288125 -0.57375 3.63875 0 4 C0 2.68 0 1.36 0 0 Z " fill="#EFE8D1" transform="translate(81,98)"/>
<path d="M0 0 C1.32 0 2.64 0 4 0 C3.67 2.64 3.34 5.28 3 8 C1.58622659 5.36095629 0.62759865 2.92879371 0 0 Z " fill="#F4EFE1" transform="translate(122,143)"/>
</svg>
