<svg width="146" height="82" viewBox="0 0 146 82" fill="none" xmlns="http://www.w3.org/2000/svg">
<path d="M77.7501 2.75024C78.8355 2.72962 79.9209 2.70899 81.0392 2.68774C91.4248 2.63696 91.4248 2.63696 96.0001 6.00024C97.8897 9.01587 98.2555 11.3449 98.2747 14.873C98.289 16.3199 98.289 16.3199 98.3036 17.796C98.3027 18.8315 98.3018 19.867 98.3009 20.9338C98.3052 22.0039 98.3094 23.074 98.3139 24.1765C98.3196 26.4385 98.3201 28.7004 98.3158 30.9624C98.3126 34.4213 98.3361 37.8793 98.3614 41.3381C98.3637 43.5367 98.3644 45.7353 98.3634 47.9338C98.3726 48.9673 98.3818 50.0008 98.3913 51.0655C98.3337 60.0059 98.3337 60.0059 95.0001 64.0002C90.4007 68.1066 84.8873 67.4442 79.0626 67.3752C78.0861 67.3868 77.1097 67.3984 76.1036 67.4104C70.691 67.3884 66.6131 67.1545 62.0001 64.0002C59.8213 60.7321 59.7416 59.7554 59.7096 55.9656C59.6904 54.4285 59.6904 54.4285 59.6709 52.8604C59.6687 51.7541 59.6664 50.6478 59.6642 49.5081C59.6575 48.37 59.6508 47.2319 59.644 46.0593C59.6339 43.6501 59.6292 41.241 59.6295 38.8318C59.6251 35.1466 59.5888 31.4626 59.5509 27.7776C59.545 25.4377 59.541 23.0979 59.5392 20.7581C59.5248 19.6558 59.5104 18.5536 59.4956 17.418C59.5413 9.76477 59.5413 9.76477 61.9039 5.82788C66.5598 1.76847 71.8367 2.77794 77.7501 2.75024Z" fill="black"/>
<path d="M0 0C22.11 0 44.22 0 67 0C66.01 0.66 65.02 1.32 64 2C60.4632 4.54045 60.4632 4.54045 58 8C41.5 8 25 8 8 8C8 30.11 8 52.22 8 75C10.31 75 12.62 75 15 75C15 76.98 15 78.96 15 81C10.05 81 5.1 81 0 81C0 54.27 0 27.54 0 0Z" fill="black"/>
<path d="M79.0626 9.75C79.9404 9.74484 80.8183 9.73969 81.7227 9.73438C84.0001 10 84.0001 10 86.0001 12C86.2473 13.9801 86.2473 13.9801 86.243 16.4338C86.2461 17.3514 86.2491 18.269 86.2523 19.2144C86.2451 20.2071 86.2379 21.1998 86.2305 22.2227C86.2299 23.7464 86.2299 23.7464 86.2292 25.3009C86.2261 27.4504 86.2182 29.5998 86.2059 31.7493C86.1876 35.0523 86.1854 38.3551 86.1856 41.6582C86.1807 43.7422 86.1749 45.8262 86.168 47.9102C86.1669 48.9049 86.1658 49.8997 86.1647 50.9246C86.1583 51.839 86.1519 52.7534 86.1453 53.6956C86.1415 54.5045 86.1377 55.3134 86.1338 56.1469C86.0001 58 86.0001 58 85.0001 59C83.0239 59.1251 81.0427 59.1757 79.0626 59.1875C77.9811 59.2017 76.8995 59.2159 75.7852 59.2305C73.0001 59 73.0001 59 71.0001 57C70.7394 55.0646 70.7394 55.0646 70.7254 52.6738C70.7159 51.7795 70.7064 50.8852 70.6965 49.9637C70.6974 48.996 70.6984 48.0283 70.6993 47.0312C70.695 46.04 70.6907 45.0488 70.6863 44.0275C70.6806 41.9293 70.6801 39.8311 70.6844 37.7329C70.6876 34.513 70.6641 31.294 70.6387 28.0742C70.6365 26.0391 70.6358 24.0039 70.6368 21.9688C70.6276 21.001 70.6184 20.0333 70.6089 19.0363C70.6182 17.6948 70.6182 17.6948 70.6278 16.3262C70.6271 15.5372 70.6265 14.7483 70.6259 13.9354C70.7493 13.2967 70.8728 12.658 71.0001 12C74.2509 9.83278 75.2924 9.72779 79.0626 9.75Z" fill="#FEFEFC"/>
<path d="M108 3C111.63 3 115.26 3 119 3C119 24.12 119 45.24 119 67C115.37 67 111.74 67 108 67C108 45.88 108 24.76 108 3Z" fill="black"/>
<path d="M131 3C134.3 3 140.423 0 143.823 0C143.243 4.15952 139.461 10.7664 137.898 14.6602C137.491 15.7011 137.084 16.742 136.664 17.8145C135.802 19.9859 134.935 22.1551 134.063 24.3223C133.658 25.3619 133.253 26.4015 132.836 27.4727C132.46 28.4138 132.084 29.3548 131.697 30.3245C130.307 35.6601 132.587 39.5566 134.941 44.3242C135.229 44.9117 135.516 45.4992 135.812 46.1044C136.723 47.9682 137.642 49.8281 138.563 51.6875C139.486 53.5579 140.407 55.4291 141.324 57.3027C142.153 58.9951 142.987 60.6845 143.823 62.3738C145 65 145 65 145 67C141.37 67 137.74 67 134 67C131.958 63.0185 129.956 59.0236 128 55C127.463 53.9 127.463 53.9 126.915 52.7778C125.777 50.4236 124.667 48.0577 123.563 45.6875C123.196 44.9355 122.83 44.1835 122.453 43.4087C122.119 42.6796 121.785 41.9504 121.441 41.1992C121.139 40.5582 120.837 39.9171 120.526 39.2566C119.254 33.7982 121.366 28.4862 123.285 23.4102C123.733 22.2146 124.181 21.0189 124.643 19.7871C125.111 18.558 125.58 17.3289 126.063 16.0625C126.54 14.7939 127.018 13.525 127.494 12.2559C128.656 9.16812 129.825 6.08301 131 3Z" fill="black"/>
<path d="M42.7695 54.6288C44.1199 55.2677 45.4675 55.9124 46.8125 56.5623C47.5054 56.8917 48.1982 57.2211 48.9121 57.5604C50.6104 58.3686 52.3056 59.1835 54 59.9998C54 61.9798 54 63.9598 54 65.9998C49.3617 64.5826 45.0103 63.0914 40.75 60.7498C38.2559 59.4634 37.2353 58.9942 34.375 59.0623C31.4878 60.202 28.7627 61.5878 26 62.9998C25.34 62.9998 24.68 62.9998 24 62.9998C24.33 65.6398 24.66 68.2798 25 70.9998C25.5917 70.6995 26.1834 70.3991 26.793 70.0897C27.5832 69.7094 28.3734 69.3291 29.1875 68.9373C29.9648 68.5545 30.7421 68.1716 31.543 67.7772C35.5793 66.5002 38.1122 67.57 41.8398 69.3748C42.8621 69.9111 43.8843 70.4473 44.9375 70.9998C52.0662 74.4092 58.138 74.9763 66 74.9998C66 73.0198 66 71.0398 66 68.9998C68.31 68.9998 70.62 68.9998 73 68.9998C73 72.9598 73 76.9198 73 80.9998C61.6162 81.6888 51.8283 82.2513 41.7087 76.4019C39.1756 74.9394 37.4827 73.9816 34.5156 74.0936C31.3289 75.2416 28.3057 76.6002 25.25 78.0623C19.0847 80.9998 19.0847 80.9998 18 80.9998C18 74.0698 18 67.1398 18 59.9998C20.5369 58.6592 23.0738 57.3186 25.6875 55.9373C26.4773 55.5106 27.2671 55.0838 28.0808 54.6441C33.9769 51.6152 36.7864 51.9896 42.7695 54.6288Z" fill="black"/>
<path d="M41 32.9999C41.6987 33.2809 42.3973 33.5619 43.1172 33.8515C44.7448 34.5676 46.3724 35.2838 48 35.9999C48 38.3099 48 40.6199 48 42.9999C43 40.9999 43 40.9999 40.625 39.8124C36.6047 38.568 32.7581 39.1209 29 40.9999C28.3444 43.5272 28.3444 43.5272 28 45.9999C28.8869 45.4843 29.7738 44.9687 30.6875 44.4374C34.4234 42.8162 35.2474 42.6909 39 43.9999C42.0311 45.2697 45.0241 46.606 48 47.9999C48 49.9799 48 51.9599 48 53.9999C44.8875 53.5422 42.7465 52.8654 39.9375 51.3749C36.6519 49.837 36.2547 49.8949 33 50.9999C30.647 51.9998 28.34 53.0788 26.0234 54.1601C24 54.9999 24 54.9999 22 54.9999C22 49.0599 22 43.1199 22 36.9999C25.0319 35.453 25.0319 35.453 28.125 33.8749C29.262 33.2948 30.3989 32.7148 31.5703 32.1171C35.6628 30.784 37.1507 31.2463 41 32.9999Z" fill="black"/>
<path d="M38.4375 17.3129C39.2831 17.8697 40.1288 18.4266 41 19.0004C41 20.3204 41 21.6404 41 23.0004C39.02 22.3404 37.04 21.6804 35 21.0004C35 22.3204 35 23.6404 35 25.0004C36.65 25.3304 38.3 25.6604 40 26.0004C40.33 27.6504 40.66 29.3004 41 31.0004C39.9688 30.7941 38.9375 30.5879 37.875 30.3754C33.5664 29.6936 33.5664 29.6936 28 32.0004C28 27.7104 28 23.4204 28 19.0004C34.1538 15.6773 34.1538 15.6773 38.4375 17.3129Z" fill="black"/>
<path d="M77 71C79.31 71 81.62 71 84 71C83.8144 71.6394 83.6287 72.2788 83.4375 72.9375C83.2931 73.6181 83.1488 74.2987 83 75C83.33 75.33 83.66 75.66 84 76C84.0406 77.6662 84.0427 79.3339 84 81C81.69 81 79.38 81 77 81C77 77.7 77 74.4 77 71Z" fill="black"/>
<path d="M85 71C87.64 71 90.28 71 93 71C93 74.3 93 77.6 93 81C90.69 81 88.38 81 86 81C85.67 77.7 85.34 74.4 85 71Z" fill="black"/>
<path d="M39 50.0004C41.0224 50.9544 43.0283 51.9458 45 53.0004C45 53.9904 45 54.9804 45 56.0004C44.1131 55.691 43.2262 55.3817 42.3125 55.0629C41.2194 54.7123 40.1263 54.3617 39 54.0004C38.175 53.7323 37.35 53.4642 36.5 53.1879C33.8008 52.7677 33.8008 52.7677 30.9375 54.5629C29.4834 55.2745 29.4834 55.2745 28 56.0004C25.8164 55.0903 25.8164 55.0903 24 54.0004C25.5529 53.129 27.1179 52.2789 28.6875 51.4379C29.5576 50.9622 30.4277 50.4866 31.3242 49.9965C34.4464 48.8342 35.8607 49.0091 39 50.0004Z" fill="#F3EEDD"/>
<path d="M94 71C96.31 71 98.62 71 101 71C101 74.3 101 77.6 101 81C99.02 81 97.04 81 95 81C94.67 77.7 94.34 74.4 94 71Z" fill="black"/>
<path d="M137 71C138.32 71 139.64 71 141 71C141 74.3 141 77.6 141 81C139.68 81 138.36 81 137 81C137 77.7 137 74.4 137 71Z" fill="black"/>
<path d="M71 1.00017C73.7532 1.22407 76.4931 1.4141 79.25 1.56267C79.9951 1.60585 80.7402 1.64904 81.5078 1.69353C83.3383 1.79914 85.1692 1.90011 87 2.00017C87 2.33017 87 2.66017 87 3.00017C86.3796 3.02522 85.7591 3.05028 85.1199 3.0761C82.3089 3.19214 79.4982 3.31483 76.6875 3.43767C75.711 3.47698 74.7346 3.5163 73.7285 3.55681C72.7907 3.5987 71.8529 3.6406 70.8867 3.68376C70.0226 3.72042 69.1586 3.75708 68.2683 3.79485C65.8352 3.92764 65.8352 3.92764 63 5.00017C63.3125 3.06267 63.3125 3.06267 64 1.00017C67.2384 -0.079313 67.8855 0.117985 71 1.00017Z" fill="#ECE4CC"/>
<path d="M143 71C143.99 71 144.98 71 146 71C145 74 145 74 144 76C144.66 76 145.32 76 146 76C146 77.65 146 79.3 146 81C144.68 81 143.36 81 142 81C142 80.34 142 79.68 142 79C142.66 79 143.32 79 144 79C143.34 78.01 142.68 77.02 142 76C142.375 73.3125 142.375 73.3125 143 71Z" fill="black"/>
<path d="M133 71C133.99 71.33 134.98 71.66 136 72C136 74.97 136 77.94 136 81C135.01 81 134.02 81 133 81C133 77.7 133 74.4 133 71Z" fill="black"/>
<path d="M41 27C41.33 27 41.66 27 42 27C42 28.65 42 30.3 42 32C38.7537 33.0821 38.1256 32.7814 35 32C34.01 32.33 33.02 32.66 32 33C32 32.01 32 31.02 32 30C34.9148 29.1903 36.4611 28.7815 39.3125 29.9375C39.8694 30.2881 40.4262 30.6391 41 31.0004C41 29.6804 41 28.36 41 27Z" fill="#EFE8D1"/>
<path d="M82 72C83.32 72 84.64 72 86 72C85.67 74.64 85.34 77.28 85 80C83.5862 77.361 82.6276 74.9288 82 72Z" fill="#F4EFE1"/>
</svg>
