<?xml version="1.0" encoding="UTF-8"?>
<svg version="1.1" xmlns="http://www.w3.org/2000/svg" width="225" height="225">
<path d="M0 0 C74.25 0 148.5 0 225 0 C225 74.25 225 148.5 225 225 C150.75 225 76.5 225 0 225 C0 150.75 0 76.5 0 0 Z " fill="#FCFCFC" transform="translate(0,0)"/>
<path d="M0 0 C8.28432612 6.06910339 15.22699729 14.93817082 17.125 25.25 C17.87705444 37.33533987 16.16108283 47.19002413 9.125 57.25 C6.30414817 60.16748786 3.33011199 62.76425759 0.125 65.25 C-1.25112997 62.49774007 -0.82253762 60.38186851 -0.6875 57.3125 C-0.63640175 48.05349714 -3.25417066 40.26277002 -9.1015625 33.03515625 C-15.14015405 26.95666211 -22.232022 23.05094277 -30.8515625 22.86938477 C-42.46735319 22.898886 -49.88215709 25.11438829 -58.96484375 32.6640625 C-60.875 34.25 -60.875 34.25 -63.875 36.25 C-64.66819125 24.85889233 -62.12303789 16.03255657 -54.71484375 7.24609375 C-40.15785343 -8.54715901 -18.46136869 -11.45230668 0 0 Z " fill="#D92B28" transform="translate(131.875,54.75)"/>
<path d="M0 0 C10.50746118 4.39402922 17.53732259 11.74954364 21.96484375 22.26953125 C24.92471223 32.93622708 24.39855299 45.21211906 19 55 C13.47074195 64.07854305 5.05607075 70.58473069 -5 74 C-17.84941524 76.82687135 -29.68051558 75.28586027 -40.828125 68.203125 C-49.07581223 62.02970641 -54.87695465 54.20551624 -57 44 C-57.04235919 42.33387171 -57.0524216 40.66584206 -57 39 C-56.10796875 39.49371094 -55.2159375 39.98742187 -54.296875 40.49609375 C-53.11471392 41.14346768 -51.93241496 41.79058989 -50.75 42.4375 C-50.16347656 42.76298828 -49.57695313 43.08847656 -48.97265625 43.42382812 C-40.24989486 48.17724304 -29.61382967 48.40216568 -19.94140625 46.3515625 C-10.51913478 42.91191894 -4.26093251 36.55838613 -0.05859375 27.52734375 C2.60663046 18.6465413 1.42865713 9.03241902 0 0 Z " fill="#D92C29" transform="translate(154,95)"/>
<path d="M0 0 C-2.09532605 2.09532605 -4.07471285 3.00495761 -6.74853516 4.20629883 C-15.87314559 8.36971397 -22.13457098 13.46217344 -26.5 22.75 C-29.09396483 30.19606868 -29.39325082 38.45709884 -26.375 45.8125 C-25.62836376 47.23292991 -24.835932 48.63021735 -24 50 C-23.57589844 50.69867188 -23.15179688 51.39734375 -22.71484375 52.1171875 C-17.16597946 60.30910414 -8.97662815 64.39237167 0 68 C-7.65632667 74.2384884 -17.43426646 74.92696207 -27 74 C-38.4914757 71.12322241 -49.32293872 64.69862809 -55.578125 54.40234375 C-60.68886046 44.43053519 -61.48794241 33.79037364 -59.38671875 22.7890625 C-55.61815957 11.20115807 -47.63622141 3.50940965 -37 -2 C-25.48376557 -7.60790546 -10.9932424 -6.20131623 0 0 Z " fill="#D92B28" transform="translate(105,96)"/>
<path d="M0 0 C3 1.625 3 1.625 5 4 C6.14888518 7.94929279 6.43129396 10.02958859 4.75 13.8125 C2.75878859 16.30151426 1.13130263 17.81780519 -2.0859375 18.3359375 C-5.97102072 18.40223585 -8.4730087 18.26349565 -12 16.5 C-14.69836706 13.12704118 -15.44575974 10.30075604 -15 6 C-11.08955867 -1.41635424 -7.69505845 -1.68786256 0 0 Z " fill="#211F1F" transform="translate(204,133)"/>
<path d="M0 0 C4.94804373 1.97921749 8.64069587 3.83524868 12 8 C12.25 11.25 12.25 11.25 11 14 C9.33333333 14.66666667 7.66666667 15.33333333 6 16 C5.32882152 18.94363898 5.32882152 18.94363898 5 22 C3.4375 23.875 3.4375 23.875 2 25 C1.34 24.67 0.68 24.34 0 24 C0.495 19.545 0.495 19.545 1 15 C-0.32 14.34 -1.64 13.68 -3 13 C-4.65 14.65 -6.3 16.3 -8 18 C-8.99 17.01 -9.98 16.02 -11 15 C-7.37 10.05 -3.74 5.1 0 0 Z " fill="#1A1818" transform="translate(163,26)"/>
<path d="M0 0 C4.87072783 4.56630734 8.89156398 9.74976539 13 15 C12.01 15.99 11.02 16.98 10 18 C9.31292969 17.7834375 8.62585938 17.566875 7.91796875 17.34375 C7.01691406 17.0653125 6.11585937 16.786875 5.1875 16.5 C4.29417969 16.2215625 3.40085937 15.943125 2.48046875 15.65625 C-0.05573395 14.87211649 -0.05573395 14.87211649 -3 15 C-2.566875 15.48210938 -2.13375 15.96421875 -1.6875 16.4609375 C-1.130625 17.09257813 -0.57375 17.72421875 0 18.375 C0.8353125 19.31472656 0.8353125 19.31472656 1.6875 20.2734375 C3 22 3 22 3 24 C1.68 24.33 0.36 24.66 -1 25 C-6.445 18.07 -6.445 18.07 -12 11 C-11.34 10.01 -10.68 9.02 -10 8 C-4.88634986 9.0681847 0.07227969 10.23107476 5 12 C2.69 9.03 0.38 6.06 -2 3 C-1.34 2.01 -0.68 1.02 0 0 Z " fill="#181717" transform="translate(53,28)"/>
<path d="M0 0 C1.32 0 2.64 0 4 0 C4.66 6.6 5.32 13.2 6 20 C4.35 20 2.7 20 1 20 C-1.23828125 17.59375 -1.23828125 17.59375 -3.3125 14.5 C-4.00988281 13.4790625 -4.70726563 12.458125 -5.42578125 11.40625 C-5.94527344 10.6121875 -6.46476562 9.818125 -7 9 C-7 12.96 -7 16.92 -7 21 C-8.32 21 -9.64 21 -11 21 C-11.82351864 14.61773055 -12.12086218 8.43255401 -12 2 C-8.7220036 2.31138135 -7.31932973 2.67325837 -4.98046875 5.06640625 C-3.3203125 7.37760417 -1.66015625 9.68880208 0 12 C0 8.04 0 4.08 0 0 Z " fill="#121010" transform="translate(104,11)"/>
<path d="M0 0 C3.94622865 1.32686782 6.2669423 2.92813336 9.125 5.9375 C10.11886719 6.97197266 10.11886719 6.97197266 11.1328125 8.02734375 C11.74898437 8.67832031 12.36515625 9.32929688 13 10 C13.99664245 11.00334632 14.99533082 12.00469109 16 13 C9.30602692 20.7893505 9.30602692 20.7893505 4.125 21.625 C1 21 1 21 -1 19 C-1.3125 15.5625 -1.3125 15.5625 -1 12 C0.5625 10.3125 0.5625 10.3125 2 9 C1.71225849 6.02667109 0.39923409 3.61190363 -1 1 C-0.67 0.67 -0.34 0.34 0 0 Z " fill="#1F1D1D" transform="translate(176,165)"/>
<path d="M0 0 C0 7.26 0 14.52 0 22 C-6 22 -6 22 -7.78271484 20.71484375 C-8.25402832 20.12832031 -8.7253418 19.54179687 -9.2109375 18.9375 C-9.73300781 18.30585938 -10.25507813 17.67421875 -10.79296875 17.0234375 C-11.31503906 16.35570312 -11.83710938 15.68796875 -12.375 15 C-12.92027344 14.33226562 -13.46554688 13.66453125 -14.02734375 12.9765625 C-15.36759766 11.33063665 -16.68599573 9.66695687 -18 8 C-17.67 7.34 -17.34 6.68 -17 6 C-14.61435923 6.57584432 -12.33317216 7.22227595 -10 8 C-7.99124558 7.72428861 -5.98821313 7.39764263 -4 7 C-4 5.02 -4 3.04 -4 1 C-2 0 -2 0 0 0 Z " fill="#0F0E0E" transform="translate(150,188)"/>
<path d="M0 0 C6.27 0.33 12.54 0.66 19 1 C19 2.32 19 3.64 19 5 C16.69 5 14.38 5 12 5 C12 7.64 12 10.28 12 13 C14.31 13.33 16.62 13.66 19 14 C19 15.32 19 16.64 19 18 C12.4 17.67 5.8 17.34 -1 17 C-1 15.35 -1 13.7 -1 12 C1.97 12.33 4.94 12.66 8 13 C8 10.36 8 7.72 8 5 C5.36 5 2.72 5 0 5 C0 3.35 0 1.7 0 0 Z " fill="#212020" transform="translate(194,111)"/>
<path d="M0 0 C0.33 1.32 0.66 2.64 1 4 C1.515625 4.4125 2.03125 4.825 2.5625 5.25 C4.5568588 7.67791506 4.54348768 9.93044757 4.40234375 12.99609375 C3.67011105 16.64303916 2.01859728 17.96706713 -1 20 C-5.44495974 21.36644332 -8.74075466 21.57715412 -13 19.625 C-15.71050606 16.0674608 -16.52621203 12.46458018 -16 8 C-14.625 6.22265625 -14.625 6.22265625 -13 5 C-12.34 5 -11.68 5 -11 5 C-11.01160156 5.71027344 -11.02320313 6.42054688 -11.03515625 7.15234375 C-11.04417969 8.07144531 -11.05320312 8.99054688 -11.0625 9.9375 C-11.07410156 10.85402344 -11.08570313 11.77054688 -11.09765625 12.71484375 C-11.25949049 14.96593327 -11.25949049 14.96593327 -10 16 C-6.71750543 16.2917773 -4.59733181 16.29866591 -1.625 14.8125 C0.26271671 13.06902646 0.26271671 13.06902646 0.25 10.3125 C0.12625 9.1678125 0.12625 9.1678125 0 8 C-2.475 7.01 -2.475 7.01 -5 6 C-4.67 7.32 -4.34 8.64 -4 10 C-4.99 10.33 -5.98 10.66 -7 11 C-7.66 8.36 -8.32 5.72 -9 3 C-6.03 2.01 -3.06 1.02 0 0 Z " fill="#141212" transform="translate(28,131)"/>
<path d="M0 0 C0 1.32 0 2.64 0 4 C-0.99 4.495 -0.99 4.495 -2 5 C-2 7.64 -2 10.28 -2 13 C-1.01 13.33 -0.02 13.66 1 14 C1 15.32 1 16.64 1 18 C-5.82423338 16.76583013 -12.39367844 15.1084005 -19 13 C-19 11.35 -19 9.7 -19 8 C-16.21128823 6.66042079 -13.41856938 5.32941565 -10.625 4 C-9.8309375 3.6184375 -9.036875 3.236875 -8.21875 2.84375 C-7.45820313 2.4828125 -6.69765625 2.121875 -5.9140625 1.75 C-5.2123291 1.41484375 -4.5105957 1.0796875 -3.78759766 0.734375 C-2 0 -2 0 0 0 Z " fill="#242222" transform="translate(27,112)"/>
<path d="M0 0 C1.32 0.33 2.64 0.66 4 1 C3.690625 1.763125 3.38125 2.52625 3.0625 3.3125 C2.32106407 5.18789677 1.63771783 7.08684652 1 9 C4.465 10.485 4.465 10.485 8 12 C8.268125 11.195625 8.53625 10.39125 8.8125 9.5625 C9.204375 8.716875 9.59625 7.87125 10 7 C10.99 6.67 11.98 6.34 13 6 C13.66 6.66 14.32 7.32 15 8 C12.03 13.28 9.06 18.56 6 24 C4.68 23.67 3.36 23.34 2 23 C3.875 17.25 3.875 17.25 5 15 C2.69 14.34 0.38 13.68 -2 13 C-3.485 15.475 -3.485 15.475 -5 18 C-6.32 17.67 -7.64 17.34 -9 17 C-7.51481201 12.95698825 -5.57122002 9.38853744 -3.375 5.6875 C-2.74335937 4.61886719 -2.11171875 3.55023438 -1.4609375 2.44921875 C-0.97882812 1.64097656 -0.49671875 0.83273438 0 0 Z " fill="#1A1818" transform="translate(62,183)"/>
<path d="M0 0 C5.32697239 1.45281065 8.36402802 5.08111378 12 9 C8.34161026 14.11136723 4.55388068 18.66297078 0 23 C-5.00918744 21.52670958 -7.51807722 18.72484762 -11 15 C-10.67 14.01 -10.34 13.02 -10 12 C-7.11562221 13.29299694 -5.12780579 14.65941363 -3 17 C-2.01 16.67 -1.02 16.34 0 16 C0.33 15.34 0.66 14.68 1 14 C0.401875 13.7525 -0.19625 13.505 -0.8125 13.25 C-3.28647521 11.83629988 -4.43370255 10.34944617 -6 8 C-4.375 7.1875 -4.375 7.1875 -2 7 C0.24609835 8.46818136 2.02378677 10.15852858 4 12 C4.33 10.68 4.66 9.36 5 8 C3.02 6.35 1.04 4.7 -1 3 C-0.67 2.01 -0.34 1.02 0 0 Z " fill="#171515" transform="translate(48,171)"/>
<path d="M0 0 C6.95776959 1.36874156 13.38603107 3.4533129 20 6 C19.01 7.485 19.01 7.485 18 9 C16.33333333 9 14.66666667 9 13 9 C11 10 11 10 10 12 C10.165 12.99 10.33 13.98 10.5 15 C10.665 15.99 10.83 16.98 11 18 C9.53125 19.6875 9.53125 19.6875 8 21 C6.26544315 18.26573198 4.56727213 15.51060308 2.875 12.75 C2.38128906 11.97269531 1.88757812 11.19539063 1.37890625 10.39453125 C0.69248047 9.26337891 0.69248047 9.26337891 -0.0078125 8.109375 C-0.65194092 7.07248535 -0.65194092 7.07248535 -1.30908203 6.01464844 C-2 4 -2 4 -1.12451172 1.74316406 C-0.75342285 1.16791992 -0.38233398 0.59267578 0 0 Z " fill="#141313" transform="translate(32,48)"/>
<path d="M0 0 C0.66 0.33 1.32 0.66 2 1 C1.79375 2.051875 1.5875 3.10375 1.375 4.1875 C1.00036896 7.99624887 1.28369933 9.66835752 3 13 C4.65 12.67 6.3 12.34 8 12 C8.66 13.32 9.32 14.64 10 16 C7.43850372 16.50567729 4.87600535 17.00470132 2.3125 17.5 C1.59126953 17.64308594 0.87003906 17.78617188 0.12695312 17.93359375 C-3.63841359 18.65571887 -7.14473813 19.1824976 -11 19 C-11.87109375 16.95703125 -11.87109375 16.95703125 -12 14 C-10.35105097 11.2713176 -8.22530093 9.01833207 -6.0625 6.6875 C-5.48564453 6.04232422 -4.90878906 5.39714844 -4.31445312 4.73242188 C-2.88970766 3.14282983 -1.44656227 1.56976435 0 0 Z " fill="#161515" transform="translate(34,149)"/>
<path d="M0 0 C5.99932374 1.8331267 11.44920563 4.07321751 17 7 C16.67 8.32 16.34 9.64 16 11 C13.36 10.34 10.72 9.68 8 9 C7.01 11.31 6.02 13.62 5 16 C6.98 16.66 8.96 17.32 11 18 C11 19.32 11 20.64 11 22 C6.49272353 21.39733215 3.1412037 19.63400206 -0.8125 17.4375 C-1.40998047 17.10814453 -2.00746094 16.77878906 -2.62304688 16.43945312 C-4.08533998 15.63226733 -5.5431399 14.81695083 -7 14 C-6.67 13.01 -6.34 12.02 -6 11 C-3.36 11.33 -0.72 11.66 2 12 C2.99 10.02 3.98 8.04 5 6 C2.525 5.01 2.525 5.01 0 4 C0 2.68 0 1.36 0 0 Z " fill="#161515" transform="translate(22,62)"/>
<path d="M0 0 C2.69378051 2.51419515 4.44805246 4.67240077 6 8 C6.59167969 7.79503906 7.18335938 7.59007813 7.79296875 7.37890625 C11.83660816 6.0002429 15.76855249 4.68249153 20 4 C19.67 5.65 19.34 7.3 19 9 C14.05 10.485 14.05 10.485 9 12 C11.40436026 15.60654039 12.94679607 15.85452932 17 17 C16.67 18.32 16.34 19.64 16 21 C9.54189755 20.00318287 3.23428168 18.98363508 -3 17 C-2.67 15.68 -2.34 14.36 -2 13 C0.31 13.33 2.62 13.66 5 14 C4.6390625 13.49210937 4.278125 12.98421875 3.90625 12.4609375 C1.01202536 8.16783762 -0.6707301 5.36584077 0 0 Z " fill="#191717" transform="translate(12,82)"/>
<path d="M0 0 C3.1875 0.4375 3.1875 0.4375 6.0625 2.5625 C8.50900834 5.87248188 8.65457789 7.42063013 8.1875 11.4375 C7.1975 11.4375 6.2075 11.4375 5.1875 11.4375 C4.919375 10.468125 4.65125 9.49875 4.375 8.5 C3.983125 7.489375 3.59125 6.47875 3.1875 5.4375 C2.1975 5.1075 1.2075 4.7775 0.1875 4.4375 C0.73473683 7.81212715 1.2424 9.51985 3.1875 12.4375 C3 15.5 3 15.5 2.1875 18.4375 C-0.8125 20.4375 -0.8125 20.4375 -3.75 20.375 C-7.63369199 19.1861147 -8.73819396 17.89467674 -10.8125 14.4375 C-11.5625 11.125 -11.5625 11.125 -11.8125 8.4375 C-10.8225 7.7775 -9.8325 7.1175 -8.8125 6.4375 C-6.52236347 9.8727048 -6.63407027 11.422831 -6.8125 15.4375 C-5.1625 15.4375 -3.5125 15.4375 -1.8125 15.4375 C-2.121875 14.591875 -2.43125 13.74625 -2.75 12.875 C-3.83870853 9.35270768 -4.52972313 6.11359928 -4.8125 2.4375 C-2.8125 0.4375 -2.8125 0.4375 0 0 Z " fill="#121111" transform="translate(180.8125,41.5625)"/>
<path d="M0 0 C0.721875 0.12375 1.44375 0.2475 2.1875 0.375 C2.5175 1.035 2.8475 1.695 3.1875 2.375 C2.8575 3.035 2.5275 3.695 2.1875 4.375 C1.383125 4.643125 0.57875 4.91125 -0.25 5.1875 C-3.04579232 6.15964531 -3.04579232 6.15964531 -4.125 9 C-4.351875 9.78375 -4.57875 10.5675 -4.8125 11.375 C-1.74880455 10.32459013 0.18845662 9.37414149 2.625 7.1875 C5.1875 5.375 5.1875 5.375 8.4375 5.5625 C11.1875 6.375 11.1875 6.375 12.1875 7.375 C12.22852451 11.49386031 12.1551938 15.23450374 9.4375 18.4375 C6.85301808 19.51436747 4.96155951 19.60617163 2.1875 19.375 C2.375 17.5 2.375 17.5 3.1875 15.375 C5.75 14.125 5.75 14.125 8.1875 13.375 C8.1875 12.385 8.1875 11.395 8.1875 10.375 C4.59073514 11.59327419 4.59073514 11.59327419 1.75 14 C0.1875 15.375 0.1875 15.375 -2.875 15.6875 C-5.8125 15.375 -5.8125 15.375 -7.8125 13.375 C-8.38602504 9.11452825 -8.20792713 6.3570356 -5.625 2.9375 C-2.8125 0.375 -2.8125 0.375 0 0 Z " fill="#171616" transform="translate(188.8125,150.625)"/>
<path d="M0 0 C1.91796875 0.1484375 1.91796875 0.1484375 4 1 C6.76996492 5.34210718 8 9.8227371 8 14.9375 C7 18 7 18 5.4375 19.875 C1.83096526 21.5395545 -1.00437841 21.87315487 -5 22 C-8.0301243 19.82509327 -9.00242358 16.99333516 -10.25 13.5625 C-10.60578125 12.61503906 -10.9615625 11.66757812 -11.328125 10.69140625 C-12.01466386 7.94125929 -11.96622898 6.61996705 -11 4 C-10.01 4 -9.02 4 -8 4 C-7.72285156 4.85464844 -7.44570312 5.70929687 -7.16015625 6.58984375 C-6.79792969 7.69457031 -6.43570313 8.79929687 -6.0625 9.9375 C-5.70285156 11.03964844 -5.34320313 12.14179688 -4.97265625 13.27734375 C-4.26143332 15.88123475 -4.26143332 15.88123475 -3 17 C-1.33382885 17.04063832 0.33388095 17.042721 2 17 C3.49828872 13.11764181 2.43110582 10.56550712 1.0625 6.75 C0.68222656 5.67234375 0.30195312 4.5946875 -0.08984375 3.484375 C-0.39019531 2.66453125 -0.69054687 1.8446875 -1 1 C-0.67 0.67 -0.34 0.34 0 0 Z " fill="#1A1818" transform="translate(81,15)"/>
<path d="M0 0 C1.41791408 0.45445964 2.83428046 0.91374944 4.25 1.375 C5.43335938 1.75785156 5.43335938 1.75785156 6.640625 2.1484375 C8.86627958 2.95173667 10.90931672 3.89711662 13 5 C13 5.99 13 6.98 13 8 C9.1936543 7.32829194 5.64793184 6.27253436 2 5 C1.67 6.32 1.34 7.64 1 9 C3.97 9.99 6.94 10.98 10 12 C9.67 12.99 9.34 13.98 9 15 C5.7 14.01 2.4 13.02 -1 12 C-1.33 13.65 -1.66 15.3 -2 17 C-1.2575 17.12375 -0.515 17.2475 0.25 17.375 C2.80141485 17.95486701 4.7267573 18.73708739 7 20 C7 20.99 7 21.98 7 23 C1.93001981 22.34580901 -2.41990777 20.1453591 -7 18 C-5.06375702 11.79522136 -2.74390859 5.89174281 0 0 Z " fill="#161515" transform="translate(144,17)"/>
<path d="M0 0 C1.32 0 2.64 0 4 0 C4.66 4.29 5.32 8.58 6 13 C6.9075 11.35 7.815 9.7 8.75 8 C10.296875 5.1875 10.296875 5.1875 12 3 C13.32 3 14.64 3 16 3 C14.65072455 7.53847198 12.80840652 11.31932246 10.375 15.375 C9.74335938 16.43460938 9.11171875 17.49421875 8.4609375 18.5859375 C7.97882813 19.38257812 7.49671875 20.17921875 7 21 C5.35 20.67 3.7 20.34 2 20 C0.74158054 13.25846717 -0.26404456 6.86515862 0 0 Z " fill="#232121" transform="translate(123,12)"/>
<path d="M0 0 C1.796875 0.19140625 1.796875 0.19140625 4 1 C5.703125 3.21484375 5.703125 3.21484375 7.25 5.9375 C7.77078125 6.83339844 8.2915625 7.72929687 8.828125 8.65234375 C10 11 10 11 10 13 C11.98 12.01 13.96 11.02 16 10 C16 11.32 16 12.64 16 14 C13.6640625 15.921875 13.6640625 15.921875 10.625 17.75 C9.12839844 18.67039063 9.12839844 18.67039063 7.6015625 19.609375 C5 21 5 21 3 21 C2.67 20.01 2.34 19.02 2 18 C3.32 16.68 4.64 15.36 6 14 C5.22462891 12.86111328 5.22462891 12.86111328 4.43359375 11.69921875 C3.77488281 10.70535156 3.11617187 9.71148437 2.4375 8.6875 C1.77621094 7.70136719 1.11492187 6.71523437 0.43359375 5.69921875 C-0.27603516 4.36310547 -0.27603516 4.36310547 -1 3 C-0.67 2.01 -0.34 1.02 0 0 Z " fill="#1D1B1B" transform="translate(153,185)"/>
<path d="M0 0 C0.66 0.33 1.32 0.66 2 1 C1.42647107 4.87132028 -0.48704352 7.08172796 -3 10 C-0.36 10.99 2.28 11.98 5 13 C4.67 14.32 4.34 15.64 4 17 C3.38253906 16.7834375 2.76507813 16.566875 2.12890625 16.34375 C-3.83640307 14.38255242 -8.72880367 13.69655502 -15 14 C-15.33 12.68 -15.66 11.36 -16 10 C-14.2675 9.7525 -14.2675 9.7525 -12.5 9.5 C-6.87821649 8.15478752 -3.69071991 4.2207701 0 0 Z " fill="#141212" transform="translate(207,81)"/>
<path d="M0 0 C3 1 3 1 4.60546875 3.94140625 C5.12753906 5.13636719 5.64960938 6.33132812 6.1875 7.5625 C6.71730469 8.76003906 7.24710938 9.95757812 7.79296875 11.19140625 C8.19128906 12.11824219 8.58960938 13.04507813 9 14 C7.68 14.33 6.36 14.66 5 15 C4.01 13.68 3.02 12.36 2 11 C0.73542969 11.6496875 0.73542969 11.6496875 -0.5546875 12.3125 C-1.65039062 12.869375 -2.74609375 13.42625 -3.875 14 C-4.96554688 14.556875 -6.05609375 15.11375 -7.1796875 15.6875 C-10 17 -10 17 -12 17 C-12.33 15.68 -12.66 14.36 -13 13 C-11.04414675 11.99515796 -9.08523763 10.99626195 -7.125 10 C-6.03445312 9.443125 -4.94390625 8.88625 -3.8203125 8.3125 C-1 7 -1 7 1 7 C0.34 5.02 -0.32 3.04 -1 1 C-0.67 0.67 -0.34 0.34 0 0 Z " fill="#121111" transform="translate(198,63)"/>
<path d="M0 0 C1.32 0.66 2.64 1.32 4 2 C2.35 6.95 0.7 11.9 -1 17 C0.65 17.33 2.3 17.66 4 18 C4 18.99 4 19.98 4 21 C-1.45479185 20.43179252 -5.91059256 19.05362055 -11 17 C-11 16.01 -11 15.02 -11 14 C-9.02 14 -7.04 14 -5 14 C-4.72285156 13.07316406 -4.44570312 12.14632812 -4.16015625 11.19140625 C-3.79792969 9.99386719 -3.43570313 8.79632813 -3.0625 7.5625 C-2.52302734 5.77005859 -2.52302734 5.77005859 -1.97265625 3.94140625 C-1 1 -1 1 0 0 Z " fill="#1D1C1C" transform="translate(84,193)"/>
<path d="M0 0 C3.5 0.8125 3.5 0.8125 5.4375 2.0625 C6.89100294 4.45650485 6.85256314 6.0625075 6.5 8.8125 C4.5 10.8125 4.5 10.8125 0.5625 11.125 C-1.98435809 11.0464218 -3.25704973 10.94915953 -5.5 9.6875 C-6.97271848 6.92615285 -6.89191116 4.88247072 -6.5 1.8125 C-3.5 -0.1875 -3.5 -0.1875 0 0 Z " fill="#F8F8F8" transform="translate(199.5,136.1875)"/>
<path d="M0 0 C1.17293889 6.3778552 2.29530838 12.50321562 2 19 C0.68 19.33 -0.64 19.66 -2 20 C-2.66 14.72 -3.32 9.44 -4 4 C-7.3 4.33 -10.6 4.66 -14 5 C-14 4.01 -14 3.02 -14 2 C-12.4176994 1.66179834 -10.83410625 1.32964061 -9.25 1 C-8.36828125 0.814375 -7.4865625 0.62875 -6.578125 0.4375 C-4 0 -4 0 0 0 Z " fill="#141313" transform="translate(131,195)"/>
<path d="M0 0 C2 3 2 3 2 6 C2.66 5.67 3.32 5.34 4 5 C4 3.68 4 2.36 4 1 C8.875 1.875 8.875 1.875 10 3 C10.375 5.3125 10.375 5.3125 10 8 C7.32308441 10.91311402 5.7614494 11.91041772 1.8125 12.375 C-1 12 -1 12 -3 10 C-3.33333333 4.66666667 -3.33333333 4.66666667 -2 2 C-1.34 2 -0.68 2 0 2 C0 1.34 0 0.68 0 0 Z " fill="#EEEEEE" transform="translate(19,136)"/>
<path d="M0 0 C6.27 0.33 12.54 0.66 19 1 C19 2.32 19 3.64 19 5 C16.69 5 14.38 5 12 5 C12 7.64 12 10.28 12 13 C11.67 13 11.34 13 11 13 C10.67 10.69 10.34 8.38 10 6 C9.01 7.485 9.01 7.485 8 9 C8 7.68 8 6.36 8 5 C5.36 5 2.72 5 0 5 C0 3.35 0 1.7 0 0 Z " fill="#333232" transform="translate(194,111)"/>
<path d="M0 0 C1.32 0 2.64 0 4 0 C4.66 6.6 5.32 13.2 6 20 C4.35 20 2.7 20 1 20 C0.34 17.69 -0.32 15.38 -1 13 C-0.34 13 0.32 13 1 13 C0.835 12.34 0.67 11.68 0.5 11 C-0.12183299 7.26900206 -0.06408926 3.78126622 0 0 Z " fill="#191818" transform="translate(104,11)"/>
<path d="M0 0 C0.99 0.66 1.98 1.32 3 2 C2.34 2 1.68 2 1 2 C0.34 4.31 -0.32 6.62 -1 9 C0.73575649 9.87436418 0.73575649 9.87436418 3 10 C5.63624434 8.10770734 5.63624434 8.10770734 8 6 C8.66 6 9.32 6 10 6 C8.54685114 9.39068068 6.9594592 11.76040926 4 14 C0.375 14.375 0.375 14.375 -3 14 C-5 12 -5 12 -5.4375 8.6875 C-4.89859263 4.14528078 -3.45743005 2.85237979 0 0 Z " fill="#1B1919" transform="translate(180,172)"/>
<path d="M0 0 C4.58716587 4.44381694 8.78762713 9.20228499 13 14 C12.67 14.99 12.34 15.98 12 17 C8.64815577 16.75722624 7.79196679 15.78030433 5.421875 13.27734375 C4.52159636 12.17185454 3.6312214 11.05823943 2.75 9.9375 C2.29109375 9.36966797 1.8321875 8.80183594 1.359375 8.21679688 C0.23099852 6.8180802 -0.8856663 5.40992986 -2 4 C-1.34 2.68 -0.68 1.36 0 0 Z " fill="#1B1919" transform="translate(164,177)"/>
<path d="M0 0 C1.5 1.125 1.5 1.125 3 3 C3.1875 6.1875 3.1875 6.1875 3 9 C5.97 9.495 5.97 9.495 9 10 C9 8.35 9 6.7 9 5 C10.32 5.33 11.64 5.66 13 6 C12.6875 8.875 12.6875 8.875 12 12 C9 14 9 14 6.0625 13.9375 C2.17880801 12.7486147 1.07430604 11.45717674 -1 8 C-1.875 4.8125 -1.875 4.8125 -2 2 C-1.34 1.34 -0.68 0.68 0 0 Z " fill="#191818" transform="translate(171,48)"/>
<path d="M0 0 C1.01953125 1.64453125 1.01953125 1.64453125 1.01953125 2.64453125 C-1.54196503 3.15020854 -4.1044634 3.64923257 -6.66796875 4.14453125 C-7.74981445 4.35916016 -7.74981445 4.35916016 -8.85351562 4.578125 C-12.61888234 5.30025012 -16.12520688 5.82702885 -19.98046875 5.64453125 C-20.31046875 3.99453125 -20.64046875 2.34453125 -20.98046875 0.64453125 C-19.66046875 0.31453125 -18.34046875 -0.01546875 -16.98046875 -0.35546875 C-16.98046875 0.30453125 -16.98046875 0.96453125 -16.98046875 1.64453125 C-15.93246094 1.39316406 -14.88445313 1.14179688 -13.8046875 0.8828125 C-12.4259854 0.57330795 -11.0470674 0.26476401 -9.66796875 -0.04296875 C-8.97767578 -0.21119141 -8.28738281 -0.37941406 -7.57617188 -0.55273438 C-2.43923842 -1.66945904 -2.43923842 -1.66945904 0 0 Z " fill="#121111" transform="translate(42.98046875,162.35546875)"/>
<path d="M0 0 C0.33 0.99 0.66 1.98 1 3 C0.32453125 3.47050781 -0.3509375 3.94101562 -1.046875 4.42578125 C-1.93890625 5.04839844 -2.8309375 5.67101563 -3.75 6.3125 C-4.63171875 6.92738281 -5.5134375 7.54226562 -6.421875 8.17578125 C-8.02942603 9.31324539 -9.60917023 10.49244966 -11.140625 11.73046875 C-13 13 -13 13 -16 13 C-16.33 12.01 -16.66 11.02 -17 10 C-14.73518493 8.32457538 -12.46385674 6.65960984 -10.1875 5 C-9.54490234 4.52304687 -8.90230469 4.04609375 -8.24023438 3.5546875 C-7.61826172 3.10351562 -6.99628906 2.65234375 -6.35546875 2.1875 C-5.78465576 1.76855469 -5.21384277 1.34960938 -4.62573242 0.91796875 C-3 0 -3 0 0 0 Z " fill="#181717" transform="translate(196,56)"/>
<path d="M0 0 C0.66 0 1.32 0 2 0 C2 7.26 2 14.52 2 22 C0.02 22 -1.96 22 -4 22 C-5.875 20.125 -5.875 20.125 -7 18 C-7 17.34 -7 16.68 -7 16 C-6.34 15.67 -5.68 15.34 -5 15 C-5.66 13.68 -6.32 12.36 -7 11 C-5.35 10.67 -3.7 10.34 -2 10 C-2 12.31 -2 14.62 -2 17 C-1.34 17 -0.68 17 0 17 C0 11.39 0 5.78 0 0 Z " fill="#565555" transform="translate(148,188)"/>
<path d="M0 0 C1.32 0 2.64 0 4 0 C4.0272616 2.04159095 4.04651345 4.08328963 4.0625 6.125 C4.07410156 7.26195312 4.08570312 8.39890625 4.09765625 9.5703125 C4.005327 12.8129156 3.61389906 15.81932612 3 19 C1.68 19 0.36 19 -1 19 C-0.67 12.73 -0.34 6.46 0 0 Z " fill="#151414" transform="translate(114,12)"/>
<path d="M0 0 C0 1.32 0 2.64 0 4 C-1.32 4.33 -2.64 4.66 -4 5 C-4.33 7.31 -4.66 9.62 -5 12 C-5.33 12 -5.66 12 -6 12 C-6 10.35 -6 8.7 -6 7 C-6.763125 7.33 -7.52625 7.66 -8.3125 8 C-11 9 -11 9 -14 9 C-14.33 9.66 -14.66 10.32 -15 11 C-15.66 10.67 -16.32 10.34 -17 10 C-17 9.01 -17 8.02 -17 7 C-14.54379149 5.82866942 -12.08525083 4.66278278 -9.625 3.5 C-8.92632812 3.16613281 -8.22765625 2.83226563 -7.5078125 2.48828125 C-2.2265625 0 -2.2265625 0 0 0 Z " fill="#191818" transform="translate(27,112)"/>
<path d="M0 0 C2.31 0.66 4.62 1.32 7 2 C6.79375 2.680625 6.5875 3.36125 6.375 4.0625 C5.89936171 7.78833331 6.82330851 10.46992554 8 14 C7.01 14.99 6.02 15.98 5 17 C3.99193149 15.40089132 2.99379615 13.79551738 2 12.1875 C1.443125 11.29417969 0.88625 10.40085937 0.3125 9.48046875 C-1 7 -1 7 -1 4 C-0.34 4 0.32 4 1 4 C0.67 2.68 0.34 1.36 0 0 Z " fill="#191717" transform="translate(35,52)"/>
<path d="M0 0 C0.66 0.165 1.32 0.33 2 0.5 C5.73934485 1.12322414 9.2068487 1.06117986 13 1 C13.99 1 14.98 1 16 1 C16 1.99 16 2.98 16 4 C11.97239992 6.68506672 8.72890707 6.5633716 4 6 C1.4375 4.6875 1.4375 4.6875 0 3 C0 2.01 0 1.02 0 0 Z " fill="#171515" transform="translate(191,145)"/>
<path d="M0 0 C-0.33 1.32 -0.66 2.64 -1 4 C-0.401875 4.28875 0.19625 4.5775 0.8125 4.875 C3 6 3 6 6 8 C2.65747276 8.07427838 0.1964086 8.06546953 -3 7 C-4.65 8.65 -6.3 10.3 -8 12 C-8.99 11.01 -9.98 10.02 -11 9 C-3.8 0 -3.8 0 0 0 Z " fill="#181717" transform="translate(163,32)"/>
<path d="M0 0 C4.55555556 0.55555556 4.55555556 0.55555556 6 2 C6.1875 4.4375 6.1875 4.4375 6 7 C5.34 7.66 4.68 8.32 4 9 C-0.55555556 8.44444444 -0.55555556 8.44444444 -2 7 C-2.1875 4.5625 -2.1875 4.5625 -2 2 C-1.34 1.34 -0.68 0.68 0 0 Z " fill="#1E1D1D" transform="translate(104,203)"/>
<path d="M0 0 C2.90365755 0.31390892 4.60838706 0.67365588 6.875 2.5625 C8.58712094 6.27209537 7.72965684 9.0200536 7 13 C6.01 13 5.02 13 4 13 C3.938125 11.9275 3.87625 10.855 3.8125 9.75 C3.33854041 5.86468039 3.33854041 5.86468039 0.4375 3.5625 C-0.366875 3.046875 -1.17125 2.53125 -2 2 C-1.34 2 -0.68 2 0 2 C0 1.34 0 0.68 0 0 Z " fill="#1E1D1D" transform="translate(202,134)"/>
<path d="M0 0 C0.99 0.33 1.98 0.66 3 1 C3.98248524 5.0527516 4.08159574 8.83861737 4 13 C2.68 13.33 1.36 13.66 0 14 C-0.77916092 8.97874074 -1.13016601 5.02296004 0 0 Z " fill="#181717" transform="translate(129,201)"/>
<path d="M0 0 C0 0.99 0 1.98 0 3 C-1.28913487 3.67154933 -2.58140204 4.33708859 -3.875 5 C-4.59429687 5.37125 -5.31359375 5.7425 -6.0546875 6.125 C-8 7 -8 7 -10 7 C-10.33 5.68 -10.66 4.36 -11 3 C-9.73581754 2.30034557 -8.46334598 1.61565237 -7.1875 0.9375 C-6.47980469 0.55464844 -5.77210938 0.17179687 -5.04296875 -0.22265625 C-3 -1 -3 -1 0 0 Z " fill="#1C1A1A" transform="translate(196,73)"/>
<path d="M0 0 C1.32 0 2.64 0 4 0 C4.08114106 1.77007714 4.13925505 3.54122098 4.1875 5.3125 C4.22230469 6.29863281 4.25710937 7.28476562 4.29296875 8.30078125 C4 11 4 11 2.48828125 12.85546875 C1.99714844 13.23316406 1.50601563 13.61085938 1 14 C0.04738513 9.23692563 -0.08333357 4.8333472 0 0 Z " fill="#141313" transform="translate(123,12)"/>
<path d="M0 0 C2.5 1.25 2.5 1.25 5 3 C5 4.32 5 5.64 5 7 C3.25 7.6875 3.25 7.6875 1 8 C-1.25 6.5625 -1.25 6.5625 -3 5 C-1.125 1.125 -1.125 1.125 0 0 Z " fill="#EFEFEF" transform="translate(165,31)"/>
<path d="M0 0 C1.32 0.66 2.64 1.32 4 2 C4 3.32 4 4.64 4 6 C3.34 6.66 2.68 7.32 2 8 C-0.0625 7.8125 -0.0625 7.8125 -2 7 C-2.33 6.01 -2.66 5.02 -3 4 C-1.5625 1.8125 -1.5625 1.8125 0 0 Z " fill="#ECECEC" transform="translate(181,175)"/>
<path d="M0 0 C1.32 0.33 2.64 0.66 4 1 C3.6875 3.875 3.6875 3.875 3 7 C0 9 0 9 -2.6875 8.625 C-3.450625 8.41875 -4.21375 8.2125 -5 8 C-5 7.01 -5 6.02 -5 5 C-3.35 5 -1.7 5 0 5 C0 3.35 0 1.7 0 0 Z " fill="#232121" transform="translate(180,53)"/>
<path d="M0 0 C0 1.32 0 2.64 0 4 C-1.32 4.33 -2.64 4.66 -4 5 C-4.33 7.31 -4.66 9.62 -5 12 C-5.33 12 -5.66 12 -6 12 C-6 10.02 -6 8.04 -6 6 C-6.66 5.67 -7.32 5.34 -8 5 C-3.16129032 0 -3.16129032 0 0 0 Z " fill="#0B0A0A" transform="translate(27,112)"/>
<path d="M0 0 C3 1 3 1 4.1875 2.625 C5.27499354 5.80382728 5.1282071 8.66661533 5 12 C3.68 12 2.36 12 1 12 C0.67 8.04 0.34 4.08 0 0 Z " fill="#191818" transform="translate(92,20)"/>
<path d="M0 0 C-0.33 2.97 -0.66 5.94 -1 9 C-1.66 9 -2.32 9 -3 9 C-3.33 9.99 -3.66 10.98 -4 12 C-4.24954005 10.56589632 -4.47392642 9.12739928 -4.6875 7.6875 C-4.81511719 6.88699219 -4.94273438 6.08648437 -5.07421875 5.26171875 C-5 3 -5 3 -3.64453125 1.20703125 C-2 0 -2 0 0 0 Z " fill="#2E2D2D" transform="translate(17,136)"/>
<path d="M0 0 C2 2 2 2 2 5 C1.01 5 0.02 5 -1 5 C-0.67 6.32 -0.34 7.64 0 9 C-0.99 9.33 -1.98 9.66 -3 10 C-3.66 7.36 -4.32 4.72 -5 2 C-3.35 1.34 -1.7 0.68 0 0 Z " fill="#1F1E1E" transform="translate(24,132)"/>
<path d="M0 0 C0.99 0 1.98 0 3 0 C3.75 2.1875 3.75 2.1875 4 5 C2.0625 7.8125 2.0625 7.8125 0 10 C-0.66 9.67 -1.32 9.34 -2 9 C-1.34 6.03 -0.68 3.06 0 0 Z " fill="#191717" transform="translate(165,41)"/>
<path d="M0 0 C1.32 0.66 2.64 1.32 4 2 C3.01 4.97 2.02 7.94 1 11 C0.67 10.01 0.34 9.02 0 8 C-0.66 8 -1.32 8 -2 8 C-1.125 1.125 -1.125 1.125 0 0 Z " fill="#141313" transform="translate(84,193)"/>
<path d="M0 0 C5.28 0.33 10.56 0.66 16 1 C16 1.33 16 1.66 16 2 C13.94921875 2.22786458 11.8984375 2.45572917 9.84765625 2.68359375 C7.98859771 2.81886614 7.98859771 2.81886614 7 4 C4.66702567 4.04092937 2.33294775 4.04241723 0 4 C0 2.68 0 1.36 0 0 Z " fill="#0E0D0D" transform="translate(194,111)"/>
<path d="M0 0 C1.32 0 2.64 0 4 0 C2.79157144 4.43090471 1.48331435 6.98112756 -2 10 C-3.39195915 5.82412255 -1.82323219 3.86525224 0 0 Z " fill="#131212" transform="translate(135,15)"/>
<path d="M0 0 C0.99 0 1.98 0 3 0 C1.55134433 3.38019657 -0.08219573 5.73059668 -3 8 C-6.25 8.25 -6.25 8.25 -9 8 C-6.86447403 4.79671105 -5.26767874 3.87891527 -2 2 C-1.34 1.34 -0.68 0.68 0 0 Z " fill="#0A0909" transform="translate(187,178)"/>
<path d="M0 0 C0.33 0.66 0.66 1.32 1 2 C3.52733235 2.65555119 3.52733235 2.65555119 6 3 C5.01 3.33 4.02 3.66 3 4 C3 4.66 3 5.32 3 6 C1.35 6 -0.3 6 -2 6 C-2.33 4.35 -2.66 2.7 -3 1 C-2.01 0.67 -1.02 0.34 0 0 Z " fill="#161515" transform="translate(25,162)"/>
<path d="M0 0 C3.37462715 0.54723683 5.08235 1.0549 8 3 C7.01 3.99 6.02 4.98 5 6 C3.02 5.01 1.04 4.02 -1 3 C-0.67 2.01 -0.34 1.02 0 0 Z " fill="#1A1919" transform="translate(16,73)"/>
<path d="M0 0 C0.75 1.75 0.75 1.75 1 4 C-1.21867135 6.77333918 -2.60620325 7.86873442 -6 9 C-6 8.34 -6 7.68 -6 7 C-7.32 6.67 -8.64 6.34 -10 6 C-8.35 6 -6.7 6 -5 6 C-4.67 5.34 -4.34 4.68 -4 4 C-2.68671343 2.64691687 -1.35500919 1.31129922 0 0 Z " fill="#282727" transform="translate(174,34)"/>
<path d="M0 0 C0.78375 0.04125 1.5675 0.0825 2.375 0.125 C2.705 0.785 3.035 1.445 3.375 2.125 C2.375 4.125 2.375 4.125 -0.6875 5.25 C-2.1415625 5.683125 -2.1415625 5.683125 -3.625 6.125 C-4.25 4.25 -4.25 4.25 -4.625 2.125 C-2.625 0.125 -2.625 0.125 0 0 Z " fill="#1E1D1D" transform="translate(188.625,150.875)"/>
<path d="M0 0 C2 1 2 1 3.1875 3.125 C4.20156877 6.71324334 3.71075869 9.37513066 3 13 C1 10 1 10 1 8 C0.34 7.67 -0.32 7.34 -1 7 C-0.67 4.69 -0.34 2.38 0 0 Z " fill="#252323" transform="translate(85,20)"/>
<path d="M0 0 C3.25061904 0.43341587 4.95502089 1.44377611 7 4 C7 4.66 7 5.32 7 6 C6.01 6.33 5.02 6.66 4 7 C2.35 5.02 0.7 3.04 -1 1 C-0.67 0.67 -0.34 0.34 0 0 Z " fill="#242323" transform="translate(43,178)"/>
<path d="M0 0 C0.804375 0.4640625 0.804375 0.4640625 1.625 0.9375 C4.3984957 2.17827439 7.00042837 2.5909675 10 3 C9.01 3.495 9.01 3.495 8 4 C7.67 4.66 7.34 5.32 7 6 C4.625 6.125 4.625 6.125 2 6 C1.34 5.34 0.68 4.68 0 4 C0 2.68 0 1.36 0 0 Z " fill="#121111" transform="translate(14,145)"/>
<path d="M0 0 C2.64 0.33 5.28 0.66 8 1 C7.67 2.32 7.34 3.64 7 5 C4.69 4.34 2.38 3.68 0 3 C0 2.01 0 1.02 0 0 Z " fill="#171515" transform="translate(73,207)"/>
<path d="M0 0 C3.65316671 1.24976756 4.78065836 1.67098753 7 5 C5.25 5.6875 5.25 5.6875 3 6 C0.75 4.5625 0.75 4.5625 -1 3 C-0.67 2.01 -0.34 1.02 0 0 Z " fill="#1F1E1E" transform="translate(48,171)"/>
<path d="M0 0 C0.66 0.33 1.32 0.66 2 1 C1.67 3.31 1.34 5.62 1 8 C0.34 8 -0.32 8 -1 8 C-1.33 8.66 -1.66 9.32 -2 10 C-2.25 3.375 -2.25 3.375 0 0 Z " fill="#0F0F0F" transform="translate(183,154)"/>
<path d="M0 0 C0.66 0.33 1.32 0.66 2 1 C1.67 2.65 1.34 4.3 1 6 C0.38125 6.144375 -0.2375 6.28875 -0.875 6.4375 C-3.03258322 6.93152225 -3.03258322 6.93152225 -5 8 C-3.8141763 4.62496331 -2.72426311 2.35277269 0 0 Z " fill="#1C1B1B" transform="translate(34,149)"/>
<path d="M0 0 C2.31 0.33 4.62 0.66 7 1 C6.01 1.495 6.01 1.495 5 2 C5 2.66 5 3.32 5 4 C2.69 4 0.38 4 -2 4 C-2 3.34 -2 2.68 -2 2 C-1.34 2 -0.68 2 0 2 C0 1.34 0 0.68 0 0 Z " fill="#0C0B0B" transform="translate(197,132)"/>
<path d="M0 0 C0 1.65 0 3.3 0 5 C-2.31 4.67 -4.62 4.34 -7 4 C-7 3.34 -7 2.68 -7 2 C-2.25 0 -2.25 0 0 0 Z " fill="#CDCDCD" transform="translate(21,119)"/>
<path d="M0 0 C0.66 0.66 1.32 1.32 2 2 C1.625 4.625 1.625 4.625 1 7 C-0.65 7.33 -2.3 7.66 -4 8 C-4 7.01 -4 6.02 -4 5 C-3.01 4.34 -2.02 3.68 -1 3 C-0.67 2.01 -0.34 1.02 0 0 Z " fill="#0D0B0B" transform="translate(85,28)"/>
<path d="M0 0 C2.97 0.495 2.97 0.495 6 1 C5.67 2.65 5.34 4.3 5 6 C3.35 5.67 1.7 5.34 0 5 C0 3.35 0 1.7 0 0 Z " fill="#323131" transform="translate(8,120)"/>
<path d="M0 0 C1.32 0.33 2.64 0.66 4 1 C4 2.98 4 4.96 4 7 C3.01 7 2.02 7 1 7 C0 2.25 0 2.25 0 0 Z " fill="#0B0A0A" transform="translate(185,46)"/>
<path d="M0 0 C0 2.31 0 4.62 0 7 C-1.32 7.33 -2.64 7.66 -4 8 C-3.74438677 5.6568787 -3.40729228 3.32156597 -3 1 C-1 0 -1 0 0 0 Z " fill="#212020" transform="translate(133,207)"/>
<path d="M0 0 C1.32 0 2.64 0 4 0 C3.34 1.98 2.68 3.96 2 6 C0.68 5.67 -0.64 5.34 -2 5 C-1.34 3.35 -0.68 1.7 0 0 Z " fill="#111010" transform="translate(66,201)"/>
<path d="M0 0 C0 2.31 0 4.62 0 7 C-1.7074998 5.71937515 -3.37373596 4.38232443 -5 3 C-5 2.34 -5 1.68 -5 1 C-3 0 -3 0 0 0 Z " fill="#DFDFDF" transform="translate(146,198)"/>
<path d="M0 0 C1.5 1.375 1.5 1.375 3 3 C3 3.66 3 4.32 3 5 C0.69 5.33 -1.62 5.66 -4 6 C-2.68 4.02 -1.36 2.04 0 0 Z " fill="#D9D9D9" transform="translate(31,158)"/>
<path d="M0 0 C2.97 0.495 2.97 0.495 6 1 C5.01 1.495 5.01 1.495 4 2 C4 2.66 4 3.32 4 4 C4.99 4.33 5.98 4.66 7 5 C4.36 4.67 1.72 4.34 -1 4 C-0.67 2.68 -0.34 1.36 0 0 Z " fill="#0E0D0D" transform="translate(10,95)"/>
<path d="M0 0 C2.31 0.66 4.62 1.32 7 2 C5.25 5.875 5.25 5.875 3 7 C0 2.25 0 2.25 0 0 Z " fill="#D8D8D8" transform="translate(35,52)"/>
<path d="M0 0 C0.66 0.33 1.32 0.66 2 1 C1.25 2.9375 1.25 2.9375 0 5 C-2.125 5.75 -2.125 5.75 -4 6 C-4.33 5.01 -4.66 4.02 -5 3 C-2.625 1.4375 -2.625 1.4375 0 0 Z " fill="#131212" transform="translate(168,195)"/>
<path d="M0 0 C0.66 0.33 1.32 0.66 2 1 C1.67 3.64 1.34 6.28 1 9 C0.01 9 -0.98 9 -2 9 C-1.34 6.03 -0.68 3.06 0 0 Z " fill="#2B2A2A" transform="translate(208,138)"/>
<path d="M0 0 C0.99 0.99 1.98 1.98 3 3 C2.01 3.495 2.01 3.495 1 4 C1 4.99 1 5.98 1 7 C0.01 7 -0.98 7 -2 7 C-2.125 4.625 -2.125 4.625 -2 2 C-1.34 1.34 -0.68 0.68 0 0 Z " fill="#1D1C1C" transform="translate(178,42)"/>
<path d="M0 0 C1.98 0.66 3.96 1.32 6 2 C6 2.99 6 3.98 6 5 C1.25 4.125 1.25 4.125 -1 3 C-0.67 2.01 -0.34 1.02 0 0 Z " fill="#0D0C0C" transform="translate(151,20)"/>
<path d="M0 0 C0.99 0.66 1.98 1.32 3 2 C2.34 2 1.68 2 1 2 C0.71125 2.78375 0.4225 3.5675 0.125 4.375 C-1 7 -1 7 -3 9 C-3.75 6.75 -3.75 6.75 -4 4 C-2.0625 1.6875 -2.0625 1.6875 0 0 Z " fill="#0F0E0E" transform="translate(180,172)"/>
<path d="M0 0 C1.32 0.66 2.64 1.32 4 2 C3.01 3.32 2.02 4.64 1 6 C0.67 5.34 0.34 4.68 0 4 C-0.99 4 -1.98 4 -3 4 C-2.01 2.68 -1.02 1.36 0 0 Z " fill="#1F1E1E" transform="translate(73,189)"/>
<path d="M0 0 C2.31 0.66 4.62 1.32 7 2 C6.67 2.99 6.34 3.98 6 5 C4.02 4.34 2.04 3.68 0 3 C0 2.01 0 1.02 0 0 Z " fill="#0F0E0E" transform="translate(147,27)"/>
<path d="M0 0 C1.32 0.33 2.64 0.66 4 1 C2.515 4.465 2.515 4.465 1 8 C0.67 8 0.34 8 0 8 C0 5.36 0 2.72 0 0 Z " fill="#2F2E2E" transform="translate(104,11)"/>
<path d="M0 0 C0 0.33 0 0.66 0 1 C-3.3 1.33 -6.6 1.66 -10 2 C-10 1.01 -10 0.02 -10 -1 C-6.18510326 -2.46726798 -3.70988378 -1.43336419 0 0 Z " fill="#070606" transform="translate(38,165)"/>
<path d="M0 0 C0.66 0.33 1.32 0.66 2 1 C1.67 2.32 1.34 3.64 1 5 C-0.65 5.33 -2.3 5.66 -4 6 C-2.25 1.125 -2.25 1.125 0 0 Z " fill="#0E0D0D" transform="translate(30,86)"/>
<path d="M0 0 C0.33 0 0.66 0 1 0 C1.125 3.375 1.125 3.375 1 7 C0.34 7.66 -0.32 8.32 -1 9 C-1.66 8.67 -2.32 8.34 -3 8 C-1.125 2.25 -1.125 2.25 0 0 Z " fill="#0D0C0C" transform="translate(27,68)"/>
<path d="M0 0 C0.66 0 1.32 0 2 0 C1.45276317 3.37462715 0.9451 5.08235 -1 8 C-1.625 5.125 -1.625 5.125 -2 2 C-1.34 1.34 -0.68 0.68 0 0 Z " fill="#0C0B0B" transform="translate(15,136)"/>
<path d="M0 0 C0.66 0.33 1.32 0.66 2 1 C2 3.31 2 5.62 2 8 C1.01 8 0.02 8 -1 8 C-0.67 5.36 -0.34 2.72 0 0 Z " fill="#0C0A0A" transform="translate(203,116)"/>
<path d="M0 0 C2.475 0.495 2.475 0.495 5 1 C4.67 2.32 4.34 3.64 4 5 C2.68 4.34 1.36 3.68 0 3 C0 2.01 0 1.02 0 0 Z " fill="#1B1919" transform="translate(207,93)"/>
<path d="M0 0 C1.32 1.32 2.64 2.64 4 4 C3.34 5.32 2.68 6.64 2 8 C0 6 0 6 -0.125 2.875 C-0.08375 1.92625 -0.0425 0.9775 0 0 Z " fill="#252424" transform="translate(12,82)"/>
<path d="M0 0 C2.475 0.495 2.475 0.495 5 1 C5.33 1.99 5.66 2.98 6 4 C4.68 4.33 3.36 4.66 2 5 C1.34 3.35 0.68 1.7 0 0 Z " fill="#1F1D1D" transform="translate(201,73)"/>
<path d="M0 0 C1.32 0 2.64 0 4 0 C4.33 1.65 4.66 3.3 5 5 C4.67 4.34 4.34 3.68 4 3 C3.34 3 2.68 3 2 3 C1.67 3.66 1.34 4.32 1 5 C0.67 3.35 0.34 1.7 0 0 Z " fill="#121111" transform="translate(71,26)"/>
</svg>
