<svg width="1200" height="400" viewBox="0 0 1200 400" fill="none" xmlns="http://www.w3.org/2000/svg">
<path d="M36.6994 64.6341C37.1564 65.439 37.6134 66.2439 38.0842 67.0732C36.5228 70.1027 34.8753 73.0344 33.1506 75.9909C11.9778 114.086 9.0769 159.102 20.0808 200C20.3555 201.03 20.6302 202.059 20.9132 203.12C29.3701 233.501 46.8463 260.603 69.9365 284.146C70.8773 285.124 71.8181 286.102 72.7874 287.109C78.7542 293.193 85.0101 298.594 92.0946 303.659C94.0601 305.071 94.0601 305.071 96.0654 306.512C146.633 342.148 207.823 354.953 271.669 349.428C277.92 348.73 284.015 347.658 290.133 346.341C291.3 346.093 292.467 345.844 293.669 345.588C333.666 336.798 368.237 320.08 398.153 295.122C399.478 294.034 400.803 292.946 402.167 291.825C441.468 258.897 464.298 210.106 466.5 162.667C467.242 132.614 461.831 103.185 447.252 75.8813C445.71 72.8705 444.551 70.2917 443.855 67.0732C464.753 82.1147 471.049 123.482 473.976 145.579C474.138 147.864 474.244 150.151 474.322 152.439C474.358 153.34 474.393 154.24 474.43 155.168C475.244 178.477 472.823 200.931 464.628 223.171C464.319 224.194 464.01 225.218 463.692 226.272C460.779 235.919 455.8 244.754 450.779 253.659C450.02 255.01 449.262 256.362 448.48 257.755C421.121 304.459 371.552 339.822 315.276 356.478C309.848 358.004 304.377 359.368 298.875 360.671C297.348 361.034 297.348 361.034 295.79 361.405C277.842 365.458 260.262 366.353 241.835 366.311C240.641 366.31 239.448 366.308 238.218 366.307C174.897 366.095 120.113 345.112 74.0912 307.317C72.9808 306.419 71.8704 305.522 70.7263 304.597C45.643 283.532 28.8782 256.539 17.311 228.049C16.4381 225.927 16.4381 225.927 15.5475 223.761C11.4072 212.851 9.45897 201.599 7.61685 190.244C7.358 188.736 7.09914 187.229 6.83244 185.675C1.0856 143.689 12.3335 100.842 36.6994 64.6341Z" fill="black"/>
<path d="M233.353 0C233.353 49.5 233.353 99 233.353 150C218.448 154.922 202.98 158.416 187.651 162.195C187.651 113.5 187.651 64.8049 187.651 14.6341C196.989 10.5228 196.989 10.5228 201.581 9.14634C202.573 8.84451 203.565 8.54268 204.587 8.23171C206.101 7.77896 206.101 7.77896 207.646 7.31707C213.467 5.56725 219.214 3.8149 224.832 1.60061C229.198 0 229.198 0 233.353 0Z" fill="black"/>
<path d="M245.817 0C251.412 0.985426 255.932 2.16547 261.196 3.96341C263.581 4.77458 263.581 4.77458 266.014 5.60213C267.66 6.16806 269.307 6.73399 271.004 7.31707C272.667 7.883 274.33 8.44893 276.043 9.03201C288.281 13.2089 288.281 13.2089 291.518 14.6341C291.518 62.9268 291.518 111.22 291.518 160.976C279.054 159.756 279.054 159.756 245.817 151.22C245.817 101.317 245.817 51.4146 245.817 0Z" fill="black"/>
<path d="M164.108 177.668C165.765 177.647 167.422 177.627 169.129 177.606C175.1 178.172 178.817 179.62 182.615 183.77C187.143 191.629 187.714 198.524 185.304 207.074C182.435 214.747 178.561 220.851 172.418 226.829C171.288 228.008 171.288 228.008 170.135 229.211C158.742 239.612 139.839 245.982 123.947 248.78C123.947 260.049 123.947 271.317 123.947 282.927C116.635 285.341 109.323 287.756 101.789 290.244C101.789 259.659 101.789 229.073 101.789 197.561C108.916 194.423 114.928 191.895 122.302 189.71C129.8 187.415 136.99 184.833 144.163 181.845C145.81 181.173 145.81 181.173 147.49 180.488C148.574 180.035 149.657 179.582 150.774 179.116C155.342 177.777 159.299 177.681 164.108 177.668Z" fill="black"/>
<path d="M275.878 175.4C276.765 176.108 276.765 176.108 277.669 176.829C273.976 181.707 270.283 186.585 266.59 191.463C265.817 191.113 265.044 190.762 264.247 190.401C260.946 188.98 257.618 187.724 254.212 186.509C253.057 186.093 251.902 185.676 250.712 185.247C245.139 183.5 239.863 182.743 233.958 182.698C232.413 182.672 232.413 182.672 230.837 182.646C227.358 182.969 225.193 183.674 222.274 185.366C220.775 188.915 220.775 188.915 220.889 192.683C224.097 196.639 228.055 197.37 233.239 198.576C234.863 198.971 236.486 199.366 238.159 199.774C241.561 200.578 244.966 201.375 248.373 202.165C261.366 205.349 271.318 209.431 279.054 219.512C282.051 227.431 281.567 235.462 277.669 243.064C272.401 251.227 265.493 255.525 255.424 258.384C236.467 262.274 218.373 259.984 201.462 251.801C198.731 250 198.731 250 193.191 243.902C196.847 239.476 200.503 235.049 204.27 230.488C207.437 231.882 210.599 233.287 213.742 234.723C215.158 235.363 216.574 236.002 218.032 236.662C219.444 237.305 220.857 237.948 222.311 238.61C231.104 242.1 239.965 242.638 249.106 239.787C254.187 238.341 254.187 238.341 255.511 235.366C255.566 232.927 255.571 230.487 255.511 228.049C247.373 224.81 239.285 222.61 230.583 220.884C217.4 218.174 206.594 213.71 198.731 203.659C196.134 196.799 196.022 188.51 198.146 181.507C202.545 173.795 211.428 168.466 220.283 165.32C239.691 162.29 260.343 164.005 275.878 175.4Z" fill="black"/>
<path d="M302.597 68.2927C313.193 72.2871 313.193 72.2871 318.35 74.314C319.403 74.7275 320.456 75.1409 321.541 75.5669C323.132 76.1918 323.132 76.1918 324.755 76.8293C326.832 77.6426 328.909 78.4556 330.987 79.2683C337.219 81.7073 343.451 84.1463 349.683 86.5854C349.683 116.768 349.683 146.951 349.683 178.049C343.076 177.079 338.484 176.009 332.431 173.819C330.777 173.223 329.123 172.627 327.419 172.013C326.146 171.548 326.146 171.548 324.847 171.073C322.232 170.117 319.611 169.173 316.989 168.231C304.184 163.593 304.184 163.593 302.597 162.195C302.465 159.264 302.423 156.368 302.439 153.437C302.439 152.521 302.439 151.605 302.439 150.661C302.44 147.619 302.451 144.577 302.461 141.535C302.464 139.431 302.466 137.328 302.467 135.224C302.473 129.677 302.486 124.129 302.502 118.582C302.516 112.925 302.522 107.269 302.529 101.613C302.544 90.5059 302.568 79.3993 302.597 68.2927Z" fill="black"/>
<path d="M173.803 68.2927C174.717 68.2927 175.631 68.2927 176.572 68.2927C176.572 99.2805 176.572 130.268 176.572 162.195C137.796 176.829 137.796 176.829 129.486 179.268C129.486 148.683 129.486 118.098 129.486 86.5854C153.073 76.8925 153.073 76.8925 162.55 73.3232C168.604 71.3795 168.604 71.3795 173.803 68.2927Z" fill="black"/>
<path d="M288.748 168.293C291.693 169.12 294.625 169.972 297.549 170.856C299.961 171.577 302.389 172.258 304.831 172.894C311.338 174.79 315.416 176.501 319.123 181.693C319.822 182.67 320.521 183.646 321.242 184.652C324.805 189.931 328.193 195.283 331.506 200.686C332.195 201.8 332.884 202.914 333.594 204.061C335.269 206.77 336.939 209.481 338.604 212.195C341.468 212.457 341.468 212.457 343.424 210.671C344.204 209.966 344.984 209.262 345.788 208.537C346.643 207.766 347.498 206.996 348.379 206.202C351.917 202.855 355.268 199.381 358.576 195.856C360.762 193.902 360.762 193.902 364.916 192.683C367.676 193.328 367.676 193.328 370.775 194.431C371.886 194.82 372.998 195.209 374.143 195.61C375.297 196.028 376.451 196.445 377.64 196.875C378.81 197.288 379.98 197.7 381.186 198.125C384.077 199.147 386.962 200.178 389.844 201.22C384.549 206.79 379.081 212.109 373.226 217.226C372.197 218.138 372.197 218.138 371.148 219.069C366.517 223.137 361.684 226.855 356.607 230.488C357.409 235.877 359.678 239.464 362.926 244.055C364.038 245.647 365.149 247.239 366.258 248.833C366.901 249.753 367.543 250.673 368.205 251.621C372.463 257.782 376.616 263.998 380.784 270.206C382.792 273.197 384.804 276.188 386.815 279.178C388.749 282.054 390.681 284.929 392.614 287.805C387.835 289.909 383.066 287.83 378.246 286.433C363.556 281.847 358.293 273.02 351.673 261.171C350.806 259.547 350.806 259.547 349.921 257.889C347.832 254.013 345.495 250.308 343.104 246.57C342.062 244.869 341.022 243.168 339.988 241.463C335.262 244.964 330.625 248.463 326.242 252.296C325.527 252.909 324.812 253.521 324.074 254.152C322.639 255.385 321.222 256.635 319.825 257.902C316.318 260.88 314.512 262.204 309.554 262.152C305.163 260.918 300.889 259.622 296.624 258.079C295.173 257.567 293.722 257.054 292.226 256.526C288.748 254.878 288.748 254.878 287.363 251.22C288.034 250.716 288.705 250.213 289.397 249.695C295.435 245.114 301.14 240.361 306.713 235.347C310.424 232.148 314.39 229.26 318.431 226.391C321.049 223.977 321.84 222.86 321.985 219.512C320.267 216.043 320.267 216.043 317.657 212.5C316.758 211.203 315.858 209.906 314.931 208.57C314.06 207.352 313.188 206.133 312.291 204.878C311.648 203.974 311.005 203.07 310.343 202.139C309.228 200.575 308.11 199.012 306.989 197.451C304.656 194.102 302.526 190.661 300.384 187.214C297.234 182.239 293.921 177.348 290.625 172.447C288.748 169.512 288.748 169.512 288.748 168.293Z" fill="black"/>
<path d="M360.762 104.878C364.781 105.725 368.337 106.793 372.1 108.308C373.198 108.745 374.296 109.182 375.427 109.632C377.523 110.476 379.619 111.32 381.713 112.167C390.789 115.787 399.867 118.779 409.233 121.951C409.233 147.707 409.233 173.463 409.233 200C402.411 198.999 397.878 197.865 391.678 195.503C390.832 195.183 389.987 194.863 389.116 194.533C387.344 193.86 385.574 193.183 383.805 192.503C381.09 191.459 378.369 190.426 375.646 189.396C362.368 184.341 362.368 184.341 360.762 182.927C360.631 180.495 360.599 178.059 360.604 175.624C360.605 174.061 360.605 172.499 360.605 170.889C360.612 169.171 360.619 167.453 360.626 165.735C360.629 163.986 360.631 162.238 360.632 160.49C360.638 155.881 360.651 151.272 360.667 146.663C360.681 141.963 360.687 137.262 360.694 132.562C360.709 123.334 360.733 114.106 360.762 104.878Z" fill="black"/>
<path d="M117.023 104.878C117.023 131.037 117.023 157.195 117.023 184.146C110.025 186.737 103.027 189.328 95.8165 191.997C93.613 192.814 91.4095 193.63 89.1393 194.471C87.3889 195.119 85.6386 195.766 83.8881 196.413C82.9824 196.749 82.0767 197.085 81.1436 197.431C77.4333 198.802 73.7554 200.099 69.9365 201.22C69.9365 175.463 69.9365 149.707 69.9365 123.171C88.6173 114.946 88.6173 114.946 96.6821 111.966C98.2191 111.396 99.7562 110.825 101.34 110.237C102.859 109.676 104.378 109.115 105.943 108.537C107.723 107.856 109.503 107.174 111.283 106.493C115.638 104.878 115.638 104.878 117.023 104.878Z" fill="black"/>
<path d="M640.508 170.732C646.99 176.956 649.274 182.66 649.104 191.049C648.432 197.734 645.433 202.155 639.902 206.555C633.584 211.21 627.193 211.407 619.183 211.314C613.48 210.779 609.069 209.135 604.501 206.098C597.803 198.687 596.458 192.164 597.576 182.927C599.865 176.497 603.408 171.824 610.04 168.293C620.792 164.541 630.499 165.743 640.508 170.732Z" fill="black"/>
<path d="M769.302 234.146C800.749 234.146 800.749 234.146 808.917 240.849C814.967 246.833 815.565 252.223 815.484 259.923C814.732 265.379 812.212 269.123 808.078 273.171C802.121 277.137 796.676 278.212 789.318 278.168C788.263 278.165 787.208 278.162 786.122 278.159C784.799 278.148 783.475 278.136 782.112 278.125C775.771 278.087 775.771 278.087 769.302 278.049C769.302 263.561 769.302 249.073 769.302 234.146Z" fill="black"/>
<path d="M578.188 234.146C583.215 234.146 588.242 234.146 593.422 234.146C595.046 237.726 596.66 241.308 598.269 244.893C598.731 245.91 599.194 246.926 599.67 247.973C600.107 248.952 600.545 249.93 600.995 250.938C601.605 252.289 601.605 252.289 602.226 253.667C603.116 256.098 603.116 256.098 603.116 259.756C604.03 259.756 604.944 259.756 605.886 259.756C606.027 258.747 606.168 257.738 606.313 256.698C607.422 251.765 609.319 247.459 611.512 242.835C611.902 241.996 612.292 241.156 612.694 240.292C613.648 238.24 614.613 236.193 615.58 234.146C620.607 234.146 625.634 234.146 630.814 234.146C630.814 248.634 630.814 263.122 630.814 278.049C627.158 278.049 623.501 278.049 619.735 278.049C619.278 269.598 618.821 261.146 618.35 252.439C617.293 255.08 616.236 257.721 615.147 260.442C612.744 266.406 610.234 272.281 607.271 278.049C605.443 278.049 603.615 278.049 601.731 278.049C600.431 275.204 599.133 272.358 597.836 269.512C597.475 268.721 597.113 267.931 596.741 267.116C596.379 266.322 596.018 265.528 595.645 264.71C595.319 263.995 594.992 263.28 594.656 262.543C592.812 258.378 591.05 254.186 589.267 250C588.81 259.256 588.353 268.512 587.882 278.049C584.683 278.049 581.484 278.049 578.188 278.049C578.188 263.561 578.188 249.073 578.188 234.146Z" fill="black"/>
<path d="M1049.05 167.073C1060.13 167.073 1060.13 167.073 1063.29 169.312C1064.1 170.334 1064.92 171.356 1065.75 172.409C1066.65 173.509 1067.56 174.609 1068.48 175.743C1069.83 177.488 1069.83 177.488 1071.21 179.268C1072.62 181.013 1072.62 181.013 1074.06 182.793C1076.37 185.663 1078.64 188.561 1080.9 191.463C1081.36 183.415 1081.81 175.366 1082.29 167.073C1085.94 167.073 1089.6 167.073 1093.36 167.073C1093.36 181.561 1093.36 196.049 1093.36 210.976C1082.29 210.976 1082.29 210.976 1079.42 209.019C1078.74 208.122 1078.06 207.226 1077.36 206.302C1076.6 205.329 1075.83 204.355 1075.05 203.351C1074.29 202.321 1073.54 201.29 1072.76 200.229C1071.98 199.212 1071.19 198.196 1070.38 197.149C1068.31 194.46 1066.29 191.749 1064.28 189.024C1063.37 187.817 1062.45 186.61 1061.51 185.366C1061.48 186.098 1061.44 186.831 1061.41 187.585C1061.25 190.886 1061.08 194.185 1060.91 197.485C1060.82 199.214 1060.82 199.214 1060.74 200.979C1060.68 202.075 1060.62 203.172 1060.57 204.302C1060.49 205.825 1060.49 205.825 1060.41 207.379C1060.13 209.756 1060.13 209.756 1058.74 210.976C1055.54 210.976 1052.34 210.976 1049.05 210.976C1049.05 196.488 1049.05 182 1049.05 167.073Z" fill="black"/>
<path d="M826.082 100C838.546 100 838.546 100 841.592 101.996C842.272 102.908 842.952 103.819 843.653 104.759C844.418 105.744 845.184 106.729 845.973 107.743C846.721 108.785 847.469 109.826 848.24 110.899C849.031 111.936 849.822 112.973 850.637 114.041C852.09 115.948 853.525 117.866 854.937 119.798C856.384 121.887 856.384 121.887 857.934 123.171C858.391 115.524 858.848 107.878 859.319 100C862.975 100 866.631 100 870.398 100C870.398 114.085 870.398 128.171 870.398 142.683C859.319 142.683 859.319 142.683 856.602 140.989C855.99 140.21 855.378 139.431 854.748 138.629C854.053 137.776 853.357 136.923 852.641 136.045C851.96 135.142 851.279 134.238 850.577 133.308C849.869 132.428 849.161 131.549 848.432 130.643C844.9 126.214 841.713 121.722 838.546 117.073C838.089 125.524 837.632 133.976 837.161 142.683C833.505 142.683 829.849 142.683 826.082 142.683C826.082 128.598 826.082 114.512 826.082 100Z" fill="black"/>
<path d="M1007.5 167.073C1012.07 167.073 1016.64 167.073 1021.35 167.073C1025.91 176.388 1030.12 185.806 1034.25 195.274C1034.75 196.417 1035.25 197.559 1035.76 198.736C1036.23 199.81 1036.69 200.885 1037.17 201.991C1037.59 202.958 1038.01 203.925 1038.45 204.922C1039.35 207.317 1039.35 207.317 1039.35 209.756C1035.7 209.756 1032.04 209.756 1028.27 209.756C1027.36 208.146 1026.45 206.537 1025.5 204.878C1018.19 204.878 1010.88 204.878 1003.35 204.878C1002.43 206.488 1001.52 208.098 1000.58 209.756C996.921 209.756 993.265 209.756 989.498 209.756C992.518 200.07 996.535 190.85 1000.84 181.555C1001.48 180.156 1002.12 178.757 1002.78 177.315C1004.35 173.899 1005.92 170.485 1007.5 167.073Z" fill="black"/>
<path d="M785.92 100C790.948 100 795.975 100 801.154 100C803.533 105.291 805.899 110.585 808.254 115.884C809.057 117.685 809.863 119.486 810.672 121.285C811.836 123.873 812.988 126.465 814.137 129.059C814.501 129.86 814.864 130.662 815.239 131.488C817.028 135.556 817.773 138.24 817.773 142.683C814.117 142.683 810.46 142.683 806.694 142.683C805.78 140.268 804.866 137.854 803.924 135.366C797.069 135.366 790.214 135.366 783.151 135.366C782.237 137.78 781.323 140.195 780.381 142.683C776.725 142.683 773.069 142.683 769.302 142.683C770.155 137.07 771.846 132.195 774.154 126.915C774.659 125.753 774.659 125.753 775.173 124.568C776.238 122.118 777.314 119.672 778.39 117.226C779.118 115.555 779.846 113.885 780.573 112.214C782.347 108.14 784.131 104.069 785.92 100Z" fill="black"/>
<path d="M565.724 100C567.943 99.8351 570.165 99.7169 572.389 99.6189C573.626 99.5482 574.863 99.4774 576.138 99.4045C579.573 100 579.573 100 581.885 102.613C585.246 108.969 588.066 115.481 590.912 122.027C591.554 123.471 592.195 124.915 592.857 126.403C593.463 127.79 594.069 129.178 594.693 130.607C595.247 131.871 595.801 133.135 596.371 134.437C597.576 137.805 597.576 137.805 597.576 142.683C593.92 142.683 590.264 142.683 586.497 142.683C585.583 140.268 584.669 137.854 583.728 135.366C576.872 135.366 570.017 135.366 562.954 135.366C562.04 137.78 561.126 140.195 560.185 142.683C556.529 142.683 552.872 142.683 549.106 142.683C549.959 137.07 551.65 132.195 553.958 126.915C554.462 125.753 554.462 125.753 554.977 124.568C556.042 122.118 557.118 119.672 558.194 117.226C558.922 115.555 559.65 113.885 560.377 112.214C562.151 108.14 563.935 104.069 565.724 100Z" fill="black"/>
<path d="M508.944 100C515.928 99.8868 515.928 99.8868 523.053 99.7713C525.235 99.7214 525.235 99.7214 527.462 99.6704C539.529 99.5757 539.529 99.5757 544.951 103.659C548.198 107.853 549.121 110.224 549.019 115.32C547.381 120.609 545.046 123.979 539.763 126.986C535.699 128.37 532.329 128.284 527.986 128.201C526.494 128.179 525.001 128.157 523.464 128.135C522.328 128.106 521.193 128.078 520.023 128.049C520.039 129.091 520.055 130.133 520.072 131.207C520.084 132.554 520.097 133.902 520.11 135.29C520.126 136.634 520.142 137.978 520.158 139.363C520.023 142.683 520.023 142.683 518.638 143.902C515.439 143.902 512.24 143.902 508.944 143.902C508.944 129.415 508.944 114.927 508.944 100Z" fill="black"/>
<path d="M1143.51 168.788C1145.85 170.572 1148.04 172.386 1150.14 174.39C1149.69 175.598 1149.23 176.805 1148.76 178.049C1145.21 179.497 1145.21 179.497 1141.83 180.488C1140.86 179.683 1139.89 178.878 1138.89 178.049C1134.15 175.146 1132.26 174.797 1126.6 175.61C1121.81 177.07 1121.81 177.07 1118.29 180.488C1116.25 186.333 1116.33 191.181 1118.55 196.951C1121.18 200.146 1122.34 201.366 1126.6 202.439C1131.51 202.709 1135.75 202.494 1140.45 201.22C1140.45 199.207 1140.45 197.195 1140.45 195.122C1136.34 195.122 1132.22 195.122 1127.99 195.122C1127.99 192.305 1127.99 189.488 1127.99 186.585C1135.76 186.585 1143.52 186.585 1151.53 186.585C1152.52 202.13 1152.52 202.13 1149.97 206.064C1143.43 210.968 1136.34 212.483 1127.99 212.043C1119.58 211.077 1114.43 207.943 1108.86 202.439C1103.87 196.41 1103.5 190.228 1104.44 182.927C1106.76 175.652 1110.97 171.9 1118.29 168.183C1126.26 164.991 1135.94 164.541 1143.51 168.788Z" fill="black"/>
<path d="M938.257 167.073C941.456 167.073 944.656 167.073 947.952 167.073C947.952 172.707 947.952 178.341 947.952 184.146C955.721 184.146 963.49 184.146 971.495 184.146C971.495 178.512 971.495 172.878 971.495 167.073C975.151 167.073 978.807 167.073 982.574 167.073C982.608 173.13 982.633 179.186 982.65 185.242C982.657 187.304 982.666 189.366 982.678 191.428C982.695 194.385 982.703 197.343 982.709 200.3C982.716 201.227 982.723 202.155 982.73 203.11C982.731 205.326 982.659 207.542 982.574 209.756C982.117 210.159 981.66 210.561 981.189 210.976C977.99 210.976 974.791 210.976 971.495 210.976C971.495 204.939 971.495 198.902 971.495 192.683C963.725 192.683 955.956 192.683 947.952 192.683C947.952 198.317 947.952 203.951 947.952 209.756C944.752 209.756 941.553 209.756 938.257 209.756C938.257 195.671 938.257 181.585 938.257 167.073Z" fill="black"/>
<path d="M720.831 234.146C732.256 234.146 743.681 234.146 755.453 234.146C755.453 236.963 755.453 239.78 755.453 242.683C747.684 242.683 739.915 242.683 731.91 242.683C731.91 245.5 731.91 248.317 731.91 251.22C739.679 251.22 747.448 251.22 755.453 251.22C755.453 254.037 755.453 256.854 755.453 259.756C747.684 259.756 739.915 259.756 731.91 259.756C731.91 262.976 731.91 266.195 731.91 269.512C739.679 269.512 747.448 269.512 755.453 269.512C755.453 272.329 755.453 275.146 755.453 278.049C744.028 278.049 732.602 278.049 720.831 278.049C720.831 263.561 720.831 249.073 720.831 234.146Z" fill="black"/>
<path d="M1165.38 167.073C1176.8 167.073 1188.23 167.073 1200 167.073C1200 169.89 1200 172.707 1200 175.61C1192.23 175.61 1184.46 175.61 1176.46 175.61C1176.46 178.427 1176.46 181.244 1176.46 184.146C1184.23 184.146 1192 184.146 1200 184.146C1200 186.963 1200 189.78 1200 192.683C1192.23 192.683 1184.46 192.683 1176.46 192.683C1176.46 195.902 1176.46 199.122 1176.46 202.439C1184.23 202.439 1192 202.439 1200 202.439C1200 205.256 1200 208.073 1200 210.976C1188.57 210.976 1177.15 210.976 1165.38 210.976C1165.38 196.488 1165.38 182 1165.38 167.073Z" fill="black"/>
<path d="M539.476 168.25C541.748 169.588 541.748 169.588 544.951 171.951C542.209 175.573 542.209 175.573 539.411 179.268C538.508 178.99 537.605 178.712 536.674 178.425C529.697 176.404 524.555 174.968 517.253 176.829C518.07 179.296 518.07 179.296 520.023 181.707C523.711 182.876 523.711 182.876 527.986 183.46C535.618 184.995 540.12 185.91 544.951 191.463C546.48 197.518 546.101 202.038 542.354 207.317C534.953 211.488 526.975 213.062 518.292 211.433C512.952 209.709 509.301 207.858 504.789 204.878C506.617 202.463 508.445 200.049 510.329 197.561C517.08 199.848 517.08 199.848 518.638 201.22C520.973 201.307 523.312 201.322 525.649 201.296C526.922 201.285 528.195 201.274 529.506 201.262C530.49 201.248 531.474 201.234 532.487 201.22C532.487 199.61 532.487 198 532.487 196.341C531.352 196.018 530.216 195.694 529.046 195.36C527.554 194.929 526.062 194.499 524.524 194.055C523.046 193.63 521.568 193.206 520.045 192.769C511.031 189.951 511.031 189.951 507.559 185.366C506.804 181.626 506.827 178.133 507.559 174.39C515.273 165.268 527.869 163.432 539.476 168.25Z" fill="black"/>
<path d="M720.831 102.439C722.202 104.25 722.202 104.25 723.601 106.098C721.316 108.11 719.031 110.122 716.676 112.195C715.762 111.591 714.848 110.988 713.907 110.366C708.414 107.947 704.762 108.264 698.673 108.537C698.673 110.146 698.673 111.756 698.673 113.415C699.46 113.636 700.247 113.858 701.059 114.086C704.43 115.053 707.785 116.055 711.137 117.073C712.074 117.351 713.011 117.63 713.977 117.916C718.025 119.252 720.674 120.58 723.601 123.399C725.476 128.044 725.349 131.968 723.601 136.585C719.795 140.843 717.122 142.935 711.137 143.902C701.934 144.743 693.727 144.193 686.209 139.024C685.752 137.817 685.295 136.61 684.824 135.366C686.815 132.698 686.815 132.698 688.979 130.488C695.557 132.774 695.557 132.774 698.673 134.146C701.325 134.34 701.325 134.34 704.212 134.299C705.184 134.302 706.155 134.305 707.155 134.308C709.879 134.285 709.879 134.285 712.522 132.927C712.522 131.72 712.522 130.512 712.522 129.268C710.97 128.811 709.419 128.353 707.821 127.882C705.781 127.253 703.741 126.622 701.702 125.991C700.68 125.693 699.658 125.395 698.605 125.088C693.678 123.537 690.941 122.588 687.615 118.917C685.699 114.744 685.575 111.78 686.209 107.317C688.653 103.73 690.715 101.765 694.778 99.6189C704.322 97.5645 712.238 98.2694 720.831 102.439Z" fill="black"/>
<path d="M608.656 100C612.312 100 615.968 100 619.735 100C620.192 105.232 620.649 110.463 621.119 115.854C622.075 114.709 623.03 113.565 624.014 112.386C634.309 100.568 634.309 100.568 640.14 98.9472C643.537 99.0091 643.537 99.0091 648.817 100C643.858 106.914 638.057 113.176 632.199 119.512C637.239 126.39 642.556 132.943 648.373 139.329C650.202 141.463 650.202 141.463 650.202 142.683C642.54 143.861 642.54 143.861 637.738 142.683C632.864 138.65 629.136 134.057 625.274 129.268C624.36 128.463 623.446 127.659 622.504 126.829C619.996 129.038 620.59 132.455 620.34 135.442C620.224 136.789 620.108 138.137 619.989 139.525C619.905 140.567 619.821 141.609 619.735 142.683C616.078 142.683 612.422 142.683 608.656 142.683C608.656 128.598 608.656 114.512 608.656 100Z" fill="black"/>
<path d="M834.391 167.073C838.812 166.279 842.471 166.031 846.855 167.073C850.022 170.05 852.253 173.088 854.596 176.601C855.563 177.921 855.563 177.921 856.549 179.268C857.463 179.268 858.377 179.268 859.319 179.268C860.786 177.265 862.189 175.226 863.56 173.171C868.001 167.314 868.001 167.314 872.421 166.263C875.545 166.307 878.419 166.524 881.477 167.073C876.738 174.585 871.524 181.801 866.244 189.024C866.747 189.646 867.25 190.268 867.769 190.908C870.034 193.708 872.293 196.511 874.553 199.314C875.345 200.293 876.138 201.271 876.955 202.279C877.705 203.211 878.454 204.142 879.227 205.102C879.923 205.964 880.619 206.826 881.337 207.715C882.862 209.756 882.862 209.756 882.862 210.976C878.394 211.877 874.834 212.089 870.398 210.976C865.844 206.966 862.423 202.521 859.319 197.561C859.319 196.756 859.319 195.951 859.319 195.122C858.405 195.122 857.491 195.122 856.549 195.122C856.264 195.927 855.978 196.732 855.684 197.561C853.051 202.619 850.228 207.233 845.47 210.976C841.364 211.828 838.654 211.493 834.391 210.976C836.495 205.571 839.829 201.183 843.566 196.57C844.148 195.841 844.73 195.113 845.33 194.362C846.755 192.579 848.189 190.801 849.625 189.024C847.214 184.299 843.837 180.199 840.45 175.991C834.391 168.454 834.391 168.454 834.391 167.073Z" fill="black"/>
<path d="M790.075 167.073C801.5 167.073 812.926 167.073 824.697 167.073C824.697 169.89 824.697 172.707 824.697 175.61C816.471 175.61 808.245 175.61 799.769 175.61C799.769 178.427 799.769 181.244 799.769 184.146C807.538 184.146 815.308 184.146 823.312 184.146C823.312 186.963 823.312 189.78 823.312 192.683C815.543 192.683 807.774 192.683 799.769 192.683C799.769 195.902 799.769 199.122 799.769 202.439C807.995 202.439 816.222 202.439 824.697 202.439C824.697 204.854 824.697 207.268 824.697 209.756C813.272 209.756 801.847 209.756 790.075 209.756C790.075 195.671 790.075 181.585 790.075 167.073Z" fill="black"/>
<path d="M712.522 167.073C715.721 167.073 718.92 167.073 722.216 167.073C722.216 173.11 722.216 179.146 722.216 185.366C723.13 185.366 724.044 185.366 724.986 185.366C725.343 184.493 725.7 183.621 726.068 182.722C729.051 176.617 733.108 171.427 738.834 167.073C743.675 166.074 747.817 166.283 752.683 167.073C747.059 173.895 741.079 180.317 734.68 186.585C735.387 187.408 735.387 187.408 736.108 188.248C740.46 193.334 744.77 198.448 749.048 203.582C750.001 204.725 750.955 205.868 751.937 207.046C754.068 209.756 754.068 209.756 754.068 210.976C746.41 212.153 746.41 212.153 741.604 210.976C736.043 206.436 731.16 201.118 727.755 195.122C726.384 195.524 725.013 195.927 723.601 196.341C723.144 200.768 722.687 205.195 722.216 209.756C719.017 209.756 715.818 209.756 712.522 209.756C712.522 195.671 712.522 181.585 712.522 167.073Z" fill="black"/>
<path d="M927.178 170.732C931.333 174.619 931.333 174.619 931.333 178.049C928.35 179.644 926.551 180.55 923.024 180.259C920.254 179.268 920.254 179.268 917.657 177.363C913.545 174.913 911.288 174.922 906.405 175.61C901.359 177.953 901.359 177.953 898.096 181.707C896.98 186.357 897.032 190.467 898.096 195.122C901.232 199.067 903.392 200.631 908.396 202.439C913.195 202.439 916.12 200.838 920.254 198.78C925.272 197.308 926.682 198.118 931.333 200C930.016 204.174 928.709 205.988 924.928 208.841C917.077 212.426 911.003 212.962 902.683 210.747C895.583 208.347 891.218 205.788 887.276 199.924C884.19 192.719 884.455 184.815 887.19 177.591C897.409 164.992 912.753 162.488 927.178 170.732Z" fill="black"/>
<path d="M698.673 170.732C702.827 174.619 702.827 174.619 702.827 178.049C699.844 179.644 698.046 180.55 694.518 180.259C691.748 179.268 691.748 179.268 689.152 177.363C685.039 174.913 682.782 174.922 677.9 175.61C672.853 177.953 672.853 177.953 669.59 181.707C668.474 186.357 668.527 190.467 669.59 195.122C672.726 199.067 674.886 200.631 679.89 202.439C684.689 202.439 687.614 200.838 691.748 198.78C696.766 197.308 698.176 198.118 702.827 200C701.511 204.174 700.203 205.988 696.422 208.841C688.572 212.426 682.498 212.962 674.178 210.747C667.077 208.347 662.712 205.788 658.771 199.924C655.685 192.719 655.95 184.815 658.684 177.591C668.904 164.992 684.248 162.488 698.673 170.732Z" fill="black"/>
<path d="M158.569 197.561C161.166 198.857 161.166 198.857 162.724 201.22C163.542 207.585 162.535 211.718 158.569 217.073C152.313 222.305 146.137 225.085 138.142 227.82C137.08 228.2 136.018 228.579 134.923 228.971C127.15 231.707 127.15 231.707 123.947 231.707C123.947 223.659 123.947 215.61 123.947 207.317C149.659 196.689 149.659 196.689 158.569 197.561Z" fill="#FBFDFB"/>
<path d="M551.875 167.073C565.129 167.073 578.382 167.073 592.037 167.073C592.037 169.89 592.037 172.707 592.037 175.61C587.467 175.61 582.897 175.61 578.188 175.61C578.199 177.152 578.199 177.152 578.21 178.725C578.234 182.527 578.251 186.329 578.264 190.132C578.271 191.78 578.281 193.427 578.293 195.075C578.309 197.439 578.317 199.803 578.323 202.167C578.334 204.304 578.334 204.304 578.345 206.483C578.188 209.756 578.188 209.756 576.803 210.976C573.604 210.976 570.405 210.976 567.109 210.976C567.109 199.305 567.109 187.634 567.109 175.61C562.539 175.61 557.969 175.61 553.26 175.61C552.803 175.207 552.346 174.805 551.875 174.39C551.875 171.976 551.875 169.561 551.875 167.073Z" fill="black"/>
<path d="M669.59 234.146C682.387 234.146 695.183 234.146 708.367 234.146C708.367 236.963 708.367 239.78 708.367 242.683C703.797 242.683 699.227 242.683 694.518 242.683C694.518 254.354 694.518 266.024 694.518 278.049C690.862 278.049 687.206 278.049 683.439 278.049C683.439 266.378 683.439 254.707 683.439 242.683C678.869 242.683 674.299 242.683 669.59 242.683C669.59 239.866 669.59 237.049 669.59 234.146Z" fill="black"/>
<path d="M731.91 100C744.706 100 757.503 100 770.687 100C770.687 102.415 770.687 104.829 770.687 107.317C766.117 107.317 761.546 107.317 756.838 107.317C756.838 118.988 756.838 130.659 756.838 142.683C753.182 142.683 749.526 142.683 745.759 142.683C745.759 131.012 745.759 119.341 745.759 107.317C741.189 107.317 736.619 107.317 731.91 107.317C731.91 104.902 731.91 102.488 731.91 100Z" fill="black"/>
<path d="M630.814 175.61C634.852 178.585 637.218 180.691 638.295 185.323C638.605 191.007 637.114 195.164 633.583 200C627.731 203.436 622.455 203.263 615.58 202.439C611.29 199.767 610.313 198.28 608.656 193.902C607.763 188.714 607.162 183.842 610.381 179.24C616.555 173.891 622.725 172.881 630.814 175.61Z" fill="#FEFDFC"/>
<path d="M507.559 234.146C511.215 234.146 514.871 234.146 518.638 234.146C518.638 245.817 518.638 257.488 518.638 269.512C525.493 269.512 532.349 269.512 539.411 269.512C539.411 272.329 539.411 275.146 539.411 278.049C528.9 278.049 518.389 278.049 507.559 278.049C507.559 263.561 507.559 249.073 507.559 234.146Z" fill="black"/>
<path d="M780.381 242.683C796.23 242.683 796.23 242.683 801.154 246.341C804.889 251.274 804.675 255.187 803.924 260.976C801.411 266.176 800.163 266.9 794.23 269.512C789.66 269.512 785.089 269.512 780.381 269.512C780.381 260.659 780.381 251.805 780.381 242.683Z" fill="#FEFEFD"/>
<path d="M646.047 234.146C649.703 234.146 653.36 234.146 657.126 234.146C657.126 248.634 657.126 263.122 657.126 278.049C653.47 278.049 649.814 278.049 646.047 278.049C646.047 263.561 646.047 249.073 646.047 234.146Z" fill="black"/>
<path d="M551.875 234.146C555.074 234.146 558.274 234.146 561.57 234.146C562.954 235.366 562.954 235.366 563.112 239.422C563.111 241.222 563.104 243.022 563.09 244.822C563.088 245.768 563.086 246.713 563.084 247.688C563.076 250.72 563.059 253.752 563.041 256.784C563.034 258.834 563.028 260.885 563.022 262.936C563.007 267.974 562.983 273.011 562.954 278.049C559.298 278.049 555.642 278.049 551.875 278.049C551.875 263.561 551.875 249.073 551.875 234.146Z" fill="black"/>
<path d="M666.821 98.6281C670.975 98.7805 670.975 98.7805 672.36 100C672.483 103.163 672.52 106.293 672.495 109.456C672.493 110.402 672.491 111.347 672.489 112.322C672.482 115.354 672.464 118.386 672.447 121.418C672.44 123.468 672.433 125.519 672.428 127.57C672.412 132.608 672.388 137.645 672.36 142.683C668.704 142.683 665.048 142.683 661.281 142.683C661.247 136.627 661.222 130.57 661.205 124.514C661.198 122.452 661.189 120.39 661.177 118.328C661.16 115.371 661.152 112.413 661.146 109.456C661.139 108.529 661.131 107.601 661.124 106.646C661.124 104.43 661.195 102.214 661.281 100C662.666 98.7805 662.666 98.7805 666.821 98.6281Z" fill="black"/>
<path d="M518.638 107.317C521.09 107.218 523.542 107.147 525.995 107.088C527.361 107.046 528.727 107.004 530.134 106.96C533.872 107.317 533.872 107.317 536.458 108.965C538.027 110.976 538.027 110.976 537.767 114.101C536.642 117.073 536.642 117.073 533.872 119.512C530.269 119.75 530.269 119.75 526.082 119.665C523.999 119.632 523.999 119.632 521.873 119.598C520.806 119.57 519.738 119.541 518.638 119.512C518.638 115.488 518.638 111.463 518.638 107.317Z" fill="#F9F6EE"/>
<path d="M792.845 109.756C798.154 115.257 799.192 121.136 801.154 128.049C796.127 128.049 791.1 128.049 785.92 128.049C790.001 114.329 790.001 114.329 792.845 109.756Z" fill="#F9F7F0"/>
<path d="M572.649 109.756C576.683 111.532 576.879 113.846 578.361 117.53C578.85 118.722 579.34 119.914 579.843 121.141C580.958 124.39 580.958 124.39 580.958 128.049C575.931 128.049 570.904 128.049 565.724 128.049C570.077 114.983 570.077 114.983 572.649 109.756Z" fill="#F9F7EF"/>
<path d="M1014.43 176.829C1021.35 188.918 1021.35 188.918 1021.35 195.122C1016.78 195.122 1012.21 195.122 1007.5 195.122C1008.29 188.365 1011.14 182.882 1014.43 176.829Z" fill="#FBFAF5"/>
<path d="M21.4657 93.9024C23.4821 99.4158 21.84 103.069 20.0808 108.537C18.7098 108.537 17.3387 108.537 15.9261 108.537C16.3189 106.782 16.7255 105.029 17.1379 103.277C17.3628 102.301 17.5878 101.325 17.8195 100.319C18.6959 97.561 18.6959 97.561 21.4657 93.9024Z" fill="black"/>
<path d="M454.934 90.2439C456.305 90.6463 457.676 91.0488 459.088 91.4634C460.733 95.8079 460.733 95.8079 461.858 100C460.487 100.402 459.116 100.805 457.703 101.22C456.789 97.5976 455.875 93.9756 454.934 90.2439Z" fill="black"/>
</svg>
