<?xml version="1.0" encoding="UTF-8"?>
<svg version="1.1" xmlns="http://www.w3.org/2000/svg" width="192" height="192">
<path d="M0 0 C63.36 0 126.72 0 192 0 C192 63.36 192 126.72 192 192 C128.64 192 65.28 192 0 192 C0 128.64 0 65.28 0 0 Z " fill="#FEFDFD" transform="translate(0,0)"/>
<path d="M0 0 C4.71249469 3.81437351 9.16937553 7.95382989 13.625 12.0625 C13.295 12.7225 12.965 13.3825 12.625 14.0625 C12.22152344 13.63839844 11.81804687 13.21429688 11.40234375 12.77734375 C-0.84564418 0.94542335 -19.70052067 -4.65310489 -36.51098633 -4.40820312 C-54.47937385 -3.57892686 -70.33196372 5.14001696 -82.375 18.0625 C-94.78740864 32.53977662 -97.40728787 48.65718961 -96.375 67.0625 C-94.71155603 79.10132331 -88.2447314 90.01582216 -80.375 99.0625 C-79.900625 99.65417969 -79.42625 100.24585938 -78.9375 100.85546875 C-70.18335847 110.81786419 -55.31162491 117.3175599 -42.375 119.0625 C-22.64493622 120.22125685 -4.11067397 117.07066448 11.125 103.5625 C12.30920751 102.41364196 13.48396524 101.25424741 14.625 100.0625 C14.625 104.31500331 12.7802205 105.34062884 9.8125 108.3125 C-6.34603107 124.17894658 -27.05956871 131.64244217 -49.48364258 131.48022461 C-69.44872633 130.90598769 -87.57399015 122.76581937 -101.734375 108.72265625 C-117.81503198 91.64370345 -123.01053156 73.47841371 -122.61328125 50.5703125 C-122.02388723 33.27174326 -113.28052651 18.07768178 -101.2578125 5.921875 C-73.21155203 -20.2280191 -30.97386362 -22.32854827 0 0 Z " fill="#B71F1F" transform="translate(129.375,41.9375)"/>
<path d="M0 0 C27.72 0 55.44 0 84 0 C84 5.28 84 10.56 84 16 C56.28 16 28.56 16 0 16 C0 10.72 0 5.44 0 0 Z " fill="#11119D" transform="translate(102,90)"/>
<path d="M0 0 C27.72 0 55.44 0 84 0 C84 5.28 84 10.56 84 16 C56.28 16 28.56 16 0 16 C0 10.72 0 5.44 0 0 Z " fill="#0F0F9C" transform="translate(102,66)"/>
<path d="M0 0 C27.72 0 55.44 0 84 0 C84 4.95 84 9.9 84 15 C56.28 15 28.56 15 0 15 C0 10.05 0 5.1 0 0 Z " fill="#040497" transform="translate(102,114)"/>
<path d="M0 0 C0 3 0 3 -2.30078125 5.6640625 C-3.2969247 6.65887598 -4.30120803 7.64558987 -5.3125 8.625 C-5.81201172 9.12773437 -6.31152344 9.63046875 -6.82617188 10.1484375 C-9.19483114 12.4825865 -10.80481278 13.93493759 -14 15 C-14 13.68 -14 12.36 -14 11 C-11.953125 9.21875 -11.953125 9.21875 -9.25 7.5 C-5.76167952 5.25605115 -2.8434821 3.0295043 0 0 Z " fill="#C64E4E" transform="translate(144,142)"/>
<path d="M0 0 C1.27310312 0.93441535 2.543388 1.87267111 3.8125 2.8125 C4.52019531 3.33457031 5.22789062 3.85664062 5.95703125 4.39453125 C7.78531393 5.83128877 9.39896688 7.31815763 11 9 C10.67 9.66 10.34 10.32 10 11 C9.46890625 10.52949219 8.9378125 10.05898438 8.390625 9.57421875 C7.68421875 8.95160156 6.9778125 8.32898437 6.25 7.6875 C5.20585937 6.76517578 5.20585937 6.76517578 4.140625 5.82421875 C2.14885494 4.12685266 0.11101085 2.54522191 -2 1 C-1.34 0.67 -0.68 0.34 0 0 Z " fill="#CA5A5A" transform="translate(132,45)"/>
</svg>
