<svg width="317" height="98" viewBox="0 0 317 98" fill="none" xmlns="http://www.w3.org/2000/svg">
<g clip-path="url(#clip0_61_6603)">
<path d="M220.759 24.5361C226.758 1.89436 226.758 1.89436 226.758 1.89436C224.44 3.18553 219.571 2.92839 217.523 2.92673C143.078 3.22584 143.078 3.22584 143.078 3.22584C148.467 5.99977 149.842 9.79857 148.074 17.0344C131.939 78.5547 131.939 78.5547 131.939 78.5547C128.712 90.4162 125.888 95.6309 120.948 95.6357C116.843 95.6698 114.815 93.3807 111.066 87.68C85.3498 41.4045 85.3498 41.4045 85.3498 41.4045C138.644 3.28975 138.644 3.28975 138.644 3.28975C91.2961 3.4619 91.2961 3.4619 91.2961 3.4619C97.9039 7.21578 98.7739 12.7255 91.8041 17.6814C55.6484 46.0829 55.6484 46.0829 55.6484 46.0829C63.5889 16.4542 63.5889 16.4542 63.5889 16.4542C65.7812 9.13439 71.0264 5.35198 75.715 3.46759C24.6938 3.71235 24.6938 3.71235 24.6938 3.71235C30.1131 6.37403 31.5431 10.2683 29.8296 17.5995C13.589 79.2115 13.589 79.2115 13.589 79.2115C11.8685 85.5351 10.0599 92.9206 0.000265073 96.9838C50.5054 96.7174 50.5054 96.7174 50.5054 96.7174C44.3661 93.0123 44.4503 88.1279 46.018 81.923C53.2188 55.3084 53.2188 55.3084 53.2188 55.3084C73.5901 96.7303 73.5901 96.7303 73.5901 96.7303C96.943 96.4953 96.943 96.4953 96.943 96.4953C168.771 96.0774 168.771 96.0774 168.771 96.0774C163.225 91.3696 163.075 86.0183 165.257 78.2933C171.213 55.9612 171.213 55.9612 171.213 55.9612C187.547 55.8417 187.547 55.8417 187.547 55.8417C195.268 55.7995 198.053 57.3722 201.435 60.8798C207.149 38.8432 207.149 38.8433 207.149 38.8433C204.841 40.097 199.802 39.8735 197.972 39.8111C175.475 40.0005 175.475 40.0005 175.475 40.0005C181.047 18.9303 181.047 18.9303 181.047 18.9303C207.204 18.8657 207.204 18.8657 207.204 18.8657C214.725 18.9694 217.757 20.8116 220.749 24.5736L220.759 24.5361Z" fill="black"/>
<path d="M280.068 82.5217C259.279 82.4601 247.498 67.7416 247.414 51.6627C247.303 33.7655 261.673 15.6386 285.784 15.4497C293.354 15.5263 301.495 16.6054 311.94 21.177C316.991 2.61157 316.991 2.61157 316.991 2.61157C310.177 0.933045 301.282 -0.0321658 290.73 0.0745104C242.427 0.309088 211.498 28.5149 211.73 56.304C211.862 77.2249 228.772 98.1874 267.792 97.9673C279.286 97.7983 290.599 97.2576 300.027 95.2311C304.782 77.7512 304.782 77.7511 304.782 77.7511C297.253 80.1807 287.689 82.4112 280.068 82.5217Z" fill="black"/>
<path d="M16.3314 83.0954C33.4303 18.7319 33.4303 18.7319 33.4303 18.7319C35.6188 10.9976 34.8453 8.36805 32.6348 5.54411C36.8713 6.54974 39.5279 9.65765 37.0366 18.7988C19.9513 83.4077 19.9513 83.4077 19.9513 83.4077C17.8582 91.0877 14.9743 93.8378 9.20213 93.7383C12.8796 91.7707 15.2322 87.8674 16.3688 83.1058L16.3314 83.0954Z" fill="white"/>
<path d="M134.523 82.7793C151.642 18.3409 151.642 18.3409 151.642 18.3409C153.79 10.7564 152.942 8.10627 150.765 5.00977C155.036 6.18588 157.624 9.39587 155.153 18.462C138.058 83.1084 138.058 83.1084 138.058 83.1084C136.019 90.884 133.769 93.5265 128.055 93.3625C131.603 91.7217 132.92 88.6611 134.523 82.7793Z" fill="white"/>
<path d="M183.347 11.5307C207.36 11.4813 207.36 11.4813 207.36 11.4813C214.392 11.4511 220.246 12.9446 220.118 18.5749C217.538 16.2564 214.66 14.7397 206.499 14.9405C182.289 14.9758 182.289 14.9758 182.289 14.9758L183.347 11.5307Z" fill="white"/>
<path d="M172.331 51.9194C173.287 48.4059 173.287 48.4059 173.287 48.4059C187.601 48.4549 187.601 48.4549 187.601 48.4549C194.578 48.3293 200.439 49.9454 200.379 55.474C197.827 53.2031 194.912 51.676 186.75 51.8768C172.331 51.9194 172.331 51.9194 172.331 51.9194Z" fill="white"/>
<path d="M216.053 56.2286C215.923 25.4048 250.185 8.29504 271.789 5.96464C253.09 10.9075 220.03 25.8134 220.021 56.1158C220.158 85.2913 251.397 93.467 273.124 94.6719C249.074 96.6897 216.143 87.2021 216.053 56.2286Z" fill="white"/>
<path d="M85.529 92.8942C80.6821 92.6847 77.5134 86.8992 77.5134 86.8992C77.6971 87.5538 77.6971 87.5538 77.6971 87.5538C59.8337 51.4268 59.8337 51.4268 59.8337 51.4268C97.5606 22.0973 97.5606 22.0973 97.5606 22.0973C105.136 16.4168 107.946 8.01288 100.049 5.27146C102.83 9.82275 101.234 15.099 94.7562 19.9953C55.5101 50.4759 55.5101 50.4759 55.5101 50.4759C76.4165 92.9977 76.4165 92.9977 76.4165 92.9977C80.5088 92.8784 80.5088 92.8784 80.5088 92.8784L85.529 92.8942Z" fill="white"/>
</g>
<defs>
<clipPath id="clip0_61_6603">
<rect width="317" height="98" fill="white"/>
</clipPath>
</defs>
</svg>
