<svg width="190" height="62" viewBox="0 0 190 62" fill="none" xmlns="http://www.w3.org/2000/svg">
<path d="M96.4999 49.7004H96.1999C95.7999 49.7004 95.5999 49.9004 95.2999 50.0004C95.0999 50.1004 94.8999 50.3004 94.6999 50.3004C94.6999 50.3004 94.5999 50.3004 94.5999 50.2004C94.2999 49.9004 94.4999 48.5004 94.5999 48.0004V47.9004C94.7999 46.6004 94.9999 45.1004 95.1999 43.9004L95.2999 43.2004C95.3999 42.4004 95.5999 41.0004 95.5999 40.7004C95.5999 39.6004 95.3999 39.4004 95.0999 39.1004L94.8999 39.0004C94.3999 38.5004 93.7999 38.0004 92.6999 37.3004C92.3999 37.1004 91.9999 36.9004 91.5999 36.9004C91.2999 36.9004 90.9999 37.2004 90.7999 37.5004C90.6999 37.6004 90.5999 37.8004 90.4999 38.1004V38.2004C90.4999 38.2004 90.3999 38.2004 90.3999 38.3004C90.2999 38.3004 90.1999 38.3004 89.9999 38.2004C89.8999 38.2004 89.8999 38.1004 89.7999 38.1004C88.2999 37.4004 86.1999 37.3004 86.1999 37.3004H84.1999C82.1999 37.4004 80.8999 37.9004 80.4999 38.0004C80.0999 38.2004 79.5999 38.4004 79.0999 38.6004C76.7999 39.7004 75.1999 41.4004 74.1999 43.7004C73.9999 44.2004 72.2999 49.1004 76.0999 52.3004L76.2999 52.5004L76.3999 52.6004C76.4999 52.7004 76.5999 52.8004 76.6999 52.8004L76.7999 52.9004L76.8999 53.0004C77.3999 53.3004 77.7999 53.5004 78.2999 53.7004L78.5999 53.8004C79.1999 54.0004 79.6999 54.2004 79.9999 54.2004H80.0999C80.5999 54.3004 81.6999 54.4004 82.0999 54.4004H82.1999C84.6999 54.3004 86.2999 53.7004 87.2999 53.2004L87.5999 53.0004C88.1999 52.6004 88.5999 52.3004 88.7999 52.0004V52.1004C88.7999 52.2004 88.8999 52.2004 88.8999 52.3004C89.1999 52.9004 90.3999 54.0004 92.3999 54.0004H93.0999C94.1999 53.9004 96.1999 53.3004 96.7999 51.3004C96.8999 51.0004 96.9999 50.5004 96.7999 50.2004C96.8999 49.9004 96.6999 49.8004 96.4999 49.7004ZM89.5999 41.6004C89.5999 41.9004 89.2999 45.0004 88.9999 46.4004C88.8999 47.1004 88.4999 48.7004 87.6999 49.6004C86.5999 50.7004 85.7999 51.1004 84.3999 51.3004H83.8999C83.1999 51.3004 82.5999 51.1004 81.8999 50.5004C81.0999 49.9004 80.1999 48.4004 80.2999 46.2004C80.2999 45.8004 80.3999 45.3004 80.4999 45.0004C80.5999 44.5004 80.7999 44.1004 81.0999 43.6004C82.8999 40.5004 86.2999 40.3004 86.3999 40.3004C86.6999 40.3004 86.9999 40.2004 87.1999 40.2004C89.5999 40.3004 89.5999 41.6004 89.5999 41.6004ZM122.2 45.0004V45.1004C122.2 45.6004 122 47.9004 120.8 49.6004C119.4 51.6004 117.6 52.9004 116.3 53.5004C116.2 53.6004 116 53.6004 115.9 53.7004C115.1 54.1004 114.3 54.6004 113.3 54.8004H113.1C113 54.8004 112.9 54.8004 112.7 54.7004C112.5 54.6004 112.2 54.5004 112.2 54.1004C112.2 54.0004 112.2 53.9004 112.5 53.5004C113.1 52.7004 115.1 49.8004 115.6 45.6004C115.9 43.3004 115.6 41.6004 114.8 40.8004C114.3 40.2004 113.6 40.0004 112.5 40.0004H112.1C109.4 40.2004 108.2 42.7004 107.9 44.0004C107.6 45.5004 107.2 47.7004 107 49.3004C106.9 49.8004 106.9 51.0004 107.8 51.3004C108.6 51.6004 109 52.1004 108.9 52.7004C108.8 53.2004 108.5 53.5004 108 53.5004H99.2999C98.7999 53.5004 98.5999 53.4004 98.4999 53.3004C98.2999 53.1004 98.1999 52.8004 98.1999 52.6004C98.1999 52.3004 98.2999 52.0004 98.4999 51.7004C98.6999 51.4004 98.9999 51.4004 99.2999 51.3004C99.7999 51.2004 100.4 51.0004 100.7 49.6004C100.9 48.4004 101.2 46.6004 101.4 45.0004C101.7 43.4004 101.9 41.9004 102 41.0004V40.7004C102 40.7004 101.9 40.6004 101.7 40.7004C101.6 40.7004 99.9999 40.8004 99.6999 39.9004C99.2999 38.8004 100.1 38.6004 100.4 38.4004H100.5C100.9 38.3004 104.8 37.1004 105.6 37.1004H106.3C106.5 37.1004 106.7 37.2004 106.8 37.3004C107.4 37.8004 107.4 38.5004 107.3 39.1004C108.3 38.1004 109.9 37.1004 112.2 36.9004C112.4 36.9004 112.7 36.8004 113.3 36.8004H113.5C114.3 36.8004 115 36.9004 115.2 36.9004C117.5 37.2004 119.1 38.1004 120.4 39.7004C121.3 40.9004 122.2 42.5004 122.2 45.0004ZM73.7999 33.3004L70.3999 52.9004C70.3999 53.0004 70.2999 53.6004 70.2999 53.7004C70.1999 54.2004 69.6999 54.6004 69.1999 54.6004C68.0999 54.6004 66.8999 53.0004 66.7999 52.9004L66.6999 52.7004C65.3999 51.0004 57.9999 39.6004 56.4999 37.4004L54.3999 49.5004C54.3999 49.5004 53.9999 51.3004 54.9999 51.8004C56.5999 52.5004 56.5999 53.0004 56.3999 53.5004C56.2999 53.7004 56.1999 54.0004 55.5999 54.1004H54.5999C54.1999 54.1004 53.0999 54.0004 51.3999 54.0004C50.2999 54.0004 49.0999 54.1004 48.2999 54.2004C47.8999 54.2004 47.5999 54.3004 47.4999 54.3004H47.2999C47.0999 54.3004 46.6999 54.3004 46.3999 54.0004C46.1999 53.8004 46.0999 53.5004 46.1999 53.1004C46.2999 52.5004 46.9999 52.4004 47.6999 52.2004H47.7999C49.1999 51.8004 49.6999 50.2004 49.8999 49.5004C50.1999 47.9004 50.7999 43.9004 51.3999 40.3004C51.8999 37.0004 52.3999 34.2004 52.4999 33.5004C52.6999 32.4004 52.3999 31.6004 51.4999 31.0004L50.4999 30.5004C50.1999 30.3004 49.9999 29.9004 49.9999 29.6004C49.9999 29.2004 50.2999 28.9004 50.5999 28.8004C50.5999 28.8004 50.8999 28.8004 51.3999 28.7004C51.9999 28.6004 52.5999 28.6004 53.1999 28.6004H54.3999C54.5999 28.6004 54.8999 28.6004 55.2999 28.7004H55.5999C58.3999 29.1004 60.8999 31.5004 63.6999 36.3004C64.6999 38.1004 65.9999 40.1004 67.0999 41.8004C67.4999 42.4004 67.7999 42.9004 68.0999 43.4004L69.7999 33.6004C69.7999 33.6004 70.0999 31.5004 68.6999 31.0004C67.8999 30.7004 67.3999 30.1004 67.4999 29.6004C67.5999 29.0004 68.0999 28.7004 68.7999 28.8004H69.5999C69.9999 28.8004 71.0999 28.9004 72.7999 28.9004C73.8999 28.9004 75.0999 28.8004 75.8999 28.7004C76.2999 28.7004 76.6999 28.6004 76.7999 28.6004H76.8999C77.1999 28.6004 77.4999 28.8004 77.5999 29.1004V29.2004C77.6999 30.0004 77.1999 30.6004 75.8999 30.9004C74.0999 31.0004 73.7999 33.2004 73.7999 33.3004ZM147 49.8004H146.7C146.3 49.8004 146.1 50.0004 145.8 50.1004C145.6 50.2004 145.4 50.4004 145.1 50.4004C145.1 50.4004 145 50.4004 145 50.3004C144.7 49.9004 144.9 48.6004 145 48.1004V48.0004C145.1 47.3004 145.2 46.4004 145.4 45.3004C145.5 44.7004 145.6 44.1004 145.7 43.6004C145.9 42.2004 146.4 39.4004 146.8 37.9004C147.7 33.9004 148.7 31.2004 149.2 30.0004C149.4 29.4004 149.5 29.2004 149.5 29.1004C149.5 28.9004 149.5 28.3004 149 28.0004C148.9 28.0004 148.8 27.9004 148.7 27.9004C148.1 27.9004 147.2 28.5004 146.7 28.9004C142.9 31.7004 141.3 36.6004 140.8 38.5004C140.7 38.5004 140.7 38.4004 140.6 38.4004C140.5 38.4004 140.5 38.3004 140.4 38.3004C138.9 37.6004 136.8 37.5004 136.7 37.5004H134.6C132.6 37.6004 131.2 38.1004 130.9 38.2004C130.5 38.4004 129.9 38.6004 129.5 38.8004C127.2 39.9004 125.5 41.6004 124.5 43.9004C124.3 44.5004 122.6 49.4004 126.4 52.6004L126.6 52.8004L126.7 52.9004C126.8 53.0004 126.9 53.1004 127.1 53.1004L127.2 53.2004C127.3 53.2004 127.3 53.3004 127.3 53.3004C127.8 53.6004 128.2 53.8004 128.8 54.0004C129.2 54.2004 129.9 54.4004 130.6 54.5004C131.1 54.6004 132.2 54.7004 132.6 54.7004H132.7C135.2 54.6004 136.9 54.0004 137.8 53.5004L138.1 53.3004C138.7 52.9004 139.1 52.6004 139.3 52.3004C139.3 52.4004 139.4 52.5004 139.4 52.5004C139.7 53.1004 140.9 54.2004 142.8 54.2004H143.7C144.8 54.1004 146.8 53.5004 147.4 51.5004C147.5 51.2004 147.6 50.7004 147.4 50.4004C147.4 50.0004 147.3 49.9004 147 49.8004ZM130.7 46.4004C130.7 46.0004 130.8 45.5004 130.9 45.1004V45.0004C131 44.5004 131.2 44.1004 131.5 43.6004C133.3 40.5004 136.8 40.3004 136.9 40.3004C137.2 40.3004 137.5 40.2004 137.7 40.2004C139.4 40.2004 139.9 40.9004 140 41.3004V41.5004C140 41.8004 139.6 45.0004 139.4 46.4004C139.3 46.9004 139.1 48.0004 138.6 48.8004C138.4 49.1004 138.2 49.4004 138.1 49.6004C137 50.7004 136.2 51.2004 134.8 51.3004H134.3C133.6 51.3004 133 51.1004 132.3 50.5004C131.5 50.0004 130.6 48.6004 130.7 46.4004ZM189 48.9004C189 50.1004 188.4 51.4004 187.2 52.4004C186.2 53.3004 184.7 54.0004 183.1 54.4004C182.7 54.5004 181.3 54.8004 179.5 54.8004C178.2 54.8004 176.9 54.6004 175.9 54.3004L175.6 54.2004C174.7 53.9004 173.9 53.5004 173.3 53.0004L173 52.7004C172.2 51.8004 172.1 50.7004 172.7 49.7004C173 49.1004 173.6 48.6004 174.2 48.4004C175.2 48.0004 176.2 48.0004 176.5 48.0004H176.7C177.1 48.0004 177.9 48.1004 178.2 48.5004C178.3 48.7004 178.4 48.9004 178.3 49.1004C178.3 49.2004 178.2 49.4004 177.9 49.5004C177.2 49.9004 176.6 50.2004 176.5 50.6004C176.5 50.8004 176.5 51.0004 176.6 51.2004C176.9 51.6004 177.8 51.9004 179 51.9004H179.1C180.4 51.9004 181.5 51.5004 182 50.9004C182.2 50.6004 182.4 50.3004 182.3 50.0004C182.3 49.9004 182.3 49.8004 182.2 49.7004C181.6 48.5004 180 47.0004 177.1 45.0004C177 44.9004 176.9 44.9004 176.8 44.8004C175 43.5004 175.1 42.5004 175.1 42.1004C175.1 41.7004 175.2 41.4004 175.2 41.4004C175.9 39.0004 178.6 38.3004 180.2 38.1004C180.8 38.0004 181.2 38.0004 181.5 38.0004H182.4C183.7 38.0004 184.7 38.1004 185.1 38.2004C185.4 38.3004 185.6 38.3004 185.8 38.3004C186.4 38.3004 186.6 38.0004 186.8 37.7004C187 37.5004 187.3 37.2004 187.7 37.3004H187.8C188.3 37.3004 188.5 37.6004 188.5 38.6004C188.5 39.4004 188.3 41.7004 188.2 42.2004C188.2 42.6004 188.1 42.9004 187.9 43.0004C187.8 43.1004 187.6 43.2004 187.3 43.2004C186.9 43.2004 186.5 42.6004 186.5 42.4004C186.3 41.8004 185.3 41.0004 183.4 41.0004H183.3C182.3 41.0004 182 41.2004 181.9 41.3004C181.8 41.4004 181.8 41.5004 181.8 41.6004C181.8 41.9004 182.4 42.2004 182.8 42.5004C183 42.6004 183.1 42.7004 183.3 42.8004C184.2 43.5004 185 44.0004 185.6 44.5004C186.3 45.0004 186.7 45.3004 187.1 45.6004C187.8 45.9004 189 46.8004 189 48.9004ZM173 38.1004C172.9 38.2004 172.7 38.2004 172.5 38.3004H172.3C172.1 38.3004 171.9 38.3004 171.8 38.2004C171.5 37.9004 171.6 37.5004 171.7 37.4004C172.8 35.8004 172.5 33.3004 172.2 32.1004V32.0004C172.1 31.7004 172.1 31.4004 172.1 31.2004C172.1 29.9004 172.9 29.4004 173 29.4004C173 29.4004 173.1 29.3004 173.2 29.3004H173.3C173.3 29.3004 173.5 29.2004 173.6 29.2004H173.9C174.3 29.1004 174.9 29.1004 175.5 29.4004C175.5 29.4004 175.6 29.4004 175.6 29.5004C175.9 29.7004 176.2 29.9004 176.4 30.2004C176.6 30.5004 176.8 30.8004 176.9 31.2004C177 31.7004 177 32.3004 177 33.0004C177 33.0004 176.9 33.8004 176.7 34.4004L176.5 35.0004L176 36.0004C176 36.0004 175.9 36.1004 175.9 36.2004C175.9 36.3004 175.8 36.3004 175.8 36.4004C175.6 36.7004 175.5 36.8004 175.3 37.1004C175.3 37.2004 175.2 37.2004 175.1 37.3004L175 37.4004C174.8 37.6004 174.6 37.7004 174.4 37.9004C173.8 37.7004 173.3 38.0004 173 38.1004ZM169 39.7004C166.8 37.5004 163.5 37.2004 161.7 37.2004C160.8 37.2004 160.1 37.3004 160.1 37.3004C155.8 37.9004 152.6 39.6004 150.7 42.1004C148.7 44.7004 148.8 47.3004 148.8 48.0004C149.1 51.6004 151.3 53.8004 155.2 54.4004C155.2 54.4004 156.4 54.6004 158.1 54.6004C160.1 54.6004 162 54.3004 163.6 53.7004C165.3 53.1004 166.4 52.2004 166.5 52.2004C168.7 50.6004 169.6 48.9004 169.6 48.8004C170.9 46.2004 171.9 42.5004 169 39.7004ZM155.3 48.0004V47.4004C155.3 46.5004 155.7 45.3004 155.8 45.0004V44.9004C156.1 44.0004 156.3 43.6004 156.7 42.9004C157.5 41.8004 157.8 41.4004 158.6 40.8004C159.3 40.3004 160.3 40.2004 160.4 40.2004H161.7C161.8 40.2004 162.6 40.3004 163.3 41.0004C164 41.7004 164.5 42.7004 164.5 43.9004C164.5 44.5004 164.5 45.0004 164.4 45.8004C164.1 47.3004 163.6 48.3004 163.2 48.9004C162.6 49.8004 162.1 50.4004 161.2 50.9004C160.8 51.1004 160 51.6004 158.8 51.6004C158.5 51.6004 158.1 51.6004 157.8 51.5004C157.4 51.4004 156.8 51.1004 156.8 51.1004L156.5 50.8004C155.8 50.1004 155.4 49.2004 155.3 48.0004Z" fill="black"/>
<path d="M32.7002 30.8999C32.8002 29.4999 32.9002 26.0999 33.1002 23.3999C33.4002 23.7999 33.9002 24.1999 34.6002 23.9999C34.9002 23.8999 35.7002 23.6999 35.8002 22.5999C35.8002 21.9999 35.4002 21.1999 34.1002 19.7999L33.8002 19.4999C34.5002 18.7999 35.7002 17.5999 36.3002 16.5999L36.4002 16.2999L36.2002 16.0999C35.0002 15.0999 33.4002 14.1999 32.6002 13.7999C32.2002 13.5999 31.9002 13.3999 31.6002 13.2999L31.7002 13.1999C32.4002 12.4999 35.4002 9.09994 33.5002 4.59994C31.7002 0.0999374 27.0002 0.199937 24.5002 0.699937C23.6002 0.899937 22.8002 1.39994 22.4002 1.59994C20.8002 2.69994 19.6002 4.29994 19.2002 6.19994C18.8002 8.29994 19.4002 10.5999 21.0002 12.0999C21.3002 12.3999 21.4002 12.4999 21.5002 12.3999C21.5002 12.3999 21.6002 11.9999 22.2002 11.3999C22.4002 11.1999 23.6002 10.1999 25.2002 10.6999C26.1002 10.9999 26.6002 11.4999 26.9002 12.1999C27.0002 12.4999 27.1002 12.8999 27.1002 13.2999H27.0002C25.8002 13.9999 24.5002 15.7999 24.8002 19.8999C25.2002 24.5999 25.5002 28.4999 25.7002 30.6999C25.0002 30.6999 24.3002 30.7999 23.7002 30.8999C24.7002 26.5999 24.5002 21.6999 19.8002 18.6999C15.2002 15.9999 8.9002 16.8999 4.9002 20.2999C0.900203 23.6999 0.000202656 29.4999 2.1002 34.1999L2.7002 35.3999C3.4002 36.5999 4.3002 37.5999 5.4002 38.3999C6.5002 39.1999 7.8002 39.7999 9.1002 40.1999C9.9002 40.4999 10.7002 40.6999 11.6002 40.7999C11.7002 40.7999 11.8002 40.6999 11.7002 40.5999C11.6002 40.4999 11.6002 40.3999 11.6002 40.3999C11.4002 39.9999 11.2002 39.4999 11.1002 38.9999C10.8002 37.2999 11.3002 35.2999 12.8002 34.1999C14.1002 33.1999 16.1002 33.1999 17.4002 34.1999L18.0002 34.7999C17.2002 36.4999 17.2002 38.3999 17.5002 39.5999C17.7002 40.3999 17.8002 40.6999 17.9002 41.0999C18.6002 43.2999 20.6002 45.6999 21.3002 46.5999C22.3002 47.8999 25.3002 50.9999 26.4002 52.0999V56.6999C26.0002 56.8999 23.5002 58.4999 22.4002 60.8999C22.3002 61.0999 22.5002 61.3999 22.8002 61.3999C24.7002 61.0999 27.1002 60.8999 29.5002 60.8999C31.8002 60.8999 34.0002 61.0999 35.9002 61.3999C36.2002 61.3999 36.4002 61.1999 36.3002 60.8999C35.2002 58.5999 32.7002 56.9999 32.3002 56.6999V52.0999C33.3002 50.9999 36.1002 47.8999 37.0002 46.5999C37.7002 45.6999 40.3002 42.2999 40.8002 39.5999C41.2002 36.9999 40.7002 31.1999 32.7002 30.8999ZM35.0002 16.6999C34.5002 17.3999 33.8002 18.0999 33.2002 18.5999C33.2002 17.0999 32.9002 15.9999 32.5002 15.1999C34.0002 15.6999 35.0002 16.6999 35.0002 16.6999Z" fill="black"/>
<path d="M34.6002 22.1998C34.7002 22.4998 34.7002 22.7998 34.4002 22.9998C34.2002 23.0998 33.9002 22.9998 33.7002 22.7998V22.5998C33.6002 22.4998 33.6002 22.2998 33.5002 22.0998C33.4002 21.6998 33.3002 20.9998 33.2002 20.6998V20.4998L33.3002 20.5998C33.6002 20.8998 34.1002 21.3998 34.3002 21.6998C34.4002 21.8998 34.5002 22.0998 34.6002 22.1998ZM20.4002 21.0998C19.1002 19.7998 17.3002 18.9998 15.5002 18.7998C10.7002 17.9998 5.50021 20.0998 3.30021 24.4998C1.50021 28.2998 2.30021 33.4998 5.20021 36.4998C6.60021 37.7998 8.00021 38.5998 9.80021 38.9998C9.80021 38.9998 9.60021 37.7998 9.90021 36.4998C10.2002 35.0998 10.9002 33.2998 13.0002 32.4998C16.1002 31.2998 17.9002 32.7998 19.0002 33.4998C19.7002 32.6998 20.2002 32.3998 20.9002 32.0998C21.5002 31.7998 21.8002 31.6998 22.3002 31.5998C22.9002 30.1998 23.2002 27.5998 22.9002 26.0998C22.4002 24.3998 22.2002 22.6998 20.4002 21.0998ZM32.2002 35.8998C30.1002 35.6998 29.2002 37.5998 29.2002 37.6998C29.2002 37.5998 28.3002 35.6998 26.2002 35.8998C24.0002 36.0998 22.6002 38.6998 25.5002 42.7998C28.3002 46.7998 29.2002 46.9998 29.2002 46.9998C29.3002 46.9998 30.1002 46.7998 32.9002 42.7998C35.9002 38.7998 34.4002 36.0998 32.2002 35.8998ZM28.3002 12.7998V12.9998C29.0002 12.8998 29.7002 12.8998 30.2002 12.9998C31.4002 11.9998 32.3002 10.4998 32.6002 8.7998C32.9002 6.8998 32.5002 5.0998 31.4002 3.7998C30.2002 2.4998 28.7002 1.7998 26.8002 1.7998H26.5002C24.7002 1.7998 23.6002 2.1998 22.3002 3.2998C21.8002 3.6998 20.6002 4.8998 20.4002 6.7998C20.3002 7.7998 20.4002 8.5998 20.5002 8.9998C20.5002 9.0998 20.5002 9.1998 20.6002 9.1998C20.7002 9.5998 20.8002 9.8998 21.2002 10.4998C21.7002 9.9998 22.3002 9.6998 23.0002 9.4998C23.5002 9.3998 24.0002 9.2998 24.5002 9.2998C24.7002 9.2998 26.0002 9.4998 26.9002 10.1998C28.2002 11.2998 28.3002 12.2998 28.3002 12.7998Z" fill="black"/>
<path d="M28.9 20.7C29.1 20.4 29.5 20.2 29.8 20.4C30.1 20.5 30.2 20.9 30.1 21.2V21.4C30 21.5 29.9 21.7 29.7 21.9C29.4 22.2 28.9 22.9 28.6 23.2C28.5 23.3 28.5 23.4 28.5 23.3V23.1C28.6 22.7 28.7 21.7 28.8 21.4C28.7 21.1 28.8 20.9 28.9 20.7C28.9 20.8 28.8 20.8 28.9 20.7ZM31.1 16.8C31.1 17.8 30.3 18.6 29.3 18.6C28.3 18.6 27.5 17.8 27.5 16.8C27.5 15.8 28.3 15 29.3 15C30.3 15 31.1 15.8 31.1 16.8ZM30.1 16.8C30.1 16.3 29.7 16 29.3 16C28.8 16 28.5 16.4 28.5 16.8C28.5 17.3 28.9 17.6 29.3 17.6C29.8 17.7 30.1 17.3 30.1 16.8ZM32.6 15.2C33 16 33.3 17.1 33.3 18.6C33.8 18.1 34.6 17.4 35.1 16.7C35 16.7 34 15.7 32.6 15.2Z" fill="white"/>
<path d="M16.7003 22.5002C17.1973 22.5002 17.6003 22.0973 17.6003 21.6002C17.6003 21.1031 17.1973 20.7002 16.7003 20.7002C16.2032 20.7002 15.8003 21.1031 15.8003 21.6002C15.8003 22.0973 16.2032 22.5002 16.7003 22.5002Z" fill="white"/>
<path d="M19.3004 24.8C19.7974 24.8 20.2004 24.3971 20.2004 23.9C20.2004 23.4029 19.7974 23 19.3004 23C18.8033 23 18.4004 23.4029 18.4004 23.9C18.4004 24.3971 18.8033 24.8 19.3004 24.8Z" fill="white"/>
<path d="M20.2003 27.8996C20.6974 27.8996 21.1003 27.4967 21.1003 26.9996C21.1003 26.5026 20.6974 26.0996 20.2003 26.0996C19.7032 26.0996 19.3003 26.5026 19.3003 26.9996C19.3003 27.4967 19.7032 27.8996 20.2003 27.8996Z" fill="white"/>
<path d="M7.30039 36.3C7.79745 36.3 8.20039 35.8971 8.20039 35.4C8.20039 34.9029 7.79745 34.5 7.30039 34.5C6.80333 34.5 6.40039 34.9029 6.40039 35.4C6.40039 35.8971 6.80333 36.3 7.30039 36.3Z" fill="white"/>
<path d="M5.4 33.5998C5.89706 33.5998 6.3 33.1969 6.3 32.6998C6.3 32.2027 5.89706 31.7998 5.4 31.7998C4.90294 31.7998 4.5 32.2027 4.5 32.6998C4.5 33.1969 4.90294 33.5998 5.4 33.5998Z" fill="white"/>
<path d="M4.6002 30.5002C5.09725 30.5002 5.5002 30.0973 5.5002 29.6002C5.5002 29.1031 5.09725 28.7002 4.6002 28.7002C4.10314 28.7002 3.7002 29.1031 3.7002 29.6002C3.7002 30.0973 4.10314 30.5002 4.6002 30.5002Z" fill="white"/>
<path d="M5.1002 27.2004C5.59725 27.2004 6.0002 26.7974 6.0002 26.3004C6.0002 25.8033 5.59725 25.4004 5.1002 25.4004C4.60314 25.4004 4.2002 25.8033 4.2002 26.3004C4.2002 26.7974 4.60314 27.2004 5.1002 27.2004Z" fill="white"/>
<path d="M6.80039 24.3996C7.29745 24.3996 7.70039 23.9967 7.70039 23.4996C7.70039 23.0026 7.29745 22.5996 6.80039 22.5996C6.30333 22.5996 5.90039 23.0026 5.90039 23.4996C5.90039 23.9967 6.30333 24.3996 6.80039 24.3996Z" fill="white"/>
<path d="M9.80039 22.5002C10.2974 22.5002 10.7004 22.0973 10.7004 21.6002C10.7004 21.1031 10.2974 20.7002 9.80039 20.7002C9.30333 20.7002 8.90039 21.1031 8.90039 21.6002C8.90039 22.0973 9.30333 22.5002 9.80039 22.5002Z" fill="white"/>
<path d="M13.3004 21.8C13.7974 21.8 14.2004 21.3971 14.2004 20.9C14.2004 20.4029 13.7974 20 13.3004 20C12.8033 20 12.4004 20.4029 12.4004 20.9C12.4004 21.3971 12.8033 21.8 13.3004 21.8Z" fill="white"/>
<path d="M19.5001 31.0998C19.9972 31.0998 20.4001 30.6969 20.4001 30.1998C20.4001 29.7027 19.9972 29.2998 19.5001 29.2998C19.003 29.2998 18.6001 29.7027 18.6001 30.1998C18.6001 30.6969 19.003 31.0998 19.5001 31.0998Z" fill="white"/>
</svg>
