<svg width="238" height="50" viewBox="0 0 238 50" fill="none" xmlns="http://www.w3.org/2000/svg">
<path fill-rule="evenodd" clip-rule="evenodd" d="M199.414 37.8318L217.936 12.426H226.69L208.167 37.8318H199.414ZM188.683 0.722656H237.42V49.5135H188.683V0.722656ZM195.502 7.5523V42.6731H230.558V7.5523H195.502Z" fill="black"/>
<path fill-rule="evenodd" clip-rule="evenodd" d="M10.7869 18.3068L9.85761 17.76L8.84827 17.4033L7.76116 17.1645L6.71508 17.0694H2.56002V33.4865H6.09265L7.64554 33.3687L8.9261 33.1299L10.0899 32.702L11.0614 32.1314L11.8741 31.3933L12.4965 30.4175L12.9623 29.3703L13.3102 28.1579L13.5058 26.7779L13.5826 25.2066L13.5058 23.9228L13.3102 22.6142L12.9623 21.3769L12.4965 20.2346L11.7185 19.1886L10.7869 18.3068ZM8.0702 35.4619L6.36498 35.5808H0V15H5.78143L7.14087 15.0713L8.61593 15.1891L9.97323 15.4755L11.2938 15.857L12.6132 16.5475L13.6225 17.4509L14.5141 18.4256L15.2122 19.6154L15.719 20.8538L16.0302 22.2327L16.2626 23.7078L16.2993 25.2066L16.2626 26.8481L15.9913 28.3956L15.6012 29.7994L15.0598 31.1069L14.2828 32.2503L13.428 33.2012L12.3409 34.0571L11.1393 34.7228L9.66415 35.1993L8.0702 35.4619Z" fill="black"/>
<path fill-rule="evenodd" clip-rule="evenodd" d="M24.6438 22.733L23.6269 22.8518L22.7667 23.2798L22.0254 23.779L21.4786 24.4933L21.0496 25.3492L20.7772 26.2526L20.6217 27.2533H28.3104L28.2315 26.2775L28.0359 25.3492L27.688 24.4933L27.139 23.8028L26.4776 23.2787L25.6563 22.8508L24.6438 22.733ZM20.5838 28.9423V29.2276L20.6227 30.1796L20.8551 31.0604L21.1684 31.9162L21.5964 32.7246L22.221 33.3438L22.9245 33.843L23.7425 34.1272L24.7183 34.2472L25.6563 34.1272L26.4776 33.843L27.139 33.3902L27.688 32.7246L28.0781 31.9162L28.3104 30.988H30.6154L30.2642 32.3442L29.7185 33.4626L28.9372 34.3434L28.0781 35.0566L27.0223 35.5558L25.8119 35.8184L24.5227 35.9362L23.1558 35.8184L21.9843 35.4845L20.9318 34.9604L20.0748 34.3174L19.3681 33.4616L18.8246 32.463L18.4344 31.2959L18.1599 30.0348L18.0811 28.6797L18.1599 27.3224L18.4344 26.0149L18.8246 24.8002L19.3681 23.7769L20.1116 22.8497L21.0085 22.064L22.1032 21.4924L23.3135 21.1833L24.7173 21.0645L26.0454 21.1833L27.1379 21.4459L28.077 21.9452L28.8572 22.6584L29.4429 23.4192L29.9497 24.395L30.3398 25.3935L30.5354 26.513L30.6532 27.7028L30.6932 28.9402H20.5838V28.9423Z" fill="black"/>
<path fill-rule="evenodd" clip-rule="evenodd" d="M42.7275 35.6286L42.6486 33.3916L41.9094 34.2724L41.1746 34.9629L40.282 35.3908L39.3159 35.6999L38.1542 35.8198L36.9136 35.6999L35.8676 35.3908L35.0128 34.9629L34.3579 34.3437L33.8143 33.5343L33.5031 32.5596L33.2697 31.4411L33.1919 30.2038V21.3047H35.672V30.06L35.7119 30.823L35.8254 31.561L36.0588 32.1781L36.3322 32.7497L36.6813 33.2728L37.2248 33.6067L37.9597 33.8444L38.8145 33.8909L39.8573 33.7731L40.6699 33.4867L41.328 32.9875L41.797 32.3694L42.1839 31.6313L42.4551 30.7992L42.5686 29.8223L42.6486 28.8476V21.3047H45.0109V31.9403L45.0876 35.6286H42.7275Z" fill="black"/>
<path fill-rule="evenodd" clip-rule="evenodd" d="M52.9555 35.8193L51.9494 35.7469L51.1335 35.4616L50.4765 35.0099L49.9718 34.3918L49.6995 33.5338L49.585 32.4877V23.0418H46.8726V21.3042H49.585V18.4967L51.9861 17.4971V21.3042H55.0833V23.0418H51.9861V32.1776L52.1039 32.7957L52.2574 33.2723L52.6453 33.6062L53.1478 33.7726L53.8848 33.8439L55.2 33.725V35.628L54.0804 35.7469L52.9555 35.8193Z" fill="black"/>
<path fill-rule="evenodd" clip-rule="evenodd" d="M61.9237 35.9378L60.8322 35.8903L59.8607 35.7001L58.9238 35.3672L58.1057 34.8669L57.4444 34.2488L56.9376 33.4631L56.6264 32.4646L56.5107 31.2748H58.9238L59.0027 32.1556L59.3539 32.8926L59.7818 33.4631L60.4043 33.8446L61.1434 34.1299L62.0404 34.2012L62.7806 34.1299L63.523 33.9635L64.1843 33.6296L64.6523 33.1065L65.0424 32.5349L65.1591 31.7741L65.0424 31.1549L64.81 30.5605L64.3778 30.1801L63.8731 29.8225L62.9762 29.5134L61.9636 29.2043L61.0267 28.9904L60.2887 28.8002L59.5095 28.4911L58.8082 28.181L58.1825 27.753L57.64 27.2538L57.2488 26.707L56.9743 25.9689L56.9008 25.0406L56.9743 24.0421L57.3655 23.1614L57.9123 22.4482L58.5737 21.9241L59.3939 21.4486L60.2887 21.186L61.2223 20.9958L62.1581 20.9482L63.1718 20.9958L64.1087 21.186L64.9268 21.495L65.7026 21.9241L66.2873 22.5422L66.7941 23.2565L67.1053 24.1848L67.2242 25.2794H64.81L64.6523 24.3987L64.3411 23.6606L63.7186 23.1614L63.0162 22.8048L62.0804 22.6848L61.4179 22.7335L60.7576 22.9226L60.172 23.1614L59.6662 23.5418L59.3539 24.1124L59.2383 24.7791L59.3539 25.3972L59.5495 25.8489L59.9396 26.2304L60.4832 26.587L61.4968 26.9685L62.4305 27.2062L63.4063 27.4677L64.1843 27.7055L64.9268 27.9919L65.6227 28.3009L66.2484 28.7051L66.7941 29.2043L67.1853 29.7998L67.4565 30.5605L67.5754 31.4888L67.4565 32.4884L67.1853 33.3453L66.6785 34.0823L66.1317 34.6302L65.4314 35.1759L64.6155 35.4861L63.7186 35.7952L62.8606 35.8903L61.9237 35.9378Z" fill="black"/>
<path fill-rule="evenodd" clip-rule="evenodd" d="M75.9496 35.9375L74.5879 35.8197L73.3376 35.462L72.2851 34.9628L71.3482 34.3198L70.6058 33.4629L69.9823 32.4406L69.55 31.2508L69.3177 30.0135L69.2388 28.5859L69.3177 27.1811L69.55 25.826L69.9823 24.6362L70.6058 23.5415L71.3482 22.6132L72.2851 21.8762L73.3776 21.3046L74.6668 20.948L76.0673 20.8291L77.2344 20.8993L78.2567 21.1382L79.1839 21.5196L79.9695 22.0664L80.6849 22.757L81.2317 23.6604L81.5894 24.7064L81.7774 25.8735H79.3514L79.1839 24.8977L78.9235 24.1121L78.4469 23.494L77.7802 23.0423L77.0183 22.757L76.0673 22.6608L75.058 22.757L74.1978 23.0423L73.4954 23.494L72.9076 24.1121L72.4407 24.8502L72.1295 25.7071L71.895 26.5641L71.8161 27.5377L71.7383 28.466L71.8161 29.3953L71.895 30.2761L72.1673 31.1795L72.5196 31.9878L72.9475 32.7259L73.4954 33.2727L74.1978 33.7968L75.058 34.0821L75.9496 34.2009L76.9027 34.0821L77.711 33.7255L78.4469 33.2727L78.9235 32.607L79.2812 31.75L79.4238 30.7753H81.852L81.6121 31.9878L81.2317 33.0825L80.6849 33.9632L79.9695 34.63L79.1612 35.2005L78.1843 35.5809L77.1156 35.89L75.9496 35.9375Z" fill="black"/>
<path fill-rule="evenodd" clip-rule="evenodd" d="M93.6504 35.5808V26.8017L93.5575 26.0398L93.4602 25.3017L93.2462 24.6588L92.9869 24.0893L92.559 23.5889L91.9873 23.2323L91.2719 22.9946L90.4398 22.9697L89.4175 23.0648L88.6784 23.3512L87.9425 23.8504L87.4886 24.4686L87.0844 25.3017L86.824 26.1349L86.6803 27.0383L86.5852 28.0141V35.5808H84.2305V15H86.5852V23.469L87.3211 22.5656L88.0603 21.8761L88.9637 21.3996L89.9633 21.138L91.0806 21.0192L92.319 21.138L93.3673 21.3996L94.2221 21.8761L94.9126 22.4942L95.4345 23.3036L95.7458 24.2319L95.9608 25.3968L96.0062 26.659V35.5808H93.6504Z" fill="black"/>
<path fill-rule="evenodd" clip-rule="evenodd" d="M105.098 22.733L104.098 22.8518L103.24 23.2798L102.549 23.779L102.028 24.4933L101.552 25.3492L101.292 26.2526L101.124 27.2533H108.737L108.643 26.2775L108.453 25.3492L108.118 24.4933L107.571 23.8028L106.904 23.2787L106.096 22.8508L105.098 22.733ZM101.099 28.9423V29.2276L101.122 30.1796L101.36 31.0604L101.671 31.9162L102.099 32.7246L102.717 33.3438L103.408 33.843L104.216 34.1272L105.167 34.2472L106.095 34.1272L106.903 33.843L107.57 33.3902L108.117 32.7246L108.498 31.9162L108.736 30.988H110.999L110.664 32.3442L110.115 33.4626L109.378 34.3434L108.498 35.0566L107.452 35.5558L106.286 35.8184L104.976 35.9362L103.644 35.8184L102.48 35.4845L101.482 34.9604L100.599 34.3174L99.8879 33.4616L99.3627 32.463L98.9812 31.2959L98.6981 30.0348L98.6235 28.6797L98.6981 27.3224L98.9812 26.0149L99.3627 24.8002L99.8879 23.7769L100.625 22.8497L101.529 22.064L102.597 21.4924L103.788 21.1833L105.168 21.0645L106.5 21.1833L107.571 21.4459L108.498 21.9452L109.26 22.6584L109.856 23.4192L110.355 24.395L110.736 25.3935L110.926 26.513L111.045 27.7028L111.115 28.9402H101.099V28.9423Z" fill="black"/>
<path fill-rule="evenodd" clip-rule="evenodd" d="M127.034 25.9436H122.821V33.4854H126.985L127.797 33.439L128.582 33.3201L129.295 33.1288L129.986 32.9386L130.532 32.582L131.034 32.0828L131.438 31.4646L131.63 30.7266L131.745 29.7507L131.63 28.7511L131.367 27.8953L130.914 27.181L130.391 26.6817L129.678 26.3478L128.87 26.1338L127.963 26.0387L127.034 25.9436ZM127.034 17.0932H122.821V23.9682H126.629L127.463 23.9218L128.317 23.8018L129.008 23.5878L129.675 23.1826L130.148 22.732L130.602 22.1128L130.817 21.2796L130.911 20.3989L130.817 19.4955L130.528 18.6871L130.055 18.1403L129.438 17.6886L128.744 17.3309L127.912 17.1645L127.034 17.0932ZM126.984 35.5808H120.276V15H127.296L128.341 15.0713L129.317 15.2367L130.339 15.5457L131.196 15.9272L131.983 16.474L132.672 17.1645L133.198 18.0204L133.504 18.9962L133.624 20.1622L133.504 21.3758L133.198 22.3743L132.649 23.2312L131.863 23.9218L130.96 24.4448L129.865 24.8263L130.96 25.0878L131.982 25.4919L132.839 26.0636L133.503 26.7768L134.005 27.5862L134.312 28.6571L134.432 29.8707L134.312 31.1545L134.005 32.2503L133.503 33.1288L132.839 33.8669L132.1 34.4612L131.149 34.914L130.149 35.2242L129.128 35.4133L128.082 35.5332L126.984 35.5808Z" fill="black"/>
<path fill-rule="evenodd" clip-rule="evenodd" d="M144.31 28.3477H143.594L142.904 28.4179L142.12 28.4655L141.359 28.6568L140.643 28.8945L139.979 29.156L139.453 29.5375L139.025 30.0605L138.739 30.751L138.621 31.5118L138.739 32.345L139.048 32.988L139.573 33.5823L140.215 33.8914L140.931 34.2015L141.69 34.2242L142.665 34.2015L143.452 33.8914L144.02 33.5823L144.545 33.0831L144.878 32.4412L145.186 31.7506L145.354 30.9888L145.471 30.1556L145.52 29.3224V28.419H145.092L144.686 28.3488L144.31 28.3477ZM146.02 35.5804L145.783 33.5812L144.997 34.462L144.189 35.1525L143.262 35.5804L142.237 35.8895L141.073 35.937L140.146 35.8895L139.218 35.6744L138.409 35.3654L137.693 34.9374L137.125 34.3182L136.603 33.5802L136.34 32.653L136.221 31.6296L136.34 30.5587L136.649 29.6553L137.125 28.9172L137.743 28.2991L138.505 27.7998L139.337 27.4421L140.264 27.1806L141.239 26.9904L142.238 26.8726L143.214 26.8251H144.143L144.857 26.8726H145.522V26.0632L145.474 25.135L145.283 24.3969L144.997 23.7777L144.616 23.2784L144.02 22.8743L143.332 22.6603L142.426 22.6127L141.689 22.6603L140.952 22.8029L140.498 23.1595L140.023 23.6588L139.762 24.278L139.596 25.1339H137.193L137.384 24.0867L137.739 23.1585L138.239 22.4204L138.906 21.8736L139.665 21.4456L140.522 21.1831L141.475 21.0166L142.402 20.9453L143.639 21.0166L144.736 21.2544L145.614 21.5634L146.353 22.1351L146.901 22.8008L147.374 23.729L147.566 24.7762L147.687 26.1086V31.4146L147.756 32.7697L147.851 33.9595L147.946 34.9353L148.114 35.5772H146.02V35.5804Z" fill="black"/>
<path fill-rule="evenodd" clip-rule="evenodd" d="M160.486 35.5805V26.8241L160.439 26.0633L160.345 25.3263L160.108 24.706L159.821 24.1365L159.464 23.6124L158.918 23.2785L158.182 23.0418L157.322 22.9943L156.397 23.1121L155.612 23.3984L154.943 23.8501L154.492 24.398L154.087 25.0875L153.827 25.8731L153.588 26.6814L153.54 27.5621L153.469 28.418V35.5805H151.09V24.0166L151.018 22.9219V22.0433L150.969 21.2566H153.397L153.423 23.5411L154.134 22.6603L154.943 21.9936L155.848 21.4479L156.825 21.1853L157.991 21.0664L159.251 21.1853L160.297 21.4479L161.156 21.9234L161.821 22.5415L162.369 23.3509L162.724 24.2791L162.915 25.4441L162.987 26.6814V35.5805H160.486Z" fill="black"/>
<path fill-rule="evenodd" clip-rule="evenodd" d="M175.573 35.5808L168.813 27.5149L175.05 21.2104H178.139L171.673 27.3971L178.689 35.5819L175.573 35.5808ZM166.319 35.5808V15H168.698V35.5808H166.319Z" fill="black"/>
</svg>
