<svg width="149" height="55" viewBox="0 0 149 55" fill="none" xmlns="http://www.w3.org/2000/svg">
<g clip-path="url(#clip0_61_6613)">
<path d="M15.0001 0C15.9901 0.33 16.9801 0.66 18.0001 1C17.469 1.4125 16.9379 1.825 16.3907 2.25C10.908 6.73223 6.91681 10.9295 5.62511 18.0742C5.31372 23.183 6.66716 26.2285 10.0001 30C14.7796 33.3345 19.3484 33.7416 25.0001 33C28.4086 32.2095 31.787 31.3805 35.152 30.4236C40.6896 28.89 45.7081 27.7045 50.8751 30.625C53.519 33.5799 54.0001 35.0421 54.0001 39C52.2845 45.0047 49.245 48.62 44.0001 52C35.9391 56.0741 26.5819 56.7169 17.9142 54.0508C9.97647 50.2726 5.14404 44.6185 1.00011 37C-1.4629 29.611 -1.26766 19.5433 2.00011 12.4375C5.0758 7.22028 9.55138 2.72436 15.0001 0ZM27.0001 7C29.8244 9.19023 31.4152 10.8302 33.0001 14C33.4722 18.721 33.7337 21.6596 30.6876 25.4375C27.5033 28.4737 25.9685 28.9283 21.6251 29.25C17.7514 28.9828 16.0399 28.3449 13.0001 26C10.1764 21.7645 10.3336 17.9752 11.0001 13C14.9878 6.4867 19.7652 5.95344 27.0001 7Z" fill="black"/>
<path d="M92 8C93.32 8 94.64 8 96 8C96.33 11.3 96.66 14.6 97 18C97.8869 17.7731 98.7738 17.5463 99.6875 17.3125C103.648 16.9388 104.94 17.5349 108 20C110.086 22.655 109.999 24.0675 109.938 27.5C109 31 109 31 107.188 33.5C104 35 104 35 92 34C92 25.42 92 16.84 92 8ZM96 23C95.4999 25.9577 95.4999 25.9577 96 29C97.558 31.1478 97.558 31.1478 100 32C102.757 31.6639 102.757 31.6639 105 30C106.17 27.6513 106.17 27.6513 106 25C105.01 22.5962 105.01 22.5962 103 21C99.5162 20.4902 98.5348 20.4652 96 23Z" fill="black"/>
<path d="M70.375 10.0004C70.9112 10.3304 71.4475 10.6604 72 11.0004C72 11.9904 72 12.9804 72 14.0004C70.0625 14.5629 70.0625 14.5629 68 15.0004C67.67 14.6704 67.34 14.3404 67 14.0004C65.3338 13.9597 63.6661 13.9577 62 14.0004C61.67 14.9904 61.34 15.9804 61 17.0004C61.9223 17.4722 61.9223 17.4722 62.8633 17.9535C63.6715 18.3815 64.4798 18.8094 65.3125 19.2504C66.113 19.668 66.9135 20.0857 67.7383 20.516C70.1778 22.1171 71.5107 23.5005 73 26.0004C72.9316 29.3509 72.6059 31.243 70.5 33.8754C66.7665 35.5554 63.0331 35.5723 59 35.0004C58.01 34.3404 57.02 33.6804 56 33.0004C56.33 31.6804 56.66 30.3604 57 29.0004C60.3 29.3304 63.6 29.6604 67 30.0004C67 28.6804 67 27.3604 67 26.0004C66.2897 25.709 65.5795 25.4177 64.8477 25.1176C57.3079 21.7548 57.3079 21.7548 55.75 17.9379C56.0031 14.9636 56.2163 13.3786 58 11.0004C61.8345 8.26146 66.0918 8.19693 70.375 10.0004Z" fill="black"/>
<path d="M146 8C146.99 8 147.98 8 149 8C149 16.58 149 25.16 149 34C144.643 34.8714 141.382 35.4695 137 35C134.063 32.9375 134.063 32.9375 132 30C131.326 25.8031 131.532 23.798 133.688 20.125C136.274 17.7488 137.528 17.1736 141 17C142.32 17.33 143.64 17.66 145 18C145.33 14.7 145.66 11.4 146 8ZM137.25 22.1875C135.542 24.6639 135.485 26.0537 136 29C137.577 31.0786 137.577 31.0786 140 32C142.771 31.7418 142.771 31.7418 145 30C146.165 27.0965 146.165 27.0965 146 24C144.937 22.0197 144.937 22.0197 143 21C139.199 20.6257 139.199 20.6257 137.25 22.1875Z" fill="black"/>
<path d="M74 18C75.32 18 76.64 18 78 18C79.32 20.97 80.64 23.94 82 27C83.32 24.03 84.64 21.06 86 18C87.32 18 88.64 18 90 18C89.2518 22.9845 87.4312 27.5115 85.625 32.1875C85.1687 33.4163 85.1687 33.4163 84.7031 34.6699C84.4015 35.453 84.0998 36.2361 83.7891 37.043C83.5179 37.7548 83.2467 38.4666 82.9673 39.2C82 41 82 41 79 43C76.3125 42.625 76.3125 42.625 74 42C74 41.01 74 40.02 74 39C75.32 38.67 76.64 38.34 78 38C79.3904 33.4875 78.5135 31.0942 76.5625 26.875C74 21.2752 74 21.2752 74 18Z" fill="black"/>
<path d="M123 18C123 18.99 123 19.98 123 21C121.35 21.66 119.7 22.32 118 23C117.67 26.63 117.34 30.26 117 34C115.68 34 114.36 34 113 34C113 28.72 113 23.44 113 18C120 17 120 17 123 18Z" fill="black"/>
<path d="M125 18C126.32 18 127.64 18 129 18C129 23.28 129 28.56 129 34C127.68 34 126.36 34 125 34C125 28.72 125 23.44 125 18Z" fill="black"/>
<path d="M125 10C126.32 10 127.64 10 129 10C128.67 11.65 128.34 13.3 128 15C126.68 14.34 125.36 13.68 124 13C124.33 12.01 124.66 11.02 125 10Z" fill="black"/>
</g>
<defs>
<clipPath id="clip0_61_6613">
<rect width="149" height="55" fill="white"/>
</clipPath>
</defs>
</svg>
