<?xml version="1.0" encoding="UTF-8"?>
<svg version="1.1" xmlns="http://www.w3.org/2000/svg" width="193" height="64">
<path d="M0 0 C15.51 0 31.02 0 47 0 C47.12375 5.94 47.2475 11.88 47.375 18 C47.42962402 19.85882812 47.48424805 21.71765625 47.54052734 23.6328125 C47.77486353 37.12302501 47.77486353 37.12302501 44.29296875 41.9453125 C42.63964844 43.64160156 42.63964844 43.64160156 41 45 C40.14277344 45.73992188 39.28554688 46.47984375 38.40234375 47.2421875 C37.58894531 47.78101563 36.77554688 48.31984375 35.9375 48.875 C35.12152344 49.42929687 34.30554687 49.98359375 33.46484375 50.5546875 C29.82822223 52.68709631 27.06006599 54 22.8125 54 C14.04595735 51.70057898 6.01859138 45.95204736 0.92626953 38.40966797 C-0.42536916 34.89341233 -0.24548886 31.44584543 -0.1953125 27.734375 C-0.19329834 27.03070801 -0.19128418 26.32704102 -0.18920898 25.60205078 C-0.17877991 22.98463379 -0.15085732 20.36731005 -0.125 17.75 C-0.08375 11.8925 -0.0425 6.035 0 0 Z " fill="#76725A" transform="translate(10,0)"/>
<path d="M0 0 C5.18923424 1.03784685 7.51555398 2.70845412 11.3125 6.0625 C11.86228516 6.53494141 12.41207031 7.00738281 12.97851562 7.49414062 C14.3262696 8.654381 15.66415117 9.82607224 17 11 C17.33 9.35 17.66 7.7 18 6 C18.99 5.67 19.98 5.34 21 5 C21 3.35 21 1.7 21 0 C22.32 0.33 23.64 0.66 25 1 C24.67 1.721875 24.34 2.44375 24 3.1875 C22.98664465 6.03756191 22.91968598 8.01332251 23 11 C23.89203125 10.2059375 24.7840625 9.411875 25.703125 8.59375 C26.88496624 7.56198383 28.06728288 6.53076203 29.25 5.5 C29.83652344 4.97535156 30.42304687 4.45070313 31.02734375 3.91015625 C31.60097656 3.41386719 32.17460938 2.91757813 32.765625 2.40625 C33.28930664 1.94541016 33.81298828 1.48457031 34.35253906 1.00976562 C36 0 36 0 40 0 C40 3.3 40 6.6 40 10 C34.67067568 11.70084819 29.56890517 12.52013969 24 13 C24 13.66 24 14.32 24 15 C25.05767578 15.16822266 25.05767578 15.16822266 26.13671875 15.33984375 C29.27389512 16.06314908 31.90127906 17.19457691 34.8125 18.5625 C36.27623047 19.24505859 36.27623047 19.24505859 37.76953125 19.94140625 C38.50558594 20.29074219 39.24164063 20.64007812 40 21 C40 23.64 40 26.28 40 29 C38.2365625 29.37125 38.2365625 29.37125 36.4375 29.75 C33.40863685 30.48330371 31.15501244 31.40882979 28.5625 33.125 C24.42644205 35.60476325 20.71152075 35.92081839 16 35 C13.33409315 33.8724261 10.84165674 32.57860216 8.30859375 31.1796875 C5.57282524 29.78171442 3.05496955 29.24118181 0 29 C0 26.36 0 23.72 0 21 C1.28197266 20.36771484 1.28197266 20.36771484 2.58984375 19.72265625 C3.69457031 19.17480469 4.79929687 18.62695312 5.9375 18.0625 C7.03964844 17.51722656 8.14179688 16.97195312 9.27734375 16.41015625 C11.84794414 15.25295022 11.84794414 15.25295022 13 14 C8.71 13.01 4.42 12.02 0 11 C0 7.37 0 3.74 0 0 Z " fill="#FBF302" transform="translate(14,3)"/>
<path d="M0 0 C3.65943647 0.68907122 7.22441959 1.56821266 10.8125 2.5625 C12.27623047 2.96662109 12.27623047 2.96662109 13.76953125 3.37890625 C14.87361328 3.68634766 14.87361328 3.68634766 16 4 C16.33 5.32 16.66 6.64 17 8 C28.46626331 8.80226815 39.54594341 9.11287545 51 8 C51.03351562 7.38640625 51.06703125 6.7728125 51.1015625 6.140625 C52 4 52 4 54.8359375 2.734375 C56.00382812 2.40953125 57.17171875 2.0846875 58.375 1.75 C59.53773437 1.41484375 60.70046875 1.0796875 61.8984375 0.734375 C65 0 65 0 68 0 C67.34 1.32 66.68 2.64 66 4 C66.99 4.495 66.99 4.495 68 5 C68 5.99 68 6.98 68 8 C65.03 8.99 62.06 9.98 59 11 C59 11.99 59 12.98 59 14 C50.54548032 16.50779334 42.80182355 17.46908125 34 17.375 C32.91460937 17.38660156 31.82921875 17.39820312 30.7109375 17.41015625 C23.09255226 17.38288279 16.29635491 16.16425662 9 14 C9 13.01 9 12.02 9 11 C6.03 10.01 3.06 9.02 0 8 C0.66 6.68 1.32 5.36 2 4 C1.21690533 1.76529595 1.21690533 1.76529595 0 0 Z " fill="#6C6761" transform="translate(0,47)"/>
<path d="M0 0 C15.51 0 31.02 0 47 0 C47.12375 5.94 47.2475 11.88 47.375 18 C47.42962402 19.85882812 47.48424805 21.71765625 47.54052734 23.6328125 C47.77486353 37.12302501 47.77486353 37.12302501 44.29296875 41.9453125 C42.63964844 43.64160156 42.63964844 43.64160156 41 45 C40.14277344 45.73992188 39.28554688 46.47984375 38.40234375 47.2421875 C37.58894531 47.78101563 36.77554688 48.31984375 35.9375 48.875 C35.12152344 49.42929687 34.30554687 49.98359375 33.46484375 50.5546875 C28.22026048 53.6299582 25.01956079 54.45299743 19 53 C13.60151402 50.81570693 10.85349967 48.02215942 8 43 C15.30513308 44.7918251 15.30513308 44.7918251 18 48 C20.41460158 49.96186378 22.01245926 51.00415309 25 52 C28.1668838 50.62507196 28.1668838 50.62507196 31 49 C29.68 48.34 28.36 47.68 27 47 C28.60032137 46.15930585 30.20541171 45.32768495 31.8125 44.5 C32.70582031 44.0359375 33.59914062 43.571875 34.51953125 43.09375 C37 42 37 42 40 42 C40 41.34 40 40.68 40 40 C39.21496094 40.433125 38.42992187 40.86625 37.62109375 41.3125 C26.58927843 47.16003892 26.58927843 47.16003892 21 46 C17.8661323 44.52910403 14.92124317 42.85475757 12 41 C12.99 40.505 12.99 40.505 14 40 C15.69921875 40.8125 15.69921875 40.8125 17.6875 42 C21.87481513 44.1767992 24.36355356 44.34878442 29 43 C30.20430689 42.34238505 31.39204494 41.65363369 32.5625 40.9375 C36.15685895 38.91158859 37.96419027 38.60626247 42 39 C42 38.34 42 37.68 42 37 C40.35 37 38.7 37 37 37 C37 36.67 37 36.34 37 36 C39.97 36 42.94 36 46 36 C46 24.45 46 12.9 46 1 C31.15 1 16.3 1 1 1 C1.33 5.62 1.66 10.24 2 15 C2.33 14.67 2.66 14.34 3 14 C8.56768737 14.13630873 13.80353709 14.94876464 19 17 C15.19791273 20.30616284 9.16418515 24 4 24 C4 26.64 4 29.28 4 32 C4.78375 31.896875 5.5675 31.79375 6.375 31.6875 C10.08083972 32.00696894 11.62954201 32.73720735 14.8125 34.5 C19.65348678 37.05133087 23.57224166 38.14857059 29 37 C30.85201868 36.12099782 30.85201868 36.12099782 32.5625 35 C36.87267655 32.49226092 39.11655116 32.65730184 44 33 C44 33.33 44 33.66 44 34 C43.43152344 34.09796875 42.86304688 34.1959375 42.27734375 34.296875 C38.22940885 35.08078226 34.86741491 35.88158085 31.375 38.125 C27.34155398 40.36580334 25.55277499 40.6944911 21 40 C18.41613078 38.83120617 15.93902556 37.52949549 13.4453125 36.1796875 C10.22061177 34.62400121 7.54869285 34.23143649 4 34 C4 34.66 4 35.32 4 36 C5.670625 35.8453125 5.670625 35.8453125 7.375 35.6875 C11.27488155 35.64608533 13.67066865 36.68218921 17.0625 38.5625 C21.48661031 40.97503327 24.01274897 41.39643029 29 40 C29.804375 39.814375 30.60875 39.62875 31.4375 39.4375 C31.953125 39.293125 32.46875 39.14875 33 39 C30.34478351 41.77590814 28.91329682 42.8858379 25 43.375 C20.53433335 43.34703132 17.22731007 41.25958819 13.37890625 39.1796875 C10.61170929 37.80744861 8.0736867 37.24265948 5 37 C5.33 38.32 5.66 39.64 6 41 C3.60046961 39.39892926 1.83396495 38.17274276 0 36 C-0.53851533 32.93856931 -0.71002332 30.67551869 -0.5859375 27.63671875 C-0.57989502 26.93405884 -0.57385254 26.23139893 -0.56762695 25.50744629 C-0.536399 22.90019383 -0.45262862 20.29378363 -0.375 17.6875 C-0.25125 11.850625 -0.1275 6.01375 0 0 Z " fill="#343C76" transform="translate(10,0)"/>
<path d="M0 0 C0 3.3 0 6.6 0 10 C-5.32932432 11.70084819 -10.43109483 12.52013969 -16 13 C-16 13.66 -16 14.32 -16 15 C-14.94232422 15.16822266 -14.94232422 15.16822266 -13.86328125 15.33984375 C-10.72610488 16.06314908 -8.09872094 17.19457691 -5.1875 18.5625 C-3.72376953 19.24505859 -3.72376953 19.24505859 -2.23046875 19.94140625 C-1.49441406 20.29074219 -0.75835937 20.64007812 0 21 C0 23.64 0 26.28 0 29 C-1.7634375 29.37125 -1.7634375 29.37125 -3.5625 29.75 C-6.59136315 30.48330371 -8.84498756 31.40882979 -11.4375 33.125 C-15.57355795 35.60476325 -19.28847925 35.92081839 -24 35 C-26.66590685 33.8724261 -29.15834326 32.57860216 -31.69140625 31.1796875 C-34.42717476 29.78171442 -36.94503045 29.24118181 -40 29 C-40 26.36 -40 23.72 -40 21 C-38.59308393 20.27249212 -37.17393978 19.56859647 -35.75 18.875 C-34.96109375 18.48054688 -34.1721875 18.08609375 -33.359375 17.6796875 C-31 17 -31 17 -28.703125 17.8828125 C-27.86007813 18.43582031 -27.86007813 18.43582031 -27 19 C-28.44859426 22.38005327 -30.37330171 24.4587228 -33 27 C-26.8731187 31.16087727 -26.8731187 31.16087727 -20 33.6875 C-15.28554203 32.60710338 -11.2123312 30.33093426 -7 28 C-7.37511719 27.57589844 -7.75023437 27.15179687 -8.13671875 26.71484375 C-11.69664579 22.63482662 -14.91317997 18.4486524 -18 14 C-16.43639591 9.8689966 -13.43896012 7.48381842 -10.125 4.75 C-9.33029297 4.06164062 -9.33029297 4.06164062 -8.51953125 3.359375 C-5.32743853 0.69797759 -4.30765738 0 0 0 Z " fill="#ECEA4C" transform="translate(54,3)"/>
<path d="M0 0 C4.910023 -0.53369815 7.63679523 0.13159374 12 2.5 C16.29161327 4.76555753 19.06898077 5.89654895 24 5 C26.322362 3.79519682 28.54303119 2.47379747 30.77734375 1.11328125 C34.0539825 -0.52791742 36.40260645 -0.38270144 40 0 C40 0.66 40 1.32 40 2 C39.34 2.33 38.68 2.66 38 3 C38 3.66 38 4.32 38 5 C36.2675 5.37125 36.2675 5.37125 34.5 5.75 C31.31690263 6.52046703 28.73108782 7.5940456 25.875 9.1875 C22.22703846 11.12256801 20.04010728 11.22142778 16 10 C15.01 9.67 14.02 9.34 13 9 C16.71452322 11.37729486 19.6566171 11.49038194 24 11 C26.71293494 9.83266517 29.27733897 8.51938434 31.86328125 7.09375 C34 6 34 6 36 6 C36 6.66 36 7.32 36 8 C30.555 10.475 30.555 10.475 25 13 C26.32 13.66 27.64 14.32 29 15 C27.76115681 15.72767003 26.50831659 16.43154815 25.25 17.125 C24.55390625 17.51945312 23.8578125 17.91390625 23.140625 18.3203125 C21 19 21 19 18.93359375 18.2421875 C18.29550781 17.83226563 17.65742188 17.42234375 17 17 C15.948125 16.34 14.89625 15.68 13.8125 15 C11 13 11 13 10 11 C7.47266765 10.34444881 7.47266765 10.34444881 5 10 C5.99 11.32 6.98 12.64 8 14 C4.55571735 12.55218207 2.63869038 10.72305391 0.25 7.875 C-0.36359375 7.15054688 -0.9771875 6.42609375 -1.609375 5.6796875 C-2.06828125 5.12539063 -2.5271875 4.57109375 -3 4 C-2.67 3.34 -2.34 2.68 -2 2 C-1.01 2.99 -0.02 3.98 1 5 C1 4.34 1 3.68 1 3 C5.46526305 2.41246539 8.09373713 3.41673921 11.9375 5.5 C16.32492825 7.84614743 19.07265032 8.62902336 24 8 C24.33 7.67 24.66 7.34 25 7 C24.05125 7.268125 23.1025 7.53625 22.125 7.8125 C17.48034235 8.51623601 14.48030034 6.40880692 10.51171875 4.21484375 C6.95732164 2.49568745 3.91641803 2.21757878 0 2 C0 1.34 0 0.68 0 0 Z " fill="#7380B4" transform="translate(14,34)"/>
<path d="M0 0 C0.70253906 0.00386719 1.40507813 0.00773437 2.12890625 0.01171875 C2.83144531 0.00785156 3.53398438 0.00398438 4.2578125 0 C9.50229247 0.01010497 9.50229247 0.01010497 10.62890625 1.13671875 C10.67162725 2.8028378 10.66954457 4.4705476 10.62890625 6.13671875 C10.62890625 6.79671875 10.62890625 7.45671875 10.62890625 8.13671875 C10.95890625 8.46671875 11.28890625 8.79671875 11.62890625 9.13671875 C11.66983562 11.46969308 11.67132348 13.803771 11.62890625 16.13671875 C6.3156127 18.22661421 2.34162553 19.74799855 -3.37109375 18.13671875 C-3.70109375 19.12671875 -4.03109375 20.11671875 -4.37109375 21.13671875 C-5.03109375 21.13671875 -5.69109375 21.13671875 -6.37109375 21.13671875 C-6.09265625 19.99203125 -6.09265625 19.99203125 -5.80859375 18.82421875 C-5.14290202 16.047045 -5.14290202 16.047045 -6.37109375 13.13671875 C-6.04109375 12.47671875 -5.71109375 11.81671875 -5.37109375 11.13671875 C-6.03109375 11.13671875 -6.69109375 11.13671875 -7.37109375 11.13671875 C-6.71109375 9.81671875 -6.05109375 8.49671875 -5.37109375 7.13671875 C-4.71109375 7.13671875 -4.05109375 7.13671875 -3.37109375 7.13671875 C-3.04109375 5.81671875 -2.71109375 4.49671875 -2.37109375 3.13671875 C-3.36109375 3.13671875 -4.35109375 3.13671875 -5.37109375 3.13671875 C-5.37109375 3.79671875 -5.37109375 4.45671875 -5.37109375 5.13671875 C-6.03109375 5.13671875 -6.69109375 5.13671875 -7.37109375 5.13671875 C-6.20142953 -0.04322279 -5.36792312 0.01034282 0 0 Z M4.62890625 3.13671875 C4.62890625 4.12671875 4.62890625 5.11671875 4.62890625 6.13671875 C5.28890625 6.79671875 5.94890625 7.45671875 6.62890625 8.13671875 C6.95890625 6.48671875 7.28890625 4.83671875 7.62890625 3.13671875 C6.63890625 3.13671875 5.64890625 3.13671875 4.62890625 3.13671875 Z M-0.37109375 5.13671875 C-0.37109375 7.77671875 -0.37109375 10.41671875 -0.37109375 13.13671875 C-0.04109375 13.13671875 0.28890625 13.13671875 0.62890625 13.13671875 C0.62890625 10.49671875 0.62890625 7.85671875 0.62890625 5.13671875 C0.29890625 5.13671875 -0.03109375 5.13671875 -0.37109375 5.13671875 Z M2.62890625 13.13671875 C2.29890625 13.79671875 1.96890625 14.45671875 1.62890625 15.13671875 C2.28890625 15.13671875 2.94890625 15.13671875 3.62890625 15.13671875 C3.29890625 14.47671875 2.96890625 13.81671875 2.62890625 13.13671875 Z " fill="#1D398E" transform="translate(77.37109375,20.86328125)"/>
<path d="M0 0 C-0.66 1.32 -1.32 2.64 -2 4 C-1.34 4.33 -0.68 4.66 0 5 C0 5.99 0 6.98 0 8 C-2.97 8.99 -5.94 9.98 -9 11 C-9 11.99 -9 12.98 -9 14 C-12.67410785 15.17571451 -16.16929183 15.07366746 -20 15 C-19.34 14.67 -18.68 14.34 -18 14 C-18 13.34 -18 12.68 -18 12 C-17.67 11.67 -17.34 11.34 -17 11 C-19.64 11 -22.28 11 -25 11 C-25.33 11.99 -25.66 12.98 -26 14 C-26 13.01 -26 12.02 -26 11 C-26.66 11 -27.32 11 -28 11 C-28 12.65 -28 14.3 -28 16 C-28.99 15.67 -29.98 15.34 -31 15 C-30.67 13.68 -30.34 12.36 -30 11 C-31.98 11.66 -33.96 12.32 -36 13 C-36 12.34 -36 11.68 -36 11 C-37.32 11 -38.64 11 -40 11 C-39.67 12.65 -39.34 14.3 -39 16 C-39.99 16 -40.98 16 -42 16 C-43 14 -44 12 -45 10 C-35.76 9.34 -26.52 8.68 -17 8 C-16.67 6.68 -16.34 5.36 -16 4 C-13.1640625 2.734375 -13.1640625 2.734375 -9.625 1.75 C-8.46226563 1.41484375 -7.29953125 1.0796875 -6.1015625 0.734375 C-3 0 -3 0 0 0 Z " fill="#797365" transform="translate(68,47)"/>
<path d="M0 0 C0.66 0 1.32 0 2 0 C2 4.95 2 9.9 2 15 C3.98 15 5.96 15 8 15 C8 10.05 8 5.1 8 0 C10 0 10 0 11.65625 1.64453125 C12.2646875 2.35996094 12.873125 3.07539063 13.5 3.8125 C14.1084375 4.52019531 14.716875 5.22789063 15.34375 5.95703125 C17 8 17 8 19 11 C17.30099815 12.01577335 15.59029549 13.0119898 13.875 14 C12.92367187 14.556875 11.97234375 15.11375 10.9921875 15.6875 C7.607029 17.1723737 5.65726672 17.45715834 2 17 C-0.9921875 15.6875 -0.9921875 15.6875 -3.875 14 C-4.84179688 13.443125 -5.80859375 12.88625 -6.8046875 12.3125 C-7.52914063 11.879375 -8.25359375 11.44625 -9 11 C-8.60167969 10.54109375 -8.20335938 10.0821875 -7.79296875 9.609375 C-4.39984291 5.68325173 -4.39984291 5.68325173 -1.25 1.5625 C-0.8375 1.046875 -0.425 0.53125 0 0 Z " fill="#1E368E" transform="translate(29,20)"/>
<path d="M0 0 C0.495 1.98 0.495 1.98 1 4 C-5.08450401 9.89754997 -11.84650659 15.91265265 -20.6875 16.0625 C-27.56551609 13.8563439 -31.40822198 11.32152932 -35 5 C-27.69486692 6.7918251 -27.69486692 6.7918251 -25 10 C-22.58539842 11.96186378 -20.98754074 13.00415309 -18 14 C-14.8331162 12.62507196 -14.8331162 12.62507196 -12 11 C-13.32 10.34 -14.64 9.68 -16 9 C-14.39967863 8.15930585 -12.79458829 7.32768495 -11.1875 6.5 C-10.29417969 6.0359375 -9.40085937 5.571875 -8.48046875 5.09375 C-6 4 -6 4 -3 4 C-3 3.34 -3 2.68 -3 2 C-3.78503906 2.433125 -4.57007812 2.86625 -5.37890625 3.3125 C-16.41072157 9.16003892 -16.41072157 9.16003892 -22 8 C-25.1338677 6.52910403 -28.07875683 4.85475757 -31 3 C-30.34 2.67 -29.68 2.34 -29 2 C-27.30078125 2.8125 -27.30078125 2.8125 -25.3125 4 C-21.12518487 6.1767992 -18.63644644 6.34878442 -14 5 C-12.21123521 4.03958937 -10.498121 2.99882403 -8.77734375 1.921875 C-5.91057641 0.43493634 -3.19594053 0.2608931 0 0 Z " fill="#233686" transform="translate(53,38)"/>
<path d="M0 0 C1.32 0.33 2.64 0.66 4 1 C3.67 1.66 3.34 2.32 3 3 C1.41949756 7.74150731 1.40287909 12.20863728 3 17 C2.91255992 19.5808926 2.77131505 22.11691478 2.5625 24.6875 C2.51029297 25.38939453 2.45808594 26.09128906 2.40429688 26.81445312 C2.27492135 28.54338054 2.13817469 30.27175355 2 32 C0.02 32 -1.96 32 -4 32 C-4.19430855 29.3753399 -4.38073238 26.75053235 -4.5625 24.125 C-4.61857422 23.37863281 -4.67464844 22.63226562 -4.73242188 21.86328125 C-5.11328125 16.2265625 -5.11328125 16.2265625 -4 14 C-3.34 14 -2.68 14 -2 14 C-2.33 11.36 -2.66 8.72 -3 6 C-2.01 5.67 -1.02 5.34 0 5 C0 3.35 0 1.7 0 0 Z " fill="#A9A575" transform="translate(35,3)"/>
<path d="M0 0 C1.32 0.66 2.64 1.32 4 2 C4 2.99 4 3.98 4 5 C3.34 5 2.68 5 2 5 C2 6.65 2 8.3 2 10 C2.99 10 3.98 10 5 10 C4.87625 8.3603125 4.87625 8.3603125 4.75 6.6875 C5 3 5 3 6.6875 0.9375 C9 0 9 0 11.75 0.8125 C12.4925 1.204375 13.235 1.59625 14 2 C14 5.3 14 8.6 14 12 C12.35 12.66 10.7 13.32 9 14 C8.67 13.67 8.34 13.34 8 13 C4.93518979 12.8386942 2.94450722 13.01849759 0 14 C-0.99 13.67 -1.98 13.34 -3 13 C-2.67 9.37 -2.34 5.74 -2 2 C-1.34 2 -0.68 2 0 2 C0 1.34 0 0.68 0 0 Z M9 4 C9 5.98 9 7.96 9 10 C9.99 10.495 9.99 10.495 11 11 C11 8.69 11 6.38 11 4 C10.34 4 9.68 4 9 4 Z " fill="#1D398E" transform="translate(113,26)"/>
<path d="M0 0 C4.910023 -0.53369815 7.63679523 0.13159374 12 2.5 C16.29161327 4.76555753 19.06898077 5.89654895 24 5 C26.322362 3.79519682 28.54303119 2.47379747 30.77734375 1.11328125 C34.0539825 -0.52791742 36.40260645 -0.38270144 40 0 C40 0.66 40 1.32 40 2 C39.34 2.33 38.68 2.66 38 3 C38 3.66 38 4.32 38 5 C36.2675 5.37125 36.2675 5.37125 34.5 5.75 C31.31690263 6.52046703 28.73108782 7.5940456 25.875 9.1875 C23.19528633 10.57949134 22.1062507 11 19 11 C15.79795076 9.93265025 13.00750515 8.50254609 10.03515625 6.921875 C7.02618744 5.55888721 4.27721227 5.27310102 1 5 C1 4.34 1 3.68 1 3 C5.46526305 2.41246539 8.09373713 3.41673921 11.9375 5.5 C16.32492825 7.84614743 19.07265032 8.62902336 24 8 C24.33 7.67 24.66 7.34 25 7 C24.05125 7.268125 23.1025 7.53625 22.125 7.8125 C17.48034235 8.51623601 14.48030034 6.40880692 10.51171875 4.21484375 C6.95732164 2.49568745 3.91641803 2.21757878 0 2 C0 1.34 0 0.68 0 0 Z " fill="#9CA8CE" transform="translate(14,34)"/>
<path d="M0 0 C15.51 0 31.02 0 47 0 C47.061875 6.043125 47.12375 12.08625 47.1875 18.3125 C47.22846802 21.16902222 47.22846802 21.16902222 47.27026367 24.08325195 C47.27902578 25.59325526 47.28667037 27.10326565 47.29296875 28.61328125 C47.30831665 29.39682983 47.32366455 30.18037842 47.33947754 30.9876709 C47.34216038 36.54384117 47.34216038 36.54384117 45.48168945 39.02416992 C44.99273193 39.34619385 44.50377441 39.66821777 44 40 C43.01 39.505 43.01 39.505 42 39 C42 38.34 42 37.68 42 37 C40.35 37 38.7 37 37 37 C37 36.67 37 36.34 37 36 C39.97 36 42.94 36 46 36 C46 24.45 46 12.9 46 1 C31.15 1 16.3 1 1 1 C1 12.55 1 24.1 1 36 C0.67 36 0.34 36 0 36 C0 24.12 0 12.24 0 0 Z " fill="#203A8B" transform="translate(10,0)"/>
<path d="M0 0 C3.8063457 0.67170806 7.35206816 1.72746564 11 3 C11 3.66 11 4.32 11 5 C12.32 5.33 13.64 5.66 15 6 C15 8 15 8 13.5 9.625 C13.005 10.07875 12.51 10.5325 12 11 C13.32 11.66 14.64 12.32 16 13 C16.99 12.34 17.98 11.68 19 11 C19 12.32 19 13.64 19 15 C21.97 15.495 21.97 15.495 25 16 C21.23331402 17.3805087 18.55210827 16.59568159 14.75 15.5625 C13.67234375 15.27503906 12.5946875 14.98757812 11.484375 14.69140625 C10.66453125 14.46324219 9.8446875 14.23507813 9 14 C9 13.01 9 12.02 9 11 C6.03 10.01 3.06 9.02 0 8 C0.66 6.68 1.32 5.36 2 4 C1.21690533 1.76529595 1.21690533 1.76529595 0 0 Z " fill="#656567" transform="translate(0,47)"/>
<path d="M0 0 C1.98 0 3.96 0 6 0 C6 1.65 6 3.3 6 5 C6.99 4.67 7.98 4.34 9 4 C10.97388065 7.94776129 10.57703182 12.70713691 10 17 C7.6875 19.6875 7.6875 19.6875 5 21 C4.01 21 3.02 21 2 21 C1.24722485 18.26750659 0.83358297 15.71899317 0.68359375 12.890625 C0.64169922 12.13652344 0.59980469 11.38242187 0.55664062 10.60546875 C0.51732422 9.82816406 0.47800781 9.05085938 0.4375 8.25 C0.39431641 7.45722656 0.35113281 6.66445313 0.30664062 5.84765625 C0.20097009 3.89862185 0.10002034 1.94933252 0 0 Z M5 8 C4.67 11.3 4.34 14.6 4 18 C4.66 18 5.32 18 6 18 C7.14352916 15.71294169 7.10334439 14.40735238 7.0625 11.875 C7.041875 10.59625 7.02125 9.3175 7 8 C6.34 8 5.68 8 5 8 Z " fill="#1D398E" transform="translate(140,22)"/>
<path d="M0 0 C0.5775 0.165 1.155 0.33 1.75 0.5 C4.26664369 1.14462031 4.26664369 1.14462031 8 1 C8.66 1 9.32 1 10 1 C10 4.63 10 8.26 10 12 C8.02 12.99 8.02 12.99 6 14 C4.39274365 10.78548731 4.94251815 7.56387464 5 4 C4.34 4 3.68 4 3 4 C3.33 6.64 3.66 9.28 4 12 C2.02 12.99 2.02 12.99 0 14 C-1.2380014 10.42355152 -0.74926071 7.66305234 0 4 C-0.66 4 -1.32 4 -2 4 C-1.34 2.68 -0.68 1.36 0 0 Z " fill="#1D398E" transform="translate(130,26)"/>
<path d="M0 0 C0.99 0 1.98 0 3 0 C2.835 0.598125 2.67 1.19625 2.5 1.8125 C1.8885876 4.11344336 1.8885876 4.11344336 2 7 C2 9 2 11 2 13 C-1.50776784 14.60355101 -4.14354879 15.22036864 -8 15 C-7.34 13.35 -6.68 11.7 -6 10 C-6.33 9.67 -6.66 9.34 -7 9 C-7.04080783 7.00041636 -7.04254356 4.99954746 -7 3 C-4.625 1.9375 -4.625 1.9375 -2 1 C-1.34 1.33 -0.68 1.66 0 2 C0 1.34 0 0.68 0 0 Z M-4 5 C-4 5.66 -4 6.32 -4 7 C-3.34 7 -2.68 7 -2 7 C-2 6.34 -2 5.68 -2 5 C-2.66 5 -3.32 5 -4 5 Z M-3 9 C-3 9.66 -3 10.32 -3 11 C-2.34 11 -1.68 11 -1 11 C-1 10.34 -1 9.68 -1 9 C-1.66 9 -2.32 9 -3 9 Z " fill="#1D398E" transform="translate(181,25)"/>
<path d="M0 0 C0.99 0.66 1.98 1.32 3 2 C2.67 4.64 2.34 7.28 2 10 C2.66 10 3.32 10 4 10 C4 7.03 4 4.06 4 1 C5.32 1 6.64 1 8 1 C8.33 4.63 8.66 8.26 9 12 C7.02 12.99 7.02 12.99 5 14 C5 13.34 5 12.68 5 12 C3.35 12.66 1.7 13.32 0 14 C-0.39180108 12.42074025 -0.76280736 10.83631206 -1.125 9.25 C-1.33382812 8.36828125 -1.54265625 7.4865625 -1.7578125 6.578125 C-2.03088304 3.67124507 -1.53508028 2.43338652 0 0 Z " fill="#1D398E" transform="translate(164,26)"/>
<path d="M0 0 C-0.33 2.97 -0.66 5.94 -1 9 C-0.34 9.33 0.32 9.66 1 10 C0.01 11.485 0.01 11.485 -1 13 C-2.32 12.34 -3.64 11.68 -5 11 C-5.33 11.66 -5.66 12.32 -6 13 C-6.99 12.67 -7.98 12.34 -9 12 C-10.16063604 7.74433453 -9.76173392 4.3164922 -9 0 C-5.52176885 -1.15941038 -3.54104422 -0.70820884 0 0 Z M-7 6 C-6.67 6.99 -6.34 7.98 -6 9 C-5.34 8.34 -4.68 7.68 -4 7 C-4.99 6.67 -5.98 6.34 -7 6 Z " fill="#1D398E" transform="translate(109,27)"/>
<path d="M0 0 C5.66531181 0.45934961 10.67192698 0.89681328 16 3 C12.80815657 5.64179275 9.58418661 7.14549017 5.75 8.6875 C4.67234375 9.12449219 3.5946875 9.56148437 2.484375 10.01171875 C1.66453125 10.33785156 0.8446875 10.66398437 0 11 C0 7.37 0 3.74 0 0 Z " fill="#173293" transform="translate(13,14)"/>
<path d="M0 0 C1.65 0 3.3 0 5 0 C5.33 1.32 5.66 2.64 6 4 C10.95 4.33 15.9 4.66 21 5 C21 5.33 21 5.66 21 6 C19.02 6.33 17.04 6.66 15 7 C15 8.65 15 10.3 15 12 C8.125 11.125 8.125 11.125 7 10 C4.67451993 9.30643577 2.34119555 8.63850788 0 8 C0.66 6.68 1.32 5.36 2 4 C2.66 4 3.32 4 4 4 C4 3.34 4 2.68 4 2 C2.68 1.34 1.36 0.68 0 0 Z " fill="#9BA7D1" transform="translate(11,51)"/>
<path d="M0 0 C0 3.3 0 6.6 0 10 C-5.47247917 8.23196827 -10.75021185 6.34565002 -16 4 C-16 3.34 -16 2.68 -16 2 C-10.54538831 0.61470179 -5.63281599 -0.2396943 0 0 Z " fill="#213A8D" transform="translate(54,14)"/>
<path d="M0 0 C0 3.3 0 6.6 0 10 C-4.33085971 11.29925791 -8.51474352 12.343621 -13 13 C-11.70700306 10.11562221 -10.34058637 8.12780579 -8 6 C-8.33 5.67 -8.66 5.34 -9 5 C-4.5 0 -4.5 0 0 0 Z " fill="#F0EA0A" transform="translate(54,3)"/>
<path d="M0 0 C0.56203125 0.36867188 1.1240625 0.73734375 1.703125 1.1171875 C0.1354678 4.96507335 -2.09016596 7.49351647 -5.296875 10.1171875 C-8.609375 10.4296875 -8.609375 10.4296875 -11.296875 10.1171875 C-11.296875 7.8071875 -11.296875 5.4971875 -11.296875 3.1171875 C-9.88995893 2.38967962 -8.47081478 1.68578397 -7.046875 0.9921875 C-6.25796875 0.59773438 -5.4690625 0.20328125 -4.65625 -0.203125 C-2.296875 -0.8828125 -2.296875 -0.8828125 0 0 Z " fill="#F8F004" transform="translate(25.296875,20.8828125)"/>
<path d="M0 0 C3.96 0 7.92 0 12 0 C7.56570077 4.57734114 2.89853248 8.92126325 -2 13 C-2.33 13 -2.66 13 -3 13 C-3.38281159 7.76824163 -2.21854707 4.62197306 0 0 Z " fill="#1D3590" transform="translate(39,2)"/>
<path d="M0 0 C3.63 0 7.26 0 11 0 C13.95047835 4.61012242 15.5497272 7.36529617 15 13 C4.46431765 5.28295475 4.46431765 5.28295475 0 1 C0 0.67 0 0.34 0 0 Z " fill="#1B3492" transform="translate(17,2)"/>
<path d="M0 0 C1.65 0 3.3 0 5 0 C5 11.55 5 23.1 5 35 C4.34 35 3.68 35 3 35 C3 34.01 3 33.02 3 32 C1.02 32 -0.96 32 -3 32 C-3 31.67 -3 31.34 -3 31 C-1.02 31 0.96 31 3 31 C2.91621094 29.74445312 2.83242188 28.48890625 2.74609375 27.1953125 C2.21430563 18.67053621 1.74761527 10.48838542 3 2 C2.01 2 1.02 2 0 2 C0 1.34 0 0.68 0 0 Z " fill="#6B6969" transform="translate(51,1)"/>
<path d="M0 0 C2.6875 0.875 2.6875 0.875 5 2 C5 5.3 5 8.6 5 12 C2.75 13.125 2.75 13.125 0 14 C-2.171875 13.0546875 -2.171875 13.0546875 -4 12 C-3.9129995 10.37399059 -3.8048219 8.74910322 -3.6875 7.125 C-3.62949219 6.22007813 -3.57148438 5.31515625 -3.51171875 4.3828125 C-3 2 -3 2 0 0 Z M0 4 C0 5.98 0 7.96 0 10 C0.99 10.495 0.99 10.495 2 11 C2 8.69 2 6.38 2 4 C1.34 4 0.68 4 0 4 Z " fill="#1D398E" transform="translate(155,26)"/>
<path d="M0 0 C2 3 2 3 2 6 C0 8.1875 0 8.1875 -2 10 C-1.34 10.33 -0.68 10.66 0 11 C0 10.34 0 9.68 0 9 C0.66 9 1.32 9 2 9 C2 9.99 2 10.98 2 12 C-1.52948291 13.66670026 -3.28272326 14.13583456 -7 13 C-6.94004678 11.20739868 -6.8512759 9.41574205 -6.75 7.625 C-6.70359375 6.62726562 -6.6571875 5.62953125 -6.609375 4.6015625 C-6 2 -6 2 -4.078125 0.6484375 C-2 0 -2 0 0 0 Z M-3 3 C-3 3.99 -3 4.98 -3 6 C-2.34 5.67 -1.68 5.34 -1 5 C-1.66 4.34 -2.32 3.68 -3 3 Z " fill="#1D398E" transform="translate(191,26)"/>
<path d="M0 0 C0.99 0.33 1.98 0.66 3 1 C4.1875 3.5625 4.1875 3.5625 5 6 C3.35 6.66 1.7 7.32 0 8 C0.66 8.66 1.32 9.32 2 10 C2.66 9.67 3.32 9.34 4 9 C3.67 10.32 3.34 11.64 3 13 C-0.01031744 13.93423645 -0.86650268 14.04449911 -4 13 C-3.91306859 11.20741442 -3.80489496 9.41584856 -3.6875 7.625 C-3.60048828 6.12839844 -3.60048828 6.12839844 -3.51171875 4.6015625 C-3.34285156 3.74304688 -3.17398438 2.88453125 -3 2 C-2.01 1.34 -1.02 0.68 0 0 Z M0 4 C1 6 1 6 1 6 Z " fill="#1D398E" transform="translate(94,26)"/>
<path d="M0 0 C0.91644287 0.00523682 1.83288574 0.01047363 2.77709961 0.01586914 C3.76645508 0.0190918 4.75581055 0.02231445 5.77514648 0.02563477 C6.81606445 0.03401367 7.85698242 0.04239258 8.92944336 0.05102539 C10.49662109 0.05779297 10.49662109 0.05779297 12.09545898 0.06469727 C14.68600996 0.07652627 17.27644895 0.0930085 19.86694336 0.11352539 C19.86694336 0.44352539 19.86694336 0.77352539 19.86694336 1.11352539 C19.03549805 1.16250977 18.20405273 1.21149414 17.34741211 1.26196289 C16.26073242 1.33672852 15.17405273 1.41149414 14.05444336 1.48852539 C12.97549805 1.55813477 11.89655273 1.62774414 10.78491211 1.69946289 C7.6806815 1.92548272 7.6806815 1.92548272 4.86694336 4.11352539 C4.14311869 6.17277678 4.14311869 6.17277678 3.86694336 8.11352539 C2.21694336 7.78352539 0.56694336 7.45352539 -1.13305664 7.11352539 C-1.79305664 5.13352539 -2.45305664 3.15352539 -3.13305664 1.11352539 C-2.13305664 0.11352539 -2.13305664 0.11352539 0 0 Z " fill="#939148" transform="translate(31.133056640625,0.886474609375)"/>
<path d="M0 0 C7.59 0 15.18 0 23 0 C22.01 0.33 21.02 0.66 20 1 C19.67 1.99 19.34 2.98 19 4 C19 3.01 19 2.02 19 1 C18.34 1 17.68 1 17 1 C17 2.65 17 4.3 17 6 C16.01 5.67 15.02 5.34 14 5 C14.33 3.68 14.66 2.36 15 1 C13.02 1.66 11.04 2.32 9 3 C9 2.34 9 1.68 9 1 C7.68 1 6.36 1 5 1 C5.33 2.65 5.66 4.3 6 6 C5.01 6 4.02 6 3 6 C2 4 1 2 0 0 Z " fill="#34417B" transform="translate(23,57)"/>
<path d="M0 0 C-0.66 1.32 -1.32 2.64 -2 4 C-2.66 4 -3.32 4 -4 4 C-4 4.66 -4 5.32 -4 6 C-3.34 6.33 -2.68 6.66 -2 7 C-5.465 8.485 -5.465 8.485 -9 10 C-9 8.68 -9 7.36 -9 6 C-9.99 5.67 -10.98 5.34 -12 5 C-10.68 4.67 -9.36 4.34 -8 4 C-8 3.34 -8 2.68 -8 2 C-5.09399739 0.74335022 -3.20395416 0 0 0 Z " fill="#39497E" transform="translate(68,47)"/>
<path d="M0 0 C4.83256305 0.41421969 6.82679218 2.46413986 10 6 C8.68 6 7.36 6 6 6 C5.67 6.99 5.34 7.98 5 9 C3.68 9 2.36 9 1 9 C0.67 6.03 0.34 3.06 0 0 Z " fill="#ACB236" transform="translate(14,3)"/>
<path d="M0 0 C0.61875 0.185625 1.2375 0.37125 1.875 0.5625 C4.04160178 1.23686176 4.04160178 1.23686176 6 0 C6 1.32 6 2.64 6 4 C5.34 4 4.68 4 4 4 C3.34 5.65 2.68 7.3 2 9 C1.01 9 0.02 9 -1 9 C-1 5 -1 5 0 4 C-1.32 3.34 -2.64 2.68 -4 2 C-2.68 2 -1.36 2 0 2 C0 1.34 0 0.68 0 0 Z " fill="#DDDC2D" transform="translate(27,13)"/>
<path d="M0 0 C5.75 0.875 5.75 0.875 8 2 C8 2.66 8 3.32 8 4 C7 5 6 6 5 7 C5 7.66 5 8.32 5 9 C4.34 9 3.68 9 3 9 C3 8.01 3 7.02 3 6 C1.68 5.67 0.36 5.34 -1 5 C-0.67 3.35 -0.34 1.7 0 0 Z " fill="#3B4777" transform="translate(7,51)"/>
<path d="M0 0 C0 0.66 0 1.32 0 2 C-0.66 2 -1.32 2 -2 2 C-2 2.66 -2 3.32 -2 4 C-4.97 4.66 -7.94 5.32 -11 6 C-11.33 4.35 -11.66 2.7 -12 1 C-7.93631321 0.22596442 -4.13574827 -0.0984702 0 0 Z " fill="#99A5D0" transform="translate(52,57)"/>
<path d="M0 0 C1.11375 0.495 1.11375 0.495 2.25 1 C7.5121552 2.40324139 12.5857837 2.15769562 18 2 C14.99761316 5.28442924 12.44813147 6.3097727 8 7 C5.25 5.3125 5.25 5.3125 3 3 C2.401875 2.4225 1.80375 1.845 1.1875 1.25 C0.795625 0.8375 0.40375 0.425 0 0 Z " fill="#9C9B99" transform="translate(25,46)"/>
<path d="M0 0 C7.36111111 1.80555556 7.36111111 1.80555556 10 5 C10.66 5.33 11.32 5.66 12 6 C12 6.66 12 7.32 12 8 C5.85412262 7.8794926 5.85412262 7.8794926 3.421875 5.375 C2.19203376 3.62212283 1.05530865 1.86259544 0 0 Z " fill="#696A6F" transform="translate(18,43)"/>
<path d="M0 0 C1.32 0 2.64 0 4 0 C4 0.66 4 1.32 4 2 C5.98 1.34 7.96 0.68 10 0 C10 1.65 10 3.3 10 5 C7.03 5 4.06 5 1 5 C0.67 3.35 0.34 1.7 0 0 Z " fill="#9BA8D3" transform="translate(28,58)"/>
<path d="M0 0 C1.65 0 3.3 0 5 0 C5.33 1.32 5.66 2.64 6 4 C10.95 4.33 15.9 4.66 21 5 C21 5.33 21 5.66 21 6 C18.91673869 6.02709444 16.83337559 6.04643873 14.75 6.0625 C13.00976562 6.07990234 13.00976562 6.07990234 11.234375 6.09765625 C8.59022872 6.01782092 6.50173909 5.78643778 4 5 C4 4.01 4 3.02 4 2 C2.68 1.34 1.36 0.68 0 0 Z " fill="#8F7C45" transform="translate(11,51)"/>
<path d="M0 0 C1.32 0 2.64 0 4 0 C4 3.3 4 6.6 4 10 C2.35 10.33 0.7 10.66 -1 11 C-0.505 10.5875 -0.01 10.175 0.5 9.75 C2.43386092 7.87797662 2.43386092 7.87797662 2 4 C1.01 3.67 0.02 3.34 -1 3 C-0.67 2.01 -0.34 1.02 0 0 Z " fill="#F4F107" transform="translate(50,3)"/>
<path d="M0 0 C0.33 1.32 0.66 2.64 1 4 C-0.6875 6.3125 -0.6875 6.3125 -3 8 C-4.32 7.67 -5.64 7.34 -7 7 C-4.69 4.69 -2.38 2.38 0 0 Z " fill="#5B5D66" transform="translate(53,38)"/>
<path d="M0 0 C0 0.66 0 1.32 0 2 C-2.31 2 -4.62 2 -7 2 C-7 2.66 -7 3.32 -7 4 C-8.32 4.33 -9.64 4.66 -11 5 C-11 4.01 -11 3.02 -11 2 C-7.36576791 -0.32590854 -4.22911669 -0.16265833 0 0 Z " fill="#7482B8" transform="translate(54,34)"/>
<path d="M0 0 C0.99 0.33 1.98 0.66 3 1 C3.33 2.65 3.66 4.3 4 6 C1.69 6 -0.62 6 -3 6 C-2.34 5.67 -1.68 5.34 -1 5 C-1 4.34 -1 3.68 -1 3 C-0.34 3 0.32 3 1 3 C0.67 2.01 0.34 1.02 0 0 Z " fill="#5D6691" transform="translate(51,56)"/>
<path d="M0 0 C0.33 0 0.66 0 1 0 C1 1.98 1 3.96 1 6 C2.65 5.67 4.3 5.34 6 5 C6.33 6.32 6.66 7.64 7 9 C4.69 8.67 2.38 8.34 0 8 C0 5.36 0 2.72 0 0 Z " fill="#EFED0A" transform="translate(14,6)"/>
<path d="M0 0 C1.32 0.33 2.64 0.66 4 1 C3.01 3.31 2.02 5.62 1 8 C-0.32 8 -1.64 8 -3 8 C-3 7.34 -3 6.68 -3 6 C-2.01 5.67 -1.02 5.34 0 5 C0 3.35 0 1.7 0 0 Z " fill="#E9E80F" transform="translate(35,3)"/>
<path d="M0 0 C0.66 0 1.32 0 2 0 C2.33 1.98 2.66 3.96 3 6 C1.68 6.33 0.36 6.66 -1 7 C-0.67 4.69 -0.34 2.38 0 0 Z " fill="#647066" transform="translate(33,2)"/>
<path d="M0 0 C1.65 0 3.3 0 5 0 C5.33 1.98 5.66 3.96 6 6 C5.01 6 4.02 6 3 6 C2 4 1 2 0 0 Z " fill="#263E8D" transform="translate(23,57)"/>
<path d="M0 0 C1.98 0.495 1.98 0.495 4 1 C4 2.65 4 4.3 4 6 C3.01 6 2.02 6 1 6 C1 5.34 1 4.68 1 4 C0.34 4 -0.32 4 -1 4 C-0.67 2.68 -0.34 1.36 0 0 Z " fill="#8895C2" transform="translate(22,57)"/>
<path d="M0 0 C1.32 0 2.64 0 4 0 C4 1.98 4 3.96 4 6 C3.01 6 2.02 6 1 6 C0.67 4.02 0.34 2.04 0 0 Z " fill="#C5C19F" transform="translate(32,11)"/>
<path d="M0 0 C0.33 0.66 0.66 1.32 1 2 C-0.98 2.99 -0.98 2.99 -3 4 C-3 3.01 -3 2.02 -3 1 C-2.01 0.67 -1.02 0.34 0 0 Z M-5 4 C-4.34 4.33 -3.68 4.66 -3 5 C-3.99 6.32 -4.98 7.64 -6 9 C-6.99 8.67 -7.98 8.34 -9 8 C-7.68 6.68 -6.36 5.36 -5 4 Z " fill="#FDF601" transform="translate(47,7)"/>
<path d="M0 0 C1.65 0.33 3.3 0.66 5 1 C4.01 1.33 3.02 1.66 2 2 C1.26676204 4.01508358 1.26676204 4.01508358 1 6 C0.34 5.67 -0.32 5.34 -1 5 C-0.67 3.35 -0.34 1.7 0 0 Z " fill="#153491" transform="translate(7,51)"/>
<path d="M0 0 C3.8063457 0.67170806 7.35206816 1.72746564 11 3 C8.10765685 3.82638376 6.11257569 4 3 4 C2.01 3.34 1.02 2.68 0 2 C0 1.34 0 0.68 0 0 Z " fill="#91804C" transform="translate(0,47)"/>
<path d="M0 0 C0.99 0.33 1.98 0.66 3 1 C2.67 2.65 2.34 4.3 2 6 C1.01 6 0.02 6 -1 6 C-1.042721 4.33388095 -1.04063832 2.66617115 -1 1 C-0.67 0.67 -0.34 0.34 0 0 Z " fill="#687463" transform="translate(50,6)"/>
<path d="M0 0 C2.97 0 5.94 0 9 0 C8.67 1.32 8.34 2.64 8 4 C7.01 3.67 6.02 3.34 5 3 C5 2.34 5 1.68 5 1 C3.35 1 1.7 1 0 1 C0 0.67 0 0.34 0 0 Z " fill="#28347B" transform="translate(47,36)"/>
</svg>
