<svg width="344" height="70" viewBox="0 0 344 70" fill="none" xmlns="http://www.w3.org/2000/svg">
<path d="M29.4765 24.6453C31.3085 26.1648 31.3085 26.1648 32.4765 27.6453C31.8732 28.0088 31.2699 28.3723 30.6484 28.7468C23.8163 33.019 23.8163 33.019 19.4765 39.6453C18.4354 46.1624 18.9536 51.5026 22.8437 56.9265C25.6471 59.8775 28.9239 61.7278 32.4765 63.6453C33.4665 64.3053 34.4565 64.9653 35.4765 65.6453C28.7696 69.3036 21.5623 70.0717 14.1367 67.989C7.92562 65.2233 2.99135 59.9722 0.476501 53.6453C-0.41204 46.5744 -0.456234 40.2099 3.92181 34.3601C11.1484 26.3891 18.5037 23.0433 29.4765 24.6453Z" fill="black"/>
<path d="M46.4179 1.58722C53.1074 4.76745 57.1838 8.60173 59.9297 15.6341C61.5952 21.7609 61.1738 26.9911 58.164 32.5833C56.5368 35.2759 54.8765 37.5932 52.4765 39.6458C51.8165 39.6458 51.1565 39.6458 50.4765 39.6458C50.367 38.8376 50.2574 38.0293 50.1445 37.1966C49.9859 36.128 49.8274 35.0593 49.664 33.9583C49.5132 32.9026 49.3624 31.8468 49.207 30.7591C48.2428 26.6495 46.8571 23.8329 43.6367 21.0638C37.3795 17.3934 31.6586 16.28 24.4765 17.6458C20.8518 19.29 17.667 21.2742 14.4765 23.6458C13.5914 16.8173 15.3406 13.3047 19.4609 7.85284C22.2299 4.82095 24.7462 3.32811 28.4765 1.64581C33.625 -0.928405 41.0942 -0.116669 46.4179 1.58722Z" fill="black"/>
<path d="M61.4766 26.6455C65.9503 28.0515 68.3814 30.1535 71.4766 33.6455C72.2397 34.4911 73.0028 35.3368 73.7891 36.208C76.517 41.7649 76.4045 47.7696 74.9688 53.7666C72.6685 59.7022 69.0646 64.1037 63.4766 67.0205C57.0592 69.5596 49.6229 70.1717 43.0781 67.7627C38.4042 65.0586 34.3569 61.2219 31.4766 56.6455C30.6016 53.208 30.6016 53.208 30.4766 50.6455C31.0218 50.8621 31.5671 51.0786 32.1289 51.3018C38.5129 53.6589 44.2681 55.1308 50.8672 52.8018C56.4592 50.0613 60.3612 46.5994 62.4766 40.6455C63.096 35.7996 62.7914 31.3444 61.4766 26.6455Z" fill="black"/>
<path d="M326.477 29.6455C327.467 29.6455 328.457 29.6455 329.477 29.6455C329.477 30.6355 329.477 31.6255 329.477 32.6455C331.457 32.6455 333.437 32.6455 335.477 32.6455C336.137 33.9655 336.797 35.2855 337.477 36.6455C338.137 35.3255 338.797 34.0055 339.477 32.6455C340.797 32.6455 342.117 32.6455 343.477 32.6455C341.81 37.6455 340.143 42.6455 338.477 47.6455C337.157 47.6455 335.837 47.6455 334.477 47.6455C334.428 47.0306 334.379 46.4157 334.328 45.7822C334.253 44.974 334.179 44.1657 334.102 43.333C334.032 42.5325 333.962 41.732 333.891 40.9072C333.581 38.3733 333.581 38.3733 331.477 35.6455C330.817 35.6455 330.157 35.6455 329.477 35.6455C329.477 37.6255 329.477 39.6055 329.477 41.6455C330.137 41.6455 330.797 41.6455 331.477 41.6455C331.477 42.3055 331.477 42.9655 331.477 43.6455C329.81 43.6882 328.143 43.6861 326.477 43.6455C325.477 42.6455 325.477 42.6455 325.414 39.083C325.435 37.9486 325.455 36.8143 325.477 35.6455C324.817 35.6455 324.157 35.6455 323.477 35.6455C323.477 34.6555 323.477 33.6655 323.477 32.6455C324.137 32.6455 324.797 32.6455 325.477 32.6455C325.807 31.6555 326.137 30.6655 326.477 29.6455Z" fill="#2B2B2B"/>
<path d="M165.477 32.6452C165.53 34.7699 165.569 36.8951 165.602 39.0202C165.625 40.2036 165.648 41.3869 165.672 42.6062C165.477 45.6452 165.477 45.6452 163.477 47.6452C159.852 47.7702 159.852 47.7702 156.477 47.6452C156.147 46.6552 155.817 45.6652 155.477 44.6452C157.787 44.6452 160.097 44.6452 162.477 44.6452C162.477 43.9852 162.477 43.3252 162.477 42.6452C161.528 42.6865 160.579 42.7277 159.602 42.7702C156.477 42.6452 156.477 42.6452 154.477 40.6452C154.125 37.905 154.132 36.2691 155.477 33.8327C158.717 31.909 161.759 32.4624 165.477 32.6452Z" fill="black"/>
<path d="M144.477 28.6455C146.832 28.8096 146.832 28.8096 149.477 29.6455C150.84 32.0439 150.84 32.0439 151.789 35.0205C152.115 35.9976 152.441 36.9747 152.777 37.9814C153.477 40.6455 153.477 40.6455 153.477 43.6455C152.157 43.3155 150.837 42.9855 149.477 42.6455C149.477 41.9855 149.477 41.3255 149.477 40.6455C147.167 40.6455 144.857 40.6455 142.477 40.6455C142.477 41.6355 142.477 42.6255 142.477 43.6455C141.487 43.6455 140.497 43.6455 139.477 43.6455C140.505 38.1998 141.723 33.5273 144.477 28.6455Z" fill="#242424"/>
<path d="M185.477 28.6455C186.797 28.6455 188.117 28.6455 189.477 28.6455C189.807 29.6355 190.137 30.6255 190.477 31.6455C190.889 31.1299 191.302 30.6143 191.727 30.083C192.304 29.6086 192.882 29.1343 193.477 28.6455C195.664 28.958 195.664 28.958 197.477 29.6455C196.157 31.2955 194.837 32.9455 193.477 34.6455C193.765 35.2024 194.054 35.7593 194.352 36.333C195.518 38.7305 196.511 41.1615 197.477 43.6455C195.102 43.333 195.102 43.333 192.477 42.6455C191.817 41.6555 191.157 40.6655 190.477 39.6455C190.147 40.9655 189.817 42.2855 189.477 43.6455C188.157 43.6455 186.837 43.6455 185.477 43.6455C185.477 38.6955 185.477 33.7455 185.477 28.6455Z" fill="#151515"/>
<path d="M300.477 32.6455C305.477 32.6455 310.477 32.6455 315.477 32.6455C315.807 33.6355 316.137 34.6255 316.477 35.6455C314.827 35.3155 313.177 34.9855 311.477 34.6455C311.477 35.3055 311.477 35.9655 311.477 36.6455C313.457 37.3055 315.437 37.9655 317.477 38.6455C316.602 42.5205 316.602 42.5205 315.477 43.6455C313.477 43.6863 311.476 43.6881 309.477 43.6455C309.147 42.6555 308.817 41.6655 308.477 40.6455C310.127 40.9755 311.777 41.3055 313.477 41.6455C313.477 40.9855 313.477 40.3255 313.477 39.6455C311.497 38.9855 309.517 38.3255 307.477 37.6455C307.477 36.9855 307.477 36.3255 307.477 35.6455C306.487 35.9755 305.497 36.3055 304.477 36.6455C304.147 38.9555 303.817 41.2655 303.477 43.6455C302.487 43.6455 301.497 43.6455 300.477 43.6455C300.477 40.0155 300.477 36.3855 300.477 32.6455Z" fill="#181818"/>
<path d="M242.477 28.6455C243.797 28.6455 245.117 28.6455 246.477 28.6455C246.807 32.6055 247.137 36.5655 247.477 40.6455C248.797 40.3155 250.117 39.9855 251.477 39.6455C251.807 36.0155 252.137 32.3855 252.477 28.6455C253.467 28.6455 254.457 28.6455 255.477 28.6455C255.557 30.7699 255.616 32.8951 255.664 35.0205C255.699 36.2039 255.734 37.3872 255.77 38.6064C255.673 39.6093 255.576 40.6122 255.477 41.6455C251.782 44.1087 249.844 44.0354 245.477 43.6455C243.77 42.5127 243.77 42.5127 242.477 40.6455C242.184 37.7275 242.184 37.7275 242.289 34.458C242.316 33.3713 242.343 32.2846 242.371 31.165C242.406 30.3336 242.441 29.5021 242.477 28.6455Z" fill="#111111"/>
<path d="M109.477 28.6455C110.797 28.6455 112.117 28.6455 113.477 28.6455C113.477 29.9655 113.477 31.2855 113.477 32.6455C114.26 32.6043 115.044 32.563 115.852 32.5205C118.477 32.6455 118.477 32.6455 120.477 34.6455C120.672 36.8096 120.672 36.8096 120.602 39.2705C120.584 40.0878 120.565 40.905 120.547 41.7471C120.512 42.6868 120.512 42.6868 120.477 43.6455C119.157 43.6455 117.837 43.6455 116.477 43.6455C116.147 41.0055 115.817 38.3655 115.477 35.6455C115.147 35.6455 114.817 35.6455 114.477 35.6455C114.147 38.2855 113.817 40.9255 113.477 43.6455C112.157 43.6455 110.837 43.6455 109.477 43.6455C109.477 38.6955 109.477 33.7455 109.477 28.6455Z" fill="#1E1E1E"/>
<path d="M223.477 32.6455C230.312 32.4502 230.312 32.4502 232.477 32.6455C234.477 34.6455 234.477 34.6455 234.672 36.8096C234.649 37.6217 234.625 38.4338 234.602 39.2705C234.584 40.0878 234.565 40.905 234.547 41.7471C234.512 42.6868 234.512 42.6868 234.477 43.6455C233.157 43.6455 231.837 43.6455 230.477 43.6455C230.477 41.0055 230.477 38.3655 230.477 35.6455C229.487 35.6455 228.497 35.6455 227.477 35.6455C227.477 38.2855 227.477 40.9255 227.477 43.6455C226.157 43.6455 224.837 43.6455 223.477 43.6455C223.477 40.0155 223.477 36.3855 223.477 32.6455Z" fill="#2D2D2D"/>
<path d="M169.477 32.6455C172.352 32.5205 172.352 32.5205 175.477 32.6455C177.477 34.6455 177.477 34.6455 177.672 36.8096C177.607 39.0882 177.542 41.3669 177.477 43.6455C174.507 43.6455 171.537 43.6455 168.477 43.6455C168.147 41.9955 167.817 40.3455 167.477 38.6455C170.477 36.6455 170.477 36.6455 173.477 36.6455C173.477 35.9855 173.477 35.3255 173.477 34.6455C171.827 34.9755 170.177 35.3055 168.477 35.6455C168.807 34.6555 169.137 33.6655 169.477 32.6455Z" fill="#131313"/>
<path d="M213.477 32.6455C216.352 32.5205 216.352 32.5205 219.477 32.6455C221.477 34.6455 221.477 34.6455 221.672 36.8096C221.607 39.0882 221.542 41.3669 221.477 43.6455C218.507 43.6455 215.537 43.6455 212.477 43.6455C212.147 41.9955 211.817 40.3455 211.477 38.6455C214.477 36.6455 214.477 36.6455 217.477 36.6455C217.477 35.9855 217.477 35.3255 217.477 34.6455C215.827 34.9755 214.177 35.3055 212.477 35.6455C212.807 34.6555 213.137 33.6655 213.477 32.6455Z" fill="#131313"/>
<path d="M199.477 28.6455C200.467 28.6455 201.457 28.6455 202.477 28.6455C202.807 29.9655 203.137 31.2855 203.477 32.6455C206.447 33.1405 206.447 33.1405 209.477 33.6455C209.477 36.9455 209.477 40.2455 209.477 43.6455C208.487 43.6455 207.497 43.6455 206.477 43.6455C206.147 41.0055 205.817 38.3655 205.477 35.6455C204.817 35.6455 204.157 35.6455 203.477 35.6455C203.147 38.2855 202.817 40.9255 202.477 43.6455C201.487 43.6455 200.497 43.6455 199.477 43.6455C199.477 38.6955 199.477 33.7455 199.477 28.6455Z" fill="black"/>
<path d="M258.477 32.6455C265.41 32.5479 265.41 32.5479 267.477 32.6455C268.477 33.6455 268.477 33.6455 268.574 35.9307C268.563 36.8472 268.551 37.7637 268.539 38.708C268.53 39.6271 268.521 40.5462 268.512 41.4932C268.5 42.2034 268.489 42.9137 268.477 43.6455C267.487 43.6455 266.497 43.6455 265.477 43.6455C265.281 41.5947 265.086 39.5439 264.891 37.4932C264.754 36.8834 264.617 36.2737 264.477 35.6455C263.817 35.3155 263.157 34.9855 262.477 34.6455C262.477 37.6155 262.477 40.5855 262.477 43.6455C261.157 43.6455 259.837 43.6455 258.477 43.6455C258.477 40.0155 258.477 36.3855 258.477 32.6455Z" fill="#1E1E1E"/>
<path d="M293.477 32.3955C296.477 32.6455 296.477 32.6455 298.477 34.6455C298.477 35.9655 298.477 37.2855 298.477 38.6455C296.167 38.6455 293.857 38.6455 291.477 38.6455C291.807 39.3055 292.137 39.9655 292.477 40.6455C294.127 40.6455 295.777 40.6455 297.477 40.6455C297.147 41.6355 296.817 42.6255 296.477 43.6455C293.602 43.7705 293.602 43.7705 290.477 43.6455C288.477 41.6455 288.477 41.6455 288.227 38.1455C288.542 33.7253 289.013 32.7675 293.477 32.3955Z" fill="#0B0B0B"/>
<path d="M124.477 32.6455C128.102 33.0205 128.102 33.0205 131.477 33.6455C131.807 35.2955 132.137 36.9455 132.477 38.6455C130.167 38.6455 127.857 38.6455 125.477 38.6455C125.807 39.3055 126.137 39.9655 126.477 40.6455C128.127 40.6455 129.777 40.6455 131.477 40.6455C131.147 41.6355 130.817 42.6255 130.477 43.6455C127.602 43.7705 127.602 43.7705 124.477 43.6455C122.477 41.6455 122.477 41.6455 122.227 38.1455C122.477 34.6455 122.477 34.6455 124.477 32.6455Z" fill="black"/>
<path d="M96.4766 28.6455C100.437 28.6455 104.397 28.6455 108.477 28.6455C108.477 29.6355 108.477 30.6255 108.477 31.6455C107.157 31.6455 105.837 31.6455 104.477 31.6455C104.477 35.6055 104.477 39.5655 104.477 43.6455C103.157 43.6455 101.837 43.6455 100.477 43.6455C100.477 39.3555 100.477 35.0655 100.477 30.6455C99.1566 30.6455 97.8366 30.6455 96.4766 30.6455C96.4766 29.9855 96.4766 29.3255 96.4766 28.6455Z" fill="#1A1A1A"/>
<path d="M276.477 32.6455C278.414 32.958 278.414 32.958 280.477 33.6455C280.807 34.6355 281.137 35.6255 281.477 36.6455C282.126 35.6555 282.126 35.6555 282.789 34.6455C283.346 33.9855 283.903 33.3255 284.477 32.6455C285.467 32.6455 286.457 32.6455 287.477 32.6455C286.999 34.1045 286.52 35.5626 286.039 37.0205C285.772 37.8326 285.505 38.6447 285.23 39.4814C284.477 41.6455 284.477 41.6455 283.477 43.6455C282.157 43.6455 280.837 43.6455 279.477 43.6455C276.477 37.1455 276.477 37.1455 276.477 32.6455Z" fill="#191919"/>
<path d="M199.477 28.6455C199.477 33.5955 199.477 38.5455 199.477 43.6455C197.477 43.6455 197.477 43.6455 196.117 42.29C194.72 40.4489 193.496 38.7224 192.477 36.6455C193.161 32.8793 195.231 28.6455 199.477 28.6455Z" fill="#E4E4E4"/>
<path d="M326.477 29.6455C327.467 29.6455 328.457 29.6455 329.477 29.6455C329.807 31.2955 330.137 32.9455 330.477 34.6455C329.817 34.6455 329.157 34.6455 328.477 34.6455C328.477 36.9555 328.477 39.2655 328.477 41.6455C329.467 41.6455 330.457 41.6455 331.477 41.6455C331.477 42.3055 331.477 42.9655 331.477 43.6455C329.81 43.6882 328.143 43.6861 326.477 43.6455C325.477 42.6455 325.477 42.6455 325.414 39.083C325.435 37.9486 325.455 36.8143 325.477 35.6455C324.817 35.6455 324.157 35.6455 323.477 35.6455C323.477 34.6555 323.477 33.6655 323.477 32.6455C324.137 32.6455 324.797 32.6455 325.477 32.6455C325.807 31.6555 326.137 30.6655 326.477 29.6455Z" fill="#151515"/>
<path d="M318.477 32.6455C319.797 32.6455 321.117 32.6455 322.477 32.6455C322.477 36.2755 322.477 39.9055 322.477 43.6455C321.157 43.6455 319.837 43.6455 318.477 43.6455C318.477 40.0155 318.477 36.3855 318.477 32.6455Z" fill="#343434"/>
<path d="M161.477 32.6455C161.477 33.3055 161.477 33.9655 161.477 34.6455C160.487 35.1405 160.487 35.1405 159.477 35.6455C159.31 38.062 159.31 38.062 159.477 40.6455C160.137 41.3055 160.797 41.9655 161.477 42.6455C159.102 42.7705 159.102 42.7705 156.477 42.6455C154.477 40.6455 154.477 40.6455 154.164 38.208C154.477 35.6455 154.477 35.6455 155.727 33.833C157.477 32.6455 157.477 32.6455 161.477 32.6455Z" fill="black"/>
<path d="M300.477 32.6455C303.447 33.1405 303.447 33.1405 306.477 33.6455C306.477 34.3055 306.477 34.9655 306.477 35.6455C305.487 36.1405 305.487 36.1405 304.477 36.6455C304.069 38.9671 303.732 41.3024 303.477 43.6455C302.487 43.6455 301.497 43.6455 300.477 43.6455C300.477 40.0155 300.477 36.3855 300.477 32.6455Z" fill="#080808"/>
<path d="M203.477 32.6455C206.447 33.1405 206.447 33.1405 209.477 33.6455C209.477 36.9455 209.477 40.2455 209.477 43.6455C208.487 43.6455 207.497 43.6455 206.477 43.6455C206.281 41.5947 206.086 39.5439 205.891 37.4932C205.754 36.8834 205.617 36.2737 205.477 35.6455C204.817 35.3155 204.157 34.9855 203.477 34.6455C203.477 33.9855 203.477 33.3255 203.477 32.6455Z" fill="#060606"/>
<path d="M264.477 32.6455C266.457 33.1405 266.457 33.1405 268.477 33.6455C268.477 36.9455 268.477 40.2455 268.477 43.6455C267.487 43.6455 266.497 43.6455 265.477 43.6455C264.477 36.0205 264.477 36.0205 264.477 32.6455Z" fill="#060606"/>
<path d="M214.477 36.6455C215.137 36.9755 215.797 37.3055 216.477 37.6455C217.477 41.6455 217.477 41.6455 217.477 43.6455C215.827 43.6455 214.177 43.6455 212.477 43.6455C212.147 41.9955 211.817 40.3455 211.477 38.6455C212.467 37.9855 213.457 37.3255 214.477 36.6455Z" fill="#3A3A3A"/>
<path d="M170.477 36.6455C171.137 36.9755 171.797 37.3055 172.477 37.6455C173.477 41.6455 173.477 41.6455 173.477 43.6455C171.827 43.6455 170.177 43.6455 168.477 43.6455C168.147 41.9955 167.817 40.3455 167.477 38.6455C168.467 37.9855 169.457 37.3255 170.477 36.6455Z" fill="#3A3A3A"/>
<path d="M271.477 32.6455C272.467 32.6455 273.457 32.6455 274.477 32.6455C274.477 36.2755 274.477 39.9055 274.477 43.6455C273.487 43.6455 272.497 43.6455 271.477 43.6455C271.477 40.0155 271.477 36.3855 271.477 32.6455Z" fill="#050505"/>
<path d="M293.477 32.6455C294.797 32.9755 296.117 33.3055 297.477 33.6455C297.807 35.2955 298.137 36.9455 298.477 38.6455C296.167 38.3155 293.857 37.9855 291.477 37.6455C292.137 35.9955 292.797 34.3455 293.477 32.6455Z" fill="#343434"/>
<path d="M224.477 33.6455C225.797 33.9755 227.117 34.3055 228.477 34.6455C228.147 37.6155 227.817 40.5855 227.477 43.6455C226.487 43.6455 225.497 43.6455 224.477 43.6455C224.477 40.3455 224.477 37.0455 224.477 33.6455Z" fill="#1E1E1E"/>
<path d="M124.477 32.6455C126.127 32.6455 127.777 32.6455 129.477 32.6455C129.477 34.2955 129.477 35.9455 129.477 37.6455C128.157 37.6455 126.837 37.6455 125.477 37.6455C125.147 36.9855 124.817 36.3255 124.477 35.6455C123.487 36.1405 123.487 36.1405 122.477 36.6455C123.137 35.3255 123.797 34.0055 124.477 32.6455Z" fill="#3F3F3F"/>
<path d="M291.477 38.6455C293.787 38.6455 296.097 38.6455 298.477 38.6455C298.147 39.6355 297.817 40.6255 297.477 41.6455C295.827 41.6455 294.177 41.6455 292.477 41.6455C292.147 40.6555 291.817 39.6655 291.477 38.6455Z" fill="#9D9D9D"/>
<path d="M125.477 38.6455C127.787 38.6455 130.097 38.6455 132.477 38.6455C132.147 39.6355 131.817 40.6255 131.477 41.6455C129.827 41.6455 128.177 41.6455 126.477 41.6455C126.147 40.6555 125.817 39.6655 125.477 38.6455Z" fill="#9E9E9E"/>
<path d="M159.477 34.6455C160.137 34.6455 160.797 34.6455 161.477 34.6455C161.477 36.6255 161.477 38.6055 161.477 40.6455C160.487 40.6455 159.497 40.6455 158.477 40.6455C158.434 38.9794 158.436 37.3117 158.477 35.6455C158.807 35.3155 159.137 34.9855 159.477 34.6455Z" fill="#EDEDED"/>
</svg>
