<svg width="285" height="76" viewBox="0 0 285 76" fill="none" xmlns="http://www.w3.org/2000/svg">
<path d="M98 1.12695C99.32 1.12695 100.64 1.12695 102 1.12695C105.63 7.72695 109.26 14.327 113 21.127C116.442 16.8676 116.442 16.8676 119.141 12.3574C119.489 11.6968 119.837 11.0361 120.195 10.3555C120.543 9.68193 120.891 9.0084 121.25 8.31445C121.614 7.62158 121.977 6.92871 122.352 6.21484C123.239 4.52138 124.12 2.82451 125 1.12695C126.32 1.12695 127.64 1.12695 129 1.12695C129.596 5.50418 130.184 9.8824 130.764 14.2617C130.963 15.7519 131.163 17.2418 131.366 18.7314C131.658 20.8704 131.941 23.0102 132.223 25.1504C132.395 26.4386 132.568 27.7269 132.746 29.0542C133 32.127 133 32.127 132 34.127C130.35 34.127 128.7 34.127 127 34.127C125.117 30.9018 124.675 28.2722 124.438 24.5645C124.231 21.461 123.989 19.0929 123 16.127C122.385 17.2704 121.77 18.4138 121.137 19.5918C120.321 21.083 119.504 22.5738 118.688 24.0645C118.283 24.8192 117.879 25.5739 117.463 26.3516C117.067 27.0702 116.67 27.7889 116.262 28.5293C115.9 29.1944 115.539 29.8594 115.167 30.5447C114 32.127 114 32.127 111 33.127C110.362 31.9836 109.724 30.8402 109.066 29.6621C108.232 28.1712 107.397 26.6803 106.562 25.1895C105.931 24.0573 105.931 24.0573 105.287 22.9023C104.884 22.1837 104.481 21.465 104.066 20.7246C103.695 20.0595 103.323 19.3945 102.94 18.7092C102.097 17.1412 102.097 17.1412 101 16.127C100.34 21.737 99.68 27.347 99 33.127C97.02 33.622 97.02 33.622 95 34.127C94.67 33.797 94.34 33.467 94 33.127C94.0738 22.3911 96.2281 11.6803 98 1.12695Z" fill="black"/>
<path d="M250 1.12695C251.32 1.12695 252.64 1.12695 254 1.12695C257.63 7.72695 261.26 14.327 265 21.127C268.442 16.8676 268.442 16.8676 271.141 12.3574C271.489 11.6968 271.837 11.0361 272.195 10.3555C272.543 9.68193 272.891 9.0084 273.25 8.31445C273.614 7.62158 273.977 6.92871 274.352 6.21484C275.239 4.52138 276.12 2.82451 277 1.12695C278.32 1.12695 279.64 1.12695 281 1.12695C281.513 4.56266 282.008 8.00073 282.5 11.4395C282.643 12.3966 282.786 13.3537 282.934 14.3398C283.873 20.9798 284.177 27.4242 284 34.127C282.35 34.127 280.7 34.127 279 34.127C277.157 28.204 276.039 22.2382 275 16.127C274.385 17.2704 273.77 18.4138 273.137 19.5918C272.321 21.083 271.504 22.5738 270.688 24.0645C270.283 24.8192 269.879 25.5739 269.463 26.3516C269.067 27.0702 268.67 27.7889 268.262 28.5293C267.9 29.1944 267.539 29.8594 267.167 30.5447C266 32.127 266 32.127 263 33.127C260.03 27.517 257.06 21.907 254 16.127C253.01 21.737 252.02 27.347 251 33.127C249.02 33.622 249.02 33.622 247 34.127C246.67 33.797 246.34 33.467 246 33.127C246.074 22.3911 248.228 11.6803 250 1.12695Z" fill="black"/>
<path d="M195 1.12695C196.98 1.12695 198.96 1.12695 201 1.12695C201.025 1.80274 201.05 2.47854 201.076 3.1748C201.192 6.24237 201.315 9.30964 201.438 12.377C201.477 13.4404 201.516 14.5039 201.557 15.5996C201.599 16.6244 201.641 17.6492 201.684 18.7051C201.72 19.6477 201.757 20.5903 201.795 21.5615C201.983 23.9158 202.146 25.9235 203 28.127C205.644 29.0084 207.281 29.2887 210 29.3145C211.021 29.3357 211.021 29.3357 212.063 29.3574C214.326 29.2364 214.326 29.2364 217 27.127C217.995 24.1433 218.196 21.9265 218.316 18.8027C218.358 17.7747 218.4 16.7467 218.443 15.6875C218.483 14.6156 218.522 13.5438 218.563 12.4395C218.606 11.356 218.649 10.2725 218.693 9.15625C218.8 6.47995 218.902 3.80355 219 1.12695C220.65 1.12695 222.3 1.12695 224 1.12695C224.088 4.8143 224.141 8.50138 224.188 12.1895C224.213 13.2278 224.238 14.2661 224.264 15.3359C224.321 21.366 224.188 25.9198 221 31.127C217.203 34.3504 213.887 34.5592 209 34.5645C207.206 34.5935 207.206 34.5935 205.375 34.623C201.384 34.0364 199.806 32.9782 197 30.127C194.89 26.801 194.765 24.1665 194.805 20.2676C194.811 19.1525 194.818 18.0375 194.824 16.8887C194.841 15.7298 194.858 14.5709 194.875 13.377C194.884 12.2026 194.893 11.0283 194.902 9.81836C194.926 6.92102 194.959 4.02409 195 1.12695Z" fill="black"/>
<path d="M43.0001 1.12695C44.9801 1.12695 46.9601 1.12695 49.0001 1.12695C49.0251 1.80798 49.0502 2.48901 49.076 3.19067C49.192 6.27379 49.3147 9.3566 49.4376 12.4395C49.4769 13.5113 49.5162 14.5832 49.5567 15.6875C49.6196 17.2295 49.6196 17.2295 49.6837 18.8027C49.7203 19.7506 49.757 20.6985 49.7948 21.675C49.9144 24.2631 49.9144 24.2631 51.0001 27.127C53.9975 29.1252 54.6335 29.4025 58.0001 29.377C58.6807 29.3821 59.3613 29.3873 60.0626 29.3926C62.3242 29.2261 62.3242 29.2261 65.0001 27.127C65.9946 24.1433 66.1957 21.9265 66.3165 18.8027C66.3584 17.7747 66.4003 16.7467 66.4434 15.6875C66.4828 14.6156 66.5221 13.5438 66.5626 12.4395C66.6058 11.356 66.6489 10.2725 66.6934 9.15625C66.7995 6.47995 66.9016 3.80355 67.0001 1.12695C68.6501 1.12695 70.3001 1.12695 72.0001 1.12695C72.117 4.98086 72.1876 8.83431 72.2501 12.6895C72.3003 14.3185 72.3003 14.3185 72.3516 15.9805C72.432 22.5896 72.1401 26.8506 68.0001 32.127C64.7021 34.6944 61.1397 34.4584 57.0626 34.502C55.2547 34.5445 55.2547 34.5445 53.4102 34.5879C49.3765 34.0427 47.8252 33.0076 45.0001 30.127C42.8908 26.8006 42.765 24.1667 42.8048 20.2676C42.8112 19.1525 42.8177 18.0375 42.8243 16.8887C42.8411 15.7298 42.8578 14.5709 42.8751 13.377C42.8841 12.2026 42.8931 11.0283 42.9024 9.81836C42.926 6.92102 42.9589 4.02409 43.0001 1.12695Z" fill="black"/>
<path d="M15 0.12699C17.9375 1.62699 17.9375 1.62699 20 3.12699C19.34 4.77699 18.68 6.42699 18 8.12699C17.4225 7.81762 16.845 7.50824 16.25 7.18949C14.131 6.18887 12.3074 5.51155 10 5.12699C9.01 5.62199 9.01 5.62199 8 6.12699C8 7.77699 8 9.42699 8 11.127C8.68707 11.4531 9.37414 11.7793 10.082 12.1153C10.9831 12.5523 11.8841 12.9893 12.8125 13.4395C13.7058 13.8687 14.5991 14.298 15.5195 14.7403C17.8416 16.0385 19.3862 17.0274 21 19.127C21.8555 25.6504 21.8555 25.6504 19.9453 28.9473C18.1719 31.1195 16.5245 32.8647 14 34.127C12.3783 34.2485 10.7512 34.3024 9.125 34.3145C7.82949 34.3358 7.82949 34.3358 6.50781 34.3575C3.87587 34.1156 2.26019 33.4568 0 32.127C0.33 29.817 0.66 27.507 1 25.127C3.49362 26.3308 5.68143 27.5813 8 29.127C10.6463 28.8148 10.6463 28.8148 13 28.127C13.33 26.477 13.66 24.827 14 23.127C10.8239 20.4803 7.43301 18.8131 3.70703 17.0918C2 16.127 2 16.127 1 14.127C0.298462 6.99468 0.298461 6.99468 3.375 3.18949C7.46802 -0.0264575 9.77787 -0.227053 15 0.12699Z" fill="black"/>
<path d="M165.562 0.314117C166.348 0.369546 167.133 0.424976 167.941 0.482085C170 1.12662 170 1.12662 171.34 2.9899C172 5.12662 172 5.12662 171 8.12662C168.647 7.60376 166.6 6.95535 164.375 6.00162C163.591 5.71287 162.808 5.42412 162 5.12662C161.01 5.62162 161.01 5.62162 160 6.12662C160 7.77662 160 9.42662 160 11.1266C160.687 11.4527 161.374 11.7789 162.082 12.1149C162.983 12.5519 163.884 12.9889 164.812 13.4391C165.706 13.8684 166.599 14.2976 167.52 14.7399C169.842 16.0381 171.386 17.0271 173 19.1266C173.856 25.65 173.856 25.65 171.945 28.9469C170.172 31.1191 168.525 32.8643 166 34.1266C164.378 34.2481 162.751 34.3021 161.125 34.3141C159.829 34.3354 159.829 34.3354 158.508 34.3571C155.876 34.1152 154.26 33.4565 152 32.1266C152.33 29.8166 152.66 27.5066 153 25.1266C155.494 26.3304 157.681 27.5809 160 29.1266C162.646 28.8144 162.646 28.8144 165 28.1266C165.75 24.6551 165.75 24.6551 166 21.1266C165.397 20.9565 164.793 20.7863 164.172 20.611C155.372 17.9427 155.372 17.9427 153 14.1266C152.545 10.9431 152.294 9.14152 153 6.12662C156.697 1.42998 159.652 -0.201952 165.562 0.314117Z" fill="black"/>
<path d="M80.1241 51.0904C83.4287 53.6531 84.8072 55.1397 86.1241 59.0904C86.5175 64.3022 86.0975 67.7293 83.1241 72.0904C78.422 75.449 73.7221 75.8664 68.1241 75.0904C65.2491 73.7779 65.2491 73.7779 63.1241 72.0904C62.5466 71.6985 61.9691 71.3066 61.3741 70.9029C59.2959 67.8894 59.0129 64.6554 59.1241 61.0904C60.5453 56.5275 61.8486 53.4224 66.1241 51.0904C70.8117 49.6016 75.3793 49.9541 80.1241 51.0904ZM68.2491 55.3404C65.7956 59.1569 65.8141 62.672 66.1241 67.0904C67.5698 69.9816 68.5569 70.8366 71.4991 72.1529C74.3368 72.3343 74.3368 72.3343 76.8741 70.0904C79.5361 66.5411 80.1241 64.5089 80.1241 60.0904C79.312 57.1254 79.312 57.1254 77.1241 55.0904C72.513 53.6773 72.513 53.6773 68.2491 55.3404Z" fill="black"/>
<path d="M34.124 51.0908C44.7686 50.7002 44.7686 50.7002 48.124 51.0908C50.0771 52.9111 50.0771 52.9111 51.124 55.0908C51.0615 58.2158 51.0615 58.2158 50.124 61.0908C48.0654 62.2705 48.0654 62.2705 46.124 63.0908C46.5571 63.6335 46.9903 64.1762 47.4365 64.7354C48.2718 65.8085 48.2718 65.8085 49.124 66.9033C49.9593 67.9649 49.9593 67.9649 50.8115 69.0479C52.124 71.0908 52.124 71.0908 52.124 74.0908C49.4365 74.4658 49.4365 74.4658 46.124 74.0908C44.06 72.2668 42.7336 70.3632 41.124 68.0908C40.794 70.0708 40.464 72.0508 40.124 74.0908C38.144 74.0908 36.164 74.0908 34.124 74.0908C34.124 66.5008 34.124 58.9108 34.124 51.0908ZM40.124 54.0908C40.124 56.4008 40.124 58.7108 40.124 61.0908C41.444 60.4308 42.764 59.7708 44.124 59.0908C43.794 57.4408 43.464 55.7908 43.124 54.0908C42.134 54.0908 41.144 54.0908 40.124 54.0908Z" fill="black"/>
<path d="M24.124 52.0912C23.794 53.7412 23.464 55.3912 23.124 57.0912C22.6084 56.9469 22.0928 56.8025 21.5615 56.6537C15.8097 54.9729 15.8097 54.9729 10.249 56.0912C8.5416 59.1267 8.24356 61.6249 8.12404 65.0912C8.93611 68.0562 8.93611 68.0562 11.124 70.0912C14.7232 70.9871 14.7232 70.9871 18.124 71.0912C18.1034 69.7919 18.0828 68.4925 18.0615 67.1537C18.04 65.7996 18.0526 64.4437 18.124 63.0912C18.454 62.7612 18.784 62.4312 19.124 62.0912C20.774 62.0912 22.424 62.0912 24.124 62.0912C24.124 66.0512 24.124 70.0112 24.124 74.0912C17.969 75.3222 12.7657 75.9718 6.74904 73.9662C3.3777 71.5581 2.35259 70.0659 1.12404 66.0912C0.842331 61.9059 0.838445 57.8756 3.36232 54.3725C8.9851 49.3744 17.3974 48.7279 24.124 52.0912Z" fill="black"/>
<path d="M98.1865 51.0283C99.6406 51.0593 99.6406 51.0593 101.124 51.0908C101.185 52.3786 101.245 53.6664 101.308 54.9932C101.392 56.6716 101.477 58.3499 101.562 60.0283C101.601 60.8785 101.64 61.7286 101.681 62.6045C101.723 63.4134 101.764 64.2223 101.808 65.0557C101.844 65.8045 101.881 66.5534 101.919 67.325C101.942 69.1154 101.942 69.1154 103.124 70.0908C104.79 70.1315 106.458 70.1335 108.124 70.0908C110.475 66.3826 110.556 62.6048 110.749 58.3408C110.788 57.6434 110.826 56.9461 110.866 56.2275C110.96 54.5157 111.043 52.8033 111.124 51.0908C112.774 51.0908 114.424 51.0908 116.124 51.0908C116.205 53.8206 116.265 56.5479 116.312 59.2783C116.337 60.0472 116.362 60.8162 116.388 61.6084C116.448 66.2789 116.178 69.3104 113.124 73.0908C108.894 75.9108 105.092 75.8831 100.124 75.0908C96.7778 72.5641 95.4442 71.0515 94.124 67.0908C94.0282 64.5375 93.9846 62.0181 93.999 59.4658C93.9952 58.7723 93.9913 58.0788 93.9873 57.3643C93.9995 51.1138 93.9995 51.1138 98.1865 51.0283Z" fill="black"/>
<path d="M126.124 51.091C139.588 50.7204 139.588 50.7204 142.046 52.4191C143.764 55.0829 143.565 57.0061 143.124 60.091C140.816 63.5072 139.456 64.0246 135.374 64.841C133.765 64.9647 133.765 64.9647 132.124 65.091C132.124 68.061 132.124 71.031 132.124 74.091C130.144 74.091 128.164 74.091 126.124 74.091C126.124 66.501 126.124 58.911 126.124 51.091ZM132.124 54.091C132.124 56.401 132.124 58.711 132.124 61.091C133.444 60.761 134.764 60.431 136.124 60.091C136.806 58.1992 136.806 58.1992 137.124 56.091C136.464 55.431 135.804 54.771 135.124 54.091C134.134 54.091 133.144 54.091 132.124 54.091Z" fill="black"/>
</svg>
