<svg width="2410" height="525" viewBox="0 0 2410 525" fill="none" xmlns="http://www.w3.org/2000/svg">
<path d="M1240 4.99999C1240.78 5.28359 1241.55 5.56718 1242.35 5.85937C1244.9 6.8047 1246.69 7.62558 1248.44 9.74999C1249.54 14.1686 1249.73 17.6928 1247.48 21.7226C1246.99 22.4742 1246.5 23.2257 1246 24C1245.16 23.9046 1244.31 23.8092 1243.45 23.7109C1242.35 23.6001 1241.25 23.4892 1240.13 23.375C1239.03 23.259 1237.94 23.143 1236.82 23.0234C1235.89 23.0157 1234.96 23.008 1234 23C1233.34 23.66 1232.68 24.32 1232 25C1232.99 27.475 1232.99 27.475 1234 30C1234.6 29.9884 1235.21 29.9768 1235.83 29.9648C1237.03 29.9513 1237.03 29.9513 1238.25 29.9375C1239.04 29.9259 1239.83 29.9143 1240.64 29.9023C1242.91 29.9961 1244.83 30.3676 1247 31C1247.75 33.6875 1247.75 33.6875 1248 37C1246.21 40.0922 1244.93 41.6093 1241.63 43C1239 43 1239 43 1236.19 41.3125C1233.22 39.7268 1233.22 39.7268 1230.88 40.5117C1228.68 41.5022 1226.87 42.4835 1225 44C1223.87 46.6147 1223.87 46.6147 1224 49C1225.15 49.975 1226.32 50.9291 1227.5 51.875C1228.15 52.4087 1228.8 52.9423 1229.47 53.4922C1237.87 58.4945 1250.77 58.7013 1260.13 56.499C1264.64 55.0916 1268.8 53.1429 1273 51C1273.92 50.5321 1274.85 50.0641 1275.8 49.582C1282.32 45.9629 1287.64 41.1365 1293 36C1292.5 34.8727 1292.5 34.8727 1291.99 33.7226C1290.66 30.0629 1291.05 27.7485 1292 24C1294.89 19.8384 1299.18 18.1249 1304 17C1308.24 17.1632 1310.92 18.0366 1314 21C1314 21.66 1314 22.32 1314 23C1312.79 23.3712 1312.79 23.3712 1311.56 23.75C1308.83 24.7224 1308.83 24.7224 1308.19 27.125C1308.13 27.7437 1308.06 28.3625 1308 29C1309.22 28.9587 1310.43 28.9175 1311.69 28.875C1316.28 28.8912 1319.47 29.4674 1322.81 32.8125C1324.22 35.4 1324.24 37.0981 1324 40C1321.36 39.34 1318.72 38.68 1316 38C1315.81 39.3612 1315.81 39.3612 1315.63 40.75C1315.07 43.6233 1314.36 45.4659 1313 48C1313.42 48.4357 1313.84 48.8714 1314.28 49.3203C1317.69 53.0262 1320.12 55.711 1320 61C1318.52 64.1845 1316.72 66.7561 1314 69C1313.34 69 1312.68 69 1312 69C1311.67 66.36 1311.34 63.72 1311 61C1309.67 61.3403 1309.67 61.3403 1308.31 61.6875C1304.33 62.0629 1303.1 61.4315 1300 59C1297 55.5862 1297 55.5862 1297 53C1296.01 53.66 1295.02 54.32 1294 55C1293.75 57.5838 1293.75 57.5838 1294 60C1295.65 60 1297.3 60 1299 60C1297.67 64.6411 1295.17 67.6309 1291 70C1288.05 70.2833 1285.71 70.3543 1282.81 70.125C1277.7 69.5708 1277.7 69.5708 1273.07 71.3047C1270.9 74.7436 1270.88 77.9328 1270.76 81.9033C1270.29 96.5682 1270.29 96.5682 1264.47 102.578C1260.63 106 1260.63 106 1258 106C1258.33 103.69 1258.66 101.38 1259 99C1258.01 100.98 1258.01 100.98 1257 103C1256.34 103 1255.68 103 1255 103C1254.67 102.34 1254.34 101.68 1254 101C1253.87 101.759 1253.73 102.519 1253.6 103.301C1253.42 104.295 1253.24 105.289 1253.06 106.312C1252.89 107.299 1252.71 108.285 1252.54 109.301C1252 112 1252 112 1251 115C1261.94 117.557 1270.31 117.564 1281 114C1281.69 111.673 1282.35 109.339 1283 107C1284.96 104.446 1285.87 104.044 1289 103C1294.39 102.416 1298.58 102.006 1303.13 105.187C1304.96 107.943 1305.72 109.728 1306 113C1302.04 112.01 1302.04 112.01 1298 111C1297.5 113.33 1297.5 113.33 1298 116C1300.82 118.128 1300.82 118.128 1304 120C1306.12 122.249 1306.94 123.484 1307.29 126.578C1307.26 127.46 1307.22 128.342 1307.19 129.25C1307.15 130.588 1307.15 130.588 1307.11 131.953C1307.07 132.629 1307.04 133.304 1307 134C1306.42 133.67 1305.85 133.34 1305.25 133C1302.8 131.729 1302.8 131.729 1299 132C1298.67 132.66 1298.34 133.32 1298 134C1298.59 135.804 1298.59 135.804 1299.5 137.75C1301 141.584 1301.42 143.999 1300 148C1297.56 150.875 1297.56 150.875 1295 153C1294.34 153 1293.68 153 1293 153C1292.67 151.02 1292.34 149.04 1292 147C1290.91 146.732 1289.81 146.464 1288.69 146.187C1283.85 144.63 1283.85 144.63 1282 142C1281.75 141.196 1281.51 140.391 1281.25 139.562C1279.46 135.893 1276.74 134.323 1273 133C1270.23 132.696 1267.8 132.804 1265 133C1264.75 135.374 1264.75 135.374 1265 138C1266.44 139.688 1266.44 139.688 1268 141C1268 141.66 1268 142.32 1268 143C1262.99 145.129 1259.19 145.298 1254 144C1249.85 142.154 1247.95 140.1 1246 136C1246 135.01 1246 134.02 1246 133C1245.53 133.349 1245.06 133.699 1244.57 134.059C1243.95 134.514 1243.33 134.969 1242.69 135.437C1242.07 135.89 1241.46 136.342 1240.82 136.809C1237.96 138.678 1235.34 139.136 1232.01 139.359C1223.24 140.045 1215.48 140.959 1207.35 144.586C1198.16 148.467 1188.64 150.955 1178.94 153.187C1176.74 153.701 1174.54 154.215 1172.34 154.73C1170.91 155.061 1170.91 155.061 1169.45 155.399C1166.89 155.993 1166.89 155.993 1164 157C1164.62 156.89 1165.25 156.781 1165.89 156.668C1172.78 155.485 1179.7 154.436 1186.63 153.437C1187.49 153.311 1188.36 153.184 1189.26 153.053C1220.77 148.556 1220.77 148.556 1231.94 154.586C1235.71 156.327 1238.19 156.108 1242.31 155.812C1248.54 155.696 1252.37 156.234 1257.25 160.16C1260.54 163.618 1262.99 167.166 1263.01 172.066C1262.75 174 1262.75 174 1262 177C1261.28 176.34 1260.56 175.68 1259.81 175C1256.7 172.788 1255.67 172.803 1252 173C1252.03 173.785 1252.07 174.57 1252.11 175.379C1252.27 181.625 1252.37 186.531 1249 192C1247.67 193.314 1246.31 194.604 1244.94 195.875C1241.34 199.296 1239.75 201.913 1239.05 206.832C1238.94 211.611 1240.26 214.852 1242.81 218.812C1251.77 224.962 1264.52 223.369 1274.71 221.504C1277.07 220.89 1278.94 220.292 1281 219C1282.82 215.608 1282.82 215.608 1284 212C1287.34 208.908 1289.64 207.133 1294.19 206.687C1299.64 207.134 1303.13 209.008 1306.94 213.062C1308 215 1308 215 1308 218C1305.03 217.67 1302.06 217.34 1299 217C1298.33 219.283 1298.33 219.283 1299 222C1300.95 223.539 1302.97 224.703 1305.15 225.887C1307 227 1307 227 1308 229C1308.26 232.956 1308.09 235.597 1306 239C1305.34 239 1304.68 239 1304 239C1303.34 238.01 1302.68 237.02 1302 236C1300.35 236.33 1298.7 236.66 1297 237C1297.22 237.58 1297.43 238.16 1297.66 238.758C1300.84 247.696 1300.84 247.696 1300 252C1298.26 254.611 1296.36 256.932 1294 259C1293.34 259 1292.68 259 1292 259C1291.67 255.7 1291.34 252.4 1291 249C1289.91 248.876 1288.81 248.752 1287.69 248.625C1284 248 1284 248 1281 246C1280.57 244.267 1280.57 244.267 1280.13 242.5C1279.41 238.903 1279.41 238.903 1276.82 237.789C1273.65 236.901 1270.98 236.803 1267.69 236.875C1266.62 236.893 1265.55 236.911 1264.45 236.93C1263.64 236.953 1262.83 236.976 1262 237C1262 237.99 1262 238.98 1262 240C1263.98 240 1265.96 240 1268 240C1267.07 242.328 1266.35 243.744 1264.31 245.25C1260.29 246.554 1256.84 246.833 1252.91 245.055C1248.69 242.554 1246.02 239.883 1243 236C1240.87 235.13 1240.87 235.13 1239 235C1238.02 238.053 1238.02 239.947 1239 243C1235.81 243.312 1235.81 243.312 1232 243C1229.19 240.625 1229.19 240.625 1227 238C1226.34 237.34 1225.68 236.68 1225 236C1224.34 238.31 1223.68 240.62 1223 243C1219.06 241.534 1217.98 239.627 1216.25 235.875C1215.82 234.965 1215.39 234.055 1214.95 233.117C1214.64 232.419 1214.32 231.72 1214 231C1213.67 231.99 1213.34 232.98 1213 234C1210.5 233.656 1209.18 233.153 1207.25 231.5C1205.39 227.774 1205.45 224.093 1206 220C1207.02 217.719 1207.02 217.719 1208 216C1202.59 217.098 1202.59 217.098 1199 221C1198.01 220.67 1197.02 220.34 1196 220C1194.21 214.63 1194.12 209.803 1196.63 204.687C1200.38 200.435 1203.1 198.123 1208.88 197.75C1209.91 197.832 1210.94 197.915 1212 198C1212.27 197.422 1212.54 196.845 1212.81 196.25C1214 194 1214 194 1215.69 192.187C1217.3 189.934 1217.3 189.934 1216.94 186.562C1215.68 181.797 1214.16 179.447 1210.04 176.687C1196.72 169.256 1180.28 169.044 1165.38 168.437C1164.37 168.394 1163.37 168.351 1162.33 168.307C1159.89 168.202 1157.44 168.1 1155 168C1158.16 175.356 1162.11 180.521 1167.62 186.32C1173.78 193.262 1176.23 199.647 1175.84 208.781C1176.02 211.309 1176.83 212.774 1178 215C1178.68 220.865 1177.96 224.443 1174.54 229.301C1171.4 232.765 1168 233.814 1163.43 234.238C1156.64 234.426 1156.64 234.426 1153 232C1153.85 231.493 1153.85 231.493 1154.71 230.977C1155.45 230.531 1156.18 230.085 1156.94 229.625C1157.67 229.184 1158.4 228.743 1159.15 228.289C1161.14 227.123 1161.14 227.123 1162 225C1161.39 225.046 1160.78 225.093 1160.16 225.141C1151.3 225.505 1141.03 224.016 1133 220C1133.3 227.29 1134.19 234.268 1139.63 239.598C1141 241 1141 241 1141 243C1141.57 243.278 1142.13 243.557 1142.71 243.844C1144.22 244.606 1145.72 245.398 1147.19 246.219C1154.62 250.231 1161.46 251.854 1169.88 252.125C1173.53 250.81 1173.63 250.231 1175.31 246.937C1176.49 244.762 1176.49 244.762 1178 243C1182.96 241.572 1186.92 242.45 1191.44 244.75C1196.9 249.546 1196.9 249.546 1197.25 254.625C1197 258 1197 258 1196 260C1195.34 260 1194.68 260 1194 260C1193.34 258.68 1192.68 257.36 1192 256C1190.68 256.33 1189.36 256.66 1188 257C1188.4 260.623 1188.4 260.623 1190.56 263.375C1192 265 1192 265 1192.44 268.062C1191.81 273.682 1190.15 279.331 1186.55 283.797C1185 285 1185 285 1182 285C1181.97 284.252 1181.95 283.505 1181.92 282.734C1181.71 276.593 1181.71 276.593 1178.94 271.312C1178.3 270.879 1177.66 270.446 1177 270C1176.9 271.031 1176.79 272.062 1176.69 273.125C1175.84 277.916 1174.47 281.535 1171 285C1168.14 285.226 1165.42 285.324 1162.56 285.312C1161.4 285.337 1161.4 285.337 1160.21 285.361C1154.46 285.366 1154.46 285.366 1152.25 283.602C1151 282 1151 282 1151 280C1153.64 279.67 1156.28 279.34 1159 279C1160.57 273.974 1161.45 269.239 1162 264C1161.19 264.217 1160.38 264.433 1159.54 264.656C1145.04 268.303 1145.04 268.303 1138 267C1135.1 264.798 1133.61 263.214 1132 260C1133.98 259.67 1135.96 259.34 1138 259C1138.33 258.01 1138.66 257.02 1139 256C1137.35 255.01 1135.7 254.02 1134 253C1133.01 253.66 1132.02 254.32 1131 255C1130.64 257.207 1130.64 257.207 1130.81 259.625C1130.84 260.442 1130.87 261.26 1130.89 262.102C1130.93 262.728 1130.96 263.355 1131 264C1126.73 263.182 1124.91 261.219 1122 258C1119.19 253.792 1120.14 251.901 1121 247C1121.33 246.34 1121.66 245.68 1122 245C1121.34 245 1120.68 245 1120 245C1119.34 247.97 1118.68 250.94 1118 254C1111.13 248.25 1111.13 248.25 1110 246C1109.6 240.741 1110.34 237.547 1113 233C1110.5 233.482 1110.5 233.482 1108 235C1106.62 238.535 1106.62 238.535 1106 242C1102.16 240.544 1100.69 238.718 1099 235C1098.07 229.78 1100 226.836 1102.81 222.637C1104 221 1104 221 1105 220C1101.91 220.334 1100.41 220.559 1098.25 222.875C1096.86 225.064 1096.86 225.064 1096 228C1095.34 228 1094.68 228 1094 228C1091.6 223.806 1090.29 220.846 1091 216C1093.66 211.077 1096.97 207.517 1102 205C1103.61 204.927 1105.23 204.916 1106.84 204.937C1107.82 204.945 1108.8 204.953 1109.81 204.961C1111.86 204.987 1113.91 205.013 1115.96 205.039C1122.7 205.092 1129.3 204.74 1136 204C1135.24 203.898 1134.48 203.796 1133.69 203.691C1125.47 202.533 1119.82 200.451 1114.5 193.937C1112.03 189.014 1112.52 183.353 1113 178C1113.33 177.01 1113.66 176.02 1114 175C1113.18 175.33 1112.35 175.66 1111.5 176C1104.09 178.117 1097.93 177.087 1091 174C1086.73 171.31 1084.6 168.798 1083 164C1081.69 152.012 1084.68 143.351 1092 134C1091.04 133.01 1091.04 133.01 1090.06 132C1087.57 128.38 1086.56 125.346 1087 121C1089.41 114.281 1094.69 109.998 1101 107C1103.77 106.307 1106.13 106.105 1109 106C1108.71 106.701 1108.42 107.402 1108.13 108.125C1107.75 109.074 1107.38 110.022 1107 111C1106.44 112.361 1106.44 112.361 1105.88 113.75C1105.09 116.673 1104.91 118.722 1104.95 121.703C1104.96 122.912 1104.96 122.912 1104.97 124.146C1104.98 124.757 1104.99 125.369 1105 126C1109.39 125.03 1113.77 124.058 1118.15 123.078C1121.06 122.429 1123.97 121.794 1126.88 121.172C1136.26 119.278 1136.26 119.278 1144 114C1145.32 108.014 1145.22 104.466 1142 99C1137.51 95.482 1132.26 94.7759 1126.81 93.625C1115.34 91.0197 1105.72 88.3605 1099 78C1097.43 74.7344 1096.13 71.4396 1095 68C1093.68 68 1092.36 68 1091 68C1090.34 69.32 1089.68 70.64 1089 72C1087.45 70.4497 1087.76 68.9632 1087.69 66.8125C1087.73 62.1576 1088.93 59.5918 1092 56C1095.7 53.5363 1098.71 53.4242 1103 54C1106 55.5 1106 55.5 1108 57C1108.02 56.0306 1108.04 55.0612 1108.06 54.0625C1109.43 44.9886 1118.22 38.8608 1124.94 33.5547C1127.37 31.0771 1127.37 31.0771 1127.04 27.375C1125.96 23.8675 1125.51 22.9262 1122.44 21.125C1121.29 20.4255 1120.14 19.7196 1119 19C1119 18.67 1119 18.34 1119 18C1128.26 18.0379 1132.83 20.9431 1139.31 27.25C1144.14 35.1123 1144.9 43.063 1143 52C1141.84 55.7338 1140.52 59.4016 1139.08 63.0373C1137.49 67.1593 1136.44 70.5003 1137 75C1139.36 79.4319 1143.52 82.4591 1147.5 85.375C1152.77 89.3004 1156.08 94.1628 1159 100C1159.7 107.432 1159.61 113.893 1155 120C1147.67 128.389 1136.48 131.507 1126 134C1129.31 135.129 1132.59 136.213 1136 137C1133.8 142.517 1128.91 145.047 1124 148C1118.57 150.286 1113.67 150.468 1108 149C1105.73 147.851 1104.01 146.595 1102 145C1098.62 146.05 1097.97 147.053 1096.25 150.25C1095.03 153.901 1094.41 156.212 1095 160C1096.87 162.303 1098.36 163.678 1101 165C1115.26 166.188 1129.18 157.278 1139.71 148.437C1142.01 146.427 1144.29 144.38 1146.54 142.312C1148.41 140.633 1150.36 139.077 1152.31 137.5C1160.68 130.163 1167.87 119.703 1171 109C1170.4 108.901 1169.81 108.801 1169.2 108.699C1165.31 107.46 1163.29 104.246 1161 101C1158.74 96.2826 1158.3 91.1726 1159 86C1159.66 85.34 1160.32 84.68 1161 84C1161.35 84.8044 1161.7 85.6087 1162.06 86.4375C1163.85 89.3667 1163.85 89.3667 1167.56 89.8125C1169.37 89.9113 1171.19 90 1173 90C1173.33 87.69 1173.66 85.38 1174 83C1173.15 83 1172.31 83 1171.44 83C1166.36 81.5238 1163.96 78.2521 1161 74C1159.28 70.1913 1158.76 67.1595 1159 63C1159.58 63.3094 1160.16 63.6187 1160.75 63.9375C1164.55 65.7326 1166.94 66.3049 1171 65C1171.33 62.36 1171.66 59.72 1172 57C1170.93 56.7525 1169.86 56.505 1168.75 56.25C1164.79 54.9297 1163.31 54.4215 1161 51C1160.09 47.6973 1159.49 44.3879 1159 41C1161.31 41.66 1163.62 42.32 1166 43C1170.96 39.3348 1171.55 34.2619 1172.81 28.5625C1173.04 27.6208 1173.27 26.6792 1173.51 25.709C1174.99 19.3659 1174.99 19.3659 1174 13C1172.38 11.6142 1170.71 10.2736 1169 8.99999C1169 8.33999 1169 7.67999 1169 6.99999C1169.78 6.88607 1170.57 6.77215 1171.38 6.65478C1178.26 5.63012 1185.06 4.42015 1191.88 3.04443C1209.34 -0.423054 1223.31 -2.27379 1240 4.99999Z" fill="#0A0A0A"/>
<path d="M1727 347C1730.32 349.728 1731.8 353.374 1733.55 357.184C1734.06 358.261 1734.06 358.261 1734.58 359.36C1735.68 361.717 1736.78 364.077 1737.88 366.438C1738.65 368.084 1739.42 369.73 1740.19 371.376C1742.47 376.247 1744.73 381.123 1747 386C1747.6 387.297 1748.21 388.595 1748.81 389.892C1750.91 394.415 1753.01 398.938 1755.11 403.465C1758.05 409.832 1761.03 416.181 1764.04 422.516C1771.49 438.177 1778.71 453.827 1785 470C1785.24 469.436 1785.49 468.873 1785.74 468.292C1792.45 452.847 1799.4 437.524 1806.45 422.232C1807.18 420.635 1807.92 419.038 1808.66 417.441C1809.02 416.651 1809.38 415.861 1809.76 415.047C1813.45 407.025 1817.1 398.982 1820.75 390.938C1827.41 376.249 1834.18 361.614 1841 347C1843 348 1843 348 1843.67 349.955C1843.87 350.82 1844.07 351.685 1844.27 352.576C1844.51 353.567 1844.74 354.558 1844.98 355.579C1845.23 356.677 1845.47 357.775 1845.73 358.906C1846 360.056 1846.26 361.206 1846.54 362.391C1847.28 365.568 1848 368.747 1848.73 371.926C1849.5 375.294 1850.28 378.659 1851.06 382.024C1852.54 388.452 1854.02 394.883 1855.49 401.314C1857.29 409.156 1859.1 416.996 1860.91 424.836C1862.82 433.128 1864.73 441.421 1866.64 449.715C1869.46 462.001 1872.29 474.286 1875.17 486.56C1875.41 487.587 1875.65 488.615 1875.9 489.674C1877 494.371 1878.1 499.068 1879.21 503.762C1879.59 505.372 1879.96 506.981 1880.34 508.59C1880.6 509.667 1880.6 509.667 1880.86 510.766C1881.52 513.59 1882 516.088 1882 519C1873.42 519 1864.84 519 1856 519C1851.77 501.031 1847.61 483.047 1843.5 465.05C1842.96 462.7 1842.42 460.35 1841.88 458.001C1836.28 433.68 1836.28 433.68 1835 422C1834.71 422.858 1834.43 423.717 1834.13 424.601C1829.42 438.17 1822.81 450.783 1816.31 463.562C1814.05 468.02 1811.8 472.48 1809.55 476.941C1809 478.03 1808.45 479.118 1807.88 480.239C1803.22 489.488 1798.73 498.813 1794.3 508.172C1791.62 513.825 1788.84 519.426 1786 525C1785.34 525 1784.68 525 1784 525C1770.3 497.04 1756.63 469.078 1743.44 440.875C1743.13 440.215 1742.82 439.556 1742.5 438.876C1741.62 436.999 1740.75 435.121 1739.87 433.242C1739.37 432.158 1738.86 431.074 1738.34 429.957C1737.15 427.328 1736.05 424.688 1735 422C1734.82 422.893 1734.64 423.787 1734.46 424.707C1730.01 446.762 1725.36 468.768 1720.56 490.75C1720.29 491.984 1720.03 493.217 1719.75 494.488C1718.98 498.008 1718.21 501.528 1717.44 505.047C1717.21 506.111 1716.98 507.175 1716.74 508.271C1716.52 509.247 1716.31 510.224 1716.09 511.229C1715.9 512.082 1715.71 512.935 1715.52 513.814C1715 516 1715 516 1714 519C1705.42 519 1696.84 519 1688 519C1690.73 505.907 1693.57 492.848 1696.53 479.805C1696.96 477.9 1697.39 475.995 1697.82 474.091C1698.96 469.054 1700.09 464.017 1701.23 458.981C1701.94 455.861 1702.65 452.741 1703.35 449.622C1706.56 435.414 1709.78 421.206 1713 407C1713.19 406.141 1713.39 405.282 1713.59 404.397C1715.7 395.099 1717.81 385.803 1719.92 376.507C1720.47 374.097 1721.02 371.687 1721.57 369.277C1722.31 366.015 1723.05 362.753 1723.8 359.492C1724.01 358.556 1724.22 357.62 1724.44 356.656C1724.63 355.811 1724.83 354.967 1725.03 354.097C1725.19 353.372 1725.36 352.646 1725.53 351.899C1725.94 350.244 1726.46 348.618 1727 347Z" fill="#0A0A0A"/>
<path d="M683.888 369.754C700.509 383.361 712.291 403.532 715 425C715.791 438.843 715.528 451.817 711 465C710.638 466.062 710.276 467.125 709.902 468.219C701.419 490.535 683.636 506.454 662.531 516.531C639.802 525.985 614.425 525.674 591.692 516.622C584.034 513.391 577.404 509.338 571 504C569.614 502.857 569.614 502.857 568.199 501.692C552.332 487.975 541.313 469.036 539 448C537.477 421.613 542.784 398.622 560.624 378.496C592.817 343.504 647.191 340.74 683.888 369.754ZM583 395C570.918 409.767 566.471 426.157 568 445C570.296 462.394 579.473 476.336 593.145 487.027C597.534 490.06 602.001 492.171 607 494C607.826 494.319 608.653 494.637 609.504 494.965C624.789 500.029 641.52 497.419 655.688 490.375C671.105 481.306 680.09 467.881 685 451C689.154 434.888 685.416 417.607 677.234 403.52C668.615 389.499 655.461 380.997 639.75 376.688C618.536 372.744 597.839 379.299 583 395Z" fill="#080808"/>
<path d="M740 348C743.305 349.652 745.04 350.76 747.617 353.203C748.3 353.847 748.982 354.491 749.686 355.155C750.408 355.846 751.131 356.538 751.875 357.25C752.625 357.961 753.375 358.673 754.148 359.406C759.585 364.585 764.932 369.849 770.181 375.218C772.972 378.054 775.822 380.745 778.84 383.34C784.281 388.043 789.25 393.203 794.289 398.328C797.756 401.831 801.228 405.258 804.969 408.469C810.605 413.313 815.724 418.679 820.934 423.973C824.516 427.59 828.094 431.147 831.957 434.465C836.946 438.749 841.55 443.405 846.188 448.062C847.063 448.935 847.939 449.807 848.842 450.705C849.692 451.557 850.542 452.408 851.418 453.285C852.179 454.047 852.94 454.809 853.723 455.594C856.271 458.286 858.627 461.153 861 464C861.33 427.7 861.66 391.4 862 354C870.58 354 879.16 354 888 354C888 410.43 888 466.86 888 525C884.159 523.08 882.252 521.474 879.297 518.457C877.949 517.093 877.949 517.093 876.574 515.701C875.632 514.739 874.691 513.776 873.75 512.812C868.292 507.251 862.859 501.775 856.935 496.71C852.523 492.811 848.479 488.515 844.355 484.316C840.363 480.28 836.281 476.456 831.978 472.755C828.538 469.702 825.343 466.408 822.125 463.125C820.817 461.792 819.508 460.461 818.195 459.133C817.628 458.554 817.061 457.976 816.477 457.379C815.029 455.896 815.029 455.896 813 455C813 454.34 813 453.68 813 453C812.432 452.759 811.865 452.518 811.28 452.27C808.54 450.744 806.71 448.918 804.516 446.676C803.662 445.811 802.809 444.947 801.93 444.057C801.045 443.151 800.161 442.246 799.25 441.312C793.896 435.851 788.568 430.455 782.738 425.498C776.637 420.238 771.994 414.421 767 408C766.67 444.63 766.34 481.26 766 519C757.42 519 748.84 519 740 519C740 462.57 740 406.14 740 348Z" fill="#0A0A0A"/>
<path d="M2013 348C2016.46 349.728 2018.03 350.796 2020.61 353.449C2021.28 354.133 2021.96 354.817 2022.65 355.521C2023.69 356.594 2023.69 356.594 2024.75 357.688C2029.35 362.409 2034.01 366.934 2039.01 371.234C2043.21 374.958 2047.07 379.034 2051 383.039C2054.21 386.286 2057.44 389.432 2060.91 392.406C2066.56 397.276 2071.7 402.658 2076.93 407.973C2080.53 411.603 2084.12 415.171 2088 418.5C2093.63 423.331 2098.73 428.69 2103.93 433.973C2107.58 437.656 2111.23 441.263 2115.16 444.641C2119.01 447.943 2122.46 451.51 2125.88 455.25C2126.44 455.861 2127.01 456.472 2127.59 457.102C2129.96 459.672 2132.05 462.08 2134 465C2134.33 428.37 2134.66 391.74 2135 354C2143.58 354 2152.16 354 2161 354C2161 410.43 2161 466.86 2161 525C2156.91 522.956 2154.35 520.546 2151.25 517.312C2147.99 513.938 2144.7 510.697 2141.14 507.637C2135.93 503.139 2131.17 498.222 2126.36 493.316C2122.35 489.272 2118.26 485.438 2113.95 481.729C2109.99 478.219 2106.35 474.384 2102.64 470.605C2099.54 467.466 2096.41 464.441 2093.06 461.562C2087.88 457.093 2083.15 452.196 2078.36 447.316C2075.04 443.967 2071.72 440.701 2068.14 437.633C2062.92 433.141 2058.11 428.252 2053.25 423.375C2052.32 422.447 2051.39 421.519 2050.43 420.562C2049.53 419.663 2048.63 418.763 2047.7 417.836C2046.49 416.622 2046.49 416.622 2045.25 415.384C2043.02 413.021 2041.02 410.551 2039 408C2039 408.566 2039 409.132 2039 409.715C2039.02 423.468 2039.04 437.222 2039.05 450.975C2039.06 457.626 2039.06 464.277 2039.08 470.927C2039.09 477.34 2039.09 483.753 2039.09 490.165C2039.1 492.618 2039.1 495.07 2039.11 497.523C2039.11 500.945 2039.11 504.367 2039.11 507.789C2039.12 508.814 2039.12 509.839 2039.12 510.895C2039.12 511.822 2039.12 512.749 2039.12 513.704C2039.12 514.514 2039.12 515.324 2039.12 516.159C2039 518 2039 518 2038 519C2029.75 519 2021.5 519 2013 519C2013 462.57 2013 406.14 2013 348Z" fill="#090909"/>
<path d="M1017 348C1021.28 348.851 1023.08 350.743 1026.13 353.875C1026.61 354.36 1027.09 354.844 1027.58 355.343C1029.1 356.889 1030.61 358.444 1032.13 360C1033.64 361.555 1035.17 363.107 1036.69 364.657C1038.07 366.061 1039.44 367.472 1040.82 368.883C1042.81 371.033 1042.81 371.033 1045 372C1045 372.66 1045 373.32 1045 374C1045.56 374.236 1046.13 374.473 1046.71 374.716C1049.53 376.298 1051.44 378.229 1053.7 380.543C1054.6 381.452 1055.5 382.362 1056.43 383.299C1057.37 384.261 1058.31 385.224 1059.25 386.188C1064.71 391.749 1070.14 397.225 1076.07 402.29C1080.48 406.189 1084.52 410.485 1088.64 414.684C1091.99 418.065 1095.35 421.359 1098.96 424.461C1103.6 428.455 1107.88 432.774 1112.19 437.125C1112.97 437.91 1113.75 438.695 1114.55 439.504C1116.05 441.012 1117.55 442.52 1119.05 444.03C1122.12 447.13 1125.21 450.218 1128.32 453.281C1129.06 454.013 1129.8 454.746 1130.56 455.5C1131.31 456.232 1132.05 456.964 1132.82 457.719C1135.02 460.019 1137.01 462.514 1139 465C1139.33 428.37 1139.66 391.74 1140 354C1148.25 354 1156.5 354 1165 354C1165 410.43 1165 466.86 1165 525C1155.81 517.121 1147 509.133 1138.53 500.492C1135.47 497.391 1132.37 494.412 1129.07 491.57C1123.88 487.098 1119.15 482.199 1114.36 477.316C1110.36 473.282 1106.28 469.46 1101.98 465.76C1097.79 462.036 1093.93 457.963 1090 453.961C1086.77 450.697 1083.52 447.534 1080.04 444.539C1075.58 440.696 1071.45 436.561 1067.31 432.375C1066.58 431.638 1065.85 430.9 1065.09 430.141C1063.68 428.721 1062.27 427.301 1060.86 425.88C1057.95 422.944 1055.04 420.017 1052.09 417.121C1051.52 416.566 1050.96 416.01 1050.38 415.438C1049.81 414.879 1049.24 414.321 1048.65 413.746C1047 412 1047 412 1044 408C1043.67 444.63 1043.34 481.26 1043 519C1034.75 519 1026.5 519 1018 519C1016.55 516.099 1016.88 513.585 1016.88 510.344C1016.88 509.306 1016.88 509.306 1016.88 508.247C1016.88 505.918 1016.88 503.589 1016.89 501.259C1016.89 499.594 1016.89 497.929 1016.89 496.263C1016.89 491.733 1016.89 487.202 1016.9 482.671C1016.9 477.94 1016.91 473.209 1016.91 468.477C1016.91 459.514 1016.92 450.55 1016.93 441.586C1016.94 431.383 1016.94 421.18 1016.95 410.977C1016.96 389.985 1016.98 368.992 1017 348Z" fill="#060606"/>
<path d="M182 348C185 349 185 349 186.802 352.189C187.482 353.62 188.15 355.056 188.809 356.496C189.171 357.267 189.533 358.038 189.907 358.832C191.094 361.363 192.266 363.9 193.438 366.438C194.26 368.199 195.083 369.959 195.906 371.719C197.928 376.046 199.939 380.379 201.943 384.714C202.864 386.706 203.787 388.696 204.711 390.687C207.07 395.769 209.419 400.857 211.758 405.949C215.923 415.017 220.118 424.071 224.312 433.125C224.721 434.007 225.13 434.889 225.551 435.798C230.661 446.826 235.789 457.846 240.953 468.848C241.865 470.791 242.776 472.734 243.687 474.677C247.282 482.343 247.282 482.343 250.887 490.003C252.43 493.277 253.969 496.553 255.504 499.831C256.35 501.635 257.202 503.435 258.054 505.236C258.56 506.317 259.065 507.398 259.586 508.512C260.03 509.455 260.474 510.398 260.931 511.37C262 514 262 514 263 519C253.43 519 243.86 519 234 519C232.239 515.09 230.478 511.18 228.72 507.269C228.125 505.944 227.528 504.62 226.931 503.295C226.063 501.37 225.198 499.443 224.332 497.516C223.554 495.787 223.554 495.787 222.761 494.024C220.437 488.713 218.23 483.351 216 478C183.825 477.505 183.825 477.505 151 477C150.34 478.98 149.68 480.96 149 483C148.464 484.303 147.906 485.597 147.32 486.878C147.003 487.575 146.686 488.272 146.36 488.99C146.023 489.722 145.687 490.453 145.34 491.207C144.815 492.356 144.815 492.356 144.279 493.528C143.544 495.137 142.807 496.744 142.068 498.351C140.934 500.82 139.806 503.292 138.678 505.764C137.961 507.328 137.244 508.893 136.527 510.457C136.189 511.199 135.85 511.94 135.501 512.704C133.115 517.885 133.115 517.885 132 519C129.927 519.088 127.852 519.107 125.777 519.098C124.517 519.094 123.257 519.091 121.959 519.088C120.618 519.08 119.278 519.071 117.938 519.062C116.593 519.057 115.249 519.053 113.904 519.049C110.603 519.037 107.301 519.021 104 519C104.633 514.965 105.924 511.689 107.668 508.004C108.224 506.822 108.78 505.64 109.352 504.423C109.964 503.136 110.576 501.849 111.188 500.562C111.825 499.21 112.462 497.858 113.099 496.505C114.418 493.704 115.739 490.904 117.062 488.104C119.958 481.975 122.823 475.831 125.688 469.688C126.258 468.465 126.829 467.243 127.4 466.021C130.793 458.75 134.173 451.473 137.543 444.191C137.936 443.342 138.329 442.493 138.734 441.618C140.355 438.114 141.977 434.611 143.598 431.107C149.12 419.173 154.692 407.264 160.312 395.375C167.736 379.671 174.909 363.857 182 348Z" fill="#080808"/>
<path d="M282 354C291.24 354 300.48 354 310 354C310.33 375.45 310.66 396.9 311 419C316.784 412.638 322.287 406.468 327.652 399.817C330.621 396.255 333.756 392.874 336.914 389.481C339.904 386.248 342.738 382.933 345.5 379.5C349.951 373.972 354.651 368.693 359.602 363.606C361.088 361.99 361.088 361.99 362.298 359.875C364.028 357.294 365.397 355.726 368 354C373.679 353.008 379.2 353.243 384.938 353.5C386.495 353.54 388.053 353.577 389.611 353.61C393.41 353.697 397.204 353.835 401 354C399.2 357.861 396.719 360.68 393.812 363.75C392.809 364.826 391.807 365.903 390.805 366.981C390.32 367.501 389.835 368.021 389.335 368.556C387.666 370.361 386.046 372.204 384.438 374.063C381.672 377.253 378.845 380.381 376 383.5C372.547 387.287 369.139 391.105 365.777 394.973C362.947 398.201 360.06 401.379 357.184 404.567C355.292 406.675 353.421 408.799 351.562 410.938C347.125 416.034 342.557 421.012 338 426C339.442 430.439 341.888 433.503 344.938 436.938C348.872 441.475 352.691 446.069 356.375 450.813C360.372 455.951 364.442 461.023 368.562 466.063C373.29 471.85 377.878 477.718 382.41 483.66C385.347 487.478 388.391 491.207 391.438 494.938C395.754 500.231 400.062 505.529 404.312 510.875C404.787 511.464 405.261 512.053 405.75 512.66C409 516.769 409 516.769 409 519C376.232 521.767 376.232 521.767 369.203 516C366.311 512.759 364.215 509.118 362.232 505.267C360.185 501.501 357.508 498.243 354.875 494.875C353.882 493.546 352.893 492.214 351.906 490.879C348.679 486.548 345.346 482.306 341.997 478.069C338.207 473.273 334.478 468.433 330.758 463.582C326.775 458.399 322.752 453.246 318.733 448.091C318.163 447.358 317.592 446.626 317.004 445.871C316.497 445.221 315.99 444.57 315.467 443.9C313.96 441.948 312.48 439.974 311 438C310.67 464.73 310.34 491.46 310 519C300.76 519 291.52 519 282 519C282 464.55 282 410.1 282 354Z" fill="#0A0A0A"/>
<path d="M1902 354C1932.69 354 1963.38 354 1995 354C1995 361.59 1995 369.18 1995 377C1994 378 1994 378 1991.45 378.12C1989.75 378.117 1989.75 378.117 1988.01 378.114C1986.73 378.113 1985.45 378.113 1984.13 378.113C1982.72 378.108 1981.31 378.103 1979.9 378.098C1978.47 378.096 1977.04 378.094 1975.6 378.093C1971.82 378.09 1968.04 378.08 1964.26 378.069C1959.73 378.057 1955.2 378.052 1950.67 378.046C1943.78 378.037 1936.89 378.017 1930 378C1930 390.87 1930 403.74 1930 417C1934.61 416.988 1939.22 416.977 1943.96 416.965C1946.88 416.96 1949.79 416.955 1952.7 416.951C1957.33 416.945 1961.95 416.938 1966.58 416.925C1970.31 416.914 1974.04 416.908 1977.77 416.905C1979.19 416.903 1980.62 416.9 1982.04 416.894C1984.03 416.887 1986.02 416.887 1988.01 416.886C1989.15 416.884 1990.28 416.882 1991.45 416.88C1994 417 1994 417 1995 418C1995 425.92 1995 433.84 1995 442C1973.55 442 1952.1 442 1930 442C1930 459.16 1930 476.32 1930 494C1951.45 494 1972.9 494 1995 494C1995 502.25 1995 510.5 1995 519C1964.31 519 1933.62 519 1902 519C1902 464.55 1902 410.1 1902 354Z" fill="#0C0C0C"/>
<path d="M1348 354C1378.69 354 1409.38 354 1441 354C1441 361.59 1441 369.18 1441 377C1440 378 1440 378 1437.45 378.12C1435.75 378.117 1435.75 378.117 1434.01 378.114C1432.73 378.113 1431.45 378.113 1430.13 378.113C1428.72 378.108 1427.31 378.103 1425.9 378.098C1424.47 378.096 1423.04 378.094 1421.6 378.093C1417.82 378.09 1414.04 378.08 1410.26 378.069C1405.73 378.057 1401.2 378.052 1396.67 378.046C1389.78 378.037 1382.89 378.017 1376 378C1376 390.87 1376 403.74 1376 417C1380.61 416.988 1385.22 416.977 1389.96 416.965C1392.88 416.96 1395.79 416.955 1398.7 416.951C1403.33 416.945 1407.95 416.938 1412.58 416.925C1416.31 416.914 1420.04 416.908 1423.77 416.905C1425.19 416.903 1426.62 416.9 1428.04 416.894C1430.03 416.887 1432.02 416.887 1434.01 416.886C1435.15 416.884 1436.28 416.882 1437.45 416.88C1440 417 1440 417 1441 418C1441 425.92 1441 433.84 1441 442C1419.55 442 1398.1 442 1376 442C1376 459.16 1376 476.32 1376 494C1397.45 494 1418.9 494 1441 494C1441 502.25 1441 510.5 1441 519C1429.02 519.023 1417.04 519.041 1405.07 519.052C1399.5 519.057 1393.94 519.064 1388.38 519.075C1383.02 519.086 1377.66 519.092 1372.3 519.095C1370.25 519.097 1368.19 519.1 1366.14 519.106C1363.28 519.113 1360.42 519.114 1357.56 519.114C1356.27 519.119 1356.27 519.119 1354.96 519.124C1349.11 519.114 1349.11 519.114 1348 518C1347.9 515.886 1347.88 513.769 1347.88 511.654C1347.88 510.983 1347.88 510.313 1347.88 509.622C1347.88 507.358 1347.88 505.095 1347.89 502.832C1347.89 501.216 1347.89 499.6 1347.89 497.984C1347.89 493.583 1347.89 489.183 1347.9 484.782C1347.9 480.188 1347.91 475.595 1347.91 471.001C1347.91 462.296 1347.92 453.59 1347.93 444.885C1347.94 433.126 1347.95 421.367 1347.95 409.608C1347.96 391.072 1347.98 372.536 1348 354Z" fill="#0C0C0C"/>
<path d="M1551 360C1551.84 360.609 1552.67 361.217 1553.53 361.844C1556.21 364.188 1557.92 366.492 1559.81 369.5C1560.42 370.439 1561.02 371.377 1561.64 372.344C1563 375 1563 375 1563 379C1559.71 380.674 1556.42 382.338 1553.12 384C1552.19 384.477 1551.25 384.954 1550.29 385.446C1549.39 385.897 1548.49 386.348 1547.57 386.813C1546.74 387.232 1545.92 387.651 1545.06 388.083C1543 389 1543 389 1541 389C1539.7 387.391 1539.7 387.391 1538.25 385.25C1533.91 379.307 1529.24 376.473 1522 375C1514.32 374.197 1507.72 375.736 1501.12 379.75C1497.12 383.986 1495.83 388.187 1495.44 393.875C1495.68 399.91 1498.03 403.597 1502 408C1509.55 414.41 1517.98 418.715 1526.88 422.938C1536.47 427.592 1545.72 432.206 1554 439C1554.69 439.555 1555.39 440.109 1556.1 440.68C1564.64 448.275 1568.02 458.877 1568.88 469.977C1569.49 483.256 1565.82 496.556 1557.2 506.836C1544.02 519.805 1528.73 523.267 1510.8 523.247C1495.58 523.072 1483.24 518.753 1472 508.2C1466.69 502.372 1462.43 494.832 1461 487C1462 484 1462 484 1463.92 482.818C1465.15 482.266 1465.15 482.266 1466.4 481.704C1467.29 481.303 1468.18 480.902 1469.1 480.489C1470.04 480.08 1470.97 479.671 1471.94 479.25C1473.34 478.614 1473.34 478.614 1474.76 477.965C1479.92 475.676 1479.92 475.676 1482 475C1484.75 476.374 1485.05 477.977 1486.31 480.75C1489.61 487.505 1493.94 492.098 1501 495C1511.31 497.987 1521.31 497.802 1530.83 492.594C1535.42 489.223 1537.91 484.525 1539 479C1539.76 472.397 1538.81 467.467 1535 462C1529.48 456.148 1523.01 452.595 1515.88 449.063C1513.82 448.018 1511.77 446.971 1509.72 445.922C1508.74 445.422 1507.75 444.921 1506.74 444.405C1490.84 436.255 1472.99 426.946 1467 409C1464.09 397.84 1464.89 384.296 1470 374C1471.76 371.069 1473.72 368.543 1476 366C1476.5 365.396 1477 364.791 1477.52 364.168C1494.94 344.714 1530.94 345.167 1551 360Z" fill="#090909"/>
<path d="M502 359C507.657 363.462 512.524 369.141 515 376C513.794 379.618 513.092 379.783 509.816 381.481C508.971 381.922 508.126 382.364 507.256 382.818C506.367 383.27 505.478 383.722 504.562 384.188C503.678 384.651 502.793 385.114 501.881 385.592C495.29 389 495.29 389 493 389C492.01 387.453 492.01 387.453 491 385.875C487.479 380.704 481.894 377.234 475.953 375.352C468.312 373.976 460.818 375.004 454.172 379.137C450.804 381.728 449.286 384.02 448 388C447.259 393.845 447.215 399.403 450.617 404.387C458.657 413.766 469.392 418.758 480.375 423.875C496.12 431.241 512.386 440.225 518.812 457.313C522.692 471.759 520.432 487.362 513.25 500.313C508.086 508.185 502.461 513.107 494.125 517.375C493.477 517.709 492.83 518.043 492.163 518.387C483.497 522.566 474.641 523.37 465.125 523.313C464.16 523.308 463.196 523.303 462.202 523.298C447.285 523.053 435.19 518.789 424.262 508.461C418.872 502.597 415.233 495.618 413 488C413.158 485.923 413.158 485.923 414 484C415.918 482.704 415.918 482.704 418.402 481.606C419.292 481.208 420.183 480.81 421.1 480.4C422.036 480 422.973 479.6 423.938 479.188C424.87 478.768 425.803 478.348 426.764 477.916C431.865 475.677 431.865 475.677 434 475C436.647 476.324 436.788 477.537 437.875 480.25C441.201 487.895 445.332 491.771 453 495C462.295 497.787 471.535 497.859 480.438 493.813C485.911 490.785 488.123 487.412 490.25 481.563C491.842 474.001 490.988 468.913 486.957 462.285C480.771 453.891 469.601 449.766 460.482 445.282C443.009 436.69 427.079 427.507 418.688 409.125C415.503 394.652 417.246 381.686 425 369C431.263 359.378 442.206 354.01 453 351C469.475 347.582 487.763 349.867 502 359Z" fill="#090909"/>
<path d="M2392 360C2393.36 360.898 2393.36 360.898 2394.75 361.813C2399.87 366.794 2403.14 371.856 2404 379C2400.71 380.674 2397.42 382.338 2394.12 384C2393.19 384.477 2392.25 384.954 2391.29 385.446C2390.39 385.897 2389.49 386.348 2388.57 386.813C2387.74 387.232 2386.92 387.651 2386.06 388.082C2384 389 2384 389 2382 389C2380.7 387.391 2380.7 387.391 2379.25 385.25C2374.91 379.307 2370.24 376.473 2363 375C2355.79 374.097 2349.47 375.746 2343 379C2338.7 383.092 2336.93 387.443 2336.62 393.313C2336.8 399.104 2338.62 403.474 2342.61 407.701C2347.96 412.512 2353.64 415.745 2360.06 418.938C2362.11 419.983 2364.16 421.029 2366.2 422.075C2368.13 423.051 2370.07 424.026 2372 425C2386.75 432.448 2401.87 440.895 2408.12 457.129C2411.22 470.731 2410.57 486.338 2403.54 498.536C2402.11 500.768 2400.59 502.884 2399 505C2398.42 505.867 2397.85 506.733 2397.25 507.625C2388.68 516.675 2375.97 522.355 2363.51 523.162C2344.7 523.464 2328.34 522.573 2313.85 509.036C2307.26 501.78 2304.31 494.376 2302 485C2305.46 483.327 2308.91 481.663 2312.38 480C2313.85 479.285 2313.85 479.285 2315.36 478.555C2316.77 477.878 2316.77 477.878 2318.21 477.188C2319.08 476.769 2319.95 476.35 2320.85 475.918C2323 475 2323 475 2325 475C2325.25 475.687 2325.51 476.375 2325.77 477.082C2326.29 478.434 2326.29 478.434 2326.81 479.813C2327.15 480.706 2327.49 481.6 2327.83 482.52C2328.97 484.94 2330.1 486.185 2332 488C2332 488.66 2332 489.32 2332 490C2343.81 495.986 2354.27 498.829 2367.37 495C2372.8 492.935 2375.71 490.02 2378.38 484.813C2380.87 478.504 2381.24 472.191 2378.56 465.875C2373.03 456.647 2363.87 452.028 2354.44 447.625C2315.28 428.664 2315.28 428.664 2308.19 409.625C2305.12 398.21 2305.64 384.578 2311 374C2317.75 363.037 2326.88 356.057 2339 352C2340.06 351.631 2340.06 351.631 2341.13 351.254C2357.75 346.529 2378.13 349.977 2392 360Z" fill="#090909"/>
<path d="M1186 354C1195.24 354 1204.48 354 1214 354C1216.94 359.885 1219.72 365.482 1222.21 371.516C1222.49 372.197 1222.77 372.879 1223.06 373.581C1223.98 375.803 1224.9 378.026 1225.81 380.25C1227.14 383.466 1228.47 386.68 1229.8 389.895C1230.15 390.72 1230.49 391.546 1230.84 392.397C1233.29 398.301 1235.76 404.191 1238.26 410.074C1256.86 453.951 1256.86 453.951 1259 463C1259.4 461.872 1259.81 460.744 1260.22 459.582C1264.69 447.208 1269.64 435.095 1274.81 423C1276.06 420.07 1277.3 417.139 1278.55 414.208C1279.4 412.198 1280.25 410.188 1281.11 408.178C1286.23 396.126 1291.27 384.042 1296.32 371.958C1297.07 370.15 1297.83 368.342 1298.58 366.534C1299.26 364.901 1299.95 363.267 1300.63 361.633C1302.89 356.225 1302.89 356.225 1304 354C1313.57 354 1323.14 354 1333 354C1329.6 362.836 1326.11 371.529 1322.31 380.188C1321.15 382.86 1319.98 385.533 1318.82 388.207C1318.51 388.912 1318.21 389.617 1317.89 390.343C1314.12 399.006 1310.41 407.69 1306.69 416.375C1305.94 418.124 1305.19 419.874 1304.44 421.623C1302.41 426.365 1300.38 431.107 1298.35 435.85C1293.8 446.484 1289.24 457.117 1284.69 467.75C1284.17 468.951 1283.66 470.151 1283.13 471.389C1275.46 489.279 1267.77 507.157 1260 525C1259.34 525 1258.68 525 1258 525C1257.75 524.406 1257.49 523.811 1257.23 523.199C1242.05 487.438 1242.05 487.438 1226.69 451.75C1220.31 437.048 1213.98 422.328 1207.68 407.594C1206.93 405.851 1206.19 404.107 1205.44 402.363C1205.07 401.505 1204.71 400.647 1204.33 399.763C1202.11 394.573 1199.87 389.388 1197.63 384.208C1196.21 380.934 1194.79 377.659 1193.38 374.383C1192.71 372.848 1192.05 371.313 1191.38 369.78C1190.46 367.68 1189.56 365.576 1188.65 363.473C1188.13 362.289 1187.62 361.106 1187.09 359.887C1186 357 1186 357 1186 354Z" fill="#090909"/>
<path d="M2178 354C2215.62 354 2253.24 354 2292 354C2292 361.92 2292 369.84 2292 378C2277.81 378 2263.62 378 2249 378C2249 424.53 2249 471.06 2249 519C2239.76 519 2230.52 519 2221 519C2221 472.47 2221 425.94 2221 378C2206.81 378 2192.62 378 2178 378C2178 370.08 2178 362.16 2178 354Z" fill="#0B0B0B"/>
<path d="M1582 354C1619.62 354 1657.24 354 1696 354C1696 361.92 1696 369.84 1696 378C1681.81 378 1667.62 378 1653 378C1653 424.53 1653 471.06 1653 519C1643.76 519 1634.52 519 1625 519C1625 472.47 1625 425.94 1625 378C1610.81 378 1596.62 378 1582 378C1582 370.08 1582 362.16 1582 354Z" fill="#0B0B0B"/>
<path d="M0 354C8.91 354 17.82 354 27 354C27 400.2 27 446.4 27 494C46.8 494 66.6 494 87 494C87 502.25 87 510.5 87 519C58.29 519 29.58 519 0 519C0 464.55 0 410.1 0 354Z" fill="#060606"/>
<path d="M969 354C977.91 354 986.82 354 996 354C996 408.45 996 462.9 996 519C987.09 519 978.18 519 969 519C969 464.55 969 410.1 969 354Z" fill="#040404"/>
<path d="M183 399C185.736 401.736 186.45 404.943 187.633 408.539C190.783 417.781 194.728 426.546 198.875 435.375C199.909 437.582 200.94 439.79 201.964 442.001C202.593 443.358 203.227 444.713 203.867 446.065C205.186 448.909 206 450.823 206 454C191.15 454 176.3 454 161 454C162.554 449.339 164.279 444.959 166.301 440.504C166.955 439.042 167.61 437.581 168.264 436.119C169.281 433.854 170.3 431.59 171.324 429.328C175.826 419.368 179.77 409.45 183 399Z" fill="#F7F7F7"/>
<path d="M572 368C572.66 368.33 573.32 368.66 574 369C568.39 374.61 562.78 380.22 557 386C557 381.782 558.852 380.613 561.688 377.562C562.558 376.615 563.428 375.668 564.324 374.691C566.762 372.239 569.253 370.094 572 368Z" fill="#484848"/>
<path d="M1126 32C1126 35 1126 35 1124.62 36.7175C1123.99 37.3302 1123.37 37.9429 1122.72 38.5742C1122.04 39.2413 1121.37 39.9084 1120.67 40.5957C1119.95 41.286 1119.24 41.9763 1118.5 42.6875C1117.43 43.7403 1117.43 43.7403 1116.33 44.8145C1114.56 46.5499 1112.78 48.2779 1111 50C1111 44.7839 1115.5 41.5835 1119 38C1121.28 35.9069 1123.6 33.9513 1126 32Z" fill="#494949"/>
<path d="M435 359C435.66 359.33 436.32 359.66 437 360C433.37 363.63 429.74 367.26 426 371C426 366.841 428.247 364.855 431 362C433.312 360.125 433.312 360.125 435 359Z" fill="#424242"/>
<path d="M1119 18C1120.61 18.0873 1122.21 18.1955 1123.81 18.3125C1125.15 18.3995 1125.15 18.3995 1126.52 18.4883C1129.31 19.0631 1130.24 19.8207 1132 22C1129.69 21.34 1127.38 20.68 1125 20C1124.67 20.99 1124.34 21.98 1124 23C1122.35 21.35 1120.7 19.7 1119 18Z" fill="#5A5A5A"/>
<path d="M1180.56 242.469C1183.08 242.497 1185.5 242.651 1188 243C1188 243.33 1188 243.66 1188 244C1186.74 244.103 1185.48 244.206 1184.19 244.312C1180.94 244.724 1180.94 244.724 1178.12 246.312C1176.9 248.147 1175.9 249.989 1175 252C1174.34 251.67 1173.68 251.34 1173 251C1176.24 243.366 1176.24 243.366 1180.56 242.469Z" fill="#5A5A5A"/>
<path d="M1097 109C1097.66 109.33 1098.32 109.66 1099 110C1096.03 112.97 1093.06 115.94 1090 119C1089.67 118.34 1089.34 117.68 1089 117C1091.42 113.808 1093.68 111.253 1097 109Z" fill="#4E4E4E"/>
<path d="M1099.19 53.8749C1101.07 53.9368 1101.07 53.9368 1103 53.9999C1103 54.3299 1103 54.6599 1103 54.9999C1101.39 55.1237 1101.39 55.1237 1099.75 55.2499C1095.66 56.0669 1094.65 56.9561 1092 59.9999C1091.34 59.9999 1090.68 59.9999 1090 59.9999C1091.98 55.4351 1094.17 53.7104 1099.19 53.8749Z" fill="#5C5C5C"/>
<path d="M1260 97C1260.33 97 1260.66 97 1261 97C1261 98.65 1261 100.3 1261 102C1261.99 102.33 1262.98 102.66 1264 103C1260.25 106 1260.25 106 1258 106C1258.66 103.03 1259.32 100.06 1260 97Z" fill="#737373"/>
<path d="M1159 63C1160.98 63.99 1160.98 63.99 1163 65C1162.01 65.495 1162.01 65.495 1161 66C1161 67.98 1161 69.96 1161 72C1159.14 68.865 1158.8 66.6253 1159 63Z" fill="#7E7E7E"/>
<path d="M1157 321C1159 322 1159 322 1159 322L1157 321Z" fill="#5E5E5E"/>
</svg>
