<svg width="495" height="1079" viewBox="0 0 495 1079" fill="none" xmlns="http://www.w3.org/2000/svg">
<path d="M114.035 143.416L112.556 144.591L114.035 145.765L292.04 287.067H181.897L2.41201 144.59L181.897 2H292.043L114.035 143.416Z" fill="#28ED70" stroke="#26292D" stroke-width="3"/>
<path d="M311.702 156.096L492.447 299.573L311.702 443.163H198.341L378.593 299.964L379.086 299.573L378.593 299.181L198.342 156.096H311.702Z" fill="#28ED70" stroke="#26292D"/>
<path d="M114.035 458.161L112.556 459.336L114.035 460.51L292.04 601.813H181.897L2.41201 459.335L181.897 316.745H292.043L114.035 458.161Z" fill="#28ED70" stroke="#26292D" stroke-width="3"/>
<path d="M379.148 615.24L380.627 614.065L379.147 612.891L201.143 471.589H311.286L490.771 614.066L311.285 756.656H201.14L379.148 615.24Z" fill="#28ED70" stroke="#26292D" stroke-width="3"/>
<path d="M294.909 630.49L114.657 773.689L114.164 774.081L114.657 774.472L294.908 917.558H181.549L0.802734 774.08L181.549 630.49H294.909Z" fill="#28ED70" stroke="#26292D"/>
<path d="M380.648 935.585L382.127 934.41L380.647 933.236L202.643 791.934H312.786L492.271 934.411L312.785 1077H202.64L380.648 935.585Z" fill="#28ED70" stroke="#26292D" stroke-width="3"/>
</svg>
