<svg width="304" height="309" viewBox="0 0 304 309" fill="none" xmlns="http://www.w3.org/2000/svg">
<path d="M78.7074 227.382C78.7074 227.382 19.8877 205.316 7.29697 262.552L19.7242 260.075C19.7242 260.075 5.16223 276.822 0 308.582C31.5837 302.432 47.8684 287.355 47.8684 287.355L45.7791 299.854C102.597 285.486 78.7074 227.382 78.7074 227.382Z" fill="url(#paint0_linear_68_8444)"/>
<path d="M78.7072 227.382C78.7072 227.382 42.0173 213.617 34.1642 249.32L41.9158 247.774C41.9158 247.774 32.8323 258.22 29.6123 278.031C49.3133 274.195 59.4705 264.79 59.4705 264.79L58.1676 272.586C93.6087 263.625 78.7072 227.382 78.7072 227.382Z" fill="url(#paint1_linear_68_8444)"/>
<path d="M120.284 224.461L80.1455 184.75L91.206 173.621L131.344 213.333L120.284 224.461Z" fill="url(#paint2_linear_68_8444)"/>
<path d="M110.606 120.908C110.606 120.908 73.3275 118.154 58.0323 133.536C41.528 150.135 27.8588 170.445 16.8215 199.474C10.9319 214.965 26.4843 198.954 36.8011 189.523C54.8626 173.013 63.7662 173.348 80.962 177.287C80.962 177.287 90.2341 158.314 110.606 120.908Z" fill="url(#paint3_linear_68_8444)"/>
<path opacity="0.33" d="M110.606 120.908C110.606 120.908 73.3276 118.154 58.0324 133.536C41.5281 150.135 27.8589 170.445 16.8216 199.474C15.717 202.379 15.3668 204.176 15.5941 205.116C15.5941 205.116 31.4619 168.343 48.8464 150.348C66.2308 132.353 77.8205 125.626 110.606 120.908Z" fill="white"/>
<path d="M184.23 193.752C184.23 193.752 187.304 230.923 172.017 246.313C155.52 262.919 135.28 276.728 106.28 287.984C90.8053 293.99 106.721 278.338 116.085 267.965C132.479 249.806 132.069 240.926 127.977 223.803C127.977 223.803 146.913 214.392 184.23 193.752Z" fill="url(#paint4_linear_68_8444)"/>
<path d="M301.626 53.5021C307.823 13.3292 299.925 3.88011 299.925 3.88011C299.925 3.88011 290.388 -3.9208 250.178 2.59946C207.708 9.4863 180.752 35.5993 162.395 53.7527C138.645 77.2395 99.4771 131.284 80.9629 177.287L104.591 200.422L127.976 223.802C173.926 204.942 227.76 165.409 251.099 141.515C269.138 123.049 295.081 95.9336 301.626 53.5021Z" fill="url(#paint5_linear_68_8444)"/>
<path d="M86.9561 183.156L104.591 200.422L127.976 223.802C173.926 204.942 227.76 165.409 251.099 141.515C269.138 123.048 295.082 95.9327 301.626 53.5022C307.824 13.3292 299.925 3.88013 299.925 3.88013" fill="url(#paint6_linear_68_8444)"/>
<path opacity="0.09" d="M84.3066 180.562L124.539 220.365" stroke="black" stroke-width="1.8919" stroke-miterlimit="10"/>
<path d="M80.9629 177.287L104.591 200.422L127.976 223.802C137.263 219.99 146.873 215.325 156.486 210.123L94.4319 148.726C89.3006 158.363 84.7052 167.99 80.9629 177.287Z" fill="url(#paint7_linear_68_8444)"/>
<path d="M143.979 163.327L127.976 223.802L123.417 220.801L120.283 224.461L104.696 209.04L143.979 163.327Z" fill="url(#paint8_linear_68_8444)"/>
<path d="M215.278 13.5864L290.91 88.4161" stroke="black" stroke-width="1.8919" stroke-miterlimit="10"/>
<path d="M299.926 3.88011C299.926 3.88011 290.388 -3.9208 250.179 2.59946C237.15 4.71291 225.586 8.63996 215.278 13.5865L290.91 88.4161C295.781 78.0897 299.619 66.5194 301.627 53.5021C307.824 13.3302 299.926 3.88011 299.926 3.88011Z" fill="url(#paint9_linear_68_8444)"/>
<mask id="mask0_68_8444" style="mask-type:luminance" maskUnits="userSpaceOnUse" x="80" y="0" width="224" height="224">
<path d="M301.626 53.5021C307.823 13.3292 299.925 3.88011 299.925 3.88011C299.925 3.88011 290.388 -3.9208 250.178 2.59946C207.708 9.4863 180.752 35.5993 162.395 53.7527C138.645 77.2395 99.4771 131.284 80.9629 177.287L104.591 200.422L127.976 223.802C173.926 204.942 227.76 165.409 251.099 141.515C269.138 123.049 295.081 95.9336 301.626 53.5021Z" fill="white"/>
</mask>
<g mask="url(#mask0_68_8444)">
<path d="M291.223 104.558L200.171 15.3683L204.011 11.447L295.064 100.637L291.223 104.558Z" fill="url(#paint10_linear_68_8444)"/>
</g>
<mask id="mask1_68_8444" style="mask-type:luminance" maskUnits="userSpaceOnUse" x="80" y="0" width="224" height="224">
<path d="M301.626 53.5021C307.823 13.3292 299.925 3.88011 299.925 3.88011C299.925 3.88011 290.388 -3.9208 250.178 2.59946C207.708 9.4863 180.752 35.5993 162.395 53.7527C138.645 77.2395 99.4771 131.284 80.9629 177.287L104.591 200.422L127.976 223.802C173.926 204.942 227.76 165.409 251.099 141.515C269.138 123.049 295.081 95.9336 301.626 53.5021Z" fill="white"/>
</mask>
<g mask="url(#mask1_68_8444)">
<path d="M285.634 111.805L194.581 22.6157L197.143 20.0012L288.197 109.191L285.634 111.805Z" fill="url(#paint11_linear_68_8444)"/>
</g>
<path opacity="0.09" d="M94.4248 148.724L156.487 210.124" stroke="black" stroke-width="1.8919" stroke-miterlimit="10"/>
<path d="M143.657 161.114C143.657 161.114 140.192 155.749 106.707 189.442C73.2208 223.134 44.6636 255.41 47.3245 258.043C49.9855 260.675 82.0915 231.911 115.577 198.219C149.063 164.526 143.657 161.114 143.657 161.114Z" fill="url(#paint12_linear_68_8444)"/>
<path opacity="0.33" d="M143.657 161.114C143.657 161.114 140.192 155.749 106.707 189.442C73.2208 223.134 44.6636 255.41 47.3245 258.043C47.3245 258.043 56.6866 244.59 81.8158 217.827C106.947 191.064 135.763 161.815 143.657 161.114Z" fill="white"/>
<path d="M222.904 141.075C239.111 124.734 239.001 98.3498 222.66 82.1435C206.319 65.9371 179.935 66.0474 163.728 82.3882C147.521 98.7299 147.632 125.114 163.972 141.32C180.314 157.525 206.699 157.416 222.904 141.075Z" fill="url(#paint13_linear_68_8444)"/>
<path d="M222.424 139.661C238.54 123.41 238.431 97.1736 222.181 81.0582C205.932 64.9428 179.694 65.0511 163.578 81.301C147.463 97.5508 147.572 123.789 163.821 139.904C180.071 156.019 206.308 155.91 222.424 139.661Z" fill="black"/>
<path d="M222.573 139.81C238.491 123.759 238.383 97.8438 222.333 81.9267C206.283 66.0086 180.367 66.1169 164.449 82.1665C148.531 98.2172 148.64 124.132 164.689 140.05C180.739 155.968 206.655 155.861 222.573 139.81Z" fill="url(#paint14_linear_68_8444)"/>
<path d="M170.244 133.192C157.721 120.773 157.637 100.479 170.057 87.9556C182.476 75.4326 202.77 75.3484 215.293 87.768C227.816 100.188 227.9 120.481 215.481 133.004C203.061 145.528 182.767 145.612 170.244 133.192Z" fill="#76C9F0"/>
<path d="M171.392 132.893C159.377 120.978 159.297 101.508 171.212 89.4936C183.127 77.4793 202.597 77.3981 214.611 89.3137C226.626 101.228 226.706 120.698 214.791 132.713C202.876 144.728 183.406 144.809 171.392 132.893Z" fill="url(#paint15_linear_68_8444)"/>
<mask id="mask2_68_8444" style="mask-type:luminance" maskUnits="userSpaceOnUse" x="162" y="80" width="62" height="62">
<path d="M171.392 132.893C159.377 120.978 159.297 101.508 171.212 89.4936C183.127 77.4793 202.597 77.3981 214.611 89.3137C226.626 101.228 226.706 120.698 214.791 132.713C202.876 144.728 183.406 144.809 171.392 132.893Z" fill="white"/>
</mask>
<g mask="url(#mask2_68_8444)">
<path d="M221.282 86.8318L153.254 116.875L158.131 127.916L226.158 97.872L221.282 86.8318Z" fill="url(#paint16_linear_68_8444)"/>
</g>
<mask id="mask3_68_8444" style="mask-type:luminance" maskUnits="userSpaceOnUse" x="162" y="80" width="62" height="62">
<path d="M171.392 132.893C159.377 120.978 159.297 101.508 171.212 89.4936C183.127 77.4793 202.597 77.3981 214.611 89.3137C226.626 101.228 226.706 120.698 214.791 132.713C202.876 144.728 183.406 144.809 171.392 132.893Z" fill="white"/>
</mask>
<g mask="url(#mask3_68_8444)">
<path d="M228.067 103.912L160.04 133.955L162.494 139.512L230.521 109.469L228.067 103.912Z" fill="url(#paint17_linear_68_8444)"/>
</g>
<path d="M166.867 87.4311C167.065 86.4861 166.461 85.5594 165.517 85.3611C164.572 85.1629 163.645 85.7674 163.447 86.7114C163.249 87.6564 163.853 88.5831 164.797 88.7813C165.742 88.9806 166.669 88.3751 166.867 87.4311Z" fill="black"/>
<path d="M160.792 97.0002C160.99 96.0551 160.386 95.1285 159.442 94.9302C158.497 94.7319 157.57 95.3365 157.372 96.2805C157.173 97.2255 157.778 98.1521 158.722 98.3504C159.666 98.5497 160.594 97.9452 160.792 97.0002Z" fill="black"/>
<path d="M173.754 80.8219C173.952 79.8769 173.348 78.9503 172.403 78.752C171.458 78.5537 170.532 79.1583 170.334 80.1023C170.135 81.0473 170.74 81.9739 171.684 82.1722C172.628 82.3715 173.555 81.7669 173.754 80.8219Z" fill="black"/>
<path d="M159.225 117.737C158.607 116.995 157.505 116.895 156.763 117.513C156.021 118.131 155.921 119.233 156.539 119.975C157.157 120.717 158.259 120.817 159.001 120.199C159.742 119.581 159.843 118.479 159.225 117.737Z" fill="black"/>
<path d="M162.962 128.439C162.344 127.697 161.242 127.597 160.501 128.215C159.759 128.833 159.658 129.934 160.276 130.676C160.894 131.418 161.996 131.519 162.738 130.901C163.48 130.283 163.58 129.181 162.962 128.439Z" fill="black"/>
<path d="M158.515 106.536C157.897 105.795 156.795 105.694 156.053 106.312C155.311 106.93 155.211 108.032 155.829 108.774C156.447 109.516 157.549 109.616 158.291 108.998C159.032 108.38 159.133 107.277 158.515 106.536Z" fill="black"/>
<path d="M177.581 142.618C176.617 142.649 175.86 143.456 175.891 144.421C175.922 145.385 176.729 146.143 177.694 146.112C178.658 146.081 179.415 145.273 179.384 144.309C179.352 143.344 178.546 142.587 177.581 142.618Z" fill="black"/>
<path d="M188.318 146.252C187.353 146.283 186.596 147.09 186.627 148.055C186.658 149.019 187.465 149.776 188.43 149.745C189.394 149.714 190.152 148.907 190.121 147.942C190.09 146.978 189.282 146.221 188.318 146.252Z" fill="black"/>
<path d="M168.312 136.289C167.347 136.32 166.59 137.128 166.621 138.092C166.652 139.057 167.46 139.814 168.424 139.783C169.388 139.752 170.146 138.944 170.115 137.98C170.084 137.016 169.277 136.258 168.312 136.289Z" fill="black"/>
<path d="M208.709 143.228C208.135 144.004 208.298 145.099 209.075 145.672C209.851 146.246 210.946 146.082 211.519 145.307C212.094 144.531 211.929 143.436 211.154 142.863C210.378 142.288 209.283 142.451 208.709 143.228Z" fill="black"/>
<path d="M217.675 137.143C217.1 137.919 217.265 139.014 218.041 139.587C218.816 140.162 219.911 139.998 220.485 139.222C221.059 138.446 220.895 137.351 220.119 136.778C219.343 136.204 218.25 136.367 217.675 137.143Z" fill="black"/>
<path d="M198.121 146.203C197.547 146.979 197.711 148.074 198.487 148.648C199.263 149.222 200.358 149.058 200.931 148.282C201.506 147.506 201.341 146.411 200.566 145.838C199.789 145.263 198.695 145.428 198.121 146.203Z" fill="black"/>
<path d="M226.976 119.658C227.207 120.595 228.155 121.167 229.091 120.936C230.029 120.705 230.6 119.757 230.369 118.82C230.138 117.882 229.19 117.311 228.254 117.542C227.317 117.774 226.745 118.721 226.976 119.658Z" fill="black"/>
<path d="M228.152 109.277C228.383 110.214 229.331 110.785 230.267 110.554C231.205 110.323 231.776 109.375 231.545 108.439C231.314 107.502 230.366 106.93 229.43 107.161C228.492 107.392 227.921 108.339 228.152 109.277Z" fill="black"/>
<path d="M223.419 130.039C223.65 130.976 224.598 131.548 225.534 131.317C226.471 131.085 227.043 130.137 226.812 129.2C226.58 128.263 225.633 127.691 224.696 127.922C223.759 128.155 223.187 129.102 223.419 130.039Z" fill="black"/>
<path d="M222.132 90.1348C223.013 90.5285 224.047 90.1329 224.441 89.2517C224.835 88.3706 224.439 87.3365 223.558 86.9429C222.677 86.5492 221.643 86.9448 221.249 87.826C220.855 88.7081 221.251 89.7411 222.132 90.1348Z" fill="black"/>
<path d="M214.197 82.2448C215.078 82.6385 216.112 82.2429 216.505 81.3617C216.899 80.4806 216.503 79.4466 215.622 79.0529C214.741 78.6592 213.707 79.0539 213.313 79.936C212.92 80.8181 213.315 81.8512 214.197 82.2448Z" fill="black"/>
<path d="M226.772 99.878C227.653 100.272 228.687 99.877 229.081 98.9949C229.474 98.1137 229.079 97.0797 228.198 96.686C227.316 96.2924 226.282 96.688 225.889 97.5691C225.495 98.4503 225.891 99.4843 226.772 99.878Z" fill="black"/>
<path d="M193.715 75.7564C194.57 75.3096 194.902 74.2533 194.455 73.3983C194.008 72.5432 192.952 72.2115 192.097 72.6583C191.242 73.1052 190.91 74.1614 191.357 75.0165C191.804 75.8725 192.859 76.2033 193.715 75.7564Z" fill="black"/>
<path d="M182.875 77.6532C183.73 77.2063 184.062 76.1501 183.615 75.295C183.168 74.44 182.112 74.1082 181.257 74.5551C180.402 75.0019 180.07 76.0582 180.517 76.9132C180.964 77.7692 182.019 78.101 182.875 77.6532Z" fill="black"/>
<path d="M205.026 77.3553C205.881 76.9084 206.213 75.8521 205.766 74.9971C205.319 74.1411 204.263 73.8103 203.408 74.2571C202.552 74.704 202.221 75.7603 202.668 76.6153C203.114 77.4713 204.171 77.8031 205.026 77.3553Z" fill="black"/>
<path d="M166.5 87.0636C166.698 86.1186 166.094 85.192 165.15 84.9937C164.205 84.7954 163.278 85.4 163.08 86.344C162.881 87.289 163.486 88.2156 164.43 88.4139C165.375 88.6122 166.302 88.0077 166.5 87.0636Z" fill="black"/>
<path d="M160.424 96.6327C160.622 95.6877 160.017 94.7611 159.073 94.5628C158.128 94.3645 157.202 94.969 157.003 95.9131C156.805 96.8581 157.41 97.7847 158.354 97.983C159.298 98.1823 160.225 97.5777 160.424 96.6327Z" fill="black"/>
<path d="M173.387 80.4545C173.585 79.5105 172.98 78.5829 172.036 78.3846C171.091 78.1863 170.165 78.7908 169.966 79.7349C169.768 80.6799 170.373 81.6065 171.317 81.8048C172.261 82.004 173.187 81.3995 173.387 80.4545Z" fill="black"/>
<path d="M158.858 117.37C158.24 116.628 157.138 116.527 156.396 117.146C155.654 117.764 155.554 118.865 156.172 119.607C156.79 120.349 157.891 120.45 158.633 119.832C159.375 119.214 159.476 118.112 158.858 117.37Z" fill="black"/>
<path d="M162.594 128.072C161.976 127.33 160.874 127.229 160.132 127.847C159.39 128.465 159.29 129.567 159.908 130.309C160.526 131.051 161.628 131.151 162.37 130.533C163.112 129.915 163.212 128.813 162.594 128.072Z" fill="black"/>
<path d="M158.148 106.169C157.53 105.427 156.428 105.327 155.686 105.945C154.944 106.563 154.844 107.664 155.462 108.406C156.08 109.148 157.181 109.249 157.923 108.631C158.665 108.013 158.766 106.911 158.148 106.169Z" fill="black"/>
<path d="M177.214 142.25C176.25 142.281 175.492 143.088 175.523 144.053C175.554 145.018 176.362 145.775 177.326 145.744C178.291 145.713 179.048 144.906 179.017 143.941C178.985 142.977 178.178 142.219 177.214 142.25Z" fill="black"/>
<path d="M187.95 145.884C186.986 145.915 186.229 146.723 186.26 147.687C186.291 148.652 187.098 149.409 188.063 149.378C189.027 149.347 189.784 148.54 189.753 147.575C189.722 146.611 188.915 145.853 187.95 145.884Z" fill="black"/>
<path d="M167.944 135.923C166.979 135.954 166.222 136.761 166.253 137.726C166.284 138.69 167.091 139.447 168.056 139.416C169.02 139.385 169.778 138.578 169.747 137.613C169.716 136.648 168.909 135.891 167.944 135.923Z" fill="black"/>
<path d="M208.342 142.861C207.767 143.636 207.932 144.731 208.708 145.305C209.483 145.88 210.578 145.715 211.152 144.939C211.726 144.164 211.562 143.069 210.786 142.495C210.01 141.921 208.916 142.084 208.342 142.861Z" fill="black"/>
<path d="M217.307 136.776C216.732 137.551 216.897 138.646 217.672 139.22C218.448 139.795 219.543 139.63 220.117 138.854C220.691 138.079 220.527 136.984 219.751 136.41C218.975 135.837 217.881 136 217.307 136.776Z" fill="black"/>
<path d="M197.753 145.836C197.179 146.612 197.343 147.707 198.119 148.28C198.894 148.855 199.989 148.69 200.563 147.915C201.138 147.139 200.973 146.044 200.197 145.47C199.423 144.896 198.328 145.059 197.753 145.836Z" fill="black"/>
<path d="M226.609 119.291C226.84 120.228 227.788 120.8 228.724 120.568C229.662 120.337 230.233 119.389 230.002 118.452C229.771 117.515 228.823 116.943 227.887 117.174C226.949 117.407 226.378 118.353 226.609 119.291Z" fill="black"/>
<path d="M227.785 108.909C228.016 109.846 228.964 110.418 229.9 110.187C230.837 109.956 231.409 109.008 231.178 108.071C230.947 107.134 229.999 106.563 229.062 106.794C228.126 107.025 227.553 107.972 227.785 108.909Z" fill="black"/>
<path d="M223.051 129.671C223.282 130.609 224.23 131.18 225.167 130.949C226.104 130.718 226.676 129.77 226.444 128.833C226.213 127.895 225.265 127.324 224.329 127.555C223.392 127.787 222.82 128.735 223.051 129.671Z" fill="black"/>
<path d="M221.765 89.7674C222.646 90.1611 223.68 89.7654 224.074 88.8843C224.467 88.0031 224.072 86.9691 223.191 86.5754C222.31 86.1818 221.276 86.5774 220.882 87.4585C220.488 88.3407 220.884 89.3737 221.765 89.7674Z" fill="black"/>
<path d="M213.829 81.8774C214.711 82.2711 215.745 81.8764 216.138 80.9943C216.532 80.1131 216.136 79.0791 215.255 78.6855C214.374 78.2918 213.34 78.6864 212.946 79.5686C212.553 80.4507 212.948 81.4837 213.829 81.8774Z" fill="black"/>
<path d="M226.405 99.5106C227.286 99.9042 228.32 99.5086 228.713 98.6274C229.107 97.7463 228.712 96.7123 227.83 96.3186C226.949 95.9249 225.915 96.3205 225.521 97.2017C225.128 98.0829 225.523 99.1169 226.405 99.5106Z" fill="black"/>
<path d="M193.348 75.389C194.203 74.9421 194.535 73.8859 194.088 73.0308C193.641 72.1758 192.585 71.844 191.73 72.2909C190.875 72.7378 190.543 73.794 190.99 74.6491C191.437 75.5051 192.492 75.8359 193.348 75.389Z" fill="black"/>
<path d="M182.508 77.2867C183.363 76.8398 183.695 75.7836 183.248 74.9285C182.801 74.0735 181.745 73.7417 180.89 74.1886C180.035 74.6355 179.703 75.6917 180.15 76.5468C180.597 77.4018 181.652 77.7336 182.508 77.2867Z" fill="black"/>
<path d="M204.659 76.9879C205.514 76.541 205.845 75.4848 205.399 74.6297C204.952 73.7747 203.895 73.4429 203.04 73.8898C202.185 74.3366 201.854 75.3929 202.3 76.2479C202.747 77.104 203.804 77.4348 204.659 76.9879Z" fill="black"/>
<path d="M165.816 85.4274L163.509 87.7344L163.756 87.9813L166.063 85.6743L165.816 85.4274Z" fill="black"/>
<path d="M159.741 94.997L157.434 97.304L157.681 97.5509L159.987 95.2439L159.741 94.997Z" fill="black"/>
<path d="M172.703 78.8188L170.396 81.1257L170.643 81.3726L172.95 79.0657L172.703 78.8188Z" fill="black"/>
<path d="M158.541 117.212L156.234 119.519L156.481 119.766L158.788 117.459L158.541 117.212Z" fill="black"/>
<path d="M162.278 127.906L159.971 130.213L160.218 130.46L162.525 128.153L162.278 127.906Z" fill="black"/>
<path d="M157.83 106.01L155.523 108.317L155.77 108.564L158.077 106.257L157.83 106.01Z" fill="black"/>
<path d="M178.296 142.721L175.989 145.028L176.236 145.275L178.543 142.968L178.296 142.721Z" fill="black"/>
<path d="M189.033 146.354L186.727 148.661L186.973 148.908L189.28 146.601L189.033 146.354Z" fill="black"/>
<path d="M169.027 136.392L166.72 138.699L166.967 138.946L169.274 136.639L169.027 136.392Z" fill="black"/>
<path d="M210.773 142.623L208.466 144.93L208.713 145.177L211.02 142.87L210.773 142.623Z" fill="black"/>
<path d="M219.737 136.531L217.43 138.838L217.677 139.085L219.984 136.778L219.737 136.531Z" fill="black"/>
<path d="M200.186 145.598L197.879 147.905L198.126 148.152L200.433 145.845L200.186 145.598Z" fill="black"/>
<path d="M229.332 117.596L227.025 119.903L227.272 120.15L229.579 117.843L229.332 117.596Z" fill="black"/>
<path d="M230.508 107.214L228.201 109.521L228.448 109.768L230.755 107.461L230.508 107.214Z" fill="black"/>
<path d="M225.775 127.983L223.468 130.29L223.715 130.536L226.022 128.23L225.775 127.983Z" fill="black"/>
<path d="M223.504 86.8952L221.197 89.2021L221.444 89.449L223.751 87.1421L223.504 86.8952Z" fill="black"/>
<path d="M215.57 79.0053L213.263 81.3123L213.51 81.5592L215.817 79.2522L215.57 79.0053Z" fill="black"/>
<path d="M228.144 96.6384L225.837 98.9453L226.084 99.1922L228.391 96.8853L228.144 96.6384Z" fill="black"/>
<path d="M193.565 72.5642L191.258 74.8711L191.505 75.118L193.812 72.8111L193.565 72.5642Z" fill="black"/>
<path d="M182.724 74.4604L180.417 76.7673L180.664 77.0142L182.971 74.7073L182.724 74.4604Z" fill="black"/>
<path d="M204.875 74.1628L202.568 76.4697L202.815 76.7166L205.122 74.4097L204.875 74.1628Z" fill="black"/>
<path opacity="0.33" d="M299.925 3.88011C299.925 3.88011 290.388 -3.9208 250.178 2.59946C207.708 9.4863 180.752 35.5992 162.395 53.7527C138.645 77.2395 99.4771 131.284 80.9629 177.287C80.9629 177.287 166.42 -1.99403 299.925 3.88011Z" fill="white"/>
<path opacity="0.33" d="M85.8562 182.045L81.6283 186.199L80.1455 184.75L84.3076 180.562L85.8562 182.045Z" fill="white"/>
<g opacity="0.48">
<mask id="mask4_68_8444" style="mask-type:luminance" maskUnits="userSpaceOnUse" x="80" y="0" width="224" height="224">
<path d="M301.626 53.5021C307.823 13.3292 299.925 3.88011 299.925 3.88011C299.925 3.88011 290.388 -3.9208 250.178 2.59946C207.708 9.4863 180.752 35.5993 162.395 53.7527C143.446 72.4922 114.682 110.683 94.4242 148.723C89.2919 158.361 84.7052 167.988 80.9629 177.287L104.591 200.422L127.976 223.802C173.926 204.942 227.76 165.409 251.099 141.515C269.138 123.049 295.081 95.9336 301.626 53.5021Z" fill="white"/>
</mask>
<g mask="url(#mask4_68_8444)">
<path d="M127.977 223.802C127.977 223.802 298.472 137.392 299.925 3.88013L348.041 24.9972L188.805 270.21C188.805 270.21 156.706 258.156 127.977 223.802Z" fill="url(#paint18_linear_68_8444)"/>
</g>
</g>
<path d="M127.976 223.802L131.343 236.05C131.343 236.05 164.132 219.885 184.23 193.751C184.23 193.751 147.937 215.518 127.976 223.802Z" fill="url(#paint19_linear_68_8444)"/>
<path opacity="0.33" d="M113.123 272.955C123.203 263.081 126.984 253.541 127.645 251.719C127.494 252.102 127.153 252.854 126.414 254.096C124.166 258.225 120.835 262.705 116.086 267.965C110.034 274.669 101.256 283.571 99.9743 287.413C99.7354 288.229 99.8554 288.754 100.223 289.086C100.226 289.088 100.227 289.091 100.23 289.092C100.236 289.069 101.94 283.909 113.123 272.955Z" fill="white"/>
<defs>
<linearGradient id="paint0_linear_68_8444" x1="-22.2522" y1="325.397" x2="77.602" y2="231.341" gradientUnits="userSpaceOnUse">
<stop stop-color="#FF8533"/>
<stop offset="0.9964" stop-color="#FFD052"/>
</linearGradient>
<linearGradient id="paint1_linear_68_8444" x1="23.3837" y1="282.783" x2="84.9328" y2="222.227" gradientUnits="userSpaceOnUse">
<stop offset="0.0036" stop-color="#FFD052"/>
<stop offset="1" stop-color="#FFE9AE"/>
</linearGradient>
<linearGradient id="paint2_linear_68_8444" x1="138.324" y1="252.295" x2="80.7053" y2="158.111" gradientUnits="userSpaceOnUse">
<stop/>
<stop offset="1"/>
</linearGradient>
<linearGradient id="paint3_linear_68_8444" x1="52.3711" y1="150.867" x2="144.704" y2="256.39" gradientUnits="userSpaceOnUse">
<stop offset="0.0036" stop-color="#28ED70"/>
<stop offset="1" stop-color="#28ED70"/>
</linearGradient>
<linearGradient id="paint4_linear_68_8444" x1="150.108" y1="281.841" x2="120.433" y2="132.306" gradientUnits="userSpaceOnUse">
<stop offset="0.0036" stop-color="#28ED70"/>
<stop offset="1" stop-color="#28ED70"/>
</linearGradient>
<linearGradient id="paint5_linear_68_8444" x1="177.184" y1="58.9756" x2="245.492" y2="220.307" gradientUnits="userSpaceOnUse">
<stop offset="0.0036" stop-color="#EEF4FA"/>
<stop offset="1" stop-color="#CDDEED"/>
</linearGradient>
<linearGradient id="paint6_linear_68_8444" x1="186.512" y1="76.863" x2="244.462" y2="213.73" gradientUnits="userSpaceOnUse">
<stop offset="0.0036" stop-color="#EEF4FA"/>
<stop offset="1" stop-color="#CDDEED"/>
</linearGradient>
<linearGradient id="paint7_linear_68_8444" x1="77.5305" y1="142.88" x2="139.184" y2="218.949" gradientUnits="userSpaceOnUse">
<stop stop-color="#C7C7C7"/>
<stop offset="1" stop-color="#A3A3A3"/>
</linearGradient>
<linearGradient id="paint8_linear_68_8444" x1="122.379" y1="180.145" x2="134.995" y2="219.044" gradientUnits="userSpaceOnUse">
<stop stop-color="#1D262D"/>
<stop offset="1" stop-color="#1D262D" stop-opacity="0"/>
</linearGradient>
<linearGradient id="paint9_linear_68_8444" x1="258.773" y1="16.7584" x2="386.257" y2="119.005" gradientUnits="userSpaceOnUse">
<stop offset="0.0036" stop-color="#28ED70"/>
<stop offset="1" stop-color="#28ED70"/>
</linearGradient>
<linearGradient id="paint10_linear_68_8444" x1="421.556" y1="238.357" x2="185.547" y2="-6.35795" gradientUnits="userSpaceOnUse">
<stop stop-color="#28ED70"/>
<stop offset="0.9964" stop-color="#28ED70"/>
</linearGradient>
<linearGradient id="paint11_linear_68_8444" x1="414.381" y1="245.276" x2="178.372" y2="0.561535" gradientUnits="userSpaceOnUse">
<stop stop-color="#28ED70"/>
<stop offset="0.9964" stop-color="#28ED70"/>
</linearGradient>
<linearGradient id="paint12_linear_68_8444" x1="75.8813" y1="181.516" x2="148.164" y2="284.907" gradientUnits="userSpaceOnUse">
<stop offset="0.0036" stop-color="#28ED70"/>
<stop offset="1" stop-color="#28ED70"/>
</linearGradient>
<linearGradient id="paint13_linear_68_8444" x1="201.313" y1="128.475" x2="227.412" y2="183.119" gradientUnits="userSpaceOnUse">
<stop/>
<stop offset="0.6767" stop-opacity="0.3233"/>
<stop offset="1" stop-opacity="0"/>
</linearGradient>
<linearGradient id="paint14_linear_68_8444" x1="174.53" y1="66.5852" x2="225.795" y2="186.515" gradientUnits="userSpaceOnUse">
<stop stop-color="#C7C7C7"/>
<stop offset="1" stop-color="#A3A3A3"/>
</linearGradient>
<linearGradient id="paint15_linear_68_8444" x1="168.424" y1="73.5438" x2="229.01" y2="166.132" gradientUnits="userSpaceOnUse">
<stop stop-color="#ADE5FF"/>
<stop offset="1" stop-color="#76C9F0"/>
</linearGradient>
<linearGradient id="paint16_linear_68_8444" x1="222.601" y1="85.5917" x2="157.834" y2="128.478" gradientUnits="userSpaceOnUse">
<stop stop-color="#F9FBFC"/>
<stop offset="1" stop-color="#F9FBFC" stop-opacity="0"/>
</linearGradient>
<linearGradient id="paint17_linear_68_8444" x1="230.901" y1="98.1254" x2="166.135" y2="141.011" gradientUnits="userSpaceOnUse">
<stop stop-color="#F9FBFC"/>
<stop offset="1" stop-color="#F9FBFC" stop-opacity="0"/>
</linearGradient>
<linearGradient id="paint18_linear_68_8444" x1="347.782" y1="198.132" x2="208.097" y2="110.904" gradientUnits="userSpaceOnUse">
<stop/>
<stop offset="1" stop-opacity="0"/>
</linearGradient>
<linearGradient id="paint19_linear_68_8444" x1="147.921" y1="192.801" x2="162.379" y2="225.19" gradientUnits="userSpaceOnUse">
<stop/>
<stop offset="1" stop-color="#1D262D" stop-opacity="0"/>
</linearGradient>
</defs>
</svg>
