<svg width="25" height="25" viewBox="0 0 25 25" fill="none" xmlns="http://www.w3.org/2000/svg">
<path d="M0.786523 0.0498047H0.686523V4.2408H0.786523V0.0498047Z" fill="black"/>
<path d="M1.00889 4.48882C1.00889 4.63982 0.885891 4.76182 0.735891 4.76182C0.584891 4.76182 0.462891 4.63882 0.462891 4.48882C0.462891 4.33882 0.585891 4.21582 0.735891 4.21582C0.885891 4.21582 1.00889 4.33782 1.00889 4.48882ZM0.560891 4.48882C0.560891 4.58582 0.638891 4.66282 0.734891 4.66282C0.829891 4.66282 0.908891 4.58482 0.908891 4.48882C0.908891 4.39282 0.829891 4.31482 0.734891 4.31482C0.638891 4.31482 0.560891 4.39282 0.560891 4.48882Z" fill="black"/>
<path d="M0.785211 11.043C0.785211 11.194 0.662211 11.316 0.512211 11.316C0.362211 11.316 0.241211 11.193 0.241211 11.043C0.241211 10.892 0.363211 10.769 0.512211 10.769C0.663211 10.769 0.785211 10.892 0.785211 11.043ZM0.339211 11.043C0.339211 11.139 0.416211 11.217 0.511211 11.217C0.606211 11.217 0.685211 11.139 0.685211 11.043C0.685211 10.947 0.606211 10.869 0.511211 10.869C0.416211 10.869 0.339211 10.947 0.339211 11.043Z" fill="black"/>
<path d="M1.89856 6.64798C1.89856 6.79898 1.77556 6.92098 1.62556 6.92098C1.47556 6.92098 1.35156 6.79898 1.35156 6.64798C1.35156 6.49698 1.47456 6.37598 1.62456 6.37598C1.77456 6.37598 1.89856 6.49798 1.89856 6.64798ZM1.45056 6.64798C1.45056 6.74398 1.52856 6.82198 1.62456 6.82198C1.72156 6.82198 1.79856 6.74498 1.79856 6.64798C1.79856 6.55298 1.71956 6.47498 1.62456 6.47498C1.52856 6.47498 1.45056 6.55298 1.45056 6.64798Z" fill="black"/>
<path d="M0.785211 8.7647C0.785211 8.9157 0.662211 9.0377 0.512211 9.0377C0.362211 9.0377 0.241211 8.9147 0.241211 8.7647C0.241211 8.6147 0.363211 8.4917 0.512211 8.4917C0.663211 8.4917 0.785211 8.6137 0.785211 8.7647ZM0.339211 8.7647C0.339211 8.8617 0.416211 8.9387 0.511211 8.9387C0.606211 8.9387 0.685211 8.8607 0.685211 8.7647C0.685211 8.6687 0.606211 8.5907 0.511211 8.5907C0.416211 8.5907 0.339211 8.6677 0.339211 8.7647Z" fill="black"/>
<path d="M0.785211 9.65191C0.785211 9.80291 0.662211 9.92491 0.512211 9.92491C0.362211 9.92491 0.241211 9.80191 0.241211 9.65191C0.241211 9.50091 0.363211 9.37891 0.512211 9.37891C0.663211 9.37791 0.785211 9.50091 0.785211 9.65191ZM0.339211 9.65191C0.339211 9.74791 0.416211 9.82591 0.511211 9.82591C0.606211 9.82591 0.685211 9.74791 0.685211 9.65191C0.685211 9.55591 0.606211 9.47791 0.511211 9.47791C0.416211 9.47791 0.339211 9.55591 0.339211 9.65191Z" fill="black"/>
<path d="M3.00987 9.65191C3.00987 9.80291 2.88687 9.92491 2.73687 9.92491C2.58587 9.92491 2.46387 9.80191 2.46387 9.65191C2.46387 9.50091 2.58687 9.37891 2.73687 9.37891C2.88787 9.37791 3.00987 9.50091 3.00987 9.65191ZM2.56287 9.65191C2.56287 9.74791 2.64087 9.82591 2.73687 9.82591C2.83187 9.82591 2.91087 9.74791 2.91087 9.65191C2.91087 9.55591 2.83187 9.47791 2.73687 9.47791C2.64087 9.47791 2.56287 9.55591 2.56287 9.65191Z" fill="black"/>
<path d="M6.56646 3.75884C6.56646 3.90984 6.44446 4.03084 6.29546 4.03084C6.14446 4.03084 6.02246 3.90884 6.02246 3.75884C6.02246 3.60884 6.14546 3.48584 6.29546 3.48584C6.44546 3.48584 6.56646 3.60884 6.56646 3.75884ZM6.12146 3.75884C6.12146 3.85684 6.19746 3.93184 6.29546 3.93184C6.38946 3.93184 6.46746 3.85384 6.46746 3.75884C6.46746 3.66284 6.38946 3.58484 6.29546 3.58484C6.19946 3.58484 6.12146 3.66284 6.12146 3.75884Z" fill="black"/>
<path d="M6.34483 2.34475C6.34483 2.49575 6.22183 2.61775 6.07183 2.61775C5.92183 2.61775 5.79883 2.49475 5.79883 2.34475C5.79883 2.19375 5.92183 2.07275 6.07183 2.07275C6.22183 2.07275 6.34483 2.19375 6.34483 2.34475ZM5.89683 2.34475C5.89683 2.44175 5.97283 2.51875 6.07083 2.51875C6.16683 2.51875 6.24483 2.44075 6.24483 2.34475C6.24483 2.24975 6.16583 2.17175 6.07083 2.17175C5.97483 2.17175 5.89683 2.24975 5.89683 2.34475Z" fill="black"/>
<path d="M6.34483 4.93558C6.34483 5.08558 6.22183 5.20758 6.07183 5.20758C5.92183 5.20758 5.79883 5.08558 5.79883 4.93558C5.79883 4.78458 5.92183 4.66358 6.07183 4.66358C6.22183 4.66258 6.34483 4.78458 6.34483 4.93558ZM5.89683 4.93558C5.89683 5.03258 5.97283 5.10858 6.07083 5.10858C6.16683 5.10858 6.24483 5.03058 6.24483 4.93558C6.24483 4.84058 6.16583 4.76258 6.07083 4.76258C5.97283 4.76158 5.89683 4.83758 5.89683 4.93558Z" fill="black"/>
<path d="M5.45416 4.89798C5.45416 5.04898 5.33216 5.16998 5.18316 5.16998C5.03216 5.16998 4.91016 5.04798 4.91016 4.89798C4.91016 4.74698 5.03316 4.62598 5.18316 4.62598C5.33216 4.62598 5.45416 4.74798 5.45416 4.89798ZM5.00816 4.89798C5.00816 4.99498 5.08416 5.07098 5.18216 5.07098C5.27616 5.07098 5.35416 4.99298 5.35416 4.89798C5.35416 4.80298 5.27616 4.72498 5.18216 4.72498C5.08416 4.72498 5.00816 4.80098 5.00816 4.89798Z" fill="black"/>
<path d="M5.45416 8.98883C5.45416 9.13883 5.33216 9.26083 5.18316 9.26083C5.03216 9.26083 4.91016 9.13883 4.91016 8.98883C4.91016 8.83783 5.03316 8.71583 5.18316 8.71583C5.33216 8.71483 5.45416 8.83783 5.45416 8.98883ZM5.00816 8.98883C5.00816 9.08383 5.08616 9.16183 5.18216 9.16183C5.27616 9.16183 5.35416 9.08383 5.35416 8.98883C5.35416 8.89183 5.27616 8.81483 5.18216 8.81483C5.08416 8.81383 5.00816 8.89083 5.00816 8.98883Z" fill="black"/>
<path d="M6.56646 7.89361C6.56646 8.04361 6.44446 8.16661 6.29546 8.16661C6.14446 8.16661 6.02246 8.04361 6.02246 7.89361C6.02246 7.74261 6.14546 7.62061 6.29546 7.62061C6.44546 7.61961 6.56646 7.74261 6.56646 7.89361ZM6.12146 7.89361C6.12146 7.98961 6.19946 8.06761 6.29546 8.06761C6.38946 8.06761 6.46746 7.98961 6.46746 7.89361C6.46746 7.79661 6.38946 7.71961 6.29546 7.71961C6.19946 7.71861 6.12146 7.79661 6.12146 7.89361Z" fill="black"/>
<path d="M4.34288 7.89361C4.34288 8.04361 4.21988 8.16661 4.06988 8.16661C3.91888 8.16661 3.79688 8.04361 3.79688 7.89361C3.79688 7.74261 3.91988 7.62061 4.06988 7.62061C4.22088 7.61961 4.34288 7.74261 4.34288 7.89361ZM3.89587 7.89361C3.89587 7.98961 3.97388 8.06761 4.06988 8.06761C4.16488 8.06761 4.24388 7.98961 4.24388 7.89361C4.24388 7.79661 4.16488 7.71961 4.06988 7.71961C3.97388 7.71861 3.89587 7.79661 3.89587 7.89361Z" fill="black"/>
<path d="M4.56548 15.1456C4.56548 15.2966 4.44248 15.4186 4.29248 15.4186C4.14248 15.4186 4.02148 15.2966 4.02148 15.1456C4.02148 14.9956 4.14348 14.8726 4.29248 14.8726C4.44248 14.8716 4.56548 14.9946 4.56548 15.1456ZM4.11948 15.1456C4.11948 15.2426 4.19648 15.3196 4.29148 15.3196C4.38648 15.3196 4.46548 15.2426 4.46548 15.1456C4.46548 15.0496 4.38648 14.9716 4.29148 14.9716C4.19648 14.9716 4.11948 15.0496 4.11948 15.1456Z" fill="black"/>
<path d="M4.56548 7.15191C4.56548 7.30191 4.44348 7.42391 4.29448 7.42391C4.14348 7.42391 4.02148 7.30191 4.02148 7.15191C4.02148 7.00091 4.14448 6.87891 4.29448 6.87891C4.44348 6.87891 4.56548 7.00091 4.56548 7.15191ZM4.11948 7.15191C4.11948 7.24691 4.19748 7.32491 4.29348 7.32491C4.38748 7.32491 4.46548 7.24691 4.46548 7.15191C4.46548 7.05491 4.38748 6.97791 4.29348 6.97791C4.19548 6.97791 4.11948 7.05491 4.11948 7.15191Z" fill="black"/>
<path d="M3.67584 13.2217C3.67584 13.3717 3.55284 13.4947 3.40284 13.4947C3.25284 13.4947 3.13184 13.3717 3.13184 13.2217C3.13184 13.0717 3.25384 12.9487 3.40284 12.9487C3.55284 12.9477 3.67584 13.0707 3.67584 13.2217ZM3.22984 13.2217C3.22984 13.3187 3.30684 13.3957 3.40184 13.3957C3.49684 13.3957 3.57584 13.3187 3.57584 13.2217C3.57584 13.1247 3.49684 13.0477 3.40184 13.0477C3.30684 13.0477 3.22984 13.1247 3.22984 13.2217Z" fill="black"/>
<path d="M3.67584 14.6939C3.67584 14.8439 3.55284 14.9679 3.40284 14.9679C3.25284 14.9679 3.13184 14.8449 3.13184 14.6939C3.13184 14.5429 3.25384 14.4209 3.40284 14.4209C3.55284 14.4209 3.67584 14.5439 3.67584 14.6939ZM3.22984 14.6939C3.22984 14.7909 3.30684 14.8679 3.40184 14.8679C3.49684 14.8679 3.57584 14.7909 3.57584 14.6939C3.57584 14.5969 3.49684 14.5199 3.40184 14.5199C3.30684 14.5209 3.22984 14.5979 3.22984 14.6939Z" fill="black"/>
<path d="M5.45416 20.8477C5.45416 20.9977 5.33216 21.1207 5.18316 21.1207C5.03216 21.1207 4.91016 20.9977 4.91016 20.8477C4.91016 20.6977 5.03316 20.5737 5.18316 20.5737C5.33216 20.5737 5.45416 20.6967 5.45416 20.8477ZM5.00816 20.8477C5.00816 20.9447 5.08716 21.0217 5.18216 21.0217C5.27716 21.0217 5.35416 20.9447 5.35416 20.8477C5.35416 20.7507 5.27716 20.6737 5.18216 20.6737C5.08716 20.6737 5.00816 20.7507 5.00816 20.8477Z" fill="black"/>
<path d="M6.34483 13.4449C6.34483 13.5959 6.22183 13.7179 6.07183 13.7179C5.92183 13.7179 5.79883 13.5959 5.79883 13.4449C5.79883 13.2949 5.92183 13.1719 6.07183 13.1719C6.22183 13.1719 6.34483 13.2949 6.34483 13.4449ZM5.89683 13.4449C5.89683 13.5419 5.97483 13.6189 6.07083 13.6189C6.16683 13.6189 6.24483 13.5419 6.24483 13.4449C6.24483 13.3489 6.16583 13.2709 6.07083 13.2709C5.97483 13.2709 5.89683 13.3499 5.89683 13.4449Z" fill="black"/>
<path d="M4.56548 18.9986C4.56548 19.1496 4.44348 19.2716 4.29448 19.2716C4.14348 19.2716 4.02148 19.1496 4.02148 18.9986C4.02148 18.8486 4.14448 18.7266 4.29448 18.7266C4.44348 18.7266 4.56548 18.8486 4.56548 18.9986ZM4.11948 18.9986C4.11948 19.0956 4.19848 19.1736 4.29348 19.1736C4.38848 19.1736 4.46548 19.0956 4.46548 18.9986C4.46548 18.9026 4.38848 18.8246 4.29348 18.8246C4.19848 18.8246 4.11948 18.9026 4.11948 18.9986Z" fill="black"/>
<path d="M4.56548 22.4556C4.56548 22.6066 4.44348 22.7286 4.29448 22.7286C4.14348 22.7286 4.02148 22.6066 4.02148 22.4556C4.02148 22.3056 4.14448 22.1816 4.29448 22.1816C4.44348 22.1826 4.56548 22.3056 4.56548 22.4556ZM4.11948 22.4556C4.11948 22.5526 4.19848 22.6306 4.29348 22.6306C4.38848 22.6306 4.46548 22.5526 4.46548 22.4556C4.46548 22.3596 4.38848 22.2816 4.29348 22.2816C4.19848 22.2816 4.11948 22.3596 4.11948 22.4556Z" fill="black"/>
<path d="M1.89856 12.4996C1.89856 12.6506 1.77556 12.7726 1.62556 12.7726C1.47556 12.7726 1.35156 12.6506 1.35156 12.4996C1.35156 12.3486 1.47456 12.2266 1.62456 12.2266C1.77456 12.2266 1.89856 12.3486 1.89856 12.4996ZM1.45056 12.4996C1.45056 12.5956 1.52856 12.6736 1.62456 12.6736C1.71956 12.6736 1.79856 12.5956 1.79856 12.4996C1.79856 12.4036 1.71956 12.3256 1.62456 12.3256C1.52856 12.3256 1.45056 12.4036 1.45056 12.4996Z" fill="black"/>
<path d="M3.00987 15.9239C3.00987 16.0739 2.88687 16.1969 2.73687 16.1969C2.58587 16.1969 2.46387 16.0739 2.46387 15.9239C2.46387 15.7739 2.58687 15.6509 2.73687 15.6509C2.88787 15.6499 3.00987 15.7729 3.00987 15.9239ZM2.56287 15.9239C2.56287 16.0209 2.64087 16.0979 2.73687 16.0979C2.83187 16.0979 2.91087 16.0209 2.91087 15.9239C2.91087 15.8269 2.83187 15.7499 2.73687 15.7499C2.64087 15.7499 2.56287 15.8269 2.56287 15.9239Z" fill="black"/>
<path d="M1.89849 16.6959C1.89849 16.8459 1.77549 16.9689 1.62549 16.9689C1.47549 16.9689 1.35449 16.8459 1.35449 16.6959C1.35449 16.5449 1.47649 16.4229 1.62549 16.4229C1.77549 16.4229 1.89849 16.5449 1.89849 16.6959ZM1.45249 16.6959C1.45249 16.7919 1.52949 16.8699 1.62449 16.8699C1.71949 16.8699 1.79849 16.7919 1.79849 16.6959C1.79849 16.5989 1.71949 16.5219 1.62449 16.5219C1.52949 16.5219 1.45249 16.5999 1.45249 16.6959Z" fill="black"/>
<path d="M2.78716 20.1358C2.78716 20.2858 2.66416 20.4098 2.51416 20.4098C2.36516 20.4098 2.24316 20.2868 2.24316 20.1358C2.24316 19.9848 2.36516 19.8628 2.51416 19.8628C2.66416 19.8618 2.78716 19.9838 2.78716 20.1358ZM2.34116 20.1358C2.34116 20.2318 2.41816 20.3098 2.51316 20.3098C2.60916 20.3098 2.68716 20.2318 2.68716 20.1358C2.68716 20.0388 2.60816 19.9618 2.51316 19.9618C2.41816 19.9618 2.34116 20.0388 2.34116 20.1358Z" fill="black"/>
<path d="M1.89849 21.5518C1.89849 21.7018 1.77549 21.8248 1.62549 21.8248C1.47549 21.8248 1.35449 21.7018 1.35449 21.5518C1.35449 21.4018 1.47649 21.2778 1.62549 21.2778C1.77549 21.2778 1.89849 21.4008 1.89849 21.5518ZM1.45249 21.5518C1.45249 21.6488 1.52949 21.7258 1.62449 21.7258C1.71949 21.7258 1.79849 21.6488 1.79849 21.5518C1.79849 21.4548 1.71949 21.3778 1.62449 21.3778C1.52949 21.3778 1.45249 21.4548 1.45249 21.5518Z" fill="black"/>
<path d="M3.67584 24.7266C3.67584 24.8766 3.55284 24.9996 3.40284 24.9996C3.25284 24.9996 3.13184 24.8766 3.13184 24.7266C3.13184 24.5766 3.25384 24.4526 3.40284 24.4526C3.55284 24.4526 3.67584 24.5756 3.67584 24.7266ZM3.22984 24.7266C3.22984 24.8236 3.30684 24.9006 3.40184 24.9006C3.49884 24.9006 3.57584 24.8246 3.57584 24.7266C3.57584 24.6306 3.49684 24.5526 3.40184 24.5526C3.30684 24.5526 3.22984 24.6306 3.22984 24.7266Z" fill="black"/>
<path d="M1.00889 16.3697C1.00889 16.5207 0.885891 16.6437 0.735891 16.6437C0.584891 16.6437 0.462891 16.5217 0.462891 16.3697C0.462891 16.2197 0.585891 16.0967 0.735891 16.0967C0.885891 16.0967 1.00889 16.2197 1.00889 16.3697ZM0.560891 16.3697C0.560891 16.4667 0.638891 16.5437 0.734891 16.5437C0.829891 16.5437 0.908891 16.4667 0.908891 16.3697C0.908891 16.2737 0.829891 16.1957 0.734891 16.1957C0.638891 16.1957 0.560891 16.2737 0.560891 16.3697Z" fill="black"/>
<path d="M1.00889 23.7418C1.00889 23.8928 0.885891 24.0147 0.735891 24.0147C0.584891 24.0147 0.462891 23.8928 0.462891 23.7418C0.462891 23.5918 0.585891 23.4688 0.735891 23.4688C0.885891 23.4688 1.00889 23.5918 1.00889 23.7418ZM0.560891 23.7418C0.560891 23.8388 0.639891 23.9158 0.734891 23.9158C0.829891 23.9158 0.908891 23.8388 0.908891 23.7418C0.908891 23.6458 0.829891 23.5678 0.734891 23.5678C0.639891 23.5678 0.560891 23.6458 0.560891 23.7418Z" fill="black"/>
<path d="M1.89849 15.442C1.89849 15.592 1.77549 15.715 1.62549 15.715C1.47549 15.715 1.35449 15.592 1.35449 15.442C1.35449 15.292 1.47649 15.168 1.62549 15.168C1.77549 15.169 1.89849 15.292 1.89849 15.442ZM1.45249 15.442C1.45249 15.539 1.52949 15.616 1.62449 15.616C1.71949 15.616 1.79849 15.539 1.79849 15.442C1.79849 15.345 1.71949 15.268 1.62449 15.268C1.52949 15.269 1.45249 15.346 1.45249 15.442Z" fill="black"/>
<path d="M2.78716 12.4009C2.78716 12.5519 2.66416 12.6739 2.51416 12.6739C2.36516 12.6739 2.24316 12.5509 2.24316 12.4009C2.24316 12.2509 2.36516 12.1279 2.51416 12.1279C2.66416 12.1269 2.78716 12.2499 2.78716 12.4009ZM2.34116 12.4009C2.34116 12.4969 2.41816 12.5749 2.51316 12.5749C2.60916 12.5749 2.68716 12.4969 2.68716 12.4009C2.68716 12.3049 2.60816 12.2269 2.51316 12.2269C2.41816 12.2269 2.34116 12.3049 2.34116 12.4009Z" fill="black"/>
<path d="M2.78716 3.35503C2.78716 3.50503 2.66416 3.62703 2.51416 3.62703C2.36516 3.62703 2.24316 3.50503 2.24316 3.35503C2.24316 3.20403 2.36516 3.08203 2.51416 3.08203C2.66416 3.08203 2.78716 3.20403 2.78716 3.35503ZM2.34116 3.35503C2.34116 3.45003 2.41816 3.52803 2.51316 3.52803C2.60916 3.52803 2.68716 3.45003 2.68716 3.35503C2.68716 3.25703 2.61016 3.18103 2.51316 3.18103C2.41816 3.18103 2.34116 3.25803 2.34116 3.35503Z" fill="black"/>
<path d="M1.6742 0.0498047H1.5752V6.4618H1.6742V0.0498047Z" fill="black"/>
<path d="M2.56287 0.0498047H2.46387V3.1308H2.56287V0.0498047Z" fill="black"/>
<path d="M3.45235 0.0498047V5.2438H2.56335V8.8138H0.735352V8.7148H2.46435V5.1448H3.35335V0.0498047H3.45235Z" fill="black"/>
<path d="M4.34335 0.0498047V6.7288H3.45235V10.3708H2.56335V11.9888H1.57535V11.0918H0.735352V10.9928H1.67435V11.8898H2.46435V10.2708H3.35335V6.6298H4.24435V0.0498047H4.34335Z" fill="black"/>
<path d="M6.07081 3.7098V3.8088H5.13281V0.0498047H5.23181V3.7098H6.07081Z" fill="black"/>
<path d="M5.23181 5.0918H5.13281V8.7648H5.23181V5.0918Z" fill="black"/>
<path d="M4.34352 7.354V11.316H3.45252V12.998H3.35352V11.217H4.24452V7.354H4.34352Z" fill="black"/>
<path d="M2.51352 15.8738V15.9738H0.686523V14.2868H1.57552V12.7178H1.67452V14.3858H0.785523V15.8738H2.51352Z" fill="black"/>
<path d="M2.5632 12.625V14.813H1.6742V15.219H1.5752V14.713H2.4642V12.625H2.5632Z" fill="black"/>
<path d="M5.23252 16.611V20.624H5.13352V16.711H4.34352V17.841H3.35352V14.918H3.45252V17.742H4.24452V16.611H5.23252Z" fill="black"/>
<path d="M4.34352 19.2236V20.3726H3.45252V21.1456H4.34152V22.2316H4.24252V21.2436H3.35352V20.2726H4.24452V19.2236H4.34352Z" fill="black"/>
<path d="M1.67452 18.9499V20.8969H0.785523V23.5189H0.686523V20.7979H1.57552V19.0489H0.686523V16.6079H0.785523V18.9499H1.67452Z" fill="black"/>
<path d="M2.5632 18.3849V19.9289H2.4642V18.4839H1.5752V16.9199H1.6742V18.3849H2.5632Z" fill="black"/>
<path d="M3.4522 22.4409V24.4439H3.3532V22.5409H2.5632V23.2569H1.5752V21.7749H1.6742V23.1579H2.4642V22.4409H3.4522Z" fill="black"/>
<path d="M6.12146 0.0498047H6.02246V2.1228H6.12146V0.0498047Z" fill="black"/>
<path d="M7.01019 7.28381V9.22981H6.12119V11.0558H5.23219V13.1098H4.34119V14.9178H4.24219V13.0108H5.13319V10.9568H6.02219V9.12981H6.91119V7.38281H6.02219V5.15381H6.12119V7.28381H7.01019Z" fill="black"/>
<path d="M2.51335 9.60303H0.735352V9.70203H2.51335V9.60303Z" fill="black"/>
<path d="M6.07199 7.84375H4.29199V7.94275H6.07199V7.84375Z" fill="black"/>
<path d="M7.00981 15.8608V18.7338H6.12081V21.5118H5.23181V24.9888H5.13281V21.4128H6.02181V18.6338H6.91081V15.9608H6.02181V13.6768H6.12081V15.8608H7.00981Z" fill="black"/>
<path d="M6.12146 16.5566H6.02246V17.9586H6.12146V16.5566Z" fill="black"/>
<path d="M21.8692 21.2398C21.8692 21.3908 21.7462 21.5138 21.5962 21.5138C21.4462 21.5138 21.3232 21.3918 21.3232 21.2398C21.3232 21.0898 21.4462 20.9678 21.5962 20.9678C21.7462 20.9678 21.8692 21.0898 21.8692 21.2398ZM21.4222 21.2398C21.4222 21.3368 21.4992 21.4148 21.5962 21.4148C21.6932 21.4148 21.7702 21.3378 21.7702 21.2398C21.7702 21.1448 21.6922 21.0668 21.5962 21.0668C21.4992 21.0668 21.4222 21.1458 21.4222 21.2398Z" fill="black"/>
<path d="M22.0929 22.6549C22.0929 22.8049 21.9699 22.9259 21.8189 22.9259C21.6679 22.9259 21.5459 22.8049 21.5459 22.6549C21.5459 22.5039 21.6689 22.3809 21.8189 22.3809C21.9689 22.3809 22.0929 22.5039 22.0929 22.6549ZM21.6459 22.6549C21.6459 22.7499 21.7229 22.8279 21.8199 22.8279C21.9169 22.8279 21.9939 22.7499 21.9939 22.6549C21.9939 22.5579 21.9169 22.4799 21.8199 22.4799C21.7219 22.4799 21.6459 22.5579 21.6459 22.6549Z" fill="black"/>
<path d="M22.0929 20.065C22.0929 20.216 21.9699 20.337 21.8189 20.337C21.6679 20.337 21.5459 20.216 21.5459 20.065C21.5459 19.915 21.6689 19.792 21.8189 19.792C21.9689 19.792 22.0929 19.914 22.0929 20.065ZM21.6459 20.065C21.6459 20.163 21.7219 20.238 21.8199 20.238C21.9169 20.238 21.9939 20.161 21.9939 20.065C21.9939 19.97 21.9169 19.892 21.8199 19.892C21.7219 19.892 21.6459 19.968 21.6459 20.065Z" fill="black"/>
<path d="M22.9806 20.1016C22.9806 20.2516 22.8586 20.3736 22.7076 20.3736C22.5576 20.3736 22.4346 20.2516 22.4346 20.1016C22.4346 19.9516 22.5576 19.8286 22.7076 19.8286C22.8586 19.8286 22.9806 19.9506 22.9806 20.1016ZM22.5336 20.1016C22.5336 20.1976 22.6116 20.2746 22.7076 20.2746C22.8056 20.2746 22.8826 20.1996 22.8826 20.1016C22.8826 20.0036 22.8056 19.9286 22.7076 19.9286C22.6116 19.9286 22.5336 20.0056 22.5336 20.1016Z" fill="black"/>
<path d="M22.9806 16.0118C22.9806 16.1618 22.8586 16.2858 22.7076 16.2858C22.5576 16.2858 22.4346 16.1628 22.4346 16.0118C22.4346 15.8608 22.5576 15.7398 22.7076 15.7398C22.8586 15.7388 22.9806 15.8598 22.9806 16.0118ZM22.5336 16.0118C22.5336 16.1078 22.6116 16.1858 22.7076 16.1858C22.8056 16.1858 22.8826 16.1088 22.8826 16.0118C22.8826 15.9158 22.8046 15.8378 22.7076 15.8378C22.6116 15.8378 22.5336 15.9158 22.5336 16.0118Z" fill="black"/>
<path d="M21.8692 17.106C21.8692 17.257 21.7462 17.38 21.5962 17.38C21.4462 17.38 21.3232 17.258 21.3232 17.106C21.3232 16.956 21.4462 16.833 21.5962 16.833C21.7462 16.833 21.8692 16.956 21.8692 17.106ZM21.4222 17.106C21.4222 17.203 21.4992 17.28 21.5962 17.28C21.6922 17.28 21.7702 17.203 21.7702 17.106C21.7702 17.01 21.6922 16.932 21.5962 16.932C21.4992 16.933 21.4222 17.011 21.4222 17.106Z" fill="black"/>
<path d="M24.0948 17.106C24.0948 17.257 23.9718 17.38 23.8218 17.38C23.6708 17.38 23.5488 17.258 23.5488 17.106C23.5488 16.956 23.6708 16.833 23.8218 16.833C23.9718 16.833 24.0948 16.956 24.0948 17.106ZM23.6468 17.106C23.6468 17.203 23.7238 17.28 23.8208 17.28C23.9168 17.28 23.9948 17.203 23.9948 17.106C23.9948 17.01 23.9168 16.932 23.8208 16.932C23.7248 16.933 23.6468 17.011 23.6468 17.106Z" fill="black"/>
<path d="M23.8711 9.85357C23.8711 10.0036 23.7481 10.1266 23.5981 10.1266C23.4481 10.1266 23.3271 10.0036 23.3271 9.85357C23.3271 9.70257 23.4481 9.58057 23.5981 9.58057C23.7481 9.58057 23.8711 9.70357 23.8711 9.85357ZM23.4251 9.85357C23.4251 9.94957 23.5031 10.0276 23.5981 10.0276C23.6941 10.0276 23.7721 9.94957 23.7721 9.85357C23.7721 9.75657 23.6941 9.67957 23.5981 9.67957C23.5031 9.67957 23.4251 9.75757 23.4251 9.85357Z" fill="black"/>
<path d="M23.8712 17.8477C23.8712 17.9987 23.7482 18.1207 23.5982 18.1207C23.4472 18.1207 23.3242 17.9987 23.3242 17.8477C23.3242 17.6977 23.4462 17.5747 23.5982 17.5747C23.7482 17.5747 23.8712 17.6967 23.8712 17.8477ZM23.4232 17.8477C23.4232 17.9447 23.5012 18.0217 23.5982 18.0217C23.6952 18.0217 23.7722 17.9457 23.7722 17.8477C23.7722 17.7527 23.6942 17.6747 23.5982 17.6747C23.5012 17.6747 23.4232 17.7527 23.4232 17.8477Z" fill="black"/>
<path d="M24.7598 11.7779C24.7598 11.9289 24.6368 12.0509 24.4858 12.0509C24.3368 12.0509 24.2148 11.9279 24.2148 11.7779C24.2148 11.6279 24.3368 11.5049 24.4858 11.5049C24.6368 11.5049 24.7598 11.6269 24.7598 11.7779ZM24.3148 11.7779C24.3148 11.8739 24.3918 11.9519 24.4868 11.9519C24.5838 11.9519 24.6608 11.8739 24.6608 11.7779C24.6608 11.6819 24.5838 11.6039 24.4868 11.6039C24.3918 11.6039 24.3148 11.6819 24.3148 11.7779Z" fill="black"/>
<path d="M24.7598 10.3057C24.7598 10.4567 24.6368 10.5787 24.4858 10.5787C24.3368 10.5787 24.2148 10.4557 24.2148 10.3057C24.2148 10.1547 24.3368 10.0317 24.4858 10.0317C24.6368 10.0317 24.7598 10.1547 24.7598 10.3057ZM24.3148 10.3057C24.3148 10.4017 24.3918 10.4797 24.4868 10.4797C24.5838 10.4797 24.6608 10.4017 24.6608 10.3057C24.6608 10.2097 24.5838 10.1317 24.4868 10.1317C24.3918 10.1307 24.3148 10.2097 24.3148 10.3057Z" fill="black"/>
<path d="M22.9806 4.15191C22.9806 4.30291 22.8586 4.42491 22.7076 4.42491C22.5576 4.42491 22.4346 4.30191 22.4346 4.15191C22.4346 4.00191 22.5576 3.87891 22.7076 3.87891C22.8586 3.87891 22.9806 4.00091 22.9806 4.15191ZM22.5336 4.15191C22.5336 4.24791 22.6116 4.32591 22.7076 4.32591C22.8046 4.32591 22.8826 4.24791 22.8826 4.15191C22.8826 4.05591 22.8046 3.97791 22.7076 3.97791C22.6116 3.97891 22.5336 4.05591 22.5336 4.15191Z" fill="black"/>
<path d="M22.0929 11.5547C22.0929 11.7047 21.9699 11.8277 21.8189 11.8277C21.6679 11.8277 21.5459 11.7057 21.5459 11.5547C21.5459 11.4037 21.6689 11.2817 21.8189 11.2817C21.9689 11.2817 22.0929 11.4037 22.0929 11.5547ZM21.6459 11.5547C21.6459 11.6507 21.7229 11.7287 21.8199 11.7287C21.9169 11.7287 21.9939 11.6507 21.9939 11.5547C21.9939 11.4577 21.9169 11.3807 21.8199 11.3807C21.7229 11.3797 21.6459 11.4577 21.6459 11.5547Z" fill="black"/>
<path d="M23.8712 5.99956C23.8712 6.15056 23.7482 6.27256 23.5982 6.27256C23.4472 6.27256 23.3242 6.14956 23.3242 5.99956C23.3242 5.84856 23.4462 5.72656 23.5982 5.72656C23.7482 5.72656 23.8712 5.84956 23.8712 5.99956ZM23.4232 5.99956C23.4232 6.09556 23.5012 6.17356 23.5982 6.17356C23.6942 6.17356 23.7722 6.09556 23.7722 5.99956C23.7722 5.90356 23.6942 5.82556 23.5982 5.82556C23.5012 5.82556 23.4232 5.90356 23.4232 5.99956Z" fill="black"/>
<path d="M23.8712 2.54302C23.8712 2.69402 23.7482 2.81602 23.5982 2.81602C23.4472 2.81602 23.3242 2.69302 23.3242 2.54302C23.3242 2.39202 23.4462 2.27002 23.5982 2.27002C23.7482 2.27002 23.8712 2.39302 23.8712 2.54302ZM23.4232 2.54302C23.4232 2.63902 23.5012 2.71702 23.5982 2.71702C23.6942 2.71702 23.7722 2.63902 23.7722 2.54302C23.7722 2.44702 23.6942 2.36902 23.5982 2.36902C23.5012 2.37002 23.4232 2.44702 23.4232 2.54302Z" fill="black"/>
<path d="M22.7583 21.1909V24.9499H22.6593V21.2899H21.8193V21.1909H22.7583Z" fill="black"/>
<path d="M22.7582 16.2349H22.6592V19.9079H22.7582V16.2349Z" fill="black"/>
<path d="M24.5359 12.002V13.783H23.6469V17.646H23.5479V13.684H24.4369V12.002H24.5359Z" fill="black"/>
<path d="M24.5362 7.15898V10.082H24.4372V7.25798H23.6472V8.38898H22.6592V4.37598H22.7582V8.28898H23.5482V7.15898H24.5362Z" fill="black"/>
<path d="M24.5359 3.7546V4.7256H23.6469V5.7766H23.5479V4.6266H24.4369V3.8546H23.5479V2.7666H23.6469V3.7546H24.5359Z" fill="black"/>
<path d="M21.8695 22.8779H21.7695V24.9499H21.8695V22.8779Z" fill="black"/>
<path d="M23.6469 10.082V11.989H22.7579V14.044H21.8689V15.869H20.9789V17.617H21.8689V19.846H21.7699V17.717H20.8809V15.771H21.7699V13.944H22.6589V11.89H23.5479V10.082H23.6469Z" fill="black"/>
<path d="M23.5973 17.0566H21.8193V17.1566H23.5973V17.0566Z" fill="black"/>
<path d="M22.7579 0.0498047V3.6148H21.8689V6.3828H20.9789V9.0468H21.8689V11.3228H21.7699V9.1458H20.8809V6.2838H21.7699V3.5148H22.6589V0.0498047H22.7579Z" fill="black"/>
<path d="M21.8695 7.04199H21.7695V8.44299H21.8695V7.04199Z" fill="black"/>
<path d="M20.2162 20.7588H20.1162V24.9498H20.2162V20.7588Z" fill="black"/>
<path d="M20.4406 20.5108C20.4406 20.6618 20.3176 20.7848 20.1666 20.7848C20.0156 20.7848 19.8936 20.6628 19.8936 20.5108C19.8936 20.3608 20.0156 20.2378 20.1666 20.2378C20.3166 20.2368 20.4406 20.3598 20.4406 20.5108ZM19.9916 20.5108C19.9916 20.6078 20.0696 20.6858 20.1666 20.6858C20.2626 20.6858 20.3406 20.6078 20.3406 20.5108C20.3406 20.4148 20.2626 20.3368 20.1666 20.3368C20.0696 20.3368 19.9916 20.4148 19.9916 20.5108Z" fill="black"/>
<path d="M20.6612 13.9571C20.6612 14.1071 20.5392 14.2301 20.3902 14.2301C20.2392 14.2301 20.1172 14.1081 20.1172 13.9571C20.1172 13.8061 20.2392 13.6841 20.3902 13.6841C20.5392 13.6841 20.6612 13.8071 20.6612 13.9571ZM20.2162 13.9571C20.2162 14.0551 20.2922 14.1301 20.3902 14.1301C20.4842 14.1301 20.5622 14.0531 20.5622 13.9571C20.5622 13.8601 20.4842 13.7831 20.3902 13.7831C20.2932 13.7831 20.2162 13.8601 20.2162 13.9571Z" fill="black"/>
<path d="M19.5499 18.3521C19.5499 18.5031 19.4279 18.6241 19.2769 18.6241C19.1269 18.6241 19.0029 18.5031 19.0029 18.3521C19.0029 18.2021 19.1259 18.0781 19.2769 18.0781C19.4279 18.0781 19.5499 18.2011 19.5499 18.3521ZM19.1029 18.3521C19.1029 18.4481 19.1809 18.5251 19.2769 18.5251C19.3739 18.5251 19.4519 18.4481 19.4519 18.3521C19.4519 18.2561 19.3739 18.1781 19.2769 18.1781C19.1799 18.1781 19.1029 18.2551 19.1029 18.3521Z" fill="black"/>
<path d="M20.6612 16.2349C20.6612 16.3849 20.5392 16.5079 20.3902 16.5079C20.2392 16.5079 20.1172 16.3849 20.1172 16.2349C20.1172 16.0839 20.2392 15.9619 20.3902 15.9619C20.5392 15.9619 20.6612 16.0839 20.6612 16.2349ZM20.2162 16.2349C20.2162 16.3309 20.2932 16.4089 20.3902 16.4089C20.4842 16.4089 20.5622 16.3309 20.5622 16.2349C20.5622 16.1379 20.4842 16.0599 20.3902 16.0599C20.2932 16.0599 20.2162 16.1389 20.2162 16.2349Z" fill="black"/>
<path d="M14.879 21.2398C14.879 21.3908 14.757 21.5138 14.606 21.5138C14.457 21.5138 14.335 21.3918 14.335 21.2398C14.335 21.0898 14.456 20.9678 14.606 20.9678C14.757 20.9678 14.879 21.0898 14.879 21.2398ZM14.434 21.2398C14.434 21.3368 14.512 21.4148 14.606 21.4148C14.703 21.4148 14.781 21.3368 14.781 21.2398C14.781 21.1428 14.704 21.0668 14.606 21.0668C14.512 21.0668 14.434 21.1458 14.434 21.2398Z" fill="black"/>
<path d="M15.1026 22.6539C15.1026 22.8039 14.9806 22.9259 14.8296 22.9259C14.6796 22.9259 14.5566 22.8039 14.5566 22.6539C14.5566 22.5029 14.6786 22.3809 14.8296 22.3809C14.9816 22.3819 15.1026 22.5029 15.1026 22.6539ZM14.6556 22.6539C14.6556 22.7499 14.7336 22.8279 14.8296 22.8279C14.9266 22.8279 15.0046 22.7499 15.0046 22.6539C15.0046 22.5559 14.9276 22.4799 14.8296 22.4799C14.7336 22.4799 14.6556 22.5589 14.6556 22.6539Z" fill="black"/>
<path d="M15.1026 20.065C15.1026 20.216 14.9806 20.337 14.8296 20.337C14.6796 20.337 14.5566 20.216 14.5566 20.065C14.5566 19.915 14.6786 19.791 14.8296 19.791C14.9816 19.791 15.1026 19.914 15.1026 20.065ZM14.6556 20.065C14.6556 20.161 14.7336 20.238 14.8296 20.238C14.9276 20.238 15.0046 20.163 15.0046 20.065C15.0046 19.969 14.9266 19.891 14.8296 19.891C14.7336 19.891 14.6556 19.969 14.6556 20.065Z" fill="black"/>
<path d="M15.9922 20.1021C15.9922 20.2521 15.8692 20.3741 15.7192 20.3741C15.5692 20.3741 15.4482 20.2521 15.4482 20.1021C15.4482 19.9521 15.5692 19.8281 15.7192 19.8281C15.8692 19.8281 15.9922 19.9511 15.9922 20.1021ZM15.5472 20.1021C15.5472 20.1981 15.6242 20.2751 15.7192 20.2751C15.8162 20.2751 15.8932 20.2001 15.8932 20.1021C15.8932 20.0051 15.8152 19.9281 15.7192 19.9281C15.6242 19.9281 15.5472 20.0051 15.5472 20.1021Z" fill="black"/>
<path d="M15.9922 16.0122C15.9922 16.1622 15.8692 16.2862 15.7192 16.2862C15.5692 16.2862 15.4482 16.1632 15.4482 16.0122C15.4482 15.8612 15.5692 15.7402 15.7192 15.7402C15.8692 15.7392 15.9922 15.8602 15.9922 16.0122ZM15.5472 16.0122C15.5472 16.1082 15.6242 16.1862 15.7192 16.1862C15.8162 16.1862 15.8932 16.1092 15.8932 16.0122C15.8932 15.9142 15.8162 15.8382 15.7192 15.8382C15.6242 15.8382 15.5472 15.9162 15.5472 16.0122Z" fill="black"/>
<path d="M14.879 17.106C14.879 17.257 14.757 17.379 14.606 17.379C14.457 17.379 14.335 17.258 14.335 17.106C14.335 16.956 14.456 16.833 14.606 16.833C14.757 16.833 14.879 16.956 14.879 17.106ZM14.434 17.106C14.434 17.202 14.512 17.279 14.606 17.279C14.704 17.279 14.781 17.204 14.781 17.106C14.781 17.01 14.703 16.932 14.606 16.932C14.512 16.933 14.434 17.011 14.434 17.106Z" fill="black"/>
<path d="M17.1046 17.106C17.1046 17.257 16.9826 17.379 16.8316 17.379C16.6816 17.379 16.5576 17.258 16.5576 17.106C16.5576 16.956 16.6806 16.833 16.8316 16.833C16.9826 16.833 17.1046 16.956 17.1046 17.106ZM16.6576 17.106C16.6576 17.202 16.7356 17.279 16.8316 17.279C16.9296 17.279 17.0066 17.204 17.0066 17.106C17.0066 17.01 16.9286 16.932 16.8316 16.932C16.7356 16.933 16.6576 17.011 16.6576 17.106Z" fill="black"/>
<path d="M16.8809 9.85405C16.8809 10.0041 16.7599 10.1271 16.6099 10.1271C16.4599 10.1271 16.3359 10.0041 16.3359 9.85405C16.3359 9.70305 16.4589 9.58105 16.6099 9.58105C16.7609 9.58105 16.8809 9.70405 16.8809 9.85405ZM16.4349 9.85405C16.4349 9.95005 16.5129 10.0281 16.6089 10.0281C16.7039 10.0281 16.7819 9.95005 16.7819 9.85405C16.7819 9.75705 16.7039 9.68005 16.6089 9.68005C16.5139 9.68005 16.4349 9.75805 16.4349 9.85405Z" fill="black"/>
<path d="M16.8809 17.8482C16.8809 17.9992 16.7589 18.1212 16.6079 18.1212C16.4589 18.1212 16.3359 17.9992 16.3359 17.8482C16.3359 17.6982 16.4579 17.5752 16.6079 17.5752C16.7589 17.5752 16.8809 17.6972 16.8809 17.8482ZM16.4349 17.8482C16.4349 17.9452 16.5129 18.0222 16.6069 18.0222C16.7039 18.0222 16.7819 17.9452 16.7819 17.8482C16.7819 17.7512 16.7049 17.6752 16.6069 17.6752C16.5139 17.6752 16.4349 17.7532 16.4349 17.8482Z" fill="black"/>
<path d="M17.7706 11.7779C17.7706 11.9289 17.6496 12.0509 17.4996 12.0509C17.3486 12.0509 17.2266 11.9279 17.2266 11.7779C17.2266 11.6279 17.3486 11.5049 17.4996 11.5049C17.6486 11.5049 17.7706 11.6269 17.7706 11.7779ZM17.3246 11.7779C17.3246 11.8739 17.4026 11.9519 17.4996 11.9519C17.5936 11.9519 17.6716 11.8739 17.6716 11.7779C17.6716 11.6819 17.5936 11.6039 17.4996 11.6039C17.4026 11.6039 17.3246 11.6819 17.3246 11.7779Z" fill="black"/>
<path d="M17.7706 10.3062C17.7706 10.4572 17.6496 10.5792 17.4996 10.5792C17.3486 10.5792 17.2266 10.4562 17.2266 10.3062C17.2266 10.1552 17.3486 10.0322 17.4996 10.0322C17.6486 10.0322 17.7706 10.1552 17.7706 10.3062ZM17.3246 10.3062C17.3246 10.4022 17.4026 10.4802 17.4996 10.4802C17.5936 10.4802 17.6716 10.4022 17.6716 10.3062C17.6716 10.2102 17.5936 10.1322 17.4996 10.1322C17.4026 10.1312 17.3246 10.2102 17.3246 10.3062Z" fill="black"/>
<path d="M15.9922 4.15191C15.9922 4.30291 15.8692 4.42491 15.7192 4.42491C15.5692 4.42491 15.4482 4.30191 15.4482 4.15191C15.4482 4.00191 15.5692 3.87891 15.7192 3.87891C15.8692 3.87891 15.9922 4.00091 15.9922 4.15191ZM15.5472 4.15191C15.5472 4.24791 15.6242 4.32591 15.7192 4.32591C15.8152 4.32591 15.8932 4.24791 15.8932 4.15191C15.8932 4.05591 15.8152 3.97791 15.7192 3.97791C15.6242 3.97891 15.5472 4.05591 15.5472 4.15191Z" fill="black"/>
<path d="M15.1026 11.5552C15.1026 11.7052 14.9806 11.8282 14.8296 11.8282C14.6796 11.8282 14.5566 11.7062 14.5566 11.5552C14.5566 11.4042 14.6786 11.2822 14.8296 11.2822C14.9816 11.2812 15.1026 11.4042 15.1026 11.5552ZM14.6556 11.5552C14.6556 11.6512 14.7336 11.7292 14.8296 11.7292C14.9266 11.7292 15.0046 11.6512 15.0046 11.5552C15.0046 11.4582 14.9266 11.3812 14.8296 11.3812C14.7336 11.3802 14.6556 11.4582 14.6556 11.5552Z" fill="black"/>
<path d="M16.8809 6.00005C16.8809 6.15105 16.7589 6.27305 16.6079 6.27305C16.4589 6.27305 16.3359 6.15005 16.3359 6.00005C16.3359 5.84905 16.4579 5.72705 16.6079 5.72705C16.7589 5.72705 16.8809 5.85005 16.8809 6.00005ZM16.4349 6.00005C16.4349 6.09605 16.5129 6.17405 16.6069 6.17405C16.7039 6.17405 16.7819 6.09605 16.7819 6.00005C16.7819 5.90405 16.7039 5.82605 16.6069 5.82605C16.5139 5.82605 16.4349 5.90405 16.4349 6.00005Z" fill="black"/>
<path d="M16.8809 2.54302C16.8809 2.69402 16.7589 2.81602 16.6079 2.81602C16.4589 2.81602 16.3359 2.69302 16.3359 2.54302C16.3359 2.39202 16.4579 2.27002 16.6079 2.27002C16.7589 2.27002 16.8809 2.39302 16.8809 2.54302ZM16.4349 2.54302C16.4349 2.63902 16.5129 2.71702 16.6069 2.71702C16.7039 2.71702 16.7819 2.63902 16.7819 2.54302C16.7819 2.44702 16.7039 2.36902 16.6069 2.36902C16.5139 2.37002 16.4349 2.44702 16.4349 2.54302Z" fill="black"/>
<path d="M19.5499 12.5001C19.5499 12.6511 19.4279 12.7731 19.2769 12.7731C19.1269 12.7731 19.0029 12.6501 19.0029 12.5001C19.0029 12.3501 19.1259 12.2271 19.2769 12.2271C19.4279 12.2271 19.5499 12.3491 19.5499 12.5001ZM19.1029 12.5001C19.1029 12.5961 19.1809 12.6741 19.2769 12.6741C19.3739 12.6741 19.4519 12.5961 19.4519 12.5001C19.4519 12.4041 19.3739 12.3261 19.2769 12.3261C19.1809 12.3261 19.1029 12.4041 19.1029 12.5001Z" fill="black"/>
<path d="M18.4386 9.07622C18.4386 9.22722 18.3156 9.34922 18.1656 9.34922C18.0156 9.34922 17.8916 9.22622 17.8916 9.07622C17.8916 8.92622 18.0146 8.80322 18.1656 8.80322C18.3166 8.80322 18.4386 8.92522 18.4386 9.07622ZM17.9906 9.07622C17.9906 9.17222 18.0676 9.25022 18.1646 9.25022C18.2606 9.25022 18.3386 9.17222 18.3386 9.07622C18.3386 8.98022 18.2606 8.90222 18.1646 8.90222C18.0676 8.90222 17.9906 8.98022 17.9906 9.07622Z" fill="black"/>
<path d="M19.5479 8.30376C19.5479 8.45476 19.4269 8.57676 19.2769 8.57676C19.1269 8.57676 19.0029 8.45376 19.0029 8.30376C19.0029 8.15376 19.1259 8.03076 19.2769 8.03076C19.4279 8.03076 19.5479 8.15276 19.5479 8.30376ZM19.1029 8.30376C19.1029 8.39976 19.1809 8.47776 19.2769 8.47776C19.3719 8.47776 19.4499 8.39976 19.4499 8.30376C19.4499 8.20776 19.3709 8.12976 19.2759 8.12976C19.1809 8.12976 19.1029 8.20776 19.1029 8.30376Z" fill="black"/>
<path d="M18.6593 4.86382C18.6593 5.01482 18.5373 5.13682 18.3873 5.13682C18.2373 5.13682 18.1143 5.01382 18.1143 4.86382C18.1143 4.71382 18.2373 4.59082 18.3873 4.59082C18.5373 4.59082 18.6593 4.71382 18.6593 4.86382ZM18.2143 4.86382C18.2143 4.96082 18.2913 5.03782 18.3883 5.03782C18.4833 5.03782 18.5603 4.95982 18.5603 4.86382C18.5603 4.76782 18.4833 4.68982 18.3883 4.68982C18.2913 4.68982 18.2143 4.76782 18.2143 4.86382Z" fill="black"/>
<path d="M19.5479 3.4478C19.5479 3.5988 19.4269 3.7208 19.2769 3.7208C19.1269 3.7208 19.0029 3.5978 19.0029 3.4478C19.0029 3.2968 19.1259 3.1748 19.2769 3.1748C19.4279 3.1748 19.5479 3.2968 19.5479 3.4478ZM19.1029 3.4478C19.1029 3.5438 19.1809 3.6218 19.2769 3.6218C19.3719 3.6218 19.4499 3.5438 19.4499 3.4478C19.4499 3.3518 19.3719 3.2738 19.2769 3.2738C19.1809 3.2738 19.1029 3.3518 19.1029 3.4478Z" fill="black"/>
<path d="M17.7706 0.273C17.7706 0.424 17.6496 0.546 17.4996 0.546C17.3486 0.546 17.2266 0.423 17.2266 0.273C17.2266 0.123 17.3486 0 17.4996 0C17.6486 0 17.7706 0.123 17.7706 0.273ZM17.3246 0.273C17.3246 0.369 17.4026 0.447 17.4996 0.447C17.5936 0.447 17.6716 0.369 17.6716 0.273C17.6716 0.177 17.5936 0.099 17.4996 0.099C17.4016 0.099 17.3246 0.176 17.3246 0.273Z" fill="black"/>
<path d="M20.4406 8.62994C20.4406 8.77994 20.3176 8.90294 20.1666 8.90294C20.0156 8.90294 19.8936 8.77994 19.8936 8.62994C19.8936 8.47894 20.0156 8.35694 20.1666 8.35694C20.3166 8.35594 20.4406 8.47894 20.4406 8.62994ZM19.9916 8.62994C19.9916 8.72594 20.0696 8.80394 20.1666 8.80394C20.2626 8.80394 20.3406 8.72594 20.3406 8.62994C20.3406 8.53294 20.2626 8.45594 20.1666 8.45594C20.0696 8.45594 19.9916 8.53294 19.9916 8.62994Z" fill="black"/>
<path d="M20.4406 1.25787C20.4406 1.40887 20.3176 1.53087 20.1666 1.53087C20.0156 1.53087 19.8936 1.40787 19.8936 1.25787C19.8936 1.10787 20.0156 0.984869 20.1666 0.984869C20.3166 0.983869 20.4406 1.10687 20.4406 1.25787ZM19.9916 1.25787C19.9916 1.35387 20.0696 1.43187 20.1666 1.43187C20.2626 1.43187 20.3406 1.35387 20.3406 1.25787C20.3406 1.16187 20.2626 1.08387 20.1666 1.08387C20.0696 1.08387 19.9916 1.16187 19.9916 1.25787Z" fill="black"/>
<path d="M19.5479 9.55816C19.5479 9.70916 19.4269 9.83116 19.2769 9.83116C19.1269 9.83116 19.0029 9.70816 19.0029 9.55816C19.0029 9.40816 19.1259 9.28516 19.2769 9.28516C19.4279 9.28516 19.5479 9.40716 19.5479 9.55816ZM19.1029 9.55816C19.1029 9.65416 19.1809 9.73216 19.2769 9.73216C19.3719 9.73216 19.4499 9.65416 19.4499 9.55816C19.4499 9.46216 19.3719 9.38416 19.2769 9.38416C19.1809 9.38316 19.1029 9.46116 19.1029 9.55816Z" fill="black"/>
<path d="M18.6593 12.5992C18.6593 12.7502 18.5373 12.8722 18.3873 12.8722C18.2373 12.8722 18.1143 12.7492 18.1143 12.5992C18.1143 12.4492 18.2373 12.3262 18.3873 12.3262C18.5373 12.3262 18.6593 12.4482 18.6593 12.5992ZM18.2143 12.5992C18.2143 12.6952 18.2913 12.7732 18.3883 12.7732C18.4833 12.7732 18.5603 12.6952 18.5603 12.5992C18.5603 12.5032 18.4833 12.4252 18.3883 12.4252C18.2913 12.4252 18.2143 12.5032 18.2143 12.5992Z" fill="black"/>
<path d="M18.6593 21.646C18.6593 21.796 18.5373 21.919 18.3873 21.919C18.2373 21.919 18.1143 21.796 18.1143 21.646C18.1143 21.495 18.2373 21.373 18.3873 21.373C18.5373 21.373 18.6593 21.494 18.6593 21.646ZM18.2143 21.646C18.2143 21.742 18.2913 21.82 18.3883 21.82C18.4833 21.82 18.5603 21.742 18.5603 21.646C18.5603 21.55 18.4833 21.472 18.3883 21.472C18.2903 21.472 18.2143 21.548 18.2143 21.646Z" fill="black"/>
<path d="M19.3275 18.5381H19.2285V24.9501H19.3275V18.5381Z" fill="black"/>
<path d="M18.4379 21.8691H18.3379V24.9501H18.4379V21.8691Z" fill="black"/>
<path d="M20.1662 16.1851V16.2851H18.4382V19.8551H17.5482V24.9501H17.4492V19.7561H18.3382V16.1851H20.1662Z" fill="black"/>
<path d="M20.1666 13.9072V14.0072H19.2286V13.1102H18.4386V14.7292H17.5486V18.3702H16.6576V24.9502H16.5586V18.2712H17.4496V14.6292H18.3386V13.0112H19.3266V13.9072H20.1666Z" fill="black"/>
<path d="M15.7691 21.1909V24.9499H15.6691V21.2899H14.8291V21.1909H15.7691Z" fill="black"/>
<path d="M15.7689 16.2349H15.6689V19.9079H15.7689V16.2349Z" fill="black"/>
<path d="M17.5486 12.002V13.783H16.6576V17.646H16.5586V13.684H17.4496V12.002H17.5486Z" fill="black"/>
<path d="M20.2167 9.02588V10.7129H19.3267V12.2819H19.2287V10.6139H20.1167V9.12588H18.3887V9.02588H20.2167Z" fill="black"/>
<path d="M19.3259 9.78076V10.2868H18.4379V12.3748H18.3379V10.1878H19.2279V9.78076H19.3259Z" fill="black"/>
<path d="M17.5479 7.15898V10.082H17.4489V7.25798H16.6569V8.38898H15.6689V4.37598H15.7689V8.28898H16.5579V7.15898H17.5479Z" fill="black"/>
<path d="M17.5486 3.75509V4.72609H16.6576V5.77709H16.5586V4.62709H17.4496V3.85509H16.5606V2.76709H16.6596V3.75509H17.5486Z" fill="black"/>
<path d="M20.2165 1.48096V4.20196H19.3265V5.95096H20.2165V8.39196H20.1165V6.04996H19.2285V4.10296H20.1165V1.48096H20.2165Z" fill="black"/>
<path d="M19.3259 6.51578V8.07978H19.2279V6.61478H18.3379V5.07178H18.4379V6.51578H19.3259Z" fill="black"/>
<path d="M19.3262 1.74318V3.22518H19.2282V1.84218H18.4382V2.55818H17.4492V0.555176H17.5482V2.45918H18.3382V1.74318H19.3262Z" fill="black"/>
<path d="M14.8793 22.8779H14.7803V24.9499H14.8793V22.8779Z" fill="black"/>
<path d="M16.6596 10.082V11.989H15.7696V14.044H14.8796V15.869H13.9906V17.617H14.8796V19.846H14.7806V17.717H13.8916V15.771H14.7806V13.944H15.6696V11.89H16.5606V10.082H16.6596Z" fill="black"/>
<path d="M20.6612 15.3482C20.6612 15.4992 20.5392 15.6202 20.3902 15.6202C20.2392 15.6202 20.1172 15.4992 20.1172 15.3482C20.1172 15.1982 20.2392 15.0742 20.3902 15.0742C20.5392 15.0742 20.6612 15.1972 20.6612 15.3482ZM20.2162 15.3482C20.2162 15.4462 20.2922 15.5222 20.3902 15.5222C20.4842 15.5222 20.5622 15.4442 20.5622 15.3482C20.5622 15.2522 20.4842 15.1742 20.3902 15.1742C20.2932 15.1742 20.2162 15.2522 20.2162 15.3482Z" fill="black"/>
<path d="M18.4386 15.3482C18.4386 15.4992 18.3156 15.6202 18.1656 15.6202C18.0156 15.6202 17.8916 15.4992 17.8916 15.3482C17.8916 15.1982 18.0146 15.0742 18.1656 15.0742C18.3166 15.0742 18.4386 15.1972 18.4386 15.3482ZM17.9906 15.3482C17.9906 15.4462 18.0666 15.5222 18.1646 15.5222C18.2606 15.5222 18.3386 15.4442 18.3386 15.3482C18.3386 15.2522 18.2606 15.1742 18.1646 15.1742C18.0676 15.1742 17.9906 15.2522 17.9906 15.3482Z" fill="black"/>
<path d="M20.1667 15.2993H18.3887V15.3983H20.1667V15.2993Z" fill="black"/>
<path d="M8.29595 22.0098C8.29595 22.1608 8.17395 22.2818 8.02495 22.2818C7.87395 22.2818 7.75195 22.1608 7.75195 22.0098C7.75195 21.8598 7.87495 21.7358 8.02495 21.7358C8.17395 21.7358 8.29595 21.8588 8.29595 22.0098ZM7.85095 22.0098C7.85095 22.1078 7.92795 22.1828 8.02495 22.1828C8.11895 22.1828 8.19695 22.1058 8.19695 22.0098C8.19695 21.9138 8.11895 21.8358 8.02495 21.8358C7.92795 21.8358 7.85095 21.9138 7.85095 22.0098Z" fill="black"/>
<path d="M6.07237 22.0098C6.07237 22.1608 5.94937 22.2818 5.79937 22.2818C5.64837 22.2818 5.52637 22.1608 5.52637 22.0098C5.52637 21.8598 5.64937 21.7358 5.79937 21.7358C5.95037 21.7358 6.07237 21.8588 6.07237 22.0098ZM5.62537 22.0098C5.62537 22.1078 5.70237 22.1828 5.79937 22.1828C5.89537 22.1828 5.97337 22.1058 5.97337 22.0098C5.97337 21.9138 5.89537 21.8358 5.79937 21.8358C5.70337 21.8358 5.62537 21.9138 5.62537 22.0098Z" fill="black"/>
<path d="M7.80144 21.96H6.02344V22.06H7.80144V21.96Z" fill="black"/>
<path d="M6.91265 22.1392C7.06265 22.1392 7.18465 22.2602 7.18465 22.4102C7.18465 22.5602 7.06265 22.6822 6.91265 22.6822C6.76165 22.6822 6.63965 22.5602 6.63965 22.4102C6.63965 22.2602 6.76165 22.1392 6.91265 22.1392ZM6.91265 22.5842C7.00965 22.5842 7.08565 22.5072 7.08565 22.4102C7.08565 22.3152 7.00765 22.2372 6.91265 22.2372C6.81565 22.2372 6.73865 22.3152 6.73865 22.4102C6.73865 22.5062 6.81565 22.5842 6.91265 22.5842Z" fill="black"/>
<path d="M6.91265 24.3623C7.06265 24.3623 7.18465 24.4843 7.18465 24.6343C7.18465 24.7853 7.06265 24.9073 6.91265 24.9073C6.76165 24.9073 6.63965 24.7853 6.63965 24.6343C6.63965 24.4843 6.76165 24.3623 6.91265 24.3623ZM6.91265 24.8103C7.00965 24.8103 7.08565 24.7333 7.08565 24.6353C7.08565 24.5393 7.00765 24.4613 6.91265 24.4613C6.81565 24.4613 6.73865 24.5393 6.73865 24.6353C6.73865 24.7313 6.81565 24.8103 6.91265 24.8103Z" fill="black"/>
<path d="M6.9613 22.6343H6.8623V24.4113H6.9613V22.6343Z" fill="black"/>
<path d="M6.91265 9.6582C7.06265 9.6582 7.18465 9.7802 7.18465 9.9292C7.18465 10.0802 7.06265 10.2022 6.91265 10.2022C6.76165 10.2022 6.63965 10.0802 6.63965 9.9292C6.63965 9.7792 6.76165 9.6582 6.91265 9.6582ZM6.91265 10.1042C7.00965 10.1042 7.08565 10.0272 7.08565 9.9302C7.08565 9.8362 7.00765 9.7582 6.91265 9.7582C6.81565 9.7582 6.73865 9.8362 6.73865 9.9302C6.73865 10.0252 6.81565 10.1042 6.91265 10.1042Z" fill="black"/>
<path d="M6.91265 11.8813C7.06265 11.8813 7.18465 12.0043 7.18465 12.1553C7.18465 12.3063 7.06265 12.4283 6.91265 12.4283C6.76165 12.4283 6.63965 12.3063 6.63965 12.1553C6.63965 12.0043 6.76165 11.8813 6.91265 11.8813ZM6.91265 12.3293C7.00965 12.3293 7.08565 12.2523 7.08565 12.1553C7.08565 12.0593 7.00765 11.9813 6.91265 11.9813C6.81565 11.9813 6.73865 12.0593 6.73865 12.1553C6.73865 12.2513 6.81565 12.3293 6.91265 12.3293Z" fill="black"/>
<path d="M6.9613 10.1533H6.8623V11.9313H6.9613V10.1533Z" fill="black"/>
<path d="M20.8824 10.3931C21.0324 10.3931 21.1554 10.5151 21.1554 10.6651C21.1554 10.8161 21.0334 10.9381 20.8824 10.9381C20.7314 10.9381 20.6094 10.8151 20.6094 10.6651C20.6084 10.5151 20.7304 10.3931 20.8824 10.3931ZM20.8824 10.8391C20.9794 10.8391 21.0554 10.7621 21.0554 10.6651C21.0554 10.5711 20.9774 10.4931 20.8824 10.4931C20.7854 10.4931 20.7084 10.5711 20.7084 10.6651C20.7084 10.7611 20.7854 10.8391 20.8824 10.8391Z" fill="black"/>
<path d="M20.8824 12.6172C21.0324 12.6172 21.1554 12.7402 21.1554 12.8902C21.1554 13.0412 21.0334 13.1632 20.8824 13.1632C20.7314 13.1632 20.6094 13.0412 20.6094 12.8902C20.6084 12.7392 20.7304 12.6172 20.8824 12.6172ZM20.8824 13.0642C20.9794 13.0642 21.0554 12.9872 21.0554 12.8902C21.0554 12.7942 20.9774 12.7162 20.8824 12.7162C20.7854 12.7162 20.7084 12.7942 20.7084 12.8902C20.7084 12.9862 20.7854 13.0642 20.8824 13.0642Z" fill="black"/>
<path d="M20.932 10.8882H20.832V12.6662H20.932V10.8882Z" fill="black"/>
<path d="M23.648 21.335C23.798 21.335 23.92 21.456 23.92 21.606C23.92 21.756 23.799 21.88 23.648 21.88C23.497 21.88 23.375 21.757 23.375 21.606C23.375 21.456 23.497 21.335 23.648 21.335ZM23.648 21.78C23.745 21.78 23.821 21.703 23.821 21.606C23.821 21.511 23.743 21.434 23.648 21.434C23.551 21.434 23.473 21.511 23.473 21.606C23.474 21.702 23.552 21.78 23.648 21.78Z" fill="black"/>
<path d="M23.648 23.5591C23.798 23.5591 23.92 23.6811 23.92 23.8321C23.92 23.9821 23.799 24.1051 23.648 24.1051C23.497 24.1051 23.375 23.9821 23.375 23.8321C23.375 23.6811 23.497 23.5591 23.648 23.5591ZM23.648 24.0061C23.745 24.0061 23.821 23.9291 23.821 23.8321C23.821 23.7351 23.743 23.6571 23.648 23.6571C23.551 23.6571 23.473 23.7351 23.473 23.8321C23.474 23.9281 23.552 24.0061 23.648 24.0061Z" fill="black"/>
<path d="M23.6976 21.8301H23.5986V23.6081H23.6976V21.8301Z" fill="black"/>
<path d="M14.1646 0.504883C14.3156 0.504883 14.4366 0.626883 14.4366 0.775883C14.4366 0.925883 14.3156 1.04888 14.1646 1.04888C14.0146 1.04888 13.8916 0.925883 13.8916 0.775883C13.8916 0.625883 14.0146 0.504883 14.1646 0.504883ZM14.1646 0.949883C14.2626 0.949883 14.3386 0.872883 14.3386 0.775883C14.3386 0.680883 14.2606 0.603883 14.1646 0.603883C14.0686 0.603883 13.9906 0.681883 13.9906 0.775883C13.9906 0.872883 14.0686 0.949883 14.1646 0.949883Z" fill="black"/>
<path d="M14.1646 2.729C14.3156 2.729 14.4366 2.852 14.4366 3.002C14.4366 3.152 14.3156 3.275 14.1646 3.275C14.0146 3.275 13.8916 3.152 13.8916 3.002C13.8916 2.851 14.0146 2.729 14.1646 2.729ZM14.1646 3.176C14.2626 3.176 14.3386 3.099 14.3386 3.002C14.3386 2.905 14.2606 2.828 14.1646 2.828C14.0686 2.828 13.9906 2.906 13.9906 3.002C13.9906 3.098 14.0686 3.176 14.1646 3.176Z" fill="black"/>
<path d="M14.2143 1H14.1143V2.778H14.2143V1Z" fill="black"/>
<path d="M21.317 0.504883C21.467 0.504883 21.589 0.626883 21.589 0.775883C21.589 0.925883 21.467 1.04888 21.317 1.04888C21.167 1.04888 21.043 0.925883 21.043 0.775883C21.044 0.625883 21.167 0.504883 21.317 0.504883ZM21.317 0.949883C21.415 0.949883 21.49 0.872883 21.49 0.775883C21.49 0.680883 21.413 0.603883 21.317 0.603883C21.22 0.603883 21.143 0.681883 21.143 0.775883C21.144 0.872883 21.221 0.949883 21.317 0.949883Z" fill="black"/>
<path d="M21.317 2.729C21.467 2.729 21.589 2.852 21.589 3.002C21.589 3.152 21.467 3.275 21.317 3.275C21.167 3.275 21.043 3.152 21.043 3.002C21.044 2.851 21.167 2.729 21.317 2.729ZM21.317 3.176C21.415 3.176 21.49 3.099 21.49 3.002C21.49 2.905 21.413 2.828 21.317 2.828C21.22 2.828 21.143 2.906 21.143 3.002C21.144 3.098 21.221 3.176 21.317 3.176Z" fill="black"/>
<path d="M21.3676 1H21.2676V2.778H21.3676V1Z" fill="black"/>
<path d="M24.3678 0.503906C24.5178 0.503906 24.6388 0.625906 24.6388 0.774906C24.6388 0.924906 24.5178 1.04791 24.3678 1.04791C24.2168 1.04791 24.0938 0.924906 24.0938 0.774906C24.0948 0.624906 24.2168 0.503906 24.3678 0.503906ZM24.3678 0.948906C24.4648 0.948906 24.5408 0.871906 24.5408 0.774906C24.5408 0.679906 24.4628 0.602906 24.3678 0.602906C24.2708 0.602906 24.1928 0.680906 24.1928 0.774906C24.1928 0.871906 24.2708 0.948906 24.3678 0.948906Z" fill="black"/>
<path d="M24.3678 2.72803C24.5178 2.72803 24.6388 2.85103 24.6388 3.00103C24.6388 3.15103 24.5178 3.27403 24.3678 3.27403C24.2168 3.27403 24.0938 3.15103 24.0938 3.00103C24.0948 2.85003 24.2168 2.72803 24.3678 2.72803ZM24.3678 3.17503C24.4648 3.17503 24.5408 3.09803 24.5408 3.00103C24.5408 2.90403 24.4628 2.82703 24.3678 2.82703C24.2708 2.82703 24.1928 2.90503 24.1928 3.00103C24.1928 3.09703 24.2708 3.17503 24.3678 3.17503Z" fill="black"/>
<path d="M24.4164 0.999023H24.3174V2.77702H24.4164V0.999023Z" fill="black"/>
<path d="M24.3678 18.23C24.5178 18.23 24.6388 18.351 24.6388 18.502C24.6388 18.652 24.5178 18.774 24.3678 18.774C24.2168 18.774 24.0938 18.652 24.0938 18.502C24.0948 18.352 24.2168 18.23 24.3678 18.23ZM24.3678 18.676C24.4648 18.676 24.5408 18.599 24.5408 18.502C24.5408 18.407 24.4628 18.329 24.3678 18.329C24.2708 18.329 24.1928 18.407 24.1928 18.502C24.1928 18.598 24.2708 18.676 24.3678 18.676Z" fill="black"/>
<path d="M24.3678 20.4541C24.5178 20.4541 24.6388 20.5761 24.6388 20.7271C24.6388 20.8781 24.5178 21.0001 24.3678 21.0001C24.2168 21.0001 24.0938 20.8781 24.0938 20.7271C24.0948 20.5761 24.2168 20.4541 24.3678 20.4541ZM24.3678 20.9011C24.4648 20.9011 24.5408 20.8241 24.5408 20.7261C24.5408 20.6301 24.4628 20.5521 24.3678 20.5521C24.2708 20.5521 24.1928 20.6301 24.1928 20.7261C24.1928 20.8231 24.2708 20.9011 24.3678 20.9011Z" fill="black"/>
<path d="M24.4164 18.7261H24.3174V20.5031H24.4164V18.7261Z" fill="black"/>
<path d="M13.8921 11.8359C14.0431 11.8359 14.1651 11.9579 14.1651 12.1069C14.1651 12.2579 14.0441 12.3799 13.8921 12.3799C13.7421 12.3799 13.6191 12.2569 13.6191 12.1069C13.6181 11.9579 13.7411 11.8359 13.8921 11.8359ZM13.8921 12.2819C13.9901 12.2819 14.0661 12.2049 14.0661 12.1079C14.0661 12.0139 13.9881 11.9359 13.8921 11.9359C13.7961 11.9359 13.7181 12.0139 13.7181 12.1079C13.7181 12.2039 13.7961 12.2819 13.8921 12.2819Z" fill="black"/>
<path d="M13.8921 14.061C14.0431 14.061 14.1651 14.183 14.1651 14.334C14.1651 14.484 14.0441 14.606 13.8921 14.606C13.7421 14.606 13.6191 14.484 13.6191 14.334C13.6181 14.183 13.7411 14.061 13.8921 14.061ZM13.8921 14.508C13.9901 14.508 14.0661 14.431 14.0661 14.334C14.0661 14.237 13.9881 14.159 13.8921 14.159C13.7961 14.159 13.7181 14.237 13.7181 14.334C13.7181 14.43 13.7961 14.508 13.8921 14.508Z" fill="black"/>
<path d="M13.9418 12.332H13.8428V14.11H13.9418V12.332Z" fill="black"/>
<path d="M20.3902 16.9668C20.5402 16.9668 20.6622 17.0878 20.6622 17.2378C20.6622 17.3878 20.5402 17.5108 20.3902 17.5108C20.2392 17.5108 20.1172 17.3878 20.1172 17.2378C20.1172 17.0878 20.2382 16.9668 20.3902 16.9668ZM20.3902 17.4118C20.4872 17.4118 20.5632 17.3348 20.5632 17.2378C20.5632 17.1428 20.4852 17.0648 20.3902 17.0648C20.2932 17.0648 20.2162 17.1428 20.2162 17.2378C20.2162 17.3338 20.2932 17.4118 20.3902 17.4118Z" fill="black"/>
<path d="M20.3902 19.1899C20.5402 19.1899 20.6622 19.3119 20.6622 19.4639C20.6622 19.6139 20.5402 19.7359 20.3902 19.7359C20.2392 19.7359 20.1172 19.6139 20.1172 19.4639C20.1162 19.3129 20.2382 19.1899 20.3902 19.1899ZM20.3902 19.6379C20.4872 19.6379 20.5632 19.5609 20.5632 19.4639C20.5632 19.3669 20.4852 19.2889 20.3902 19.2889C20.2932 19.2889 20.2162 19.3669 20.2162 19.4639C20.2162 19.5599 20.2932 19.6379 20.3902 19.6379Z" fill="black"/>
<path d="M20.4398 17.4619H20.3398V19.2399H20.4398V17.4619Z" fill="black"/>
<path d="M16.6091 17.0571H14.8291V17.1571H16.6091V17.0571Z" fill="black"/>
<path d="M15.7696 0.0498047V3.6148H14.8796V6.3828H13.9906V9.0468H14.8796V11.3228H14.7806V9.1458H13.8916V6.2838H14.7806V3.5148H15.6696V0.0498047H15.7696Z" fill="black"/>
<path d="M14.8793 7.04199H14.7803V8.44299H14.8793V7.04199Z" fill="black"/>
<path d="M13.2357 0.0498047H13.1357V4.2408H13.2357V0.0498047Z" fill="black"/>
<path d="M13.4591 4.4888C13.4591 4.6398 13.3371 4.7618 13.1861 4.7618C13.0361 4.7618 12.9131 4.6388 12.9131 4.4888C12.9131 4.3388 13.0361 4.2168 13.1861 4.2168C13.3371 4.2168 13.4591 4.3378 13.4591 4.4888ZM13.0121 4.4888C13.0121 4.5858 13.0901 4.6628 13.1861 4.6628C13.2831 4.6628 13.3601 4.5848 13.3601 4.4888C13.3601 4.3938 13.2831 4.3158 13.1861 4.3158C13.0891 4.3158 13.0121 4.3918 13.0121 4.4888Z" fill="black"/>
<path d="M13.6807 11.043C13.6807 11.194 13.5597 11.316 13.4087 11.316C13.2577 11.316 13.1357 11.193 13.1357 11.043C13.1357 10.892 13.2587 10.77 13.4087 10.77C13.5587 10.77 13.6807 10.892 13.6807 11.043ZM13.2347 11.043C13.2347 11.139 13.3127 11.217 13.4087 11.217C13.5037 11.217 13.5817 11.139 13.5817 11.043C13.5817 10.948 13.5037 10.87 13.4087 10.87C13.3127 10.87 13.2347 10.946 13.2347 11.043Z" fill="black"/>
<path d="M12.5704 6.64898C12.5704 6.79998 12.4474 6.92098 12.2974 6.92098C12.1464 6.92098 12.0244 6.79898 12.0244 6.64898C12.0244 6.49798 12.1474 6.37598 12.2974 6.37598C12.4474 6.37598 12.5704 6.49898 12.5704 6.64898ZM12.1234 6.64898C12.1234 6.74598 12.1994 6.82198 12.2974 6.82198C12.3924 6.82198 12.4714 6.74398 12.4714 6.64898C12.4714 6.55298 12.3924 6.47498 12.2974 6.47498C12.2004 6.47498 12.1234 6.55298 12.1234 6.64898Z" fill="black"/>
<path d="M13.6807 8.76468C13.6807 8.91568 13.5597 9.03768 13.4087 9.03768C13.2577 9.03768 13.1357 8.91468 13.1357 8.76468C13.1357 8.61468 13.2587 8.49268 13.4087 8.49268C13.5587 8.49268 13.6807 8.61368 13.6807 8.76468ZM13.2347 8.76468C13.2347 8.86168 13.3127 8.93868 13.4087 8.93868C13.5037 8.93868 13.5817 8.86068 13.5817 8.76468C13.5817 8.66968 13.5037 8.59168 13.4087 8.59168C13.3127 8.59168 13.2347 8.66668 13.2347 8.76468Z" fill="black"/>
<path d="M13.6807 9.65188C13.6807 9.80288 13.5597 9.92488 13.4087 9.92488C13.2577 9.92488 13.1357 9.80188 13.1357 9.65188C13.1357 9.50088 13.2587 9.37988 13.4087 9.37988C13.5587 9.37988 13.6807 9.50088 13.6807 9.65188ZM13.2347 9.65188C13.2347 9.74788 13.3127 9.82588 13.4087 9.82588C13.5037 9.82588 13.5817 9.74788 13.5817 9.65188C13.5817 9.55688 13.5037 9.47888 13.4087 9.47888C13.3127 9.47888 13.2347 9.55488 13.2347 9.65188Z" fill="black"/>
<path d="M11.4581 9.65191C11.4581 9.80291 11.3351 9.92491 11.1851 9.92491C11.0351 9.92491 10.9111 9.80191 10.9111 9.65191C10.9111 9.50091 11.0341 9.37891 11.1851 9.37891C11.3361 9.37891 11.4581 9.50091 11.4581 9.65191ZM11.0101 9.65191C11.0101 9.74791 11.0881 9.82591 11.1841 9.82591C11.2791 9.82591 11.3581 9.74791 11.3581 9.65191C11.3581 9.55591 11.2791 9.47791 11.1841 9.47791C11.0881 9.47791 11.0101 9.55591 11.0101 9.65191Z" fill="black"/>
<path d="M7.89947 3.75884C7.89947 3.90984 7.77647 4.03084 7.62647 4.03084C7.47647 4.03084 7.35547 3.90884 7.35547 3.75884C7.35547 3.60884 7.47747 3.48584 7.62647 3.48584C7.77747 3.48584 7.89947 3.60884 7.89947 3.75884ZM7.45447 3.75884C7.45447 3.85484 7.53147 3.93184 7.62647 3.93184C7.72347 3.93184 7.80047 3.85584 7.80047 3.75884C7.80047 3.66284 7.72147 3.58484 7.62647 3.58484C7.53147 3.58484 7.45447 3.66284 7.45447 3.75884Z" fill="black"/>
<path d="M8.12315 2.34474C8.12315 2.49574 8.00015 2.61874 7.85015 2.61874C7.69915 2.61874 7.57715 2.49574 7.57715 2.34574C7.57715 2.19474 7.70015 2.07374 7.85015 2.07374C8.00015 2.07274 8.12315 2.19374 8.12315 2.34474ZM7.67515 2.34474C7.67515 2.44074 7.75315 2.51874 7.84915 2.51874C7.94615 2.51874 8.02315 2.44174 8.02315 2.34474C8.02315 2.24974 7.94415 2.17174 7.84915 2.17174C7.75315 2.17174 7.67515 2.24974 7.67515 2.34474Z" fill="black"/>
<path d="M8.12315 4.93558C8.12315 5.08558 8.00015 5.20858 7.85015 5.20858C7.69915 5.20858 7.57715 5.08558 7.57715 4.93558C7.57715 4.78458 7.70015 4.66358 7.85015 4.66358C8.00015 4.66258 8.12315 4.78458 8.12315 4.93558ZM7.67515 4.93558C7.67515 5.03058 7.75315 5.10858 7.84915 5.10958C7.94415 5.10958 8.02315 5.03158 8.02315 4.93558C8.02315 4.83858 7.94615 4.76258 7.84915 4.76258C7.75315 4.76158 7.67515 4.83958 7.67515 4.93558Z" fill="black"/>
<path d="M9.01177 4.89798C9.01177 5.04898 8.88877 5.17098 8.73877 5.17098C8.58877 5.17098 8.46777 5.04798 8.46777 4.89798C8.46777 4.74698 8.58977 4.62598 8.73877 4.62598C8.88877 4.62598 9.01177 4.74798 9.01177 4.89798ZM8.56577 4.89798C8.56577 4.99398 8.64277 5.07198 8.73777 5.07198C8.83277 5.07198 8.91177 4.99398 8.91177 4.89798C8.91177 4.80098 8.83477 4.72498 8.73777 4.72498C8.64277 4.72498 8.56577 4.80298 8.56577 4.89798Z" fill="black"/>
<path d="M9.01177 8.98883C9.01177 9.13883 8.88877 9.26083 8.73877 9.26083C8.58877 9.26083 8.46777 9.13883 8.46777 8.98883C8.46777 8.83783 8.58977 8.71583 8.73877 8.71583C8.88877 8.71483 9.01177 8.83783 9.01177 8.98883ZM8.56577 8.98883C8.56577 9.08383 8.64277 9.16183 8.73777 9.16183C8.83277 9.16183 8.91177 9.08383 8.91177 8.98883C8.91177 8.89083 8.83477 8.81483 8.73777 8.81483C8.64277 8.81383 8.56577 8.89183 8.56577 8.98883Z" fill="black"/>
<path d="M7.89947 7.89361C7.89947 8.04361 7.77647 8.16661 7.62647 8.16661C7.47647 8.16661 7.35547 8.04361 7.35547 7.89361C7.35547 7.74261 7.47747 7.62061 7.62647 7.62061C7.77747 7.61961 7.89947 7.74261 7.89947 7.89361ZM7.45447 7.89361C7.45447 7.98961 7.53147 8.06761 7.62647 8.06761C7.72147 8.06661 7.80047 7.98961 7.80047 7.89361C7.80047 7.79661 7.72147 7.71961 7.62647 7.71961C7.53147 7.71861 7.45447 7.79661 7.45447 7.89361Z" fill="black"/>
<path d="M10.1251 7.89359C10.1251 8.04359 10.0021 8.16659 9.8521 8.16659C9.7011 8.16659 9.5791 8.04359 9.5791 7.89359C9.5791 7.74259 9.7021 7.62159 9.8521 7.62159C10.0021 7.62059 10.1251 7.74259 10.1251 7.89359ZM9.6771 7.89359C9.6771 7.98959 9.7551 8.06759 9.8511 8.06759C9.9461 8.06759 10.0251 7.98959 10.0251 7.89359C10.0251 7.79559 9.9481 7.72059 9.8511 7.72059C9.7551 7.71959 9.6771 7.79759 9.6771 7.89359Z" fill="black"/>
<path d="M9.90142 15.1456C9.90142 15.2966 9.77942 15.4186 9.63042 15.4186C9.48042 15.4186 9.35742 15.2966 9.35742 15.1456C9.35742 14.9956 9.48042 14.8726 9.63042 14.8726C9.77942 14.8716 9.90142 14.9946 9.90142 15.1456ZM9.45642 15.1456C9.45642 15.2426 9.53542 15.3196 9.63042 15.3196C9.72642 15.3196 9.80242 15.2426 9.80242 15.1456C9.80242 15.0496 9.72542 14.9716 9.63042 14.9716C9.53442 14.9716 9.45642 15.0496 9.45642 15.1456Z" fill="black"/>
<path d="M9.90142 7.15191C9.90142 7.30191 9.77842 7.42391 9.62842 7.42391C9.47942 7.42391 9.35742 7.30191 9.35742 7.15191C9.35742 7.00091 9.47942 6.87891 9.62842 6.87891C9.77842 6.87891 9.90142 7.00091 9.90142 7.15191ZM9.45642 7.15191C9.45642 7.24691 9.53342 7.32491 9.62842 7.32491C9.72642 7.32491 9.80242 7.24891 9.80242 7.15191C9.80242 7.05491 9.72342 6.97791 9.62842 6.97791C9.53242 6.97791 9.45642 7.05591 9.45642 7.15191Z" fill="black"/>
<path d="M10.7901 13.2217C10.7901 13.3717 10.6681 13.4947 10.5191 13.4947C10.3681 13.4947 10.2451 13.3717 10.2451 13.2217C10.2451 13.0717 10.3681 12.9487 10.5191 12.9487C10.6681 12.9477 10.7901 13.0707 10.7901 13.2217ZM10.3451 13.2217C10.3451 13.3187 10.4241 13.3957 10.5191 13.3957C10.6141 13.3957 10.6911 13.3187 10.6911 13.2217C10.6911 13.1247 10.6141 13.0477 10.5191 13.0477C10.4231 13.0477 10.3451 13.1247 10.3451 13.2217Z" fill="black"/>
<path d="M10.7901 14.6939C10.7901 14.8439 10.6681 14.9679 10.5191 14.9679C10.3681 14.9679 10.2451 14.8449 10.2451 14.6939C10.2451 14.5429 10.3681 14.4209 10.5191 14.4209C10.6681 14.4209 10.7901 14.5439 10.7901 14.6939ZM10.3451 14.6939C10.3451 14.7909 10.4241 14.8679 10.5191 14.8679C10.6141 14.8679 10.6911 14.7909 10.6911 14.6939C10.6911 14.5969 10.6141 14.5199 10.5191 14.5199C10.4231 14.5209 10.3451 14.5979 10.3451 14.6939Z" fill="black"/>
<path d="M9.01177 20.8477C9.01177 20.9977 8.88877 21.1207 8.73877 21.1207C8.58877 21.1207 8.46777 20.9977 8.46777 20.8477C8.46777 20.6977 8.58977 20.5737 8.73877 20.5737C8.88877 20.5737 9.01177 20.6967 9.01177 20.8477ZM8.56577 20.8477C8.56577 20.9447 8.64277 21.0217 8.73777 21.0217C8.83277 21.0217 8.91177 20.9447 8.91177 20.8477C8.91177 20.7507 8.83277 20.6737 8.73777 20.6737C8.64277 20.6737 8.56577 20.7507 8.56577 20.8477Z" fill="black"/>
<path d="M8.12315 13.4449C8.12315 13.5959 8.00015 13.7179 7.85015 13.7179C7.69915 13.7179 7.57715 13.5959 7.57715 13.4449C7.57715 13.2949 7.70015 13.1719 7.85015 13.1719C8.00015 13.1719 8.12315 13.2949 8.12315 13.4449ZM7.67515 13.4449C7.67515 13.5419 7.75315 13.6189 7.84915 13.6189C7.94415 13.6189 8.02315 13.5419 8.02315 13.4449C8.02315 13.3489 7.94415 13.2709 7.84915 13.2709C7.75315 13.2709 7.67515 13.3499 7.67515 13.4449Z" fill="black"/>
<path d="M9.90142 18.9986C9.90142 19.1496 9.77842 19.2716 9.62842 19.2716C9.47942 19.2716 9.35742 19.1496 9.35742 18.9986C9.35742 18.8486 9.47942 18.7266 9.62842 18.7266C9.77842 18.7266 9.90142 18.8486 9.90142 18.9986ZM9.45642 18.9986C9.45642 19.0956 9.53342 19.1736 9.62842 19.1736C9.72442 19.1736 9.80242 19.0956 9.80242 18.9986C9.80242 18.9026 9.72342 18.8246 9.62842 18.8246C9.53242 18.8246 9.45642 18.9026 9.45642 18.9986Z" fill="black"/>
<path d="M9.90142 22.4556C9.90142 22.6066 9.77842 22.7286 9.62842 22.7286C9.47942 22.7286 9.35742 22.6066 9.35742 22.4556C9.35742 22.3056 9.47942 22.1816 9.62842 22.1816C9.77842 22.1826 9.90142 22.3056 9.90142 22.4556ZM9.45642 22.4556C9.45642 22.5526 9.53342 22.6306 9.62842 22.6306C9.72442 22.6306 9.80242 22.5526 9.80242 22.4556C9.80242 22.3596 9.72342 22.2816 9.62842 22.2816C9.53242 22.2816 9.45642 22.3596 9.45642 22.4556Z" fill="black"/>
<path d="M12.5704 12.4996C12.5704 12.6506 12.4474 12.7726 12.2974 12.7726C12.1464 12.7726 12.0244 12.6496 12.0244 12.4996C12.0244 12.3496 12.1474 12.2266 12.2974 12.2266C12.4474 12.2266 12.5704 12.3486 12.5704 12.4996ZM12.1234 12.4996C12.1234 12.5956 12.2024 12.6736 12.2974 12.6736C12.3924 12.6736 12.4714 12.5956 12.4714 12.4996C12.4714 12.4036 12.3924 12.3256 12.2974 12.3256C12.2014 12.3256 12.1234 12.4036 12.1234 12.4996Z" fill="black"/>
<path d="M11.4581 15.9239C11.4581 16.0739 11.3351 16.1969 11.1851 16.1969C11.0351 16.1969 10.9111 16.0739 10.9111 15.9239C10.9111 15.7739 11.0341 15.6509 11.1851 15.6509C11.3361 15.6509 11.4581 15.7729 11.4581 15.9239ZM11.0101 15.9239C11.0101 16.0209 11.0891 16.0979 11.1841 16.0979C11.2791 16.0979 11.3581 16.0209 11.3581 15.9239C11.3581 15.8269 11.2791 15.7499 11.1841 15.7499C11.0891 15.7499 11.0101 15.8269 11.0101 15.9239Z" fill="black"/>
<path d="M12.5684 16.6959C12.5684 16.8459 12.4464 16.9689 12.2974 16.9689C12.1464 16.9689 12.0244 16.8459 12.0244 16.6959C12.0244 16.5449 12.1474 16.4229 12.2974 16.4229C12.4464 16.4229 12.5684 16.5449 12.5684 16.6959ZM12.1234 16.6959C12.1234 16.7919 12.2024 16.8699 12.2974 16.8699C12.3924 16.8699 12.4694 16.7919 12.4694 16.6959C12.4694 16.5989 12.3924 16.5219 12.2974 16.5219C12.2014 16.5219 12.1234 16.5999 12.1234 16.6959Z" fill="black"/>
<path d="M11.6788 20.1358C11.6788 20.2858 11.5568 20.4098 11.4068 20.4098C11.2558 20.4098 11.1338 20.2868 11.1338 20.1358C11.1338 19.9848 11.2558 19.8628 11.4068 19.8628C11.5578 19.8618 11.6788 19.9838 11.6788 20.1358ZM11.2328 20.1358C11.2328 20.2318 11.3118 20.3098 11.4068 20.3098C11.5018 20.3098 11.5788 20.2318 11.5788 20.1358C11.5788 20.0388 11.5018 19.9618 11.4068 19.9618C11.3128 19.9618 11.2328 20.0388 11.2328 20.1358Z" fill="black"/>
<path d="M12.5684 21.5518C12.5684 21.7018 12.4464 21.8248 12.2974 21.8248C12.1464 21.8248 12.0244 21.7018 12.0244 21.5518C12.0244 21.4018 12.1474 21.2778 12.2974 21.2778C12.4464 21.2778 12.5684 21.4008 12.5684 21.5518ZM12.1234 21.5518C12.1234 21.6488 12.2024 21.7258 12.2974 21.7258C12.3924 21.7258 12.4694 21.6488 12.4694 21.5518C12.4694 21.4548 12.3924 21.3778 12.2974 21.3778C12.2014 21.3778 12.1234 21.4548 12.1234 21.5518Z" fill="black"/>
<path d="M10.7901 24.7266C10.7901 24.8766 10.6681 24.9996 10.5191 24.9996C10.3681 24.9996 10.2451 24.8766 10.2451 24.7266C10.2451 24.5766 10.3681 24.4526 10.5191 24.4526C10.6681 24.4526 10.7901 24.5756 10.7901 24.7266ZM10.3451 24.7266C10.3451 24.8246 10.4221 24.9006 10.5191 24.9006C10.6141 24.9006 10.6911 24.8236 10.6911 24.7266C10.6911 24.6306 10.6141 24.5526 10.5191 24.5526C10.4231 24.5526 10.3451 24.6306 10.3451 24.7266Z" fill="black"/>
<path d="M13.4591 16.3697C13.4591 16.5207 13.3371 16.6437 13.1861 16.6437C13.0361 16.6437 12.9131 16.5217 12.9131 16.3697C12.9131 16.2197 13.0361 16.0967 13.1861 16.0967C13.3371 16.0967 13.4591 16.2197 13.4591 16.3697ZM13.0121 16.3697C13.0121 16.4667 13.0901 16.5437 13.1861 16.5437C13.2831 16.5437 13.3601 16.4667 13.3601 16.3697C13.3601 16.2737 13.2831 16.1957 13.1861 16.1957C13.0901 16.1957 13.0121 16.2737 13.0121 16.3697Z" fill="black"/>
<path d="M13.4591 23.7418C13.4591 23.8928 13.3371 24.0147 13.1861 24.0147C13.0361 24.0147 12.9131 23.8928 12.9131 23.7418C12.9131 23.5918 13.0361 23.4688 13.1861 23.4688C13.3371 23.4688 13.4591 23.5918 13.4591 23.7418ZM13.0121 23.7418C13.0121 23.8388 13.0901 23.9158 13.1861 23.9158C13.2831 23.9158 13.3601 23.8388 13.3601 23.7418C13.3601 23.6458 13.2831 23.5678 13.1861 23.5678C13.0901 23.5678 13.0121 23.6458 13.0121 23.7418Z" fill="black"/>
<path d="M12.5684 15.442C12.5684 15.592 12.4464 15.715 12.2974 15.715C12.1464 15.715 12.0244 15.592 12.0244 15.442C12.0244 15.292 12.1474 15.168 12.2974 15.168C12.4464 15.169 12.5684 15.292 12.5684 15.442ZM12.1234 15.442C12.1234 15.539 12.2024 15.616 12.2974 15.616C12.3924 15.616 12.4694 15.539 12.4694 15.442C12.4694 15.345 12.3924 15.268 12.2974 15.268C12.2014 15.269 12.1234 15.346 12.1234 15.442Z" fill="black"/>
<path d="M11.6788 12.4009C11.6788 12.5519 11.5568 12.6739 11.4068 12.6739C11.2558 12.6739 11.1338 12.5509 11.1338 12.4009C11.1338 12.2509 11.2558 12.1279 11.4068 12.1279C11.5578 12.1269 11.6788 12.2499 11.6788 12.4009ZM11.2328 12.4009C11.2328 12.4969 11.3118 12.5749 11.4068 12.5749C11.5018 12.5749 11.5788 12.4969 11.5788 12.4009C11.5788 12.3049 11.5018 12.2269 11.4068 12.2269C11.3128 12.2269 11.2328 12.3049 11.2328 12.4009Z" fill="black"/>
<path d="M11.6788 3.35503C11.6788 3.50503 11.5568 3.62703 11.4068 3.62703C11.2558 3.62703 11.1338 3.50503 11.1338 3.35503C11.1338 3.20403 11.2558 3.08203 11.4068 3.08203C11.5578 3.08203 11.6788 3.20403 11.6788 3.35503ZM11.2328 3.35503C11.2328 3.45203 11.3088 3.52803 11.4068 3.52803C11.5008 3.52803 11.5788 3.45003 11.5788 3.35503C11.5788 3.25803 11.5008 3.18103 11.4068 3.18103C11.3108 3.18103 11.2328 3.25803 11.2328 3.35503Z" fill="black"/>
<path d="M12.3461 0.0498047H12.2471V6.4618H12.3461V0.0498047Z" fill="black"/>
<path d="M11.4584 0.0498047H11.3584V3.1308H11.4584V0.0498047Z" fill="black"/>
<path d="M13.1858 8.7148V8.8138H11.3577V5.2438H10.4688V0.0498047H10.5677V5.1448H11.4578V8.7148H13.1858Z" fill="black"/>
<path d="M13.1861 10.9928V11.0918H12.3461V11.9888H11.3581V10.3708H10.4691V6.7288H9.57812V0.0498047H9.67712V6.6298H10.5681V10.2708H11.4581V11.8898H12.2471V10.9928H13.1861Z" fill="black"/>
<path d="M8.78859 0.0498047V3.8088H7.85059V3.7098H8.68959V0.0498047H8.78859Z" fill="black"/>
<path d="M8.78845 5.0918H8.68945V8.7648H8.78845V5.0918Z" fill="black"/>
<path d="M10.5681 11.217V12.998H10.4691V11.316H9.57812V7.354H9.67712V11.217H10.5681Z" fill="black"/>
<path d="M13.2352 14.2868V15.9738H11.4082V15.8738H13.1362V14.3858H12.2472V12.7178H12.3462V14.2868H13.2352Z" fill="black"/>
<path d="M12.3464 14.713V15.219H12.2474V14.813H11.3584V12.625H11.4584V14.713H12.3464Z" fill="black"/>
<path d="M10.5685 14.918V17.841H9.57845V16.711H8.78845V20.624H8.68945V16.611H9.67745V17.742H10.4695V14.918H10.5685Z" fill="black"/>
<path d="M10.5681 20.2726V21.2436H9.67912V22.2316H9.58012V21.1456H10.4691V20.3726H9.57812V19.2236H9.67712V20.2726H10.5681Z" fill="black"/>
<path d="M13.2351 16.6079V19.0489H12.3461V20.7979H13.2351V23.5189H13.1361V20.8969H12.2471V18.9499H13.1361V16.6079H13.2351Z" fill="black"/>
<path d="M12.3464 16.9199V18.4839H11.4584V19.9289H11.3584V18.3849H12.2474V16.9199H12.3464Z" fill="black"/>
<path d="M12.3457 21.7749V23.2569H11.3577V22.5409H10.5677V24.4439H10.4688V22.4409H11.4578V23.1579H12.2467V21.7749H12.3457Z" fill="black"/>
<path d="M7.8998 0.0498047H7.7998V2.1228H7.8998V0.0498047Z" fill="black"/>
<path d="M9.67913 13.0108V14.9178H9.58013V13.1098H8.68913V11.0558H7.80013V9.22981H6.91113V7.28381H7.80013V5.15381H7.89913V7.38281H7.01013V9.12981H7.89913V10.9568H8.78813V13.0108H9.67913Z" fill="black"/>
<path d="M13.1862 9.60303H11.4082V9.70203H13.1862V9.60303Z" fill="black"/>
<path d="M9.63059 7.84375H7.85059V7.94275H9.63059V7.84375Z" fill="black"/>
<path d="M8.78813 21.4018V24.9738H8.68913V21.5008H7.80013V18.7278H6.91113V15.8578H7.80013V13.6768H7.89913V15.9568H7.01013V18.6268H7.89913V21.4018H8.78813Z" fill="black"/>
<path d="M7.8998 16.5566H7.7998V17.9586H7.8998V16.5566Z" fill="black"/>
<path d="M6.3438 18.232C6.3438 18.382 6.2218 18.504 6.0728 18.504C5.9228 18.504 5.7998 18.382 5.7998 18.232C5.7998 18.081 5.9228 17.959 6.0728 17.959C6.2218 17.959 6.3438 18.081 6.3438 18.232ZM5.8978 18.232C5.8978 18.329 5.9748 18.405 6.0718 18.405C6.1678 18.405 6.2438 18.327 6.2438 18.232C6.2438 18.135 6.1668 18.057 6.0718 18.057C5.9768 18.058 5.8978 18.136 5.8978 18.232Z" fill="black"/>
<path d="M8.12212 18.232C8.12212 18.382 8.00012 18.504 7.85112 18.504C7.70012 18.504 7.57812 18.382 7.57812 18.232C7.57812 18.081 7.70112 17.959 7.85112 17.959C8.00012 17.959 8.12212 18.081 8.12212 18.232ZM7.67613 18.232C7.67613 18.329 7.75312 18.405 7.85012 18.405C7.94512 18.405 8.02213 18.327 8.02213 18.232C8.02213 18.135 7.94512 18.057 7.85012 18.057C7.75512 18.058 7.67613 18.136 7.67613 18.232Z" fill="black"/>
<path d="M8.12212 16.2862C8.12212 16.4362 8.00012 16.5572 7.85112 16.5572C7.70012 16.5572 7.57812 16.4362 7.57812 16.2862C7.57812 16.1352 7.70112 16.0132 7.85112 16.0132C8.00012 16.0132 8.12212 16.1352 8.12212 16.2862ZM7.67613 16.2862C7.67613 16.3832 7.75312 16.4592 7.85012 16.4592C7.94512 16.4592 8.02213 16.3812 8.02213 16.2862C8.02213 16.1892 7.94512 16.1112 7.85012 16.1112C7.75512 16.1112 7.67613 16.1902 7.67613 16.2862Z" fill="black"/>
<path d="M15.1006 8.66509C15.1006 8.81609 14.9806 8.93709 14.8296 8.93709C14.6786 8.93709 14.5566 8.81509 14.5566 8.66509C14.5566 8.51509 14.6786 8.39209 14.8296 8.39209C14.9796 8.39209 15.1006 8.51409 15.1006 8.66509ZM14.6546 8.66509C14.6546 8.76309 14.7326 8.83809 14.8296 8.83809C14.9256 8.83809 15.0016 8.76009 15.0016 8.66509C15.0016 8.56909 14.9256 8.49109 14.8296 8.49109C14.7346 8.49109 14.6546 8.56809 14.6546 8.66509Z" fill="black"/>
<path d="M15.1006 6.76909C15.1006 6.92009 14.9806 7.04109 14.8296 7.04109C14.6786 7.04109 14.5566 6.91909 14.5566 6.76909C14.5566 6.61809 14.6786 6.49609 14.8296 6.49609C14.9796 6.49609 15.1006 6.61809 15.1006 6.76909ZM14.6546 6.76909C14.6546 6.86609 14.7326 6.94209 14.8296 6.94209C14.9256 6.94209 15.0016 6.86409 15.0016 6.76909C15.0016 6.67309 14.9256 6.59509 14.8296 6.59509C14.7346 6.59509 14.6546 6.67309 14.6546 6.76909Z" fill="black"/>
<path d="M22.0919 6.76909C22.0919 6.92009 21.9709 7.04109 21.8209 7.04109C21.6699 7.04109 21.5469 6.91909 21.5469 6.76909C21.5469 6.61809 21.6699 6.49609 21.8209 6.49609C21.9709 6.49609 22.0919 6.61809 22.0919 6.76909ZM21.6459 6.76909C21.6459 6.86609 21.7229 6.94209 21.8209 6.94209C21.9169 6.94209 21.9919 6.86409 21.9919 6.76909C21.9919 6.67309 21.9169 6.59509 21.8209 6.59509C21.7259 6.59509 21.6459 6.67309 21.6459 6.76909Z" fill="black"/>
<path d="M22.0919 8.66411C22.0919 8.81511 21.9709 8.93611 21.8209 8.93611C21.6699 8.93611 21.5469 8.81411 21.5469 8.66411C21.5469 8.51411 21.6699 8.39111 21.8209 8.39111C21.9709 8.39111 22.0919 8.51311 22.0919 8.66411ZM21.6459 8.66411C21.6459 8.76211 21.7229 8.83711 21.8209 8.83711C21.9169 8.83711 21.9919 8.75911 21.9919 8.66411C21.9919 8.56811 21.9169 8.49011 21.8209 8.49011C21.7259 8.49011 21.6459 8.56711 21.6459 8.66411Z" fill="black"/>
<path d="M6.3438 16.2862C6.3438 16.4362 6.2218 16.5572 6.0728 16.5572C5.9228 16.5572 5.7998 16.4362 5.7998 16.2862C5.7998 16.1352 5.9228 16.0132 6.0728 16.0132C6.2218 16.0132 6.3438 16.1352 6.3438 16.2862ZM5.8978 16.2862C5.8978 16.3832 5.9748 16.4592 6.0718 16.4592C6.1678 16.4592 6.2438 16.3812 6.2438 16.2862C6.2438 16.1892 6.1668 16.1112 6.0718 16.1112C5.9768 16.1112 5.8978 16.1902 5.8978 16.2862Z" fill="black"/>
</svg>
