<svg width="185" height="199" viewBox="0 0 185 199" fill="none" xmlns="http://www.w3.org/2000/svg">
<g clip-path="url(#clip0_482_637)">
<mask id="mask0_482_637" style="mask-type:luminance" maskUnits="userSpaceOnUse" x="-53" y="-56" width="310" height="310">
<path d="M256.67 -55.4902H-52.3301V253.51H256.67V-55.4902Z" fill="white"/>
</mask>
<g mask="url(#mask0_482_637)">
<path d="M110.999 85.5103C94.866 76.177 78.736 66.8703 62.6094 57.5903C59.4194 55.7603 57.7694 56.7503 57.7694 60.4903C57.7694 78.3037 57.7694 96.1103 57.7694 113.91C57.6925 116.256 58.282 118.576 59.4695 120.601C60.6571 122.626 62.3942 124.272 64.4794 125.35C79.8127 134.197 95.146 143.047 110.479 151.9C113.813 153.82 115.479 152.847 115.479 148.98C115.479 139.754 115.479 130.52 115.479 121.28C115.479 112.04 115.479 102.81 115.479 93.5703C115.574 91.9403 115.203 90.3171 114.409 88.89C113.616 87.4629 112.433 86.2908 110.999 85.5103Z" fill="#99AEBB"/>
<path d="M184.33 60.8506C184.33 56.6806 182.69 55.7506 179.09 57.8506C163.323 66.9572 147.553 76.0472 131.78 85.1206C130.135 85.9367 128.766 87.2183 127.843 88.8059C126.92 90.3935 126.484 92.2173 126.59 94.0506C126.69 103.051 126.59 112.051 126.59 121.051C126.59 130.541 126.59 140.051 126.59 149.501C126.59 152.841 128.38 153.811 131.28 152.141C146.766 143.207 162.246 134.267 177.72 125.321C179.792 124.222 181.51 122.559 182.674 120.523C183.839 118.488 184.403 116.163 184.3 113.821C184.306 96.1472 184.316 78.4906 184.33 60.8506Z" fill="white"/>
<path d="M115.47 13.73C117.286 12.648 119.356 12.065 121.47 12.04C123.805 12.0683 126.087 12.7358 128.07 13.97C141.1 21.51 160.67 33.75 173.74 41.3C174.153 41.5407 174.622 41.6675 175.1 41.6675C175.578 41.6675 176.047 41.5407 176.46 41.3L176.57 41.24C181.57 38.37 181.57 33.66 176.57 30.78C162.72 22.78 142.34 10.09 128.49 2.07C126.369 0.74919 123.928 0.0333773 121.43 0C119.181 0.0304809 116.98 0.654902 115.05 1.81C100.14 10.43 41.3498 45.35 23.8698 55.51C21.1009 53.5539 17.7552 52.5843 14.3694 52.757C10.9836 52.9296 7.75387 54.2344 5.19825 56.462C2.64263 58.6896 0.909214 61.711 0.276022 65.0415C-0.357169 68.372 0.146557 71.8187 1.70641 74.8288C3.26627 77.8388 5.79185 80.2377 8.87809 81.6408C11.9643 83.0439 15.4324 83.3697 18.726 82.5662C22.0195 81.7626 24.9478 79.8762 27.0411 77.2095C29.1344 74.5427 30.2714 71.2502 30.2698 67.86C30.2664 66.6369 30.1187 65.4185 29.8298 64.23C44.1298 55.94 102.44 21.27 115.47 13.73ZM15.1298 75.13C13.6919 75.13 12.2863 74.7036 11.0908 73.9048C9.89524 73.1059 8.96343 71.9705 8.41318 70.6421C7.86293 69.3137 7.71896 67.8519 7.99948 66.4417C8.27999 65.0315 8.97239 63.7361 9.98911 62.7193C11.0058 61.7026 12.3012 61.0102 13.7115 60.7297C15.1217 60.4492 16.5835 60.5931 17.9119 61.1434C19.2403 61.6936 20.3757 62.6255 21.1746 63.821C21.9734 65.0165 22.3998 66.4221 22.3998 67.86C22.3998 69.7881 21.6338 71.6373 20.2705 73.0007C18.9071 74.364 17.0579 75.13 15.1298 75.13Z" fill="white"/>
<path d="M126.13 79.9002C142.09 70.6535 158.057 61.4202 174.03 52.2002C177.35 50.2802 177.32 48.3702 174.03 46.4502L128.27 19.9802C126.144 18.6544 123.695 17.9384 121.19 17.9102C118.938 17.9408 116.734 18.5651 114.8 19.7202C99.3802 28.6202 83.9802 37.5102 68.6002 46.3902C65.2902 48.3102 65.2602 50.3002 68.6002 52.2102C84.5602 61.4502 100.527 70.6802 116.5 79.9002C117.941 80.8123 119.61 81.2965 121.315 81.2965C123.02 81.2965 124.69 80.8123 126.13 79.9002Z" fill="#00C5FF"/>
<path d="M142.05 168.12C138.692 168.117 135.433 169.248 132.8 171.33C117.7 162.63 72.9395 136.97 59.0995 128.98C57.1778 127.988 55.5769 126.471 54.483 124.605C53.3891 122.739 52.8469 120.601 52.9195 118.44C52.9195 102.44 52.9195 86.4399 52.9195 70.4399C52.9192 70.1277 52.8369 69.821 52.6807 69.5507C52.5244 69.2804 52.2999 69.056 52.0295 68.8999L47.9495 66.5099C44.6695 64.6299 42.9495 65.6499 42.9495 69.5099C42.9495 87.8632 42.9495 106.197 42.9495 124.51C42.8688 126.926 43.4741 129.316 44.6952 131.402C45.9163 133.489 47.7034 135.187 49.8495 136.3C64.9795 145.03 109.6 170.63 127.26 180.79C127.147 181.538 127.09 182.293 127.09 183.05C127.09 186.007 127.966 188.897 129.609 191.356C131.252 193.814 133.587 195.73 136.318 196.862C139.05 197.993 142.056 198.289 144.956 197.713C147.856 197.136 150.52 195.712 152.611 193.621C154.702 191.53 156.125 188.866 156.702 185.966C157.279 183.066 156.983 180.061 155.852 177.329C154.72 174.597 152.804 172.262 150.345 170.619C147.887 168.977 144.996 168.1 142.04 168.1L142.05 168.12ZM142.05 190.24C140.631 190.24 139.245 189.819 138.066 189.032C136.887 188.244 135.968 187.124 135.425 185.814C134.883 184.504 134.741 183.062 135.017 181.671C135.294 180.28 135.977 179.003 136.98 178C137.982 176.997 139.26 176.314 140.651 176.038C142.042 175.761 143.483 175.903 144.793 176.446C146.104 176.988 147.223 177.907 148.011 179.086C148.799 180.266 149.22 181.652 149.22 183.07C149.22 184.971 148.464 186.795 147.119 188.14C145.775 189.484 143.951 190.24 142.05 190.24Z" fill="white"/>
</g>
</g>
<defs>
<clipPath id="clip0_482_637">
<rect width="184.34" height="198.02" fill="white"/>
</clipPath>
</defs>
</svg>
