<svg width="826" height="826" viewBox="0 0 826 826" fill="none" xmlns="http://www.w3.org/2000/svg">
<path d="M729.9 826H96.1C43 826 0 783 0 729.9V96.1C0 43 43 0 96.1 0H729.9C783 0 826 43 826 96.1V729.9C826 783 783 826 729.9 826Z" fill="#00C5FF"/>
<path d="M511.8 300.2C506 244 472.1 216.7 402.7 216.7C338.2 216.7 304.4 239.8 304.4 281.2C304.4 315.9 328.4 335.7 389.5 350.6C451.5 365.5 511.8 380.4 552.3 398.5C600.2 420 638.2 453.9 638.2 531.5C638.2 652.2 547.3 705.9 419.2 705.9C283.7 705.9 189.5 645.6 187 522.4H297.7C299.4 578.6 346.5 613.3 420 613.3C487.8 613.3 526.6 584.4 526.6 535.6C526.6 503.4 510.1 481.1 441.5 466.2C373.7 451.3 329.9 441.4 291.1 424.1C232.4 397.7 199.4 358 199.4 288.6C199.4 190.3 266.3 120 400.2 120C539 120 616.7 195.2 620.8 300.2H511.8Z" fill="black" fill-opacity="0.9"/>
</svg>
