<?xml version="1.0" encoding="UTF-8"?>
<svg version="1.1" xmlns="http://www.w3.org/2000/svg" width="1786" height="1786">
<path d="M0 0 C3.90487698 0.01139338 7.80948105 0.00459319 11.71434879 -0.0068779 C39.64133871 -0.0763254 67.4608343 1.11740964 95.24902344 4.01074219 C96.06171692 4.09410828 96.8744104 4.17747437 97.71173096 4.2633667 C182.02689324 12.98951374 265.01664268 33.60884202 455.98583984 121.65380859 C458.41127043 123.09696391 460.8478814 124.5175184 463.29199219 125.92871094 C474.52312498 132.46690862 485.40882122 139.54209776 496.28363037 146.65170288 C498.05103655 147.80695178 499.8197953 148.96013405 501.58990479 150.11123657 C504.09059915 151.73960729 506.58475953 153.37750809 509.07714844 155.01855469 C509.84487579 155.51700394 510.61260315 156.01545319 511.40359497 156.52900696 C513.20056672 157.72032806 514.94953659 158.98354598 516.68652344 160.26074219 C516.68652344 160.92074219 516.68652344 161.58074219 516.68652344 162.26074219 C515.62256348 162.58647217 514.55860352 162.91220215 513.46240234 163.24780273 C424.19853338 190.66648234 339.61372072 231.95176199 261.32958984 297.85595703 C259.66781906 299.27673401 257.99668366 300.68576972 256.32324219 302.09277344 C242.81051929 313.49238771 230.13908488 325.72154376 217.62402344 338.19824219 C217.13088654 338.68870026 216.63774963 339.17915833 216.12966919 339.68447876 C210.96918854 344.82363734 205.90553717 350.00488001 201.16430664 355.5378418 C199.10579403 357.93779611 196.95685966 360.25093379 194.81152344 362.57324219 C190.7725019 367.0070553 186.91145466 371.54128803 183.14746094 376.20996094 C181.35372108 378.43362892 179.5477996 380.64272697 177.72558594 382.84277344 C169.3141035 393.03196696 161.39451543 403.53104769 153.68652344 414.26074219 C153.09693848 415.08123047 152.50735352 415.90171875 151.89990234 416.74707031 C143.38332404 428.64841273 135.33963145 440.7874446 127.68652344 453.26074219 C127.29158691 453.90285645 126.89665039 454.5449707 126.48974609 455.20654297 C123.83987632 459.5296523 121.25159542 463.8868848 118.68652344 468.26074219 C118.25436523 468.99357422 117.82220703 469.72640625 117.37695312 470.48144531 C75.76707808 541.26808263 47.2288411 619.66133088 22.68652344 791.26074219 C22.64415558 791.95307953 22.60178772 792.64541687 22.55813599 793.35873413 C21.59170949 809.50983283 21.48558316 825.64686919 21.49902344 841.82324219 C21.49929031 842.49349678 21.49955719 843.16375137 21.49983215 843.85431671 C21.51073178 865.71075165 21.82409629 887.47443105 23.68652344 909.26074219 C23.7496875 910.01329285 23.81285156 910.76584351 23.87792969 911.54119873 C31.63955166 1003.32285412 55.15875206 1091.95262556 174.68652344 1297.26074219 C175.3684375 1298.10507813 176.05035156 1298.94941406 176.75292969 1299.81933594 C186.13122215 1311.37862665 195.8337589 1322.61304591 206.01464844 1333.47119141 C207.83076763 1335.41513908 209.63369199 1337.37087478 211.43652344 1339.32714844 C219.88761281 1348.45511761 228.63319264 1357.13354615 237.80664062 1365.53369141 C239.61321326 1367.19339204 241.40598921 1368.86659724 243.19433594 1370.54589844 C248.9296459 1375.91882853 254.75988883 1381.07402308 260.89355469 1385.99511719 C263.38927173 1388.01961493 265.83358106 1390.09340472 268.26733398 1392.19165039 C276.11989566 1398.94406591 284.33460192 1405.14249632 292.68652344 1411.26074219 C293.40501465 1411.78958008 294.12350586 1412.31841797 294.86376953 1412.86328125 C319.09000414 1430.67023292 344.41431785 1446.647396 370.68652344 1461.26074219 C371.66685547 1461.80843262 372.6471875 1462.35612305 373.65722656 1462.92041016 C399.48724626 1477.29092111 426.11926211 1489.60140114 453.68652344 1500.26074219 C454.86118164 1500.71545898 456.03583984 1501.17017578 457.24609375 1501.63867188 C509.12858209 1521.55274006 562.907381 1533.53725858 617.68652344 1542.26074219 C613.73370647 1547.05643266 609.58059094 1551.43961222 604.99902344 1555.63574219 C604.38961914 1556.1980957 603.78021484 1556.76044922 603.15234375 1557.33984375 C598.65578221 1561.45561963 594.01198884 1565.34916144 589.25292969 1569.15917969 C586.71092981 1571.24075646 584.29123009 1573.41112599 581.87402344 1575.63574219 C577.50030322 1579.61686074 572.94323566 1583.27740539 568.2722168 1586.89746094 C564.43534373 1589.87389459 560.66040455 1592.91201975 556.91601562 1596.00390625 C548.50741259 1602.93571467 539.80459928 1609.35598067 530.92041016 1615.66210938 C528.78711274 1617.18875762 526.67337654 1618.73839996 524.56542969 1620.29980469 C458.82854255 1668.8434909 384.08803727 1707.16539702 290.68652344 1740.26074219 C290.03250549 1740.48483765 289.37848755 1740.70893311 288.70465088 1740.93981934 C222.17599395 1763.65671043 152.65154085 1777.38604989 82.68652344 1783.51074219 C81.73755188 1783.59400757 80.78858032 1783.67727295 79.81085205 1783.76306152 C55.30644225 1785.88377385 30.89652708 1786.5020691 6.31152344 1786.51074219 C5.54423164 1786.51133133 4.77693985 1786.51192047 3.98639679 1786.51252747 C-23.20788591 1786.5272146 -50.2180598 1785.74580903 -77.31347656 1783.26074219 C-78.11652222 1783.18813171 -78.91956787 1783.11552124 -79.74694824 1783.04071045 C-146.27728664 1776.97287987 -211.83573287 1762.97416929 -275.31347656 1742.26074219 C-275.98062683 1742.04373657 -276.6477771 1741.82673096 -277.33514404 1741.60314941 C-341.02146621 1720.84763464 -402.10846988 1692.01033498 -459.31347656 1657.26074219 C-460.23918457 1656.70322266 -461.16489258 1656.14570312 -462.11865234 1655.57128906 C-481.13797454 1644.11025874 -499.57523412 1631.6634282 -517.51269531 1618.57421875 C-518.83108614 1617.61259421 -520.15171811 1616.65404023 -521.47363281 1615.69726562 C-532.12586984 1607.98373005 -542.49474234 1600.01864938 -552.6328125 1591.64160156 C-554.90036366 1589.77854674 -557.19929004 1587.95636883 -559.50097656 1586.13574219 C-565.5493547 1581.30915663 -571.4288332 1576.28417791 -577.31347656 1571.26074219 C-577.90773438 1570.75430176 -578.50199219 1570.24786133 -579.11425781 1569.72607422 C-586.24751198 1563.64486048 -593.34378796 1557.52977426 -600.31347656 1551.26074219 C-597.52974046 1548.47700609 -595.62529864 1548.86459904 -591.71972656 1548.62011719 C-590.30407278 1548.52213316 -588.88846619 1548.42346568 -587.47290039 1548.32421875 C-586.33807724 1548.24886902 -586.33807724 1548.24886902 -585.18032837 1548.17199707 C-552.18465112 1545.92398389 -519.47395704 1540.95842414 -487.31347656 1533.26074219 C-485.45287598 1532.81674072 -485.45287598 1532.81674072 -483.5546875 1532.36376953 C-409.15057367 1514.2757718 -338.3212704 1478.97171261 -281.55566406 1427.28417969 C-279.60887164 1425.52731823 -277.62811774 1423.82853966 -275.62597656 1422.13574219 C-271.49757284 1418.53813323 -267.62921901 1414.68585229 -263.75097656 1410.82324219 C-263.12553955 1410.20239746 -262.50010254 1409.58155273 -261.85571289 1408.94189453 C-257.47376528 1404.54555724 -253.34116904 1399.98264606 -249.31347656 1395.26074219 C-248.76844482 1394.62241455 -248.22341309 1393.98408691 -247.66186523 1393.32641602 C-195.18306724 1331.37999531 -163.19444549 1255.00813762 -155.31347656 1174.26074219 C-155.17208252 1172.9265625 -155.17208252 1172.9265625 -155.02783203 1171.56542969 C-153.94512523 1159.91325777 -154.06961158 1148.20273118 -154.06347656 1136.51074219 C-154.06280182 1135.35557098 -154.06212708 1134.20039978 -154.06143188 1133.01022339 C-154.14375799 1044.03725178 -180.20759973 965.0671764 -240.31347656 899.26074219 C-241.61478516 897.8028125 -241.61478516 897.8028125 -242.94238281 896.31542969 C-254.39134846 883.57671921 -266.87919907 871.88185901 -280.31347656 861.26074219 C-281.82554687 859.98650391 -281.82554687 859.98650391 -283.36816406 858.68652344 C-337.05702317 813.7369827 -406.02863864 789.07148951 -471.31347656 766.26074219 C-472.18619202 765.95565735 -473.05890747 765.65057251 -473.95806885 765.33624268 C-508.70338261 753.20816878 -543.71191532 741.997397 -578.97363281 731.46777344 C-602.5047054 724.4382167 -625.95778499 717.22569287 -649.29788589 709.58694077 C-651.20231196 708.96415646 -653.10741883 708.3434552 -655.01254272 707.72280884 C-679.18976028 699.83360423 -703.20929948 691.3999423 -726.75097656 681.76074219 C-727.40228546 681.49482269 -728.05359436 681.2289032 -728.72463989 680.95492554 C-765.37750716 665.95488118 -797.57330765 646.62824632 -826.31347656 619.26074219 C-827.07402344 618.54144531 -827.83457031 617.82214844 -828.61816406 617.08105469 C-830.57189915 615.18630028 -832.44983304 613.24369181 -834.31347656 611.26074219 C-834.94898438 610.63941406 -835.58449219 610.01808594 -836.23925781 609.37792969 C-838.07258341 607.36980808 -839.22616915 605.75254434 -840.31347656 603.26074219 C-839.45013739 593.60429353 -834.10852002 583.32970253 -830.62597656 574.32324219 C-830.1361882 573.05193451 -830.1361882 573.05193451 -829.63650513 571.75494385 C-812.45129831 527.27637896 -791.81375729 483.61534224 -767.35595703 442.68139648 C-765.78437278 440.04937796 -764.2226098 437.4123052 -762.66552734 434.77172852 C-756.07468336 423.63799258 -749.17356602 412.76254611 -741.95898438 402.02319336 C-740.30875482 399.56621212 -738.66606458 397.10432119 -737.02441406 394.64160156 C-734.3435992 390.62511798 -731.63172793 386.63064529 -728.91308594 382.63970947 C-727.28175994 380.21357267 -725.69451375 377.76231168 -724.11035156 375.30517578 C-723.07458164 373.74173122 -722.03815028 372.17872459 -721.00097656 370.61621094 C-720.54585693 369.88823807 -720.0907373 369.1602652 -719.62182617 368.41023254 C-717.12442885 364.71311888 -716.05597091 363.44959115 -711.59008789 362.3137207 C-710.16539016 362.26171792 -708.739048 362.24611381 -707.31347656 362.26074219 C-706.54393646 362.23392868 -705.77439636 362.20711517 -704.98153687 362.17948914 C-702.38670284 362.09530811 -699.79633577 362.07028199 -697.20019531 362.05761719 C-696.24103714 362.05060287 -695.28187897 362.04358856 -694.2936554 362.03636169 C-691.19604794 362.01887786 -688.09863163 362.0125048 -685.00097656 362.01074219 C-683.94402588 362.01006744 -682.8870752 362.0093927 -681.7980957 362.00869751 C-657.35874062 362.0335041 -634.05255131 364.18805664 -610.31347656 370.26074219 C-609.04479736 370.58316895 -609.04479736 370.58316895 -607.75048828 370.91210938 C-574.38624285 379.61922082 -544.97237185 396.56975965 -520.67675781 420.90136719 C-519.30627313 422.2695866 -517.920411 423.62337687 -516.49707031 424.93652344 C-488.66514804 451.02505908 -476.39631067 489.26673286 -473.31347656 526.26074219 C-372.99347656 526.26074219 -272.67347656 526.26074219 -169.31347656 526.26074219 C-179.11596169 442.93961863 -200.42646414 361.44559388 -256.31347656 296.26074219 C-257.126875 295.27589844 -257.94027344 294.29105469 -258.77832031 293.27636719 C-273.92038947 274.97310859 -290.60962201 257.93909523 -309.31347656 243.26074219 C-310.55621706 242.25361167 -311.79835835 241.24574151 -313.04003906 240.23730469 C-365.08780673 198.39965975 -427.66850856 169.333864 -492.31347656 153.26074219 C-492.31347656 152.27074219 -492.31347656 151.28074219 -492.31347656 150.26074219 C-490.59887695 148.78125 -490.59887695 148.78125 -488.16113281 147.21386719 C-487.25250488 146.62404053 -486.34387695 146.03421387 -485.40771484 145.42651367 C-484.40724121 144.79430908 -483.40676758 144.16210449 -482.37597656 143.51074219 C-481.3419873 142.84824463 -480.30799805 142.18574707 -479.24267578 141.50317383 C-399.72066332 90.86726022 -313.21087959 52.02573977 -213.31347656 26.26074219 C-212.04922852 25.94057129 -210.78498047 25.62040039 -209.48242188 25.29052734 C-168.98591801 15.15289894 -127.75643801 8.34239868 -86.25097656 4.07324219 C-85.1210025 3.95474915 -85.1210025 3.95474915 -83.96820068 3.8338623 C-56.02773152 0.94196283 -28.07355181 -0.08245832 0 0 Z " fill="#0B1A79" transform="translate(888.3134765625,-0.2607421875)"/>
<path d="M0 0 C39.38954952 -4.16012547 39.38954952 -4.16012547 49.03662109 3.34277344 C56.13028065 10.16758996 60.13119054 19.38456147 63.98730469 28.28320312 C66.65663376 34.35246893 70.23390414 39.79894155 73.81494141 45.35897827 C121.24076039 119.9478927 154.96890481 204.71549647 199.15771484 419.14013672 C199.23661957 419.86490204 199.31552429 420.58966736 199.39682007 421.33639526 C202.39408068 449.19634758 203.31606963 477.17200944 203.23095703 505.17456055 C203.21955335 508.95050384 203.2263747 512.72616522 203.23783398 516.50209904 C203.3091867 544.27849579 202.05369665 571.94254087 199.15771484 599.57763672 C199.07373444 600.39601013 198.98975403 601.21438354 198.90322876 602.05755615 C190.64402772 682.15795328 171.69806635 760.90048205 118.40771484 891.07763672 C118.11171387 891.71547089 117.81571289 892.35330505 117.51074219 893.01046753 C116.15064683 895.93392095 114.77243749 898.84544138 113.35668945 901.74243164 C111.98065177 904.51050011 111.98065177 904.51050011 111.10131836 906.95385742 C110.31396484 908.84326172 110.31396484 908.84326172 107.97021484 911.64013672 C104.06370997 913.04968397 100.14629623 913.4986166 96.03271484 913.95263672 C94.8691748 914.10450439 93.70563477 914.25637207 92.50683594 914.4128418 C88.99784371 914.85872126 85.48652241 915.25668669 81.97021484 915.64013672 C80.99584473 915.75196289 80.02147461 915.86378906 79.01757812 915.97900391 C73.01006811 916.6599911 66.99999123 917.20045304 60.97021484 917.64013672 C59.80208252 917.72690674 59.80208252 917.72690674 58.61035156 917.81542969 C-43.86220908 925.04752454 -148.59751819 898.90784358 -238.02978516 827.64013672 C-239.01720703 826.83962891 -240.00462891 826.03912109 -241.02197266 825.21435547 C-249.05596061 818.61013461 -256.47643015 811.4078153 -263.84228516 804.07763672 C-264.33015503 803.59494324 -264.8180249 803.11224976 -265.32067871 802.6149292 C-272.02238197 795.9693508 -278.13655119 789.01169359 -284.02978516 781.64013672 C-284.96479761 780.53850621 -285.90614938 779.44217387 -286.85791016 778.35498047 C-346.1741851 710.33260711 -376.54020713 618.14363176 -386.02978516 529.64013672 C-386.10390625 528.97413452 -386.17802734 528.30813232 -386.25439453 527.62194824 C-391.35954681 481.66739643 -391.34920793 433.57361453 -386.02978516 387.64013672 C-385.9326825 386.80105774 -385.83557983 385.96197876 -385.73553467 385.09747314 C-376.10917251 303.25144296 -350.13450916 223.00982904 -300.02978516 156.64013672 C-299.58151367 156.04023926 -299.13324219 155.4403418 -298.67138672 154.82226562 C-282.22228907 132.82580008 -263.35618958 110.63040132 -241.64306641 93.69482422 C-239.19909239 91.77325421 -236.85232769 89.76585547 -234.51049805 87.72192383 C-226.45588825 80.72787235 -217.86017306 74.61176595 -209.02978516 68.64013672 C-208.34400391 68.17607422 -207.65822266 67.71201172 -206.95166016 67.23388672 C-155.84174788 32.90051053 -97.91652936 12.0671402 -37.02978516 3.64013672 C-35.42659424 3.41366455 -35.42659424 3.41366455 -33.79101562 3.18261719 C-26.9602096 2.26211171 -20.13639685 1.59401795 -13.25921631 1.15682983 C-8.82529182 0.86899934 -4.41752395 0.48057797 0 0 Z " fill="#0B1A79" transform="translate(1583.02978515625,383.35986328125)"/>
<path d="M0 0 C7.71842188 2.17821159 15.18271223 4.86989846 22.6875 7.6875 C43.95993338 15.5945163 65.48021396 22.79998735 87 30 C87.84856567 30.28399658 88.69713135 30.56799316 89.57141113 30.8605957 C118.41194176 40.49858243 147.53965512 49.11635048 176.75990295 57.52310181 C227.47554755 72.11576751 278.44605043 87.13091188 327 108 C327.80630859 108.34450195 328.61261719 108.68900391 329.44335938 109.04394531 C353.71292429 119.54090437 376.30849226 134.39827789 396 152 C396.55171875 152.49000488 397.1034375 152.98000977 397.671875 153.48486328 C426.21442713 178.94239759 444.34146765 210.4514535 448 249 C448.14605612 251.79742506 448.18617646 254.58970858 448.203125 257.390625 C448.21013931 258.16897705 448.21715363 258.9473291 448.22438049 259.74926758 C448.24179906 262.24957115 448.24823328 264.74963797 448.25 267.25 C448.25067474 268.10348022 448.25134949 268.95696045 448.25204468 269.83630371 C448.23618549 282.44599001 447.88005415 294.66905949 445 307 C444.83371094 307.74475586 444.66742188 308.48951172 444.49609375 309.25683594 C438.12758436 337.00702592 423.46960382 360.53495779 404 381 C403.37996094 381.68449219 402.75992187 382.36898438 402.12109375 383.07421875 C390.86681254 395.08382085 376.43811809 404.30797393 362 412 C361.33597168 412.35400879 360.67194336 412.70801758 359.98779297 413.07275391 C340.93237283 423.02791456 320.03527875 428.95490752 299 433 C298.21866699 433.15307617 297.43733398 433.30615234 296.63232422 433.46386719 C285.19227832 435.63248079 273.66813692 436.47923083 262.0625 437.1875 C261.36216644 437.23047211 260.66183289 437.27344421 259.9402771 437.31771851 C202.4145031 440.75847934 140.37703635 431.61416311 94.96484375 393.44921875 C93.3833283 392.02991002 91.81563551 390.59474741 90.2734375 389.1328125 C88.19995074 387.07290292 88.19995074 387.07290292 86.42114258 385.9387207 C79.59603584 381.05251074 77.08102083 373.40793964 73.9375 365.9375 C73.28589085 364.42223366 72.63378078 362.90718264 71.98120117 361.39233398 C64.75336735 344.48058702 58.2507271 327.29304018 52 310 C51.73680969 309.27466064 51.47361938 308.54932129 51.20245361 307.80200195 C24.06882537 232.93050958 7.99391021 154.34715759 1 63 C0.95696747 62.30596069 0.91393494 61.61192139 0.86959839 60.89685059 C0.04527358 47.33872001 -0.12373477 33.83025432 -0.0625 20.25 C-0.05746519 18.26953241 -0.05290585 16.28906355 -0.04882812 14.30859375 C-0.03800187 9.53903015 -0.02085146 4.76952987 0 0 Z " fill="#0B1A79" transform="translate(0,886)"/>
</svg>
