<svg width="1080" height="1080" viewBox="0 0 1080 1080" fill="none" xmlns="http://www.w3.org/2000/svg">
<path d="M856.9 953H223.1C170 953 127 910 127 856.9V223.1C127 170 170 127 223.1 127H856.9C910 127 953 170 953 223.1V856.9C953 910 910 953 856.9 953Z" fill="#28ED70"/>
<path d="M639.2 427.2C633.4 371 599.5 343.7 530.1 343.7C465.6 343.7 431.8 366.8 431.8 408.2C431.8 442.9 455.8 462.7 516.9 477.6C578.9 492.5 639.2 507.4 679.7 525.5C727.6 547 765.6 580.9 765.6 658.5C765.6 779.2 674.7 832.9 546.6 832.9C411.1 832.9 316.9 772.6 314.4 649.4H425.1C426.8 705.6 473.9 740.3 547.4 740.3C615.2 740.3 654 711.4 654 662.6C654 630.4 637.5 608.1 568.9 593.2C501.1 578.3 457.3 568.4 418.5 551.1C359.8 524.7 326.8 485 326.8 415.6C326.8 317.3 393.7 247 527.6 247C666.4 247 744.1 322.2 748.2 427.2H639.2Z" fill="black" fill-opacity="0.8"/>
</svg>
