<svg xmlns="http://www.w3.org/2000/svg" xmlns:xlink="http://www.w3.org/1999/xlink" viewBox="0 0 184.34 198.02"><defs><style>.cls-1{fill:none;}.cls-2{clip-path:url(#clip-path);}.cls-3{fill:#99aebb;}.cls-4{fill:#364954;}.cls-5{fill:#00c5ff;}</style><clipPath id="clip-path" transform="translate(-52.33 -55.49)"><rect class="cls-1" width="309" height="309"/></clipPath></defs><g id="Layer_2" data-name="Layer 2"><g id="Layer_1-2" data-name="Layer 1"><g class="cls-2"><path class="cls-3" d="M163.33,141q-24.2-14-48.39-27.92c-3.19-1.83-4.84-.84-4.84,2.9q0,26.72,0,53.42a12.42,12.42,0,0,0,6.71,11.44q23,13.27,46,26.55,5,2.88,5-2.92,0-13.84,0-27.7h0c0-9.24,0-18.47,0-27.71A8.61,8.61,0,0,0,163.33,141Z" transform="translate(-52.33 -55.49)"/><path class="cls-4" d="M236.66,116.34c0-4.17-1.64-5.1-5.24-3Q207.77,127,184.11,140.61a9.37,9.37,0,0,0-5.19,8.93c.1,9,0,18,0,27,0,9.49,0,19,0,28.45,0,3.34,1.79,4.31,4.69,2.64q23.23-13.4,46.44-26.82a12.4,12.4,0,0,0,6.58-11.5Q236.64,142.8,236.66,116.34Z" transform="translate(-52.33 -55.49)"/><path class="cls-4" d="M167.8,69.22a12,12,0,0,1,6-1.69,12.78,12.78,0,0,1,6.6,1.93C193.43,77,213,89.24,226.07,96.79a2.7,2.7,0,0,0,2.72,0l.11-.06c5-2.87,5-7.58,0-10.46-13.85-8-34.23-20.69-48.08-28.71a13.7,13.7,0,0,0-7.06-2.07,12.76,12.76,0,0,0-6.38,1.81c-14.91,8.62-73.7,43.54-91.18,53.7a15.13,15.13,0,1,0,6.4,12.35,15.55,15.55,0,0,0-.44-3.63C96.46,111.43,154.77,76.76,167.8,69.22ZM67.46,130.62a7.27,7.27,0,1,1,7.27-7.27A7.27,7.27,0,0,1,67.46,130.62Z" transform="translate(-52.33 -55.49)"/><path class="cls-5" d="M178.46,135.39q23.94-13.87,47.9-27.7c3.32-1.92,3.29-3.83,0-5.75L180.6,75.47a13.67,13.67,0,0,0-7.08-2.07,12.8,12.8,0,0,0-6.39,1.81Q144,88.56,120.93,101.88c-3.31,1.92-3.34,3.91,0,5.82q23.94,13.86,47.9,27.69A9,9,0,0,0,178.46,135.39Z" transform="translate(-52.33 -55.49)"/><path class="cls-4" d="M194.38,223.61a14.89,14.89,0,0,0-9.25,3.21c-15.1-8.7-59.86-34.36-73.7-42.35a11.43,11.43,0,0,1-6.18-10.54q0-24,0-48a1.78,1.78,0,0,0-.89-1.54L100.28,122c-3.28-1.88-5-.86-5,3q0,27.53,0,55a12.8,12.8,0,0,0,6.9,11.79c15.13,8.73,59.75,34.33,77.41,44.49a15.32,15.32,0,0,0-.17,2.26,14.95,14.95,0,1,0,14.95-14.95Zm0,22.12a7.17,7.17,0,1,1,7.17-7.17A7.17,7.17,0,0,1,194.38,245.73Z" transform="translate(-52.33 -55.49)"/></g></g></g></svg>