<svg xmlns="http://www.w3.org/2000/svg" xmlns:xlink="http://www.w3.org/1999/xlink" viewBox="0 0 678.42 177.92"><defs><style>.cls-1{fill:none;}.cls-2{clip-path:url(#clip-path);}.cls-3{fill:#fff;}.cls-4{fill:#28ed70;}</style><clipPath id="clip-path" transform="translate(-91.79 -47.54)"><rect class="cls-1" width="862" height="273"/></clipPath></defs><g id="Layer_2" data-name="Layer 2"><g id="Layer_1-2" data-name="Layer 1"><g class="cls-2"><path class="cls-3" d="M190.41,102.25c-1.75-17.07-12-25.35-33.12-25.35-19.58,0-29.86,7-29.86,19.57,0,10.54,7.27,16.57,25.84,21.08,18.82,4.52,37.14,9,49.44,14.56,14.55,6.52,26.1,16.81,26.1,40.4,0,36.64-27.61,53-66.5,53-41.16,0-69.77-18.32-70.52-55.71h33.63c.5,17.06,14.8,27.6,37.14,27.6,20.58,0,32.37-8.78,32.37-23.58,0-9.79-5-16.57-25.85-21.08-20.57-4.52-33.87-7.53-45.67-12.8-17.82-8-27.85-20.08-27.85-41.16,0-29.86,20.32-51.19,61-51.19,42.15,0,65.74,22.84,67,54.71Z" transform="translate(-91.79 -47.54)"/><path class="cls-3" d="M349.26,175C345.75,203.63,322.41,223,292.55,223c-33.63,0-56.71-22.33-56.71-66.5S258.92,93,293.55,93c32.12,0,54,18.32,56,47.43H316.64c-1.76-12.8-11-20.33-23.34-20.33-13.8,0-25.09,8.79-25.09,35.64s11.29,39.9,24.09,39.9,22.83-7.28,24.09-20.58Z" transform="translate(-91.79 -47.54)"/><path class="cls-3" d="M356,158c0-39.15,24.34-65,63.49-65,38.64,0,62.74,25.6,62.74,65,0,39.14-24.35,65-62.74,65C379.63,223,356,196.35,356,158Zm93.35,0c0-25.1-10-37.4-29.86-37.4s-29.86,12.3-29.86,37.4,10,37.64,29.86,37.64S449.39,183.05,449.39,158Z" transform="translate(-91.79 -47.54)"/><path class="cls-3" d="M573.11,219.69V144.91c0-19.08-5.52-24.35-21.08-24.35-17.07,0-25.35,9.54-25.35,28.36v70.77H494.06V96.22h31.12v18.07c7.53-13.8,20.07-21.33,39.9-21.33,23.59,0,40.9,14.3,40.9,41.16v85.57Z" transform="translate(-91.79 -47.54)"/><path class="cls-3" d="M694.57,133.61c-1.76-12-8.28-16.31-23.09-16.31-12.3,0-19.32,3-19.32,10.29s6.77,10.29,20.07,14c14.06,4,27.36,6.78,36.89,10.54,13,5.27,20.33,13.81,20.33,29.87,0,25.59-18.82,40.9-54,40.9-37.9,0-59-17.82-59.48-42.91h33.63c0,11.54,9.78,18.32,25.59,18.32,11.55,0,21.84-3.52,21.84-12.8,0-8.78-9.29-11.54-19.83-14.05-20.83-5-32.37-8.54-41.15-14.06-11.55-7.27-15.56-16.81-15.56-27.85,0-20.83,14.3-36.64,51.94-36.64,35.64,0,51.7,14.05,53.46,40.65Z" transform="translate(-91.79 -47.54)"/><circle class="cls-4" cx="662.92" cy="152.42" r="15.5"/></g></g></g></svg>