<svg width="679" height="178" viewBox="0 0 679 178" fill="none" xmlns="http://www.w3.org/2000/svg">
<g clip-path="url(#clip0_390_13825)">
<mask id="mask0_390_13825" style="mask-type:luminance" maskUnits="userSpaceOnUse" x="-92" y="-48" width="863" height="274">
<path d="M770.211 -47.5391H-91.7891V225.461H770.211V-47.5391Z" fill="white"/>
</mask>
<g mask="url(#mask0_390_13825)">
<path d="M98.62 54.7108C96.87 37.6408 86.62 29.3608 65.5 29.3608C45.92 29.3608 35.64 36.3608 35.64 48.9308C35.64 59.4708 42.91 65.5008 61.48 70.0108C80.3 74.5308 98.62 79.0108 110.92 84.5708C125.47 91.0908 137.02 101.381 137.02 124.971C137.02 161.611 109.41 177.971 70.52 177.971C29.36 177.971 0.75 159.651 0 122.261H33.63C34.13 139.321 48.43 149.861 70.77 149.861C91.35 149.861 103.14 141.081 103.14 126.281C103.14 116.491 98.14 109.711 77.29 105.201C56.72 100.681 43.42 97.6708 31.62 92.4008C13.8 84.4008 3.77 72.3208 3.77 51.2408C3.77 21.3808 24.09 0.0507812 64.77 0.0507812C106.92 0.0507812 130.51 22.8908 131.77 54.7608L98.62 54.7108Z" fill="black"/>
<path d="M257.471 127.461C253.961 156.091 230.621 175.461 200.761 175.461C167.131 175.461 144.051 153.131 144.051 108.961C144.051 64.7909 167.131 45.4609 201.761 45.4609C233.881 45.4609 255.761 63.7809 257.761 92.8909H224.851C223.091 80.0909 213.851 72.5609 201.511 72.5609C187.711 72.5609 176.421 81.3509 176.421 108.201C176.421 135.051 187.711 148.101 200.511 148.101C213.311 148.101 223.341 140.821 224.601 127.521L257.471 127.461Z" fill="black"/>
<path d="M264.211 110.461C264.211 71.3109 288.551 45.4609 327.701 45.4609C366.341 45.4609 390.441 71.0609 390.441 110.461C390.441 149.601 366.091 175.461 327.701 175.461C287.841 175.461 264.211 148.811 264.211 110.461ZM357.561 110.461C357.561 85.3609 347.561 73.0609 327.701 73.0609C307.841 73.0609 297.841 85.3609 297.841 110.461C297.841 135.561 307.841 148.101 327.701 148.101C347.561 148.101 357.601 135.511 357.601 110.461H357.561Z" fill="black"/>
<path d="M481.32 172.15V97.3699C481.32 78.2899 475.8 73.0199 460.24 73.0199C443.17 73.0199 434.89 82.5599 434.89 101.38V172.15H402.27V48.6799H433.39V66.7499C440.92 52.9499 453.46 45.4199 473.29 45.4199C496.88 45.4199 514.19 59.7199 514.19 86.5799V172.15H481.32Z" fill="black"/>
<path d="M602.78 86.0711C601.02 74.0711 594.5 69.7611 579.69 69.7611C567.39 69.7611 560.37 72.7611 560.37 80.0511C560.37 87.3411 567.14 90.3411 580.44 94.0511C594.5 98.0511 607.8 100.831 617.33 104.591C630.33 109.861 637.66 118.401 637.66 134.461C637.66 160.051 618.84 175.361 583.66 175.361C545.76 175.361 524.66 157.541 524.18 132.451H557.81C557.81 143.991 567.59 150.771 583.4 150.771C594.95 150.771 605.24 147.251 605.24 137.971C605.24 129.191 595.95 126.431 585.41 123.921C564.58 118.921 553.04 115.381 544.26 109.861C532.71 102.591 528.7 93.0511 528.7 82.0111C528.7 61.1811 543 45.3711 580.64 45.3711C616.28 45.3711 632.34 59.4211 634.1 86.0211L602.78 86.0711Z" fill="black"/>
<path d="M662.92 167.92C671.48 167.92 678.42 160.98 678.42 152.42C678.42 143.86 671.48 136.92 662.92 136.92C654.36 136.92 647.42 143.86 647.42 152.42C647.42 160.98 654.36 167.92 662.92 167.92Z" fill="#00C5FF"/>
</g>
</g>
<defs>
<clipPath id="clip0_390_13825">
<rect width="678.42" height="177.92" fill="white"/>
</clipPath>
</defs>
</svg>
