<svg width="823" height="199" viewBox="0 0 823 199" fill="none" xmlns="http://www.w3.org/2000/svg">
<g clip-path="url(#clip0_477_24)">
<mask id="mask0_477_24" style="mask-type:luminance" maskUnits="userSpaceOnUse" x="-55" y="-41" width="981" height="297">
<path d="M926 -40.6797H-55V255.32H926V-40.6797Z" fill="white"/>
</mask>
<g mask="url(#mask0_477_24)">
<path d="M337.11 129.911C337.11 158.421 313.71 177.581 278.89 177.581C238.55 177.581 219.34 152.391 214.59 129.391H237.3C241.12 139.771 252.12 158.991 281.1 158.991C292.26 158.991 301.37 156.051 307.42 150.481C309.93 148.204 311.934 145.425 313.303 142.324C314.673 139.224 315.377 135.871 315.37 132.481V132.391C315.37 112.191 294 106.611 278.37 102.521L276.43 102.031C264.06 98.8213 248.67 94.8412 236.43 87.4712C222.62 79.1212 215.9 68.1812 215.9 54.0312C215.9 26.0312 241.38 5.03125 275.15 5.03125C308.04 5.03125 327.05 26.1212 331.72 46.9512H309.32C304.79 35.7112 292.73 25.0312 274.63 25.0312C266.587 25.0472 258.67 27.0316 251.57 30.8112C242.77 35.7412 238.12 43.0213 238.12 51.8713C238.12 60.0113 241.99 65.9612 250.3 70.6012C257.47 74.6012 267.47 77.4813 280.14 81.1213L281.89 81.6113C295.33 85.4713 309.22 89.4713 319.82 96.7313C331.62 104.741 337.11 115.321 337.11 129.911Z" fill="black" stroke="black" stroke-width="7" stroke-linecap="round" stroke-linejoin="round"/>
<path d="M448.21 139.55L464.41 147.27C457.359 159.054 446.638 168.199 433.891 173.305C421.144 178.411 407.074 179.195 393.839 175.538C380.603 171.88 368.932 163.983 360.615 153.056C352.299 142.13 347.795 128.777 347.795 115.045C347.795 101.313 352.299 87.9607 360.615 77.034C368.932 66.1073 380.603 58.2099 393.839 54.5524C407.074 50.8949 421.144 51.6792 433.891 56.7852C446.638 61.8911 457.359 71.0368 464.41 82.8202C464.41 82.8202 448.24 90.6002 448.21 90.5602C442.928 82.4376 435.162 76.2397 426.07 72.8905C416.978 69.5412 407.048 69.2201 397.758 71.9749C388.469 74.7297 380.319 80.4129 374.523 88.1772C368.727 95.9415 365.596 105.371 365.596 115.06C365.596 124.749 368.727 134.179 374.523 141.943C380.319 149.707 388.469 155.391 397.758 158.145C407.048 160.9 416.978 160.579 426.07 157.23C435.162 153.881 442.928 147.683 448.21 139.56V139.55Z" fill="black" stroke="black" stroke-width="7" stroke-linecap="round" stroke-linejoin="round"/>
<path d="M600.54 114.82C600.542 127.234 596.862 139.369 589.967 149.692C583.071 160.014 573.27 168.06 561.801 172.811C550.333 177.562 537.713 178.806 525.538 176.385C513.363 173.964 502.179 167.986 493.402 159.208C484.624 150.431 478.646 139.247 476.225 127.072C473.804 114.897 475.047 102.277 479.799 90.8085C484.55 79.3402 492.596 69.5385 502.918 62.6431C513.241 55.7477 525.376 52.0683 537.79 52.0703C554.426 52.0888 570.376 58.7059 582.14 70.4698C593.904 82.2337 600.521 98.1837 600.54 114.82ZM537.79 159.82C546.69 159.82 555.39 157.181 562.79 152.236C570.19 147.292 575.958 140.264 579.364 132.041C582.77 123.818 583.661 114.77 581.925 106.041C580.189 97.3121 575.903 89.2939 569.609 83.0005C563.316 76.7071 555.298 72.4213 546.569 70.685C537.84 68.9486 528.792 69.8398 520.569 73.2457C512.346 76.6517 505.318 82.4194 500.373 89.8197C495.429 97.2199 492.79 105.92 492.79 114.82C492.79 126.755 497.531 138.201 505.97 146.64C514.409 155.079 525.855 159.82 537.79 159.82Z" fill="black" stroke="black" stroke-width="7" stroke-linecap="round" stroke-linejoin="round"/>
<path d="M624.616 51.72C619.274 55.7752 614.679 60.7291 611.036 66.36C610.956 66.45 611.036 48 611.036 48H631C629.099 49.1318 626.371 50.3739 624.616 51.72Z" fill="#00C5FF" stroke="#00C5FF" stroke-width="6" stroke-linecap="round" stroke-linejoin="round"/>
<path d="M709.41 177.58H690.28V100.41C690.28 92.6658 687.204 85.2386 681.728 79.7626C676.251 74.2865 668.824 71.2101 661.08 71.2101C653.336 71.2101 645.909 74.2865 640.432 79.7626C634.956 85.2386 631.88 92.6658 631.88 100.41V177.58H612.75V100.41C612.75 87.5922 617.842 75.2992 626.906 66.2356C635.969 57.172 648.262 52.0801 661.08 52.0801C673.898 52.0801 686.191 57.172 695.254 66.2356C704.318 75.2992 709.41 87.5922 709.41 100.41V177.58Z" fill="black" stroke="black" stroke-width="7" stroke-linecap="round" stroke-linejoin="round"/>
<path d="M817.72 139.4C817.72 160.72 802.28 177.58 773.82 177.58C736.62 177.58 723.4 153.94 721.08 139.4H743.3C745.61 146.04 753.17 160.17 775.54 160.17C793.38 160.17 799.7 151.28 799.7 143.68C799.7 131.2 784.81 127.68 772.83 124.84L771.31 124.49C751.9 119.94 722.57 113.06 722.57 88.6803C722.57 67.8003 743.38 52.0703 770.95 52.0703C798.35 52.0703 815.01 69.0703 817.72 85.8703H795.72C792.97 77.9403 783.89 70.4803 770.52 70.4803C760.52 70.4803 744.63 75.0103 744.63 87.1403C744.63 97.5303 756.23 100.56 775.44 105.55L776.81 105.9C797.73 111.32 817.72 114.99 817.72 139.4Z" fill="black" stroke="black" stroke-width="7" stroke-linecap="round" stroke-linejoin="round"/>
<path d="M111 85.5508C94.8736 76.2175 78.7403 66.9108 62.6003 57.6308C59.4203 55.8008 57.7703 56.8008 57.7703 60.5408C57.7703 78.3408 57.7703 96.1442 57.7703 113.951C57.6937 116.296 58.2822 118.614 59.4678 120.639C60.6534 122.663 62.3878 124.311 64.4703 125.391L110.47 151.951C113.804 153.864 115.47 152.891 115.47 149.031C115.47 139.791 115.47 130.554 115.47 121.321C115.47 112.081 115.47 102.851 115.47 93.6108C115.567 91.9817 115.198 90.3587 114.406 88.9315C113.615 87.5042 112.433 86.3317 111 85.5508Z" fill="#99AEBB"/>
<path d="M184.33 60.8609C184.33 56.6909 182.69 55.7509 179.09 57.8609C163.323 66.9609 147.553 76.0609 131.78 85.1609C130.135 85.9743 128.766 87.2538 127.843 88.84C126.92 90.4261 126.484 92.2488 126.59 94.0809C126.69 103.081 126.59 112.081 126.59 121.081C126.59 130.561 126.59 140.081 126.59 149.531C126.59 152.861 128.38 153.841 131.28 152.161C146.773 143.228 162.253 134.291 177.72 125.351C179.793 124.252 181.512 122.587 182.677 120.549C183.842 118.512 184.405 116.185 184.3 113.841C184.306 96.1609 184.316 78.5009 184.33 60.8609Z" fill="#364954"/>
<path d="M115.47 13.74C117.285 12.6545 119.355 12.068 121.47 12.04C123.806 12.0718 126.088 12.7427 128.07 13.98C141.13 21.54 160.71 33.75 173.77 41.31C174.185 41.5458 174.653 41.6698 175.13 41.6698C175.607 41.6698 176.076 41.5458 176.49 41.31L176.6 41.25C181.6 38.37 181.6 33.66 176.6 30.78C162.75 22.78 142.37 10.1 128.52 2.07C126.399 0.74919 123.958 0.0333773 121.46 0C119.211 0.0386706 117.011 0.666188 115.08 1.82C100.14 10.44 41.35 45.32 23.87 55.51C20.9596 53.4405 17.4141 52.4603 13.8539 52.741C10.2937 53.0217 6.94558 54.5454 4.39538 57.0454C1.84518 59.5454 0.255306 62.8626 -0.0960533 66.4165C-0.447413 69.9704 0.462118 73.5347 2.4734 76.4857C4.48468 79.4367 7.46961 81.5865 10.9059 82.5589C14.3422 83.5312 18.011 83.2643 21.2704 81.8048C24.5297 80.3453 27.1721 77.7861 28.735 74.5751C30.298 71.364 30.6821 67.7056 29.82 64.24C44.13 55.95 102.44 21.32 115.47 13.74ZM15.13 75.13C13.6941 75.13 12.2905 74.7042 11.0966 73.9065C9.90268 73.1087 8.97215 71.9749 8.42266 70.6483C7.87317 69.3217 7.7294 67.8619 8.00953 66.4536C8.28965 65.0453 8.9811 63.7517 9.99643 62.7364C11.0118 61.7211 12.3054 61.0296 13.7137 60.7495C15.122 60.4694 16.5817 60.6131 17.9083 61.1626C19.2349 61.7121 20.3688 62.6427 21.1665 63.8366C21.9642 65.0305 22.39 66.4341 22.39 67.87C22.39 69.7955 21.6251 71.6421 20.2636 73.0036C18.9021 74.3651 17.0555 75.13 15.13 75.13Z" fill="#364954"/>
<path d="M126.129 79.9002C142.089 70.6535 158.056 61.4235 174.029 52.2102C177.349 50.2902 177.319 48.3702 174.029 46.4502C158.769 37.6302 143.516 28.8068 128.269 19.9802C126.141 18.6591 123.693 17.9434 121.189 17.9102C118.936 17.9443 116.732 18.5721 114.799 19.7302C99.4057 28.6302 84.0057 37.5202 68.5991 46.4002C65.2791 48.3202 65.2591 50.3002 68.5991 52.2102L116.509 79.9102C117.949 80.8187 119.618 81.3001 121.321 81.2983C123.023 81.2966 124.691 80.8117 126.129 79.9002Z" fill="#00C5FF"/>
<path d="M142.05 168.13C138.695 168.128 135.436 169.255 132.8 171.33C117.7 162.64 72.9399 136.98 59.0899 128.98C57.1705 127.985 55.5717 126.468 54.4781 124.602C53.3846 122.737 52.8409 120.601 52.9099 118.44C52.9099 102.44 52.9099 86.4402 52.9099 70.4402C52.9127 70.1286 52.8327 69.8218 52.6781 69.5512C52.5235 69.2806 52.2998 69.056 52.0299 68.9002L47.9999 66.5202C44.7199 64.6302 42.9999 65.6602 42.9999 69.5202C42.9999 87.8602 42.9999 106.194 42.9999 124.52C42.916 126.933 43.5154 129.321 44.729 131.409C45.9427 133.497 47.7212 135.199 49.8599 136.32C64.9899 145.05 109.61 170.64 127.27 180.8C127.158 181.552 127.101 182.31 127.1 183.07C127.09 186.039 127.961 188.944 129.604 191.417C131.246 193.891 133.585 195.821 136.325 196.964C139.065 198.107 142.083 198.411 144.996 197.838C147.909 197.265 150.586 195.84 152.689 193.744C154.792 191.649 156.225 188.976 156.808 186.065C157.391 183.154 157.097 180.135 155.963 177.392C154.829 174.648 152.906 172.302 150.439 170.652C147.971 169.001 145.069 168.12 142.1 168.12L142.05 168.13ZM142.05 190.25C140.629 190.252 139.239 189.832 138.057 189.044C136.875 188.256 135.953 187.135 135.408 185.822C134.864 184.51 134.721 183.066 134.997 181.672C135.274 180.278 135.958 178.998 136.963 177.993C137.968 176.988 139.248 176.304 140.642 176.028C142.035 175.751 143.48 175.894 144.792 176.439C146.105 176.983 147.226 177.905 148.014 179.087C148.802 180.27 149.222 181.659 149.22 183.08C149.22 184.982 148.465 186.805 147.12 188.15C145.775 189.495 143.952 190.25 142.05 190.25Z" fill="#364954"/>
</g>
</g>
<defs>
<clipPath id="clip0_477_24">
<rect width="822.38" height="198.02" fill="white"/>
</clipPath>
</defs>
</svg>
