<svg width="698" height="156" viewBox="0 0 698 156" fill="none" xmlns="http://www.w3.org/2000/svg">
<g clip-path="url(#clip0_489_26)">
<mask id="mask0_489_26" style="mask-type:luminance" maskUnits="userSpaceOnUse" x="-107" y="-53" width="912" height="262">
<path d="M804.27 -52.6504H-106.73V208.35H804.27V-52.6504Z" fill="white"/>
</mask>
<g mask="url(#mask0_489_26)">
<path d="M219.3 0.480469C248.417 0.480547 265.82 19.0668 270.413 37.75L270.622 38.6396L271.196 41.2109H247.609L247.084 39.8867L247.083 39.8818L246.754 39.1133C243.232 31.2593 234.193 22.4112 219.554 22.1279L218.83 22.1201H218.829C212.399 22.1297 206.065 23.6632 200.347 26.5908L199.795 26.8789L199.785 26.8838C192.867 30.7553 189.149 36.4675 189.149 43.3906C189.149 46.529 189.886 49.2386 191.464 51.623C192.939 53.8525 195.131 55.7682 198.077 57.4863L198.677 57.8271C203.981 60.7797 211.24 63.0446 220.232 65.6504L224.191 66.791L224.194 66.792L225.725 67.2217C237.642 70.6467 249.847 74.1569 259.377 80.6719V80.6729C264.821 84.4047 268.802 88.7012 271.426 93.7363C274.049 98.7721 275.33 104.575 275.33 111.341L275.326 111.952C275.173 124.749 269.91 135.426 260.832 142.946C251.602 150.592 238.396 155 222.54 155C204.421 155 191.003 149.35 181.573 141.087C172.432 133.076 167.011 122.587 164.703 112.34L164.489 111.35V111.349L163.964 108.811H187.81L188.31 110.19L188.311 110.193C189.983 114.742 193.107 120.841 198.78 125.807C204.463 130.781 212.676 134.591 224.47 134.591C233.593 134.591 241.053 132.253 245.946 127.74C247.912 125.952 249.483 123.774 250.56 121.345C251.569 119.067 252.123 116.616 252.192 114.129L252.199 113.632V113.631C252.199 105.577 247.861 100.435 241.88 96.8867C236.672 93.7968 230.173 91.8847 224.126 90.2656L221.567 89.5869L221.562 89.5859L219.895 89.166H219.896C209.226 86.4016 196.226 83.0267 185.526 76.8311L184.498 76.2227L183.904 75.8594C177.817 72.0857 173.293 67.7568 170.267 62.8037C167.144 57.694 165.6 51.8934 165.6 45.3008C165.6 19.817 188.588 0.480469 219.3 0.480469Z" fill="white" stroke="white"/>
<path d="M337.209 155.7C327.196 155.701 317.357 153.077 308.675 148.089C299.993 143.101 292.77 135.923 287.728 127.272C282.686 118.621 280.001 108.798 279.94 98.7853C279.88 88.7721 282.446 78.9182 287.384 70.2067C292.321 61.4952 299.456 54.2308 308.078 49.1382C316.699 44.0455 326.506 41.3028 336.518 41.1837C346.531 41.0646 356.4 43.5733 365.14 48.4594C373.88 53.3454 381.186 60.4381 386.329 69.0297L387.809 71.4897L385.269 72.7297C370.739 79.7297 370.739 79.7297 370.039 79.7297H368.569L367.789 78.5397C363.498 71.9379 357.187 66.9001 349.799 64.1774C342.41 61.4546 334.34 61.1929 326.79 63.4311C319.241 65.6693 312.617 70.2876 307.906 76.5974C303.196 82.9072 300.651 90.5705 300.651 98.4447C300.651 106.319 303.196 113.982 307.906 120.292C312.617 126.602 319.241 131.22 326.79 133.458C334.34 135.696 342.41 135.435 349.799 132.712C357.187 129.989 363.498 124.951 367.789 118.35L369.039 116.43L387.809 125.35L386.329 127.82C381.224 136.292 374.023 143.308 365.42 148.191C356.817 153.074 347.102 155.66 337.209 155.7Z" fill="white"/>
<path d="M447.98 155.5C436.656 155.495 425.589 152.131 416.176 145.836C406.764 139.54 399.429 130.596 395.1 120.132C390.771 109.669 389.641 98.1566 391.854 87.0512C394.067 75.9459 399.523 65.7459 407.532 57.741C415.541 49.736 425.744 44.2855 436.85 42.0785C447.957 39.8716 459.468 41.0073 469.929 45.342C480.391 49.6768 489.332 57.0159 495.622 66.4317C501.913 75.8474 505.27 86.9168 505.27 98.2405C505.251 113.426 499.209 127.984 488.468 138.72C477.727 149.455 463.166 155.49 447.98 155.5ZM447.98 61.7205C443.062 61.5211 438.155 62.3175 433.553 64.0619C428.95 65.8063 424.748 68.4628 421.198 71.8717C417.648 75.2807 414.823 79.372 412.894 83.8998C410.964 88.4276 409.97 93.2987 409.97 98.2205C409.97 103.142 410.964 108.013 412.894 112.541C414.823 117.069 417.648 121.16 421.198 124.569C424.748 127.978 428.95 130.635 433.553 132.379C438.155 134.124 443.062 134.92 447.98 134.72H448.89C458.322 134.239 467.201 130.123 473.664 123.236C480.127 116.349 483.672 107.226 483.554 97.7827C483.436 88.3389 479.665 79.3078 473.033 72.5842C466.4 65.8605 457.421 61.967 447.98 61.7205Z" fill="white"/>
<path d="M578.15 155.501V85.6908C578.213 82.6545 577.67 79.6361 576.552 76.8124C575.434 73.9887 573.764 71.4166 571.639 69.2468C569.514 67.0769 566.978 65.3531 564.178 64.1762C561.378 62.9994 558.372 62.3932 555.335 62.3932C552.298 62.3932 549.291 62.9994 546.492 64.1762C543.692 65.3531 541.155 67.0769 539.031 69.2468C536.906 71.4166 535.235 73.9887 534.117 76.8124C532.999 79.6361 532.456 82.6545 532.52 85.6908V155.501H510.64V85.6908C510.551 79.7651 511.642 73.881 513.848 68.3807C516.054 62.8803 519.332 57.8736 523.492 53.6519C527.651 49.4301 532.608 46.0775 538.075 43.7891C543.541 41.5007 549.408 40.3223 555.335 40.3223C561.261 40.3223 567.128 41.5007 572.595 43.7891C578.062 46.0775 583.019 49.4301 587.178 53.6519C591.337 57.8736 594.615 62.8803 596.821 68.3807C599.028 73.881 600.118 79.7651 600.03 85.6908V155.501H578.15Z" fill="white"/>
<path d="M525.669 45.2805C519.857 49.6987 514.859 55.0961 510.899 61.2305C510.809 61.3305 510.899 41.2305 510.899 41.2305H531.659C529.586 42.4629 527.586 43.8152 525.669 45.2805Z" fill="#00C5FF"/>
<path d="M653.509 155.5C621.869 155.5 607.609 136.4 605.009 120.05L604.529 117.05H628.789L629.399 118.8C631.519 124.91 637.669 135.14 654.999 135.14C668.599 135.14 673.429 128.81 673.429 123.4C673.429 115.23 664.159 112.4 652.039 109.53L650.739 109.23C633.019 105.06 606.269 98.7902 606.269 75.4802C606.269 55.8102 625.499 40.9902 650.999 40.9902C676.099 40.9902 691.789 56.9002 694.309 72.6202L694.799 75.6202H670.739L670.129 73.8702C668.129 68.0702 661.309 62.2302 650.649 62.2302C644.149 62.2302 630.719 65.1302 630.719 74.1202C630.719 80.8502 638.789 83.2502 655.599 87.6202L656.769 87.9202C674.939 92.6602 697.539 98.5602 697.539 121.84C697.539 141.98 679.839 155.5 653.509 155.5Z" fill="white"/>
<path d="M58.9795 76.0805C41.1129 65.7738 23.2429 55.4638 5.36953 45.1505C1.84953 43.1505 0.0195312 44.2305 0.0195312 48.3705C0.0195312 68.0905 0.0195312 87.8105 0.0195312 107.53C0.0195312 113.22 2.57953 117.39 7.44953 120.21C24.4429 130.01 41.4429 139.814 58.4495 149.62C62.1295 151.74 63.9729 150.66 63.9795 146.38C63.9795 136.154 63.9795 125.927 63.9795 115.701C63.9795 105.471 63.9795 95.2405 63.9795 85.0105C64.0793 83.201 63.6621 81.4004 62.7768 79.8191C61.8914 78.2379 60.5744 76.9412 58.9795 76.0805Z" fill="#99AEBB"/>
<path d="M140.199 48.7201C140.199 44.1101 138.389 43.0701 134.399 45.3701C116.933 55.4501 99.4626 65.5267 81.9892 75.6001C78.0892 77.8401 76.1892 80.9401 76.2392 85.4901C76.3592 95.4901 76.2392 105.4 76.2392 115.35C76.2392 125.85 76.2392 136.35 76.2392 146.86C76.2392 150.56 78.2392 151.64 81.4392 149.78C98.5859 139.887 115.733 129.987 132.879 120.08C135.181 118.87 137.092 117.031 138.39 114.778C139.687 112.524 140.318 109.948 140.209 107.35C140.203 87.8101 140.199 68.2667 140.199 48.7201Z" fill="#364954"/>
<path d="M75.7391 69.8204C93.4258 59.5737 111.109 49.3471 128.789 39.1404C132.469 37.0104 132.439 34.8904 128.789 32.7704L78.1091 3.45039C75.7532 1.98583 73.0428 1.1907 70.2691 1.15039C67.7712 1.18316 65.3259 1.87294 63.1791 3.15039C46.1391 13.0104 29.0858 22.8571 12.0191 32.6904C8.33909 34.8104 8.30909 37.0104 11.9591 39.1304C29.6391 49.3637 47.3258 59.5871 65.0191 69.8004C66.6198 70.8209 68.4779 71.3647 70.3762 71.3682C72.2745 71.3718 74.1346 70.8349 75.7391 69.8204Z" fill="#00C5FF"/>
</g>
</g>
<defs>
<clipPath id="clip0_489_26">
<rect width="697.53" height="155.7" fill="white"/>
</clipPath>
</defs>
</svg>
