<svg width="127" height="136" viewBox="0 0 127 136" fill="none" xmlns="http://www.w3.org/2000/svg">
<g opacity="0.05">
<path d="M53.2368 67.651C37.1101 58.3176 20.9801 49.011 4.84679 39.731C1.65679 37.901 0.0167917 38.891 0.00679168 42.631C0.00679168 60.4443 0.00679168 78.2476 0.00679168 96.041C-0.0708322 98.3885 0.51826 100.71 1.70582 102.736C2.89338 104.763 4.6308 106.411 6.71679 107.491C22.0501 116.338 37.3834 125.188 52.7168 134.041C56.0501 135.961 57.7168 134.988 57.7168 131.121C57.7168 121.888 57.7168 112.654 57.7168 103.421C57.7168 94.181 57.7168 84.951 57.7168 75.711C57.8111 74.081 57.44 72.4577 56.6468 71.0306C55.8536 69.6035 54.6709 68.4314 53.2368 67.651Z" fill="#99AEBB"/>
<path d="M126.567 43.001C126.567 38.831 124.937 37.901 121.337 40.001C105.564 49.101 89.7906 58.1976 74.0173 67.291C72.3715 68.1061 71.0019 69.3874 70.079 70.9753C69.1562 72.5632 68.7208 74.3875 68.8273 76.221C68.9373 85.221 68.8273 94.221 68.8273 103.171C68.8273 112.661 68.8273 122.171 68.8273 131.621C68.8273 134.961 70.6173 135.931 73.5273 134.261L119.967 107.441C122.037 106.34 123.752 104.676 124.915 102.641C126.077 100.605 126.64 98.2826 126.537 95.941C126.557 78.2543 126.567 60.6076 126.567 43.001Z" fill="#364954"/>
<path d="M68.367 62C84.327 52.7533 100.294 43.52 116.267 34.3C119.587 32.38 119.557 30.46 116.267 28.55C101.02 19.73 85.7736 10.9067 70.527 2.08C68.3965 0.747237 65.9398 0.0275413 63.427 0C61.1748 0.0306152 58.9706 0.654963 57.037 1.81C41.6503 10.71 26.2536 19.6 10.847 28.48C7.52697 30.4 7.49697 32.39 10.847 34.3C26.807 43.5467 42.757 52.78 58.697 62C60.1417 62.9202 61.819 63.409 63.532 63.409C65.2449 63.409 66.9222 62.9202 68.367 62Z" fill="#00C5FF"/>
</g>
</svg>
