<svg width="178" height="679" viewBox="0 0 178 679" fill="none" xmlns="http://www.w3.org/2000/svg">
<mask id="mask0_138_10233" style="mask-type:luminance" maskUnits="userSpaceOnUse" x="0" y="0" width="178" height="679">
<path d="M177.92 0H0V678.42H177.92V0Z" fill="white"/>
</mask>
<g mask="url(#mask0_138_10233)">
<mask id="mask1_138_10233" style="mask-type:luminance" maskUnits="userSpaceOnUse" x="-48" y="-92" width="274" height="863">
<path d="M-47.54 -91.79V770.21H225.46V-91.79H-47.54Z" fill="white"/>
</mask>
<g mask="url(#mask1_138_10233)">
<path d="M54.7098 579.8C37.6398 581.55 29.3598 591.8 29.3598 612.92C29.3598 632.5 36.3598 642.78 48.9298 642.78C59.4698 642.78 65.4998 635.51 70.0098 616.94C74.5298 598.12 79.0098 579.8 84.5698 567.5C91.0898 552.95 101.38 541.4 124.97 541.4C161.61 541.4 177.97 569.01 177.97 607.9C177.97 649.06 159.65 677.67 122.26 678.42V644.79C139.32 644.29 149.86 629.99 149.86 607.65C149.86 587.07 141.08 575.28 126.28 575.28C116.49 575.28 109.71 580.28 105.2 601.13C100.68 621.7 97.6698 635 92.3998 646.8C84.3998 664.62 72.3198 674.65 51.2398 674.65C21.3798 674.65 0.0498047 654.33 0.0498047 613.65C0.0498047 571.5 22.8898 547.91 54.7598 546.65L54.7098 579.8Z" fill="black" fill-opacity="0.03"/>
<path d="M127.46 420.95C156.09 424.46 175.46 447.8 175.46 477.66C175.46 511.29 153.13 534.37 108.96 534.37C64.79 534.37 45.46 511.29 45.46 476.66C45.46 444.54 63.78 422.66 92.89 420.66V453.57C80.09 455.33 72.56 464.57 72.56 476.91C72.56 490.71 81.35 502 108.2 502C135.05 502 148.1 490.71 148.1 477.91C148.1 465.11 140.82 455.08 127.52 453.82L127.46 420.95Z" fill="black" fill-opacity="0.03"/>
<path d="M110.46 414.21C71.31 414.21 45.46 389.87 45.46 350.72C45.46 312.08 71.06 287.98 110.46 287.98C149.6 287.98 175.46 312.33 175.46 350.72C175.46 390.58 148.81 414.21 110.46 414.21ZM110.46 320.86C85.36 320.86 73.06 330.86 73.06 350.72C73.06 370.58 85.36 380.58 110.46 380.58C135.56 380.58 148.1 370.58 148.1 350.72C148.1 330.86 135.51 320.82 110.46 320.82V320.86Z" fill="black" fill-opacity="0.03"/>
<path d="M172.15 197.1H97.3699C78.2899 197.1 73.0199 202.62 73.0199 218.18C73.0199 235.25 82.5599 243.53 101.38 243.53H172.15V276.15H48.6799V245.03H66.7499C52.9499 237.5 45.4199 224.96 45.4199 205.13C45.4199 181.54 59.7199 164.23 86.5799 164.23H172.15V197.1Z" fill="black" fill-opacity="0.03"/>
<path d="M86.0701 75.6399C74.0701 77.3999 69.7601 83.9199 69.7601 98.7299C69.7601 111.03 72.7601 118.05 80.0501 118.05C87.3401 118.05 90.3401 111.28 94.0501 97.9799C98.0501 83.9199 100.83 70.6199 104.59 61.0899C109.86 48.0899 118.4 40.7598 134.46 40.7598C160.05 40.7598 175.36 59.5798 175.36 94.7598C175.36 132.66 157.54 153.76 132.45 154.24V120.61C143.99 120.61 150.77 110.83 150.77 95.0199C150.77 83.4699 147.25 73.1798 137.97 73.1798C129.19 73.1798 126.43 82.4698 123.92 93.0098C118.92 113.84 115.38 125.38 109.86 134.16C102.59 145.71 93.0501 149.72 82.0101 149.72C61.1801 149.72 45.3701 135.42 45.3701 97.7799C45.3701 62.1399 59.4201 46.0798 86.0201 44.3198L86.0701 75.6399Z" fill="black" fill-opacity="0.03"/>
<path d="M167.92 15.5C167.92 6.93959 160.98 0 152.42 0C143.86 0 136.92 6.93959 136.92 15.5C136.92 24.0604 143.86 31 152.42 31C160.98 31 167.92 24.0604 167.92 15.5Z" fill="#28ED70" fill-opacity="0.05"/>
</g>
</g>
</svg>
