<svg xmlns="http://www.w3.org/2000/svg" xmlns:xlink="http://www.w3.org/1999/xlink" width="275" zoomAndPan="magnify" viewBox="0 0 206.25 70.499998" height="94" preserveAspectRatio="xMidYMid meet" version="1.2"><defs/><g id="e4f905f192"><path style=" stroke:none;fill-rule:nonzero;fill:#000000;fill-opacity:1;" d="M 4.734375 36.84375 L 12.664062 28.914062 C 17.042969 24.535156 24.140625 24.535156 28.519531 28.914062 C 29.210938 29.601562 29.75 30.375 30.222656 31.175781 L 26.539062 34.859375 C 26.363281 35.039062 26.144531 35.136719 25.9375 35.257812 C 25.683594 34.386719 25.238281 33.5625 24.554688 32.878906 C 22.371094 30.691406 18.8125 30.695312 16.628906 32.878906 L 8.699219 40.804688 C 6.511719 42.992188 6.511719 46.550781 8.699219 48.734375 C 10.882812 50.921875 14.441406 50.921875 16.628906 48.734375 L 19.449219 45.914062 C 21.734375 46.804688 24.199219 47.042969 26.597656 46.691406 L 20.589844 52.699219 C 16.210938 57.078125 9.113281 57.078125 4.734375 52.699219 C 0.355469 48.320312 0.355469 41.222656 4.734375 36.84375 Z M 25.699219 23.804688 L 28.519531 20.984375 C 30.703125 18.800781 34.261719 18.800781 36.449219 20.984375 C 38.632812 23.171875 38.632812 26.726562 36.449219 28.914062 L 28.519531 36.84375 C 26.332031 39.03125 22.777344 39.03125 20.589844 36.84375 C 19.910156 36.160156 19.464844 35.335938 19.207031 34.464844 C 19 34.585938 18.785156 34.683594 18.609375 34.859375 L 14.925781 38.542969 C 15.394531 39.347656 15.9375 40.117188 16.628906 40.804688 C 21.003906 45.183594 28.105469 45.183594 32.484375 40.804688 L 40.410156 32.878906 C 44.789062 28.5 44.789062 21.398438 40.410156 17.019531 C 36.035156 12.644531 28.933594 12.644531 24.554688 17.019531 L 18.546875 23.027344 C 20.949219 22.675781 23.414062 22.917969 25.699219 23.804688 Z M 25.699219 23.804688 "/><g style="fill:#000000;fill-opacity:1;"><g transform="translate(52.449592, 45.519169)"><path style="stroke:none" d="M 14.8125 -6.71875 L 28.125 -6.71875 L 28.125 0 L 0.984375 0 L 0.984375 -2.890625 L 13.96875 -21.28125 L 1.953125 -21.28125 L 1.953125 -28 L 27.796875 -28 L 27.796875 -25.109375 Z M 14.8125 -6.71875 "/></g></g><g style="fill:#000000;fill-opacity:1;"><g transform="translate(81.837532, 45.519169)"><path style="stroke:none" d="M 13.546875 -21.984375 C 17.484375 -21.984375 20.488281 -21.054688 22.5625 -19.203125 C 24.644531 -17.359375 25.6875 -14.539062 25.6875 -10.75 L 25.6875 -9.359375 L 9.5625 -9.359375 C 9.5625 -7.816406 9.90625 -6.648438 10.59375 -5.859375 C 11.289062 -5.078125 12.382812 -4.6875 13.875 -4.6875 C 15.238281 -4.6875 16.238281 -4.96875 16.875 -5.53125 C 17.507812 -6.101562 17.828125 -6.863281 17.828125 -7.8125 L 25.6875 -7.8125 C 25.6875 -5.207031 24.691406 -3.171875 22.703125 -1.703125 C 20.722656 -0.242188 17.835938 0.484375 14.046875 0.484375 C 10.054688 0.484375 6.960938 -0.441406 4.765625 -2.296875 C 2.566406 -4.160156 1.46875 -6.976562 1.46875 -10.75 C 1.46875 -14.4375 2.535156 -17.226562 4.671875 -19.125 C 6.816406 -21.03125 9.773438 -21.984375 13.546875 -21.984375 Z M 13.875 -16.8125 C 11.320312 -16.8125 9.898438 -15.601562 9.609375 -13.1875 L 17.5 -13.1875 C 17.5 -14.300781 17.179688 -15.179688 16.546875 -15.828125 C 15.910156 -16.484375 15.019531 -16.8125 13.875 -16.8125 Z M 13.875 -16.8125 "/></g></g><g style="fill:#000000;fill-opacity:1;"><g transform="translate(108.986783, 45.519169)"><path style="stroke:none" d="M 2.734375 -24.015625 L 2.734375 -29.515625 L 10.828125 -29.515625 L 10.828125 -24.015625 Z M 2.734375 0 L 2.734375 -21.484375 L 10.828125 -21.484375 L 10.828125 0 Z M 2.734375 0 "/></g></g><g style="fill:#000000;fill-opacity:1;"><g transform="translate(122.541051, 45.519169)"><path style="stroke:none" d="M 16.765625 -21.484375 L 16.765625 -16 L 12.203125 -16 L 12.203125 -7.8125 C 12.203125 -6.832031 12.363281 -6.117188 12.6875 -5.671875 C 13.019531 -5.222656 13.617188 -5 14.484375 -5 L 16.765625 -5 L 16.765625 -0.25 C 16.117188 -0.03125 15.28125 0.144531 14.25 0.28125 C 13.21875 0.414062 12.320312 0.484375 11.5625 0.484375 C 9.175781 0.484375 7.335938 0.0507812 6.046875 -0.8125 C 4.753906 -1.675781 4.109375 -3.15625 4.109375 -5.25 L 4.109375 -16 L 1.09375 -16 L 1.09375 -21.484375 L 4.4375 -21.484375 L 6.1875 -28 L 12.203125 -28 L 12.203125 -21.484375 Z M 16.765625 -21.484375 "/></g></g><g style="fill:#000000;fill-opacity:1;"><g transform="translate(140.613412, 45.519169)"><path style="stroke:none" d="M 2.734375 0 L 2.734375 -29.515625 L 10.828125 -29.515625 L 10.828125 0 Z M 2.734375 0 "/></g></g><g style="fill:#000000;fill-opacity:1;"><g transform="translate(154.167679, 45.519169)"><path style="stroke:none" d="M 17.21875 -0.65625 C 16.101562 2.351562 14.738281 4.640625 13.125 6.203125 C 11.507812 7.765625 9.25 8.546875 6.34375 8.546875 C 4.582031 8.546875 3.023438 8.300781 1.671875 7.8125 L 1.671875 2.96875 L 4.921875 2.96875 C 6.960938 2.96875 8.171875 1.976562 8.546875 0 L 0 -21.484375 L 8.703125 -21.484375 L 12.828125 -7.203125 L 13.109375 -7.203125 L 16.890625 -21.484375 L 24.875 -21.484375 Z M 17.21875 -0.65625 "/></g></g><g style="fill:#000000;fill-opacity:1;"><g transform="translate(52.449592, 60.808958)"><path style="stroke:none" d="M 4.109375 0.1875 C 3.453125 0.1875 2.898438 0.0234375 2.453125 -0.296875 C 2.003906 -0.617188 1.664062 -1.054688 1.4375 -1.609375 C 1.207031 -2.171875 1.09375 -2.796875 1.09375 -3.484375 C 1.09375 -4.191406 1.207031 -4.820312 1.4375 -5.375 C 1.664062 -5.925781 2.003906 -6.359375 2.453125 -6.671875 C 2.898438 -6.992188 3.453125 -7.15625 4.109375 -7.15625 C 4.753906 -7.15625 5.3125 -6.992188 5.78125 -6.671875 C 6.25 -6.359375 6.609375 -5.921875 6.859375 -5.359375 C 7.109375 -4.804688 7.234375 -4.179688 7.234375 -3.484375 C 7.234375 -2.796875 7.109375 -2.171875 6.859375 -1.609375 C 6.609375 -1.054688 6.25 -0.617188 5.78125 -0.296875 C 5.3125 0.0234375 4.753906 0.1875 4.109375 0.1875 Z M 0.890625 0 L 0.890625 -9.296875 L 2.046875 -9.296875 L 2.046875 -5.125 L 1.921875 -5.125 L 1.921875 0 Z M 3.96875 -0.859375 C 4.425781 -0.859375 4.804688 -0.972656 5.109375 -1.203125 C 5.410156 -1.441406 5.632812 -1.757812 5.78125 -2.15625 C 5.925781 -2.550781 6 -2.992188 6 -3.484375 C 6 -3.984375 5.925781 -4.429688 5.78125 -4.828125 C 5.632812 -5.222656 5.40625 -5.535156 5.09375 -5.765625 C 4.789062 -5.992188 4.40625 -6.109375 3.9375 -6.109375 C 3.476562 -6.109375 3.097656 -6 2.796875 -5.78125 C 2.503906 -5.5625 2.285156 -5.253906 2.140625 -4.859375 C 1.992188 -4.460938 1.921875 -4.003906 1.921875 -3.484375 C 1.921875 -2.984375 1.992188 -2.53125 2.140625 -2.125 C 2.285156 -1.726562 2.507812 -1.414062 2.8125 -1.1875 C 3.113281 -0.96875 3.5 -0.859375 3.96875 -0.859375 Z M 3.96875 -0.859375 "/></g></g><g style="fill:#000000;fill-opacity:1;"><g transform="translate(60.192396, 60.808958)"><path style="stroke:none" d="M 1.875 3.09375 L 3.21875 -0.5625 L 3.234375 0.515625 L 0.1875 -6.96875 L 1.40625 -6.96875 L 3.78125 -0.953125 L 3.375 -0.953125 L 5.609375 -6.96875 L 6.78125 -6.96875 L 2.984375 3.09375 Z M 1.875 3.09375 "/></g></g><g style="fill:#000000;fill-opacity:1;"><g transform="translate(67.135108, 60.808958)"><path style="stroke:none" d=""/></g></g><g style="fill:#000000;fill-opacity:1;"><g transform="translate(69.716042, 60.808958)"><path style="stroke:none" d="M 4.203125 0.1875 C 3.546875 0.1875 2.953125 0.078125 2.421875 -0.140625 C 1.890625 -0.367188 1.453125 -0.6875 1.109375 -1.09375 C 0.773438 -1.507812 0.554688 -2.003906 0.453125 -2.578125 L 1.640625 -2.765625 C 1.785156 -2.179688 2.097656 -1.722656 2.578125 -1.390625 C 3.054688 -1.054688 3.617188 -0.890625 4.265625 -0.890625 C 4.679688 -0.890625 5.054688 -0.957031 5.390625 -1.09375 C 5.722656 -1.226562 5.988281 -1.414062 6.1875 -1.65625 C 6.382812 -1.90625 6.484375 -2.195312 6.484375 -2.53125 C 6.484375 -2.738281 6.445312 -2.914062 6.375 -3.0625 C 6.3125 -3.207031 6.21875 -3.332031 6.09375 -3.4375 C 5.96875 -3.539062 5.828125 -3.628906 5.671875 -3.703125 C 5.523438 -3.773438 5.363281 -3.835938 5.1875 -3.890625 L 2.828125 -4.59375 C 2.566406 -4.664062 2.316406 -4.757812 2.078125 -4.875 C 1.835938 -5 1.625 -5.148438 1.4375 -5.328125 C 1.25 -5.503906 1.097656 -5.71875 0.984375 -5.96875 C 0.867188 -6.226562 0.8125 -6.53125 0.8125 -6.875 C 0.8125 -7.425781 0.953125 -7.894531 1.234375 -8.28125 C 1.523438 -8.664062 1.914062 -8.960938 2.40625 -9.171875 C 2.894531 -9.378906 3.445312 -9.484375 4.0625 -9.484375 C 4.6875 -9.472656 5.242188 -9.359375 5.734375 -9.140625 C 6.234375 -8.929688 6.644531 -8.625 6.96875 -8.21875 C 7.289062 -7.8125 7.507812 -7.328125 7.625 -6.765625 L 6.40625 -6.546875 C 6.332031 -6.929688 6.1875 -7.257812 5.96875 -7.53125 C 5.75 -7.800781 5.472656 -8.007812 5.140625 -8.15625 C 4.804688 -8.300781 4.441406 -8.378906 4.046875 -8.390625 C 3.671875 -8.390625 3.328125 -8.328125 3.015625 -8.203125 C 2.710938 -8.078125 2.472656 -7.90625 2.296875 -7.6875 C 2.117188 -7.46875 2.03125 -7.210938 2.03125 -6.921875 C 2.03125 -6.640625 2.109375 -6.410156 2.265625 -6.234375 C 2.429688 -6.054688 2.632812 -5.914062 2.875 -5.8125 C 3.113281 -5.71875 3.347656 -5.640625 3.578125 -5.578125 L 5.34375 -5.0625 C 5.539062 -5.007812 5.769531 -4.929688 6.03125 -4.828125 C 6.300781 -4.734375 6.5625 -4.597656 6.8125 -4.421875 C 7.0625 -4.242188 7.265625 -4.003906 7.421875 -3.703125 C 7.585938 -3.410156 7.671875 -3.039062 7.671875 -2.59375 C 7.671875 -2.144531 7.582031 -1.742188 7.40625 -1.390625 C 7.226562 -1.046875 6.976562 -0.753906 6.65625 -0.515625 C 6.34375 -0.285156 5.972656 -0.113281 5.546875 0 C 5.128906 0.125 4.679688 0.1875 4.203125 0.1875 Z M 4.203125 0.1875 "/></g></g><g style="fill:#000000;fill-opacity:1;"><g transform="translate(77.845989, 60.808958)"><path style="stroke:none" d="M 3.84375 0.1875 C 3.132812 0.1875 2.53125 0.03125 2.03125 -0.28125 C 1.539062 -0.59375 1.164062 -1.023438 0.90625 -1.578125 C 0.65625 -2.140625 0.523438 -2.773438 0.515625 -3.484375 C 0.523438 -4.210938 0.660156 -4.851562 0.921875 -5.40625 C 1.191406 -5.957031 1.570312 -6.382812 2.0625 -6.6875 C 2.5625 -7 3.160156 -7.15625 3.859375 -7.15625 C 4.585938 -7.15625 5.21875 -6.972656 5.75 -6.609375 C 6.28125 -6.253906 6.640625 -5.765625 6.828125 -5.140625 L 5.6875 -4.796875 C 5.539062 -5.203125 5.300781 -5.515625 4.96875 -5.734375 C 4.644531 -5.960938 4.269531 -6.078125 3.84375 -6.078125 C 3.363281 -6.078125 2.96875 -5.960938 2.65625 -5.734375 C 2.34375 -5.515625 2.113281 -5.207031 1.96875 -4.8125 C 1.820312 -4.425781 1.742188 -3.984375 1.734375 -3.484375 C 1.742188 -2.710938 1.921875 -2.085938 2.265625 -1.609375 C 2.617188 -1.128906 3.144531 -0.890625 3.84375 -0.890625 C 4.300781 -0.890625 4.675781 -0.992188 4.96875 -1.203125 C 5.269531 -1.410156 5.5 -1.710938 5.65625 -2.109375 L 6.828125 -1.8125 C 6.578125 -1.164062 6.195312 -0.671875 5.6875 -0.328125 C 5.175781 0.015625 4.5625 0.1875 3.84375 0.1875 Z M 3.84375 0.1875 "/></g></g><g style="fill:#000000;fill-opacity:1;"><g transform="translate(85.085515, 60.808958)"><path style="stroke:none" d="M 3.875 0.1875 C 3.175781 0.1875 2.578125 0.03125 2.078125 -0.28125 C 1.578125 -0.59375 1.191406 -1.023438 0.921875 -1.578125 C 0.648438 -2.128906 0.515625 -2.765625 0.515625 -3.484375 C 0.515625 -4.222656 0.648438 -4.863281 0.921875 -5.40625 C 1.203125 -5.957031 1.59375 -6.382812 2.09375 -6.6875 C 2.601562 -7 3.195312 -7.15625 3.875 -7.15625 C 4.570312 -7.15625 5.171875 -7 5.671875 -6.6875 C 6.171875 -6.382812 6.554688 -5.953125 6.828125 -5.390625 C 7.097656 -4.835938 7.234375 -4.203125 7.234375 -3.484375 C 7.234375 -2.765625 7.097656 -2.125 6.828125 -1.5625 C 6.554688 -1.007812 6.164062 -0.578125 5.65625 -0.265625 C 5.15625 0.0351562 4.5625 0.1875 3.875 0.1875 Z M 3.875 -0.890625 C 4.59375 -0.890625 5.128906 -1.128906 5.484375 -1.609375 C 5.835938 -2.097656 6.015625 -2.722656 6.015625 -3.484375 C 6.015625 -4.273438 5.832031 -4.90625 5.46875 -5.375 C 5.113281 -5.84375 4.582031 -6.078125 3.875 -6.078125 C 3.382812 -6.078125 2.984375 -5.96875 2.671875 -5.75 C 2.359375 -5.53125 2.125 -5.222656 1.96875 -4.828125 C 1.8125 -4.441406 1.734375 -3.992188 1.734375 -3.484375 C 1.734375 -2.703125 1.910156 -2.070312 2.265625 -1.59375 C 2.628906 -1.125 3.164062 -0.890625 3.875 -0.890625 Z M 3.875 -0.890625 "/></g></g><g style="fill:#000000;fill-opacity:1;"><g transform="translate(92.834774, 60.808958)"><path style="stroke:none" d="M 5.859375 0 L 5.859375 -3.484375 C 5.859375 -3.816406 5.828125 -4.132812 5.765625 -4.4375 C 5.710938 -4.75 5.613281 -5.023438 5.46875 -5.265625 C 5.332031 -5.515625 5.140625 -5.707031 4.890625 -5.84375 C 4.648438 -5.988281 4.34375 -6.0625 3.96875 -6.0625 C 3.6875 -6.0625 3.425781 -6.007812 3.1875 -5.90625 C 2.957031 -5.8125 2.757812 -5.664062 2.59375 -5.46875 C 2.425781 -5.269531 2.296875 -5.019531 2.203125 -4.71875 C 2.109375 -4.425781 2.0625 -4.078125 2.0625 -3.671875 L 1.296875 -3.90625 C 1.296875 -4.582031 1.414062 -5.160156 1.65625 -5.640625 C 1.90625 -6.128906 2.25 -6.503906 2.6875 -6.765625 C 3.132812 -7.023438 3.65625 -7.15625 4.25 -7.15625 C 4.707031 -7.15625 5.09375 -7.082031 5.40625 -6.9375 C 5.726562 -6.789062 5.992188 -6.597656 6.203125 -6.359375 C 6.410156 -6.128906 6.570312 -5.867188 6.6875 -5.578125 C 6.8125 -5.296875 6.898438 -5.003906 6.953125 -4.703125 C 7.003906 -4.398438 7.03125 -4.117188 7.03125 -3.859375 L 7.03125 0 Z M 0.890625 0 L 0.890625 -6.96875 L 1.921875 -6.96875 L 1.921875 -5.109375 L 2.0625 -5.109375 L 2.0625 0 Z M 0.890625 0 "/></g></g><g style="fill:#000000;fill-opacity:1;"><g transform="translate(100.635645, 60.808958)"><path style="stroke:none" d="M 3.53125 0.1875 C 2.707031 0.1875 2.03125 0.00390625 1.5 -0.359375 C 0.96875 -0.722656 0.640625 -1.234375 0.515625 -1.890625 L 1.6875 -2.078125 C 1.78125 -1.691406 2 -1.390625 2.34375 -1.171875 C 2.6875 -0.953125 3.109375 -0.84375 3.609375 -0.84375 C 4.085938 -0.84375 4.460938 -0.941406 4.734375 -1.140625 C 5.003906 -1.335938 5.140625 -1.601562 5.140625 -1.9375 C 5.140625 -2.132812 5.09375 -2.296875 5 -2.421875 C 4.90625 -2.546875 4.71875 -2.660156 4.4375 -2.765625 C 4.15625 -2.867188 3.734375 -3 3.171875 -3.15625 C 2.554688 -3.320312 2.070312 -3.492188 1.71875 -3.671875 C 1.363281 -3.847656 1.109375 -4.050781 0.953125 -4.28125 C 0.804688 -4.507812 0.734375 -4.789062 0.734375 -5.125 C 0.734375 -5.53125 0.84375 -5.882812 1.0625 -6.1875 C 1.289062 -6.5 1.601562 -6.738281 2 -6.90625 C 2.40625 -7.070312 2.875 -7.15625 3.40625 -7.15625 C 3.9375 -7.15625 4.410156 -7.070312 4.828125 -6.90625 C 5.242188 -6.738281 5.582031 -6.5 5.84375 -6.1875 C 6.101562 -5.882812 6.253906 -5.53125 6.296875 -5.125 L 5.125 -4.90625 C 5.070312 -5.28125 4.890625 -5.578125 4.578125 -5.796875 C 4.273438 -6.015625 3.882812 -6.128906 3.40625 -6.140625 C 2.957031 -6.148438 2.59375 -6.066406 2.3125 -5.890625 C 2.03125 -5.722656 1.890625 -5.488281 1.890625 -5.1875 C 1.890625 -5.019531 1.941406 -4.875 2.046875 -4.75 C 2.148438 -4.625 2.34375 -4.507812 2.625 -4.40625 C 2.914062 -4.300781 3.335938 -4.179688 3.890625 -4.046875 C 4.503906 -3.890625 4.988281 -3.71875 5.34375 -3.53125 C 5.695312 -3.351562 5.945312 -3.140625 6.09375 -2.890625 C 6.25 -2.640625 6.328125 -2.332031 6.328125 -1.96875 C 6.328125 -1.300781 6.078125 -0.773438 5.578125 -0.390625 C 5.085938 -0.00390625 4.40625 0.1875 3.53125 0.1875 Z M 3.53125 0.1875 "/></g></g><g style="fill:#000000;fill-opacity:1;"><g transform="translate(107.481574, 60.808958)"><path style="stroke:none" d=""/></g></g><g style="fill:#000000;fill-opacity:1;"><g transform="translate(110.062508, 60.808958)"><path style="stroke:none" d="M 3.296875 0 L 3.296875 -8.203125 L 0.125 -8.203125 L 0.125 -9.296875 L 7.609375 -9.296875 L 7.609375 -8.203125 L 4.453125 -8.203125 L 4.453125 0 Z M 3.296875 0 "/></g></g><g style="fill:#000000;fill-opacity:1;"><g transform="translate(117.805312, 60.808958)"><path style="stroke:none" d="M 3.921875 0.1875 C 3.234375 0.1875 2.632812 0.0351562 2.125 -0.265625 C 1.625 -0.566406 1.226562 -0.988281 0.9375 -1.53125 C 0.65625 -2.070312 0.515625 -2.707031 0.515625 -3.4375 C 0.515625 -4.195312 0.65625 -4.851562 0.9375 -5.40625 C 1.21875 -5.96875 1.609375 -6.398438 2.109375 -6.703125 C 2.609375 -7.003906 3.195312 -7.15625 3.875 -7.15625 C 4.570312 -7.15625 5.164062 -6.992188 5.65625 -6.671875 C 6.15625 -6.347656 6.523438 -5.890625 6.765625 -5.296875 C 7.015625 -4.703125 7.125 -3.988281 7.09375 -3.15625 L 5.9375 -3.15625 L 5.9375 -3.578125 C 5.914062 -4.429688 5.738281 -5.066406 5.40625 -5.484375 C 5.070312 -5.910156 4.570312 -6.125 3.90625 -6.125 C 3.195312 -6.125 2.65625 -5.894531 2.28125 -5.4375 C 1.914062 -4.988281 1.734375 -4.335938 1.734375 -3.484375 C 1.734375 -2.660156 1.914062 -2.019531 2.28125 -1.5625 C 2.65625 -1.113281 3.1875 -0.890625 3.875 -0.890625 C 4.332031 -0.890625 4.726562 -0.992188 5.0625 -1.203125 C 5.40625 -1.421875 5.675781 -1.726562 5.875 -2.125 L 6.96875 -1.75 C 6.695312 -1.125 6.289062 -0.644531 5.75 -0.3125 C 5.207031 0.0195312 4.597656 0.1875 3.921875 0.1875 Z M 1.34375 -3.15625 L 1.34375 -4.078125 L 6.5 -4.078125 L 6.5 -3.15625 Z M 1.34375 -3.15625 "/></g></g><g style="fill:#000000;fill-opacity:1;"><g transform="translate(125.425527, 60.808958)"><path style="stroke:none" d="M 3.84375 0.1875 C 3.132812 0.1875 2.53125 0.03125 2.03125 -0.28125 C 1.539062 -0.59375 1.164062 -1.023438 0.90625 -1.578125 C 0.65625 -2.140625 0.523438 -2.773438 0.515625 -3.484375 C 0.523438 -4.210938 0.660156 -4.851562 0.921875 -5.40625 C 1.191406 -5.957031 1.570312 -6.382812 2.0625 -6.6875 C 2.5625 -7 3.160156 -7.15625 3.859375 -7.15625 C 4.585938 -7.15625 5.21875 -6.972656 5.75 -6.609375 C 6.28125 -6.253906 6.640625 -5.765625 6.828125 -5.140625 L 5.6875 -4.796875 C 5.539062 -5.203125 5.300781 -5.515625 4.96875 -5.734375 C 4.644531 -5.960938 4.269531 -6.078125 3.84375 -6.078125 C 3.363281 -6.078125 2.96875 -5.960938 2.65625 -5.734375 C 2.34375 -5.515625 2.113281 -5.207031 1.96875 -4.8125 C 1.820312 -4.425781 1.742188 -3.984375 1.734375 -3.484375 C 1.742188 -2.710938 1.921875 -2.085938 2.265625 -1.609375 C 2.617188 -1.128906 3.144531 -0.890625 3.84375 -0.890625 C 4.300781 -0.890625 4.675781 -0.992188 4.96875 -1.203125 C 5.269531 -1.410156 5.5 -1.710938 5.65625 -2.109375 L 6.828125 -1.8125 C 6.578125 -1.164062 6.195312 -0.671875 5.6875 -0.328125 C 5.175781 0.015625 4.5625 0.1875 3.84375 0.1875 Z M 3.84375 0.1875 "/></g></g><g style="fill:#000000;fill-opacity:1;"><g transform="translate(132.665053, 60.808958)"><path style="stroke:none" d="M 5.859375 0 L 5.859375 -3.484375 C 5.859375 -3.816406 5.828125 -4.132812 5.765625 -4.4375 C 5.710938 -4.75 5.613281 -5.023438 5.46875 -5.265625 C 5.332031 -5.515625 5.140625 -5.707031 4.890625 -5.84375 C 4.648438 -5.988281 4.34375 -6.0625 3.96875 -6.0625 C 3.6875 -6.0625 3.425781 -6.007812 3.1875 -5.90625 C 2.957031 -5.8125 2.757812 -5.664062 2.59375 -5.46875 C 2.425781 -5.269531 2.296875 -5.019531 2.203125 -4.71875 C 2.109375 -4.425781 2.0625 -4.078125 2.0625 -3.671875 L 1.296875 -3.90625 C 1.296875 -4.582031 1.414062 -5.160156 1.65625 -5.640625 C 1.90625 -6.128906 2.25 -6.503906 2.6875 -6.765625 C 3.132812 -7.023438 3.65625 -7.15625 4.25 -7.15625 C 4.707031 -7.15625 5.09375 -7.082031 5.40625 -6.9375 C 5.726562 -6.789062 5.992188 -6.597656 6.203125 -6.359375 C 6.410156 -6.128906 6.570312 -5.867188 6.6875 -5.578125 C 6.8125 -5.296875 6.898438 -5.003906 6.953125 -4.703125 C 7.003906 -4.398438 7.03125 -4.117188 7.03125 -3.859375 L 7.03125 0 Z M 0.890625 0 L 0.890625 -9.296875 L 1.921875 -9.296875 L 1.921875 -4.15625 L 2.0625 -4.15625 L 2.0625 0 Z M 0.890625 0 "/></g></g></g></svg>