<svg width="432" height="429" viewBox="0 0 432 429" fill="none" xmlns="http://www.w3.org/2000/svg">
<path d="M430.113 85.0399C427.401 84.4439 424.504 85.2539 422.212 86.8199C419.92 88.3859 418.179 90.6489 416.816 93.0679C414.179 97.7479 413.481 103.892 413.628 109.261C419.569 108.715 424.416 103.775 426.717 101.115C430.356 96.9109 434.376 87.1029 430.113 85.0399Z" fill="black"/>
<path d="M404.232 113.34C406.582 111.317 407.504 107.899 406.836 104.871C406.168 101.842 404.058 99.2393 401.413 97.6193C400.19 96.8703 398.694 96.3033 397.34 96.7773C396.075 97.2213 395.245 98.5163 395.052 99.8423C394.859 101.169 395.21 102.518 395.713 103.761C397.438 108.024 399.889 111.831 404.232 113.34Z" fill="black"/>
<path d="M399.597 130.568C399.564 130.554 399.69 130.173 399.945 129.496C400.244 128.717 400.61 127.763 401.041 126.639C401.943 124.23 403.201 120.866 403.716 116.984C404.227 113.104 403.626 109.52 402.647 107.165C401.689 104.785 400.562 103.595 400.653 103.53C400.675 103.511 400.968 103.789 401.42 104.361C401.875 104.93 402.452 105.826 402.986 107.022C404.079 109.398 404.757 113.082 404.233 117.05C403.706 121.013 402.375 124.393 401.384 126.775C400.88 127.969 400.444 128.921 400.132 129.575C399.82 130.228 399.63 130.582 399.597 130.568Z" fill="#EBEBEB"/>
<path d="M426.39 92.239C426.404 92.25 426.317 92.392 426.137 92.651C425.918 92.956 425.652 93.325 425.333 93.77C424.572 94.798 423.554 96.172 422.318 97.841C419.767 101.274 416.26 106.028 412.459 111.331C408.659 116.637 405.286 121.488 402.857 125.008C401.675 126.715 400.701 128.121 399.973 129.172C399.655 129.618 399.391 129.988 399.172 130.294C398.984 130.547 398.878 130.676 398.863 130.666C398.848 130.656 398.925 130.509 399.084 130.237C399.28 129.916 399.518 129.529 399.804 129.061C400.437 128.045 401.375 126.59 402.552 124.803C404.905 121.228 408.233 116.34 412.036 111.028C415.84 105.72 419.397 100.997 422.025 97.619C423.338 95.93 424.415 94.573 425.173 93.647C425.523 93.226 425.815 92.876 426.055 92.587C426.26 92.349 426.375 92.228 426.39 92.239Z" fill="#EBEBEB"/>
<path d="M408.554 119.775C413.467 115.461 420.546 113.75 426.887 115.346C428.502 115.752 430.311 116.644 430.547 118.292C430.783 119.943 429.287 121.311 427.828 122.12C421.759 125.486 413.641 124.677 408.355 120.181" fill="black"/>
<path d="M423.069 118.557C423.053 118.663 421.541 118.367 419.088 118.424C417.862 118.441 416.408 118.608 414.822 118.924C413.243 119.274 411.537 119.794 409.828 120.548C408.129 121.325 406.607 122.255 405.296 123.203C404.006 124.179 402.915 125.155 402.088 126.06C400.416 127.856 399.633 129.183 399.544 129.124C399.513 129.105 399.697 128.769 400.057 128.174C400.232 127.873 400.46 127.513 400.766 127.125C401.067 126.733 401.385 126.264 401.815 125.813C402.621 124.861 403.707 123.837 405.007 122.82C406.329 121.831 407.878 120.867 409.614 120.074C411.36 119.303 413.109 118.786 414.726 118.455C416.35 118.158 417.837 118.027 419.084 118.057C419.708 118.035 420.269 118.109 420.762 118.144C421.256 118.173 421.676 118.242 422.018 118.311C422.702 118.435 423.075 118.521 423.069 118.557Z" fill="#EBEBEB"/>
<path d="M4.2992 24.3183C2.6012 26.5143 2.0952 29.4803 2.5312 32.2223C2.9672 34.9643 4.2692 37.5053 5.8732 39.7713C8.9772 44.1553 14.2322 47.4133 19.1492 49.5753C21.1952 43.9713 18.8012 37.4783 17.3802 34.2603C15.1342 29.1743 7.9862 21.3463 4.2992 24.3183Z" fill="black"/>
<path d="M18.8194 59.8118C17.9954 56.8218 15.2994 54.5278 12.2764 53.8368C9.25241 53.1458 5.99741 53.9408 3.40241 55.6388C2.20241 56.4238 1.04941 57.5348 0.90041 58.9608C0.76041 60.2938 1.57641 61.5988 2.69341 62.3398C3.81041 63.0808 5.18041 63.3408 6.51841 63.4178C11.1084 63.6808 15.5994 63.0928 18.8194 59.8118Z" fill="black"/>
<path d="M32.411 71.3668C32.384 71.3908 32.094 71.1138 31.59 70.5938C31.013 69.9898 30.307 69.2518 29.476 68.3808C27.683 66.5358 25.18 63.9608 21.891 61.8358C18.602 59.7148 15.105 58.7268 12.558 58.6058C9.99605 58.4548 8.43905 58.9648 8.42005 58.8548C8.41205 58.8268 8.78905 58.6808 9.49905 58.5168C10.208 58.3488 11.265 58.2108 12.574 58.2378C15.19 58.2658 18.809 59.2278 22.172 61.3978C25.529 63.5688 28.016 66.2158 29.746 68.1308C30.61 69.0968 31.284 69.8978 31.742 70.4598C32.199 71.0208 32.438 71.3428 32.411 71.3668Z" fill="#EBEBEB"/>
<path d="M9.21546 30.7601C9.23146 30.7521 9.32246 30.8911 9.47946 31.1641C9.66146 31.4931 9.88246 31.8911 10.1475 32.3701C10.7515 33.4971 11.5585 35.0051 12.5395 36.8361C14.5525 40.6101 17.3505 45.8131 20.5205 51.5151C23.6935 57.2191 26.6365 62.3411 28.7805 66.0421C29.8185 67.8411 30.6735 69.3221 31.3125 70.4301C31.5795 70.9081 31.8015 71.3051 31.9845 71.6331C32.1335 71.9111 32.2035 72.0621 32.1885 72.0711C32.1735 72.0801 32.0725 71.9481 31.8945 71.6871C31.6885 71.3731 31.4395 70.9921 31.1395 70.5341C30.4915 69.5281 29.5775 68.0571 28.4645 66.2291C26.2385 62.5741 23.2415 57.4751 20.0665 51.7671C16.8935 46.0591 14.1445 40.8241 12.2135 37.0051C11.2475 35.0951 10.4815 33.5431 9.96846 32.4611C9.73746 31.9641 9.54546 31.5521 9.38746 31.2111C9.25846 30.9241 9.19946 30.7681 9.21546 30.7601Z" fill="#EBEBEB"/>
<path d="M26.4844 58.6565C24.6844 52.3705 26.1644 45.2405 30.3174 40.1895C31.3754 38.9035 32.9544 37.6485 34.5454 38.1405C36.1394 38.6325 36.7354 40.5705 36.8434 42.2345C37.2924 49.1595 33.0904 56.1535 26.7654 59.0095" fill="black"/>
<path d="M31.5861 45.0128C31.6751 45.0718 30.7611 46.3128 29.7641 48.5548C29.2551 49.6708 28.7851 51.0568 28.3931 52.6248C28.0351 54.2018 27.7751 55.9668 27.7271 57.8338C27.7031 59.7018 27.8931 61.4757 28.1901 63.0657C28.5211 64.6487 28.9371 66.0517 29.4021 67.1867C30.3111 69.4657 31.1761 70.7407 31.0851 70.7967C31.0551 70.8167 30.8301 70.5066 30.4461 69.9266C30.2481 69.6396 30.0211 69.2797 29.8001 68.8367C29.5741 68.3977 29.2861 67.9097 29.0621 67.3277C28.5461 66.1917 28.0841 64.7727 27.7201 63.1617C27.3911 61.5447 27.1821 59.7317 27.2071 57.8227C27.2571 55.9147 27.5361 54.1117 27.9281 52.5097C28.3541 50.9147 28.8711 49.5148 29.4311 48.3998C29.6781 47.8268 29.9851 47.3507 30.2271 46.9207C30.4641 46.4867 30.7061 46.1357 30.9151 45.8567C31.3201 45.2917 31.5571 44.9918 31.5861 45.0128Z" fill="#EBEBEB"/>
<path d="M115.724 428.911C118.318 429.901 121.303 429.527 123.801 428.316C126.299 427.105 128.355 425.123 130.059 422.932C133.357 418.692 134.954 412.719 135.6 407.386C129.644 407.05 124.121 411.221 121.453 413.512C117.236 417.134 111.812 426.242 115.724 428.911Z" fill="#E0E0E0"/>
<path d="M145.497 404.738C142.874 406.393 141.458 409.637 141.672 412.731C141.886 415.825 143.589 418.711 145.966 420.703C147.065 421.624 148.461 422.406 149.87 422.137C151.187 421.885 152.199 420.726 152.585 419.443C152.971 418.159 152.823 416.773 152.509 415.469C151.432 410.998 149.57 406.87 145.497 404.738Z" fill="#E0E0E0"/>
<path d="M152.622 388.382C152.653 388.401 152.472 388.759 152.12 389.391C151.709 390.118 151.206 391.007 150.614 392.055C149.367 394.305 147.626 397.446 146.544 401.21C145.466 404.972 145.532 408.605 146.153 411.079C146.75 413.575 147.689 414.918 147.589 414.968C147.565 414.984 147.316 414.666 146.953 414.033C146.587 413.403 146.149 412.431 145.796 411.17C145.065 408.658 144.938 404.916 146.042 401.068C147.148 397.226 148.963 394.08 150.295 391.87C150.97 390.764 151.541 389.886 151.946 389.286C152.352 388.686 152.592 388.364 152.622 388.382Z" fill="#EBEBEB"/>
<path d="M120.468 422.34C120.456 422.327 120.563 422.2 120.779 421.97C121.041 421.7 121.358 421.374 121.74 420.982C122.644 420.078 123.854 418.868 125.322 417.4C128.351 414.381 132.522 410.196 137.063 405.512C141.604 400.824 145.655 396.524 148.578 393.401C149.999 391.887 151.17 390.64 152.045 389.708C152.425 389.314 152.741 388.987 153.002 388.717C153.225 388.494 153.349 388.383 153.362 388.395C153.375 388.407 153.278 388.542 153.08 388.787C152.839 389.075 152.547 389.424 152.195 389.844C151.419 390.755 150.277 392.056 148.849 393.65C145.995 396.839 141.982 401.183 137.437 405.875C132.892 410.564 128.677 414.711 125.58 417.664C124.032 419.141 122.767 420.324 121.881 421.129C121.472 421.494 121.133 421.797 120.852 422.047C120.612 422.251 120.48 422.353 120.468 422.34Z" fill="#EBEBEB"/>
<path d="M142.17 397.736C136.674 401.278 129.42 401.926 123.384 399.413C121.847 398.773 120.189 397.624 120.199 395.959C120.209 394.291 121.891 393.159 123.453 392.574C129.952 390.14 137.862 392.137 142.427 397.364" fill="black"/>
<path d="M127.635 396.801C127.666 396.699 129.118 397.215 131.553 397.52C132.768 397.684 134.231 397.733 135.846 397.654C137.459 397.54 139.224 397.278 141.025 396.784C142.82 396.266 144.463 395.57 145.899 394.827C147.319 394.052 148.541 393.248 149.493 392.475C151.412 390.945 152.382 389.748 152.461 389.819C152.489 389.842 152.258 390.147 151.813 390.682C151.596 390.954 151.317 391.277 150.957 391.615C150.602 391.958 150.218 392.375 149.726 392.758C148.788 393.581 147.564 394.434 146.127 395.248C144.674 396.031 143 396.756 141.165 397.285C139.325 397.79 137.518 398.044 135.87 398.133C134.22 398.187 132.73 398.098 131.501 397.884C130.881 397.813 130.336 397.658 129.854 397.55C129.37 397.448 128.964 397.319 128.637 397.2C127.98 396.975 127.624 396.835 127.635 396.801Z" fill="#EBEBEB"/>
<path d="M326.733 304.286C329.833 299.719 328.644 293.504 324.077 290.404C319.51 287.304 313.295 288.494 310.195 293.061C307.095 297.627 308.285 303.842 312.852 306.942C317.418 310.042 323.633 308.853 326.733 304.286Z" fill="#EBEBEB"/>
<path d="M356.431 278.619C356.439 284.139 351.97 288.619 346.451 288.627C340.931 288.635 336.451 284.166 336.443 278.647C336.435 273.127 340.904 268.647 346.423 268.639C351.942 268.631 356.423 273.099 356.431 278.619Z" fill="#EBEBEB"/>
<path d="M356.489 320.979C356.497 326.984 352.03 331.859 346.51 331.866C340.99 331.873 336.508 327.012 336.5 321.006C336.492 315.001 340.96 310.126 346.48 310.119C352 310.112 356.481 314.974 356.489 320.979Z" fill="#EBEBEB"/>
<path d="M343.547 319.711C343.12 320.34 336.472 316.565 328.701 311.281C320.927 305.996 314.973 301.203 315.401 300.574C315.828 299.946 322.474 303.72 330.248 309.005C338.019 314.289 343.974 319.083 343.547 319.711Z" fill="#EBEBEB"/>
<path d="M344.343 277.932C344.808 278.533 339.676 283.289 332.881 288.553C326.084 293.82 320.198 297.601 319.732 297C319.267 296.4 324.398 291.645 331.195 286.378C337.991 281.113 343.878 277.331 344.343 277.932Z" fill="#EBEBEB"/>
<path d="M288.826 182.168C288.97 182.168 289.086 184.855 289.086 188.168C289.086 191.482 288.969 194.168 288.826 194.168C288.683 194.168 288.566 191.482 288.566 188.168C288.566 184.855 288.683 182.168 288.826 182.168Z" fill="black"/>
<path d="M288.826 158.168C288.97 158.168 289.086 160.855 289.086 164.168C289.086 167.482 288.969 170.168 288.826 170.168C288.683 170.168 288.566 167.482 288.566 164.168C288.566 160.855 288.683 158.168 288.826 158.168Z" fill="black"/>
<path d="M288.826 134.168C288.97 134.168 289.086 136.855 289.086 140.168C289.086 143.482 288.969 146.168 288.826 146.168C288.683 146.168 288.566 143.482 288.566 140.168C288.566 136.855 288.683 134.168 288.826 134.168Z" fill="black"/>
<path d="M288.826 110.168C288.97 110.168 289.086 112.855 289.086 116.168C289.086 119.482 288.969 122.168 288.826 122.168C288.683 122.168 288.566 119.482 288.566 116.168C288.566 112.855 288.683 110.168 288.826 110.168Z" fill="black"/>
<path d="M288.826 86.168C288.97 86.168 289.086 88.855 289.086 92.168C289.086 95.482 288.969 98.168 288.826 98.168C288.683 98.168 288.566 95.482 288.566 92.168C288.566 88.855 288.683 86.168 288.826 86.168Z" fill="black"/>
<path d="M281.996 68.9963C281.996 68.8523 284.682 68.7363 287.996 68.7363C288.28 68.7373 288.559 68.7383 288.826 68.7393L289.086 68.7403L289.085 68.9973C289.067 71.9223 288.959 74.1673 288.827 74.1673C288.696 74.1673 288.587 71.9223 288.569 68.9973L288.827 69.2553C288.559 69.2563 288.281 69.2573 287.997 69.2583C284.683 69.2573 281.996 69.1403 281.996 68.9963Z" fill="black"/>
<path d="M257.996 68.9963C257.996 68.8523 260.682 68.7363 263.996 68.7363C267.31 68.7363 269.996 68.8533 269.996 68.9963C269.996 69.1403 267.31 69.2563 263.996 69.2563C260.683 69.2573 257.996 69.1403 257.996 68.9963Z" fill="black"/>
<path d="M247.563 55.4316C247.707 55.4316 247.823 58.1186 247.823 61.4316C247.823 64.7456 247.706 67.4316 247.563 67.4316C247.42 67.4316 247.303 64.7456 247.303 61.4316C247.303 58.1186 247.42 55.4316 247.563 55.4316Z" fill="black"/>
<path d="M247.563 36.1719C247.707 36.1719 247.823 37.7969 247.823 39.8019C247.823 41.8069 247.706 43.4329 247.563 43.4329C247.42 43.4329 247.303 41.8079 247.303 39.8019C247.303 37.7969 247.42 36.1719 247.563 36.1719Z" fill="black"/>
<path d="M102.82 308.389C102.82 308.245 104.163 308.129 105.819 308.129C107.476 308.129 108.818 308.246 108.818 308.389C108.818 308.532 107.475 308.649 105.819 308.649C104.163 308.649 102.82 308.533 102.82 308.389Z" fill="black"/>
<path d="M76.6523 308.389C76.6523 308.245 79.5813 308.129 83.1933 308.129C86.8059 308.129 89.7349 308.246 89.7349 308.389C89.7349 308.532 86.8069 308.649 83.1933 308.649C79.5813 308.649 76.6523 308.533 76.6523 308.389Z" fill="black"/>
<path d="M50.4824 308.389C50.4824 308.245 53.4114 308.129 57.0234 308.129C60.6374 308.129 63.5654 308.246 63.5654 308.389C63.5654 308.532 60.6374 308.649 57.0234 308.649C53.4114 308.649 50.4824 308.533 50.4824 308.389Z" fill="black"/>
<path d="M31.4076 302.389C31.5516 302.389 31.6676 305.075 31.6676 308.388C31.7236 308.446 31.1746 307.896 31.4086 308.129H31.4116H31.4166H31.4266H31.4456H31.4846H31.5616H31.7156L32.0206 308.13C32.2216 308.131 32.4196 308.133 32.6166 308.134C32.9996 308.139 33.3736 308.144 33.7426 308.149C34.3986 308.168 35.0326 308.187 35.6496 308.205C36.7356 308.252 37.4066 308.317 37.4066 308.389C37.4066 308.461 36.7356 308.526 35.6496 308.573C35.0326 308.591 34.3986 308.61 33.7426 308.629C33.3736 308.634 32.9996 308.639 32.6166 308.644C32.4196 308.645 32.2216 308.647 32.0206 308.648L31.7156 308.649H31.5616H31.4846H31.4456H31.4266H31.4166H31.4116H31.4086C31.6406 308.882 31.0906 308.332 31.1466 308.387C31.1476 305.075 31.2636 302.389 31.4076 302.389Z" fill="black"/>
<path d="M31.4065 279.123C31.5505 279.123 31.6665 281.727 31.6665 284.939C31.6665 288.152 31.5495 290.755 31.4065 290.755C31.2625 290.755 31.1465 288.151 31.1465 284.939C31.1465 281.728 31.2625 279.123 31.4065 279.123Z" fill="black"/>
<path d="M31.4065 255.859C31.5505 255.859 31.6665 258.463 31.6665 261.675C31.6665 264.888 31.5495 267.491 31.4065 267.491C31.2625 267.491 31.1465 264.887 31.1465 261.675C31.1465 258.463 31.2625 255.859 31.4065 255.859Z" fill="black"/>
<path d="M31.4065 238.227C31.5505 238.227 31.6665 239.57 31.6665 241.227C31.6665 242.884 31.5495 244.227 31.4065 244.227C31.2625 244.227 31.1465 242.884 31.1465 241.227C31.1465 239.571 31.2625 238.227 31.4065 238.227Z" fill="black"/>
<path d="M76.8865 231.305C78.2275 227.362 76.8215 222.643 73.5395 220.078C71.8885 218.788 69.8245 218.09 67.7335 218.001C64.4885 217.864 61.6685 215.951 60.3565 212.98C58.2275 208.16 53.9935 204.23 48.9005 202.803C41.6245 200.764 33.1945 204 29.1505 210.384C28.0325 212.15 27.1265 214.217 25.3025 215.238C22.9775 216.54 20.1095 215.66 17.4505 215.492C9.56349 214.995 2.09349 223.412 2.50449 231.304H76.8865V231.305Z" fill="#F5F5F5"/>
<path d="M280.57 36.1719C281.912 32.2289 280.505 27.5099 277.223 24.9449C275.572 23.6549 273.507 22.9569 271.417 22.8679C268.172 22.7309 265.352 20.8179 264.04 17.8469C261.911 13.0269 257.677 9.09695 252.584 7.66995C245.308 5.63095 236.878 8.86695 232.834 15.2509C231.716 17.0169 230.81 19.0839 228.986 20.1049C226.661 21.4069 223.793 20.5269 221.134 20.3589C213.247 19.8619 205.777 28.2789 206.188 36.1709L280.57 36.1719Z" fill="#F5F5F5"/>
<path d="M396.767 215.789C422.852 189.703 422.852 147.41 396.767 121.324C370.681 95.2385 328.388 95.2385 302.302 121.324C276.217 147.41 276.217 189.703 302.302 215.789C328.388 241.874 370.681 241.874 396.767 215.789Z" fill="black"/>
<path d="M266.997 345.249C265.411 385.424 235.825 418.669 195.627 419.451C155.429 420.233 122.207 388.279 121.426 348.081C120.644 307.882 152.709 270.796 192.796 273.879C235.553 277.167 268.444 308.595 266.997 345.249Z" fill="black"/>
<path d="M130.485 153.159C157.084 126.561 157.084 83.4354 130.485 56.8363C103.885 30.2371 60.7605 30.2368 34.1618 56.8356C7.56295 83.4343 7.56335 126.559 34.1625 153.159C60.7616 179.758 103.887 179.758 130.485 153.159Z" fill="black"/>
<path d="M340.915 184.3C341.972 185.275 316.162 214.98 283.273 250.641C250.373 286.313 222.854 314.432 221.797 313.456C220.74 312.482 246.545 282.782 279.445 247.11C312.334 211.45 339.859 183.325 340.915 184.3Z" fill="black"/>
<path d="M327.226 135.863C326.92 137.269 281.437 128.565 225.649 116.427C169.842 104.285 124.864 93.3058 125.17 91.9008C125.476 90.4958 170.949 99.1968 226.756 111.339C282.545 123.477 327.532 134.458 327.226 135.863Z" fill="black"/>
<path d="M161.418 300.398C160.821 300.768 153.747 290.65 143.033 273.832C132.318 257.017 118.021 233.465 102.967 207.027C87.9159 180.576 74.9631 156.256 65.9761 138.457C56.9851 120.658 51.8981 109.412 52.5221 109.088C53.1741 108.748 59.4131 119.387 69.2221 136.719C79.0241 154.066 92.5499 178.005 107.493 204.451C122.598 230.793 136.274 254.644 146.185 271.928C156.079 289.213 162.043 300.011 161.418 300.398Z" fill="black"/>
<path d="M374.613 76.4727C374.961 82.1797 375.353 83.9117 377.469 88.4627C378.724 91.1617 380.49 93.6626 381.187 96.5556C381.849 99.3056 381.492 102.207 382 104.99C382.828 109.532 385.84 113.31 388.102 117.334C390.365 121.359 391.89 126.452 389.643 130.486L366.508 127.754L364.877 99.0307L374.613 76.4727Z" fill="black"/>
<path d="M328.616 66.7344C325.621 73.0884 329.785 79.4424 326.79 85.7954C325.306 88.9444 323.811 92.1214 323.019 95.5114C322.305 98.5654 322.162 101.783 320.916 104.662C318.932 109.25 314.426 112.352 312.339 116.894C309.247 123.624 312.532 132.055 318.442 136.518C324.351 140.981 332.196 142.094 339.583 141.577C344.061 141.264 348.602 140.37 352.456 138.067C356.31 135.765 359.4 131.872 359.887 127.41" fill="black"/>
<path d="M362.922 55.4238C377.811 62.0238 380.77 86.4758 380.844 89.7688C380.933 93.6958 383.024 94.5088 385.634 96.5618C388.244 98.6148 390.771 101.103 391.493 104.29C392.061 106.798 391.465 109.572 392.666 111.861C394.1 114.594 397.494 115.609 400.129 117.296C405.107 120.484 407.564 126.48 407.839 132.269C408.114 138.058 406.523 143.759 404.945 149.348C404.32 151.564 403.541 153.985 401.532 155.194C399.983 156.126 398.045 156.115 396.224 156.074C386.799 155.864 377.375 155.653 367.95 155.443C360.739 155.282 353.336 155.084 346.671 152.404C341.254 150.226 336.505 146.383 333.602 141.433C330.699 136.482 329.725 130.429 331.248 124.927C332.423 120.685 334.998 116.854 335.742 112.521C336.663 107.156 332.164 104.86 330.534 99.6558C328.903 94.4518 327.556 81.9688 329.79 76.9808" fill="black"/>
<path d="M379.94 190.245L375.29 175.343L374.612 198.096C374.612 198.096 380.643 213.641 385.237 225.522C376.014 231.025 365.391 234.492 353.934 235.215C339.687 236.114 326.174 232.662 314.677 226.015L321.838 200.286L318.425 171.187L308.978 184.697L288.826 165.216C288.826 165.216 303.577 137.96 305.406 135.473C317.069 119.618 337.218 119.997 337.218 119.997L365.724 121.576C365.724 121.576 381.754 120.679 392.283 133.364C392.283 133.364 402.574 149.071 411.027 187.836L379.94 190.245Z" fill="#00C5FF"/>
<path d="M394.195 137.627C394.196 137.635 394.055 137.657 393.781 137.692C393.508 137.737 393.096 137.75 392.568 137.857C391.505 138.018 389.944 138.38 388.048 139.16C386.173 139.966 383.944 141.216 381.833 143.24C380.781 144.249 379.757 145.44 378.863 146.833C377.991 148.228 377.131 149.803 376.796 151.598C376.633 152.488 376.622 153.439 376.886 154.339C377.153 155.228 377.734 156.056 378.526 156.615C379.306 157.182 380.365 157.419 381.292 157.051C382.222 156.702 382.908 155.814 383.211 154.819C383.525 153.815 383.475 152.691 382.991 151.71C382.528 150.719 381.746 149.87 380.825 149.192C378.968 147.837 376.648 147.001 374.222 146.735C371.787 146.457 369.239 146.736 366.745 147.401C364.257 148.084 361.746 149.021 359.461 150.441C357.187 151.862 355.025 153.659 353.433 155.929C352.666 157.063 352.026 158.36 351.994 159.72C351.982 160.392 352.14 161.066 352.502 161.636C352.856 162.21 353.375 162.682 353.959 163.062L353.912 163.038C354.573 163.284 355.311 163.395 355.949 163.123C356.589 162.862 357.075 162.271 357.402 161.599C358.055 160.235 358.24 158.618 358.245 157.041C358.228 155.483 358.05 153.902 357.498 152.481C356.959 151.051 356.058 149.774 354.966 148.73C352.771 146.624 349.86 145.407 346.931 145.109C343.988 144.788 341.049 145.251 338.319 146.079C335.612 146.914 332.9 148.018 331.161 150.087C330.337 151.111 329.72 152.382 329.883 153.655C330.019 154.916 330.658 156.135 331.626 156.906C332.106 157.291 332.673 157.56 333.261 157.62C333.847 157.681 334.442 157.532 334.945 157.215C335.967 156.586 336.435 155.363 336.539 154.197C336.649 153.014 336.491 151.819 336.153 150.715C335.973 150.164 335.733 149.631 335.53 149.096C335.419 148.832 335.33 148.559 335.203 148.305L334.799 147.559C333.786 145.544 332.387 143.853 330.928 142.401C327.95 139.528 324.571 137.688 321.434 136.717C318.294 135.732 315.421 135.458 313.109 135.613C310.794 135.767 309.03 136.204 307.871 136.582C307.312 136.783 306.876 136.939 306.56 137.053C306.263 137.157 306.105 137.198 306.105 137.198C306.105 137.198 306.248 137.124 306.539 137.005C306.852 136.879 307.283 136.706 307.837 136.484C308.992 136.071 310.762 135.598 313.097 135.412C315.429 135.225 318.336 135.47 321.522 136.441C324.705 137.398 328.142 139.236 331.185 142.139C332.677 143.606 334.11 145.321 335.154 147.372L335.569 148.132C335.7 148.39 335.792 148.669 335.907 148.938C336.118 149.485 336.363 150.023 336.552 150.594C336.908 151.745 337.08 152.983 336.968 154.242C336.864 155.473 336.367 156.854 335.181 157.594C334.614 157.956 333.905 158.143 333.215 158.071C332.522 158.003 331.874 157.692 331.339 157.266C330.263 156.407 329.573 155.101 329.415 153.703C329.33 153.007 329.442 152.258 329.712 151.609C329.967 150.949 330.339 150.333 330.79 149.784C332.646 147.576 335.435 146.459 338.174 145.604C340.948 144.758 343.951 144.276 346.986 144.603C350.009 144.908 353.036 146.163 355.325 148.358C356.466 149.447 357.414 150.786 357.984 152.296C358.57 153.811 358.746 155.431 358.766 157.04C358.757 158.671 358.58 160.335 357.868 161.83C357.511 162.563 356.953 163.272 356.146 163.604C355.337 163.945 354.453 163.795 353.725 163.522L353.7 163.513L353.678 163.498C353.047 163.087 352.466 162.564 352.06 161.906C351.645 161.254 351.461 160.468 351.477 159.713C351.519 158.183 352.213 156.821 353.01 155.64C354.668 153.284 356.872 151.466 359.196 150.016C361.541 148.565 364.088 147.621 366.619 146.933C369.159 146.263 371.766 145.981 374.271 146.274C376.771 146.557 379.153 147.42 381.085 148.839C382.044 149.551 382.877 150.454 383.375 151.529C383.897 152.596 383.952 153.857 383.602 154.942C383.266 156.026 382.506 157.023 381.429 157.424C380.357 157.843 379.15 157.554 378.301 156.929C377.435 156.31 376.817 155.417 376.529 154.443C376.249 153.468 376.271 152.464 376.446 151.535C376.81 149.663 377.697 148.076 378.593 146.663C379.513 145.254 380.562 144.054 381.638 143.041C383.796 141.01 386.065 139.771 387.969 138.985C389.894 138.225 391.474 137.891 392.547 137.761C393.628 137.624 394.195 137.627 394.195 137.627Z" fill="#FAFAFA"/>
<path d="M406.276 170.207C406.301 170.271 405.273 170.498 403.689 171.457C402.126 172.393 399.975 174.191 398.577 177.184C398.22 177.923 397.958 178.745 397.753 179.613C397.533 180.478 397.472 181.407 397.747 182.299C397.879 182.737 398.118 183.149 398.474 183.403C398.833 183.642 399.316 183.715 399.735 183.542C400.589 183.184 401.16 182.181 401.257 181.159C401.531 179.08 400.271 176.764 398.218 175.758C396.151 174.74 393.448 175.026 391.424 176.398C389.374 177.784 388.098 180.041 387.578 182.305C387.318 183.426 387.291 184.63 387.845 185.544C388.375 186.462 389.502 187.002 390.414 186.557C391.329 186.144 391.88 185.144 391.87 184.175C391.884 183.192 391.505 182.245 391.008 181.443C390.004 179.821 388.475 178.724 386.953 178.176C385.42 177.617 383.888 177.61 382.63 177.916C381.367 178.222 380.356 178.763 379.623 179.313C378.145 180.427 377.685 181.407 377.628 181.357C377.62 181.352 377.648 181.294 377.71 181.184C377.774 181.075 377.862 180.908 378.01 180.711C378.292 180.308 378.76 179.737 379.5 179.152C380.232 178.564 381.257 177.978 382.56 177.633C383.856 177.288 385.464 177.266 387.075 177.829C388.676 178.381 390.293 179.507 391.374 181.215C391.905 182.06 392.331 183.067 392.327 184.182C392.342 185.285 391.727 186.485 390.608 186.995C390.055 187.253 389.367 187.267 388.794 187.016C388.217 186.773 387.746 186.331 387.42 185.803C386.758 184.709 386.813 183.373 387.079 182.194C387.618 179.823 388.943 177.45 391.132 175.967C393.303 174.5 396.183 174.188 398.442 175.301C400.692 176.422 402.038 178.914 401.733 181.22C401.605 182.353 401 183.508 399.898 183.97C399.342 184.192 398.696 184.098 398.219 183.769C397.747 183.426 397.48 182.92 397.334 182.427C397.034 181.437 397.126 180.406 397.36 179.524C397.581 178.629 397.865 177.784 398.242 177.029C399.726 173.969 401.966 172.181 403.585 171.283C405.229 170.362 406.276 170.207 406.276 170.207Z" fill="#FAFAFA"/>
<path d="M374.727 184.592C374.724 184.601 374.64 184.586 374.479 184.548C374.289 184.501 374.055 184.443 373.767 184.371C373.138 184.234 372.21 184.021 370.994 183.904C368.59 183.653 364.937 183.684 360.881 185.318C359.872 185.719 358.849 186.233 357.847 186.858C356.858 187.492 355.886 188.277 355.204 189.322C354.514 190.355 354.235 191.699 354.699 192.94C354.917 193.547 355.287 194.123 355.818 194.497C356.338 194.883 357.022 195.025 357.67 194.897C358.975 194.612 360.06 193.352 360.239 191.949C360.439 190.513 359.898 189.017 359.081 187.728C357.424 185.123 354.647 183.106 351.462 182.318C348.269 181.517 344.893 182.145 342.228 183.705C340.902 184.481 339.69 185.486 338.826 186.656C338.419 187.26 338.096 187.923 337.943 188.611C337.783 189.29 337.792 190.018 338.108 190.585C338.406 191.164 339.007 191.546 339.635 191.603C340.272 191.652 340.927 191.442 341.451 191.077C342.56 190.361 342.909 188.979 342.798 187.76C342.694 186.516 342.21 185.362 341.634 184.342C341.033 183.333 340.334 182.433 339.547 181.691C337.977 180.2 336.197 179.269 334.572 178.714C332.937 178.16 331.433 178.006 330.22 178.034C327.774 178.083 326.511 178.729 326.492 178.636C326.489 178.628 326.567 178.594 326.722 178.536C326.908 178.47 327.136 178.39 327.417 178.29C328.037 178.105 328.978 177.884 330.214 177.832C331.446 177.773 332.982 177.899 334.661 178.438C336.329 178.979 338.165 179.907 339.799 181.425C340.618 182.18 341.35 183.102 341.981 184.143C342.586 185.195 343.103 186.388 343.227 187.726C343.29 188.39 343.233 189.091 343.002 189.758C342.78 190.429 342.313 191.045 341.711 191.456C341.114 191.875 340.369 192.129 339.592 192.074C338.814 192.008 338.057 191.534 337.686 190.817C337.291 190.105 337.294 189.255 337.466 188.506C337.634 187.742 337.979 187.03 338.417 186.376C339.356 185.1 340.585 184.088 341.972 183.267C344.737 181.639 348.253 180.979 351.587 181.815C354.905 182.637 357.786 184.733 359.513 187.458C360.365 188.811 360.958 190.413 360.733 192.021C360.509 193.622 359.319 195.026 357.766 195.37C356.992 195.523 356.158 195.342 355.544 194.881C354.918 194.432 354.508 193.773 354.267 193.094C354.032 192.409 353.96 191.681 354.074 190.984C354.182 190.278 354.486 189.656 354.841 189.09C355.585 187.971 356.609 187.166 357.632 186.522C358.667 185.889 359.71 185.378 360.744 184.98C364.892 183.361 368.597 183.392 371.017 183.707C373.468 184.024 374.727 184.592 374.727 184.592Z" fill="#FAFAFA"/>
<path d="M263.02 101.238C265.096 101.347 264.503 112.651 266.038 110.259C267.572 107.866 265.156 96.3897 267.319 96.5917C270.136 96.8557 269.299 108.685 269.302 109.69C269.305 110.666 270.757 110.687 270.705 109.781C270.631 108.479 270.196 94.7817 272.966 95.0147C274.502 95.1437 273.943 97.8877 273.943 97.8877C273.943 97.8877 273.406 110.759 274.719 110.825C276.051 110.892 276.621 103.34 276.634 100.784C276.646 98.2587 277.852 97.2067 278.966 98.1117C279.725 98.7287 279.873 106.553 279.801 109.081C279.73 111.609 279.412 118.545 282.347 115.181C285.283 111.818 288.777 110.307 289.99 110.549C291.203 110.791 291.264 112.577 290.009 113.155C288.995 113.623 287.534 114.92 286.474 115.94C285.601 116.78 284.976 117.819 284.315 118.831C283.61 119.91 283.345 120.603 282.769 122.415L286.702 169.56L289.59 165.954L306.066 181.881L297.468 191.773C291.169 199.02 279.775 199.487 273.374 192.329C273.141 192.068 272.917 191.8 272.701 191.525C271.103 189.483 270.249 186.955 270.031 184.371L264.589 123.247L264.541 123.249C264.422 116.456 262.578 111.293 262.257 107.791C261.663 101.276 262.248 101.198 263.02 101.238Z" fill="#FFBE9D"/>
<path d="M339.178 126.434C339.238 119.325 339.172 111.839 339.172 111.839C339.172 111.839 330.031 110.212 328.272 98.2423C326.594 86.8263 329.44 62.2723 329.44 62.2723C342.683 57.0493 357.593 59.0693 366.87 69.7283L365.428 127.46C365.26 134.162 359.364 139.356 352.19 139.122C344.943 138.885 339.121 133.207 339.178 126.434Z" fill="#FFBE9D"/>
<path d="M331.927 81.1254C331.889 81.9344 332.543 82.6334 333.387 82.6884C334.229 82.7434 334.944 82.1344 334.982 81.3254C335.02 80.5164 334.367 79.8164 333.524 79.7614C332.681 79.7054 331.965 80.3164 331.927 81.1254Z" fill="black"/>
<path d="M329.463 79.3808C329.651 79.5828 330.822 78.7368 332.471 78.7608C334.118 78.7608 335.319 79.6228 335.5 79.4228C335.589 79.3348 335.4 78.9718 334.877 78.5818C334.363 78.1938 333.482 77.8118 332.455 77.8048C331.428 77.7988 330.559 78.1668 330.059 78.5478C329.546 78.9308 329.37 79.2908 329.463 79.3808Z" fill="black"/>
<path d="M348.804 81.6116C348.766 82.4206 349.42 83.1196 350.264 83.1746C351.106 83.2296 351.821 82.6206 351.859 81.8116C351.897 81.0026 351.243 80.3026 350.401 80.2476C349.557 80.1926 348.842 80.8026 348.804 81.6116Z" fill="black"/>
<path d="M346.662 80.1776C346.85 80.3796 348.022 79.5346 349.67 79.5576C351.317 79.5576 352.518 80.4196 352.699 80.2196C352.788 80.1316 352.6 79.7686 352.076 79.3786C351.562 78.9906 350.681 78.6086 349.654 78.6016C348.627 78.5956 347.758 78.9636 347.257 79.3446C346.747 79.7276 346.57 80.0876 346.662 80.1776Z" fill="black"/>
<path d="M340.537 92.3384C340.546 92.2444 339.523 92.0554 337.864 91.8244C337.444 91.7764 337.046 91.6874 336.978 91.3994C336.882 91.0944 337.064 90.6424 337.274 90.1544C337.682 89.1404 338.108 88.0764 338.556 86.9624C340.338 82.4174 341.633 78.6784 341.45 78.6084C341.266 78.5384 339.673 82.1654 337.891 86.7104C337.462 87.8314 337.051 88.8994 336.661 89.9224C336.496 90.3994 336.216 90.9384 336.423 91.5724C336.533 91.8884 336.839 92.1204 337.108 92.1964C337.377 92.2814 337.614 92.2894 337.822 92.3044C339.492 92.4124 340.529 92.4324 340.537 92.3384Z" fill="black"/>
<path d="M339.172 111.84C339.172 111.84 347.204 112.451 355.223 107.756C355.223 107.756 351.246 115.919 339.3 114.663L339.172 111.84Z" fill="#EB996E"/>
<path d="M341.187 96.3208C341.789 95.5438 342.833 95.1248 343.864 95.2478C344.579 95.3328 345.298 95.6868 345.726 96.2738C346.154 96.8618 346.235 97.6898 345.834 98.2408C345.382 98.8618 344.45 98.9948 343.666 98.7628C342.881 98.5298 342.21 98.0038 341.573 97.4808C341.397 97.3358 341.216 97.1848 341.108 96.9878C340.999 96.7908 340.978 96.5348 341.118 96.3738" fill="#EB996E"/>
<path d="M345.375 93.5353C345.107 93.5163 345.083 95.3063 343.536 96.5593C341.992 97.8163 340.086 97.5933 340.069 97.8433C340.043 97.9553 340.49 98.1953 341.295 98.2273C342.085 98.2633 343.241 98.0233 344.188 97.2573C345.132 96.4893 345.546 95.4543 345.615 94.7203C345.693 93.9713 345.498 93.5263 345.375 93.5353Z" fill="black"/>
<path d="M361.679 61.1994C357.307 67.4344 345.732 73.8464 337.443 75.3344C338.411 74.0604 343.502 70.9214 344.47 69.6474C340.712 72.4534 335.336 76.2064 330.351 76.4604C329.762 76.4904 329.123 76.4894 328.638 76.1934C327.977 75.7914 327.843 75.0084 327.766 74.3164C327.444 71.3954 327.646 66.3874 328.111 63.4884C328.576 60.5894 329.908 57.7054 332.423 55.7624C335.616 53.2954 340.187 52.6864 344.493 52.5834C348.105 52.4964 351.828 52.7104 355.129 54.0134C358.43 55.3164 361.254 57.8924 361.737 60.9894" fill="black"/>
<path d="M374.216 89.1338C374.818 86.0408 375.298 83.1058 375.41 81.1468C375.762 74.9798 373.982 52.2218 352.721 54.0538L357.837 60.5838C357.837 60.5838 353.636 74.3778 362.582 83.8928C362.582 83.8928 363.089 89.4608 369.317 95.8848C369.317 95.8828 372.923 95.7738 374.216 89.1338Z" fill="black"/>
<path d="M362.327 82.8557C363.607 82.6227 364.958 82.6737 366.171 83.1467C367.383 83.6187 368.445 84.5377 368.957 85.7337C369.47 86.9327 369.402 88.3317 368.946 89.5537C368.49 90.7757 367.672 91.8367 366.732 92.7417C366.057 93.3917 365.292 93.9837 364.395 94.2537C363.498 94.5237 362.447 94.4237 361.738 93.8107" fill="#FFBE9D"/>
<path d="M362.945 90.6093C362.798 90.6553 363.345 91.4343 364.517 91.1333C365.081 90.9913 365.635 90.5033 365.975 89.8893C366.317 89.2653 366.542 88.5803 366.636 87.7763C366.726 86.9793 366.554 86.1303 366.122 85.5203C365.71 84.9003 365.029 84.5283 364.455 84.5093C363.254 84.4683 362.872 85.2963 363.008 85.3223C363.103 85.4203 363.574 84.9973 364.359 85.1953C365.111 85.3423 365.839 86.3893 365.662 87.6783C365.504 88.9913 364.985 90.1883 364.282 90.4813C363.548 90.8453 363.026 90.5053 362.945 90.6093Z" fill="#EB996E"/>
<path d="M377.319 205.104V199.643H338.89L327.607 150.244L270.094 150.716L284.041 205.104H377.319Z" fill="black"/>
<path d="M297.345 177.706C298.195 180.322 300.509 181.914 302.512 181.263C304.515 180.612 305.451 177.963 304.601 175.348C303.751 172.732 301.437 171.139 299.434 171.791C297.431 172.443 296.495 175.091 297.345 177.706Z" fill="#FAFAFA"/>
<path d="M324.973 204.769C324.009 202.925 323.198 201.002 322.57 199.018C322.42 198.544 322.279 198.05 322.345 197.558C322.411 197.066 322.741 196.574 323.228 196.476C324.124 196.295 324.681 197.382 325.031 198.227C326.338 201.378 329.245 203.802 332.569 204.557L334.898 204.492L334.908 204.396L385.175 199.914L382.778 189.942L409.389 187.965L411.814 197.784C413.126 210.046 403.255 220.619 390.932 220.151L333.251 220.166C314.904 221.367 311.455 205.149 311.455 205.149L324.973 204.769Z" fill="#FFBE9D"/>
<path d="M258.141 365.93L235.42 379.951L243.753 400.003C251.432 392.865 257.56 384.096 261.594 374.258L258.141 365.93Z" fill="#B78876"/>
<path d="M264.303 366.39C261.365 359.361 251.288 336.148 242.853 327.473C230.224 314.485 207.994 316.233 207.994 316.233L179.119 317.259C179.119 317.259 168.138 318.464 157.849 323.841L157.14 324.06L157.149 324.207C149.067 328.596 137.621 339.123 126.719 349.338L139.766 361.446L154.207 374.265C154.207 374.265 154.151 374.358 154.182 374.521C154.333 375.298 151.836 390.808 149.625 404.209C162.313 414.052 178.322 419.786 195.627 419.449C206.646 419.235 217.043 416.578 226.318 412.014L227.397 399.626C228.381 388.394 229.131 374.487 229.131 374.487L233.279 385.004L263.404 369.339C263.725 368.366 264.024 367.382 264.303 366.39Z" fill="#00C5FF"/>
<path d="M208.796 315.137C208.814 315.134 208.857 315.311 208.923 315.653C209.002 315.994 209.063 316.503 209.114 317.165C209.203 318.484 209.098 320.438 208.368 322.712C207.623 324.96 206.2 327.537 203.802 329.622C201.432 331.727 198.036 333.107 194.39 333.291C190.742 333.451 187.231 332.395 184.672 330.522C182.088 328.672 180.427 326.242 179.472 324.075C178.53 321.881 178.239 319.946 178.202 318.625C178.19 317.961 178.202 317.448 178.248 317.102C178.281 316.755 178.307 316.575 178.325 316.577C178.384 316.581 178.303 317.309 178.404 318.613C178.502 319.912 178.845 321.8 179.807 323.924C180.783 326.023 182.433 328.363 184.948 330.131C187.435 331.919 190.829 332.925 194.364 332.771C197.897 332.592 201.181 331.273 203.488 329.258C205.825 327.261 207.246 324.776 208.018 322.593C208.774 320.387 208.936 318.476 208.91 317.172C208.887 315.864 208.737 315.146 208.796 315.137Z" fill="black"/>
<path d="M236.292 321.4C236.3 321.464 235.523 321.434 234.248 321.885C232.98 322.314 231.242 323.363 229.774 325.278C228.276 327.171 227.313 329.966 226.933 333.137C226.732 334.725 226.646 336.41 226.587 338.162C226.515 339.913 226.485 341.727 226.464 343.585C226.407 351.022 226.848 357.748 227.32 362.598C227.547 365.025 227.79 366.984 227.939 368.339C228.011 368.969 228.07 369.484 228.118 369.899C228.153 370.257 228.163 370.447 228.145 370.45C228.127 370.453 228.083 370.269 228.014 369.916C227.941 369.505 227.85 368.993 227.738 368.368C227.526 367.019 227.227 365.064 226.953 362.637C226.387 357.787 225.885 351.042 225.942 343.581C225.964 341.717 225.997 339.897 226.076 338.141C226.143 336.386 226.239 334.687 226.456 333.075C226.867 329.859 227.895 326.977 229.482 325.05C231.034 323.103 232.862 322.072 234.182 321.692C235.514 321.291 236.292 321.4 236.292 321.4Z" fill="black"/>
<path d="M167.566 319.525C167.583 319.53 167.54 319.726 167.443 320.089C167.325 320.506 167.176 321.026 166.994 321.667C166.574 323.105 166.001 325.069 165.302 327.465C163.886 332.363 162.016 339.154 160.188 346.714C158.364 354.278 156.928 361.174 155.953 366.179C155.482 368.63 155.096 370.638 154.813 372.108C154.683 372.761 154.577 373.294 154.492 373.719C154.413 374.087 154.363 374.278 154.345 374.275C154.327 374.272 154.343 374.075 154.388 373.702C154.447 373.273 154.522 372.736 154.613 372.076C154.816 370.663 155.148 368.624 155.591 366.111C156.474 361.085 157.855 354.167 159.682 346.593C161.513 339.023 163.442 332.236 164.95 327.36C165.703 324.922 166.338 322.957 166.802 321.607C167.022 320.978 167.202 320.464 167.345 320.055C167.472 319.702 167.548 319.52 167.566 319.525Z" fill="black"/>
<path d="M263.735 361.565C263.755 361.595 263.334 361.906 262.557 362.444C261.781 362.983 260.643 363.739 259.225 364.656C256.389 366.49 252.418 368.941 247.947 371.504C243.473 374.066 239.35 376.253 236.334 377.773C234.826 378.533 233.598 379.133 232.742 379.53C231.886 379.929 231.405 380.134 231.389 380.102C231.373 380.07 231.823 379.803 232.651 379.349C233.566 378.853 234.747 378.214 236.165 377.446C239.134 375.844 243.223 373.61 247.689 371.051C252.153 368.492 256.148 366.094 259.031 364.342C260.41 363.507 261.559 362.811 262.449 362.272C263.258 361.789 263.715 361.535 263.735 361.565Z" fill="black"/>
<path d="M155.701 365.955C155.61 366.067 149.933 361.591 143.021 355.96C136.107 350.327 130.578 345.672 130.669 345.561C130.76 345.45 136.436 349.924 143.35 355.557C150.262 361.187 155.792 365.843 155.701 365.955Z" fill="black"/>
<path opacity="0.2" d="M226.182 345.633L237.487 382.819L233.28 385.007L229.132 374.49C229.132 374.49 224.871 352.397 226.182 345.633Z" fill="black"/>
<g opacity="0.2">
<path d="M168.79 319.547C162.697 322.76 177.968 330.49 184.866 330.281L179.857 317.066C179.857 317.066 170.835 318.469 168.79 319.547Z" fill="black"/>
</g>
<path opacity="0.2" d="M207.679 373.472L171.496 373.606L173.875 360.288L210.353 359.578L207.679 373.472Z" fill="white"/>
<path d="M204.215 272.234C203.932 273.235 204.299 274.389 205.109 275.043C205.919 275.697 207.124 275.812 208.043 275.323C209.789 274.395 209.965 271.958 209.58 270.019C209.195 268.08 208.493 266.015 209.275 264.199C209.873 262.809 211.208 261.91 212.242 260.806C214.043 258.882 214.968 256.111 214.471 253.522C213.974 250.934 211.981 248.638 209.43 247.978C206.825 247.304 203.649 248.162 201.684 246.324C200.26 244.992 200.131 242.767 199.018 241.166C197.29 238.68 193.733 238.35 190.742 238.818C187.751 239.286 184.717 240.308 181.766 239.634C179.301 239.071 177.254 237.397 174.935 236.391C169.908 234.209 163.563 235.567 159.87 239.616C156.177 243.665 155.406 250.108 158.04 254.914C158.986 256.64 160.39 258.199 162.229 258.901" fill="black"/>
<path d="M193.723 332.987C185.776 332.999 179.218 326.826 178.825 318.959C178.498 312.406 178.224 306.097 178.224 306.097C178.224 306.097 166.058 305.215 164.936 293.322C163.814 281.428 163.66 253.923 163.66 253.923C177.081 246.878 193.296 247.582 206.039 255.764L207.196 256.507L208.602 318.057C208.692 326.266 202.007 332.974 193.723 332.987Z" fill="#B78876"/>
<path d="M186.741 272.22C185.824 272.522 185.326 273.504 185.631 274.413C185.935 275.322 186.925 275.814 187.843 275.513C188.76 275.211 189.258 274.23 188.953 273.32C188.649 272.41 187.659 271.918 186.741 272.22Z" fill="black"/>
<path d="M183.408 272.837C183.609 273.032 184.736 272.061 186.392 271.955C188.047 271.825 189.302 272.626 189.473 272.404C189.557 272.305 189.347 271.944 188.798 271.579C188.259 271.217 187.352 270.89 186.32 270.964C185.288 271.038 184.438 271.49 183.957 271.925C183.467 272.363 183.311 272.751 183.408 272.837Z" fill="black"/>
<path d="M168.584 272.22C167.667 272.522 167.169 273.504 167.474 274.413C167.779 275.322 168.768 275.814 169.686 275.513C170.603 275.211 171.101 274.23 170.797 273.32C170.492 272.41 169.502 271.918 168.584 272.22Z" fill="black"/>
<path d="M165.027 272.874C165.228 273.069 166.355 272.098 168.011 271.992C169.666 271.862 170.921 272.663 171.092 272.441C171.176 272.342 170.966 271.981 170.417 271.616C169.878 271.253 168.971 270.927 167.939 271.001C166.907 271.075 166.057 271.527 165.576 271.962C165.086 272.4 164.93 272.788 165.027 272.874Z" fill="black"/>
<path d="M177.526 285.734C177.527 285.605 176.487 285.482 174.804 285.388C174.367 285.376 174.02 285.307 173.97 285.078C173.871 284.825 174.001 284.354 174.179 283.825C174.516 282.706 174.857 281.574 175.215 280.388C176.634 275.495 177.581 271.472 177.331 271.401C177.08 271.33 175.727 275.237 174.308 280.13C173.975 281.323 173.658 282.462 173.344 283.588C173.226 284.097 172.972 284.7 173.253 285.39C173.401 285.735 173.763 285.964 174.055 286.015C174.349 286.078 174.593 286.058 174.801 286.051C176.483 285.975 177.525 285.863 177.526 285.734Z" fill="black"/>
<path d="M183.048 287.111C179.731 288.721 178.191 289.213 175.125 290.102C175.125 290.102 177.307 293.006 180.668 291.47C184.157 289.876 183.048 287.111 183.048 287.111Z" fill="white"/>
<path d="M178.191 305.927C178.191 305.927 185.833 305.927 193.491 300.252C193.491 300.252 190.49 309.119 178.415 309.014L178.191 305.927Z" fill="#BF8776"/>
<path d="M207.486 268.534C207.474 267.571 208.216 266.742 209.187 266.696C211.43 266.591 215.118 267.402 215.582 273.533C216.245 282.292 207.693 280.27 207.658 280.02C207.631 279.825 207.529 271.942 207.486 268.534Z" fill="#B78876"/>
<path d="M209.542 276.535C209.579 276.504 209.704 276.63 209.973 276.729C210.235 276.825 210.678 276.872 211.126 276.667C212.034 276.257 212.709 274.73 212.632 273.148C212.595 272.349 212.368 271.602 212.036 270.995C211.717 270.374 211.266 269.958 210.789 269.91C210.313 269.838 210.001 270.142 209.912 270.396C209.812 270.65 209.881 270.821 209.836 270.839C209.813 270.863 209.635 270.707 209.679 270.339C209.703 270.163 209.79 269.948 209.985 269.764C210.184 269.577 210.49 269.467 210.82 269.477C211.505 269.473 212.165 270.048 212.531 270.715C212.934 271.382 213.207 272.219 213.249 273.116C213.326 274.885 212.54 276.605 211.29 277.066C210.681 277.273 210.148 277.126 209.864 276.939C209.574 276.746 209.513 276.553 209.542 276.535Z" fill="#BF8776"/>
<path d="M189.31 267.956C188.936 268.437 187.63 268.212 185.935 268.14C184.243 268.004 182.919 268.068 182.61 267.545C182.26 267 183.897 265.749 186.08 265.928C188.268 266.018 189.729 267.459 189.31 267.956Z" fill="black"/>
<path d="M170.194 267.651C170.069 268.258 168.971 268.547 167.732 268.664C166.491 268.764 165.359 268.67 165.13 268.094C164.898 267.535 165.939 266.595 167.537 266.457C169.135 266.316 170.324 267.061 170.194 267.651Z" fill="black"/>
<path d="M161.968 257.69C161.968 257.69 169.185 261.184 178.577 256.496C184.74 253.42 191.925 251.917 193.509 253.156C195.093 254.395 195.427 260.746 201.533 262.6C201.533 262.6 201.114 274.717 205.945 274.285C210.776 273.853 207.757 255.086 207.757 255.086L195.938 249.314L183.041 246.877L170.889 248.59L161.486 251.165L161.968 257.69Z" fill="black"/>
<path d="M118.794 278.436C119.221 279.121 133.123 327.289 133.123 327.289L105.541 331.05L92.8555 291.745L118.794 278.436Z" fill="black"/>
<path d="M133.124 327.288L135.602 325.969L121.169 277.17L118.498 278.587L133.124 327.288Z" fill="black"/>
<path d="M107.239 291.223C107.375 291.855 106.972 292.476 106.341 292.612C105.709 292.747 105.088 292.345 104.952 291.714C104.816 291.082 105.219 290.461 105.85 290.325C106.482 290.189 107.104 290.592 107.239 291.223Z" fill="black"/>
<path d="M127.92 349.273L109.826 361.06L106.496 318.889L106.778 316.782L119.036 312.104L115.512 303.078C113.79 298.867 108.837 297.026 104.782 299.089C103.475 299.754 102.1 300.454 100.858 301.088C98.0625 302.513 95.9935 305.05 95.1855 308.082C93.7925 313.307 92.5525 318.953 92.6825 318.462L84.9296 372.745C84.9296 372.745 81.2426 388.396 91.9505 395.842C100.041 401.468 113.666 395.494 120.898 391.406L152.237 372.519L127.92 349.273Z" fill="#B78876"/>
<path d="M146.409 127.905L134.133 109.23L113.441 122.23L132.2 151.158C132.2 151.158 142.521 139.96 146.409 127.905Z" fill="#EB996E"/>
<path d="M69.5048 34.5081C70.5178 33.3941 69.1448 31.6511 67.7298 31.1371C66.3148 30.6231 64.5518 30.3861 63.8758 29.0411C63.0548 27.4091 64.5048 25.5841 64.7668 23.7761C65.0458 21.8421 63.9308 20.0031 63.5998 18.0771C63.1788 15.6261 64.1388 12.9851 66.0358 11.3761C67.9318 9.76809 70.6958 9.25208 73.0448 10.0681C73.1948 6.30108 75.8548 2.75909 79.4298 1.56409C83.0048 0.369087 87.26 1.60008 89.645 4.51908C91.509 3.10208 93.402 1.66808 95.574 0.792083C97.746 -0.0839164 100.268 -0.349916 102.41 0.596084C104.552 1.54308 106.142 3.89909 105.728 6.20409C107.349 4.27709 110.365 3.89908 112.641 4.97708C114.916 6.05508 116.462 8.33508 117.124 10.7641C118.05 14.1571 117.243 18.1591 114.537 20.4051C111.831 22.6511 107.197 22.4421 105.193 19.5521" fill="black"/>
<path d="M82.7841 91.9798C90.2205 91.9918 96.3555 86.2148 96.7225 78.8548C97.0285 72.7238 97.2845 66.8208 97.2845 66.8208C97.2845 66.8208 108.668 65.9958 109.718 54.8688C110.768 43.7408 110.912 18.0068 110.912 18.0068C98.3545 11.4158 83.1832 12.0738 71.2622 19.7288L70.1792 20.4238L68.8641 78.0098C68.7791 85.6918 75.0331 91.9678 82.7841 91.9798Z" fill="#FFBE9D"/>
<path d="M89.3159 35.1259C90.1739 35.4079 90.6399 36.3269 90.3549 37.1769C90.0699 38.0279 89.1439 38.4879 88.2849 38.2059C87.4269 37.9239 86.9609 37.0049 87.2459 36.1549C87.5309 35.3039 88.4569 34.8439 89.3159 35.1259Z" fill="black"/>
<path d="M92.433 35.7052C92.245 35.8882 91.19 34.9792 89.641 34.8802C88.092 34.7582 86.918 35.5082 86.759 35.3002C86.68 35.2072 86.877 34.8692 87.39 34.5292C87.894 34.1902 88.742 33.8842 89.708 33.9532C90.673 34.0222 91.469 34.4452 91.919 34.8522C92.378 35.2622 92.524 35.6242 92.433 35.7052Z" fill="black"/>
<path d="M106.302 35.1259C107.16 35.4079 107.626 36.3269 107.341 37.1769C107.056 38.0279 106.13 38.4879 105.271 38.2059C104.413 37.9239 103.947 37.0049 104.232 36.1549C104.517 35.3039 105.444 34.8439 106.302 35.1259Z" fill="black"/>
<path d="M109.63 35.7384C109.442 35.9214 108.387 35.0124 106.838 34.9134C105.289 34.7914 104.115 35.5414 103.956 35.3334C103.877 35.2404 104.074 34.9034 104.587 34.5624C105.091 34.2234 105.939 33.9174 106.905 33.9864C107.87 34.0554 108.666 34.4784 109.116 34.8854C109.575 35.2954 109.72 35.6584 109.63 35.7384Z" fill="black"/>
<path d="M97.9375 47.7703C97.9365 47.6493 98.9095 47.5343 100.483 47.4463C100.892 47.4353 101.217 47.3703 101.264 47.1573C101.357 46.9203 101.235 46.4793 101.068 45.9843C100.753 44.9373 100.433 43.8783 100.099 42.7683C98.7715 38.1903 97.8855 34.4263 98.1195 34.3603C98.3535 34.2933 99.6205 37.9493 100.948 42.5273C101.259 43.6433 101.557 44.7093 101.85 45.7623C101.961 46.2383 102.198 46.8033 101.935 47.4483C101.796 47.7703 101.458 47.9843 101.185 48.0323C100.91 48.0913 100.682 48.0733 100.487 48.0663C98.9125 47.9953 97.9385 47.8913 97.9375 47.7703Z" fill="black"/>
<path d="M92.7701 49.0586C95.8731 50.5656 97.3141 51.0256 100.183 51.8566C100.183 51.8566 98.1411 54.5736 94.9971 53.1366C91.7321 51.6456 92.7701 49.0586 92.7701 49.0586Z" fill="white"/>
<path d="M97.3145 66.6645C97.3145 66.6645 90.1645 66.6635 83 61.3555C83 61.3555 85.808 69.6515 97.1045 69.5525L97.3145 66.6645Z" fill="#EB996E"/>
<path d="M69.9051 36.7697C69.9161 35.8687 69.2221 35.0927 68.3141 35.0507C66.2161 34.9527 62.7651 35.7117 62.3311 41.4477C61.7111 49.6427 69.7121 47.7507 69.7441 47.5167C69.7691 47.3337 69.8651 39.9587 69.9051 36.7697Z" fill="#FFBE9D"/>
<path d="M67.9836 44.256C67.9496 44.227 67.8316 44.3449 67.5806 44.4379C67.3356 44.5279 66.9216 44.572 66.5026 44.38C65.6536 43.997 65.0216 42.567 65.0936 41.088C65.1286 40.34 65.3406 39.642 65.6516 39.074C65.9496 38.493 66.3726 38.104 66.8176 38.059C67.2626 37.992 67.5546 38.276 67.6376 38.514C67.7306 38.752 67.6666 38.911 67.7086 38.928C67.7296 38.95 67.8966 38.804 67.8556 38.461C67.8336 38.296 67.7516 38.095 67.5686 37.923C67.3816 37.748 67.0966 37.645 66.7876 37.655C66.1466 37.651 65.5286 38.1899 65.1866 38.8129C64.8096 39.4369 64.5546 40.221 64.5146 41.06C64.4426 42.715 65.1786 44.324 66.3476 44.756C66.9176 44.95 67.4166 44.812 67.6816 44.638C67.9536 44.454 68.0116 44.273 67.9836 44.256Z" fill="#EB996E"/>
<path d="M86.9128 31.1368C87.2628 31.5868 88.4838 31.3758 90.0708 31.3088C91.6538 31.1818 92.8928 31.2418 93.1818 30.7518C93.5098 30.2418 91.9778 29.0718 89.9358 29.2388C87.8888 29.3238 86.5208 30.6718 86.9128 31.1368Z" fill="black"/>
<path d="M104.796 30.852C104.912 31.42 105.94 31.69 107.099 31.799C108.26 31.892 109.319 31.804 109.534 31.266C109.751 30.744 108.778 29.864 107.282 29.735C105.788 29.603 104.674 30.3 104.796 30.852Z" fill="black"/>
<path d="M112.493 21.5311C112.493 21.5311 105.741 24.8001 96.9535 20.4141C91.1865 17.5361 84.4652 16.1301 82.9832 17.2891C81.5012 18.4481 81.1882 24.3901 75.4762 26.1251C75.4762 26.1251 75.8682 37.4621 71.3482 37.0571C66.8282 36.6531 69.6532 19.0941 69.6532 19.0941L80.7112 13.6941L92.7785 11.4141L104.148 13.0171L112.945 15.4261L112.493 21.5311Z" fill="black"/>
<path d="M36.8164 87.1322C48.6324 74.9802 69.4304 76.3062 69.4304 76.3062L96.445 77.2662C96.445 77.2662 106.719 78.3942 116.345 83.4242L117.008 83.6292L117 83.7672C124.562 87.8732 135.27 97.7222 145.471 107.28L133.264 118.608L119.753 130.601C119.753 130.601 119.806 130.688 119.776 130.841C119.635 131.568 121.971 146.079 124.039 158.617C112.168 167.826 97.191 173.191 81.0004 172.876C70.6914 172.675 60.9634 170.19 52.2854 165.919L51.2754 154.329C50.3544 143.82 49.6524 130.809 49.6524 130.809" fill="#00C5FF"/>
<path d="M107.256 79.3849C107.273 79.3789 107.346 79.5499 107.468 79.8799C107.604 80.2669 107.773 80.7469 107.979 81.3309C108.415 82.5929 109.011 84.4309 109.717 86.7119C111.131 91.2729 112.937 97.6209 114.65 104.705C116.359 111.792 117.649 118.266 118.473 122.969C118.886 125.321 119.195 127.228 119.383 128.55C119.466 129.163 119.535 129.667 119.59 130.074C119.632 130.423 119.645 130.608 119.627 130.611C119.609 130.614 119.561 130.435 119.486 130.091C119.405 129.689 119.305 129.191 119.182 128.584C118.915 127.2 118.552 125.323 118.11 123.037C117.195 118.356 115.849 111.904 114.143 104.828C112.432 97.7549 110.685 91.4019 109.363 86.8179C108.713 84.5819 108.179 82.7459 107.785 81.3929C107.617 80.7969 107.479 80.3079 107.368 79.9129C107.277 79.5719 107.238 79.3909 107.256 79.3849Z" fill="black"/>
<path d="M118.357 122.825C118.266 122.713 123.436 118.351 129.902 113.083C136.37 107.813 141.686 103.633 141.777 103.744C141.868 103.855 136.7 108.217 130.231 113.487C123.765 118.755 118.448 122.937 118.357 122.825Z" fill="black"/>
<path opacity="0.2" d="M52.4149 103.811L41.8379 138.602L45.7739 140.649L49.6539 130.809C49.6539 130.809 53.6419 110.139 52.4149 103.811Z" fill="black"/>
<g opacity="0.2">
<path d="M106.11 79.4069C111.811 82.4129 97.5233 89.6449 91.0703 89.4499L95.7563 77.0859C95.7563 77.0859 104.197 78.3989 106.11 79.4069Z" fill="black"/>
</g>
<path d="M67.7315 77.086V67.873C67.7315 67.873 85.7265 72.503 86.379 83.27C86.379 83.27 88.668 71.369 97.939 70.798L99.248 87.539L88.46 96.926H77.5245L68.8625 89.455L67.7305 77.83" fill="#00C5FF"/>
<path d="M90.429 134.912C90.411 134.911 90.402 134.734 90.4 134.398C90.405 134.003 90.411 133.518 90.418 132.931C90.451 131.658 90.48 129.816 90.491 127.541C90.516 122.991 90.38 116.702 89.809 109.784C89.23 102.864 88.327 96.6395 87.551 92.1555C87.165 89.9135 86.832 88.1015 86.59 86.8515C86.486 86.2735 86.4 85.7965 86.33 85.4075C86.276 85.0765 86.256 84.9006 86.274 84.8966C86.292 84.8926 86.346 85.0606 86.433 85.3856C86.529 85.7696 86.646 86.2395 86.789 86.8095C87.093 88.0475 87.481 89.8516 87.914 92.0896C88.784 96.5646 89.748 102.801 90.329 109.741C90.901 116.679 90.98 122.988 90.86 127.546C90.802 129.825 90.717 131.669 90.622 132.94C90.576 133.526 90.537 134.009 90.506 134.403C90.472 134.738 90.446 134.913 90.429 134.912Z" fill="black"/>
<path d="M85.551 80.1698C85.547 80.2178 85.145 80.0008 84.478 80.2518C84.151 80.3758 83.791 80.6228 83.486 81.0248C83.175 81.4218 82.922 81.9518 82.647 82.5548C81.533 84.9478 80.159 88.3998 79.204 92.5128L79.125 92.8538L78.824 92.6718C77.749 92.0218 76.647 91.3198 75.539 90.5678C73.391 89.1058 71.423 87.6148 69.707 86.1418C68.845 85.4018 68.137 84.5098 67.729 83.5598C67.326 82.6088 67.166 81.6558 67.12 80.7968C67.045 79.0698 67.323 77.7028 67.502 76.7728C67.697 75.8418 67.843 75.3368 67.876 75.3438C67.914 75.3508 67.835 75.8708 67.702 76.8078C67.584 77.7418 67.367 79.1068 67.487 80.7728C67.555 81.6008 67.73 82.5028 68.123 83.3838C68.524 84.2638 69.177 85.0698 70.024 85.7818C71.727 87.2088 73.702 88.6888 75.832 90.1368C76.933 90.8838 78.026 91.5848 79.09 92.2368L78.71 92.3958C79.7 88.2438 81.15 84.7798 82.352 82.4108C82.647 81.8198 82.933 81.2738 83.288 80.8618C83.636 80.4448 84.058 80.1888 84.422 80.0838C85.175 79.8668 85.577 80.1658 85.551 80.1698Z" fill="black"/>
<path d="M97.938 70.7969C97.974 70.7959 98.024 71.3089 98.087 72.2359C98.158 73.2599 98.247 74.5779 98.356 76.1589C98.486 77.8119 98.683 79.7759 99.018 81.9399C99.149 83.0079 99.52 84.1669 99.232 85.4559C98.865 86.7219 97.905 87.6779 96.884 88.4499C95.448 89.5169 93.937 90.3219 92.918 91.4659L92.521 91.9119L92.481 91.3169C92.226 87.5019 90.947 84.3659 89.8 82.3309C88.646 80.2799 87.694 79.2309 87.759 79.1789C87.779 79.1609 88.032 79.4079 88.455 79.9009C88.875 80.3969 89.453 81.1529 90.074 82.1719C91.314 84.1919 92.688 87.3719 92.98 91.2819L92.543 91.1329C93.636 89.8929 95.189 89.0669 96.569 88.0339C97.553 87.2999 98.427 86.3899 98.737 85.3289C98.996 84.2509 98.674 83.0999 98.543 82.0099C98.231 79.8269 98.072 77.8459 97.988 76.1829C97.905 74.5199 97.885 73.1729 97.882 72.2429C97.883 71.3129 97.902 70.7989 97.938 70.7969Z" fill="black"/>
<path d="M155.856 73.1094C155.124 73.9714 128.633 109.393 128.633 109.393L132.362 111.506L159.547 76.5344L155.856 73.1094Z" fill="black"/>
<path d="M49.4359 101.115C49.4359 101.115 77.3049 141.232 78.9839 142.02C82.2919 143.573 120.417 110.625 124.053 107.473C124.554 106.804 125.588 105.391 127.619 102.581C127.619 102.581 130.627 88.8154 133.837 89.8724C137.047 90.9294 132.078 96.8674 134.169 102.098C136.26 107.328 145.834 94.8535 146.217 93.7335L148.686 90.5074C148.686 90.5074 151.275 97.8485 151.1 100.915C150.538 110.735 141.247 122.414 141.247 122.414C141.247 122.414 99.5215 174.102 70.9409 175.706C62.7089 176.168 48.0799 152.81 38.2999 135.295C32.3939 124.718 35.3409 111.393 45.1299 104.256L49.4359 101.115Z" fill="#FFBE9D"/>
<path d="M146.409 102.66C146.332 102.612 147.237 101.041 148.224 99.0399C149.217 97.0409 149.916 95.3679 150.001 95.4009C150.078 95.4289 149.505 97.1629 148.504 99.1789C147.509 101.196 146.478 102.704 146.409 102.66Z" fill="#EB996E"/>
<path d="M44.7172 81.5391C44.7172 81.5391 14.8042 92.1741 37.0442 142.476L71.5752 121.635L66.6632 109.872L44.7172 81.5391Z" fill="#00C5FF"/>
<path d="M42.4242 82.407C42.4242 82.398 42.5042 82.391 42.6612 82.386C42.8492 82.384 43.0792 82.381 43.3592 82.377C43.9722 82.381 44.8802 82.463 46.0202 82.73C47.1502 83.024 48.5082 83.527 49.9322 84.391C51.3582 85.248 52.8392 86.454 54.2792 87.967C57.1752 90.992 59.8782 95.213 62.3882 100.103C64.9152 104.993 67.2742 110.562 69.6962 116.415C70.4212 118.168 71.1362 119.896 71.8142 121.533L71.9032 121.748L71.6992 121.859C61.7082 127.307 53.0102 132.413 46.8662 136.239C43.7912 138.148 41.3442 139.718 39.6652 140.812C38.8532 141.338 38.2092 141.755 37.7322 142.064C37.2892 142.346 37.0532 142.487 37.0432 142.474C37.0342 142.46 37.2522 142.292 37.6772 141.984C38.1042 141.678 38.7322 141.221 39.5602 140.656C41.2072 139.513 43.6282 137.896 46.6812 135.947C52.7822 132.04 61.4592 126.873 71.4512 121.407L71.3362 121.733C70.6582 120.096 69.9412 118.368 69.2142 116.615C66.7932 110.764 64.4522 105.202 61.9602 100.323C59.4862 95.443 56.8352 91.238 54.0112 88.221C52.6072 86.711 51.1662 85.506 49.7802 84.64C48.3952 83.768 47.0742 83.247 45.9692 82.927C43.7302 82.349 42.4172 82.487 42.4242 82.407Z" fill="black"/>
<path d="M210.247 219.576C210.231 223.037 207.412 225.829 203.952 225.813C200.491 225.797 197.699 222.978 197.715 219.518C197.731 216.057 200.55 213.265 204.01 213.281C207.471 213.297 210.263 216.116 210.247 219.576Z" fill="black"/>
<path d="M191.455 211.521C198.336 204.295 209.521 204.076 216.579 211.189C219.778 214.413 224.787 209.454 221.587 206.228C211.903 196.468 196.006 196.526 186.494 206.513C183.367 209.798 188.319 214.814 191.455 211.521Z" fill="black"/>
<path d="M170.172 182.355C179.7 174.117 191.076 168.933 203.813 168.901C216.438 168.87 228.887 173.352 238.134 182.035C241.437 185.137 246.456 180.187 243.141 177.074C232.549 167.127 218.344 161.816 203.846 161.852C189.188 161.888 176.162 167.88 165.212 177.347C161.774 180.32 166.753 185.311 170.172 182.355Z" fill="black"/>
<path d="M178.572 198.52C184.96 191.614 193.912 187.289 203.374 187.073C213.093 186.851 222.477 190.855 229.233 197.796C232.402 201.052 237.408 196.09 234.24 192.835C226.244 184.62 214.914 179.762 203.406 180.024C192.152 180.281 181.246 185.259 173.611 193.512C170.536 196.838 175.483 201.858 178.572 198.52Z" fill="black"/>
<path d="M210.374 215.094C210.358 218.555 207.539 221.347 204.079 221.331C200.618 221.315 197.826 218.496 197.842 215.036C197.858 211.575 200.677 208.783 204.137 208.799C207.597 208.815 210.39 211.633 210.374 215.094Z" fill="black"/>
<path d="M191.584 207.039C198.465 199.813 209.65 199.594 216.708 206.707C219.907 209.931 224.915 204.972 221.715 201.746C212.031 191.986 196.135 192.044 186.624 202.031C183.496 205.316 188.448 210.332 191.584 207.039Z" fill="black"/>
<path d="M170.301 177.872C179.829 169.634 191.205 164.45 203.942 164.418C216.567 164.387 229.016 168.869 238.263 177.552C241.566 180.654 246.585 175.704 243.27 172.591C232.678 162.644 218.473 157.333 203.975 157.369C189.317 157.405 176.291 163.397 165.341 172.864C161.903 175.837 166.882 180.828 170.301 177.872Z" fill="black"/>
<path d="M178.698 194.035C185.086 187.129 194.038 182.804 203.5 182.588C213.219 182.366 222.603 186.37 229.359 193.311C232.528 196.567 237.534 191.605 234.366 188.35C226.37 180.135 215.04 175.277 203.532 175.539C192.278 175.796 181.372 180.774 173.737 189.027C170.662 192.352 175.61 197.373 178.698 194.035Z" fill="black"/>
</svg>
