<svg width="261" height="330" viewBox="0 0 261 330" fill="none" xmlns="http://www.w3.org/2000/svg">
<path d="M236.821 169.585H177.651V329.616H236.821V169.585Z" fill="#28ED70"/>
<path opacity="0.2" d="M194.356 169.43H177.636V329.648H194.356V169.43Z" fill="black"/>
<path d="M177.572 233.585H118.402V329.615H177.572V233.585Z" fill="#28ED70"/>
<path opacity="0.2" d="M136.182 233.585H118.402V329.515H136.182V233.585Z" fill="black"/>
<path d="M118.356 253.975H59.186V329.615H118.356V253.975Z" fill="#28ED70"/>
<path opacity="0.2" d="M76.786 253.975H59.186V329.515H76.786V253.975Z" fill="black"/>
<path d="M59.168 274.369H0V329.617H59.168V274.369Z" fill="#28ED70"/>
<path opacity="0.2" d="M16.722 274.314H0.0019989V329.514H16.722V274.314Z" fill="black"/>
<path d="M160.874 45.9562C158.064 49.3532 155.17 52.6812 152.274 56.0042L150.085 58.4832L148.121 60.6732C147.313 61.6262 146.781 62.8222 146.592 64.1252L145.933 70.5802C145.712 72.7702 145.499 74.9592 145.242 77.1482C144.759 81.5252 144.256 85.9012 143.669 90.2732C143.463 91.8062 142.053 92.8812 140.521 92.6752C139.169 92.4932 138.174 91.3742 138.099 90.0612C137.845 85.6612 137.678 81.2652 137.529 76.8712C137.439 74.6732 137.394 72.4772 137.34 70.2812L137.191 63.5792C137.232 60.4962 138.25 57.3962 140.013 54.7942L142.19 51.8662L144.163 49.2442C146.816 45.7652 149.472 42.2932 152.211 38.8882C154.147 36.4822 157.666 36.1012 160.072 38.0372C162.478 39.9732 162.859 43.4922 160.923 45.8982C160.912 45.9092 160.884 45.9442 160.874 45.9562Z" fill="#28ED70"/>
<path d="M137.405 90.5672L133.75 96.7722L142.164 97.6262L143.645 91.3262C143.82 90.5802 143.341 89.8272 142.585 89.6972C141.19 89.4582 139.008 89.3592 137.405 90.5672Z" fill="#CB7A63"/>
<path d="M133.75 96.7722L134.134 98.9672C134.323 100.052 135.267 100.842 136.368 100.839L139.108 100.832C139.943 100.83 140.708 100.368 141.1 99.6312L142.164 97.6262L133.75 96.7722Z" fill="#CB7A63"/>
<path d="M136.81 85.9152L144.909 86.1922L144.387 91.0302L137.546 90.5022L136.81 85.9152Z" fill="#28ED70"/>
<path d="M144.978 136.712L143.647 138.712L142.629 136.646L145.054 105.248C145.439 100.256 143.756 96.1552 137.546 96.0042C131.738 95.8632 128.213 99.8312 127.808 104.814L125.265 136.155L123.874 138.149L122.925 136.089L125.484 104.755C125.957 98.9622 128.528 94.3142 137.662 94.5342C146.812 94.7552 147.832 99.5002 147.386 105.306L144.978 136.712Z" fill="#263238"/>
<path d="M119.241 115.533L117.635 115.525C114.291 115.509 111.457 117.984 111.023 121.3L108.062 143.927L118.48 144.298L119.241 115.533Z" fill="#263238"/>
<path d="M148.656 136.977L146.302 136.911L146.531 105.513C146.567 100.521 144.597 96.4202 138.377 96.2692C132.559 96.1282 129.311 100.096 129.255 105.079L128.903 136.42L126.558 136.354L126.926 105.02C126.994 99.2272 129.24 94.5792 138.389 94.7992C147.555 95.0202 148.906 99.7652 148.867 105.571L148.656 136.977Z" fill="#263238"/>
<path d="M159.697 145.523L113.392 144.149L113.839 120.807C113.883 117.817 116.301 115.458 119.241 115.535L152.954 116.417C156.762 116.517 159.837 119.726 159.821 123.591L159.697 145.523Z" fill="#263238"/>
<path d="M129.7 124.309L125.841 124.204L125.858 122.751L129.716 122.855L129.7 124.309Z" fill="#263238"/>
<path d="M129.596 133.73L125.728 133.622L125.746 132.163L129.612 132.27L129.596 133.73Z" fill="#263238"/>
<path d="M149.532 124.844L145.657 124.74L145.668 123.283L149.541 123.387L149.532 124.844Z" fill="#263238"/>
<path d="M149.47 134.285L145.587 134.177L145.598 132.714L149.479 132.822L149.47 134.285Z" fill="#263238"/>
<path d="M177.897 10.8672C178.216 10.8062 178.555 11.1382 178.659 11.6202C178.762 12.1022 178.595 12.5542 178.277 12.6152C177.958 12.6762 177.619 12.3442 177.516 11.8622C177.386 11.3642 177.578 10.9282 177.897 10.8672Z" fill="#263238"/>
<path d="M177.954 11.2712C178.28 11.1192 178.579 10.7792 178.71 10.4442C178.431 10.7052 178.048 10.8502 177.666 10.8412C177.812 10.9232 177.946 11.1032 177.954 11.2712Z" fill="#263238"/>
<path d="M178.592 16.1652C179.432 16.2002 180.243 15.8612 180.809 15.2402C179.584 14.1762 178.511 12.9512 177.617 11.5972L178.592 16.1652Z" fill="#B74D3C"/>
<path d="M175.219 10.0782C175.682 9.49723 176.398 9.17522 177.14 9.21422C177.171 9.22422 177.203 9.22922 177.236 9.22822C177.399 9.22522 177.528 9.09023 177.525 8.92723C177.522 8.76423 177.387 8.63523 177.225 8.63823C176.297 8.56323 175.39 8.94122 174.791 9.65422C174.745 9.70722 174.721 9.77523 174.721 9.84623C174.721 10.0092 174.853 10.1412 175.016 10.1412C175.089 10.1472 175.161 10.1242 175.219 10.0782Z" fill="#263238"/>
<path d="M172.174 38.9782C163.855 39.0672 162.58 34.5392 162.58 34.5392C165.051 32.1132 165.174 27.6732 164.649 23.7152C165.286 24.6102 166.08 25.3922 167.12 26.0852C169.11 27.3932 173.427 25.2912 173.427 25.2912C173.438 25.2912 173.427 26.0292 173.483 27.0912C173.617 29.6852 174.187 34.2362 176.547 34.9412C176.547 34.9412 181.344 38.8782 172.174 38.9782Z" fill="#CB7A63"/>
<path d="M173.549 25.9662C173.461 26.3482 173.372 26.7312 173.319 27.1362C173.285 27.1592 173.25 27.1712 173.215 27.1722C171.267 27.6562 169.113 27.3902 167.123 26.0822C166.075 25.3882 165.281 24.6112 164.647 23.7162C164.521 22.7122 164.337 21.7312 164.153 20.8312L173.212 25.7852L173.549 25.9662Z" fill="#CB7A63"/>
<path d="M179.51 19.1742C179.451 22.2502 177.768 24.8462 175.414 26.2582H175.402C175.391 26.2702 175.379 26.2702 175.367 26.2702C174.735 26.6702 174.045 26.9552 173.319 27.1362C173.285 27.1592 173.25 27.1712 173.215 27.1722C171.267 27.6562 169.113 27.3902 167.123 26.0822C166.075 25.3882 165.281 24.6112 164.647 23.7162C163.016 21.4792 162.336 18.4932 161.17 14.2972C160.81 13.0642 160.738 11.7592 160.967 10.4962C161.785 5.97924 166.111 2.98424 170.617 3.80224C176.94 4.92524 179.634 13.5542 179.51 19.1742Z" fill="#CB7A63"/>
<path opacity="0.2" d="M174.959 26.4212C174.377 26.7902 174.087 26.9352 173.483 27.0922C173.427 26.0302 173.439 25.2922 173.427 25.2922C173.483 24.3642 173.55 23.4362 173.55 23.4362C173.55 23.4692 174.523 26.4212 174.959 26.4212Z" fill="black"/>
<path d="M177.325 7.82924C176.648 8.90524 174.516 9.81524 174.588 9.56524C174.955 8.67224 174.887 6.95824 173.78 7.35924C174.086 8.04224 175.004 13.1772 174.588 13.8002C174.36 14.1412 174.145 18.2492 172.396 21.8712C171.001 24.7612 171.001 25.6572 171.001 25.6572L165.322 26.7532C163.196 26.4872 161.216 23.7712 161.041 23.4702C160.299 22.1932 158.03 20.5162 156.85 19.6292C156.34 19.2452 155.941 18.6802 155.725 18.0742C155.336 16.9842 156.131 13.0562 156.304 11.2092C156.553 8.55224 157.948 6.09424 161.802 4.51624C164.185 3.54024 166.19 1.39924 168.621 0.552241C171.053 -0.294759 173.945 -0.256763 175.999 1.29624C177.009 2.06024 179.022 5.13224 177.325 7.82924Z" fill="#263238"/>
<path d="M174.358 11.5692C176.108 12.0822 177.02 14.6602 177.095 16.2982C177.18 18.1072 175.972 19.2502 174.395 18.0392C173.207 17.1062 172.359 15.8092 171.98 14.3472C171.552 12.5742 172.608 11.0552 174.358 11.5692Z" fill="#CB7A63"/>
<path d="M176.462 17.5932C176.462 18.0152 176.12 18.3572 175.698 18.3572C175.276 18.3572 174.934 18.0152 174.934 17.5932C174.934 17.1712 175.276 16.8292 175.698 16.8292C176.12 16.8292 176.462 17.1712 176.462 17.5932Z" fill="#28ED70"/>
<path d="M160.192 37.5382C160.192 37.5382 161.485 33.5492 163.434 32.2892C165.384 31.0292 173.943 32.3362 175.284 32.8612C176.625 33.3862 177.979 36.4772 177.979 36.4772L160.192 37.5382Z" fill="#28ED70"/>
<path d="M179.737 35.8342C178.405 35.6152 178.038 35.4142 176.512 35.2942C171.92 35.0782 167.318 35.1282 162.732 35.4432C161.057 35.5632 159.446 35.8872 157.847 36.2702C154.562 37.0592 152.347 40.1202 152.591 43.4652C153.273 52.8272 156.04 58.3202 156.448 64.4832C157.261 76.7622 155.302 85.3712 154.969 88.2372L161.264 89.1932C172.508 88.9262 179.973 86.5092 186.161 83.8772C186.161 83.8772 184.539 69.0322 186.107 63.6832C190.392 49.0692 187.61 46.7572 186.765 42.5732C186.061 39.0952 183.263 36.4122 179.737 35.8342Z" fill="#28ED70"/>
<path d="M181.546 35.3812C183.844 35.7052 186.121 36.1642 188.409 36.5502C190.689 36.9902 192.967 37.4422 195.239 37.9312L194.416 37.8662C195.43 37.9112 196.322 37.9902 196.885 38.0252C197.157 38.0452 197.348 38.0402 197.277 38.0812C197.263 38.1042 197.13 38.1462 196.975 38.2462C196.781 38.3502 196.547 38.5192 196.293 38.7792C195.769 39.3042 195.559 40.0072 195.574 40.2152C195.57 40.4422 195.642 40.3892 195.654 40.2132C195.693 39.8522 195.616 39.1622 195.467 38.4522L195.571 38.7472C194.418 35.4192 193.323 32.0682 192.32 28.6802C191.347 25.2812 190.412 21.8672 189.748 18.3472C189.493 16.9962 190.382 15.6932 191.734 15.4382C192.768 15.2432 193.775 15.7232 194.304 16.5612C196.209 19.5952 197.842 22.7352 199.437 25.8902C201.003 29.0572 202.476 32.2602 203.891 35.4852L203.995 35.7802C204.382 36.8002 204.76 37.8732 204.987 39.3162C205.091 40.0402 205.164 40.9022 204.999 42.0222C204.846 43.1172 204.246 44.6862 203.064 45.8392C202.486 46.4182 201.861 46.8252 201.266 47.1372C200.698 47.4222 200.139 47.6242 199.683 47.7482C198.731 48.0112 198.016 48.0882 197.384 48.1532C196.136 48.2712 195.215 48.2762 194.418 48.3232L194.29 48.3312L193.594 48.2582C191.283 48.0162 188.977 47.7383 186.673 47.4473C184.378 47.1033 182.071 46.8312 179.786 46.4242C176.746 45.8832 174.72 42.9792 175.262 39.9382C175.791 36.9682 178.584 34.9682 181.546 35.3812Z" fill="#28ED70"/>
<path d="M222.899 13.8532L252.88 12.9342L252.42 3.54224L222.499 5.51224L222.899 13.8532Z" fill="#28ED70"/>
<path d="M200.238 14.2132L224.482 13.4332L224.113 5.73224L199.912 7.29324L200.238 14.2132Z" fill="#28ED70"/>
<path d="M221.281 13.6302L222.87 13.7982L222.476 5.57024L220.911 5.89024L221.281 13.6302Z" fill="#263238"/>
<path opacity="0.2" d="M221.281 13.6302L222.87 13.7982L222.476 5.57024L220.911 5.89024L221.281 13.6302Z" fill="black"/>
<path d="M222.872 13.8542L224.5 13.8042L224.097 5.40723L222.473 5.51423L222.872 13.8542Z" fill="#263238"/>
<path d="M196.474 13.0752L198.88 14.1922L198.562 7.44524L196.272 8.78824L196.474 13.0752Z" fill="#263238"/>
<path d="M184.154 12.9912L191.283 12.6202L191.135 9.46223L184.009 9.88824L184.154 12.9912Z" fill="#263238"/>
<path opacity="0.2" d="M184.154 12.9912L191.283 12.6202L191.135 9.46223L184.009 9.88824L184.154 12.9912Z" fill="black"/>
<path d="M190.308 13.2582L198.24 12.9532L198.032 8.53323L190.109 9.00224L190.308 13.2582Z" fill="#263238"/>
<path opacity="0.2" d="M196.474 13.0752L198.88 14.1922L198.562 7.44524L196.272 8.78824L196.474 13.0752Z" fill="black"/>
<path d="M198.923 14.2562L200.238 14.2132L199.912 7.29324L198.599 7.37824L198.923 14.2562Z" fill="#263238"/>
<path d="M251.859 12.9652L256.562 12.7972L256.1 3.36923L251.401 3.60923L251.859 12.9652Z" fill="#263238"/>
<path d="M253.945 13.6322L259.945 13.4642L260.094 13.0492C261.376 9.49224 261.121 5.56223 259.39 2.20123L253.404 2.61523L253.535 2.92924C254.957 6.33124 255.103 10.1322 253.945 13.6322Z" fill="#28ED70"/>
<path opacity="0.3" d="M259.34 12.0792C259.31 12.4372 259.292 12.7962 259.349 13.1502L254.492 13.3162L254.433 12.2672L259.34 12.0792Z" fill="black"/>
<path opacity="0.3" d="M250.642 11.4942C250.614 11.8412 250.598 12.1892 250.652 12.5312L224.91 13.4512L224.859 12.5172L250.642 11.4942Z" fill="black"/>
<path opacity="0.3" d="M220.005 12.3982C219.985 12.7042 219.973 13.0132 220.017 13.3162L200.89 13.9882L200.846 13.1472L220.005 12.3982Z" fill="black"/>
<path d="M182.551 10.0082L182.613 13.0282C182.623 13.5412 183.088 13.9502 183.653 13.9402L186.104 13.8982L186.002 8.95023L183.552 9.04023C182.988 9.06223 182.541 9.49423 182.551 10.0082Z" fill="#28ED70"/>
<path d="M195.221 18.3862L196.152 12.7582C196.191 12.5242 196.199 12.2862 196.178 12.0512L195.911 9.06824C195.867 8.68224 195.596 8.30324 195.176 8.17424L190.68 8.12224C190.087 7.93524 189.435 8.21924 189.238 8.74724L188.431 12.4342C188.37 12.7102 188.376 12.9972 188.448 13.2702L189.782 18.3472C189.911 18.7712 190.302 19.1012 190.786 19.1942L193.724 19.2202C194.416 19.3532 195.08 18.9842 195.221 18.3862Z" fill="#CE7A63"/>
<path d="M197.865 20.7572L190.22 23.4462L188.947 18.7492L195.511 16.7522L197.865 20.7572Z" fill="#28ED70"/>
<path opacity="0.2" d="M187.918 56.1422L182.059 45.0832L188.008 47.0172C188.477 49.0532 188.701 51.7032 187.918 56.1422Z" fill="black"/>
<path d="M218.123 147.95L216.911 162.971L223.748 163.101L225.624 147.627L218.123 147.95Z" fill="#CE7A63"/>
<path d="M224.831 161.049L217.032 161.207C216.738 161.213 216.485 161.436 216.424 161.746L215.081 168.586C214.958 169.192 215.315 169.786 215.878 169.913C215.95 169.929 216.024 169.937 216.098 169.937C218.909 169.828 221.407 169.612 224.908 169.546C229.038 169.464 227.996 170.015 232.852 169.991C235.778 169.973 236.279 166.392 235.036 166.242C229.35 165.59 228.743 163.761 226.531 161.623C226.05 161.214 225.445 161.01 224.831 161.049Z" fill="#263238"/>
<path d="M143.465 212.321L140.7 226.117L148.051 228.362L151.592 214.271L143.465 212.321Z" fill="#CE7A63"/>
<path d="M182.796 84.4792C182.796 84.4792 172.333 145.543 166.65 163.514C162.604 176.31 151.75 218.174 151.75 218.174L141.904 215.991C141.904 215.991 140.803 187.495 146.279 172.786C148.147 167.768 150.585 163.241 151.245 160.13C154.065 146.839 148.253 122.727 150.822 104.743C152.215 94.9952 155.19 88.0432 155.19 88.0432L182.796 84.4792Z" fill="black"/>
<path d="M166.65 163.514C162.604 176.31 151.75 218.174 151.75 218.174L141.904 215.991C141.904 215.991 140.803 187.495 146.279 172.786C148.147 167.768 150.585 163.241 151.245 160.13C154.065 146.839 148.253 122.727 150.822 104.743C152.215 94.9952 155.19 88.0432 155.19 88.0432" fill="black"/>
<path opacity="0.2" d="M169.967 103.354L175.234 124.036L179.087 104.253L169.967 103.354Z" fill="black"/>
<path d="M226.104 155.155L216.484 155.465C216.484 155.465 217.194 142.875 217.194 124.515C217.194 121.685 217.634 118.895 218.254 116.395C219.624 110.785 221.844 106.605 221.844 106.605C221.844 106.605 220.814 106.665 219.054 106.745C213.614 107.025 179.892 108.767 179.232 108.717C178.732 108.667 175.668 109.073 170.174 106.395C159.966 101.418 159.864 87.4453 159.864 87.4453L186.154 83.8752C186.154 83.8952 186.584 83.9552 192.914 84.0652C212.104 84.3952 235.687 85.1382 239.826 91.7262C245.647 100.994 226.104 155.155 226.104 155.155Z" fill="black"/>
<path d="M148.419 224.791L140.352 224.9C140.048 224.904 139.799 225.129 139.753 225.44L138.749 232.335C138.656 232.946 139.059 233.548 139.649 233.68C139.725 233.697 139.801 233.706 139.878 233.706C142.782 233.614 145.358 233.412 148.979 233.368C153.252 233.312 152.203 233.862 157.231 233.869C160.26 233.87 160.576 230.258 159.281 230.098C153.356 229.403 152.623 227.553 150.212 225.381C149.692 224.965 149.054 224.755 148.419 224.791Z" fill="black"/>
<path opacity="0.2" d="M218.253 116.395C219.623 110.785 221.843 106.605 221.843 106.605C221.843 106.605 220.813 106.665 219.053 106.745C218.973 106.715 218.893 106.695 218.793 106.695L225.805 106.105L218.253 116.395Z" fill="black"/>
</svg>
