<svg width="458" height="429" viewBox="0 0 458 429" fill="none" xmlns="http://www.w3.org/2000/svg">
<path d="M444.112 85.0409C441.4 84.4449 438.503 85.2549 436.211 86.8209C433.919 88.3869 432.178 90.6499 430.815 93.0689C428.178 97.7489 427.48 103.893 427.627 109.262C433.568 108.716 438.415 103.776 440.716 101.116C444.355 96.9119 448.375 87.1039 444.112 85.0409Z" fill="#E0E0E0"/>
<path d="M418.232 113.341C420.582 111.318 421.504 107.9 420.836 104.872C420.168 101.843 418.058 99.2398 415.413 97.6198C414.19 96.8708 412.694 96.3038 411.34 96.7778C410.075 97.2218 409.245 98.5168 409.052 99.8428C408.859 101.17 409.21 102.519 409.713 103.762C411.438 108.025 413.889 111.832 418.232 113.341Z" fill="#E0E0E0"/>
<path d="M413.596 130.569C413.563 130.555 413.689 130.174 413.944 129.497C414.243 128.718 414.609 127.764 415.04 126.64C415.942 124.231 417.2 120.867 417.715 116.985C418.226 113.105 417.625 109.521 416.646 107.166C415.688 104.786 414.561 103.596 414.652 103.531C414.674 103.512 414.967 103.79 415.419 104.362C415.874 104.931 416.451 105.827 416.985 107.023C418.078 109.399 418.756 113.083 418.232 117.051C417.705 121.014 416.374 124.394 415.383 126.776C414.879 127.97 414.443 128.922 414.131 129.576C413.819 130.229 413.629 130.583 413.596 130.569Z" fill="#EBEBEB"/>
<path d="M440.391 92.239C440.405 92.25 440.318 92.392 440.138 92.651C439.919 92.956 439.653 93.325 439.334 93.77C438.573 94.798 437.555 96.172 436.319 97.841C433.768 101.274 430.261 106.028 426.46 111.331C422.66 116.637 419.287 121.488 416.858 125.008C415.676 126.715 414.702 128.121 413.974 129.172C413.656 129.618 413.392 129.988 413.173 130.294C412.985 130.547 412.879 130.676 412.864 130.666C412.849 130.656 412.926 130.509 413.085 130.237C413.281 129.916 413.519 129.529 413.805 129.061C414.438 128.045 415.376 126.59 416.553 124.803C418.906 121.228 422.234 116.34 426.037 111.028C429.841 105.72 433.398 100.997 436.026 97.619C437.339 95.93 438.416 94.573 439.174 93.647C439.524 93.226 439.816 92.876 440.056 92.587C440.261 92.349 440.376 92.228 440.391 92.239Z" fill="#EBEBEB"/>
<path d="M422.554 119.775C427.467 115.461 434.546 113.75 440.887 115.346C442.502 115.752 444.311 116.644 444.547 118.292C444.783 119.943 443.287 121.311 441.828 122.12C435.759 125.486 427.641 124.677 422.355 120.181" fill="#E0E0E0"/>
<path d="M437.069 118.556C437.053 118.662 435.541 118.366 433.088 118.423C431.862 118.44 430.408 118.607 428.822 118.923C427.243 119.273 425.537 119.793 423.828 120.547C422.129 121.324 420.607 122.254 419.296 123.202C418.006 124.178 416.915 125.154 416.088 126.059C414.416 127.855 413.633 129.182 413.544 129.123C413.513 129.104 413.697 128.768 414.057 128.173C414.232 127.872 414.46 127.512 414.766 127.124C415.067 126.732 415.385 126.263 415.815 125.812C416.621 124.86 417.707 123.836 419.007 122.819C420.329 121.83 421.878 120.866 423.614 120.073C425.36 119.302 427.109 118.785 428.726 118.454C430.35 118.157 431.837 118.026 433.084 118.056C433.708 118.034 434.269 118.108 434.762 118.143C435.256 118.172 435.676 118.241 436.018 118.31C436.702 118.434 437.075 118.52 437.069 118.556Z" fill="#EBEBEB"/>
<path d="M18.2987 24.3178C16.6007 26.5138 16.0947 29.4798 16.5307 32.2218C16.9667 34.9638 18.2687 37.5048 19.8727 39.7708C22.9767 44.1548 28.2317 47.4128 33.1487 49.5748C35.1947 43.9708 32.8007 37.4778 31.3797 34.2598C29.1337 29.1738 21.9857 21.3458 18.2987 24.3178Z" fill="#E0E0E0"/>
<path d="M32.8199 59.8127C31.9959 56.8227 29.2999 54.5287 26.2769 53.8377C23.2529 53.1467 19.9979 53.9417 17.4029 55.6397C16.2029 56.4247 15.0499 57.5357 14.9009 58.9617C14.7609 60.2947 15.5769 61.5997 16.6939 62.3407C17.8109 63.0817 19.1809 63.3417 20.5189 63.4187C25.1089 63.6817 29.5999 63.0937 32.8199 59.8127Z" fill="#E0E0E0"/>
<path d="M46.412 71.3677C46.385 71.3917 46.095 71.1147 45.591 70.5947C45.014 69.9907 44.308 69.2527 43.477 68.3817C41.684 66.5367 39.181 63.9617 35.892 61.8367C32.603 59.7157 29.106 58.7277 26.559 58.6067C23.997 58.4557 22.44 58.9657 22.421 58.8557C22.413 58.8277 22.79 58.6817 23.5 58.5177C24.209 58.3497 25.266 58.2117 26.575 58.2387C29.191 58.2667 32.81 59.2287 36.173 61.3987C39.53 63.5697 42.017 66.2167 43.747 68.1317C44.611 69.0977 45.285 69.8987 45.743 70.4607C46.2 71.0217 46.439 71.3437 46.412 71.3677Z" fill="#EBEBEB"/>
<path d="M23.2159 30.7596C23.2319 30.7516 23.3229 30.8906 23.4799 31.1636C23.6619 31.4926 23.8829 31.8906 24.1479 32.3696C24.7519 33.4966 25.5589 35.0046 26.5399 36.8356C28.5529 40.6096 31.3509 45.8126 34.5209 51.5146C37.6939 57.2186 40.6369 62.3406 42.7809 66.0416C43.8189 67.8406 44.6739 69.3216 45.3129 70.4296C45.5799 70.9076 45.8019 71.3046 45.9849 71.6326C46.1339 71.9106 46.2039 72.0616 46.1889 72.0706C46.1739 72.0796 46.0729 71.9476 45.8949 71.6866C45.6889 71.3726 45.4399 70.9916 45.1399 70.5336C44.4919 69.5276 43.5779 68.0566 42.4649 66.2286C40.2389 62.5736 37.2419 57.4746 34.0669 51.7666C30.8939 46.0586 28.1449 40.8236 26.2139 37.0046C25.2479 35.0946 24.4819 33.5426 23.9689 32.4606C23.7379 31.9636 23.5459 31.5516 23.3879 31.2106C23.2589 30.9236 23.1999 30.7676 23.2159 30.7596Z" fill="#EBEBEB"/>
<path d="M40.4839 58.6556C38.6839 52.3696 40.1639 45.2396 44.3169 40.1886C45.3749 38.9026 46.9539 37.6476 48.5449 38.1396C50.1389 38.6316 50.7349 40.5696 50.8429 42.2336C51.2919 49.1586 47.0899 56.1526 40.7649 59.0086" fill="#E0E0E0"/>
<path d="M45.5861 45.0128C45.6751 45.0718 44.7611 46.3128 43.7641 48.5548C43.2551 49.6708 42.7851 51.0568 42.3931 52.6248C42.0351 54.2018 41.7751 55.9668 41.7271 57.8338C41.7031 59.7018 41.8931 61.4757 42.1901 63.0657C42.5211 64.6487 42.9371 66.0517 43.4021 67.1867C44.3111 69.4657 45.1761 70.7407 45.0851 70.7967C45.0551 70.8167 44.8301 70.5067 44.4461 69.9267C44.2481 69.6397 44.0211 69.2797 43.8001 68.8367C43.5741 68.3977 43.2861 67.9097 43.0621 67.3277C42.5461 66.1917 42.0841 64.7727 41.7201 63.1617C41.3911 61.5447 41.1821 59.7317 41.2071 57.8227C41.2571 55.9147 41.5361 54.1117 41.9281 52.5097C42.3541 50.9147 42.8711 49.5148 43.4311 48.3998C43.6781 47.8268 43.9851 47.3507 44.2271 46.9207C44.4641 46.4867 44.7061 46.1357 44.9151 45.8567C45.3201 45.2917 45.5571 44.9918 45.5861 45.0128Z" fill="#EBEBEB"/>
<path d="M129.725 428.911C132.319 429.901 135.304 429.527 137.802 428.316C140.3 427.105 142.356 425.123 144.06 422.932C147.358 418.692 148.955 412.719 149.601 407.386C143.645 407.05 138.122 411.221 135.454 413.512C131.237 417.134 125.813 426.242 129.725 428.911Z" fill="#E0E0E0"/>
<path d="M159.497 404.738C156.874 406.393 155.458 409.637 155.672 412.731C155.886 415.825 157.589 418.711 159.966 420.703C161.065 421.624 162.461 422.406 163.87 422.137C165.187 421.885 166.199 420.726 166.585 419.443C166.971 418.159 166.823 416.773 166.509 415.469C165.432 410.998 163.57 406.87 159.497 404.738Z" fill="#E0E0E0"/>
<path d="M166.623 388.382C166.654 388.401 166.473 388.759 166.121 389.391C165.71 390.118 165.207 391.007 164.615 392.055C163.368 394.305 161.627 397.446 160.545 401.21C159.467 404.972 159.533 408.605 160.154 411.079C160.751 413.575 161.69 414.918 161.59 414.968C161.566 414.984 161.317 414.666 160.954 414.033C160.588 413.403 160.15 412.431 159.797 411.17C159.066 408.658 158.939 404.916 160.043 401.068C161.149 397.226 162.964 394.08 164.296 391.87C164.971 390.764 165.542 389.886 165.947 389.286C166.353 388.686 166.593 388.364 166.623 388.382Z" fill="#EBEBEB"/>
<path d="M134.468 422.34C134.456 422.327 134.563 422.2 134.779 421.97C135.041 421.7 135.358 421.374 135.74 420.982C136.644 420.078 137.854 418.868 139.322 417.4C142.351 414.381 146.522 410.196 151.063 405.512C155.604 400.824 159.655 396.524 162.578 393.401C163.999 391.887 165.17 390.64 166.045 389.708C166.425 389.314 166.741 388.987 167.002 388.717C167.225 388.494 167.349 388.383 167.362 388.395C167.375 388.407 167.278 388.542 167.08 388.787C166.839 389.075 166.547 389.424 166.195 389.844C165.419 390.755 164.277 392.056 162.849 393.65C159.995 396.839 155.982 401.183 151.437 405.875C146.892 410.564 142.677 414.711 139.58 417.664C138.032 419.141 136.767 420.324 135.881 421.129C135.472 421.494 135.133 421.797 134.852 422.047C134.612 422.251 134.48 422.353 134.468 422.34Z" fill="#EBEBEB"/>
<path d="M156.171 397.737C150.675 401.279 143.421 401.927 137.385 399.414C135.848 398.774 134.19 397.625 134.2 395.96C134.21 394.292 135.892 393.16 137.454 392.575C143.953 390.141 151.863 392.138 156.428 397.365" fill="#E0E0E0"/>
<path d="M141.635 396.802C141.666 396.7 143.118 397.216 145.553 397.521C146.768 397.685 148.231 397.734 149.846 397.655C151.459 397.541 153.224 397.279 155.025 396.785C156.82 396.267 158.463 395.571 159.899 394.828C161.319 394.053 162.541 393.249 163.493 392.476C165.412 390.946 166.382 389.749 166.461 389.82C166.489 389.843 166.258 390.148 165.813 390.683C165.596 390.955 165.317 391.278 164.957 391.616C164.602 391.959 164.218 392.376 163.726 392.759C162.788 393.582 161.564 394.435 160.127 395.249C158.674 396.032 157 396.757 155.165 397.286C153.325 397.791 151.518 398.045 149.87 398.134C148.22 398.188 146.73 398.099 145.501 397.885C144.881 397.814 144.336 397.659 143.854 397.551C143.37 397.449 142.964 397.32 142.637 397.201C141.98 396.976 141.624 396.836 141.635 396.802Z" fill="#EBEBEB"/>
<path d="M340.732 304.285C343.832 299.718 342.643 293.503 338.076 290.403C333.509 287.303 327.294 288.493 324.194 293.06C321.094 297.626 322.284 303.841 326.851 306.941C331.417 310.041 337.632 308.852 340.732 304.285Z" fill="#EBEBEB"/>
<path d="M370.431 278.618C370.439 284.138 365.97 288.618 360.451 288.626C354.931 288.634 350.451 284.165 350.443 278.646C350.435 273.126 354.904 268.646 360.423 268.638C365.942 268.63 370.423 273.098 370.431 278.618Z" fill="#EBEBEB"/>
<path d="M370.489 320.979C370.497 326.984 366.03 331.859 360.51 331.866C354.99 331.873 350.508 327.012 350.5 321.006C350.492 315.001 354.96 310.126 360.48 310.119C366 310.112 370.481 314.974 370.489 320.979Z" fill="#EBEBEB"/>
<path d="M357.546 319.711C357.119 320.34 350.471 316.565 342.7 311.281C334.926 305.996 328.972 301.203 329.4 300.574C329.827 299.946 336.473 303.72 344.247 309.005C352.018 314.289 357.973 319.083 357.546 319.711Z" fill="#EBEBEB"/>
<path d="M358.344 277.932C358.809 278.533 353.677 283.289 346.882 288.553C340.085 293.82 334.199 297.601 333.733 297C333.268 296.4 338.399 291.645 345.196 286.378C351.992 281.113 357.879 277.331 358.344 277.932Z" fill="#EBEBEB"/>
<path d="M302.827 182.167C302.971 182.167 303.087 184.854 303.087 188.167C303.087 191.481 302.97 194.167 302.827 194.167C302.684 194.167 302.567 191.481 302.567 188.167C302.567 184.854 302.684 182.167 302.827 182.167Z" fill="#E0E0E0"/>
<path d="M302.827 158.167C302.971 158.167 303.087 160.854 303.087 164.167C303.087 167.481 302.97 170.167 302.827 170.167C302.684 170.167 302.567 167.481 302.567 164.167C302.567 160.854 302.684 158.167 302.827 158.167Z" fill="#E0E0E0"/>
<path d="M302.827 134.167C302.971 134.167 303.087 136.854 303.087 140.167C303.087 143.481 302.97 146.167 302.827 146.167C302.684 146.167 302.567 143.481 302.567 140.167C302.567 136.854 302.684 134.167 302.827 134.167Z" fill="#E0E0E0"/>
<path d="M302.827 110.167C302.971 110.167 303.087 112.854 303.087 116.167C303.087 119.481 302.97 122.167 302.827 122.167C302.684 122.167 302.567 119.481 302.567 116.167C302.567 112.854 302.684 110.167 302.827 110.167Z" fill="#E0E0E0"/>
<path d="M302.827 86.167C302.971 86.167 303.087 88.854 303.087 92.167C303.087 95.481 302.97 98.167 302.827 98.167C302.684 98.167 302.567 95.481 302.567 92.167C302.567 88.854 302.684 86.167 302.827 86.167Z" fill="#E0E0E0"/>
<path d="M295.997 68.9968C295.997 68.8528 298.683 68.7368 301.997 68.7368C302.281 68.7378 302.56 68.7388 302.827 68.7398L303.087 68.7408L303.086 68.9978C303.068 71.9228 302.96 74.1678 302.828 74.1678C302.697 74.1678 302.588 71.9228 302.57 68.9978L302.828 69.2558C302.56 69.2568 302.282 69.2578 301.998 69.2588C298.684 69.2578 295.997 69.1408 295.997 68.9968Z" fill="#E0E0E0"/>
<path d="M271.997 68.9968C271.997 68.8528 274.683 68.7368 277.997 68.7368C281.311 68.7368 283.997 68.8538 283.997 68.9968C283.997 69.1408 281.311 69.2568 277.997 69.2568C274.684 69.2578 271.997 69.1408 271.997 68.9968Z" fill="#E0E0E0"/>
<path d="M261.562 55.4316C261.706 55.4316 261.822 58.1186 261.822 61.4316C261.822 64.7456 261.705 67.4316 261.562 67.4316C261.419 67.4316 261.302 64.7456 261.302 61.4316C261.302 58.1186 261.419 55.4316 261.562 55.4316Z" fill="#E0E0E0"/>
<path d="M261.562 36.1719C261.706 36.1719 261.822 37.7969 261.822 39.8019C261.822 41.8069 261.705 43.4329 261.562 43.4329C261.419 43.4329 261.302 41.8079 261.302 39.8019C261.302 37.7969 261.419 36.1719 261.562 36.1719Z" fill="#E0E0E0"/>
<path d="M116.821 308.388C116.821 308.244 118.164 308.128 119.82 308.128C121.477 308.128 122.819 308.245 122.819 308.388C122.819 308.531 121.476 308.648 119.82 308.648C118.164 308.648 116.821 308.532 116.821 308.388Z" fill="#E0E0E0"/>
<path d="M90.6514 308.388C90.6514 308.244 93.5804 308.128 97.1924 308.128C100.805 308.128 103.734 308.245 103.734 308.388C103.734 308.531 100.806 308.648 97.1924 308.648C93.5804 308.648 90.6514 308.532 90.6514 308.388Z" fill="#E0E0E0"/>
<path d="M64.4819 308.388C64.4819 308.244 67.4109 308.128 71.0229 308.128C74.6369 308.128 77.5649 308.245 77.5649 308.388C77.5649 308.531 74.6369 308.648 71.0229 308.648C67.4109 308.648 64.4819 308.532 64.4819 308.388Z" fill="#E0E0E0"/>
<path d="M45.4071 302.388C45.5511 302.388 45.6671 305.074 45.6671 308.387C45.7231 308.445 45.1741 307.895 45.4081 308.128H45.4111H45.4161H45.4261H45.4451H45.4841H45.5611H45.7151L46.0201 308.129C46.2211 308.13 46.4191 308.132 46.6161 308.133C46.9991 308.138 47.3731 308.143 47.7421 308.148C48.3981 308.167 49.0321 308.186 49.6491 308.204C50.7351 308.251 51.4061 308.316 51.4061 308.388C51.4061 308.46 50.7351 308.525 49.6491 308.572C49.0321 308.59 48.3981 308.609 47.7421 308.628C47.3731 308.633 46.9991 308.638 46.6161 308.643C46.4191 308.644 46.2211 308.646 46.0201 308.647L45.7151 308.648H45.5611H45.4841H45.4451H45.4261H45.4161H45.4111H45.4081C45.6401 308.881 45.0901 308.331 45.1461 308.386C45.1471 305.074 45.2631 302.388 45.4071 302.388Z" fill="#E0E0E0"/>
<path d="M45.407 279.123C45.551 279.123 45.667 281.727 45.667 284.939C45.667 288.152 45.55 290.755 45.407 290.755C45.263 290.755 45.147 288.151 45.147 284.939C45.147 281.728 45.263 279.123 45.407 279.123Z" fill="#E0E0E0"/>
<path d="M45.407 255.859C45.551 255.859 45.667 258.463 45.667 261.675C45.667 264.888 45.55 267.491 45.407 267.491C45.263 267.491 45.147 264.887 45.147 261.675C45.147 258.463 45.263 255.859 45.407 255.859Z" fill="#E0E0E0"/>
<path d="M45.407 238.226C45.551 238.226 45.667 239.569 45.667 241.226C45.667 242.883 45.55 244.226 45.407 244.226C45.263 244.226 45.147 242.883 45.147 241.226C45.147 239.57 45.263 238.226 45.407 238.226Z" fill="#E0E0E0"/>
<path d="M90.887 231.304C92.228 227.361 90.822 222.642 87.54 220.077C85.889 218.787 83.825 218.089 81.734 218C78.489 217.863 75.669 215.95 74.357 212.979C72.228 208.159 67.994 204.229 62.901 202.802C55.625 200.763 47.195 203.999 43.151 210.383C42.033 212.149 41.127 214.216 39.303 215.237C36.978 216.539 34.11 215.659 31.451 215.491C23.564 214.994 16.094 223.411 16.505 231.303H90.887V231.304Z" fill="#F5F5F5"/>
<path d="M294.57 36.1719C295.912 32.2289 294.505 27.5099 291.223 24.9449C289.572 23.6549 287.507 22.9569 285.417 22.8679C282.172 22.7309 279.352 20.8179 278.04 17.8469C275.911 13.0269 271.677 9.09695 266.584 7.66995C259.308 5.63095 250.878 8.86695 246.834 15.2509C245.716 17.0169 244.81 19.0839 242.986 20.1049C240.661 21.4069 237.793 20.5269 235.134 20.3589C227.247 19.8619 219.777 28.2789 220.188 36.1709L294.57 36.1719Z" fill="#F5F5F5"/>
<path d="M410.768 215.789C436.853 189.703 436.853 147.41 410.768 121.324C384.682 95.2389 342.389 95.2389 316.303 121.324C290.218 147.41 290.218 189.703 316.303 215.789C342.389 241.874 384.682 241.874 410.768 215.789Z" fill="#E0E0E0"/>
<path d="M280.998 345.249C279.412 385.424 249.826 418.669 209.628 419.451C169.43 420.233 136.208 388.279 135.427 348.081C134.645 307.882 166.71 270.796 206.797 273.879C249.554 277.167 282.445 308.595 280.998 345.249Z" fill="#E0E0E0"/>
<path d="M144.485 153.16C171.084 126.562 171.084 83.4361 144.485 56.837C117.885 30.2378 74.76 30.2375 48.1613 56.8363C21.5625 83.435 21.5629 126.56 48.162 153.16C74.7611 179.759 117.887 179.759 144.485 153.16Z" fill="#E0E0E0"/>
<path d="M354.914 184.3C355.971 185.275 330.161 214.98 297.272 250.641C264.372 286.313 236.853 314.432 235.796 313.456C234.739 312.482 260.544 282.782 293.444 247.11C326.333 211.45 353.858 183.325 354.914 184.3Z" fill="#E0E0E0"/>
<path d="M341.226 135.863C340.92 137.269 295.437 128.565 239.649 116.427C183.842 104.285 138.864 93.3053 139.17 91.9003C139.476 90.4953 184.949 99.1963 240.756 111.339C296.545 123.477 341.532 134.458 341.226 135.863Z" fill="#E0E0E0"/>
<path d="M175.417 300.398C174.82 300.768 167.746 290.65 157.032 273.832C146.317 257.017 132.02 233.465 116.966 207.027C101.915 180.576 88.9622 156.256 79.9752 138.457C70.9842 120.658 65.8972 109.412 66.5212 109.088C67.1732 108.748 73.4122 119.387 83.2212 136.719C93.0232 154.066 106.549 178.005 121.492 204.451C136.597 230.793 150.273 254.644 160.184 271.928C170.078 289.213 176.042 300.011 175.417 300.398Z" fill="#E0E0E0"/>
<path d="M388.612 76.4727C388.96 82.1797 389.352 83.9117 391.468 88.4627C392.723 91.1617 394.489 93.6626 395.186 96.5556C395.848 99.3056 395.491 102.207 395.999 104.99C396.827 109.532 399.839 113.31 402.101 117.334C404.364 121.359 405.889 126.452 403.642 130.486L380.507 127.754L378.876 99.0307L388.612 76.4727Z" fill="black"/>
<path d="M342.615 66.7349C339.62 73.0889 343.784 79.4429 340.789 85.7959C339.305 88.9449 337.81 92.1219 337.018 95.5119C336.304 98.5659 336.161 101.784 334.915 104.663C332.931 109.251 328.425 112.353 326.338 116.895C323.246 123.625 326.531 132.056 332.441 136.519C338.35 140.982 346.195 142.095 353.582 141.578C358.06 141.265 362.601 140.371 366.455 138.068C370.309 135.766 373.399 131.873 373.886 127.411" fill="black"/>
<path d="M376.922 55.4238C391.811 62.0238 394.77 86.4758 394.844 89.7688C394.933 93.6958 397.024 94.5088 399.634 96.5618C402.244 98.6148 404.771 101.103 405.493 104.29C406.061 106.798 405.465 109.572 406.666 111.861C408.1 114.594 411.494 115.609 414.129 117.296C419.107 120.484 421.564 126.48 421.839 132.269C422.114 138.058 420.523 143.759 418.945 149.348C418.32 151.564 417.541 153.985 415.532 155.194C413.983 156.126 412.045 156.115 410.224 156.074C400.799 155.864 391.375 155.653 381.95 155.443C374.739 155.282 367.336 155.084 360.671 152.404C355.254 150.226 350.505 146.383 347.602 141.433C344.699 136.482 343.725 130.429 345.248 124.927C346.423 120.685 348.998 116.854 349.742 112.521C350.663 107.156 346.164 104.86 344.534 99.6558C342.903 94.4518 341.556 81.9688 343.79 76.9808" fill="black"/>
<path d="M393.94 190.244L389.29 175.342L388.612 198.095C388.612 198.095 394.643 213.64 399.237 225.521C390.014 231.024 379.391 234.491 367.934 235.214C353.687 236.113 340.174 232.661 328.677 226.014L335.838 200.285L332.425 171.186L322.978 184.696L302.826 165.215C302.826 165.215 317.577 137.959 319.406 135.472C331.069 119.617 351.218 119.996 351.218 119.996L379.724 121.575C379.724 121.575 395.754 120.678 406.283 133.363C406.283 133.363 416.574 149.07 425.027 187.835L393.94 190.244Z" fill="#28ED70"/>
<path d="M408.195 137.626C408.196 137.634 408.055 137.656 407.781 137.691C407.508 137.736 407.096 137.749 406.568 137.856C405.505 138.017 403.944 138.379 402.048 139.159C400.173 139.965 397.944 141.215 395.833 143.239C394.781 144.248 393.757 145.439 392.863 146.832C391.991 148.227 391.131 149.802 390.796 151.597C390.633 152.487 390.622 153.438 390.886 154.338C391.153 155.227 391.734 156.055 392.526 156.614C393.306 157.181 394.365 157.418 395.292 157.05C396.222 156.701 396.908 155.813 397.211 154.818C397.525 153.814 397.475 152.69 396.991 151.709C396.528 150.718 395.746 149.869 394.825 149.191C392.968 147.836 390.648 147 388.222 146.734C385.787 146.456 383.239 146.735 380.745 147.4C378.257 148.083 375.746 149.02 373.461 150.44C371.187 151.861 369.025 153.658 367.433 155.928C366.666 157.062 366.026 158.359 365.994 159.719C365.982 160.391 366.14 161.065 366.502 161.635C366.856 162.209 367.375 162.681 367.959 163.061L367.912 163.037C368.573 163.283 369.311 163.394 369.949 163.122C370.589 162.861 371.075 162.27 371.402 161.598C372.055 160.234 372.24 158.617 372.245 157.04C372.228 155.482 372.05 153.901 371.498 152.48C370.959 151.05 370.058 149.773 368.966 148.729C366.771 146.623 363.86 145.406 360.931 145.108C357.988 144.787 355.049 145.25 352.319 146.078C349.612 146.913 346.9 148.017 345.161 150.086C344.337 151.11 343.72 152.381 343.883 153.654C344.019 154.915 344.658 156.134 345.626 156.905C346.106 157.29 346.673 157.559 347.261 157.619C347.847 157.68 348.442 157.531 348.945 157.214C349.967 156.585 350.435 155.362 350.539 154.196C350.649 153.013 350.491 151.818 350.153 150.714C349.973 150.163 349.733 149.63 349.53 149.095C349.419 148.831 349.33 148.558 349.203 148.304L348.799 147.558C347.786 145.543 346.387 143.852 344.928 142.4C341.95 139.527 338.571 137.687 335.434 136.716C332.294 135.731 329.421 135.457 327.109 135.612C324.794 135.766 323.03 136.203 321.871 136.581C321.312 136.782 320.876 136.938 320.56 137.052C320.263 137.156 320.105 137.197 320.105 137.197C320.105 137.197 320.248 137.123 320.539 137.004C320.852 136.878 321.283 136.705 321.837 136.483C322.992 136.07 324.762 135.597 327.097 135.411C329.429 135.224 332.336 135.469 335.522 136.44C338.705 137.397 342.142 139.235 345.185 142.138C346.677 143.605 348.11 145.32 349.154 147.371L349.569 148.131C349.7 148.389 349.792 148.668 349.907 148.937C350.118 149.484 350.363 150.022 350.552 150.593C350.908 151.744 351.08 152.982 350.968 154.241C350.864 155.472 350.367 156.853 349.181 157.593C348.614 157.955 347.905 158.142 347.215 158.07C346.522 158.002 345.874 157.691 345.339 157.265C344.263 156.406 343.573 155.1 343.415 153.702C343.33 153.006 343.442 152.257 343.712 151.608C343.967 150.948 344.339 150.332 344.79 149.783C346.646 147.575 349.435 146.458 352.174 145.603C354.948 144.757 357.951 144.275 360.986 144.602C364.009 144.907 367.036 146.162 369.325 148.357C370.466 149.446 371.414 150.785 371.984 152.295C372.57 153.81 372.746 155.43 372.766 157.039C372.757 158.67 372.58 160.334 371.868 161.829C371.511 162.562 370.953 163.271 370.146 163.603C369.337 163.944 368.453 163.794 367.725 163.521L367.7 163.512L367.678 163.497C367.047 163.086 366.466 162.563 366.06 161.905C365.645 161.253 365.461 160.467 365.477 159.712C365.519 158.182 366.213 156.82 367.01 155.639C368.668 153.283 370.872 151.465 373.196 150.015C375.541 148.564 378.088 147.62 380.619 146.932C383.159 146.262 385.766 145.98 388.271 146.273C390.771 146.556 393.153 147.419 395.085 148.838C396.044 149.55 396.877 150.453 397.375 151.528C397.897 152.595 397.952 153.856 397.602 154.941C397.266 156.025 396.506 157.022 395.429 157.423C394.357 157.842 393.15 157.553 392.301 156.928C391.435 156.309 390.817 155.416 390.529 154.442C390.249 153.467 390.271 152.463 390.446 151.534C390.81 149.662 391.697 148.075 392.593 146.662C393.513 145.253 394.562 144.053 395.638 143.04C397.796 141.009 400.065 139.77 401.969 138.984C403.894 138.224 405.474 137.89 406.547 137.76C407.628 137.623 408.195 137.626 408.195 137.626Z" fill="#FAFAFA"/>
<path d="M420.277 170.208C420.302 170.272 419.274 170.499 417.69 171.458C416.127 172.394 413.976 174.192 412.578 177.185C412.221 177.924 411.959 178.746 411.754 179.614C411.534 180.479 411.473 181.408 411.748 182.3C411.88 182.738 412.119 183.15 412.475 183.404C412.834 183.643 413.317 183.716 413.736 183.543C414.59 183.185 415.161 182.182 415.258 181.16C415.532 179.081 414.272 176.765 412.219 175.759C410.152 174.741 407.449 175.027 405.425 176.399C403.375 177.785 402.099 180.042 401.579 182.306C401.319 183.427 401.292 184.631 401.846 185.545C402.376 186.463 403.503 187.003 404.415 186.558C405.33 186.145 405.881 185.145 405.871 184.176C405.885 183.193 405.506 182.246 405.009 181.444C404.005 179.822 402.476 178.725 400.954 178.177C399.421 177.618 397.889 177.611 396.631 177.917C395.368 178.223 394.357 178.764 393.624 179.314C392.146 180.428 391.686 181.408 391.629 181.358C391.621 181.353 391.649 181.295 391.711 181.185C391.775 181.076 391.863 180.909 392.011 180.712C392.293 180.309 392.761 179.738 393.501 179.153C394.233 178.565 395.258 177.979 396.561 177.634C397.857 177.289 399.465 177.267 401.076 177.83C402.677 178.382 404.294 179.508 405.375 181.216C405.906 182.061 406.332 183.068 406.328 184.183C406.343 185.286 405.728 186.486 404.609 186.996C404.056 187.254 403.368 187.268 402.795 187.017C402.218 186.774 401.747 186.332 401.421 185.804C400.759 184.71 400.814 183.374 401.08 182.195C401.619 179.824 402.944 177.451 405.133 175.968C407.304 174.501 410.184 174.189 412.443 175.302C414.693 176.423 416.039 178.915 415.734 181.221C415.606 182.354 415.001 183.509 413.899 183.971C413.343 184.193 412.697 184.099 412.22 183.77C411.748 183.427 411.481 182.921 411.335 182.428C411.035 181.438 411.127 180.407 411.361 179.525C411.582 178.63 411.866 177.785 412.243 177.03C413.727 173.97 415.967 172.182 417.586 171.284C419.23 170.363 420.277 170.208 420.277 170.208Z" fill="#FAFAFA"/>
<path d="M388.727 184.591C388.724 184.6 388.64 184.585 388.479 184.547C388.289 184.5 388.055 184.442 387.767 184.37C387.138 184.233 386.21 184.02 384.994 183.903C382.59 183.652 378.937 183.683 374.881 185.317C373.872 185.718 372.849 186.232 371.847 186.857C370.858 187.491 369.886 188.276 369.204 189.321C368.514 190.354 368.235 191.698 368.699 192.939C368.917 193.546 369.287 194.122 369.818 194.496C370.338 194.882 371.022 195.024 371.67 194.896C372.975 194.611 374.06 193.351 374.239 191.948C374.439 190.512 373.898 189.016 373.081 187.727C371.424 185.122 368.647 183.105 365.462 182.317C362.269 181.516 358.893 182.144 356.228 183.704C354.902 184.48 353.69 185.485 352.826 186.655C352.419 187.259 352.096 187.922 351.943 188.61C351.783 189.289 351.792 190.017 352.108 190.584C352.406 191.163 353.007 191.545 353.635 191.602C354.272 191.651 354.927 191.441 355.451 191.076C356.56 190.36 356.909 188.978 356.798 187.759C356.694 186.515 356.21 185.361 355.634 184.341C355.033 183.332 354.334 182.432 353.547 181.69C351.977 180.199 350.197 179.268 348.572 178.713C346.937 178.159 345.433 178.005 344.22 178.033C341.774 178.082 340.511 178.728 340.492 178.635C340.489 178.627 340.567 178.593 340.722 178.535C340.908 178.469 341.136 178.389 341.417 178.289C342.037 178.104 342.978 177.883 344.214 177.831C345.446 177.772 346.982 177.898 348.661 178.437C350.329 178.978 352.165 179.906 353.799 181.424C354.618 182.179 355.35 183.101 355.981 184.142C356.586 185.194 357.103 186.387 357.227 187.725C357.29 188.389 357.233 189.09 357.002 189.757C356.78 190.428 356.313 191.044 355.711 191.455C355.114 191.874 354.369 192.128 353.592 192.073C352.814 192.007 352.057 191.533 351.686 190.816C351.291 190.104 351.294 189.254 351.466 188.505C351.634 187.741 351.979 187.029 352.417 186.375C353.356 185.099 354.585 184.087 355.972 183.266C358.737 181.638 362.253 180.978 365.587 181.814C368.905 182.636 371.786 184.732 373.513 187.457C374.365 188.81 374.958 190.412 374.733 192.02C374.509 193.621 373.319 195.025 371.766 195.369C370.992 195.522 370.158 195.341 369.544 194.88C368.918 194.431 368.508 193.772 368.267 193.093C368.032 192.408 367.96 191.68 368.074 190.983C368.182 190.277 368.486 189.655 368.841 189.089C369.585 187.97 370.609 187.165 371.632 186.521C372.667 185.888 373.71 185.377 374.744 184.979C378.892 183.36 382.597 183.391 385.017 183.706C387.468 184.023 388.727 184.591 388.727 184.591Z" fill="#FAFAFA"/>
<path d="M277.021 101.239C279.097 101.348 278.504 112.652 280.039 110.26C281.573 107.867 279.157 96.3906 281.32 96.5926C284.137 96.8566 283.3 108.686 283.303 109.691C283.306 110.667 284.758 110.688 284.706 109.782C284.632 108.48 284.197 94.7826 286.967 95.0156C288.503 95.1446 287.944 97.8886 287.944 97.8886C287.944 97.8886 287.407 110.76 288.72 110.826C290.052 110.893 290.622 103.341 290.635 100.785C290.647 98.2596 291.853 97.2076 292.967 98.1126C293.726 98.7296 293.874 106.554 293.802 109.082C293.731 111.61 293.413 118.546 296.348 115.182C299.284 111.819 302.778 110.308 303.991 110.55C305.204 110.792 305.265 112.578 304.01 113.156C302.996 113.624 301.535 114.921 300.475 115.941C299.602 116.781 298.977 117.82 298.316 118.832C297.611 119.911 297.346 120.604 296.77 122.416L300.703 169.561L303.591 165.955L320.067 181.882L311.469 191.774C305.17 199.021 293.776 199.488 287.375 192.33C287.142 192.069 286.918 191.801 286.702 191.526C285.104 189.484 284.25 186.956 284.032 184.372L278.59 123.248L278.542 123.25C278.423 116.457 276.579 111.294 276.258 107.792C275.664 101.277 276.249 101.199 277.021 101.239Z" fill="#FFBE9D"/>
<path d="M353.177 126.434C353.237 119.325 353.171 111.839 353.171 111.839C353.171 111.839 344.03 110.212 342.271 98.2418C340.593 86.8258 343.439 62.2718 343.439 62.2718C356.682 57.0488 371.592 59.0688 380.869 69.7278L379.427 127.46C379.259 134.162 373.363 139.356 366.189 139.122C358.942 138.885 353.12 133.207 353.177 126.434Z" fill="#FFBE9D"/>
<path d="M345.927 81.1259C345.889 81.9349 346.543 82.6339 347.387 82.6889C348.229 82.7439 348.944 82.1349 348.982 81.3259C349.02 80.5169 348.367 79.8169 347.524 79.7619C346.681 79.7059 345.965 80.3169 345.927 81.1259Z" fill="black"/>
<path d="M343.463 79.3808C343.651 79.5828 344.822 78.7368 346.471 78.7608C348.118 78.7608 349.319 79.6228 349.5 79.4228C349.589 79.3348 349.4 78.9718 348.877 78.5818C348.363 78.1938 347.482 77.8118 346.455 77.8048C345.428 77.7988 344.559 78.1668 344.059 78.5478C343.546 78.9308 343.37 79.2908 343.463 79.3808Z" fill="black"/>
<path d="M362.805 81.6116C362.767 82.4206 363.421 83.1196 364.265 83.1746C365.107 83.2296 365.822 82.6206 365.86 81.8116C365.898 81.0026 365.244 80.3026 364.402 80.2476C363.558 80.1926 362.843 80.8026 362.805 81.6116Z" fill="black"/>
<path d="M360.662 80.1786C360.85 80.3806 362.022 79.5356 363.67 79.5586C365.317 79.5586 366.518 80.4206 366.699 80.2206C366.788 80.1326 366.6 79.7696 366.076 79.3796C365.562 78.9916 364.681 78.6096 363.654 78.6026C362.627 78.5966 361.758 78.9646 361.257 79.3456C360.747 79.7286 360.57 80.0886 360.662 80.1786Z" fill="black"/>
<path d="M354.536 92.3389C354.545 92.2449 353.522 92.0559 351.863 91.8249C351.443 91.7769 351.045 91.6879 350.977 91.3999C350.881 91.0949 351.063 90.6429 351.273 90.1549C351.681 89.1409 352.107 88.0769 352.555 86.9629C354.337 82.4179 355.632 78.6789 355.449 78.6089C355.265 78.5389 353.672 82.1659 351.89 86.7109C351.461 87.8319 351.05 88.8999 350.66 89.9229C350.495 90.3999 350.215 90.9389 350.422 91.5729C350.532 91.8889 350.838 92.1209 351.107 92.1969C351.376 92.2819 351.613 92.2899 351.821 92.3049C353.491 92.4129 354.528 92.4329 354.536 92.3389Z" fill="black"/>
<path d="M353.171 111.839C353.171 111.839 361.203 112.45 369.222 107.755C369.222 107.755 365.245 115.918 353.299 114.662L353.171 111.839Z" fill="#EB996E"/>
<path d="M355.187 96.3208C355.789 95.5438 356.833 95.1248 357.864 95.2478C358.579 95.3328 359.298 95.6868 359.726 96.2738C360.154 96.8618 360.235 97.6898 359.834 98.2408C359.382 98.8618 358.45 98.9948 357.666 98.7628C356.881 98.5298 356.21 98.0038 355.573 97.4808C355.397 97.3358 355.216 97.1848 355.108 96.9878C354.999 96.7908 354.978 96.5348 355.118 96.3738" fill="#EB996E"/>
<path d="M359.375 93.5358C359.107 93.5168 359.083 95.3068 357.536 96.5598C355.992 97.8168 354.086 97.5938 354.069 97.8438C354.043 97.9558 354.49 98.1958 355.295 98.2278C356.085 98.2638 357.241 98.0238 358.188 97.2578C359.132 96.4898 359.546 95.4548 359.615 94.7208C359.693 93.9718 359.498 93.5268 359.375 93.5358Z" fill="black"/>
<path d="M375.679 61.1999C371.307 67.4349 359.732 73.8469 351.443 75.3349C352.411 74.0609 357.502 70.9219 358.47 69.6479C354.712 72.4539 349.336 76.2069 344.351 76.4609C343.762 76.4909 343.123 76.4899 342.638 76.1939C341.977 75.7919 341.843 75.0089 341.766 74.3169C341.444 71.3959 341.646 66.3879 342.111 63.4889C342.576 60.5899 343.908 57.7059 346.423 55.7629C349.616 53.2959 354.187 52.6869 358.493 52.5839C362.105 52.4969 365.828 52.7109 369.129 54.0139C372.43 55.3169 375.254 57.8929 375.737 60.9899" fill="black"/>
<path d="M388.215 89.1338C388.817 86.0408 389.297 83.1058 389.409 81.1468C389.761 74.9798 387.981 52.2218 366.72 54.0538L371.836 60.5838C371.836 60.5838 367.635 74.3778 376.581 83.8928C376.581 83.8928 377.088 89.4608 383.316 95.8848C383.316 95.8828 386.922 95.7738 388.215 89.1338Z" fill="black"/>
<path d="M376.328 82.8557C377.608 82.6227 378.959 82.6737 380.172 83.1467C381.384 83.6187 382.446 84.5377 382.958 85.7337C383.471 86.9327 383.403 88.3317 382.947 89.5537C382.491 90.7757 381.673 91.8367 380.733 92.7417C380.058 93.3917 379.293 93.9837 378.396 94.2537C377.499 94.5237 376.448 94.4237 375.739 93.8107" fill="#FFBE9D"/>
<path d="M376.945 90.6098C376.798 90.6558 377.345 91.4348 378.517 91.1338C379.081 90.9918 379.635 90.5038 379.975 89.8898C380.317 89.2658 380.542 88.5808 380.636 87.7768C380.726 86.9798 380.554 86.1308 380.122 85.5208C379.71 84.9008 379.029 84.5288 378.455 84.5098C377.254 84.4688 376.872 85.2968 377.008 85.3228C377.103 85.4208 377.574 84.9978 378.359 85.1958C379.111 85.3428 379.839 86.3898 379.662 87.6788C379.504 88.9918 378.985 90.1888 378.282 90.4818C377.548 90.8458 377.026 90.5058 376.945 90.6098Z" fill="#EB996E"/>
<path d="M391.319 205.105V199.644H352.89L341.607 150.245L284.094 150.717L298.041 205.105H391.319Z" fill="black"/>
<path d="M311.345 177.706C312.195 180.322 314.509 181.914 316.512 181.263C318.515 180.612 319.451 177.963 318.601 175.348C317.751 172.732 315.437 171.139 313.434 171.791C311.431 172.443 310.495 175.091 311.345 177.706Z" fill="#FAFAFA"/>
<path d="M338.974 204.769C338.01 202.925 337.199 201.002 336.571 199.018C336.421 198.544 336.28 198.05 336.346 197.558C336.412 197.066 336.742 196.574 337.229 196.476C338.125 196.295 338.682 197.382 339.032 198.227C340.339 201.378 343.246 203.802 346.57 204.557L348.899 204.492L348.909 204.396L399.176 199.914L396.779 189.942L423.39 187.965L425.815 197.784C427.127 210.046 417.256 220.619 404.933 220.151L347.252 220.166C328.905 221.367 325.456 205.149 325.456 205.149L338.974 204.769Z" fill="#FFBE9D"/>
<path d="M272.141 365.929L249.42 379.95L257.753 400.002C265.432 392.864 271.56 384.095 275.594 374.257L272.141 365.929Z" fill="#B78876"/>
<path d="M278.303 366.39C275.365 359.361 265.288 336.148 256.853 327.473C244.224 314.485 221.994 316.233 221.994 316.233L193.119 317.259C193.119 317.259 182.138 318.464 171.849 323.841L171.14 324.06L171.149 324.207C163.067 328.596 151.621 339.123 140.719 349.338L153.766 361.446L168.207 374.265C168.207 374.265 168.151 374.358 168.182 374.521C168.333 375.298 165.836 390.808 163.625 404.209C176.313 414.052 192.322 419.786 209.627 419.449C220.646 419.235 231.043 416.578 240.318 412.014L241.397 399.626C242.381 388.394 243.131 374.487 243.131 374.487L247.279 385.004L277.404 369.339C277.725 368.366 278.024 367.382 278.303 366.39Z" fill="#28ED70"/>
<path d="M222.795 315.137C222.813 315.134 222.856 315.311 222.922 315.653C223.001 315.994 223.062 316.503 223.113 317.165C223.202 318.484 223.097 320.438 222.367 322.712C221.622 324.96 220.199 327.537 217.801 329.622C215.431 331.727 212.035 333.107 208.389 333.291C204.741 333.451 201.23 332.395 198.671 330.522C196.087 328.672 194.426 326.242 193.471 324.075C192.529 321.881 192.238 319.946 192.201 318.625C192.189 317.961 192.201 317.448 192.247 317.102C192.28 316.755 192.306 316.575 192.324 316.577C192.383 316.581 192.302 317.309 192.403 318.613C192.501 319.912 192.844 321.8 193.806 323.924C194.782 326.023 196.432 328.363 198.947 330.131C201.434 331.919 204.828 332.925 208.363 332.771C211.896 332.592 215.18 331.273 217.487 329.258C219.824 327.261 221.245 324.776 222.017 322.593C222.773 320.387 222.935 318.476 222.909 317.172C222.886 315.864 222.736 315.146 222.795 315.137Z" fill="black"/>
<path d="M250.292 321.401C250.3 321.465 249.523 321.435 248.248 321.886C246.98 322.315 245.242 323.364 243.774 325.279C242.276 327.172 241.313 329.967 240.933 333.138C240.732 334.726 240.646 336.411 240.587 338.163C240.515 339.914 240.485 341.728 240.464 343.586C240.407 351.023 240.848 357.749 241.32 362.599C241.547 365.026 241.79 366.985 241.939 368.34C242.011 368.97 242.07 369.485 242.118 369.9C242.153 370.258 242.163 370.448 242.145 370.451C242.127 370.454 242.083 370.27 242.014 369.917C241.941 369.506 241.85 368.994 241.738 368.369C241.526 367.02 241.227 365.065 240.953 362.638C240.387 357.788 239.885 351.043 239.942 343.582C239.964 341.718 239.997 339.898 240.076 338.142C240.143 336.387 240.239 334.688 240.456 333.076C240.867 329.86 241.895 326.978 243.482 325.051C245.034 323.104 246.862 322.073 248.182 321.693C249.514 321.292 250.292 321.401 250.292 321.401Z" fill="black"/>
<path d="M181.566 319.525C181.583 319.53 181.54 319.725 181.443 320.088C181.325 320.505 181.176 321.026 180.994 321.667C180.574 323.105 180.001 325.069 179.302 327.465C177.886 332.363 176.016 339.154 174.188 346.714C172.364 354.278 170.928 361.174 169.953 366.179C169.482 368.63 169.096 370.638 168.813 372.108C168.683 372.761 168.577 373.294 168.492 373.719C168.413 374.087 168.363 374.278 168.345 374.275C168.327 374.272 168.343 374.075 168.388 373.702C168.447 373.273 168.522 372.735 168.613 372.075C168.816 370.662 169.148 368.624 169.591 366.111C170.474 361.085 171.855 354.166 173.682 346.592C175.513 339.022 177.442 332.236 178.95 327.36C179.703 324.922 180.338 322.957 180.802 321.607C181.022 320.978 181.202 320.464 181.345 320.055C181.472 319.702 181.548 319.52 181.566 319.525Z" fill="black"/>
<path d="M277.736 361.564C277.756 361.594 277.335 361.905 276.558 362.443C275.782 362.982 274.644 363.738 273.226 364.655C270.39 366.489 266.419 368.94 261.948 371.503C257.474 374.065 253.351 376.252 250.335 377.772C248.827 378.532 247.599 379.132 246.743 379.529C245.887 379.928 245.406 380.133 245.39 380.101C245.374 380.069 245.824 379.802 246.652 379.348C247.567 378.852 248.748 378.213 250.166 377.445C253.135 375.843 257.224 373.609 261.69 371.05C266.154 368.491 270.149 366.093 273.032 364.341C274.411 363.506 275.56 362.81 276.45 362.271C277.259 361.788 277.716 361.534 277.736 361.564Z" fill="black"/>
<path d="M169.701 365.955C169.61 366.067 163.933 361.591 157.021 355.96C150.107 350.327 144.578 345.672 144.669 345.561C144.76 345.45 150.436 349.924 157.35 355.557C164.262 361.187 169.792 365.843 169.701 365.955Z" fill="black"/>
<path opacity="0.2" d="M240.182 345.632L251.487 382.818L247.28 385.006L243.132 374.489C243.132 374.489 238.871 352.396 240.182 345.632Z" fill="black"/>
<g opacity="0.2">
<path d="M182.79 319.548C176.697 322.761 191.968 330.491 198.866 330.282L193.857 317.067C193.857 317.067 184.835 318.47 182.79 319.548Z" fill="black"/>
</g>
<path opacity="0.2" d="M221.679 373.473L185.496 373.607L187.875 360.289L224.353 359.579L221.679 373.473Z" fill="white"/>
<path d="M218.214 272.233C217.931 273.234 218.298 274.388 219.108 275.042C219.918 275.696 221.123 275.811 222.042 275.322C223.788 274.394 223.964 271.957 223.579 270.018C223.194 268.079 222.492 266.014 223.274 264.198C223.872 262.808 225.207 261.909 226.241 260.805C228.042 258.881 228.967 256.11 228.47 253.521C227.973 250.933 225.98 248.637 223.429 247.977C220.824 247.303 217.648 248.161 215.683 246.323C214.259 244.991 214.13 242.766 213.017 241.165C211.289 238.679 207.732 238.349 204.741 238.817C201.75 239.285 198.716 240.307 195.765 239.633C193.3 239.07 191.253 237.396 188.934 236.39C183.907 234.208 177.562 235.566 173.869 239.615C170.176 243.664 169.405 250.107 172.039 254.913C172.985 256.639 174.389 258.198 176.228 258.9" fill="black"/>
<path d="M207.723 332.987C199.776 332.999 193.218 326.826 192.825 318.959C192.498 312.406 192.224 306.097 192.224 306.097C192.224 306.097 180.058 305.215 178.936 293.322C177.814 281.428 177.66 253.923 177.66 253.923C191.081 246.878 207.296 247.582 220.039 255.764L221.196 256.507L222.602 318.057C222.692 326.266 216.007 332.974 207.723 332.987Z" fill="#B78876"/>
<path d="M200.741 272.219C199.824 272.521 199.326 273.503 199.631 274.412C199.935 275.321 200.925 275.813 201.843 275.512C202.76 275.21 203.258 274.229 202.953 273.319C202.649 272.409 201.659 271.917 200.741 272.219Z" fill="black"/>
<path d="M197.408 272.837C197.609 273.032 198.736 272.061 200.392 271.955C202.047 271.825 203.302 272.626 203.473 272.404C203.557 272.305 203.347 271.944 202.798 271.579C202.259 271.217 201.352 270.89 200.32 270.964C199.288 271.038 198.438 271.49 197.957 271.925C197.467 272.363 197.311 272.751 197.408 272.837Z" fill="black"/>
<path d="M182.584 272.219C181.667 272.521 181.169 273.503 181.474 274.412C181.779 275.321 182.768 275.813 183.686 275.512C184.603 275.21 185.101 274.229 184.797 273.319C184.492 272.409 183.502 271.917 182.584 272.219Z" fill="black"/>
<path d="M179.028 272.874C179.229 273.069 180.356 272.098 182.012 271.992C183.667 271.862 184.922 272.663 185.093 272.441C185.177 272.342 184.967 271.981 184.418 271.616C183.879 271.253 182.972 270.927 181.94 271.001C180.908 271.075 180.058 271.527 179.577 271.962C179.087 272.4 178.931 272.788 179.028 272.874Z" fill="black"/>
<path d="M191.525 285.734C191.526 285.605 190.486 285.482 188.803 285.388C188.366 285.376 188.019 285.307 187.969 285.078C187.87 284.825 188 284.354 188.178 283.825C188.515 282.706 188.856 281.574 189.214 280.388C190.633 275.495 191.58 271.472 191.33 271.401C191.079 271.33 189.726 275.237 188.307 280.13C187.974 281.323 187.657 282.462 187.343 283.588C187.225 284.097 186.971 284.7 187.252 285.39C187.4 285.735 187.762 285.964 188.054 286.015C188.348 286.078 188.592 286.058 188.8 286.051C190.482 285.975 191.524 285.863 191.525 285.734Z" fill="black"/>
<path d="M197.048 287.112C193.731 288.722 192.191 289.214 189.125 290.103C189.125 290.103 191.307 293.007 194.668 291.471C198.157 289.877 197.048 287.112 197.048 287.112Z" fill="white"/>
<path d="M192.191 305.927C192.191 305.927 199.833 305.927 207.491 300.252C207.491 300.252 204.49 309.119 192.415 309.014L192.191 305.927Z" fill="#BF8776"/>
<path d="M221.487 268.534C221.475 267.571 222.217 266.742 223.188 266.696C225.431 266.591 229.119 267.402 229.583 273.533C230.246 282.292 221.694 280.27 221.659 280.02C221.632 279.825 221.53 271.942 221.487 268.534Z" fill="#B78876"/>
<path d="M223.541 276.536C223.578 276.505 223.703 276.631 223.972 276.73C224.234 276.826 224.677 276.873 225.125 276.668C226.033 276.258 226.708 274.731 226.631 273.149C226.594 272.35 226.367 271.603 226.035 270.996C225.716 270.375 225.265 269.959 224.788 269.911C224.312 269.839 224 270.143 223.911 270.397C223.811 270.651 223.88 270.822 223.835 270.84C223.812 270.864 223.634 270.708 223.678 270.34C223.702 270.164 223.789 269.949 223.984 269.765C224.183 269.578 224.489 269.468 224.819 269.478C225.504 269.474 226.164 270.049 226.53 270.716C226.933 271.383 227.206 272.22 227.248 273.117C227.325 274.886 226.539 276.606 225.289 277.067C224.68 277.274 224.147 277.127 223.863 276.94C223.573 276.747 223.512 276.554 223.541 276.536Z" fill="#BF8776"/>
<path d="M203.309 267.955C202.935 268.436 201.629 268.211 199.934 268.139C198.242 268.003 196.918 268.067 196.609 267.544C196.259 266.999 197.896 265.748 200.079 265.927C202.267 266.017 203.728 267.458 203.309 267.955Z" fill="black"/>
<path d="M184.194 267.65C184.069 268.257 182.971 268.546 181.732 268.663C180.491 268.763 179.359 268.669 179.13 268.093C178.898 267.534 179.939 266.594 181.537 266.456C183.135 266.315 184.324 267.06 184.194 267.65Z" fill="black"/>
<path d="M175.969 257.689C175.969 257.689 183.186 261.183 192.578 256.495C198.741 253.419 205.926 251.916 207.51 253.155C209.094 254.394 209.428 260.745 215.534 262.599C215.534 262.599 215.115 274.716 219.946 274.284C224.777 273.852 221.758 255.085 221.758 255.085L209.939 249.313L197.042 246.876L184.89 248.589L175.487 251.164L175.969 257.689Z" fill="black"/>
<path d="M132.795 278.435C133.222 279.12 147.124 327.288 147.124 327.288L119.542 331.049L106.856 291.744L132.795 278.435Z" fill="black"/>
<path d="M147.124 327.288L149.602 325.969L135.169 277.17L132.498 278.587L147.124 327.288Z" fill="black"/>
<path d="M121.24 291.224C121.376 291.856 120.973 292.477 120.342 292.613C119.71 292.748 119.089 292.346 118.953 291.715C118.817 291.083 119.22 290.462 119.851 290.326C120.483 290.19 121.105 290.593 121.24 291.224Z" fill="black"/>
<path d="M141.921 349.272L123.827 361.059L120.497 318.888L120.779 316.781L133.037 312.103L129.513 303.077C127.791 298.866 122.838 297.025 118.783 299.088C117.476 299.753 116.101 300.453 114.859 301.087C112.063 302.512 109.994 305.049 109.186 308.081C107.793 313.306 106.553 318.952 106.683 318.461L98.9301 372.744C98.9301 372.744 95.2431 388.395 105.951 395.841C114.042 401.467 127.667 395.493 134.899 391.405L166.238 372.518L141.921 349.272Z" fill="#B78876"/>
<path d="M160.409 127.905L148.133 109.23L127.441 122.23L146.2 151.158C146.2 151.158 156.521 139.96 160.409 127.905Z" fill="#EB996E"/>
<path d="M83.5048 34.5081C84.5178 33.3941 83.1448 31.6511 81.7298 31.1371C80.3148 30.6231 78.5518 30.3861 77.8758 29.0411C77.0548 27.4091 78.5048 25.5841 78.7668 23.7761C79.0458 21.8421 77.9308 20.0031 77.5998 18.0771C77.1788 15.6261 78.1388 12.9851 80.0358 11.3761C81.9318 9.76809 84.6958 9.25208 87.0448 10.0681C87.1948 6.30108 89.8548 2.75909 93.4298 1.56409C97.0048 0.369087 101.26 1.60008 103.645 4.51908C105.509 3.10208 107.402 1.66808 109.574 0.792083C111.746 -0.0839166 114.268 -0.349916 116.41 0.596084C118.552 1.54308 120.142 3.89909 119.728 6.20409C121.349 4.27709 124.365 3.89908 126.641 4.97708C128.916 6.05508 130.462 8.33508 131.124 10.7641C132.05 14.1571 131.243 18.1591 128.537 20.4051C125.831 22.6511 121.197 22.4421 119.193 19.5521" fill="black"/>
<path d="M96.7836 91.9803C104.22 91.9923 110.355 86.2153 110.722 78.8553C111.028 72.7243 111.284 66.8213 111.284 66.8213C111.284 66.8213 122.667 65.9963 123.717 54.8693C124.767 43.7413 124.911 18.0073 124.911 18.0073C112.354 11.4163 97.1827 12.0743 85.2617 19.7293L84.1787 20.4243L82.8636 78.0103C82.7786 85.6923 89.0326 91.9683 96.7836 91.9803Z" fill="#FFBE9D"/>
<path d="M103.315 35.125C104.173 35.407 104.639 36.326 104.354 37.176C104.069 38.027 103.143 38.487 102.284 38.205C101.426 37.923 100.96 37.004 101.245 36.154C101.53 35.303 102.456 34.843 103.315 35.125Z" fill="black"/>
<path d="M106.434 35.7042C106.246 35.8872 105.191 34.9782 103.642 34.8792C102.093 34.7572 100.919 35.5072 100.76 35.2992C100.681 35.2062 100.878 34.8682 101.391 34.5282C101.895 34.1892 102.743 33.8832 103.709 33.9522C104.674 34.0212 105.47 34.4442 105.92 34.8512C106.379 35.2612 106.525 35.6232 106.434 35.7042Z" fill="black"/>
<path d="M120.303 35.1254C121.161 35.4074 121.627 36.3264 121.342 37.1764C121.057 38.0274 120.131 38.4874 119.272 38.2054C118.414 37.9234 117.948 37.0044 118.233 36.1544C118.518 35.3034 119.445 34.8434 120.303 35.1254Z" fill="black"/>
<path d="M123.631 35.7384C123.443 35.9214 122.388 35.0124 120.839 34.9134C119.29 34.7914 118.116 35.5414 117.957 35.3334C117.878 35.2404 118.075 34.9034 118.588 34.5624C119.092 34.2234 119.94 33.9174 120.906 33.9864C121.871 34.0554 122.667 34.4784 123.117 34.8854C123.576 35.2954 123.721 35.6584 123.631 35.7384Z" fill="black"/>
<path d="M111.938 47.7703C111.937 47.6493 112.91 47.5343 114.484 47.4463C114.893 47.4353 115.218 47.3703 115.265 47.1573C115.358 46.9203 115.236 46.4793 115.069 45.9843C114.754 44.9373 114.434 43.8783 114.1 42.7683C112.772 38.1903 111.886 34.4263 112.12 34.3603C112.354 34.2933 113.621 37.9493 114.949 42.5273C115.26 43.6433 115.558 44.7093 115.851 45.7623C115.962 46.2383 116.199 46.8033 115.936 47.4483C115.797 47.7703 115.459 47.9843 115.186 48.0323C114.911 48.0913 114.683 48.0733 114.488 48.0663C112.913 47.9953 111.939 47.8913 111.938 47.7703Z" fill="black"/>
<path d="M106.771 49.0591C109.874 50.5661 111.315 51.0261 114.184 51.8571C114.184 51.8571 112.142 54.5741 108.998 53.1371C105.733 51.6461 106.771 49.0591 106.771 49.0591Z" fill="white"/>
<path d="M111.315 66.6635C111.315 66.6635 104.165 66.6625 97.0005 61.3545C97.0005 61.3545 99.8085 69.6505 111.105 69.5515L111.315 66.6635Z" fill="#EB996E"/>
<path d="M83.9056 36.7692C83.9166 35.8682 83.2226 35.0922 82.3146 35.0502C80.2166 34.9522 76.7656 35.7112 76.3316 41.4472C75.7116 49.6422 83.7126 47.7502 83.7446 47.5162C83.7696 47.3332 83.8656 39.9582 83.9056 36.7692Z" fill="#FFBE9D"/>
<path d="M81.9836 44.2565C81.9496 44.2275 81.8316 44.3454 81.5806 44.4384C81.3356 44.5284 80.9216 44.5725 80.5026 44.3805C79.6536 43.9975 79.0216 42.5675 79.0936 41.0885C79.1286 40.3405 79.3406 39.6425 79.6516 39.0745C79.9496 38.4935 80.3726 38.1045 80.8176 38.0595C81.2626 37.9925 81.5546 38.2765 81.6376 38.5145C81.7306 38.7525 81.6666 38.9115 81.7086 38.9285C81.7296 38.9505 81.8966 38.8045 81.8556 38.4615C81.8336 38.2965 81.7516 38.0955 81.5686 37.9235C81.3816 37.7485 81.0966 37.6455 80.7876 37.6555C80.1466 37.6515 79.5286 38.1904 79.1866 38.8134C78.8096 39.4374 78.5546 40.2215 78.5146 41.0605C78.4426 42.7155 79.1786 44.3245 80.3476 44.7565C80.9176 44.9505 81.4166 44.8125 81.6816 44.6385C81.9536 44.4545 82.0116 44.2735 81.9836 44.2565Z" fill="#EB996E"/>
<path d="M100.913 31.1363C101.263 31.5863 102.484 31.3753 104.071 31.3083C105.654 31.1813 106.893 31.2413 107.182 30.7513C107.51 30.2413 105.978 29.0713 103.936 29.2383C101.889 29.3233 100.521 30.6713 100.913 31.1363Z" fill="black"/>
<path d="M118.797 30.8511C118.913 31.4191 119.941 31.6891 121.1 31.7981C122.261 31.8911 123.32 31.8031 123.535 31.2651C123.752 30.7431 122.779 29.8631 121.283 29.7341C119.789 29.6021 118.675 30.2991 118.797 30.8511Z" fill="black"/>
<path d="M126.493 21.5311C126.493 21.5311 119.741 24.8001 110.953 20.4141C105.186 17.5361 98.4647 16.1301 96.9827 17.2891C95.5007 18.4481 95.1877 24.3901 89.4757 26.1251C89.4757 26.1251 89.8677 37.4621 85.3477 37.0571C80.8277 36.6531 83.6527 19.0941 83.6527 19.0941L94.7107 13.6941L106.778 11.4141L118.148 13.0171L126.945 15.4261L126.493 21.5311Z" fill="black"/>
<path d="M50.8164 87.1322C62.6324 74.9802 83.4304 76.3062 83.4304 76.3062L110.445 77.2662C110.445 77.2662 120.719 78.3942 130.345 83.4242L131.008 83.6292L131 83.7672C138.562 87.8732 149.27 97.7222 159.471 107.28L147.264 118.608L133.753 130.601C133.753 130.601 133.806 130.688 133.776 130.841C133.635 131.568 135.971 146.079 138.039 158.617C126.168 167.826 111.191 173.191 95.0004 172.876C84.6914 172.675 74.9634 170.19 66.2854 165.919L65.2754 154.329C64.3544 143.82 63.6524 130.809 63.6524 130.809" fill="#28ED70"/>
<path d="M121.256 79.3854C121.273 79.3794 121.346 79.5504 121.468 79.8804C121.604 80.2674 121.773 80.7474 121.979 81.3314C122.415 82.5934 123.011 84.4314 123.717 86.7124C125.131 91.2734 126.937 97.6214 128.65 104.705C130.359 111.792 131.649 118.266 132.473 122.969C132.886 125.321 133.195 127.228 133.383 128.55C133.466 129.163 133.535 129.667 133.59 130.074C133.632 130.423 133.645 130.608 133.627 130.611C133.609 130.614 133.561 130.435 133.486 130.091C133.405 129.689 133.305 129.191 133.182 128.584C132.915 127.2 132.552 125.323 132.11 123.037C131.195 118.356 129.849 111.904 128.143 104.828C126.432 97.7554 124.685 91.4024 123.363 86.8184C122.713 84.5824 122.179 82.7464 121.785 81.3934C121.617 80.7974 121.479 80.3084 121.368 79.9134C121.277 79.5724 121.238 79.3914 121.256 79.3854Z" fill="black"/>
<path d="M132.356 122.825C132.265 122.713 137.435 118.351 143.901 113.083C150.369 107.813 155.685 103.633 155.776 103.744C155.867 103.855 150.699 108.217 144.23 113.487C137.764 118.755 132.447 122.937 132.356 122.825Z" fill="black"/>
<path opacity="0.2" d="M66.4144 103.811L55.8374 138.602L59.7734 140.649L63.6534 130.809C63.6534 130.809 67.6414 110.139 66.4144 103.811Z" fill="black"/>
<g opacity="0.2">
<path d="M120.11 79.4064C125.811 82.4124 111.523 89.6444 105.07 89.4494L109.756 77.0854C109.756 77.0854 118.197 78.3984 120.11 79.4064Z" fill="black"/>
</g>
<path d="M81.7305 77.0851V67.8721C81.7305 67.8721 99.7255 72.5021 100.378 83.2691C100.378 83.2691 102.667 71.3681 111.938 70.7971L113.247 87.5381L102.459 96.9251H91.5235L82.8615 89.4541L81.7295 77.8291" fill="#28ED70"/>
<path d="M104.429 134.912C104.411 134.911 104.402 134.734 104.4 134.398C104.405 134.003 104.411 133.518 104.418 132.931C104.451 131.658 104.48 129.816 104.491 127.541C104.516 122.991 104.38 116.702 103.809 109.784C103.23 102.864 102.327 96.6391 101.551 92.1551C101.165 89.9131 100.832 88.1011 100.59 86.8511C100.486 86.2731 100.4 85.7961 100.33 85.4071C100.276 85.0761 100.256 84.9001 100.274 84.8961C100.292 84.8921 100.346 85.0601 100.433 85.3851C100.529 85.7691 100.646 86.2391 100.789 86.8091C101.093 88.0471 101.481 89.8511 101.914 92.0891C102.784 96.5641 103.748 102.801 104.329 109.741C104.901 116.679 104.98 122.988 104.86 127.546C104.802 129.825 104.717 131.669 104.622 132.94C104.576 133.526 104.537 134.009 104.506 134.403C104.472 134.738 104.446 134.913 104.429 134.912Z" fill="black"/>
<path d="M99.5505 80.1703C99.5465 80.2183 99.1445 80.0013 98.4775 80.2523C98.1505 80.3763 97.7905 80.6233 97.4855 81.0253C97.1745 81.4223 96.9215 81.9523 96.6465 82.5553C95.5325 84.9483 94.1585 88.4003 93.2035 92.5133L93.1245 92.8543L92.8235 92.6723C91.7485 92.0223 90.6465 91.3203 89.5385 90.5683C87.3905 89.1063 85.4225 87.6153 83.7065 86.1423C82.8445 85.4023 82.1365 84.5103 81.7285 83.5603C81.3255 82.6093 81.1655 81.6563 81.1195 80.7973C81.0445 79.0703 81.3225 77.7033 81.5015 76.7733C81.6965 75.8423 81.8425 75.3373 81.8755 75.3443C81.9135 75.3513 81.8345 75.8713 81.7015 76.8083C81.5835 77.7423 81.3665 79.1073 81.4865 80.7733C81.5545 81.6013 81.7295 82.5033 82.1225 83.3843C82.5235 84.2643 83.1765 85.0703 84.0235 85.7823C85.7265 87.2093 87.7015 88.6893 89.8315 90.1373C90.9325 90.8843 92.0255 91.5853 93.0895 92.2373L92.7095 92.3963C93.6995 88.2443 95.1495 84.7803 96.3515 82.4113C96.6465 81.8203 96.9325 81.2743 97.2875 80.8623C97.6355 80.4453 98.0575 80.1893 98.4215 80.0843C99.1745 79.8673 99.5765 80.1663 99.5505 80.1703Z" fill="black"/>
<path d="M111.938 70.7969C111.974 70.7959 112.024 71.3089 112.087 72.2359C112.158 73.2599 112.247 74.5779 112.356 76.1589C112.486 77.8119 112.683 79.7759 113.018 81.9399C113.149 83.0079 113.52 84.1669 113.232 85.4559C112.865 86.7219 111.905 87.6779 110.884 88.4499C109.448 89.5169 107.937 90.3219 106.918 91.4659L106.521 91.9119L106.481 91.3169C106.226 87.5019 104.947 84.3659 103.8 82.3309C102.646 80.2799 101.694 79.2309 101.759 79.1789C101.779 79.1609 102.032 79.4079 102.455 79.9009C102.875 80.3969 103.453 81.1529 104.074 82.1719C105.314 84.1919 106.688 87.3719 106.98 91.2819L106.543 91.1329C107.636 89.8929 109.189 89.0669 110.569 88.0339C111.553 87.2999 112.427 86.3899 112.737 85.3289C112.996 84.2509 112.674 83.0999 112.543 82.0099C112.231 79.8269 112.072 77.8459 111.988 76.1829C111.905 74.5199 111.885 73.1729 111.882 72.2429C111.883 71.3129 111.902 70.7989 111.938 70.7969Z" fill="black"/>
<path d="M169.856 73.1089C169.124 73.9709 142.633 109.393 142.633 109.393L146.362 111.506L173.547 76.5339L169.856 73.1089Z" fill="black"/>
<path d="M63.4354 101.115C63.4354 101.115 91.3044 141.232 92.9834 142.02C96.2914 143.573 134.417 110.625 138.053 107.473C138.554 106.804 139.588 105.391 141.619 102.581C141.619 102.581 144.627 88.8158 147.837 89.8728C151.047 90.9298 146.078 96.8678 148.169 102.098C150.26 107.328 159.834 94.8539 160.217 93.7339L162.686 90.5079C162.686 90.5079 165.275 97.8489 165.1 100.915C164.538 110.735 155.247 122.414 155.247 122.414C155.247 122.414 113.521 174.102 84.9404 175.706C76.7084 176.168 62.0794 152.81 52.2994 135.295C46.3934 124.718 49.3404 111.393 59.1294 104.256L63.4354 101.115Z" fill="#FFBE9D"/>
<path d="M160.409 102.66C160.332 102.612 161.237 101.041 162.224 99.0399C163.217 97.0409 163.916 95.3679 164.001 95.4009C164.078 95.4289 163.505 97.1629 162.504 99.1789C161.509 101.196 160.478 102.704 160.409 102.66Z" fill="#EB996E"/>
<path d="M58.7172 81.5381C58.7172 81.5381 28.8042 92.1731 51.0442 142.475L85.5752 121.634L80.6632 109.871L58.7172 81.5381Z" fill="#28ED70"/>
<path d="M56.4252 82.4079C56.4252 82.3989 56.5052 82.3919 56.6622 82.3869C56.8502 82.3849 57.0802 82.3819 57.3602 82.3779C57.9732 82.3819 58.8812 82.4639 60.0212 82.7309C61.1512 83.0249 62.5092 83.5279 63.9332 84.3919C65.3592 85.2489 66.8402 86.4549 68.2802 87.9679C71.1762 90.9929 73.8792 95.2139 76.3892 100.104C78.9162 104.994 81.2752 110.563 83.6972 116.416C84.4222 118.169 85.1372 119.897 85.8152 121.534L85.9042 121.749L85.7002 121.86C75.7092 127.308 67.0112 132.414 60.8672 136.24C57.7922 138.149 55.3452 139.719 53.6662 140.813C52.8542 141.339 52.2102 141.756 51.7332 142.065C51.2902 142.347 51.0542 142.488 51.0442 142.475C51.0352 142.461 51.2532 142.293 51.6782 141.985C52.1052 141.679 52.7332 141.222 53.5612 140.657C55.2082 139.514 57.6292 137.897 60.6822 135.948C66.7832 132.041 75.4602 126.874 85.4522 121.408L85.3372 121.734C84.6592 120.097 83.9422 118.369 83.2152 116.616C80.7942 110.765 78.4532 105.203 75.9612 100.324C73.4872 95.4439 70.8362 91.2389 68.0122 88.2219C66.6082 86.7119 65.1672 85.5069 63.7812 84.6409C62.3962 83.7689 61.0752 83.2479 59.9702 82.9279C57.7312 82.3499 56.4182 82.4879 56.4252 82.4079Z" fill="black"/>
<path d="M224.246 219.577C224.23 223.038 221.411 225.83 217.951 225.814C214.49 225.798 211.698 222.979 211.714 219.519C211.73 216.058 214.549 213.266 218.009 213.282C221.47 213.298 224.262 216.117 224.246 219.577Z" fill="black"/>
<path d="M205.456 211.522C212.337 204.296 223.522 204.077 230.58 211.19C233.779 214.414 238.787 209.455 235.587 206.229C225.903 196.469 210.007 196.527 200.495 206.514C197.368 209.799 202.32 214.815 205.456 211.522Z" fill="black"/>
<path d="M184.172 182.355C193.7 174.117 205.076 168.933 217.813 168.901C230.438 168.87 242.887 173.352 252.134 182.035C255.437 185.137 260.456 180.187 257.141 177.074C246.549 167.127 232.344 161.816 217.846 161.852C203.188 161.888 190.162 167.88 179.212 177.347C175.774 180.32 180.753 185.311 184.172 182.355Z" fill="black"/>
<path d="M192.572 198.519C198.96 191.613 207.912 187.288 217.374 187.072C227.093 186.85 236.477 190.854 243.233 197.795C246.402 201.051 251.408 196.089 248.24 192.834C240.244 184.619 228.914 179.761 217.406 180.023C206.152 180.28 195.246 185.258 187.611 193.511C184.536 196.837 189.483 201.857 192.572 198.519Z" fill="black"/>
<path d="M224.374 215.094C224.358 218.555 221.539 221.347 218.079 221.331C214.618 221.315 211.826 218.496 211.842 215.036C211.858 211.575 214.677 208.783 218.137 208.799C221.597 208.815 224.39 211.633 224.374 215.094Z" fill="black"/>
<path d="M205.584 207.039C212.465 199.813 223.65 199.594 230.708 206.707C233.907 209.931 238.915 204.972 235.715 201.746C226.031 191.986 210.135 192.044 200.624 202.031C197.496 205.316 202.448 210.332 205.584 207.039Z" fill="black"/>
<path d="M184.3 177.872C193.828 169.634 205.204 164.45 217.941 164.418C230.566 164.387 243.015 168.869 252.262 177.552C255.565 180.654 260.584 175.704 257.269 172.591C246.677 162.644 232.472 157.333 217.974 157.369C203.316 157.405 190.29 163.397 179.34 172.864C175.902 175.837 180.881 180.828 184.3 177.872Z" fill="black"/>
<path d="M192.699 194.036C199.087 187.13 208.039 182.805 217.501 182.589C227.22 182.367 236.604 186.371 243.36 193.312C246.529 196.568 251.535 191.606 248.367 188.351C240.371 180.136 229.041 175.278 217.533 175.54C206.279 175.797 195.373 180.775 187.738 189.028C184.663 192.353 189.611 197.374 192.699 194.036Z" fill="black"/>
</svg>
