<svg width="157" height="66" viewBox="0 0 157 66" fill="none" xmlns="http://www.w3.org/2000/svg">
<rect y="0.172852" width="156.628" height="65.4981" rx="32.749" fill="white"/>
<path d="M61.1429 38.4364H58.7429V37.5664H64.5329V38.4364H62.1329V44.5664H61.1429V38.4364ZM68.6844 44.6464C67.9777 44.6464 67.341 44.4931 66.7744 44.1864C66.2077 43.8731 65.761 43.4431 65.4344 42.8964C65.1144 42.3497 64.9544 41.7397 64.9544 41.0664C64.9544 40.3931 65.1144 39.7831 65.4344 39.2364C65.761 38.6897 66.2077 38.2631 66.7744 37.9564C67.341 37.6431 67.9777 37.4864 68.6844 37.4864C69.3844 37.4864 70.0177 37.6431 70.5844 37.9564C71.151 38.2631 71.5944 38.6897 71.9144 39.2364C72.2344 39.7764 72.3944 40.3864 72.3944 41.0664C72.3944 41.7464 72.2344 42.3597 71.9144 42.9064C71.5944 43.4464 71.151 43.8731 70.5844 44.1864C70.0177 44.4931 69.3844 44.6464 68.6844 44.6464ZM68.6844 43.7564C69.1977 43.7564 69.6577 43.6397 70.0644 43.4064C70.4777 43.1731 70.801 42.8531 71.0344 42.4464C71.2744 42.0331 71.3944 41.5731 71.3944 41.0664C71.3944 40.5597 71.2744 40.1031 71.0344 39.6964C70.801 39.2831 70.4777 38.9597 70.0644 38.7264C69.6577 38.4931 69.1977 38.3764 68.6844 38.3764C68.171 38.3764 67.7044 38.4931 67.2844 38.7264C66.871 38.9597 66.5444 39.2831 66.3044 39.6964C66.071 40.1031 65.9544 40.5597 65.9544 41.0664C65.9544 41.5731 66.071 42.0331 66.3044 42.4464C66.5444 42.8531 66.871 43.1731 67.2844 43.4064C67.7044 43.6397 68.171 43.7564 68.6844 43.7564ZM76.6528 37.5664C77.5595 37.5664 78.2728 37.7831 78.7928 38.2164C79.3128 38.6497 79.5728 39.2464 79.5728 40.0064C79.5728 40.7664 79.3128 41.3631 78.7928 41.7964C78.2728 42.2297 77.5595 42.4464 76.6528 42.4464H74.9228V44.5664H73.9228V37.5664H76.6528ZM76.6228 41.5764C77.2561 41.5764 77.7395 41.4431 78.0728 41.1764C78.4061 40.9031 78.5728 40.5131 78.5728 40.0064C78.5728 39.4997 78.4061 39.1131 78.0728 38.8464C77.7395 38.5731 77.2561 38.4364 76.6228 38.4364H74.9228V41.5764H76.6228ZM88.5051 44.5664L86.9951 42.4164C86.8085 42.4297 86.6618 42.4364 86.5551 42.4364H84.8251V44.5664H83.8251V37.5664H86.5551C87.4618 37.5664 88.1751 37.7831 88.6951 38.2164C89.2151 38.6497 89.4751 39.2464 89.4751 40.0064C89.4751 40.5464 89.3418 41.0064 89.0751 41.3864C88.8085 41.7664 88.4285 42.0431 87.9351 42.2164L89.5951 44.5664H88.5051ZM86.5251 41.5864C87.1585 41.5864 87.6418 41.4497 87.9751 41.1764C88.3085 40.9031 88.4751 40.5131 88.4751 40.0064C88.4751 39.4997 88.3085 39.1131 87.9751 38.8464C87.6418 38.5731 87.1585 38.4364 86.5251 38.4364H84.8251V41.5864H86.5251ZM95.5508 42.8164H91.8308L91.0608 44.5664H90.0308L93.2008 37.5664H94.1908L97.3708 44.5664H96.3208L95.5508 42.8164ZM95.2008 42.0164L93.6908 38.5864L92.1808 42.0164H95.2008ZM99.4534 38.4364H97.0534V37.5664H102.843V38.4364H100.443V44.5664H99.4534V38.4364ZM109.013 43.6964V44.5664H103.933V37.5664H108.873V38.4364H104.933V40.5864H108.443V41.4364H104.933V43.6964H109.013ZM110.632 37.5664H113.582C114.322 37.5664 114.978 37.7131 115.552 38.0064C116.125 38.2997 116.568 38.7131 116.882 39.2464C117.202 39.7731 117.362 40.3797 117.362 41.0664C117.362 41.7531 117.202 42.3631 116.882 42.8964C116.568 43.4231 116.125 43.8331 115.552 44.1264C114.978 44.4197 114.322 44.5664 113.582 44.5664H110.632V37.5664ZM113.522 43.6964C114.088 43.6964 114.585 43.5864 115.012 43.3664C115.445 43.1464 115.778 42.8397 116.012 42.4464C116.245 42.0464 116.362 41.5864 116.362 41.0664C116.362 40.5464 116.245 40.0897 116.012 39.6964C115.778 39.2964 115.445 38.9864 115.012 38.7664C114.585 38.5464 114.088 38.4364 113.522 38.4364H111.632V43.6964H113.522Z" fill="#17313B"/>
<path d="M65.7406 17.5664L67.3207 22.4294H72.4339L68.2972 25.4348L69.8773 30.2978L65.7406 27.2923L61.6039 30.2978L63.184 25.4348L59.0473 22.4294H64.1605L65.7406 17.5664Z" fill="#EF4335"/>
<path d="M81.5336 17.5664L83.1137 22.4294H88.2269L84.0902 25.4348L85.6703 30.2978L81.5336 27.2923L77.3969 30.2978L78.977 25.4348L74.8403 22.4294H79.9535L81.5336 17.5664Z" fill="#EF4335"/>
<path d="M97.3275 17.5664L98.9076 22.4294H104.021L99.8841 25.4348L101.464 30.2978L97.3275 27.2923L93.1909 30.2978L94.7709 25.4348L90.6342 22.4294H95.7475L97.3275 17.5664Z" fill="#EF4335"/>
<path d="M113.126 17.5664L114.706 22.4294H119.82L115.683 25.4348L117.263 30.2978L113.126 27.2923L108.99 30.2978L110.57 25.4348L106.433 22.4294H111.546L113.126 17.5664Z" fill="#EF4335"/>
<path d="M128.92 17.5664L130.5 22.4294H135.614L131.477 25.4348L133.057 30.2978L128.92 27.2923L124.784 30.2978L126.364 25.4348L122.227 22.4294H127.34L128.92 17.5664Z" fill="#EF4335"/>
<path d="M38.5789 43.0077C41.1972 43.0077 43.5832 42.0987 45.3903 40.4585L46.6517 39.3232L52.3345 44.9662L50.9817 46.2419C47.7306 49.2917 43.3135 50.9758 38.5768 50.9758C28.3836 50.9758 20.6697 43.1481 20.6697 32.8089C20.6697 22.4257 28.2031 14.8682 38.5768 14.8682C43.2263 14.8682 47.5978 16.5523 50.8904 19.5539L52.2909 20.8295L46.6953 26.4767L45.4359 25.3833C43.5832 23.7432 41.1516 22.8781 38.5789 22.8781C32.6721 22.8781 28.5682 26.9774 28.5682 32.8529C28.5682 38.7284 32.807 43.0077 38.5789 43.0077Z" fill="#17313B"/>
<path d="M38.3016 26.8809C39.8929 26.8809 41.4191 27.5191 42.5443 28.6551C43.6696 29.7912 44.3017 31.332 44.3017 32.9386C44.3017 34.5452 43.6696 36.086 42.5443 37.2221C41.4191 38.3581 39.8929 38.9963 38.3016 38.9963C36.7102 38.9963 35.184 38.3581 34.0588 37.2221C32.9335 36.086 32.3014 34.5452 32.3014 32.9386C32.3014 31.332 32.9335 29.7912 34.0588 28.6551C35.184 27.5191 36.7102 26.8809 38.3016 26.8809Z" fill="#FF3D2E"/>
</svg>
