<svg width="48" height="48" viewBox="0 0 48 48" fill="none" xmlns="http://www.w3.org/2000/svg">
<path d="M33.9958 19.2876V32.8818H30.5288V19.2876H33.9958Z" fill="black"/>
<path fill-rule="evenodd" clip-rule="evenodd" d="M25.6115 32.8814L23.9059 27.5498H17.9226L16.3009 32.8814H12.75L18.7894 14.0674H23.179L29.3022 32.8814H25.6115ZM19.9356 20.3201L18.4818 24.9538H23.3188L21.8369 20.3201C21.5428 19.3938 21.2853 18.3762 21.0494 17.4446C20.994 17.2252 20.9396 17.0105 20.8862 16.803H20.8303C20.7348 17.1759 20.6389 17.5749 20.5408 17.9833C20.3527 18.7673 20.1562 19.5862 19.9356 20.3201Z" fill="black"/>
<path fill-rule="evenodd" clip-rule="evenodd" d="M37.3656 0.73739C28.5542 -0.245797 19.4458 -0.245797 10.6346 0.73739C5.52027 1.30806 1.39153 5.33026 0.790263 10.4627C-0.263421 19.457 -0.263421 28.543 0.790263 37.5372C1.39153 42.6696 5.52027 46.692 10.6346 47.2625C19.4458 48.2458 28.5542 48.2458 37.3656 47.2625C42.4798 46.692 46.6084 42.6696 47.2098 37.5372C48.2634 28.543 48.2634 19.457 47.2098 10.4627C46.6084 5.33026 42.4798 1.30806 37.3656 0.73739ZM11.058 4.52031C19.5879 3.56852 28.4121 3.56852 36.9419 4.52031C40.323 4.89756 43.0311 7.5611 43.423 10.9049C44.4423 19.6054 44.4423 28.3946 43.423 37.0952C43.0311 40.4388 40.323 43.1025 36.9419 43.4796C28.4121 44.4315 19.5879 44.4315 11.058 43.4796C7.67716 43.1025 4.96888 40.4388 4.57716 37.0952C3.55789 28.3946 3.55789 19.6054 4.57716 10.9049C4.96888 7.5611 7.67716 4.89756 11.058 4.52031Z" fill="black"/>
</svg>
