<svg width="48" height="40" viewBox="0 0 48 40" fill="none" xmlns="http://www.w3.org/2000/svg">
<path d="M29.564 0C29.102 0.0452131 28.62 0.090426 28.158 0.158246C26.1868 0.406292 24.2695 1.04448 22.494 2.04363C20.6637 3.0564 18.9998 4.41498 17.574 6.06081C17.514 6.15124 17.394 6.19645 17.292 6.17384C16.3019 6.00748 15.2995 5.95446 14.3 6.0156C12.2612 6.12883 10.265 6.71602 8.436 7.74048C4.9 9.73889 2.41 12.8496 0.964 17.0272C0.436432 18.5753 0.124719 20.2066 0.04 21.8628C0.04 21.9758 0.02 22.0662 0 22.1567V23.9041C0.04 24.3585 0.1 24.7903 0.14 25.2447C0.34 27.0826 0.804 28.8527 1.546 30.512C3.194 34.2331 5.724 36.9572 9.118 38.6368C10.6679 39.4092 12.3272 39.8632 14.018 39.9774C14.082 39.9774 14.138 39.9864 14.19 40H31.342C31.708 39.9616 32.066 39.9209 32.436 39.8644C34.3938 39.6159 36.2971 38.9776 38.058 37.979C41.0653 36.3198 43.594 33.7297 45.35 30.5098C46.5525 28.3857 47.3583 26.0063 47.718 23.5176C47.818 22.749 47.878 21.9532 47.96 21.1801C47.96 21.067 47.98 20.9766 48 20.8862V19.0912C47.96 18.5713 47.9 18.0694 47.9 17.5947C47.6804 15.381 47.1157 13.2288 46.232 11.2377C44.7425 7.84146 42.439 4.98635 39.584 2.99763C37.7146 1.65478 35.625 0.751385 33.44 0.341358C32.716 0.205719 32.014 0.1379 31.29 0.0474735C31.19 0.0474735 31.11 0.024867 31.01 0.00226049L29.564 0ZM30.302 3.82729C34.554 3.83859 38.162 5.69458 41.092 9.37719C42.751 11.5045 43.868 14.1008 44.324 16.8893C44.624 18.6165 44.686 20.3866 44.464 22.1341C44.084 25.1769 43.06 27.8987 41.312 30.2837C39.2809 33.1022 36.4617 35.0555 33.318 35.8223C31.6365 36.2384 29.9031 36.3149 28.198 36.0484C26.008 35.7319 24 34.9158 22.192 33.4396C21.7123 33.0517 21.2627 32.6183 20.848 32.1442C18.396 29.4201 15.968 26.6734 13.516 23.9494C12.914 23.2712 12.874 22.5206 13.156 21.8379C13.3034 21.4735 13.5512 21.1727 13.8622 20.9804C14.1733 20.7881 14.531 20.7146 14.882 20.7709C15.302 20.8161 15.626 21.0896 15.926 21.431C18.136 23.9494 20.326 26.4248 22.534 28.9454C24.1918 30.8564 26.3712 32.0797 28.72 32.4178C32.616 33.0078 35.93 31.6469 38.56 28.3531C39.986 26.5604 40.85 24.4038 41.212 21.9984C41.732 18.4108 40.992 15.1871 39.022 12.35C37.276 9.82932 34.986 8.26269 32.214 7.69526C29.382 7.1301 26.712 7.74048 24.282 9.49022C24.222 9.53544 24.082 9.55804 24.02 9.51283C23.1365 8.77403 22.1953 8.12783 21.208 7.58223C21.208 7.58223 21.188 7.55963 21.168 7.51441C21.9394 6.78843 22.7815 6.16423 23.678 5.65389C25.3098 4.65259 27.1091 4.04884 28.96 3.88154C29.4059 3.84343 29.8529 3.82533 30.3 3.82729H30.302ZM15.092 9.84741C18.002 9.79315 20.674 11.0342 23.056 13.5323C24.764 15.3453 26.33 17.2307 27.976 19.1161C28.438 19.636 28.538 20.2961 28.318 20.9992C28.098 21.7023 27.594 22.0436 26.952 22.1567C26.7198 22.1924 26.4834 22.1638 26.2632 22.0732C26.0429 21.9826 25.8455 21.8328 25.688 21.6367C24.12 19.8644 22.554 18.1169 21.008 16.3242C19.742 14.848 18.236 14.007 16.468 13.643C12.552 12.8496 8.596 15.4154 7.19 19.6134C5.382 24.9486 8.234 30.9868 13.154 32.2595C14.118 32.5082 15.144 32.5082 16.148 32.4856C16.428 32.463 16.588 32.576 16.788 32.7795C17.754 33.8488 18.778 34.9158 19.782 35.9806C19.842 36.0484 19.922 36.1162 19.982 36.184C19.862 36.184 19.782 36.2066 19.702 36.2066H15.102C12.448 36.206 9.87345 35.1825 7.80342 33.3051C5.73338 31.4276 4.29158 28.8085 3.716 25.88C2.41 19.2291 5.784 12.4856 11.568 10.512C12.709 10.1033 13.8954 9.87954 15.092 9.84741Z" fill="black"/>
</svg>
