<svg width="48" height="48" viewBox="0 0 48 48" fill="none" xmlns="http://www.w3.org/2000/svg">
<g clip-path="url(#clip0_113_9879)">
<path d="M24 0C10.7415 0 0 10.7415 0 24C0 37.2585 10.7415 48 24 48C37.2585 48 48 37.2585 48 24C48 10.7415 37.2585 0 24 0ZM13.9215 15.36C15.429 15.36 16.602 16.4595 16.734 17.7585C16.8765 18.93 16.3905 19.9545 15.0945 20.571C14.406 20.9145 14.133 20.9145 13.992 20.7105C13.9215 20.571 13.992 20.439 14.1315 20.2965C15.3675 19.275 15.3675 18.447 15.225 17.283C15.1545 16.5255 14.6085 16.047 14.061 16.047C11.655 16.047 8.2335 21.3915 8.709 25.305C8.9205 26.8125 9.8115 28.5945 11.7255 28.5945C12.3435 28.5945 13.032 28.3905 13.647 28.119C14.6475 27.5865 15.249 27.1815 15.843 26.517C15.6945 24.7425 17.2485 22.4235 19.545 22.4235C20.577 22.4235 21.3975 22.8375 21.4665 23.595C21.6 24.6195 20.709 24.759 20.436 24.759C20.1615 24.759 19.6785 24.6885 19.6785 24.4155C19.617 24.141 20.295 24.276 20.232 23.658C20.1615 23.244 19.7475 23.112 19.3425 23.112C17.8965 23.112 17.076 25.104 17.28 26.3295C17.3505 26.883 17.622 27.432 18.1785 27.432C18.585 27.432 19.203 26.814 19.404 25.9245C19.5435 25.3065 20.0925 24.8925 20.5755 24.8925C20.7795 24.8925 20.9115 24.963 20.982 25.236V25.5105C20.9205 25.785 20.7075 26.613 20.7795 26.814C20.7795 26.9565 20.85 27.1575 21.1215 27.1575C21.3015 27.1575 21.99 26.7975 22.677 26.235C22.9035 25.0545 23.1765 23.6415 23.1765 23.5245C23.247 23.04 23.451 22.563 24.411 22.563C24.621 22.563 24.7545 22.6335 24.825 22.9065V23.181L24.5505 24.4155C25.443 23.2515 26.7465 22.431 27.567 22.431C27.9105 22.431 28.185 22.6335 28.185 22.977C28.185 23.181 28.185 23.5245 28.0425 23.8695C27.771 24.6195 27.426 25.791 27.222 26.814C27.222 27.0885 27.2925 27.3615 27.636 27.3615C27.9795 27.3615 29.004 26.955 29.8245 25.854L29.841 25.8465C29.841 25.713 29.8245 25.581 29.8245 25.449C29.8245 24.621 29.895 23.9415 30.036 23.457C30.1755 22.9095 30.8565 22.4325 31.2705 22.4325C31.473 22.4325 31.6845 22.5645 31.6845 22.7685C31.6845 22.839 31.6845 22.9785 31.614 23.043C31.3395 23.9415 31.128 24.7605 31.128 25.581C31.128 26.0655 31.2 26.745 31.3395 27.159C31.3395 27.2295 31.401 27.2985 31.4715 27.2985C31.614 27.2985 32.574 26.409 33.2535 25.236C32.6355 24.8295 32.292 24.1425 32.292 23.322C32.292 21.8775 33.192 21.126 34.0125 21.126C34.701 21.126 35.247 21.6045 35.247 22.5645C35.247 23.1825 35.043 23.871 34.701 24.486H34.9035C35.3415 24.5025 35.772 24.3225 36.0675 24.0105C36.138 23.901 36.231 23.823 36.342 23.7765C37.014 22.9245 37.998 22.293 39.162 22.293C40.122 22.293 41.0055 22.707 41.076 23.457C41.2155 24.4875 40.3185 24.6915 40.044 24.6915C39.7725 24.6915 39.288 24.621 39.288 24.348C39.288 24.075 39.9045 24.2085 39.8415 23.598C39.771 23.184 39.357 23.0445 38.943 23.0445C37.575 23.0445 36.6855 24.825 36.8865 26.271C36.957 26.817 37.23 27.435 37.779 27.435C38.193 27.435 38.8095 26.817 39.0825 25.9275C39.2145 25.3815 39.771 24.8955 40.2465 24.8955C40.4565 24.8955 40.59 24.966 40.6605 25.239C40.6605 25.3815 40.6605 25.653 40.386 26.5455C40.0425 27.162 40.0425 27.5055 40.1145 27.78C40.176 28.326 40.4505 28.74 40.731 28.944C40.7925 29.0145 40.8645 29.1465 40.8645 29.1465C40.8645 29.289 40.7925 29.4285 40.59 29.4285C40.5195 29.4285 40.4565 29.4285 40.386 29.358C39.3555 28.944 38.9415 28.2555 38.808 27.5685C38.394 28.053 37.9185 28.326 37.3635 28.326C36.471 28.326 35.589 27.5055 35.4495 26.4735C35.409 26.037 35.4555 25.5915 35.598 25.1775C35.1915 25.4355 34.7535 25.584 34.3485 25.584H34.0125C33.114 26.8875 32.1525 27.78 31.473 28.1865C31.239 28.311 30.981 28.383 30.7155 28.3965C30.5835 28.3965 30.3735 28.326 30.309 28.1865C30.1155 27.882 29.997 27.405 29.919 26.859C28.9575 27.9045 27.6285 28.467 27.0135 28.467C26.325 28.467 25.92 28.053 25.8495 27.3675V26.6175C26.052 25.11 26.607 24.2115 26.607 23.937C26.5995 23.8665 26.5425 23.8035 26.4645 23.7975C25.989 23.7975 24.411 25.446 24.1365 26.547L23.9265 27.4365C23.793 28.053 23.1765 28.467 22.7625 28.467C22.5585 28.467 22.419 28.3965 22.356 28.125V27.8505L22.4415 27.3825C21.573 27.999 20.706 28.3965 20.292 28.3965C19.6755 28.3965 19.332 28.053 19.2705 27.5685C18.8565 28.125 18.378 28.3965 17.763 28.3965C17.0505 28.3965 16.365 27.912 16.0365 27.21C15.543 27.7635 14.988 28.3185 14.3325 28.74C13.3725 29.358 12.279 29.8335 10.9725 29.8335C9.8085 29.8335 8.778 29.2155 8.2305 28.6695C7.4025 27.912 6.927 26.748 6.8565 25.653C6.45 22.2945 8.505 17.973 11.652 16.0515C12.4095 15.6375 13.1685 15.366 13.9185 15.366L13.9215 15.36ZM33.4605 21.9465C33.258 21.9465 33.1185 22.29 33.1185 22.6245C33.1185 23.181 33.39 23.796 33.735 24.141C33.8775 23.7675 33.939 23.3685 33.9465 22.9695C33.9465 22.2915 33.672 21.948 33.4605 21.948V21.9465Z" fill="black"/>
</g>
<defs>
<clipPath id="clip0_113_9879">
<rect width="48" height="48" fill="white"/>
</clipPath>
</defs>
</svg>
