<svg width="46" height="48" viewBox="0 0 46 48" fill="none" xmlns="http://www.w3.org/2000/svg">
<path d="M35.3281 15.862V10.17C36.081 9.81749 36.7186 9.25871 37.1667 8.5585C37.6149 7.85828 37.8553 7.04533 37.8601 6.21399V6.07999C37.8569 4.91807 37.3941 3.80461 36.5727 2.98282C35.7513 2.16103 34.638 1.69769 33.4761 1.69399H33.3421C32.1802 1.69716 31.0667 2.15999 30.2449 2.98141C29.4232 3.80283 28.9598 4.91607 28.9561 6.07799V6.21199C28.9598 7.03872 29.1967 7.84763 29.6397 8.54569C30.0827 9.24375 30.7137 9.8026 31.4601 10.158L31.4861 10.17V15.874C29.3098 16.2065 27.2607 17.1106 25.5481 18.494L25.5721 18.476L9.91611 6.28399C10.2139 5.16717 10.115 3.98163 9.63644 2.92954C9.15783 1.87744 8.32911 1.02394 7.29157 0.514552C6.25403 0.00516695 5.07192 -0.128554 3.94681 0.13619C2.8217 0.400934 1.82326 1.04775 1.12173 1.96635C0.420197 2.88494 0.0590229 4.01844 0.0997887 5.17356C0.140554 6.32868 0.580736 7.43389 1.34528 8.30075C2.10982 9.16761 3.15137 9.74243 4.29235 9.9272C5.43332 10.112 6.60306 9.89525 7.60211 9.31399L7.57811 9.32599L22.9701 21.308C21.6093 23.3483 20.8866 25.7475 20.8941 28.2C20.8941 30.886 21.7441 33.376 23.1881 35.412L23.1621 35.374L18.4781 40.058C18.1031 39.9369 17.7121 39.8729 17.3181 39.868H17.3141C16.5099 39.868 15.7238 40.1065 15.0552 40.5532C14.3865 41 13.8654 41.635 13.5576 42.378C13.2499 43.121 13.1694 43.9385 13.3262 44.7272C13.4831 45.516 13.8704 46.2404 14.439 46.8091C15.0077 47.3777 15.7321 47.765 16.5209 47.9219C17.3096 48.0787 18.1271 47.9982 18.8701 47.6905C19.6131 47.3827 20.2481 46.8616 20.6949 46.1929C21.1416 45.5243 21.3801 44.7382 21.3801 43.934C21.3753 43.5295 21.3086 43.1282 21.1821 42.744L21.1901 42.772L25.8241 38.138C27.3344 39.2912 29.0878 40.0847 30.9509 40.4582C32.8141 40.8316 34.7379 40.7752 36.5759 40.2931C38.414 39.8111 40.1179 38.9162 41.5579 37.6764C42.998 36.4366 44.1363 34.8848 44.8863 33.1388C45.6362 31.3928 45.978 29.4988 45.8857 27.6009C45.7934 25.7029 45.2694 23.851 44.3535 22.1861C43.4377 20.5211 42.1541 19.087 40.6005 17.9929C39.047 16.8987 37.2643 16.1734 35.3881 15.872L35.3161 15.862H35.3281ZM33.4001 34.616C32.1326 34.6128 30.8945 34.2341 29.8422 33.5276C28.7898 32.8211 27.9705 31.8186 27.4876 30.6467C27.0048 29.4748 26.8801 28.186 27.1293 26.9433C27.3785 25.7005 27.9904 24.5595 28.8878 23.6644C29.7852 22.7693 30.9277 22.1602 32.1711 21.914C33.4144 21.6679 34.7029 21.7958 35.8736 22.2816C37.0443 22.7674 38.0447 23.5892 38.7486 24.6433C39.4525 25.6974 39.8281 26.9365 39.8281 28.204V28.208C39.8281 29.9086 39.1526 31.5395 37.9501 32.742C36.7476 33.9444 35.1167 34.62 33.4161 34.62L33.4001 34.616Z" fill="black"/>
</svg>
