<svg width="43" height="30" viewBox="0 0 43 30" fill="none" xmlns="http://www.w3.org/2000/svg">
<path d="M4.5 19.25C4.5 12.35 7.95 5.15 12 5.15C14.25 5.15 16.05 6.5 18.9 10.55C16.2 14.75 14.55 17.3 14.55 17.3C10.95 23 9.75 24.2 7.8 24.2C5.85 24.35 4.5 22.55 4.5 19.25ZM28.05 16.7L25.5 12.5C24.9 11.45 24.15 10.4 23.55 9.5C25.8 6.05 27.6 4.25 29.85 4.25C34.35 4.25 37.95 11 37.95 19.4C37.95 22.55 36.9 24.35 34.8 24.35C32.7 24.35 31.95 23 28.05 16.7ZM21.6 6.5C18.3 2.15 15.45 0.5 12.15 0.5C5.25 0.5 0 9.65 0 19.25C0 25.25 2.85 29 7.65 29C11.1 29 13.5 27.35 18 19.55C18 19.55 19.8 16.25 21.15 14C21.6 14.75 22.05 15.5 22.5 16.4L24.6 20C28.65 26.9 30.9 29.15 34.95 29.15C39.6 29.15 42.15 25.25 42.15 19.1C42 8.9 36.6 0.5 30.15 0.5C26.7 0.5 24 3.2 21.6 6.5Z" fill="black"/>
</svg>
