<svg width="48" height="38" viewBox="0 0 48 38" fill="none" xmlns="http://www.w3.org/2000/svg">
<path d="M5.80641 27.3611H42.1934C43.5818 27.3611 44.708 26.2343 44.708 24.846V3.43434C44.708 2.04712 43.5818 0.920898 42.1934 0.920898H5.80641C4.41797 0.920898 3.29297 2.04702 3.29297 3.43434V24.8459C3.29306 26.2343 4.41797 27.3611 5.80641 27.3611ZM7.13672 4.2989H40.8632V23.391H7.13672V4.2989Z" fill="black"/>
<path d="M47.6273 34.3383L43.1422 30.357C42.8539 30.1018 42.4391 29.957 42.0012 29.957H5.99812C5.56087 29.957 5.14547 30.1018 4.85775 30.357L0.372 34.3383C0.131719 34.5507 0 34.8243 0 35.1073V36.4945C0 36.8185 0.33825 37.0789 0.756 37.0789H47.2442C47.6631 37.0789 48.0001 36.8185 48.0001 36.4945V35.1073C48 34.8243 47.8676 34.5507 47.6273 34.3383ZM18.8566 34.8082L20.1548 33.0531H28.3798L29.6763 34.8082H18.8566Z" fill="black"/>
<path d="M17.7324 13.8402L17.316 13.7808C16.2496 13.632 15.8676 13.2605 15.8676 12.7164C15.8676 12.1028 16.3073 11.6625 17.1071 11.6625C17.7669 11.6625 18.3579 11.859 18.9951 12.276L19.1571 12.2411L19.7136 11.3836L19.6899 11.2223C19.0645 10.7471 18.1259 10.4355 17.1421 10.4355C15.5205 10.4355 14.478 11.3836 14.478 12.8095C14.478 14.1179 15.3347 14.8476 16.8519 15.0559L17.2696 15.114C18.3579 15.2641 18.705 15.6344 18.705 16.2022C18.705 16.8615 18.1608 17.3373 17.2228 17.3373C16.3423 17.3373 15.5894 16.9089 15.0802 16.5043L14.9182 16.515L14.1997 17.3492L14.2228 17.5237C14.8369 18.1021 15.9607 18.5644 17.1183 18.5644C19.077 18.5644 20.0844 17.5237 20.0844 16.1222C20.0845 14.7658 19.2496 14.0472 17.7324 13.8402Z" fill="black"/>
<path d="M21.5557 10.561L21.4399 10.6766V18.3226L21.5557 18.4383H26.4894L26.6057 18.3226V17.3263L26.4894 17.2106H22.8765L22.807 17.14V15.1481L22.8765 15.0788H25.9228L26.039 14.963V13.9668L25.9228 13.8511H22.8765L22.807 13.7804V11.8586L22.8765 11.7893H26.4894L26.6057 11.6729V10.6766L26.4894 10.561H21.5557Z" fill="black"/>
<path d="M30.8008 10.4355C29.445 10.4355 28.4262 11.0829 28.0204 12.3336C27.8584 12.8202 27.8115 13.2604 27.8115 14.4999C27.8115 15.7395 27.8584 16.1797 28.0204 16.6663C28.4262 17.9171 29.445 18.5643 30.8008 18.5643C32.1673 18.5643 33.1855 17.917 33.5914 16.6663C33.754 16.1797 33.8008 15.7395 33.8008 14.4999C33.8008 13.2604 33.754 12.8202 33.5914 12.3336C33.1856 11.0829 32.1673 10.4355 30.8008 10.4355ZM32.2712 16.3061C32.0511 16.9445 31.5883 17.3373 30.8009 17.3373C30.0243 17.3373 29.5615 16.9445 29.3407 16.3061C29.2487 16.0165 29.2018 15.6112 29.2018 14.4999C29.2018 13.3761 29.2487 12.9833 29.3407 12.6926C29.5614 12.0554 30.0242 11.6625 30.8009 11.6625C31.5883 11.6625 32.0511 12.0554 32.2712 12.6926C32.3632 12.9833 32.4113 13.3761 32.4113 14.4999C32.4113 15.6113 32.3632 16.0165 32.2712 16.3061Z" fill="black"/>
</svg>
