<svg width="800" height="318" viewBox="0 0 800 318" fill="none" xmlns="http://www.w3.org/2000/svg">
<path d="M114.417 213.293C116.851 203.926 119.384 194.626 121.817 185.226C131.284 149.126 140.651 112.893 150.317 76.7598C153.817 62.0264 158.951 49.0598 165.617 37.0931L165.217 37.8931C172.384 25.5264 184.651 16.8264 199.084 14.5931L199.351 14.5598C202.717 13.7931 206.617 13.3598 210.617 13.3598C226.184 13.3598 240.184 19.9597 250.017 30.5264L250.051 30.5598C254.584 35.7598 258.151 41.9264 260.384 48.6931L260.484 49.0598C266.651 65.4598 273.051 86.5597 278.317 108.126L279.151 112.26C287.84 145.193 296.573 178.149 305.351 211.126C305.551 211.893 305.351 212.793 306.451 213.46C308.317 206.06 310.317 198.726 312.184 191.426C323.517 147.271 334.829 103.16 346.117 59.0931C348.184 50.8264 350.317 42.5931 352.484 34.3264C354.117 28.1598 356.617 22.7931 359.884 17.9598L359.751 18.1598C364.717 10.7931 372.417 5.62642 381.384 4.09309L381.584 4.05976C392.017 1.89309 404.051 0.626424 416.384 0.593091H416.417C418.851 0.593091 419.284 1.15976 418.751 3.45976C408.395 42.9931 398.084 82.5264 387.817 122.06C372.617 180.526 357.384 238.96 342.117 297.36C340.584 303.093 339.151 308.926 337.617 314.626C337.284 315.726 337.151 316.693 335.651 316.826C333.317 317.06 330.617 317.193 327.851 317.193C319.084 317.193 310.617 315.893 302.651 313.493L303.251 313.66C299.184 312.226 295.751 309.993 292.917 307.16C288.917 303.426 285.217 299.526 281.751 295.46L281.584 295.26C277.817 289.626 274.517 283.16 272.017 276.293L271.817 275.66C262.984 254.36 254.984 228.893 249.184 202.593L248.617 199.46C239.251 162.126 229.684 124.793 220.217 87.4598C219.617 85.1264 218.651 83.0598 217.317 81.2598L217.351 81.2931C215.917 78.7264 213.184 76.9931 210.084 76.9931C210.017 76.9931 209.984 76.9931 209.917 76.9931C206.151 77.3597 203.084 79.8931 201.951 83.2931L201.917 83.3597C198.717 93.4931 196.417 103.826 193.651 114.093C182.517 157.026 171.717 200.093 160.284 242.926C156.884 255.693 151.251 267.693 146.951 280.26C142.351 292.293 134.651 302.26 124.784 309.46L124.617 309.593C120.117 313.06 114.617 315.393 108.584 316.093H108.417C103.284 316.793 97.3174 317.16 91.2841 317.16C89.4841 317.16 87.7174 317.126 85.9174 317.06H86.1841C84.2174 317.06 83.5174 316.293 82.8841 314.393C72.2174 273.882 61.4619 233.404 50.6174 192.96C36.5952 139.982 22.4841 86.9042 8.28408 33.7264L0.350747 3.65976C0.150747 2.65976 -0.715919 1.22642 1.35075 1.02642C4.85075 0.526424 8.88408 0.259766 12.9841 0.259766C26.2841 0.259766 38.9174 3.22642 50.2174 8.52642L49.6841 8.29309C57.4841 12.3598 63.3507 19.2931 65.9174 27.6598L65.9841 27.8931C71.7174 46.5598 76.0174 65.4264 80.8507 84.2598C91.8507 126.771 102.784 169.282 113.651 211.793C113.751 212.36 113.917 212.893 114.117 213.393L114.084 213.36L114.417 213.293Z" fill="black"/>
<path d="M511.252 317.76C514.552 312.794 517.519 308.394 520.519 303.894C552.519 256.205 584.519 208.56 616.519 160.96C616.885 160.494 617.119 159.894 617.119 159.26C617.119 158.494 616.819 157.827 616.285 157.327C589.752 117.905 563.252 78.4826 536.785 39.0604L512.785 2.96042C512.452 2.39375 511.685 1.86042 511.919 0.76042L528.219 1.76041C538.352 2.42708 548.285 3.09375 558.285 3.62709C566.419 4.62709 573.652 7.92709 579.485 12.8271L579.419 12.7604C584.685 16.7604 589.119 21.5604 592.619 26.9604L592.752 27.1938C610.019 53.3938 627.085 79.7271 645.052 105.394C653.052 116.727 656.485 115.627 664.985 107.26C669.185 102.294 673.052 96.7271 676.385 90.8271L676.652 90.2937C691.519 68.1604 706.185 45.8271 721.352 23.8937C729.785 12.0937 742.752 4.02708 757.652 2.22708L757.885 2.19375C767.052 1.16041 777.685 0.59375 788.419 0.59375C791.885 0.59375 795.352 0.66042 798.785 0.76042H798.285C800.952 0.76042 799.285 2.19375 798.752 2.96042C791.352 13.9604 784.019 24.9938 776.519 35.9938C749.408 76.4826 722.319 116.849 695.252 157.094C694.785 157.66 694.485 158.427 694.485 159.227C694.485 160.16 694.852 160.994 695.452 161.594C729.807 212.683 764.13 263.772 798.419 314.86C798.885 315.627 799.952 316.394 799.619 317.194C799.285 317.994 797.752 317.66 796.952 317.66C793.985 317.76 790.519 317.827 787.019 317.827C777.252 317.827 767.585 317.36 758.052 316.494L759.285 316.594C745.152 314.827 732.819 308.26 723.752 298.56L723.719 298.527C719.285 293.194 715.152 287.26 711.585 280.96L711.252 280.36C696.819 258.794 682.519 237.194 668.085 215.494C665.819 211.96 662.952 209.027 659.619 206.76L659.519 206.694C658.419 205.694 656.952 205.094 655.319 205.094C653.685 205.094 652.219 205.694 651.119 206.727C648.685 208.427 646.652 210.527 645.019 212.927L644.952 213.027C626.785 238.994 609.952 265.894 592.319 292.294C583.952 304.627 571.019 313.327 555.985 315.927L555.652 315.96C548.519 317.194 540.285 317.86 531.885 317.86C529.519 317.86 527.152 317.794 524.819 317.694H525.152L511.252 317.76Z" fill="black"/>
<path d="M487.785 51.7268V56.0268C487.785 129.138 487.852 202.249 487.985 275.36C487.985 275.76 488.019 276.193 488.019 276.66C488.019 291.66 479.752 304.76 467.519 311.594L467.319 311.693C463.052 314.427 457.952 316.293 452.485 316.86H452.319C447.252 317.427 441.419 317.727 435.485 317.727C435.152 317.727 434.785 317.727 434.452 317.727H434.519C430.885 317.727 430.885 317.727 430.885 314.193C430.885 274.66 430.885 235.127 430.685 195.594C430.685 162.327 430.352 129.193 430.685 95.9268C430.985 89.6268 434.519 84.2602 439.652 81.3268L439.752 81.2935C444.619 78.0935 449.985 75.9602 455.052 73.1268C465.185 68.2268 473.819 63.0935 481.952 57.3268L481.385 57.7268C483.252 55.9602 485.219 53.9935 487.852 51.6602L487.785 51.7268Z" fill="black"/>
<path d="M430.219 65.8598C430.219 65.4598 430.219 64.9931 430.219 64.5265C430.219 55.1265 431.419 46.0264 433.686 37.3598L433.519 38.0931C436.519 27.2265 442.719 18.0931 451.052 11.4931L451.152 11.4265C458.852 6.05978 468.152 2.42645 478.186 1.32645L478.452 1.29312C481.419 0.726454 484.386 0.526461 487.352 0.0931279C489.786 -0.373539 490.452 0.959786 490.552 3.05979C490.552 3.52645 490.586 4.12646 490.586 4.69313C490.586 8.65979 490.219 12.5598 489.519 16.3598L489.586 15.9598C487.386 29.3931 481.252 41.1265 472.386 50.2265C467.319 54.9931 461.219 58.7264 454.452 61.0264L454.119 61.1265C446.386 63.9598 439.686 67.5598 433.619 71.9598L433.852 71.7931C432.986 72.4598 431.986 73.7598 430.752 73.1264C429.519 72.4931 430.186 70.9264 430.086 69.8264C429.986 68.7264 430.186 67.0931 430.186 65.8931L430.219 65.8598Z" fill="black"/>
</svg>
