<svg xmlns="http://www.w3.org/2000/svg" xmlns:xlink="http://www.w3.org/1999/xlink" width="476" zoomAndPan="magnify" viewBox="0 0 357 130.499996" height="174" preserveAspectRatio="xMidYMid meet" version="1.2"><defs><clipPath id="2ade03de97"><path d="M 18.371094 0 L 338 0 L 338 129.390625 L 18.371094 129.390625 Z M 18.371094 0 "/></clipPath><clipPath id="dd87e53e2d"><path d="M 324.945312 97.042969 C 305.285156 117.699219 278.011719 129.390625 249.496094 129.390625 L 106.921875 129.390625 C 78.40625 129.390625 51.132812 117.699219 31.472656 97.042969 C 14.226562 78.925781 14.226562 50.464844 31.472656 32.347656 C 51.132812 11.691406 78.40625 0 106.921875 0 L 249.496094 0 C 278.011719 0 305.285156 11.691406 324.945312 32.347656 C 342.191406 50.464844 342.191406 78.925781 324.945312 97.042969 Z M 324.945312 97.042969 "/></clipPath><clipPath id="591972e8eb"><path d="M 59 47 L 110 47 L 110 91.503906 L 59 91.503906 Z M 59 47 "/></clipPath><clipPath id="d54490b3b0"><path d="M 49.894531 39.953125 L 114.894531 39.953125 L 114.894531 73 L 49.894531 73 Z M 49.894531 39.953125 "/></clipPath></defs><g id="ccb9a8a5a9"><g clip-rule="nonzero" clip-path="url(#2ade03de97)"><g clip-rule="nonzero" clip-path="url(#dd87e53e2d)"><path style=" stroke:none;fill-rule:nonzero;fill:#fe3a82;fill-opacity:1;" d="M 0.679688 0 L 355.5 0 L 355.5 129.390625 L 0.679688 129.390625 Z M 0.679688 0 "/></g></g><g style="fill:#ffffff;fill-opacity:1;"><g transform="translate(127.282137, 78.416997)"><path style="stroke:none" d="M 9.171875 -9.9375 C 9.046875 -10.101562 8.898438 -10.195312 8.734375 -10.21875 C 8.566406 -10.25 8.4375 -10.265625 8.34375 -10.265625 L 8.34375 0 L 2.15625 0 L 2.15625 -22.234375 L 1.484375 -26.109375 C 2.003906 -26.171875 2.597656 -26.234375 3.265625 -26.296875 C 3.941406 -26.359375 4.625 -26.410156 5.3125 -26.453125 C 6.007812 -26.503906 6.6875 -26.546875 7.34375 -26.578125 C 8.007812 -26.609375 8.601562 -26.625 9.125 -26.625 C 10.738281 -26.625 12.203125 -26.460938 13.515625 -26.140625 C 14.835938 -25.816406 15.972656 -25.332031 16.921875 -24.6875 C 17.867188 -24.050781 18.601562 -23.257812 19.125 -22.3125 C 19.644531 -21.363281 19.90625 -20.273438 19.90625 -19.046875 C 19.90625 -17.773438 19.707031 -16.679688 19.3125 -15.765625 C 18.925781 -14.859375 18.394531 -14.082031 17.71875 -13.4375 C 17.050781 -12.800781 16.28125 -12.273438 15.40625 -11.859375 C 14.53125 -11.453125 13.617188 -11.125 12.671875 -10.875 L 15.140625 -10.28125 L 22.8125 0 L 16.328125 0 Z M 8.34375 -19.90625 L 8.34375 -14.125 L 9.484375 -14.125 C 10.265625 -14.125 10.945312 -14.25 11.53125 -14.5 C 12.113281 -14.757812 12.59375 -15.097656 12.96875 -15.515625 C 13.351562 -15.941406 13.640625 -16.4375 13.828125 -17 C 14.015625 -17.5625 14.109375 -18.15625 14.109375 -18.78125 C 14.109375 -19.601562 13.96875 -20.285156 13.6875 -20.828125 C 13.414062 -21.367188 13.0625 -21.800781 12.625 -22.125 C 12.195312 -22.445312 11.707031 -22.671875 11.15625 -22.796875 C 10.613281 -22.921875 10.078125 -22.984375 9.546875 -22.984375 L 8.609375 -22.984375 C 8.515625 -22.984375 8.421875 -22.976562 8.328125 -22.96875 C 8.242188 -22.96875 8.148438 -22.960938 8.046875 -22.953125 Z M 8.34375 -19.90625 "/></g></g><g style="fill:#ffffff;fill-opacity:1;"><g transform="translate(150.183101, 78.416997)"><path style="stroke:none" d="M 17.65625 -2.78125 C 17.21875 -2.332031 16.742188 -1.921875 16.234375 -1.546875 C 15.734375 -1.171875 15.175781 -0.847656 14.5625 -0.578125 C 13.957031 -0.304688 13.289062 -0.0976562 12.5625 0.046875 C 11.832031 0.203125 11.023438 0.28125 10.140625 0.28125 C 8.453125 0.28125 7.007812 0.00390625 5.8125 -0.546875 C 4.613281 -1.097656 3.632812 -1.832031 2.875 -2.75 C 2.125 -3.675781 1.570312 -4.738281 1.21875 -5.9375 C 0.875 -7.132812 0.703125 -8.382812 0.703125 -9.6875 C 0.703125 -10.519531 0.785156 -11.34375 0.953125 -12.15625 C 1.117188 -12.976562 1.367188 -13.753906 1.703125 -14.484375 C 2.035156 -15.222656 2.453125 -15.910156 2.953125 -16.546875 C 3.453125 -17.179688 4.035156 -17.726562 4.703125 -18.1875 C 5.367188 -18.644531 6.125 -19.003906 6.96875 -19.265625 C 7.8125 -19.523438 8.738281 -19.65625 9.75 -19.65625 C 11.15625 -19.65625 12.375 -19.445312 13.40625 -19.03125 C 14.4375 -18.613281 15.285156 -18.03125 15.953125 -17.28125 C 16.628906 -16.539062 17.128906 -15.644531 17.453125 -14.59375 C 17.785156 -13.550781 17.953125 -12.398438 17.953125 -11.140625 C 17.953125 -10.816406 17.929688 -10.394531 17.890625 -9.875 C 17.847656 -9.363281 17.796875 -8.804688 17.734375 -8.203125 L 5.9375 -8.203125 C 5.957031 -7.578125 6.09375 -6.976562 6.34375 -6.40625 C 6.59375 -5.832031 6.914062 -5.332031 7.3125 -4.90625 C 7.71875 -4.488281 8.191406 -4.15625 8.734375 -3.90625 C 9.273438 -3.65625 9.863281 -3.53125 10.5 -3.53125 C 11.019531 -3.53125 11.507812 -3.585938 11.96875 -3.703125 C 12.4375 -3.816406 12.859375 -3.957031 13.234375 -4.125 C 13.617188 -4.300781 13.957031 -4.476562 14.25 -4.65625 C 14.539062 -4.84375 14.769531 -5.003906 14.9375 -5.140625 Z M 12.953125 -11.84375 C 12.953125 -12.382812 12.910156 -12.894531 12.828125 -13.375 C 12.742188 -13.851562 12.585938 -14.273438 12.359375 -14.640625 C 12.140625 -15.015625 11.835938 -15.3125 11.453125 -15.53125 C 11.078125 -15.75 10.585938 -15.859375 9.984375 -15.859375 C 9.484375 -15.859375 9.039062 -15.769531 8.65625 -15.59375 C 8.28125 -15.414062 7.953125 -15.191406 7.671875 -14.921875 C 7.398438 -14.660156 7.175781 -14.382812 7 -14.09375 C 6.820312 -13.800781 6.6875 -13.539062 6.59375 -13.3125 L 4.984375 -11.5 L 8.03125 -11.828125 Z M 12.953125 -11.84375 "/></g></g><g style="fill:#ffffff;fill-opacity:1;"><g transform="translate(169.560847, 78.416997)"><path style="stroke:none" d="M 13.875 -14.34375 C 13.53125 -14.675781 13.195312 -14.941406 12.875 -15.140625 C 12.550781 -15.347656 12.238281 -15.503906 11.9375 -15.609375 C 11.644531 -15.710938 11.351562 -15.78125 11.0625 -15.8125 C 10.78125 -15.84375 10.5 -15.859375 10.21875 -15.859375 C 9.539062 -15.859375 8.960938 -15.691406 8.484375 -15.359375 C 8.003906 -15.035156 7.613281 -14.597656 7.3125 -14.046875 C 7.019531 -13.503906 6.804688 -12.875 6.671875 -12.15625 C 6.535156 -11.4375 6.46875 -10.691406 6.46875 -9.921875 C 6.46875 -9.109375 6.53125 -8.316406 6.65625 -7.546875 C 6.789062 -6.773438 7.003906 -6.085938 7.296875 -5.484375 C 7.597656 -4.890625 8 -4.414062 8.5 -4.0625 C 9.007812 -3.707031 9.640625 -3.53125 10.390625 -3.53125 C 10.703125 -3.53125 11.03125 -3.566406 11.375 -3.640625 C 11.726562 -3.722656 12.082031 -3.832031 12.4375 -3.96875 C 12.800781 -4.113281 13.15625 -4.28125 13.5 -4.46875 C 13.84375 -4.65625 14.171875 -4.859375 14.484375 -5.078125 L 16.453125 -1.640625 C 15.597656 -1.046875 14.644531 -0.570312 13.59375 -0.21875 C 12.550781 0.125 11.410156 0.296875 10.171875 0.296875 C 8.578125 0.296875 7.1875 0.0078125 6 -0.5625 C 4.820312 -1.144531 3.832031 -1.914062 3.03125 -2.875 C 2.226562 -3.84375 1.628906 -4.957031 1.234375 -6.21875 C 0.835938 -7.476562 0.640625 -8.78125 0.640625 -10.125 C 0.640625 -11.351562 0.832031 -12.539062 1.21875 -13.6875 C 1.601562 -14.84375 2.191406 -15.863281 2.984375 -16.75 C 3.773438 -17.632812 4.769531 -18.34375 5.96875 -18.875 C 7.175781 -19.40625 8.601562 -19.671875 10.25 -19.671875 C 11.519531 -19.671875 12.660156 -19.460938 13.671875 -19.046875 C 14.679688 -18.628906 15.640625 -17.925781 16.546875 -16.9375 Z M 13.875 -14.34375 "/></g></g><g style="fill:#ffffff;fill-opacity:1;"><g transform="translate(187.176979, 78.416997)"><path style="stroke:none" d="M 10.640625 0.296875 C 9.234375 0.296875 7.945312 0.0390625 6.78125 -0.46875 C 5.613281 -0.976562 4.609375 -1.679688 3.765625 -2.578125 C 2.929688 -3.472656 2.28125 -4.53125 1.8125 -5.75 C 1.351562 -6.976562 1.125 -8.3125 1.125 -9.75 C 1.125 -11.164062 1.347656 -12.476562 1.796875 -13.6875 C 2.242188 -14.90625 2.878906 -15.957031 3.703125 -16.84375 C 4.535156 -17.738281 5.535156 -18.429688 6.703125 -18.921875 C 7.867188 -19.421875 9.179688 -19.671875 10.640625 -19.671875 C 12.046875 -19.671875 13.332031 -19.421875 14.5 -18.921875 C 15.675781 -18.429688 16.679688 -17.738281 17.515625 -16.84375 C 18.359375 -15.957031 19.007812 -14.90625 19.46875 -13.6875 C 19.9375 -12.476562 20.171875 -11.164062 20.171875 -9.75 C 20.171875 -8.3125 19.945312 -6.976562 19.5 -5.75 C 19.050781 -4.53125 18.410156 -3.472656 17.578125 -2.578125 C 16.753906 -1.679688 15.753906 -0.976562 14.578125 -0.46875 C 13.410156 0.0390625 12.097656 0.296875 10.640625 0.296875 Z M 14.421875 -9.296875 C 14.421875 -10.097656 14.347656 -10.882812 14.203125 -11.65625 C 14.066406 -12.4375 13.84375 -13.132812 13.53125 -13.75 C 13.226562 -14.363281 12.832031 -14.859375 12.34375 -15.234375 C 11.851562 -15.609375 11.265625 -15.796875 10.578125 -15.796875 C 9.921875 -15.796875 9.359375 -15.632812 8.890625 -15.3125 C 8.421875 -14.988281 8.035156 -14.554688 7.734375 -14.015625 C 7.441406 -13.484375 7.222656 -12.875 7.078125 -12.1875 C 6.941406 -11.5 6.875 -10.789062 6.875 -10.0625 C 6.875 -9.25 6.941406 -8.453125 7.078125 -7.671875 C 7.222656 -6.898438 7.453125 -6.210938 7.765625 -5.609375 C 8.078125 -5.003906 8.472656 -4.515625 8.953125 -4.140625 C 9.429688 -3.765625 10.007812 -3.578125 10.6875 -3.578125 C 11.332031 -3.578125 11.890625 -3.738281 12.359375 -4.0625 C 12.835938 -4.382812 13.226562 -4.816406 13.53125 -5.359375 C 13.832031 -5.898438 14.054688 -6.507812 14.203125 -7.1875 C 14.347656 -7.863281 14.421875 -8.566406 14.421875 -9.296875 Z M 14.421875 -9.296875 "/></g></g><g style="fill:#ffffff;fill-opacity:1;"><g transform="translate(208.31634, 78.416997)"><path style="stroke:none" d="M 7.1875 0 L 7.1875 -22.40625 L 0.25 -22.40625 L 0.25 -26.421875 L 20.25 -26.421875 L 20.25 -22.40625 L 13.375 -22.40625 L 13.375 0 Z M 7.1875 0 "/></g></g><g style="fill:#ffffff;fill-opacity:1;"><g transform="translate(229.455701, 78.416997)"><path style="stroke:none" d="M 13.90625 -15.28125 C 13.664062 -15.394531 13.453125 -15.488281 13.265625 -15.5625 C 13.078125 -15.632812 12.890625 -15.691406 12.703125 -15.734375 C 12.515625 -15.785156 12.316406 -15.816406 12.109375 -15.828125 C 11.898438 -15.847656 11.660156 -15.859375 11.390625 -15.859375 C 11.066406 -15.859375 10.738281 -15.773438 10.40625 -15.609375 C 10.070312 -15.453125 9.75 -15.238281 9.4375 -14.96875 C 9.125 -14.695312 8.835938 -14.390625 8.578125 -14.046875 C 8.316406 -13.703125 8.097656 -13.34375 7.921875 -12.96875 L 7.921875 0 L 2.1875 0 L 2.1875 -19.25 L 7.921875 -19.84375 L 7.921875 -15.765625 L 9.578125 -19.375 C 9.765625 -19.445312 10.03125 -19.515625 10.375 -19.578125 C 10.726562 -19.640625 11.054688 -19.671875 11.359375 -19.671875 C 12.003906 -19.671875 12.535156 -19.617188 12.953125 -19.515625 C 13.367188 -19.421875 13.765625 -19.28125 14.140625 -19.09375 Z M 13.90625 -15.28125 "/></g></g><g style="fill:#ffffff;fill-opacity:1;"><g transform="translate(243.548604, 78.416997)"><path style="stroke:none" d="M 17.140625 0 L 11.171875 0 L 11.171875 -2.859375 L 9.0625 0.21875 C 8.96875 0.238281 8.851562 0.253906 8.71875 0.265625 C 8.59375 0.285156 8.40625 0.296875 8.15625 0.296875 C 7.144531 0.296875 6.1875 0.15625 5.28125 -0.125 C 4.375 -0.414062 3.582031 -0.835938 2.90625 -1.390625 C 2.226562 -1.953125 1.6875 -2.644531 1.28125 -3.46875 C 0.875 -4.289062 0.671875 -5.238281 0.671875 -6.3125 C 0.671875 -7.0625 0.78125 -7.738281 1 -8.34375 C 1.226562 -8.957031 1.535156 -9.503906 1.921875 -9.984375 C 2.316406 -10.472656 2.769531 -10.890625 3.28125 -11.234375 C 3.800781 -11.585938 4.359375 -11.878906 4.953125 -12.109375 C 5.546875 -12.335938 6.15625 -12.507812 6.78125 -12.625 C 7.414062 -12.738281 8.03125 -12.796875 8.625 -12.796875 C 9.15625 -12.796875 9.628906 -12.773438 10.046875 -12.734375 C 10.460938 -12.703125 10.832031 -12.65625 11.15625 -12.59375 C 11.144531 -13.0625 11.109375 -13.492188 11.046875 -13.890625 C 10.984375 -14.285156 10.875 -14.628906 10.71875 -14.921875 C 10.570312 -15.210938 10.367188 -15.441406 10.109375 -15.609375 C 9.847656 -15.773438 9.519531 -15.859375 9.125 -15.859375 C 8.125 -15.859375 7.164062 -15.742188 6.25 -15.515625 C 5.332031 -15.285156 4.503906 -15.035156 3.765625 -14.765625 L 1.9375 -18.015625 C 2.851562 -18.429688 3.753906 -18.765625 4.640625 -19.015625 C 5.203125 -19.171875 5.863281 -19.316406 6.625 -19.453125 C 7.394531 -19.597656 8.28125 -19.671875 9.28125 -19.671875 C 10.8125 -19.671875 12.0625 -19.484375 13.03125 -19.109375 C 14 -18.742188 14.753906 -18.222656 15.296875 -17.546875 C 15.847656 -16.878906 16.222656 -16.070312 16.421875 -15.125 C 16.628906 -14.175781 16.734375 -13.132812 16.734375 -12 L 16.734375 -3.609375 Z M 11.171875 -9.078125 C 10.890625 -9.109375 10.582031 -9.140625 10.25 -9.171875 C 9.914062 -9.203125 9.59375 -9.21875 9.28125 -9.21875 C 8.863281 -9.21875 8.453125 -9.15625 8.046875 -9.03125 C 7.640625 -8.914062 7.273438 -8.738281 6.953125 -8.5 C 6.640625 -8.269531 6.382812 -7.972656 6.1875 -7.609375 C 5.988281 -7.242188 5.890625 -6.816406 5.890625 -6.328125 C 5.890625 -5.921875 5.953125 -5.546875 6.078125 -5.203125 C 6.203125 -4.867188 6.367188 -4.578125 6.578125 -4.328125 C 6.796875 -4.078125 7.035156 -3.878906 7.296875 -3.734375 C 7.566406 -3.597656 7.835938 -3.53125 8.109375 -3.53125 C 8.441406 -3.53125 8.765625 -3.582031 9.078125 -3.6875 C 9.390625 -3.789062 9.675781 -3.921875 9.9375 -4.078125 C 10.207031 -4.234375 10.441406 -4.40625 10.640625 -4.59375 C 10.847656 -4.78125 11.023438 -4.953125 11.171875 -5.109375 Z M 11.171875 -9.078125 "/></g></g><g style="fill:#ffffff;fill-opacity:1;"><g transform="translate(262.045543, 78.416997)"><path style="stroke:none" d="M 13.875 -14.34375 C 13.53125 -14.675781 13.195312 -14.941406 12.875 -15.140625 C 12.550781 -15.347656 12.238281 -15.503906 11.9375 -15.609375 C 11.644531 -15.710938 11.351562 -15.78125 11.0625 -15.8125 C 10.78125 -15.84375 10.5 -15.859375 10.21875 -15.859375 C 9.539062 -15.859375 8.960938 -15.691406 8.484375 -15.359375 C 8.003906 -15.035156 7.613281 -14.597656 7.3125 -14.046875 C 7.019531 -13.503906 6.804688 -12.875 6.671875 -12.15625 C 6.535156 -11.4375 6.46875 -10.691406 6.46875 -9.921875 C 6.46875 -9.109375 6.53125 -8.316406 6.65625 -7.546875 C 6.789062 -6.773438 7.003906 -6.085938 7.296875 -5.484375 C 7.597656 -4.890625 8 -4.414062 8.5 -4.0625 C 9.007812 -3.707031 9.640625 -3.53125 10.390625 -3.53125 C 10.703125 -3.53125 11.03125 -3.566406 11.375 -3.640625 C 11.726562 -3.722656 12.082031 -3.832031 12.4375 -3.96875 C 12.800781 -4.113281 13.15625 -4.28125 13.5 -4.46875 C 13.84375 -4.65625 14.171875 -4.859375 14.484375 -5.078125 L 16.453125 -1.640625 C 15.597656 -1.046875 14.644531 -0.570312 13.59375 -0.21875 C 12.550781 0.125 11.410156 0.296875 10.171875 0.296875 C 8.578125 0.296875 7.1875 0.0078125 6 -0.5625 C 4.820312 -1.144531 3.832031 -1.914062 3.03125 -2.875 C 2.226562 -3.84375 1.628906 -4.957031 1.234375 -6.21875 C 0.835938 -7.476562 0.640625 -8.78125 0.640625 -10.125 C 0.640625 -11.351562 0.832031 -12.539062 1.21875 -13.6875 C 1.601562 -14.84375 2.191406 -15.863281 2.984375 -16.75 C 3.773438 -17.632812 4.769531 -18.34375 5.96875 -18.875 C 7.175781 -19.40625 8.601562 -19.671875 10.25 -19.671875 C 11.519531 -19.671875 12.660156 -19.460938 13.671875 -19.046875 C 14.679688 -18.628906 15.640625 -17.925781 16.546875 -16.9375 Z M 13.875 -14.34375 "/></g></g><g style="fill:#ffffff;fill-opacity:1;"><g transform="translate(279.661676, 78.416997)"><path style="stroke:none" d="M 2.296875 0 L 2.296875 -24.609375 L 1.90625 -28.1875 L 7.6875 -28.734375 L 7.6875 -13.546875 L 12.34375 -19.375 L 18.359375 -19.375 L 11.984375 -12.328125 L 8.390625 -11.046875 L 11.71875 -9.9375 L 20.140625 0 L 14 0 L 7.6875 -8.0625 L 7.6875 0 Z M 2.296875 0 "/></g></g><g clip-rule="nonzero" clip-path="url(#591972e8eb)"><path style=" stroke:none;fill-rule:nonzero;fill:#ffffff;fill-opacity:1;" d="M 109.320312 77.957031 L 103.824219 73.777344 C 103.519531 73.542969 103.082031 73.609375 102.855469 73.921875 C 101.980469 75.132812 100.984375 76.253906 99.886719 77.265625 C 99.445312 77.671875 98.738281 77.359375 98.738281 76.761719 L 98.738281 65.066406 C 97.769531 65.773438 96.769531 66.441406 95.742188 67.066406 C 95.257812 67.359375 94.765625 67.640625 94.269531 67.914062 C 93.1875 68.511719 92.078125 69.058594 90.949219 69.558594 L 90.949219 81.785156 C 90.949219 82.09375 90.738281 82.367188 90.433594 82.445312 C 90.265625 82.492188 90.09375 82.53125 89.921875 82.574219 C 89.492188 82.675781 89.082031 82.347656 89.082031 81.910156 L 89.082031 70.328125 C 88.925781 70.390625 88.769531 70.449219 88.609375 70.507812 C 88.164062 70.675781 87.714844 70.835938 87.261719 70.988281 C 87.261719 70.988281 87.257812 70.988281 87.253906 70.988281 C 85.398438 71.613281 83.507812 72.113281 81.59375 72.492188 C 81.492188 72.511719 81.394531 72.535156 81.292969 72.550781 L 81.292969 82.097656 C 81.292969 82.527344 80.898438 82.851562 80.476562 82.769531 C 79.996094 82.675781 79.523438 82.570312 79.054688 82.445312 C 78.753906 82.367188 78.542969 82.09375 78.542969 81.785156 L 78.542969 72.996094 C 78.425781 73.015625 78.304688 73.027344 78.1875 73.042969 C 77.804688 73.097656 77.417969 73.136719 77.035156 73.175781 L 76.457031 73.234375 L 75.878906 73.28125 L 75.304688 73.328125 C 75.207031 73.335938 75.109375 73.34375 75.015625 73.347656 L 74.726562 73.363281 C 74.339844 73.382812 73.953125 73.40625 73.570312 73.421875 C 72.628906 73.457031 71.691406 73.464844 70.753906 73.453125 L 70.753906 76.765625 C 70.753906 77.359375 70.042969 77.671875 69.605469 77.265625 C 69.300781 76.988281 69.007812 76.703125 68.722656 76.40625 C 67.96875 75.632812 67.269531 74.800781 66.632812 73.921875 C 66.40625 73.609375 65.96875 73.542969 65.664062 73.777344 L 61.808594 76.710938 L 60.171875 77.957031 C 59.871094 78.183594 59.8125 78.609375 60.035156 78.910156 C 60.175781 79.097656 60.316406 79.285156 60.460938 79.46875 C 66.082031 86.710938 74.871094 91.367188 84.746094 91.367188 C 94.871094 91.367188 103.855469 86.46875 109.453125 78.910156 C 109.675781 78.609375 109.617188 78.183594 109.320312 77.957031 Z M 71.75 71.074219 C 71.933594 71.0625 72.117188 71.054688 72.304688 71.035156 L 72.457031 71.023438 L 73.410156 70.945312 C 73.585938 70.925781 73.757812 70.910156 73.933594 70.890625 C 74.125 70.871094 74.320312 70.851562 74.511719 70.828125 L 74.789062 70.800781 C 74.878906 70.789062 74.96875 70.777344 75.0625 70.765625 L 75.613281 70.699219 L 76.160156 70.628906 L 76.707031 70.546875 C 77.070312 70.492188 77.4375 70.441406 77.800781 70.375 C 78.046875 70.335938 78.292969 70.292969 78.542969 70.25 L 78.542969 55.378906 C 78.542969 54.875 78.019531 54.542969 77.566406 54.757812 L 71.144531 57.78125 C 70.90625 57.894531 70.753906 58.132812 70.753906 58.398438 L 70.753906 71.140625 C 70.898438 71.128906 71.046875 71.121094 71.195312 71.109375 Z M 88.105469 47.425781 L 81.683594 50.449219 C 81.445312 50.5625 81.292969 50.800781 81.292969 51.066406 L 81.292969 69.683594 C 81.390625 69.660156 81.492188 69.636719 81.59375 69.613281 C 83.195312 69.230469 84.773438 68.769531 86.324219 68.234375 C 86.632812 68.125 86.945312 68.015625 87.253906 67.898438 C 87.710938 67.730469 88.160156 67.554688 88.609375 67.375 C 88.769531 67.308594 88.925781 67.246094 89.082031 67.179688 L 89.082031 48.042969 C 89.082031 47.542969 88.558594 47.210938 88.105469 47.425781 Z M 98.738281 59.488281 L 98.738281 61.644531 L 98.398438 61.894531 C 98.253906 62.003906 98.101562 62.109375 97.953125 62.214844 C 96.765625 63.070312 95.539062 63.867188 94.277344 64.601562 C 94.277344 64.601562 94.273438 64.601562 94.269531 64.605469 C 93.1875 65.230469 92.078125 65.8125 90.949219 66.347656 L 90.949219 61.628906 C 90.949219 61.335938 91.136719 61.074219 91.414062 60.980469 L 97.835938 58.839844 C 98.28125 58.695312 98.738281 59.023438 98.738281 59.488281 "/></g><g clip-rule="nonzero" clip-path="url(#d54490b3b0)"><path style=" stroke:none;fill-rule:nonzero;fill:#ffffff;fill-opacity:1;" d="M 114.890625 39.953125 L 107.71875 45.710938 L 110.957031 46.015625 C 110.804688 46.234375 110.65625 46.453125 110.503906 46.671875 C 110.078125 47.289062 109.644531 47.898438 109.207031 48.503906 C 108.984375 48.804688 108.761719 49.105469 108.539062 49.40625 C 108.316406 49.703125 108.085938 50 107.859375 50.292969 C 107.742188 50.441406 107.628906 50.585938 107.511719 50.734375 L 107.339844 50.953125 C 107.28125 51.027344 107.222656 51.097656 107.164062 51.167969 L 106.816406 51.601562 L 106.460938 52.035156 L 106.28125 52.246094 L 106.101562 52.460938 L 105.742188 52.882812 L 105.375 53.300781 L 105.191406 53.511719 C 105.128906 53.578125 105.066406 53.648438 105.003906 53.714844 L 104.632812 54.128906 C 104.511719 54.265625 104.382812 54.402344 104.257812 54.535156 C 104.007812 54.808594 103.75 55.074219 103.496094 55.339844 C 102.464844 56.398438 101.398438 57.414062 100.289062 58.378906 C 100.152344 58.5 100.011719 58.617188 99.871094 58.738281 L 99.453125 59.09375 L 99.027344 59.441406 C 98.882812 59.554688 98.742188 59.671875 98.597656 59.785156 L 98.164062 60.121094 C 98.09375 60.179688 98.023438 60.238281 97.949219 60.289062 L 97.726562 60.457031 L 97.289062 60.785156 C 97.140625 60.890625 96.992188 61 96.84375 61.105469 C 95.65625 61.960938 94.429688 62.753906 93.167969 63.488281 C 90.640625 64.953125 87.972656 66.164062 85.210938 67.121094 C 82.449219 68.078125 79.59375 68.789062 76.6875 69.265625 C 76.324219 69.332031 75.960938 69.378906 75.597656 69.433594 L 75.050781 69.515625 L 73.949219 69.65625 C 73.859375 69.667969 73.769531 69.679688 73.675781 69.691406 L 73.402344 69.71875 C 73.035156 69.757812 72.667969 69.796875 72.296875 69.832031 L 71.191406 69.925781 C 71.007812 69.941406 70.824219 69.953125 70.636719 69.964844 L 70.082031 70 C 69.898438 70.011719 69.710938 70.023438 69.527344 70.035156 L 68.972656 70.058594 L 68.414062 70.082031 L 68.136719 70.09375 L 67.859375 70.101562 L 66.742188 70.128906 C 66.371094 70.132812 66 70.132812 65.625 70.136719 L 65.347656 70.136719 C 65.253906 70.136719 65.160156 70.140625 65.066406 70.136719 L 64.507812 70.128906 L 63.949219 70.125 L 63.667969 70.121094 C 63.574219 70.121094 63.484375 70.117188 63.390625 70.113281 L 62.269531 70.082031 C 62.175781 70.078125 62.082031 70.074219 61.988281 70.070312 L 61.710938 70.058594 L 61.148438 70.03125 C 60.773438 70.015625 60.398438 70 60.027344 69.972656 L 58.902344 69.902344 C 57.40625 69.792969 55.90625 69.671875 54.410156 69.507812 L 53.847656 69.449219 L 53.285156 69.386719 C 52.910156 69.339844 52.535156 69.296875 52.15625 69.253906 C 51.96875 69.234375 51.78125 69.214844 51.59375 69.191406 L 51.03125 69.121094 C 50.65625 69.074219 50.28125 69.027344 49.902344 68.984375 C 50.261719 69.101562 50.625 69.214844 50.988281 69.328125 C 51.347656 69.441406 51.710938 69.558594 52.078125 69.660156 C 52.441406 69.761719 52.808594 69.863281 53.171875 69.96875 L 53.449219 70.042969 L 53.722656 70.113281 L 54.273438 70.253906 L 54.828125 70.394531 C 55.011719 70.441406 55.195312 70.488281 55.382812 70.53125 L 56.496094 70.785156 L 56.773438 70.847656 L 56.914062 70.878906 L 57.050781 70.90625 L 57.613281 71.019531 L 58.171875 71.132812 L 58.734375 71.242188 C 59.484375 71.375 60.234375 71.511719 60.988281 71.621094 L 61.554688 71.707031 L 61.839844 71.75 C 61.933594 71.761719 62.027344 71.773438 62.125 71.785156 L 63.261719 71.929688 C 63.355469 71.941406 63.449219 71.953125 63.546875 71.964844 L 63.832031 71.992188 L 64.402344 72.050781 L 64.972656 72.105469 C 65.164062 72.125 65.355469 72.136719 65.546875 72.152344 C 65.929688 72.179688 66.3125 72.210938 66.695312 72.238281 L 67.84375 72.296875 C 69.378906 72.359375 70.917969 72.367188 72.457031 72.3125 C 72.84375 72.296875 73.230469 72.273438 73.613281 72.253906 L 73.902344 72.238281 C 74 72.234375 74.097656 72.222656 74.191406 72.214844 L 74.769531 72.171875 L 75.347656 72.125 L 75.925781 72.066406 C 76.308594 72.023438 76.691406 71.988281 77.078125 71.933594 C 80.148438 71.550781 83.199219 70.867188 86.152344 69.875 C 89.105469 68.882812 91.960938 67.570312 94.628906 65.953125 C 95.964844 65.144531 97.25 64.257812 98.484375 63.308594 C 99.71875 62.355469 100.898438 61.34375 102.015625 60.265625 C 102.292969 59.992188 102.574219 59.726562 102.84375 59.445312 L 103.25 59.03125 L 103.847656 58.398438 C 103.914062 58.324219 103.980469 58.253906 104.042969 58.183594 L 104.433594 57.753906 C 104.5 57.679688 104.5625 57.605469 104.625 57.535156 L 104.816406 57.316406 L 105.003906 57.097656 L 105.101562 56.984375 L 105.191406 56.875 C 106.1875 55.695312 107.128906 54.472656 108.003906 53.207031 C 109.488281 51.074219 110.792969 48.835938 111.957031 46.539062 L 114.011719 49.105469 L 114.890625 39.953125 "/></g></g></svg>