<svg width="38" height="41" viewBox="0 0 38 41" fill="none" xmlns="http://www.w3.org/2000/svg">
<path fill-rule="evenodd" clip-rule="evenodd" d="M0 2.25C0 1.00737 1.00737 0 2.25 0H38.25C39.1599 0 39.9804 0.54819 40.3287 1.38897C40.677 2.22972 40.4844 3.19749 39.8409 3.84099L23.432 20.25L39.8409 36.6591C40.4844 37.3026 40.677 38.2704 40.3287 39.111C39.9804 39.9519 39.1599 40.5 38.25 40.5H2.25C1.00737 40.5 0 39.4926 0 38.25V2.25ZM4.5 4.5V36H32.8179L18.659 21.841C17.7803 20.9623 17.7803 19.5377 18.659 18.659L32.8179 4.5H4.5Z" fill="black"/>
</svg>
