<svg width="46" height="46" viewBox="0 0 46 46" fill="none" xmlns="http://www.w3.org/2000/svg">
<path d="M37.6451 17.4362C37.7936 17.2892 37.9976 17.1977 38.2226 17.1977C38.6741 17.1977 39.0401 17.5637 39.0401 18.0152C39.0401 18.4667 38.6741 18.8327 38.2226 18.8327C37.7711 18.8327 37.4051 18.4667 37.4051 18.0152C37.4051 17.7902 37.4966 17.5862 37.6436 17.4377L37.6451 17.4362ZM22.0136 4.85872C22.2581 4.60222 22.6016 4.44172 22.9841 4.44172C23.7236 4.44172 24.3221 5.04022 24.3221 5.77972C24.3221 6.51922 23.7236 7.11772 22.9841 7.11772C22.3646 7.11772 21.8441 6.69772 21.6911 6.12622L21.6896 6.11722C21.6626 6.01522 21.6461 5.89972 21.6461 5.77972C21.6461 5.42272 21.7856 5.09872 22.0136 4.85872ZM39.4481 22.8512C39.4481 23.2607 39.4331 23.6687 39.4031 24.0722H37.7156C37.5476 24.0722 37.4786 24.1817 37.4786 24.3497V25.1237C37.4786 26.9477 36.4496 27.3437 35.5481 27.4442C34.6901 27.5417 33.7391 27.0857 33.6221 26.5607C33.4886 24.6632 32.4626 23.0312 30.9641 22.0697L30.9416 22.0562C32.7506 21.1667 34.0346 19.4522 34.3106 17.4167L34.3136 17.3852C34.2401 15.5417 33.2336 13.9502 31.7561 13.0592L31.7321 13.0457C30.7316 12.3887 29.5241 11.9672 28.2236 11.8862L28.2026 11.8847H10.7576C13.1111 9.26122 16.2746 7.40422 19.8521 6.70972L19.9556 6.69322L22.0121 8.85022C22.2341 9.08272 22.5461 9.22822 22.8926 9.22822C23.2196 9.22822 23.5151 9.09922 23.7341 8.88922L26.0336 6.68872C30.8831 7.62172 34.9031 10.5782 37.2461 14.6252L37.2881 14.7047L35.7131 18.2627C35.6471 18.4082 35.6096 18.5777 35.6096 18.7562C35.6096 19.2497 35.9021 19.6757 36.3251 19.8692L36.3326 19.8722L39.3656 21.2192C39.4181 21.7577 39.4451 22.3007 39.4451 22.8527L39.4481 22.8512ZM19.2836 20.0657V16.9712H24.8321C25.1186 16.9712 26.8556 17.3027 26.8556 18.6017C26.8556 19.6802 25.5236 20.0672 24.4286 20.0672L19.2836 20.0657ZM6.65959 21.0842L9.53659 19.8047C9.96709 19.6097 10.2611 19.1852 10.2611 18.6917C10.2611 18.5117 10.2221 18.3422 10.1531 18.1892L10.1561 18.1967L9.56359 16.8572H11.8946V27.3587H7.19359C6.79459 26.0102 6.56659 24.4622 6.56659 22.8587C6.56659 22.2332 6.60109 21.6152 6.67009 21.0077L6.66259 21.0827L6.65959 21.0842ZM8.22559 17.3702C8.22559 16.9277 7.86709 16.5692 7.42459 16.5692C6.98209 16.5692 6.62359 16.9277 6.62359 17.3702C6.62359 17.8127 6.98209 18.1712 7.42459 18.1712C7.86709 18.1712 8.22559 17.8127 8.22559 17.3702ZM13.3226 38.0402C13.2311 38.0627 13.1276 38.0747 13.0196 38.0747C12.2801 38.0747 11.6816 37.4762 11.6816 36.7367C11.6816 35.9972 12.2801 35.3987 13.0196 35.3987C13.7591 35.3987 14.3576 35.9972 14.3576 36.7367C14.3576 36.8807 14.3351 37.0202 14.2931 37.1507L14.2961 37.1417C14.1506 37.5917 13.7861 37.9307 13.3316 38.0402H13.3226ZM31.9061 33.7667C31.8296 33.7487 31.7411 33.7397 31.6496 33.7397C31.0676 33.7397 30.5801 34.1492 30.4616 34.6967L30.4601 34.7042L29.7896 37.8317C27.7961 38.7542 25.4636 39.2927 23.0051 39.2927C20.4926 39.2927 18.1106 38.7302 15.9791 37.7237L16.0796 37.7657L15.4091 34.6382C15.2891 34.0847 14.8031 33.6752 14.2211 33.6752C14.1296 33.6752 14.0411 33.6857 13.9556 33.7037L13.9631 33.7022L11.2016 34.2947C10.7036 33.7832 10.2356 33.2342 9.80509 32.6552L9.77359 32.6117H23.2091C23.3606 32.6117 23.4626 32.5847 23.4626 32.4467V27.6932C23.4626 27.5552 23.3621 27.5282 23.2091 27.5282H19.2791V24.5147H23.5301C24.8516 24.5282 25.9406 25.4987 26.1416 26.7647L26.1431 26.7797C26.3126 27.4412 26.6816 29.5997 26.9366 30.2897C27.1886 31.0637 28.2176 32.6102 29.3141 32.6102H36.0086C36.0956 32.6087 36.1796 32.5997 36.2606 32.5847L36.2516 32.5862C35.7626 33.2462 35.2646 33.8282 34.7276 34.3742L34.7291 34.3727L31.9061 33.7667ZM32.5481 38.1047C34.2431 38.1047 35.6171 36.7292 35.6171 35.0342C35.6171 33.3392 34.2431 31.9637 32.5466 31.9637C30.8501 31.9637 29.4761 33.3377 29.4761 35.0342C29.4761 36.7292 30.8501 38.1032 32.5451 38.1047H32.5481ZM45.1841 22.4432L43.2956 21.2747C43.2796 21.0907 43.2621 20.9072 43.2431 20.7242L44.8661 19.2122C44.9921 19.0937 45.0701 18.9242 45.0701 18.7382C45.0701 18.4622 44.8976 18.2252 44.6546 18.1292L44.6501 18.1277L42.5756 17.3522C42.5246 17.1732 42.4701 16.9947 42.4121 16.8167L43.7066 15.0197C43.7831 14.9147 43.8296 14.7827 43.8296 14.6402C43.8296 14.3177 43.5956 14.0507 43.2881 13.9997H43.2836L41.0966 13.6442C41.0116 13.4792 40.9236 13.3152 40.8326 13.1522L41.7506 11.1347C41.7881 11.0552 41.8091 10.9637 41.8091 10.8647C41.8091 10.7297 41.7686 10.6052 41.6966 10.5017L41.6981 10.5032C41.5796 10.3277 41.3801 10.2137 41.1551 10.2137C41.1476 10.2137 41.1401 10.2137 41.1326 10.2137H41.1341L38.9141 10.2917C38.8001 10.1477 38.6831 10.0062 38.5631 9.86722L39.0731 7.70572C39.0836 7.66072 39.0896 7.60972 39.0896 7.55722C39.0896 7.19722 38.7986 6.90622 38.4386 6.90622C38.3861 6.90622 38.3351 6.91222 38.2856 6.92422L38.2901 6.92272L36.1286 7.43272C35.9876 7.31372 35.8451 7.19672 35.7011 7.08172L35.7791 4.86172C35.7791 4.85272 35.7791 4.84222 35.7791 4.83022C35.7791 4.47322 35.4896 4.18522 35.1341 4.18522C35.0351 4.18522 34.9406 4.20772 34.8566 4.24822L34.8611 4.24672L32.8436 5.16772C32.6801 5.07922 32.5166 4.98922 32.3516 4.90372L31.9946 2.71522C31.9406 2.40472 31.6721 2.17222 31.3511 2.17222C31.2101 2.17222 31.0781 2.21722 30.9716 2.29372L30.9731 2.29222L29.1746 3.58672C28.9976 3.52972 28.8191 3.47622 28.6391 3.42622L27.8636 1.35172C27.7676 1.10422 27.5306 0.931719 27.2531 0.931719C27.0671 0.931719 26.8991 1.00972 26.7791 1.13572L25.2671 2.76022C25.0841 2.73922 24.9006 2.72172 24.7166 2.70772L23.5481 0.819219C23.4311 0.633219 23.2286 0.511719 22.9961 0.511719C22.7636 0.511719 22.5596 0.633219 22.4456 0.817719L22.4441 0.820719L21.2756 2.70922C21.0916 2.72522 20.9081 2.74272 20.7251 2.76172L19.2101 1.13722C19.0916 1.00972 18.9221 0.930219 18.7346 0.930219C18.4571 0.930219 18.2201 1.10422 18.1271 1.34872L18.1256 1.35322L17.3501 3.42772C17.1701 3.47872 16.9931 3.53422 16.8146 3.58822L15.0176 2.29372C14.9126 2.21872 14.7821 2.17372 14.6396 2.17372C14.3171 2.17372 14.0501 2.40622 13.9961 2.71372V2.71822L13.6391 4.90672C13.4741 4.99172 13.3101 5.07972 13.1471 5.17072L11.1296 4.24972C11.0501 4.21222 10.9571 4.19122 10.8596 4.19122C10.5011 4.19122 10.2101 4.48222 10.2101 4.84072C10.2101 4.84972 10.2101 4.85872 10.2101 4.86622L10.2881 7.08472C10.1441 7.19872 10.0016 7.31572 9.86059 7.43572L7.69909 6.92422C7.65409 6.91372 7.60309 6.90772 7.55059 6.90772C7.19059 6.90772 6.89959 7.19872 6.89959 7.55872C6.89959 7.61122 6.90559 7.66222 6.91759 7.71172L6.91609 7.70722L7.42459 9.86872C7.30759 10.0097 7.18909 10.1522 7.07509 10.2932L4.85509 10.2152C4.84759 10.2152 4.83859 10.2152 4.82959 10.2152C4.47109 10.2152 4.18009 10.5062 4.18009 10.8647C4.18009 10.9622 4.20109 11.0552 4.24009 11.1392L4.23859 11.1347L5.15959 13.1522C5.06859 13.3142 4.98059 13.4782 4.89559 13.6442L2.71009 13.9997C2.39959 14.0537 2.16709 14.3207 2.16709 14.6432C2.16709 14.7842 2.21209 14.9162 2.28859 15.0227L2.28709 15.0212L3.58159 16.8182C3.52559 16.9962 3.47109 17.1747 3.41809 17.3537L1.34359 18.1292C1.09609 18.2252 0.923594 18.4622 0.923594 18.7397C0.923594 18.9257 1.00159 19.0937 1.12609 19.2137L2.74909 20.7257C2.72809 20.9087 2.71059 21.0922 2.69659 21.2762L0.808094 22.4447C0.620594 22.5602 0.496094 22.7642 0.496094 22.9967C0.496094 23.2292 0.619094 23.4347 0.805094 23.5472L0.808094 23.5487L2.69659 24.7172C2.71159 24.9017 2.73109 25.0847 2.74909 25.2677L1.12609 26.7827C0.998594 26.9012 0.919094 27.0707 0.919094 27.2582C0.919094 27.5357 1.09309 27.7727 1.33759 27.8657L1.34209 27.8672L3.41659 28.6427C3.46759 28.8227 3.52309 29.0012 3.58009 29.1782L2.28559 30.9752C2.20759 31.0802 2.16109 31.2137 2.16109 31.3562C2.16109 31.6787 2.39809 31.9472 2.70709 31.9952H2.71009L4.89559 32.3507C4.98109 32.5157 5.06809 32.6792 5.15959 32.8427L4.23859 34.8602C4.20109 34.9397 4.18009 35.0327 4.18009 35.1302C4.18009 35.4887 4.47109 35.7797 4.82959 35.7797C4.83859 35.7797 4.84759 35.7797 4.85509 35.7797H4.85359L7.07209 35.7017C7.18759 35.8457 7.30309 35.9882 7.42309 36.1292L6.91459 38.2922C6.90409 38.3372 6.89809 38.3882 6.89809 38.4407C6.89809 38.7992 7.18909 39.0902 7.54759 39.0902C7.60159 39.0902 7.65259 39.0842 7.70209 39.0722L7.69759 39.0737L9.85909 38.5652C10.0001 38.6852 10.1426 38.8007 10.2866 38.9147L10.2086 41.1347C10.2086 41.1437 10.2086 41.1527 10.2086 41.1632C10.2086 41.5202 10.4981 41.8082 10.8536 41.8082C10.9526 41.8082 11.0471 41.7857 11.1311 41.7452L11.1266 41.7467L13.1441 40.8287C13.3076 40.9202 13.4711 41.0072 13.6361 41.0927L13.9931 43.2782C14.0471 43.5887 14.3141 43.8227 14.6366 43.8227C14.7776 43.8227 14.9081 43.7777 15.0161 43.7012L15.0146 43.7027L16.8116 42.4082C16.9896 42.4652 17.1681 42.5197 17.3471 42.5717L18.1226 44.6462C18.2156 44.8967 18.4526 45.0707 18.7301 45.0707C18.9176 45.0707 19.0871 44.9912 19.2056 44.8622L20.7206 43.2392C20.9021 43.2602 21.0866 43.2767 21.2711 43.2947L22.4396 45.1832C22.5566 45.3677 22.7606 45.4892 22.9916 45.4892C23.2226 45.4892 23.4266 45.3677 23.5421 45.1847L23.5436 45.1817L24.7121 43.2932C24.8966 43.2767 25.0796 43.2587 25.2626 43.2377L26.7746 44.8607C26.8931 44.9867 27.0626 45.0647 27.2486 45.0647C27.5246 45.0647 27.7616 44.8922 27.8576 44.6492L27.8591 44.6447L28.6346 42.5702C28.8136 42.5192 28.9921 42.4647 29.1701 42.4067L30.9671 43.7012C31.0721 43.7792 31.2056 43.8257 31.3481 43.8257C31.6706 43.8257 31.9391 43.5887 31.9871 43.2797V43.2767L32.3441 41.0912C32.5091 41.0057 32.6726 40.9172 32.8361 40.8272L34.8536 41.7452C34.9316 41.7812 35.0246 41.8022 35.1221 41.8022C35.4821 41.8022 35.7731 41.5112 35.7731 41.1512C35.7731 41.1437 35.7731 41.1377 35.7731 41.1302L35.6951 38.9117C35.8391 38.7987 35.9806 38.6822 36.1196 38.5622L38.2811 39.0707C38.3261 39.0812 38.3771 39.0872 38.4281 39.0872C38.7881 39.0872 39.0791 38.7962 39.0791 38.4362C39.0791 38.3837 39.0731 38.3342 39.0611 38.2862L39.0626 38.2907L38.5541 36.1277C38.6711 35.9867 38.7896 35.8457 38.9036 35.7002L41.1236 35.7782C41.1326 35.7782 41.1431 35.7782 41.1536 35.7782C41.5106 35.7782 41.7986 35.4887 41.7986 35.1332C41.7986 35.0342 41.7761 34.9397 41.7356 34.8557L41.7371 34.8602L40.8191 32.8427C40.9076 32.6792 40.9976 32.5157 41.0831 32.3507L43.2686 31.9952C43.5791 31.9412 43.8116 31.6727 43.8116 31.3517C43.8116 31.2107 43.7666 31.0787 43.6901 30.9722L43.6916 30.9737L42.3971 29.1767L42.5606 28.6412L44.6351 27.8657C44.8841 27.7712 45.0581 27.5342 45.0581 27.2567C45.0581 27.0692 44.9786 26.8997 44.8511 26.7812L43.2281 25.2662C43.2476 25.0847 43.2656 24.9002 43.2806 24.7157L45.1691 23.5472C45.3566 23.4317 45.4811 23.2277 45.4811 22.9952C45.4811 22.7627 45.3581 22.5587 45.1721 22.4447L45.1691 22.4432H45.1841Z" fill="black"/>
</svg>
