<svg width="48" height="48" viewBox="0 0 48 48" fill="none" xmlns="http://www.w3.org/2000/svg">
<path d="M45.6341 41.9042C45.643 43.6108 44.9191 45.2391 43.6462 46.3758C42.3732 47.5125 40.6737 48.0482 38.979 47.8469C35.9294 47.3957 33.6946 44.7419 33.7689 41.6599V6.22736C33.6953 3.1421 35.9355 0.487005 38.9891 0.0403937C40.6822 -0.157771 42.379 0.379361 43.6496 1.5157C44.9202 2.65204 45.6427 4.27855 45.6341 5.98314V41.9042Z" fill="black"/>
<path d="M8.29878 36.0328C11.5752 36.0328 14.2313 38.6889 14.2313 41.9654C14.2313 45.2419 11.5752 47.898 8.29878 47.898C5.02231 47.898 2.36621 45.2419 2.36621 41.9654C2.36621 38.6889 5.02231 36.0328 8.29878 36.0328ZM23.9087 18.052C20.6167 18.2324 18.0625 20.9938 18.1389 24.2898V40.2253C18.1389 44.5501 20.0418 47.1755 22.83 47.7352C24.5804 48.0899 26.3976 47.6386 27.7786 46.5062C29.1597 45.3737 29.9582 43.6802 29.9532 41.8942V24.0151C29.9561 22.4185 29.3175 20.8877 28.181 19.7664C27.0444 18.6451 25.505 18.0274 23.9087 18.052Z" fill="black"/>
</svg>
