<svg width="48" height="48" viewBox="0 0 48 48" fill="none" xmlns="http://www.w3.org/2000/svg">
<path d="M38.5772 47.8672C38.2239 48.0073 37.8237 48.0378 37.4466 47.9531C37.2448 47.9098 37.0552 47.833 36.8888 47.727C36.7224 47.621 36.5826 47.4881 36.4776 47.3359L32.4122 41.4063L28.5453 45.082C28.0681 45.552 27.474 45.9269 26.8056 46.1797C26.3887 46.332 25.928 46.3769 25.4812 46.3086C25.2435 46.2658 25.0188 46.182 24.8211 46.0623C24.6234 45.9427 24.457 45.7898 24.3322 45.6133C24.0746 45.2326 23.9275 44.8055 23.9031 44.3672L22.2972 26.6094C19.646 27.0135 16.9113 26.6171 14.5699 25.4894C12.2285 24.3617 10.4288 22.5742 9.4846 20.4385C8.5404 18.3028 8.51155 15.9543 9.40307 13.8024C10.2946 11.6505 12.05 9.83165 14.3632 8.66298C16.6764 7.49431 19.4007 7.0499 22.0613 7.40722C24.7219 7.76453 27.15 8.90091 28.9223 10.6183C30.6946 12.3356 31.6988 14.525 31.7598 16.8048C31.8207 19.0847 30.9346 21.3103 29.2559 23.0938L46.7125 33.2031C47.1485 33.4406 47.5121 33.7618 47.7739 34.1406C47.8897 34.3178 47.9613 34.5133 47.9843 34.7148C48.0073 34.9164 47.9812 35.1198 47.9077 35.3125C47.7581 35.6738 47.4831 35.9883 47.1186 36.2149C46.5269 36.5806 45.8456 36.8289 45.1251 36.9414H45.0975L39.4309 37.9688L43.4685 43.9219C43.6743 44.2292 43.7274 44.5931 43.6162 44.9336C43.5099 45.2719 43.2602 45.5653 42.9148 45.7578C42.9012 45.7679 42.8856 45.7758 42.8687 45.7813L38.6787 47.832L38.5864 47.8672H38.5772ZM21.8358 21.5313L21.7481 20.6016V20.5469C21.7419 20.4002 21.7767 20.2543 21.8496 20.1211C21.9325 19.9659 22.0613 19.8314 22.2234 19.7305C22.2918 19.6884 22.3683 19.6567 22.4495 19.6367C22.6064 19.5906 22.7735 19.5746 22.9386 19.5899C23.1004 19.604 23.2572 19.6452 23.4001 19.7109C23.4473 19.7306 23.4921 19.7542 23.5339 19.7813L23.9538 20.0234C24.0789 19.6261 24.1379 19.2159 24.1292 18.8047V18.3906C24.1382 17.9436 24.0195 17.5014 23.7831 17.1016C23.5518 16.724 23.1938 16.4128 22.7541 16.207C22.2277 15.971 21.6373 15.8565 21.0421 15.875H20.0592C19.8049 15.8907 19.5516 15.8344 19.3393 15.7149C19.2582 15.6561 19.1946 15.582 19.1537 15.4985C19.1128 15.415 19.0958 15.3245 19.104 15.2344V15.1172C19.0976 15.0378 19.1102 14.9581 19.1411 14.8829C19.172 14.8077 19.2206 14.7386 19.284 14.6797C19.4228 14.5733 19.5966 14.5052 19.7823 14.4844C20.0252 14.4546 20.2708 14.4441 20.516 14.4531C20.9775 14.4531 21.4897 14.4531 22.0527 14.4844C22.6156 14.5156 23.1232 14.5313 23.5754 14.5625V12.6484C23.2893 12.5899 22.9709 12.5352 22.611 12.4805C22.2511 12.4258 21.8727 12.3789 21.4666 12.3438C21.2774 12.3242 21.0836 12.3125 20.8852 12.3047V11.3281H19.2978V12.3047C18.5963 12.3569 17.927 12.5778 17.3689 12.9414C17.0333 13.1972 16.7714 13.5147 16.6034 13.8695C16.4354 14.2244 16.3658 14.6071 16.3999 14.9883V15.3789C16.3999 16.3737 16.6937 17.0833 17.2813 17.5078C18.028 17.9726 18.9453 18.1982 19.87 18.1445H20.6498C20.8411 18.1394 21.0291 18.1875 21.1851 18.2813C21.2582 18.3256 21.3173 18.3844 21.3575 18.4524C21.3977 18.5205 21.4177 18.5958 21.4159 18.6719V18.8203C21.422 18.8913 21.4108 18.9626 21.383 19.0298C21.3552 19.097 21.3114 19.1587 21.2543 19.2109C21.1152 19.3131 20.9463 19.3818 20.7652 19.4102C20.4993 19.4548 20.2287 19.4757 19.9577 19.4727C19.6162 19.4727 19.247 19.4727 18.8502 19.4727C18.4533 19.4727 18.0611 19.4531 17.6735 19.4375C17.2859 19.4219 16.9259 19.3984 16.5937 19.375V21.2891C16.8475 21.3477 17.1105 21.3984 17.3874 21.4414C17.6643 21.4844 17.9458 21.5195 18.2457 21.5508C18.5456 21.582 18.8502 21.6094 19.1686 21.625H19.307V22.6875H20.8944V21.6406C21.2136 21.6203 21.531 21.5837 21.845 21.5313H21.8358ZM20.2576 1.19977e-05C23.1569 -0.00289233 26.023 0.521531 28.6621 1.53778C31.3011 2.55403 33.6514 4.03839 35.5539 5.89037C37.4564 7.74235 38.8666 9.91872 39.6892 12.2722C40.5117 14.6256 40.7273 17.1012 40.3214 19.5313C40.1956 20.3168 40.0028 21.0935 39.7446 21.8555C39.6998 21.9937 39.6155 22.1204 39.499 22.2244C39.3825 22.3284 39.2375 22.4064 39.0768 22.4517C38.9162 22.4969 38.7448 22.5078 38.578 22.4835C38.4111 22.4593 38.2539 22.4005 38.1203 22.3125L36.3853 21.3086C36.2065 21.2026 36.0722 21.0513 36.0017 20.8765C35.9312 20.7016 35.9281 20.5123 35.9931 20.3359C36.1365 19.8209 36.2443 19.2992 36.3161 18.7734C36.3908 18.2328 36.4278 17.6889 36.4268 17.1445C36.4235 14.564 35.5575 12.037 33.9289 9.85559C32.3004 7.67418 29.9758 5.92746 27.2239 4.81736C24.472 3.70725 21.4051 3.2791 18.3779 3.58239C15.3506 3.88568 12.4866 4.90802 10.1168 6.53124C7.74703 8.15446 5.96833 10.3123 4.98632 12.7552C4.0043 15.1982 3.85907 17.8265 4.56742 20.3364C5.27576 22.8463 6.80875 25.1352 8.98918 26.9386C11.1696 28.742 13.9084 29.9862 16.889 30.5274C17.1059 30.5667 17.3022 30.6637 17.4492 30.8043C17.5961 30.9449 17.6861 31.1216 17.7058 31.3086L17.8673 33.0899C17.8864 33.3212 17.7967 33.5495 17.6178 33.7251C17.4389 33.9007 17.1852 34.0094 16.9121 34.0274C16.7973 34.0342 16.6819 34.0249 16.5706 34C14.5842 33.6917 12.6644 33.1306 10.8763 32.3359C6.86628 30.5561 3.67619 27.6904 1.81532 24.1962C-0.045542 20.702 -0.469894 16.7807 0.610006 13.0585C1.68991 9.33621 4.2118 6.0275 7.7731 3.66054C11.3344 1.29358 15.7298 0.00482404 20.2576 1.19977e-05ZM37.5851 45.8867C37.6223 45.8984 37.6632 45.8984 37.7004 45.8867H37.7419L41.4981 44.1055C41.5333 44.0812 41.559 44.0485 41.572 44.0117C41.5835 43.988 41.5835 43.9613 41.572 43.9375L37.2344 37.3399C37.1957 37.284 37.1677 37.2234 37.1513 37.1602C37.1145 37.0033 37.1526 36.8404 37.2573 36.7072C37.3619 36.574 37.5245 36.4813 37.7096 36.4492L44.073 35.5469C44.5578 35.4753 45.0179 35.3139 45.4205 35.0742C45.551 34.9984 45.6535 34.8927 45.7158 34.7695C45.7322 34.7304 45.7378 34.6885 45.7322 34.6472C45.7266 34.606 45.7099 34.5663 45.6835 34.5313C45.5411 34.338 45.3466 34.176 45.1159 34.0586L24.023 22.0859L24.3553 26.1289L25.7812 43.5391C25.7841 43.7681 25.8521 43.9932 25.9796 44.1953C26.0002 44.2289 26.0289 44.2584 26.0639 44.282C26.0989 44.3055 26.1393 44.3226 26.1826 44.332C26.3404 44.3509 26.5012 44.3291 26.6441 44.2695C27.0896 44.0951 27.4836 43.8389 27.7977 43.5195L31.7246 39.3555C31.7767 39.3089 31.8356 39.2682 31.9 39.2344C31.9808 39.1944 32.0702 39.1684 32.163 39.1578C32.2557 39.1472 32.35 39.1522 32.4405 39.1725C32.531 39.1928 32.6158 39.2281 32.6902 39.2762C32.7645 39.3244 32.8268 39.3845 32.8737 39.4531L37.5158 45.8516C37.5246 45.8614 37.5357 45.8696 37.5484 45.8757C37.5611 45.8817 37.5752 45.8855 37.5897 45.8867H37.5851Z" fill="black"/>
</svg>
